<svg width="1440" height="949" fill="none" xmlns="http://www.w3.org/2000/svg"><g clip-path="url(#clip0_10944_61236)"><path fill="url(#paint0_linear_10944_61236)" d="M0-37h1440v987H0z"/><g opacity=".3"><path opacity=".4" d="M64.802 142.566c15.916 0 28.818-12.911 28.818-28.839 0-15.927-12.902-28.838-28.818-28.838-15.916 0-28.818 12.911-28.818 28.838 0 15.928 12.902 28.839 28.818 28.839z" fill="#F090A9"/><path opacity=".4" d="M52.671 132.693c15.916 0 28.818-12.911 28.818-28.839 0-15.927-12.902-28.838-28.818-28.838-15.915 0-28.817 12.911-28.817 28.838 0 15.928 12.902 28.839 28.817 28.839z" stroke="#FF2A62" stroke-width="2.83" stroke-miterlimit="10"/><path d="M327.685 544.224c15.915 0 28.817-12.911 28.817-28.838 0-15.928-12.902-28.839-28.817-28.839-15.916 0-28.818 12.911-28.818 28.839 0 15.927 12.902 28.838 28.818 28.838z" fill="#EB537B"/><path d="M315.552 534.351c15.916 0 28.818-12.911 28.818-28.838 0-15.928-12.902-28.839-28.818-28.839-15.916 0-28.818 12.911-28.818 28.839 0 15.927 12.902 28.838 28.818 28.838z" stroke="#FF2A62" stroke-width="2.83" stroke-miterlimit="10"/><path d="M1312.82 868.678c15.91 0 28.82-12.912 28.82-28.839 0-15.927-12.91-28.839-28.82-28.839-15.92 0-28.82 12.912-28.82 28.839 0 15.927 12.9 28.839 28.82 28.839z" fill="#FFCFDC"/><path opacity=".4" d="M87.818 710.103c15.915 0 28.817-12.911 28.817-28.838 0-15.928-12.902-28.839-28.817-28.839-15.916 0-28.818 12.911-28.818 28.839 0 15.927 12.902 28.838 28.818 28.838z" fill="#EB537B" stroke="#FF2A62" stroke-width="2.83" stroke-miterlimit="10"/><path opacity=".4" d="M77.818 698.103c15.915 0 28.817-12.911 28.817-28.838 0-15.928-12.902-28.839-28.817-28.839-15.916 0-28.818 12.911-28.818 28.839 0 15.927 12.902 28.838 28.818 28.838z" stroke="#FF2A62" stroke-width="2.83" stroke-miterlimit="10"/><path d="M1044.15 565.521c15.92 0 28.82-12.911 28.82-28.838 0-15.928-12.9-28.839-28.82-28.839-15.91 0-28.81 12.911-28.81 28.839 0 15.927 12.9 28.838 28.81 28.838z" fill="#FFCFDC"/><path d="M1032.02 563.65c15.92 0 28.82-12.911 28.82-28.839 0-15.927-12.9-28.838-28.82-28.838-15.91 0-28.81 12.911-28.81 28.838 0 15.928 12.9 28.839 28.81 28.839zm6.18 438.8c15.91 0 28.82-12.915 28.82-28.842s-12.91-28.838-28.82-28.838c-15.92 0-28.82 12.911-28.82 28.838 0 15.927 12.9 28.842 28.82 28.842z" stroke="#FF2A62" stroke-width="2.83" stroke-miterlimit="10"/><path opacity=".4" d="M1385.63 276.781c15.91 0 28.81-12.912 28.81-28.839 0-15.927-12.9-28.838-28.81-28.838-15.92 0-28.82 12.911-28.82 28.838 0 15.927 12.9 28.839 28.82 28.839z" fill="#EB537B"/><path opacity=".4" d="M1373.49 266.909c15.92 0 28.82-12.912 28.82-28.839 0-15.927-12.9-28.839-28.82-28.839-15.91 0-28.81 12.912-28.81 28.839 0 15.927 12.9 28.839 28.81 28.839z" stroke="#FF2A62" stroke-width="2.83" stroke-miterlimit="10"/><path opacity=".4" d="M274.007 371.889c.587 2.233-1.463 4.265-3.691 3.657l-43.677-11.915c-2.227-.607-2.962-3.398-1.323-5.024l32.151-31.894c1.64-1.627 4.426-.868 5.014 1.366l11.526 43.81z" fill="#EB537B"/><path d="M1236.27 794.977l-53.7-14.649 39.53-39.214 14.17 53.863z" fill="#EB537B"/><path d="M673.327 529.195l-53.7-14.649 39.529-39.214 14.171 53.863z" fill="#F090A9"/><path d="M161.287 656.522c1.999 1.155 1.999 4.04 0 5.195l-39.206 22.652c-2 1.155-4.501-.288-4.501-2.598v-45.303c0-2.31 2.501-3.754 4.501-2.598l39.206 22.652z" fill="#FFCFDC"/><path opacity=".7" d="M1377.34 657.085c-.57 2.237-3.35 3.022-5 1.413l-72.08-70.035c-1.66-1.61-.95-4.41 1.28-5.039l96.8-27.374c2.22-.629 4.29 1.385 3.72 3.625l-24.72 97.41z" fill="#F090A9"/><path d="M413.352 737.706h-39.706v39.735h39.706v-39.735z" fill="#F090A9"/><path d="M422.618 747.86h-39.706v39.735h39.706V747.86z" stroke="#FF2A62" stroke-width="2.83" stroke-miterlimit="10"/><path opacity=".4" d="M1248.71 47.426H1215c-1.66 0-3 1.343-3 3v33.735c0 1.657 1.34 3 3 3h33.71c1.65 0 3-1.343 3-3V50.426c0-1.657-1.35-3-3-3z" fill="#EB537B"/><path opacity=".4" d="M1257.97 57.58h-33.7c-1.66 0-3 1.344-3 3v33.736c0 1.656 1.34 3 3 3h33.7c1.66 0 3-1.344 3-3V60.58c0-1.657-1.34-3-3-3z" stroke="#FF2A62" stroke-width="2.83" stroke-miterlimit="10"/><path d="M1368.47 948.744h-31.7a4 4 0 00-4 4v31.735a4 4 0 004 4h31.7a4 4 0 004-4v-31.735a4 4 0 00-4-4z" fill="#FFCFDC"/><path opacity=".4" d="M123.764 270.652H90.059a3 3 0 00-3 3v33.735a3 3 0 003 3h33.705a3 3 0 003-3v-33.735a3 3 0 00-3-3z" fill="#EB537B"/><path opacity=".4" d="M133.03 280.807H99.324a3 3 0 00-3 3v33.735a3 3 0 003 3h33.706a3 3 0 003-3v-33.735a3 3 0 00-3-3z" stroke="#FF2A62" stroke-width="2.83" stroke-miterlimit="10"/><path opacity=".4" d="M1244.56 367.548l-46.32 17.046a4.01 4.01 0 00-2.38 5.136l17.04 46.359a3.994 3.994 0 005.13 2.373l46.32-17.046a4.001 4.001 0 002.38-5.136l-17.04-46.359a3.995 3.995 0 00-5.13-2.373z" stroke="#EB537B" stroke-width="2.83" stroke-miterlimit="10"/><path d="M1071.85 700.822l-53.83 19.809 19.8 53.869 53.83-19.809-19.8-53.869z" stroke="#F090A9" stroke-width="2.83" stroke-miterlimit="10"/><path opacity=".4" d="M1386.15 108.57c7.31 0 13.23-5.93 13.23-13.245 0-7.315-5.92-13.245-13.23-13.245-7.31 0-13.24 5.93-13.24 13.245 0 7.315 5.93 13.245 13.24 13.245z" stroke="#EB537B" stroke-width="2.83" stroke-miterlimit="10"/><path d="M858.499 506.801c7.31 0 13.235-5.929 13.235-13.244 0-7.315-5.925-13.245-13.235-13.245s-13.235 5.93-13.235 13.245c0 7.315 5.925 13.244 13.235 13.244z" stroke="#FFCFDC" stroke-width="2.83" stroke-miterlimit="10"/><path d="M53.235 489.49c7.31 0 13.236-5.93 13.236-13.245 0-7.315-5.926-13.245-13.236-13.245C45.925 463 40 468.93 40 476.245c0 7.315 5.926 13.245 13.235 13.245z" stroke="#F090A9" stroke-width="2.83" stroke-miterlimit="10"/><path d="M845.263 972.142c7.309 0 13.235-5.93 13.235-13.245 0-7.315-5.926-13.245-13.235-13.245-7.31 0-13.236 5.93-13.236 13.245 0 7.315 5.926 13.245 13.236 13.245z" stroke="#FFCFDC" stroke-width="2.83" stroke-miterlimit="10"/><path d="M494.089 631.304c7.309 0 13.235-5.93 13.235-13.245 0-7.315-5.926-13.245-13.235-13.245-7.31 0-13.235 5.93-13.235 13.245 0 7.315 5.925 13.245 13.235 13.245z" stroke="#F090A9" stroke-width="2.83" stroke-miterlimit="10"/><path opacity=".7" d="M1332.32 475.897c7.31 0 13.24-5.93 13.24-13.245 0-7.315-5.93-13.245-13.24-13.245-7.31 0-13.23 5.93-13.23 13.245 0 7.315 5.92 13.245 13.23 13.245z" stroke="#F090A9" stroke-width="2.83" stroke-miterlimit="10"/><path opacity=".4" d="M1170.24 37.916c7.3 0 13.23-5.93 13.23-13.245 0-7.315-5.93-13.245-13.23-13.245-7.31 0-13.24 5.93-13.24 13.245 0 7.315 5.93 13.245 13.24 13.245z" stroke="#EB537B" stroke-width="2.83" stroke-miterlimit="10"/><path opacity=".4" d="M250.818 88.715a2.5 2.5 0 01-3.07 1.754l-65.727-17.917a2.5 2.5 0 01-1.755-3.07l17.918-65.727a2.5 2.5 0 013.069-1.754l65.727 17.917a2.5 2.5 0 011.755 3.07l-17.917 65.727z" stroke="#FF2A62" stroke-width="3"/></g></g><defs><linearGradient id="paint0_linear_10944_61236" x1="720" y1="43.648" x2="720" y2="950" gradientUnits="userSpaceOnUse"><stop stop-color="#FBE8E6" stop-opacity="0"/><stop offset=".285" stop-color="#FFFAEC"/><stop offset="1" stop-color="#F090A9"/></linearGradient><clipPath id="clip0_10944_61236"><path fill="#fff" d="M0 0h1440v949H0z"/></clipPath></defs></svg>