<svg width="375" height="691" fill="none" xmlns="http://www.w3.org/2000/svg"><g clip-path="url(#clip0_11089_246007)"><path fill="url(#paint0_linear_11089_246007)" d="M.5 49h375v938H.5z"/><g opacity=".3"><path d="M-14.738 41.625c8.33 0 15.084-6.759 15.084-15.095 0-8.337-6.754-15.095-15.084-15.095s-15.084 6.758-15.084 15.095c0 8.336 6.753 15.095 15.084 15.095z" fill="#EB537B"/><path d="M360.282 52.773c8.331 0 15.084-6.758 15.084-15.095s-6.753-15.095-15.084-15.095c-8.33 0-15.084 6.758-15.084 15.095s6.754 15.095 15.084 15.095z" fill="#FFCFDC"/><path d="M353.933 51.793c8.33 0 15.084-6.758 15.084-15.095s-6.754-15.095-15.084-15.095c-8.331 0-15.084 6.758-15.084 15.095s6.753 15.095 15.084 15.095z" stroke="#FF2A62" stroke-width="1.481" stroke-miterlimit="10"/><path d="M363.515 286.639c8.33 0 15.084-6.758 15.084-15.095 0-8.336-6.754-15.095-15.084-15.095-8.331 0-15.084 6.759-15.084 15.095 0 8.337 6.753 15.095 15.084 15.095z" fill="#EB537B"/><path d="M357.165 281.472c8.331 0 15.084-6.758 15.084-15.095s-6.753-15.095-15.084-15.095-15.084 6.758-15.084 15.095 6.753 15.095 15.084 15.095z" stroke="#FF2A62" stroke-width="1.481" stroke-miterlimit="10"/><path d="M46.18 33.758L18.072 26.09 38.763 5.564l7.417 28.194zM30.102 142.9H9.32v20.798h20.783V142.9z" fill="#F090A9"/><path d="M34.953 148.214H14.17v20.799h20.783v-20.799z" stroke="#FF2A62" stroke-width="1.481" stroke-miterlimit="10"/><path d="M374.78 123.593l-28.176 10.369 10.361 28.196 28.176-10.368-10.361-28.197z" stroke="#F090A9" stroke-width="1.481" stroke-miterlimit="10"/><path d="M14.169 281.324a6.93 6.93 0 006.928-6.933 6.93 6.93 0 00-6.928-6.933 6.93 6.93 0 00-6.928 6.933 6.93 6.93 0 006.928 6.933z" stroke="#EB537B" stroke-width="1.481" stroke-miterlimit="10"/><path d="M295.105 16.035a6.93 6.93 0 006.928-6.932 6.93 6.93 0 00-6.928-6.933 6.93 6.93 0 00-6.927 6.933 6.93 6.93 0 006.927 6.932zm-38.927 249.574a6.93 6.93 0 006.927-6.933 6.93 6.93 0 00-6.927-6.932 6.93 6.93 0 00-6.928 6.932 6.93 6.93 0 006.928 6.933z" stroke="#FFCFDC" stroke-width="1.481" stroke-miterlimit="10"/><path d="M72.362 87.206a6.93 6.93 0 006.928-6.933 6.93 6.93 0 00-6.928-6.933 6.93 6.93 0 00-6.927 6.933 6.93 6.93 0 006.927 6.933z" stroke="#F090A9" stroke-width="1.481" stroke-miterlimit="10"/><path d="M-14.738 642.03c8.33 0 15.084-6.758 15.084-15.095s-6.754-15.095-15.084-15.095-15.084 6.758-15.084 15.095 6.753 15.095 15.084 15.095z" fill="#EB537B"/><path d="M360.282 653.178c8.331 0 15.084-6.758 15.084-15.095 0-8.336-6.753-15.095-15.084-15.095-8.33 0-15.084 6.759-15.084 15.095 0 8.337 6.754 15.095 15.084 15.095z" fill="#FFCFDC"/><path d="M353.934 660.199c8.33 0 15.084-6.758 15.084-15.095s-6.754-15.095-15.084-15.095c-8.331 0-15.084 6.758-15.084 15.095s6.753 15.095 15.084 15.095z" stroke="#FF2A62" stroke-width="1.481" stroke-miterlimit="10"/><path d="M166.181 634.164l-28.108-7.668 20.691-20.526 7.417 28.194z" fill="#F090A9"/><path opacity=".4" d="M363.352 381.991h-17.643a1.57 1.57 0 00-1.57 1.571v17.657a1.57 1.57 0 001.57 1.571h17.643a1.57 1.57 0 001.57-1.571v-17.658a1.57 1.57 0 00-1.57-1.57z" fill="#EB537B"/><path opacity=".4" d="M368.201 387.308h-17.642a1.57 1.57 0 00-1.571 1.57v17.658c0 .867.703 1.57 1.571 1.57h17.642a1.57 1.57 0 001.57-1.57v-17.658a1.57 1.57 0 00-1.57-1.57z" stroke="#FF2A62" stroke-width="1.481" stroke-miterlimit="10"/><path opacity=".4" d="M7.523 498.835h-17.642a1.57 1.57 0 00-1.57 1.57v17.658c0 .867.703 1.57 1.57 1.57H7.523a1.57 1.57 0 001.57-1.57v-17.658a1.57 1.57 0 00-1.57-1.57z" fill="#EB537B"/><path opacity=".4" d="M11.375 504.149H-6.268a1.57 1.57 0 00-1.57 1.571v17.658c0 .867.703 1.57 1.57 1.57h17.643a1.57 1.57 0 001.57-1.57V505.72a1.57 1.57 0 00-1.57-1.571z" stroke="#FF2A62" stroke-width="1.481" stroke-miterlimit="10"/><path opacity=".4" d="M273.179 661.555l-24.245 8.922a2.094 2.094 0 00-1.243 2.688l8.917 24.266a2.09 2.09 0 002.687 1.242l24.245-8.922a2.094 2.094 0 001.243-2.688l-8.917-24.266a2.09 2.09 0 00-2.687-1.242z" stroke="#EB537B" stroke-width="1.481" stroke-miterlimit="10"/><path d="M280.904 665.688l-24.422 8.987a2.002 2.002 0 00-1.187 2.568l8.982 24.442a1.999 1.999 0 002.566 1.187l24.422-8.987a2.001 2.001 0 001.187-2.568l-8.981-24.442a2 2 0 00-2.567-1.187z" fill="#F090A9"/><path d="M263.105 622.441a6.93 6.93 0 006.928-6.933 6.93 6.93 0 00-6.928-6.932 6.93 6.93 0 00-6.927 6.932 6.93 6.93 0 006.927 6.933z" stroke="#FFCFDC" stroke-width="1.481" stroke-miterlimit="10"/><path d="M-6.393 613.38a6.93 6.93 0 006.928-6.933 6.93 6.93 0 00-6.928-6.932 6.93 6.93 0 00-6.927 6.932 6.93 6.93 0 006.927 6.933zm78.756 66.231a6.93 6.93 0 006.928-6.933 6.93 6.93 0 00-6.928-6.933 6.93 6.93 0 00-6.927 6.933 6.93 6.93 0 006.927 6.933z" stroke="#F090A9" stroke-width="1.481" stroke-miterlimit="10"/></g></g><defs><linearGradient id="paint0_linear_11089_246007" x1="188" y1="125.644" x2="187.999" y2="987" gradientUnits="userSpaceOnUse"><stop stop-color="#FBE8E6" stop-opacity="0"/><stop offset=".285" stop-color="#FFFAEC"/><stop offset="1" stop-color="#F090A9"/></linearGradient><clipPath id="clip0_11089_246007"><path fill="#fff" d="M0 0h375v691H0z"/></clipPath></defs></svg>