<svg width="1440" height="1282" fill="none" xmlns="http://www.w3.org/2000/svg"><g opacity=".3" clip-path="url(#clip0_10944_62943)"><path d="M176.802 160.61c15.916 0 28.818-12.912 28.818-28.839 0-15.927-12.902-28.839-28.818-28.839-15.916 0-28.818 12.912-28.818 28.839 0 15.927 12.902 28.839 28.818 28.839z" fill="#F090A9"/><path d="M164.671 150.738c15.916 0 28.818-12.911 28.818-28.838 0-15.928-12.902-28.84-28.818-28.84-15.915 0-28.817 12.912-28.817 28.84 0 15.927 12.902 28.838 28.817 28.838z" stroke="#FF2A62" stroke-width="2.83" stroke-miterlimit="10"/><path d="M327.685 578.269c15.915 0 28.817-12.912 28.817-28.839 0-15.927-12.902-28.839-28.817-28.839-15.916 0-28.818 12.912-28.818 28.839 0 15.927 12.902 28.839 28.818 28.839z" fill="#EB537B"/><path d="M315.552 568.397c15.916 0 28.818-12.912 28.818-28.839 0-15.927-12.902-28.839-28.818-28.839-15.916 0-28.818 12.912-28.818 28.839 0 15.927 12.902 28.839 28.818 28.839z" stroke="#FF2A62" stroke-width="2.83" stroke-miterlimit="10"/><path d="M170.626 972.969c15.916 0 28.818-12.912 28.818-28.839 0-15.927-12.902-28.839-28.818-28.839-15.915 0-28.817 12.912-28.817 28.839 0 15.927 12.902 28.839 28.817 28.839z" fill="#FFCFDC"/><path d="M158.493 963.097c15.916 0 28.818-12.912 28.818-28.839 0-15.927-12.902-28.838-28.818-28.838-15.915 0-28.817 12.911-28.817 28.838 0 15.927 12.902 28.839 28.817 28.839zm-46.675-393.948c15.915 0 28.817-12.912 28.817-28.839 0-15.927-12.902-28.839-28.817-28.839C95.902 511.471 83 524.383 83 540.31c0 15.927 12.902 28.839 28.818 28.839z" stroke="#FF2A62" stroke-width="2.83" stroke-miterlimit="10"/><path d="M85.818 548.149c15.915 0 28.817-12.912 28.817-28.839 0-15.927-12.902-28.839-28.817-28.839C69.902 490.471 57 503.383 57 519.31c0 15.927 12.902 28.839 28.818 28.839z" stroke="#FF2A62" stroke-width="2.83" stroke-miterlimit="10"/><path d="M1044.16 583.566c15.91 0 28.81-12.911 28.81-28.839 0-15.927-12.9-28.838-28.81-28.838-15.92 0-28.82 12.911-28.82 28.838 0 15.928 12.9 28.839 28.82 28.839z" fill="#FFCFDC"/><path d="M1032.02 573.694c15.92 0 28.82-12.911 28.82-28.838 0-15.928-12.9-28.839-28.82-28.839-15.91 0-28.81 12.911-28.81 28.839 0 15.927 12.9 28.838 28.81 28.838z" stroke="#FF2A62" stroke-width="2.83" stroke-miterlimit="10"/><path d="M640.038 844.051c15.916 0 28.818-12.912 28.818-28.839 0-15.927-12.902-28.839-28.818-28.839-15.915 0-28.817 12.912-28.817 28.839 0 15.927 12.902 28.839 28.817 28.839z" fill="#F090A9"/><path d="M627.906 834.179c15.915 0 28.817-12.911 28.817-28.839 0-15.927-12.902-28.838-28.817-28.838-15.916 0-28.818 12.911-28.818 28.838 0 15.928 12.902 28.839 28.818 28.839z" stroke="#FF2A62" stroke-width="2.83" stroke-miterlimit="10"/><path d="M1050.33 1030.36c15.92 0 28.82-12.91 28.82-28.83 0-15.932-12.9-28.844-28.82-28.844-15.91 0-28.81 12.912-28.81 28.844 0 15.92 12.9 28.83 28.81 28.83z" fill="#EB537B"/><path d="M1038.2 1020.49c15.92 0 28.82-12.91 28.82-28.837s-12.9-28.838-28.82-28.838-28.82 12.911-28.82 28.838c0 15.927 12.9 28.837 28.82 28.837z" stroke="#FF2A62" stroke-width="2.83" stroke-miterlimit="10"/><path d="M1385.63 294.825c15.91 0 28.81-12.911 28.81-28.838 0-15.928-12.9-28.839-28.81-28.839-15.92 0-28.82 12.911-28.82 28.839 0 15.927 12.9 28.838 28.82 28.838z" fill="#EB537B"/><path d="M1373.49 284.954c15.92 0 28.82-12.912 28.82-28.839 0-15.927-12.9-28.839-28.82-28.839-15.91 0-28.81 12.912-28.81 28.839 0 15.927 12.9 28.839 28.81 28.839z" stroke="#FF2A62" stroke-width="2.83" stroke-miterlimit="10"/><path d="M1391.8 838.753c15.92 0 28.82-12.911 28.82-28.838 0-15.928-12.9-28.839-28.82-28.839-15.91 0-28.82 12.911-28.82 28.839 0 15.927 12.91 28.838 28.82 28.838z" fill="#F090A9"/><path d="M1379.67 828.881c15.92 0 28.82-12.911 28.82-28.838 0-15.927-12.9-28.839-28.82-28.839-15.91 0-28.82 12.912-28.82 28.839 0 15.927 12.91 28.838 28.82 28.838z" stroke="#FF2A62" stroke-width="2.83" stroke-miterlimit="10"/><path d="M282.007 317.933c.587 2.234-1.463 4.266-3.691 3.658l-43.677-11.915c-2.227-.607-2.962-3.398-1.323-5.024l32.151-31.895c1.64-1.627 4.426-.867 5.014 1.367l11.526 43.809zm954.263 367.089l-53.7-14.649 39.53-39.214 14.17 53.863z" fill="#EB537B"/><path d="M673.329 547.24l-53.7-14.649 39.529-39.214 14.171 53.863z" fill="#F090A9"/><path d="M161.287 674.566c1.999 1.155 1.999 4.041 0 5.196l-39.206 22.651c-2 1.156-4.501-.287-4.501-2.597v-45.304c0-2.31 2.501-3.753 4.501-2.597l39.206 22.651z" fill="#FFCFDC"/><path d="M1377.34 587.13c-.57 2.237-3.35 3.022-5 1.414l-72.08-70.036c-1.66-1.61-.95-4.41 1.28-5.038l96.8-27.375c2.22-.629 4.29 1.386 3.72 3.625l-24.72 97.41z" fill="#F090A9"/><path d="M958.136 877.605l-48.202 27.85v-55.7l48.202 27.85z" fill="#FFCFDC"/><path d="M413.352 755.751h-39.706v39.735h39.706v-39.735z" fill="#F090A9"/><path d="M422.618 765.905h-39.706v39.735h39.706v-39.735z" stroke="#FF2A62" stroke-width="2.83" stroke-miterlimit="10"/><path d="M1248.71 65.471H1215c-1.66 0-3 1.343-3 3v33.735c0 1.657 1.34 3 3 3h33.71c1.65 0 3-1.343 3-3V68.471c0-1.657-1.35-3-3-3z" fill="#EB537B"/><path d="M1257.97 75.626h-33.7c-1.66 0-3 1.343-3 3v33.734c0 1.657 1.34 3 3 3h33.7c1.66 0 3-1.343 3-3V78.626c0-1.657-1.34-3-3-3z" stroke="#FF2A62" stroke-width="2.83" stroke-miterlimit="10"/><path d="M1368.47 1054.79h-31.7c-2.21 0-4 1.79-4 4v31.73c0 2.21 1.79 4 4 4h31.7c2.21 0 4-1.79 4-4v-31.73c0-2.21-1.79-4-4-4z" fill="#FFCFDC"/><path d="M1377.74 1064.94h-31.71c-2.21 0-4 1.79-4 4v31.74c0 2.21 1.79 4 4 4h31.71c2.21 0 4-1.79 4-4v-31.74c0-2.21-1.79-4-4-4z" stroke="#EB537B" stroke-width="2.83" stroke-miterlimit="10"/><path d="M99.764 280.698H66.06a3 3 0 00-3 3v33.735a3 3 0 003 3h33.706a3 3 0 002.999-3v-33.735a3 3 0 00-3-3z" fill="#EB537B"/><path d="M109.03 290.852H75.324a3 3 0 00-3 3v33.735a3 3 0 003 3h33.706a3 3 0 003-3v-33.735a3 3 0 00-3-3z" stroke="#FF2A62" stroke-width="2.83" stroke-miterlimit="10"/><path d="M440.967 347.151l-53.828 19.809 19.794 53.868 53.829-19.809-19.795-53.868zm807.343 37.061l-53.83 19.809 19.8 53.868 53.83-19.809-19.8-53.868z" stroke="#EB537B" stroke-width="2.83" stroke-miterlimit="10"/><path d="M707.198-6.433l-46.321 17.047a4.002 4.002 0 00-2.374 5.135l17.035 46.36a3.997 3.997 0 005.133 2.373l46.321-17.046a4.002 4.002 0 002.375-5.136L712.331-4.06a3.997 3.997 0 00-5.133-2.373z" stroke="#FFCFDC" stroke-width="2.83" stroke-miterlimit="10"/><path d="M1071.85 718.867l-53.82 19.809 19.79 53.868 53.83-19.808-19.8-53.869zM61.348 808.578l-46.32 17.046a4.003 4.003 0 00-2.375 5.136l17.035 46.359a3.999 3.999 0 005.134 2.374l46.32-17.047a4.002 4.002 0 002.375-5.136l-17.035-46.359a3.998 3.998 0 00-5.134-2.373z" stroke="#F090A9" stroke-width="2.83" stroke-miterlimit="10"/><path d="M511.565 817.779l-53.829 19.809 19.795 53.868 53.829-19.809-19.795-53.868zm874.585-691.165c7.31 0 13.23-5.93 13.23-13.245 0-7.315-5.92-13.245-13.23-13.245-7.31 0-13.24 5.93-13.24 13.245 0 7.315 5.93 13.245 13.24 13.245zM382.913 1020.21c7.31 0 13.235-5.93 13.235-13.25 0-7.311-5.925-13.241-13.235-13.241s-13.235 5.93-13.235 13.241c0 7.32 5.925 13.25 13.235 13.25z" stroke="#EB537B" stroke-width="2.83" stroke-miterlimit="10"/><path d="M858.501 524.847c7.31 0 13.235-5.93 13.235-13.245 0-7.315-5.925-13.245-13.235-13.245s-13.235 5.93-13.235 13.245c0 7.315 5.925 13.245 13.235 13.245zm-687.354-44.15c7.31 0 13.236-5.93 13.236-13.245 0-7.315-5.926-13.245-13.236-13.245-7.309 0-13.235 5.93-13.235 13.245 0 7.315 5.926 13.245 13.235 13.245zm674.118 509.49c7.309 0 13.235-5.93 13.235-13.245 0-7.315-5.926-13.245-13.235-13.245-7.31 0-13.236 5.93-13.236 13.245 0 7.315 5.926 13.245 13.236 13.245z" stroke="#FFCFDC" stroke-width="2.83" stroke-miterlimit="10"/><path d="M494.089 649.349c7.309 0 13.235-5.93 13.235-13.245 0-7.315-5.926-13.245-13.235-13.245-7.31 0-13.235 5.93-13.235 13.245 0 7.315 5.925 13.245 13.235 13.245zm838.231-155.407c7.31 0 13.24-5.93 13.24-13.245 0-7.315-5.93-13.245-13.24-13.245-7.31 0-13.23 5.93-13.23 13.245 0 7.315 5.92 13.245 13.23 13.245z" stroke="#F090A9" stroke-width="2.83" stroke-miterlimit="10"/><path d="M1170.24 55.961c7.3 0 13.23-5.93 13.23-13.245 0-7.315-5.93-13.245-13.23-13.245-7.31 0-13.24 5.93-13.24 13.245 0 7.315 5.93 13.245 13.24 13.245z" stroke="#EB537B" stroke-width="2.83" stroke-miterlimit="10"/><path d="M373.735 86.132a2.5 2.5 0 01-1.781 3.053l-73.326 19.321a2.5 2.5 0 01-3.055-1.781l-19.308-73.384a2.5 2.5 0 011.781-3.054l73.325-19.321a2.5 2.5 0 013.055 1.781l19.309 73.385z" stroke="#FF2A62" stroke-width="3"/><path d="M1282.03 956.192c28.02 0 50.73-22.731 50.73-50.772 0-28.041-22.71-50.773-50.73-50.773-28.02 0-50.74 22.732-50.74 50.773 0 28.041 22.72 50.772 50.74 50.772zM112.802 1292.25c15.916 0 28.818-12.91 28.818-28.84 0-15.92-12.902-28.83-28.818-28.83-15.916 0-28.818 12.91-28.818 28.83 0 15.93 12.903 28.84 28.818 28.84z" fill="#EB537B"/><path d="M124.671 1282.38c15.916 0 28.818-12.91 28.818-28.84 0-15.92-12.902-28.84-28.818-28.84-15.915 0-28.818 12.92-28.818 28.84 0 15.93 12.903 28.84 28.818 28.84z" stroke="#FF2A62" stroke-width="2.83" stroke-miterlimit="10"/><path d="M1037.98 1310.95c15.92 0 28.82-12.91 28.82-28.83 0-15.93-12.9-28.84-28.82-28.84s-28.82 12.91-28.82 28.84c0 15.92 12.9 28.83 28.82 28.83z" fill="#EB537B"/><path d="M1025.85 1301.08c15.91 0 28.81-12.91 28.81-28.84 0-15.92-12.9-28.83-28.81-28.83-15.92 0-28.821 12.91-28.821 28.83 0 15.93 12.901 28.84 28.821 28.84z" stroke="#FF2A62" stroke-width="2.83" stroke-miterlimit="10"/><path d="M707.198 1149.21l-46.321 17.05a3.996 3.996 0 00-2.374 5.13l17.035 46.36a3.985 3.985 0 005.133 2.37l46.321-17.04a4.003 4.003 0 002.375-5.14l-17.036-46.36a4 4 0 00-5.133-2.37z" stroke="#FFCFDC" stroke-width="2.83" stroke-miterlimit="10"/><path d="M1386.15 1282.26c7.31 0 13.23-5.93 13.23-13.25 0-7.31-5.92-13.24-13.23-13.24-7.31 0-13.24 5.93-13.24 13.24 0 7.32 5.93 13.25 13.24 13.25zm-570.885 13.24c7.309 0 13.235-5.93 13.235-13.24 0-7.32-5.926-13.25-13.235-13.25-7.31 0-13.236 5.93-13.236 13.25 0 7.31 5.926 13.24 13.236 13.24z" stroke="#EB537B" stroke-width="2.83" stroke-miterlimit="10"/><path d="M1291.1 1282.48c.42 1.6-.53 3.24-2.14 3.66l-73.32 19.32c-1.6.42-3.25-.53-3.67-2.13l-19.31-73.39a3 3 0 012.14-3.66l73.33-19.33a3 3 0 013.66 2.14l19.31 73.39z" stroke="#FF2A62" stroke-width="2"/></g><defs><clipPath id="clip0_10944_62943"><path fill="#fff" transform="translate(0 .471)" d="M0 0h1440v1281H0z"/></clipPath></defs></svg>