<svg width="248" height="297" fill="none" xmlns="http://www.w3.org/2000/svg"><path d="M8.798 146.958c.267-17.032 10.698-31.526 25.436-37.808-2.872-16.258 4.116-33.379 18.982-42.682 12.857-8.046 28.396-8.262 41.025-1.916 7.725-10.446 20.202-17.16 34.203-16.994 13.556.165 25.525 6.764 33.034 16.841 12.565-6.383 28.066-6.27 40.949 1.676 14.929 9.188 22.031 26.233 19.312 42.504 15.386 6.397 26.084 21.69 25.754 39.344v.076c-.204 17.02-10.635 31.691-25.538 37.986 2.82 16.271-4.206 33.354-19.096 42.631-12.858 8.009-28.384 8.186-41 1.841-7.623 10.293-19.859 16.93-33.631 16.93h-.381c-13.633-.114-25.69-6.726-33.237-16.88-12.591 6.359-28.105 6.219-40.975-1.751-14.903-9.24-21.98-26.31-19.198-42.568-15.284-6.409-25.931-21.626-25.64-39.204v-.026zm161.455 122.29c4.51 4.899 11.485 4.607 16.618-.673 5.222-5.191 5.438-12.158.483-16.613-4.853-4.531-11.854-4.264-16.644.647-4.866 4.836-5.057 11.829-.47 16.626l.013.013zm-1.51 24.902c2.528 2.742 6.429 2.577 9.313-.368 2.922-2.906 3.037-6.803.28-9.303-2.719-2.538-6.633-2.386-9.313.368-2.719 2.704-2.834 6.625-.267 9.316l-.013-.013z" fill="#221A15"/><path d="M3.214 142.703c.267-17.033 10.698-31.526 25.436-37.809-2.871-16.258 4.116-33.379 18.982-42.682 12.857-8.046 28.396-8.262 41.025-1.916 7.725-10.445 20.202-17.16 34.203-16.994 13.556.165 25.525 6.764 33.034 16.842 12.565-6.384 28.066-6.27 40.949 1.675 14.929 9.189 22.031 26.233 19.312 42.504 15.386 6.397 26.084 21.69 25.754 39.344v.076c-.204 17.02-10.635 31.691-25.538 37.986 2.82 16.271-4.206 33.354-19.096 42.631-12.858 8.009-28.384 8.187-41 1.841-7.623 10.293-19.859 16.93-33.631 16.93h-.381c-13.633-.114-25.69-6.726-33.237-16.879-12.591 6.358-28.105 6.218-40.975-1.752-14.903-9.239-21.98-26.31-19.198-42.568-15.284-6.409-25.931-21.626-25.64-39.204v-.025zm161.453 122.289c4.51 4.899 11.485 4.607 16.618-.673 5.222-5.19 5.438-12.158.483-16.613-4.853-4.531-11.854-4.264-16.644.647-4.866 4.836-5.056 11.829-.47 16.626l.013.013zm-1.506 24.902c2.528 2.742 6.429 2.577 9.313-.368 2.922-2.906 3.037-6.802.28-9.303-2.719-2.538-6.633-2.386-9.313.368-2.719 2.704-2.834 6.625-.267 9.316l-.013-.013z" fill="#fff"/><path d="M3.212 142.703c.267-17.033 10.698-31.526 25.436-37.809-2.871-16.258 4.116-33.379 18.982-42.682 12.857-8.046 28.396-8.262 41.025-1.916 7.725-10.445 20.202-17.16 34.203-16.994 13.556.165 25.525 6.764 33.034 16.842 12.565-6.384 28.066-6.27 40.949 1.675 14.929 9.189 22.031 26.233 19.312 42.504 15.386 6.397 26.084 21.69 25.754 39.344v.076c-.204 17.02-10.635 31.691-25.538 37.986 2.821 16.271-4.206 33.354-19.096 42.631-12.858 8.009-28.384 8.187-41 1.841-7.623 10.293-19.859 16.93-33.631 16.93h-.381c-13.633-.114-25.69-6.726-33.237-16.879-12.591 6.358-28.105 6.218-40.975-1.752-14.903-9.239-21.98-26.31-19.198-42.568-15.284-6.409-25.931-21.626-25.639-39.204v-.025z" fill="#fff" stroke="#221A15" stroke-miterlimit="10"/><path d="M164.667 264.992c4.51 4.899 11.485 4.607 16.618-.673 5.222-5.19 5.438-12.158.483-16.613-4.853-4.531-11.854-4.264-16.644.647-4.866 4.836-5.056 11.829-.47 16.626l.013.013zm-1.51 24.902c2.529 2.742 6.429 2.577 9.313-.368 2.922-2.906 3.037-6.802.28-9.303-2.719-2.538-6.633-2.386-9.313.368-2.719 2.704-2.834 6.625-.267 9.316l-.013-.013z" fill="#fff" stroke="#221A15" stroke-width="1.291" stroke-miterlimit="10"/><path d="M3.214 142.703c.267-17.033 10.698-31.526 25.436-37.809-2.871-16.258 4.116-33.379 18.982-42.682 12.857-8.046 28.396-8.262 41.025-1.916 7.725-10.445 20.202-17.16 34.203-16.994 13.556.165 25.525 6.764 33.034 16.842 12.565-6.384 28.066-6.27 40.949 1.675 14.929 9.189 22.031 26.233 19.312 42.504 15.386 6.397 26.084 21.69 25.754 39.344v.076c-.204 17.02-10.635 31.691-25.538 37.986 2.82 16.271-4.206 33.354-19.096 42.631-12.858 8.009-28.384 8.187-41 1.841-7.623 10.293-19.859 16.93-33.631 16.93h-.381c-13.633-.114-25.69-6.726-33.237-16.879-12.591 6.358-28.105 6.218-40.975-1.752-14.903-9.239-21.98-26.31-19.198-42.568-15.284-6.409-25.931-21.626-25.64-39.204v-.025zm161.453 122.289c4.51 4.899 11.485 4.607 16.618-.673 5.222-5.19 5.438-12.158.483-16.613-4.853-4.531-11.854-4.264-16.644.647-4.866 4.836-5.056 11.829-.47 16.626l.013.013zm-1.506 24.902c2.528 2.742 6.429 2.577 9.313-.368 2.922-2.906 3.037-6.802.28-9.303-2.719-2.538-6.633-2.386-9.313.368-2.719 2.704-2.834 6.625-.267 9.316l-.013-.013z" stroke="#221A15" stroke-width="2" stroke-linecap="round" stroke-linejoin="round"/><g clip-path="url(#clip0_10944_61357)"><path d="M171.953 47a1.133 1.133 0 01-1.11-.885c-.819-3.61 1.097-5.096 2.364-6.08.219-.169.426-.329.6-.484.987-.88 1.71-1.626 2.238-2.256a10.267 10.267 0 01-3.613-.864c-2.146-.943-2.469-2.478-2.093-3.507.544-1.489 2.778-2.614 6.4-1.569 2.04.59 2.704 1.744 2.902 2.61.041.178.066.36.074.542.361-.12.727-.26 1.098-.42.83-.36 2.185-1.714 3.122-2.947-3.354-.071-7.634-.9-13.634-2.54-.816-.224-2.52-1.02-3.133-2.432-.323-.745-.288-1.526.102-2.26 1.316-2.476 8.456-2.563 12.625-1.413 4.511 1.243 6.631 3.023 7.296 6.132a10.743 10.743 0 002.197-.677c2.024-.874 3.662-2.186 4.494-3.601.662-1.125.738-2.249.197-3.538-.32.024-.639.046-.958.068-.482.033-.965.066-1.447.105l-1.264.102c-6.615.538-8.844.72-19.375-.98-2.181-.353-5.064-1.793-6.112-3.77-.529-.997-.562-2.046-.097-3.034 1.735-3.683 14.602-4.196 22.571-.9 2.044.846 5.616 2.92 7.16 4.885.204.26.508.647.824 1.135 2.773-.285 5.199-.88 6.494-2.912 1.095-1.718-.597-5.036-2.799-6.94-5.939-5.133-10.501-5.759-14.526-6.312a1.139 1.139 0 01-.975-1.279 1.13 1.13 0 01.842-.943c.145-.037.296-.046.444-.025 4.125.566 9.258 1.27 15.709 6.846 2.549 2.203 5.236 6.721 3.23 9.869-1.671 2.62-4.412 3.477-7.383 3.86.436 1.41.487 3.114-.568 4.91-1.072 1.821-3.096 3.475-5.555 4.536a13.25 13.25 0 01-3.581.971c-1.113 2.208-3.681 4.597-4.993 5.164a14.52 14.52 0 01-2.729.885c-.704 1.247-1.922 2.637-3.664 4.19-.232.206-.48.398-.719.584-1.186.92-2.043 1.584-1.542 3.79a1.144 1.144 0 01-.223.958 1.14 1.14 0 01-.89.426zm2.16-13.78c-1.054 0-1.581.33-1.633.48.009.045.187.355.872.656a8.04 8.04 0 004.044.653c.061-.268.045-.443.023-.54-.112-.491-.777-.78-1.315-.935-.801-.23-1.462-.314-1.991-.314zm.099-9.168c-.447 0-.89.014-1.324.043-2.334.154-3.443.668-3.615.893-.061.117-.054.186-.013.28.192.443 1.042.979 1.644 1.143 6.466 1.77 10.775 2.56 14.008 2.462-.355-1.468-1.235-2.981-5.625-4.192-1.478-.408-3.302-.63-5.075-.63zm1.263-11.591c-4.597 0-8.187.957-8.586 1.804-.158.337-.143.65.049 1.013.639 1.204 2.864 2.33 4.462 2.588 10.257 1.656 12.416 1.48 18.824.959l1.267-.103c.41-.033.82-.062 1.229-.09-1.149-1.417-4.112-3.273-6.197-4.135-3.637-1.504-7.622-2.036-11.048-2.036z" fill="#414141"/></g><defs><clipPath id="clip0_10944_61357"><path fill="#fff" transform="translate(164.5)" d="M0 0h40v47H0z"/></clipPath></defs></svg>