<svg width="162" height="97" fill="none" xmlns="http://www.w3.org/2000/svg"><g clip-path="url(#clip0_11089_246181)"><g filter="url(#filter0_d_11089_246181)"><path d="M157.94 37.387c-.175-6.142-7.013-11.369-16.675-13.634 1.883-5.864-2.698-12.038-12.443-15.393-8.429-2.902-18.616-2.98-26.895-.691C96.863 3.902 88.684 1.48 79.505 1.54c-8.887.06-16.733 2.44-21.655 6.074-8.238-2.302-18.4-2.261-26.845.604-9.787 3.314-14.442 9.46-12.66 15.329-10.087 2.306-17.1 7.822-16.883 14.188v.028c.133 6.138 6.971 11.429 16.741 13.699-1.849 5.868 2.757 12.028 12.519 15.374 8.429 2.888 18.607 2.952 26.878.664 4.997 3.712 13.018 6.106 22.047 6.106h.25c8.937-.042 16.841-2.426 21.789-6.088 8.254 2.293 18.424 2.243 26.861-.632 9.77-3.332 14.409-9.488 12.585-15.351 10.02-2.311 17-7.8 16.808-14.138v-.01z" fill="#fff"/><path d="M157.94 37.387c-.175-6.142-7.013-11.369-16.675-13.634 1.883-5.864-2.698-12.038-12.443-15.393-8.429-2.902-18.616-2.98-26.895-.691C96.863 3.902 88.684 1.48 79.505 1.54c-8.887.06-16.733 2.44-21.655 6.074-8.238-2.302-18.4-2.261-26.845.604-9.787 3.314-14.442 9.46-12.66 15.329-10.087 2.306-17.1 7.822-16.883 14.188v.028c.133 6.138 6.971 11.429 16.741 13.699-1.849 5.868 2.757 12.028 12.519 15.374 8.429 2.888 18.607 2.952 26.878.664 4.997 3.712 13.018 6.106 22.047 6.106h.25c8.937-.042 16.841-2.426 21.789-6.088 8.254 2.293 18.424 2.243 26.861-.632 9.77-3.332 14.409-9.488 12.585-15.351 10.02-2.311 17-7.8 16.808-14.138v-.01z" stroke="#221A15" stroke-width="2" stroke-miterlimit="10"/></g><g filter="url(#filter1_d_11089_246181)"><path d="M27.834 82.052c-2.779 3.014-7.076 2.835-10.238-.414-3.217-3.194-3.35-7.482-.297-10.223 2.99-2.789 7.302-2.625 10.253.398 2.998 2.975 3.115 7.279.29 10.231l-.008.008z" fill="#fff"/><path d="M27.834 82.052c-2.779 3.014-7.076 2.835-10.238-.414-3.217-3.194-3.35-7.482-.297-10.223 2.99-2.789 7.302-2.625 10.253.398 2.998 2.975 3.115 7.279.29 10.231l-.008.008z" stroke="#221A15" stroke-width="1.5" stroke-miterlimit="10"/></g><g filter="url(#filter2_d_11089_246181)"><path d="M14.393 90.806c-1.558 1.687-3.96 1.586-5.738-.226-1.8-1.789-1.87-4.186-.172-5.725 1.675-1.562 4.086-1.468 5.737.227 1.675 1.663 1.746 4.076.165 5.732l.008-.008z" fill="#fff"/><path d="M14.393 90.806c-1.558 1.687-3.96 1.586-5.738-.226-1.8-1.789-1.87-4.186-.172-5.725 1.675-1.562 4.086-1.468 5.737.227 1.675 1.663 1.746 4.076.165 5.732l.008-.008z" stroke="#221A15" stroke-width="1.291" stroke-miterlimit="10"/></g></g><defs><filter id="filter0_d_11089_246181" x=".457" y=".539" width="160.487" height="76.066" filterUnits="userSpaceOnUse" color-interpolation-filters="sRGB"><feFlood flood-opacity="0" result="BackgroundImageFix"/><feColorMatrix in="SourceAlpha" values="0 0 0 0 0 0 0 0 0 0 0 0 0 0 0 0 0 0 127 0" result="hardAlpha"/><feOffset dx="2" dy="2"/><feComposite in2="hardAlpha" operator="out"/><feColorMatrix values="0 0 0 0 0.133333 0 0 0 0 0.101961 0 0 0 0 0.0823529 0 0 0 1 0"/><feBlend in2="BackgroundImageFix" result="effect1_dropShadow_11089_246181"/><feBlend in="SourceGraphic" in2="effect1_dropShadow_11089_246181" result="shape"/></filter><filter id="filter1_d_11089_246181" x="14.344" y="68.68" width="17.289" height="17.27" filterUnits="userSpaceOnUse" color-interpolation-filters="sRGB"><feFlood flood-opacity="0" result="BackgroundImageFix"/><feColorMatrix in="SourceAlpha" values="0 0 0 0 0 0 0 0 0 0 0 0 0 0 0 0 0 0 127 0" result="hardAlpha"/><feOffset dx="1" dy="1"/><feComposite in2="hardAlpha" operator="out"/><feColorMatrix values="0 0 0 0 0.133333 0 0 0 0 0.101961 0 0 0 0 0.0823529 0 0 0 1 0"/><feBlend in2="BackgroundImageFix" result="effect1_dropShadow_11089_246181"/><feBlend in="SourceGraphic" in2="effect1_dropShadow_11089_246181" result="shape"/></filter><filter id="filter2_d_11089_246181" x="6.61" y="83.099" width="10.56" height="10.555" filterUnits="userSpaceOnUse" color-interpolation-filters="sRGB"><feFlood flood-opacity="0" result="BackgroundImageFix"/><feColorMatrix in="SourceAlpha" values="0 0 0 0 0 0 0 0 0 0 0 0 0 0 0 0 0 0 127 0" result="hardAlpha"/><feOffset dx="1" dy="1"/><feComposite in2="hardAlpha" operator="out"/><feColorMatrix values="0 0 0 0 0.133333 0 0 0 0 0.101961 0 0 0 0 0.0823529 0 0 0 1 0"/><feBlend in2="BackgroundImageFix" result="effect1_dropShadow_11089_246181"/><feBlend in="SourceGraphic" in2="effect1_dropShadow_11089_246181" result="shape"/></filter><clipPath id="clip0_11089_246181"><path fill="#fff" transform="matrix(-1 0 0 1 161.033 .51)" d="M0 0h160.605v95.745H0z"/></clipPath></defs></svg>