<svg width="171" height="106" fill="none" xmlns="http://www.w3.org/2000/svg"><g clip-path="url(#clip0_11089_246196)"><g filter="url(#filter0_d_11089_246196)"><path d="M167.996 39.303c-.187-6.563-7.484-12.148-17.795-14.569 2.009-6.265-2.88-12.862-13.28-16.446-8.995-3.1-19.866-3.184-28.701-.739-5.404-4.024-14.133-6.611-23.928-6.548-9.484.064-17.858 2.607-23.11 6.49-8.792-2.46-19.636-2.416-28.649.645-10.444 3.54-15.413 10.109-13.51 16.378C8.258 26.979.774 32.872 1.005 39.674v.03c.142 6.557 7.44 12.21 17.866 14.636-1.973 6.27 2.943 12.852 13.36 16.427 8.995 3.086 19.857 3.154 28.684.71C66.248 75.441 74.808 78 84.443 78h.266c9.538-.044 17.973-2.592 23.253-6.504 8.809 2.45 19.662 2.396 28.666-.675 10.426-3.56 15.377-10.138 13.431-16.402 10.693-2.47 18.141-8.333 17.937-15.107v-.01z" fill="#fff"/><path d="M167.996 39.303c-.187-6.563-7.484-12.148-17.795-14.569 2.009-6.265-2.88-12.862-13.28-16.446-8.995-3.1-19.866-3.184-28.701-.739-5.404-4.024-14.133-6.611-23.928-6.548-9.484.064-17.858 2.607-23.11 6.49-8.792-2.46-19.636-2.416-28.649.645-10.444 3.54-15.413 10.109-13.51 16.378C8.258 26.979.774 32.872 1.005 39.674v.03c.142 6.557 7.44 12.21 17.866 14.636-1.973 6.27 2.943 12.852 13.36 16.427 8.995 3.086 19.857 3.154 28.684.71C66.248 75.441 74.808 78 84.443 78h.266c9.538-.044 17.973-2.592 23.253-6.504 8.809 2.45 19.662 2.396 28.666-.675 10.426-3.56 15.377-10.138 13.431-16.402 10.693-2.47 18.141-8.333 17.937-15.107v-.01z" stroke="#221A15" stroke-width="2" stroke-miterlimit="10"/></g><g filter="url(#filter1_d_11089_246196)"><path d="M44.275 90.66c-2.778 3.014-7.075 2.834-10.237-.415-3.217-3.194-3.35-7.482-.298-10.223 2.99-2.788 7.303-2.624 10.253.398 2.998 2.976 3.115 7.28.29 10.231l-.008.008z" fill="#fff"/><path d="M44.275 90.66c-2.778 3.014-7.075 2.834-10.237-.415-3.217-3.194-3.35-7.482-.298-10.223 2.99-2.788 7.303-2.624 10.253.398 2.998 2.976 3.115 7.28.29 10.231l-.008.008z" stroke="#221A15" stroke-width="1.5" stroke-miterlimit="10"/></g><g filter="url(#filter2_d_11089_246196)"><path d="M33.922 102.502c-1.558 1.687-3.96 1.585-5.737-.227-1.8-1.788-1.87-4.186-.172-5.725 1.674-1.562 4.085-1.468 5.737.227 1.675 1.663 1.745 4.077.164 5.732l.008-.007z" fill="#fff"/><path d="M33.922 102.502c-1.558 1.687-3.96 1.585-5.737-.227-1.8-1.788-1.87-4.186-.172-5.725 1.674-1.562 4.085-1.468 5.737.227 1.675 1.663 1.745 4.077.164 5.732l.008-.007z" stroke="#221A15" stroke-width="1.291" stroke-miterlimit="10"/></g></g><defs><filter id="filter0_d_11089_246196" x="0" y="0" width="171" height="81" filterUnits="userSpaceOnUse" color-interpolation-filters="sRGB"><feFlood flood-opacity="0" result="BackgroundImageFix"/><feColorMatrix in="SourceAlpha" values="0 0 0 0 0 0 0 0 0 0 0 0 0 0 0 0 0 0 127 0" result="hardAlpha"/><feOffset dx="2" dy="2"/><feComposite in2="hardAlpha" operator="out"/><feColorMatrix values="0 0 0 0 0.133333 0 0 0 0 0.101961 0 0 0 0 0.0823529 0 0 0 1 0"/><feBlend in2="BackgroundImageFix" result="effect1_dropShadow_11089_246196"/><feBlend in="SourceGraphic" in2="effect1_dropShadow_11089_246196" result="shape"/></filter><filter id="filter1_d_11089_246196" x="30.785" y="77.287" width="17.289" height="17.27" filterUnits="userSpaceOnUse" color-interpolation-filters="sRGB"><feFlood flood-opacity="0" result="BackgroundImageFix"/><feColorMatrix in="SourceAlpha" values="0 0 0 0 0 0 0 0 0 0 0 0 0 0 0 0 0 0 127 0" result="hardAlpha"/><feOffset dx="1" dy="1"/><feComposite in2="hardAlpha" operator="out"/><feColorMatrix values="0 0 0 0 0.133333 0 0 0 0 0.101961 0 0 0 0 0.0823529 0 0 0 1 0"/><feBlend in2="BackgroundImageFix" result="effect1_dropShadow_11089_246196"/><feBlend in="SourceGraphic" in2="effect1_dropShadow_11089_246196" result="shape"/></filter><filter id="filter2_d_11089_246196" x="26.14" y="94.794" width="10.56" height="10.555" filterUnits="userSpaceOnUse" color-interpolation-filters="sRGB"><feFlood flood-opacity="0" result="BackgroundImageFix"/><feColorMatrix in="SourceAlpha" values="0 0 0 0 0 0 0 0 0 0 0 0 0 0 0 0 0 0 127 0" result="hardAlpha"/><feOffset dx="1" dy="1"/><feComposite in2="hardAlpha" operator="out"/><feColorMatrix values="0 0 0 0 0.133333 0 0 0 0 0.101961 0 0 0 0 0.0823529 0 0 0 1 0"/><feBlend in2="BackgroundImageFix" result="effect1_dropShadow_11089_246196"/><feBlend in="SourceGraphic" in2="effect1_dropShadow_11089_246196" result="shape"/></filter><clipPath id="clip0_11089_246196"><path fill="#fff" transform="matrix(-1 0 0 1 171 0)" d="M0 0h171v106H0z"/></clipPath></defs></svg>