<svg width="250" height="252" fill="none" xmlns="http://www.w3.org/2000/svg"><g clip-path="url(#clip0_10944_61381)"><path d="M248.621 128.861c-.266-16.998-10.688-31.463-25.412-37.733 2.869-16.225-4.113-33.312-18.964-42.596-12.846-8.03-28.37-8.246-40.988-1.913-7.717-10.424-20.182-17.124-34.171-16.96-13.544.165-25.501 6.751-33.003 16.808-12.554-6.37-28.04-6.257-40.911 1.672-14.915 9.17-22.01 26.181-19.294 42.42-15.372 6.383-26.06 21.646-25.73 39.265v.076c.203 16.985 10.625 31.627 25.514 37.91-2.818 16.238 4.202 33.286 19.078 42.545 12.846 7.993 28.358 8.17 40.962 1.837 7.617 10.272 19.84 16.897 33.6 16.897h.381c13.62-.114 25.666-6.713 33.206-16.846 12.58 6.345 28.078 6.206 40.937-1.748 14.889-9.221 21.96-26.257 19.18-42.483 15.27-6.396 25.907-21.583 25.615-39.126v-.025zM44.357 233.939c-4.506 4.889-11.475 4.598-16.603-.671-5.217-5.18-5.433-12.134-.483-16.58 4.85-4.522 11.843-4.256 16.629.646 4.862 4.826 5.052 11.805.47 16.593l-.013.012zm-23.47 15.872c-2.526 2.736-6.423 2.571-9.305-.367-2.92-2.901-3.033-6.79-.279-9.285 2.717-2.533 6.626-2.381 9.305.368 2.716 2.697 2.83 6.611.266 9.297l.013-.013z" fill="#221A15"/><path d="M241.213 124.613c-.266-16.998-10.688-31.463-25.412-37.733 2.868-16.225-4.113-33.312-18.964-42.596-12.846-8.03-28.37-8.246-40.988-1.913-7.717-10.424-20.183-17.125-34.171-16.96-13.544.165-25.501 6.751-33.003 16.808-12.554-6.37-28.04-6.257-40.911 1.672-14.915 9.17-22.01 26.181-19.294 42.42-15.372 6.383-26.06 21.646-25.73 39.265v.076c.203 16.985 10.624 31.627 25.514 37.91-2.818 16.238 4.201 33.286 19.078 42.545 12.846 7.993 28.357 8.17 40.962 1.837 7.616 10.272 19.84 16.897 33.6 16.897h.381c13.62-.114 25.666-6.713 33.206-16.846 12.579 6.345 28.078 6.206 40.937-1.748 14.889-9.221 21.959-26.257 19.18-42.483 15.27-6.396 25.907-21.583 25.615-39.126v-.025zM36.949 229.691c-4.506 4.889-11.475 4.598-16.603-.671-5.217-5.181-5.433-12.134-.483-16.58 4.85-4.522 11.843-4.256 16.629.646 4.861 4.826 5.052 11.805.47 16.593l-.013.012zm-23.47 15.872c-2.526 2.736-6.423 2.571-9.305-.367-2.92-2.901-3.034-6.79-.279-9.285 2.716-2.533 6.626-2.381 9.304.368 2.717 2.697 2.831 6.611.267 9.296l.013-.012z" fill="#fff"/><path d="M241.213 124.613c-.266-16.998-10.688-31.463-25.412-37.733 2.868-16.225-4.113-33.312-18.964-42.596-12.846-8.03-28.37-8.246-40.988-1.913-7.717-10.424-20.183-17.125-34.171-16.96-13.544.165-25.501 6.751-33.003 16.808-12.554-6.37-28.04-6.257-40.911 1.672-14.915 9.17-22.01 26.181-19.294 42.42-15.372 6.383-26.06 21.646-25.73 39.265v.076c.203 16.985 10.624 31.627 25.514 37.91-2.818 16.238 4.201 33.286 19.078 42.545 12.846 7.993 28.357 8.17 40.962 1.837 7.616 10.272 19.84 16.897 33.6 16.897h.381c13.62-.114 25.666-6.713 33.206-16.846 12.579 6.345 28.078 6.206 40.937-1.748 14.889-9.221 21.959-26.257 19.18-42.483 15.27-6.396 25.907-21.583 25.615-39.126v-.025zM36.949 229.691c-4.506 4.889-11.475 4.598-16.603-.671-5.217-5.181-5.433-12.134-.483-16.58 4.85-4.522 11.843-4.256 16.629.646 4.861 4.826 5.052 11.805.47 16.593l-.013.012zm-23.47 15.872c-2.526 2.736-6.423 2.571-9.305-.367-2.92-2.901-3.034-6.79-.279-9.285 2.716-2.533 6.626-2.381 9.304.368 2.717 2.697 2.831 6.611.267 9.296l.013-.012z" fill="#fff" stroke="#221A15" stroke-width="1.291" stroke-miterlimit="10"/><path d="M241.213 124.613c-.266-16.998-10.688-31.463-25.412-37.733 2.868-16.225-4.113-33.312-18.964-42.596-12.846-8.03-28.37-8.246-40.988-1.913-7.718-10.424-20.183-17.125-34.171-16.96-13.544.165-25.501 6.751-33.003 16.808-12.554-6.37-28.04-6.257-40.911 1.672-14.915 9.17-22.01 26.181-19.294 42.42-15.372 6.383-26.06 21.646-25.73 39.265v.076c.203 16.985 10.624 31.627 25.514 37.91-2.818 16.238 4.201 33.286 19.078 42.545 12.846 7.993 28.357 8.17 40.962 1.837 7.616 10.272 19.84 16.897 33.6 16.897h.381c13.62-.114 25.666-6.713 33.206-16.846 12.579 6.345 28.078 6.206 40.937-1.748 14.889-9.221 21.959-26.257 19.18-42.483 15.27-6.396 25.907-21.583 25.615-39.126v-.025zM36.949 229.691c-4.506 4.889-11.475 4.598-16.603-.671-5.217-5.181-5.433-12.134-.483-16.58 4.85-4.522 11.843-4.256 16.629.646 4.861 4.826 5.052 11.805.47 16.593l-.013.012zm-23.47 15.872c-2.526 2.736-6.423 2.571-9.305-.367-2.92-2.901-3.034-6.79-.279-9.285 2.716-2.533 6.626-2.381 9.304.368 2.717 2.697 2.831 6.611.267 9.296l.013-.012z" stroke="#221A15" stroke-width="2" stroke-linecap="round" stroke-linejoin="round"/></g><g clip-path="url(#clip1_10944_61381)"><path d="M211.953 47a1.133 1.133 0 01-1.11-.885c-.819-3.61 1.097-5.096 2.364-6.08.219-.169.426-.329.6-.484.987-.88 1.71-1.626 2.238-2.256a10.267 10.267 0 01-3.613-.864c-2.146-.943-2.469-2.478-2.093-3.507.544-1.489 2.778-2.614 6.4-1.569 2.04.59 2.704 1.744 2.902 2.61.041.178.066.36.074.542.361-.12.727-.26 1.098-.42.83-.36 2.185-1.714 3.122-2.947-3.354-.071-7.634-.9-13.634-2.54-.816-.224-2.52-1.02-3.133-2.432-.323-.745-.288-1.526.102-2.26 1.316-2.476 8.456-2.563 12.625-1.413 4.511 1.243 6.631 3.023 7.296 6.132a10.743 10.743 0 002.197-.677c2.024-.874 3.662-2.186 4.494-3.601.662-1.125.738-2.249.197-3.538-.32.024-.639.046-.958.068-.482.033-.965.066-1.447.105l-1.264.102c-6.615.538-8.844.72-19.375-.98-2.181-.353-5.064-1.793-6.112-3.77-.529-.997-.562-2.046-.097-3.034 1.735-3.683 14.602-4.196 22.571-.9 2.044.846 5.616 2.92 7.16 4.885.204.26.508.647.824 1.135 2.773-.285 5.199-.88 6.494-2.912 1.095-1.718-.597-5.036-2.799-6.94-5.939-5.133-10.501-5.759-14.526-6.312a1.139 1.139 0 01-.975-1.279 1.13 1.13 0 01.842-.943c.145-.037.296-.046.444-.025 4.125.566 9.258 1.27 15.709 6.846 2.549 2.203 5.236 6.721 3.23 9.869-1.671 2.62-4.412 3.477-7.383 3.86.436 1.41.487 3.114-.568 4.91-1.072 1.821-3.096 3.475-5.555 4.536a13.25 13.25 0 01-3.581.971c-1.113 2.208-3.681 4.597-4.993 5.164a14.52 14.52 0 01-2.729.885c-.704 1.247-1.922 2.637-3.664 4.19-.232.206-.48.398-.719.584-1.186.92-2.043 1.584-1.542 3.79a1.144 1.144 0 01-.223.958 1.14 1.14 0 01-.89.426zm2.16-13.78c-1.054 0-1.581.33-1.633.48.009.045.187.355.872.656a8.04 8.04 0 004.044.653c.061-.268.045-.443.023-.54-.112-.491-.777-.78-1.315-.935-.801-.23-1.462-.314-1.991-.314zm.099-9.168c-.447 0-.89.014-1.324.043-2.334.154-3.443.668-3.615.893-.061.117-.054.186-.013.28.192.443 1.042.979 1.644 1.143 6.466 1.77 10.775 2.56 14.008 2.462-.355-1.468-1.235-2.981-5.625-4.192-1.478-.408-3.302-.63-5.075-.63zm1.263-11.591c-4.597 0-8.187.957-8.586 1.804-.158.337-.143.65.049 1.013.639 1.204 2.864 2.33 4.462 2.588 10.257 1.656 12.416 1.48 18.824.959l1.267-.103c.41-.033.82-.062 1.229-.09-1.149-1.417-4.112-3.273-6.197-4.135-3.637-1.504-7.622-2.036-11.048-2.036z" fill="#414141"/></g><defs><clipPath id="clip0_10944_61381"><path fill="#fff" transform="matrix(-1 0 0 1 249.5 24)" d="M0 0h249v228H0z"/></clipPath><clipPath id="clip1_10944_61381"><path fill="#fff" transform="translate(204.5)" d="M0 0h40v47H0z"/></clipPath></defs></svg>