<svg width="168" height="124" fill="none" xmlns="http://www.w3.org/2000/svg"><g clip-path="url(#clip0_11089_246212)"><g filter="url(#filter0_d_11089_246212)"><path d="M164.996 51.738c-.183-8.693-7.35-16.091-17.475-19.298 1.972-8.298-2.829-17.038-13.041-21.786-8.834-4.107-19.51-4.217-28.186-.978-5.307-5.332-13.88-8.759-23.499-8.674-9.313.084-17.536 3.452-22.695 8.596-8.633-3.258-19.282-3.2-28.133.855-10.257 4.69-15.136 13.39-13.268 21.695C8.128 35.413.779 43.22 1.005 52.231v.039c.14 8.687 7.306 16.175 17.545 19.389-1.938 8.305 2.89 17.024 13.12 21.76 8.834 4.088 19.5 4.178 28.168.94C65.076 99.611 73.482 103 82.944 103h.262c9.366-.058 17.65-3.433 22.835-8.616 8.65 3.246 19.308 3.174 28.15-.894 10.24-4.716 15.102-13.43 13.19-21.728 10.501-3.271 17.816-11.038 17.615-20.01v-.014z" fill="#fff"/><path d="M164.996 51.738c-.183-8.693-7.35-16.091-17.475-19.298 1.972-8.298-2.829-17.038-13.041-21.786-8.834-4.107-19.51-4.217-28.186-.978-5.307-5.332-13.88-8.759-23.499-8.674-9.313.084-17.536 3.452-22.695 8.596-8.633-3.258-19.282-3.2-28.133.855-10.257 4.69-15.136 13.39-13.268 21.695C8.128 35.413.779 43.22 1.005 52.231v.039c.14 8.687 7.306 16.175 17.545 19.389-1.938 8.305 2.89 17.024 13.12 21.76 8.834 4.088 19.5 4.178 28.168.94C65.076 99.611 73.482 103 82.944 103h.262c9.366-.058 17.65-3.433 22.835-8.616 8.65 3.246 19.308 3.174 28.15-.894 10.24-4.716 15.102-13.43 13.19-21.728 10.501-3.271 17.816-11.038 17.615-20.01v-.014z" stroke="#221A15" stroke-width="2" stroke-miterlimit="10"/></g><g filter="url(#filter1_d_11089_246212)"><path d="M139.594 110.046c2.779 3.015 7.075 2.835 10.238-.414 3.216-3.194 3.349-7.482.297-10.223-2.99-2.788-7.302-2.624-10.253.398-2.998 2.976-3.115 7.279-.29 10.231l.008.008z" fill="#fff"/><path d="M139.594 110.046c2.779 3.015 7.075 2.835 10.238-.414 3.216-3.194 3.349-7.482.297-10.223-2.99-2.788-7.302-2.624-10.253.398-2.998 2.976-3.115 7.279-.29 10.231l.008.008z" stroke="#221A15" stroke-width="1.5" stroke-miterlimit="10"/></g><g filter="url(#filter2_d_11089_246212)"><path d="M150.977 120.859c1.557 1.687 3.96 1.585 5.737-.226 1.8-1.789 1.87-4.187.172-5.725-1.675-1.562-4.086-1.468-5.737.226-1.675 1.664-1.746 4.077-.165 5.733l-.007-.008z" fill="#fff"/><path d="M150.977 120.859c1.557 1.687 3.96 1.585 5.737-.226 1.8-1.789 1.87-4.187.172-5.725-1.675-1.562-4.086-1.468-5.737.226-1.675 1.664-1.746 4.077-.165 5.733l-.007-.008z" stroke="#221A15" stroke-width="1.291" stroke-miterlimit="10"/></g></g><defs><filter id="filter0_d_11089_246212" x="0" y="0" width="168" height="106" filterUnits="userSpaceOnUse" color-interpolation-filters="sRGB"><feFlood flood-opacity="0" result="BackgroundImageFix"/><feColorMatrix in="SourceAlpha" values="0 0 0 0 0 0 0 0 0 0 0 0 0 0 0 0 0 0 127 0" result="hardAlpha"/><feOffset dx="2" dy="2"/><feComposite in2="hardAlpha" operator="out"/><feColorMatrix values="0 0 0 0 0.133333 0 0 0 0 0.101961 0 0 0 0 0.0823529 0 0 0 1 0"/><feBlend in2="BackgroundImageFix" result="effect1_dropShadow_11089_246212"/><feBlend in="SourceGraphic" in2="effect1_dropShadow_11089_246212" result="shape"/></filter><filter id="filter1_d_11089_246212" x="136.795" y="96.674" width="17.289" height="17.27" filterUnits="userSpaceOnUse" color-interpolation-filters="sRGB"><feFlood flood-opacity="0" result="BackgroundImageFix"/><feColorMatrix in="SourceAlpha" values="0 0 0 0 0 0 0 0 0 0 0 0 0 0 0 0 0 0 127 0" result="hardAlpha"/><feOffset dx="1" dy="1"/><feComposite in2="hardAlpha" operator="out"/><feColorMatrix values="0 0 0 0 0.133333 0 0 0 0 0.101961 0 0 0 0 0.0823529 0 0 0 1 0"/><feBlend in2="BackgroundImageFix" result="effect1_dropShadow_11089_246212"/><feBlend in="SourceGraphic" in2="effect1_dropShadow_11089_246212" result="shape"/></filter><filter id="filter2_d_11089_246212" x="149.198" y="113.151" width="10.56" height="10.555" filterUnits="userSpaceOnUse" color-interpolation-filters="sRGB"><feFlood flood-opacity="0" result="BackgroundImageFix"/><feColorMatrix in="SourceAlpha" values="0 0 0 0 0 0 0 0 0 0 0 0 0 0 0 0 0 0 127 0" result="hardAlpha"/><feOffset dx="1" dy="1"/><feComposite in2="hardAlpha" operator="out"/><feColorMatrix values="0 0 0 0 0.133333 0 0 0 0 0.101961 0 0 0 0 0.0823529 0 0 0 1 0"/><feBlend in2="BackgroundImageFix" result="effect1_dropShadow_11089_246212"/><feBlend in="SourceGraphic" in2="effect1_dropShadow_11089_246212" result="shape"/></filter><clipPath id="clip0_11089_246212"><path fill="#fff" transform="matrix(-1 0 0 1 168 0)" d="M0 0h168v124H0z"/></clipPath></defs></svg>