<svg width="161" height="108" fill="none" xmlns="http://www.w3.org/2000/svg"><g filter="url(#filter0_d_11089_246204)"><path d="M157.996 36.815c-.162-6.136-6.498-11.358-15.45-13.622 1.744-5.858-2.501-12.027-11.531-15.378-7.81-2.9-17.249-2.977-24.92-.69C101.403 3.36 93.824.941 85.319 1c-8.235.06-15.505 2.437-20.066 6.068-7.633-2.3-17.048-2.259-24.874.604-9.068 3.31-13.382 9.452-11.73 15.314-9.347 2.305-15.845 7.815-15.645 14.176v.027c.124 6.132 6.46 11.419 15.513 13.687-1.713 5.862 2.555 12.017 11.6 15.36 7.81 2.885 17.241 2.95 24.905.663 4.63 3.708 12.062 6.1 20.428 6.1h.232c8.28-.041 15.605-2.424 20.189-6.082 7.648 2.291 17.072 2.24 24.89-.63 9.053-3.33 13.351-9.48 11.661-15.338 9.285-2.31 15.752-7.792 15.574-14.126v-.009z" fill="#fff"/><path d="M157.996 36.815c-.162-6.136-6.498-11.358-15.45-13.622 1.744-5.858-2.501-12.027-11.531-15.378-7.81-2.9-17.249-2.977-24.92-.69C101.403 3.36 93.824.941 85.319 1c-8.235.06-15.505 2.437-20.066 6.068-7.633-2.3-17.048-2.259-24.874.604-9.068 3.31-13.382 9.452-11.73 15.314-9.347 2.305-15.845 7.815-15.645 14.176v.027c.124 6.132 6.46 11.419 15.513 13.687-1.713 5.862 2.555 12.017 11.6 15.36 7.81 2.885 17.241 2.95 24.905.663 4.63 3.708 12.062 6.1 20.428 6.1h.232c8.28-.041 15.605-2.424 20.189-6.082 7.648 2.291 17.072 2.24 24.89-.63 9.053-3.33 13.351-9.48 11.661-15.338 9.285-2.31 15.752-7.792 15.574-14.126v-.009z" stroke="#221A15" stroke-width="2" stroke-miterlimit="10"/></g><g filter="url(#filter1_d_11089_246204)"><path d="M77.409 91.939c2.778 3.014 7.075 2.835 10.237-.414 3.217-3.195 3.35-7.482.297-10.224-2.99-2.788-7.302-2.624-10.253.399-2.997 2.975-3.115 7.278-.29 10.23l.008.008z" fill="#fff"/><path d="M77.409 91.939c2.778 3.014 7.075 2.835 10.237-.414 3.217-3.195 3.35-7.482.297-10.224-2.99-2.788-7.302-2.624-10.253.399-2.997 2.975-3.115 7.278-.29 10.23l.008.008z" stroke="#221A15" stroke-width="1.5" stroke-miterlimit="10"/></g><g filter="url(#filter2_d_11089_246204)"><path d="M85.762 104.781c1.557 1.687 3.96 1.585 5.737-.227 1.8-1.788 1.87-4.186.172-5.724-1.675-1.562-4.086-1.468-5.737.226-1.675 1.664-1.745 4.077-.164 5.733l-.008-.008z" fill="#fff"/><path d="M85.762 104.781c1.557 1.687 3.96 1.585 5.737-.227 1.8-1.788 1.87-4.186.172-5.724-1.675-1.562-4.086-1.468-5.737.226-1.675 1.664-1.745 4.077-.164 5.733l-.008-.008z" stroke="#221A15" stroke-width="1.291" stroke-miterlimit="10"/></g><defs><filter id="filter0_d_11089_246204" x="12" y="0" width="149" height="76" filterUnits="userSpaceOnUse" color-interpolation-filters="sRGB"><feFlood flood-opacity="0" result="BackgroundImageFix"/><feColorMatrix in="SourceAlpha" values="0 0 0 0 0 0 0 0 0 0 0 0 0 0 0 0 0 0 127 0" result="hardAlpha"/><feOffset dx="2" dy="2"/><feComposite in2="hardAlpha" operator="out"/><feColorMatrix values="0 0 0 0 0.133333 0 0 0 0 0.101961 0 0 0 0 0.0823529 0 0 0 1 0"/><feBlend in2="BackgroundImageFix" result="effect1_dropShadow_11089_246204"/><feBlend in="SourceGraphic" in2="effect1_dropShadow_11089_246204" result="shape"/></filter><filter id="filter1_d_11089_246204" x="74.609" y="78.566" width="17.289" height="17.27" filterUnits="userSpaceOnUse" color-interpolation-filters="sRGB"><feFlood flood-opacity="0" result="BackgroundImageFix"/><feColorMatrix in="SourceAlpha" values="0 0 0 0 0 0 0 0 0 0 0 0 0 0 0 0 0 0 127 0" result="hardAlpha"/><feOffset dx="1" dy="1"/><feComposite in2="hardAlpha" operator="out"/><feColorMatrix values="0 0 0 0 0.133333 0 0 0 0 0.101961 0 0 0 0 0.0823529 0 0 0 1 0"/><feBlend in2="BackgroundImageFix" result="effect1_dropShadow_11089_246204"/><feBlend in="SourceGraphic" in2="effect1_dropShadow_11089_246204" result="shape"/></filter><filter id="filter2_d_11089_246204" x="83.983" y="97.073" width="10.56" height="10.555" filterUnits="userSpaceOnUse" color-interpolation-filters="sRGB"><feFlood flood-opacity="0" result="BackgroundImageFix"/><feColorMatrix in="SourceAlpha" values="0 0 0 0 0 0 0 0 0 0 0 0 0 0 0 0 0 0 127 0" result="hardAlpha"/><feOffset dx="1" dy="1"/><feComposite in2="hardAlpha" operator="out"/><feColorMatrix values="0 0 0 0 0.133333 0 0 0 0 0.101961 0 0 0 0 0.0823529 0 0 0 1 0"/><feBlend in2="BackgroundImageFix" result="effect1_dropShadow_11089_246204"/><feBlend in="SourceGraphic" in2="effect1_dropShadow_11089_246204" result="shape"/></filter></defs></svg>