<svg width="140" height="117" fill="none" xmlns="http://www.w3.org/2000/svg"><g clip-path="url(#clip0_11089_246188)"><g filter="url(#filter0_d_11089_246188)"><path d="M136.997 45.77c-.152-7.672-6.095-14.2-14.492-17.029 1.636-7.322-2.345-15.033-10.815-19.223-7.325-3.624-16.178-3.72-23.373-.863C83.916 3.951 76.807.927 68.83 1.001c-7.723.075-14.542 3.047-18.82 7.585-7.16-2.875-15.99-2.823-23.33.755-8.506 4.138-12.552 11.815-11.003 19.143-8.766 2.88-14.861 9.769-14.673 17.72v.034c.116 7.665 6.059 14.273 14.55 17.108-1.607 7.328 2.396 15.022 10.88 19.2 7.325 3.607 16.17 3.687 23.359.829C54.136 88.01 61.107 91 68.953 91h.218c7.767-.051 14.636-3.03 18.936-7.602 7.173 2.863 16.012 2.8 23.344-.79 8.491-4.16 12.523-11.848 10.938-19.17 8.708-2.887 14.774-9.74 14.608-17.657v-.012z" fill="#fff"/><path d="M136.997 45.77c-.152-7.672-6.095-14.2-14.492-17.029 1.636-7.322-2.345-15.033-10.815-19.223-7.325-3.624-16.178-3.72-23.373-.863C83.916 3.951 76.807.927 68.83 1.001c-7.723.075-14.542 3.047-18.82 7.585-7.16-2.875-15.99-2.823-23.33.755-8.506 4.138-12.552 11.815-11.003 19.143-8.766 2.88-14.861 9.769-14.673 17.72v.034c.116 7.665 6.059 14.273 14.55 17.108-1.607 7.328 2.396 15.022 10.88 19.2 7.325 3.607 16.17 3.687 23.359.829C54.136 88.01 61.107 91 68.953 91h.218c7.767-.051 14.636-3.03 18.936-7.602 7.173 2.863 16.012 2.8 23.344-.79 8.491-4.16 12.523-11.848 10.938-19.17 8.708-2.887 14.774-9.74 14.608-17.657v-.012z" stroke="#221A15" stroke-width="2" stroke-miterlimit="10"/></g><g filter="url(#filter1_d_11089_246188)"><path d="M46.685 104.796c-2.778 3.015-7.075 2.835-10.237-.414-3.217-3.194-3.35-7.482-.298-10.223 2.99-2.788 7.303-2.624 10.254.398 2.997 2.976 3.115 7.279.29 10.231l-.009.008z" fill="#fff"/><path d="M46.685 104.796c-2.778 3.015-7.075 2.835-10.237-.414-3.217-3.194-3.35-7.482-.298-10.223 2.99-2.788 7.303-2.624 10.254.398 2.997 2.976 3.115 7.279.29 10.231l-.009.008z" stroke="#221A15" stroke-width="1.5" stroke-miterlimit="10"/></g><g filter="url(#filter2_d_11089_246188)"><path d="M33.244 113.55c-1.557 1.687-3.96 1.586-5.737-.226-1.8-1.788-1.87-4.186-.172-5.725 1.675-1.562 4.085-1.468 5.737.227 1.675 1.663 1.745 4.077.164 5.732l.008-.008z" fill="#fff"/><path d="M33.244 113.55c-1.557 1.687-3.96 1.586-5.737-.226-1.8-1.788-1.87-4.186-.172-5.725 1.675-1.562 4.085-1.468 5.737.227 1.675 1.663 1.745 4.077.164 5.732l.008-.008z" stroke="#221A15" stroke-width="1.291" stroke-miterlimit="10"/></g></g><defs><filter id="filter0_d_11089_246188" x="0" y="0" width="140" height="94" filterUnits="userSpaceOnUse" color-interpolation-filters="sRGB"><feFlood flood-opacity="0" result="BackgroundImageFix"/><feColorMatrix in="SourceAlpha" values="0 0 0 0 0 0 0 0 0 0 0 0 0 0 0 0 0 0 127 0" result="hardAlpha"/><feOffset dx="2" dy="2"/><feComposite in2="hardAlpha" operator="out"/><feColorMatrix values="0 0 0 0 0.133333 0 0 0 0 0.101961 0 0 0 0 0.0823529 0 0 0 1 0"/><feBlend in2="BackgroundImageFix" result="effect1_dropShadow_11089_246188"/><feBlend in="SourceGraphic" in2="effect1_dropShadow_11089_246188" result="shape"/></filter><filter id="filter1_d_11089_246188" x="33.195" y="91.424" width="17.289" height="17.27" filterUnits="userSpaceOnUse" color-interpolation-filters="sRGB"><feFlood flood-opacity="0" result="BackgroundImageFix"/><feColorMatrix in="SourceAlpha" values="0 0 0 0 0 0 0 0 0 0 0 0 0 0 0 0 0 0 127 0" result="hardAlpha"/><feOffset dx="1" dy="1"/><feComposite in2="hardAlpha" operator="out"/><feColorMatrix values="0 0 0 0 0.133333 0 0 0 0 0.101961 0 0 0 0 0.0823529 0 0 0 1 0"/><feBlend in2="BackgroundImageFix" result="effect1_dropShadow_11089_246188"/><feBlend in="SourceGraphic" in2="effect1_dropShadow_11089_246188" result="shape"/></filter><filter id="filter2_d_11089_246188" x="25.462" y="105.843" width="10.56" height="10.555" filterUnits="userSpaceOnUse" color-interpolation-filters="sRGB"><feFlood flood-opacity="0" result="BackgroundImageFix"/><feColorMatrix in="SourceAlpha" values="0 0 0 0 0 0 0 0 0 0 0 0 0 0 0 0 0 0 127 0" result="hardAlpha"/><feOffset dx="1" dy="1"/><feComposite in2="hardAlpha" operator="out"/><feColorMatrix values="0 0 0 0 0.133333 0 0 0 0 0.101961 0 0 0 0 0.0823529 0 0 0 1 0"/><feBlend in2="BackgroundImageFix" result="effect1_dropShadow_11089_246188"/><feBlend in="SourceGraphic" in2="effect1_dropShadow_11089_246188" result="shape"/></filter><clipPath id="clip0_11089_246188"><path fill="#fff" transform="matrix(-1 0 0 1 140 0)" d="M0 0h140v117H0z"/></clipPath></defs></svg>