<svg width="248" height="229" fill="none" xmlns="http://www.w3.org/2000/svg"><g clip-path="url(#clip0_10944_61310)"><path d="M7.298 104.958c.267-17.032 10.698-31.525 25.436-37.808-2.872-16.258 4.116-33.379 18.982-42.682 12.857-8.046 28.396-8.262 41.025-1.916 7.725-10.445 20.202-17.16 34.203-16.994 13.556.165 25.525 6.764 33.034 16.841 12.565-6.383 28.066-6.27 40.949 1.676 14.929 9.189 22.031 26.233 19.312 42.504 15.386 6.397 26.084 21.69 25.754 39.344v.076c-.204 17.02-10.635 31.691-25.538 37.986 2.82 16.271-4.206 33.354-19.096 42.631-12.858 8.009-28.384 8.186-41 1.841-7.623 10.293-19.859 16.93-33.631 16.93h-.381c-13.633-.114-25.69-6.726-33.237-16.88-12.591 6.359-28.105 6.219-40.975-1.751-14.903-9.24-21.98-26.31-19.198-42.568-15.284-6.409-25.931-21.626-25.64-39.204v-.026z" fill="#221A15"/><path d="M1.714 100.703C1.98 83.67 12.412 69.177 27.15 62.894c-2.871-16.258 4.116-33.379 18.982-42.682 12.857-8.046 28.396-8.262 41.025-1.916C94.882 7.85 107.36 1.136 121.36 1.302c13.556.165 25.525 6.764 33.034 16.842 12.565-6.384 28.066-6.27 40.949 1.675 14.929 9.189 22.031 26.234 19.312 42.504 15.386 6.397 26.084 21.69 25.754 39.344v.076c-.204 17.02-10.635 31.691-25.538 37.986 2.82 16.271-4.206 33.354-19.096 42.631-12.858 8.009-28.384 8.187-41 1.841-7.623 10.293-19.859 16.93-33.631 16.93h-.381c-13.633-.114-25.69-6.726-33.237-16.879-12.591 6.358-28.105 6.218-40.975-1.752-14.903-9.239-21.98-26.31-19.198-42.568-15.284-6.409-25.931-21.626-25.64-39.204v-.025zm204.453 105.289c4.51 4.899 11.485 4.607 16.618-.673 5.222-5.19 5.438-12.158.483-16.613-4.853-4.531-11.854-4.264-16.644.647-4.866 4.836-5.056 11.829-.47 16.626l.013.013z" fill="#fff"/><path d="M1.714 100.703C1.98 83.67 12.412 69.177 27.15 62.894c-2.871-16.258 4.116-33.379 18.982-42.682 12.857-8.046 28.396-8.262 41.025-1.916C94.882 7.85 107.36 1.136 121.36 1.302c13.556.165 25.525 6.764 33.034 16.842 12.565-6.384 28.066-6.27 40.949 1.675 14.929 9.189 22.031 26.234 19.312 42.504 15.386 6.397 26.084 21.69 25.754 39.344v.076c-.204 17.02-10.635 31.691-25.538 37.986 2.82 16.271-4.206 33.354-19.096 42.631-12.858 8.009-28.384 8.187-41 1.841-7.623 10.293-19.859 16.93-33.631 16.93h-.381c-13.633-.114-25.69-6.726-33.237-16.879-12.591 6.358-28.105 6.218-40.975-1.752-14.903-9.239-21.98-26.31-19.198-42.568-15.284-6.409-25.931-21.626-25.64-39.204v-.025z" fill="#fff" stroke="#221A15" stroke-miterlimit="10"/><path d="M1.714 100.703C1.98 83.67 12.412 69.177 27.15 62.894c-2.871-16.258 4.116-33.379 18.982-42.682 12.857-8.046 28.396-8.262 41.025-1.916C94.882 7.85 107.36 1.136 121.36 1.302c13.556.165 25.525 6.764 33.034 16.842 12.565-6.384 28.066-6.27 40.949 1.675 14.929 9.189 22.031 26.234 19.312 42.504 15.386 6.397 26.084 21.69 25.754 39.344v.076c-.204 17.02-10.635 31.691-25.538 37.986 2.82 16.271-4.206 33.354-19.096 42.631-12.858 8.009-28.384 8.187-41 1.841-7.623 10.293-19.859 16.93-33.631 16.93h-.381c-13.633-.114-25.69-6.726-33.237-16.879-12.591 6.358-28.105 6.218-40.975-1.752-14.903-9.239-21.98-26.31-19.198-42.568-15.284-6.409-25.931-21.626-25.64-39.204v-.025z" stroke="#221A15" stroke-width="2" stroke-linecap="round" stroke-linejoin="round"/></g><defs><clipPath id="clip0_10944_61310"><path fill="#fff" transform="translate(.5)" d="M0 0h247v229H0z"/></clipPath></defs></svg>