<svg width="74" height="72" fill="none" xmlns="http://www.w3.org/2000/svg"><path d="M72.015 37.356a1 1 0 001.224-1.227L63.807 1.247A1 1 0 0062.137.8L36.532 26.29a1 1 0 00.447 1.675l9.211 2.469a.985.985 0 01.66 1.339C42.324 42.308 29.202 65.885 1.91 67.472c-1.229.071-1.674 2.5-.475 2.777 18.642 4.301 40.03 1.988 60.024-34.905.221-.409.702-.63 1.15-.509l9.405 2.52z" fill="url(#paint0_linear_11089_246121)"/><defs><linearGradient id="paint0_linear_11089_246121" x1="46.921" y1="-4.822" x2="25.085" y2="76.641" gradientUnits="userSpaceOnUse"><stop stop-color="#FF7575"/><stop offset="1" stop-color="#FFE99B"/></linearGradient></defs></svg>