<svg width="175" height="152" fill="none" xmlns="http://www.w3.org/2000/svg"><g clip-path="url(#clip0_10944_60776)"><path d="M134.903 37.375c7.491 7.755 14.281 16.234 19.327 25.674 2.506 4.715 4.604 9.64 6.1 14.73 1.502 5.091 2.396 10.342 2.556 15.62a57.312 57.312 0 01-1.667 15.687c-1.27 5.124-3.241 10.071-5.786 14.713-5.095 9.303-12.432 17.345-20.906 23.829" stroke="#56C7C7" stroke-width=".8" stroke-miterlimit="10"/><path d="M125.231 28.266s-.022 1.078.248 2.42c.276 1.35.845 2.958 2.076 4.074 1.838 1.73 4.692 1.918 5.979 1.913-.784-.724-1.601-1.492-2.429-2.394-.42-.447-.823-.945-1.259-1.453a26.11 26.11 0 01-1.319-1.67 292.42 292.42 0 011.567 1.488c.486.475.95.922 1.397 1.348.9.851 1.767 1.592 2.689 2.266.016-1.083-.133-4.311-2.186-6.251-1.281-1.16-2.982-1.603-4.351-1.747a10.682 10.682 0 00-2.412.011v-.005zm12.416 105.029s.828.597 1.673 1.57c.828.967 1.722 2.365 1.662 3.913-.039 1.188-.58 2.338-1.248 3.283a12.587 12.587 0 01-2.004 2.045c.271-2.012.48-4.178-.116-6.881.066 2.808-.138 4.886-.679 7.019-.756-.735-2.721-3.023-2.578-5.516.044-.763.282-1.47.607-2.106a8.288 8.288 0 011.104-1.73c.398-.492.812-.873 1.093-1.155.288-.282.475-.442.475-.442h.011zm-7.431-91.194s.459-.619 1.204-1.221c.745-.603 1.783-1.2 2.964-1.128 1.806.105 3.423 1.713 4.075 2.46-1.524-.166-3.197-.293-5.228.082 2.114.045 3.754.128 5.343.52-.541.592-2.158 2.106-4.09 2.001-1.182-.066-2.247-.74-3.02-1.398-.773-.658-1.253-1.31-1.253-1.31l.005-.006zm6.569 7.269s.497-.581 1.292-1.128c.789-.548 1.877-1.073 3.069-.934 1.811.22 3.241 1.984 3.826 2.774-1.496-.293-3.136-.553-5.167-.337 2.081.205 3.682.431 5.244.94-.579.536-2.346 1.934-4.239 1.669-1.16-.16-2.148-.912-2.843-1.625-.724-.697-1.182-1.354-1.182-1.354v-.006zm5.906 7.666s.547-.53 1.386-1.011c.834-.481 1.96-.901 3.125-.664a4.16 4.16 0 011.258.509c.381.238.707.542 1.011.851a9.44 9.44 0 011.28 1.73c-1.457-.431-3.041-.851-5.09-.807 2.054.376 3.6.757 5.101 1.41-.629.475-2.522 1.691-4.366 1.26-1.143-.254-1.993-1.106-2.661-1.846-.663-.746-1.038-1.437-1.038-1.437l-.006.005zm5.15 8.567s.63-.487 1.552-.885c.922-.403 2.131-.718 3.312-.337 1.805.58 2.854 2.686 3.279 3.61-1.457-.625-3.069-1.239-5.173-1.432 2.06.624 3.633 1.194 5.112 2.05-.712.41-2.832 1.415-4.692.758-1.137-.398-1.96-1.338-2.495-2.19-.591-.828-.9-1.574-.9-1.574h.005zm4.186 9.058s.696-.398 1.679-.68c.982-.281 2.257-.442 3.345.105 1.673.84 2.578 3.057 2.76 4.069-1.297-.857-2.881-1.68-4.985-2.15 1.005.442 1.888.862 2.694 1.304.79.442 1.458.917 2.12 1.465-.778.31-3.064.983-4.775.066-1.038-.564-1.8-1.58-2.219-2.493a8.606 8.606 0 01-.459-1.183l-.16-.497v-.006zm2.959 9.06s.712-.27 1.668-.392c.955-.122 2.147-.089 3.119.57 1.545 1 1.866 3.21 1.981 4.167-1.159-.979-2.406-1.984-4.311-2.72 1.739 1.106 2.964 2.067 4.074 3.261-.767.172-3.003.454-4.499-.64a3.866 3.866 0 01-1.066-1.222 5.474 5.474 0 01-.331-.702 6.462 6.462 0 01-.276-.691 7.35 7.35 0 01-.359-1.63zm.52 9.225s.833-.16 1.915-.122c1.088.045 2.402.299 3.318 1.205.707.697 1.082 1.675 1.281 2.61.149.933.099 1.823.05 2.36a20.82 20.82 0 00-1.739-1.974c-.663-.647-1.502-1.282-2.474-1.863 1.756 1.542 2.882 2.841 3.832 4.39-.884.021-3.401-.15-4.809-1.637-.436-.453-.701-.99-.911-1.537a6.428 6.428 0 01-.414-1.614 8.016 8.016 0 01-.06-1.287c.011-.327.016-.531.016-.531h-.005zm-1.099 9.622s.927 0 2.075.277c1.143.271 2.534.823 3.307 1.984.602.89.806 2.017.806 3.057a11.453 11.453 0 01-.452 2.531c-.834-1.642-1.789-3.344-3.672-5.008.757 1.001 1.408 1.924 1.894 2.808.502.89.922 1.769 1.259 2.698-.944-.166-3.594-.912-4.787-2.803-.364-.58-.552-1.205-.64-1.824a6.93 6.93 0 01-.105-1.791 9.34 9.34 0 01.204-1.37c.061-.349.111-.559.111-.559zm-3.556 12.233s.911.237 1.966.79c1.049.553 2.28 1.448 2.749 2.791.364 1.029.287 2.189.022 3.217-.304 1.006-.767 1.88-1.065 2.394-.42-1.824-.939-3.748-2.363-5.859.243.586.463 1.149.668 1.691.204.542.342 1.05.486 1.559.276 1.006.469 1.973.574 2.979-.889-.392-3.324-1.763-4.019-3.935-.216-.664-.243-1.338-.171-1.979a7.2 7.2 0 01.358-1.808c.177-.536.387-.989.552-1.315a7.24 7.24 0 01.249-.525h-.006zm-5.466 9.523s.883.42 1.844 1.193c.961.774 1.987 1.902 2.23 3.389a4.78 4.78 0 01-.044 1.708 7.318 7.318 0 01-.58 1.569c-.491.979-1.087 1.819-1.529 2.261a18.945 18.945 0 00-.287-3.046 16.327 16.327 0 00-.96-3.388c.237 1.283.408 2.438.508 3.538.049.547.082 1.083.088 1.603a18.387 18.387 0 01-.088 1.536c-.84-.575-3.048-2.41-3.313-4.759-.21-1.465.381-2.819.944-3.869.552-1.05 1.187-1.747 1.187-1.747v.012zm8.922 23.242s-.541-1.315-1.656-2.653c-1.11-1.338-2.805-2.692-4.947-2.929-.817-.094-1.639-.017-2.44.16-.817.155-1.606.414-2.335.724a25.284 25.284 0 00-3.472 1.857c1.319.249 2.743.536 4.239.896 1.496.359 3.108.829 4.864 1.531-1.932-.326-3.621-.608-5.184-.868-1.573-.271-3.019-.464-4.466-.558.282.663.867 1.923 1.8 3.117.938 1.194 2.225 2.316 3.98 2.642 1.077.199 2.23.077 3.357-.221 1.109-.321 2.175-.846 3.113-1.376.469-.271.906-.542 1.286-.807a29.2 29.2 0 00.983-.758c.547-.447.867-.751.867-.751l.011-.006zm9.053-12.651s-.74-1.156-2.021-2.222c-1.281-1.073-3.086-2.04-5.123-1.891-1.59.094-3.086.802-4.328 1.625a17.167 17.167 0 00-2.953 2.305c1.269.017 2.622.028 4.101.133 1.485.105 3.092.293 4.836.636-1.855.055-3.527.005-5.029.033a58.579 58.579 0 00-4.273.204c.37.575 1.115 1.658 2.186 2.631 1.071.967 2.468 1.824 4.196 1.863 1.06.022 2.098-.31 3.103-.785.993-.486 1.959-1.116 2.727-1.813.778-.68 1.429-1.36 1.882-1.863.227-.254.409-.464.525-.613.11-.155.176-.238.176-.238l-.005-.005zm6.796-13.823s-.916-.962-2.34-1.73c-1.425-.774-3.357-1.349-5.289-.813a6.955 6.955 0 00-2.048.978c-.652.415-1.253.901-1.783 1.41a16.145 16.145 0 00-1.386 1.514c-.42.47-.756.901-1.005 1.233 2.507-.392 5.195-.951 8.728-.94-1.788.376-3.351.702-4.792 1.006-1.463.288-2.793.586-4.085.968.464.486 1.38 1.392 2.584 2.128 1.203.735 2.688 1.298 4.339 1 1.005-.188 1.993-.674 2.871-1.327.85-.668 1.617-1.492 2.263-2.293.657-.791 1.126-1.587 1.452-2.173.326-.585.502-.967.502-.967l-.011.006zm3.528-15.09s-1.093-.724-2.622-1.15c-1.535-.437-3.462-.564-5.19.354-1.347.696-2.379 1.879-3.135 3.062a16.32 16.32 0 00-1.712 3.09c1.116-.453 2.302-.945 3.638-1.41a42.62 42.62 0 012.12-.68 34.81 34.81 0 012.335-.613c-1.584.768-3.069 1.36-4.377 1.946-.657.292-1.281.574-1.883.867-.602.304-1.187.597-1.772.896.536.364 1.59 1.033 2.882 1.492 1.297.453 2.837.691 4.378.077.91-.386 1.716-1.072 2.418-1.879.695-.812 1.308-1.746 1.7-2.653a20.46 20.46 0 00.927-2.382c.1-.31.177-.569.227-.746.055-.177.066-.277.066-.277v.006zm.934-13.908s-1.182-.475-2.722-.586c-1.546-.116-3.428.133-4.88 1.349-1.154.934-1.916 2.271-2.407 3.565-.53 1.293-.883 2.542-1.027 3.31 1.949-1.315 4.212-2.835 7.204-4.206-.695.514-1.347.995-1.965 1.454-.64.448-1.242.873-1.822 1.282-1.148.824-2.169 1.598-3.124 2.427.579.243 1.711.674 3.041.857a7.41 7.41 0 002.093 0c.723-.111 1.435-.354 2.075-.807.795-.553 1.436-1.371 1.949-2.283.254-.459.48-.94.674-1.426.165-.487.303-.978.419-1.448.227-.945.359-1.819.431-2.46.033-.32.061-.575.072-.757v-.277l-.011.006zm-2.17-13.354s-1.187-.243-2.683-.071c-1.501.165-3.251.735-4.471 2.166-.928 1.095-1.397 2.51-1.623 3.836a15.41 15.41 0 00-.37 3.366c.811-.812 1.667-1.691 2.666-2.592a33.415 33.415 0 011.612-1.376 31.138 31.138 0 011.827-1.388c-1.109 1.244-2.197 2.31-3.13 3.311-.938 1-1.761 1.93-2.523 2.907.602.122 1.767.316 3.07.233 1.286-.083 2.766-.46 3.831-1.565.652-.674 1.11-1.564 1.424-2.531.31-.962.514-1.995.525-2.924.077-1.863-.16-3.377-.16-3.377l.005.005zm-3.915-11.408s-1.198-.044-2.606.331c-1.413.376-3.042 1.172-3.969 2.703-.679 1.16-.994 2.62-1.032 3.941a14.24 14.24 0 00.06 1.852c.05.558.083 1.061.138 1.431.337-.458.685-.934 1.049-1.426.359-.486.718-.978 1.115-1.487a29.64 29.64 0 012.877-3.161c-.933 1.37-1.756 2.537-2.479 3.626-.723 1.094-1.43 2.139-2.015 3.206 1.192.016 4.659.05 6.426-2.383a6.027 6.027 0 001.015-2.636c.133-.95.122-1.94.045-2.836-.083-.89-.199-1.708-.359-2.266-.149-.564-.271-.9-.271-.9l.006.005zm-5.343-10.557s-1.153.11-2.462.647c-1.314.536-2.793 1.504-3.511 3.095-1.032 2.416-.292 5.671.171 7.053.988-1.94 2.098-4.118 4.058-6.511-1.491 2.874-2.578 4.941-3.412 7.169 1.143-.15 4.466-.614 5.857-3.2.801-1.565.657-3.654.31-5.345-.166-.857-.453-1.553-.646-2.078-.205-.52-.354-.83-.354-.83h-.011zm-6.421-9.69s-1.098.232-2.307.885c-1.215.652-2.545 1.735-3.075 3.35a5.617 5.617 0 00-.26 1.912c.006.32.039.64.083.961.033.327.083.642.144.951a14.06 14.06 0 00.966 2.974c.734-1.996 1.573-4.229 3.207-6.75-1.126 2.92-1.987 5.064-2.495 7.297 1.104-.282 4.262-1.166 5.255-3.77.602-1.603.254-3.581-.254-5.162-.557-1.537-1.258-2.659-1.258-2.659l-.006.011zm-7.236-8.876s-1.038.326-2.153 1.067c-1.121.74-2.314 1.896-2.683 3.498-.519 2.422.822 5.296 1.529 6.484.513-2.006 1.109-4.24 2.462-6.81-.823 2.908-1.446 5.058-1.717 7.274 1.038-.381 3.991-1.558 4.704-4.162.43-1.603-.083-3.46-.713-4.913-.303-.741-.684-1.322-.955-1.758-.276-.426-.469-.68-.469-.68h-.005zm-7.834-8.168s-.983.398-2.01 1.2c-1.026.8-2.103 2-2.335 3.57-.392 2.438 1.198 5.063 1.971 6.163.32-1.979.712-4.173 1.822-6.749-.574 2.858-.983 4.964-1.071 7.141.96-.442 3.698-1.824 4.206-4.421.287-1.576-.358-3.306-1.071-4.643a15.46 15.46 0 00-1.021-1.642 5.344 5.344 0 00-.353-.459c-.089-.105-.138-.16-.138-.16z" fill="#56C7C7"/><path d="M40.068 37.375c-7.491 7.755-14.281 16.234-19.327 25.674-2.506 4.715-4.604 9.64-6.1 14.73-1.502 5.091-2.396 10.342-2.556 15.62a57.3 57.3 0 001.667 15.687c1.27 5.124 3.24 10.071 5.785 14.713 5.096 9.303 12.433 17.345 20.907 23.829" stroke="#56C7C7" stroke-width=".8" stroke-miterlimit="10"/><path d="M49.739 28.266s.022 1.078-.248 2.42c-.277 1.35-.845 2.958-2.076 4.074-1.839 1.73-4.693 1.918-5.979 1.913.784-.724 1.601-1.492 2.43-2.394.419-.447.822-.945 1.258-1.453.436-.509.877-1.061 1.32-1.67-.558.526-1.077 1.018-1.569 1.488-.486.475-.95.922-1.396 1.348a27.57 27.57 0 01-2.689 2.266c-.016-1.083.133-4.311 2.186-6.251 1.281-1.16 2.981-1.603 4.35-1.747a10.69 10.69 0 012.413.011v-.005zM37.324 133.295s-.828.597-1.673 1.57c-.828.967-1.723 2.365-1.662 3.913.039 1.188.58 2.338 1.248 3.283a12.574 12.574 0 002.004 2.045c-.27-2.012-.48-4.178.116-6.881-.066 2.808.138 4.886.679 7.019.756-.735 2.721-3.023 2.578-5.516-.044-.763-.282-1.47-.607-2.106a8.252 8.252 0 00-1.104-1.73c-.398-.492-.812-.873-1.094-1.155a10.435 10.435 0 00-.474-.442h-.011zm7.431-91.194s-.459-.619-1.204-1.221c-.745-.603-1.783-1.2-2.965-1.128-1.805.105-3.422 1.713-4.074 2.46 1.524-.166 3.197-.293 5.228.082-2.114.045-3.754.128-5.343.52.54.592 2.158 2.106 4.09 2.001 1.182-.066 2.247-.74 3.02-1.398a8.738 8.738 0 001.253-1.31l-.005-.006zm-6.571 7.269s-.497-.581-1.292-1.128c-.79-.548-1.877-1.073-3.07-.934-1.81.22-3.24 1.984-3.825 2.774 1.496-.293 3.136-.553 5.167-.337-2.08.205-3.682.431-5.244.94.58.536 2.346 1.934 4.24 1.669 1.159-.16 2.147-.912 2.843-1.625a10.268 10.268 0 001.181-1.354v-.006zm-5.906 7.666s-.546-.53-1.386-1.011c-.833-.481-1.96-.901-3.124-.664a4.157 4.157 0 00-1.259.509c-.38.238-.707.542-1.01.851a9.46 9.46 0 00-1.28 1.73c1.456-.431 3.04-.851 5.089-.807-2.054.376-3.6.757-5.101 1.41.63.475 2.523 1.691 4.367 1.26 1.142-.254 1.993-1.106 2.66-1.846.663-.746 1.038-1.437 1.038-1.437l.006.005zm-5.151 8.567s-.63-.487-1.551-.885c-.922-.403-2.131-.718-3.312-.337-1.806.58-2.854 2.686-3.28 3.61 1.458-.625 3.07-1.239 5.173-1.432-2.06.624-3.632 1.194-5.112 2.05.712.41 2.832 1.415 4.692.758 1.138-.398 1.96-1.338 2.496-2.19.59-.828.9-1.574.9-1.574h-.006zm-4.183 9.058s-.695-.398-1.678-.68c-.983-.281-2.258-.442-3.346.105-1.672.84-2.578 3.057-2.76 4.069 1.297-.857 2.882-1.68 4.985-2.15a34.418 34.418 0 00-2.694 1.304c-.79.442-1.457.917-2.12 1.465.779.31 3.064.983 4.776.066 1.037-.564 1.8-1.58 2.219-2.493a8.68 8.68 0 00.458-1.183l.16-.497v-.006zm-2.961 9.06s-.712-.27-1.667-.392c-.955-.122-2.148-.089-3.12.57-1.545 1-1.865 3.21-1.981 4.167 1.16-.979 2.407-1.984 4.311-2.72-1.739 1.106-2.964 2.067-4.074 3.261.768.172 3.003.454 4.5-.64a3.855 3.855 0 001.065-1.222c.132-.232.237-.465.331-.702.11-.232.199-.465.276-.691.304-.89.359-1.63.359-1.63zm-.518 9.225s-.834-.16-1.916-.122c-1.087.045-2.4.299-3.317 1.205-.707.697-1.082 1.675-1.281 2.61-.15.933-.1 1.823-.05 2.36a20.834 20.834 0 011.74-1.974c.662-.647 1.5-1.282 2.472-1.863-1.755 1.542-2.881 2.841-3.83 4.39.882.021 3.4-.15 4.807-1.637.437-.453.702-.99.911-1.537a6.381 6.381 0 00.414-1.614c.067-.508.072-.961.061-1.287l-.016-.531h.005zm1.099 9.622s-.928 0-2.076.277c-1.143.271-2.534.823-3.307 1.984-.602.89-.806 2.017-.806 3.057.055 1.028.287 1.967.453 2.531.833-1.642 1.788-3.344 3.67-5.008-.756 1.001-1.407 1.924-1.893 2.808-.502.89-.922 1.769-1.258 2.698.944-.166 3.594-.912 4.786-2.803.364-.58.552-1.205.64-1.824a6.93 6.93 0 00.105-1.791 9.255 9.255 0 00-.204-1.37c-.06-.349-.11-.559-.11-.559zm3.554 12.233s-.91.237-1.965.79c-1.049.553-2.28 1.448-2.75 2.791-.364 1.029-.286 2.189-.021 3.217.303 1.006.767 1.88 1.065 2.394.42-1.824.939-3.748 2.363-5.859a55.811 55.811 0 00-.668 1.691c-.204.542-.342 1.05-.486 1.559a18.291 18.291 0 00-.574 2.979c.889-.392 3.323-1.763 4.019-3.935.215-.664.243-1.338.171-1.979a7.196 7.196 0 00-.359-1.808 9.453 9.453 0 00-.552-1.315c-.143-.332-.248-.525-.248-.525h.005zm5.466 9.523s-.883.42-1.844 1.193c-.96.774-1.987 1.902-2.23 3.389a4.797 4.797 0 00.044 1.708c.127.547.337 1.077.58 1.569.491.979 1.087 1.819 1.529 2.261a18.99 18.99 0 01.287-3.046c.188-1.072.475-2.194.96-3.388a38.457 38.457 0 00-.507 3.538 20.25 20.25 0 00-.089 1.603c.006.514.039 1.022.089 1.536.839-.575 3.047-2.41 3.312-4.759.21-1.465-.38-2.819-.944-3.869-.552-1.05-1.187-1.747-1.187-1.747v.012zm-8.92 23.242s.541-1.315 1.656-2.653c1.11-1.338 2.805-2.692 4.947-2.929.817-.094 1.64-.017 2.44.16.817.155 1.606.414 2.335.724 1.44.63 2.716 1.365 3.472 1.857-1.32.249-2.744.536-4.24.896a34.719 34.719 0 00-4.863 1.531c1.932-.326 3.621-.608 5.184-.868 1.573-.271 3.02-.464 4.466-.558-.282.663-.867 1.923-1.8 3.117-.938 1.194-2.225 2.316-3.98 2.642-1.077.199-2.23.077-3.357-.221-1.11-.321-2.175-.846-3.113-1.376a18.21 18.21 0 01-1.287-.807 29.785 29.785 0 01-.982-.758 17.203 17.203 0 01-.867-.751l-.01-.006zm-9.055-12.651s.74-1.156 2.02-2.222c1.281-1.073 3.086-2.04 5.124-1.891 1.59.094 3.085.802 4.328 1.625a17.19 17.19 0 012.953 2.305c-1.27.017-2.622.028-4.102.133a39.195 39.195 0 00-4.836.636c1.855.055 3.528.005 5.03.033 1.518.011 2.865.094 4.272.204-.37.575-1.115 1.658-2.186 2.631-1.07.967-2.467 1.824-4.195 1.863-1.06.022-2.098-.31-3.103-.785-.994-.486-1.96-1.116-2.727-1.813-.778-.68-1.43-1.36-1.882-1.863a13.601 13.601 0 01-.525-.613c-.11-.155-.176-.238-.176-.238l.005-.005zm-6.795-13.823s.916-.962 2.34-1.73c1.425-.774 3.357-1.349 5.29-.813a6.962 6.962 0 012.047.978 11.58 11.58 0 011.783 1.41 16.14 16.14 0 011.386 1.514c.42.47.756.901 1.005 1.233-2.507-.392-5.195-.951-8.728-.94 1.788.376 3.35.702 4.792 1.006 1.463.288 2.793.586 4.085.968-.464.486-1.38 1.392-2.584 2.128-1.203.735-2.688 1.298-4.339 1-1.005-.188-1.993-.674-2.87-1.327-.85-.668-1.618-1.492-2.264-2.293-.657-.791-1.126-1.587-1.452-2.173a16.13 16.13 0 01-.502-.967l.01.006zm-3.529-15.09s1.093-.724 2.622-1.15c1.535-.437 3.462-.564 5.19.354 1.347.696 2.379 1.879 3.135 3.062a16.26 16.26 0 011.712 3.09c-1.116-.453-2.302-.945-3.638-1.41a42.532 42.532 0 00-2.12-.68 34.84 34.84 0 00-2.335-.613c1.584.768 3.069 1.36 4.377 1.946.657.292 1.281.574 1.883.867.602.304 1.187.597 1.772.896-.535.364-1.59 1.033-2.882 1.492-1.297.453-2.837.691-4.378.077-.91-.386-1.716-1.072-2.418-1.879-.695-.812-1.308-1.746-1.7-2.653a20.506 20.506 0 01-.927-2.382c-.1-.31-.177-.569-.227-.746-.055-.177-.066-.277-.066-.277v.006zM.353 92.094s1.181-.475 2.721-.586c1.546-.116 3.429.133 4.88 1.349 1.154.934 1.916 2.271 2.407 3.565.53 1.293.884 2.542 1.027 3.31-1.948-1.315-4.212-2.835-7.204-4.206.696.514 1.347.995 1.965 1.454.64.448 1.242.873 1.822 1.282 1.148.824 2.17 1.598 3.125 2.427-.58.243-1.712.674-3.042.857a7.404 7.404 0 01-2.092 0c-.724-.111-1.436-.354-2.076-.807-.795-.553-1.435-1.371-1.949-2.283a12.44 12.44 0 01-.673-1.426 17.584 17.584 0 01-.42-1.448 20.638 20.638 0 01-.43-2.46c-.034-.32-.061-.575-.072-.757v-.277l.01.006zM2.522 78.74s1.187-.243 2.683-.071c1.501.165 3.251.735 4.471 2.166.928 1.095 1.397 2.51 1.623 3.836.31 1.343.37 2.598.37 3.366-.811-.812-1.667-1.691-2.666-2.592a33.022 33.022 0 00-1.612-1.376 30.866 30.866 0 00-1.828-1.388c1.11 1.244 2.198 2.31 3.13 3.311.939 1 1.762 1.93 2.523 2.907-.601.122-1.766.316-3.069.233-1.286-.083-2.766-.46-3.831-1.565-.652-.674-1.11-1.564-1.425-2.531-.309-.962-.513-1.995-.524-2.924-.077-1.863.16-3.377.16-3.377l-.005.005zm3.915-11.408s1.198-.044 2.605.331c1.414.376 3.042 1.172 3.97 2.703.679 1.16.993 2.62 1.032 3.941a14.24 14.24 0 01-.06 1.852c-.05.558-.084 1.061-.139 1.431-.337-.458-.684-.934-1.049-1.426-.358-.486-.717-.978-1.115-1.487a29.64 29.64 0 00-2.876-3.161c.933 1.37 1.756 2.537 2.479 3.626.723 1.094 1.43 2.139 2.015 3.206-1.193.016-4.66.05-6.426-2.383a6.028 6.028 0 01-1.016-2.636c-.132-.95-.121-1.94-.044-2.836.083-.89.199-1.708.359-2.266.149-.564.27-.9.27-.9l-.005.005zm5.343-10.557s1.155.11 2.463.647c1.314.536 2.793 1.504 3.51 3.095 1.033 2.416.294 5.671-.17 7.053-.988-1.94-2.098-4.118-4.058-6.511 1.49 2.874 2.578 4.941 3.412 7.169-1.143-.15-4.466-.614-5.857-3.2-.8-1.565-.657-3.654-.31-5.345.166-.857.453-1.553.646-2.078.205-.52.354-.83.354-.83h.01zm6.42-9.69s1.098.232 2.307.885c1.214.652 2.545 1.735 3.075 3.35.204.618.276 1.265.26 1.912-.006.32-.04.64-.083.961a10.35 10.35 0 01-.144.951 14.077 14.077 0 01-.966 2.974c-.734-1.996-1.573-4.229-3.207-6.75 1.126 2.92 1.987 5.064 2.495 7.297-1.104-.282-4.262-1.166-5.256-3.77-.602-1.603-.254-3.581.254-5.162.558-1.537 1.259-2.659 1.259-2.659l.005.011zm7.238-8.876s1.038.326 2.153 1.067c1.12.74 2.313 1.896 2.683 3.498.519 2.422-.823 5.296-1.53 6.484-.513-2.006-1.11-4.24-2.462-6.81.823 2.908 1.447 5.058 1.717 7.274-1.038-.381-3.991-1.558-4.703-4.162-.43-1.603.082-3.46.712-4.913.303-.741.684-1.322.955-1.758.276-.426.47-.68.47-.68h.005zm7.832-8.168s.983.398 2.01 1.2c1.027.8 2.103 2 2.335 3.57.392 2.438-1.198 5.063-1.97 6.163-.32-1.979-.713-4.173-1.822-6.749.574 2.858.982 4.964 1.07 7.141-.96-.442-3.698-1.824-4.206-4.421-.287-1.576.359-3.306 1.071-4.643a15.57 15.57 0 011.021-1.642c.144-.204.265-.36.354-.459.088-.105.138-.16.138-.16z" fill="#56C7C7"/><path d="M100.788 35.513c.944-6.837 3.384-15.41 6.707-22.507-1.297 2.83-7.508 7.08-11.532 6.185-4.648-1.034-7.977-9.927-8.474-17.383-.502 7.456-3.826 16.35-8.474 17.383-4.03.895-10.24-3.36-11.532-6.185 3.323 7.102 5.769 15.675 6.707 22.507h26.603-.005z" fill="#BAA869"/><path d="M100.788 35.513c.944-6.837 3.384-15.41 6.707-22.507-1.297 2.83-7.508 7.08-11.532 6.185-4.648-1.034-7.977-9.927-8.474-17.383-.502 7.456-3.826 16.35-8.474 17.383-4.03.895-10.24-3.36-11.532-6.185 3.323 7.102 5.769 15.675 6.707 22.507h26.603-.005z" fill="url(#paint0_linear_10944_60776)"/><path d="M80.644 16.914c-1.254-1.139-2.534-3.217-3.103-5.373.088 2.228-.535 4.726-1.397 6.185 1.507.768 3.136.591 4.5-.812z" fill="#BAA869"/><path d="M80.644 16.914c-1.254-1.139-2.534-3.217-3.103-5.373.088 2.228-.535 4.726-1.397 6.185 1.507.768 3.136.591 4.5-.812z" fill="url(#paint1_linear_10944_60776)"/><path d="M94.329 16.914c1.253-1.139 2.534-3.217 3.102-5.373-.088 2.228.536 4.726 1.397 6.185-1.507.768-3.136.591-4.5-.812z" fill="#BAA869"/><path d="M94.329 16.914c1.253-1.139 2.534-3.217 3.102-5.373-.088 2.228.536 4.726 1.397 6.185-1.507.768-3.136.591-4.5-.812z" fill="url(#paint2_linear_10944_60776)"/><path d="M89.901 2.808a2.416 2.416 0 01-2.412 2.415 2.416 2.416 0 010-4.83 2.416 2.416 0 012.412 2.415z" fill="#BAA869"/><path d="M89.901 2.808a2.416 2.416 0 01-2.412 2.415 2.416 2.416 0 010-4.83 2.416 2.416 0 012.412 2.415z" fill="url(#paint3_linear_10944_60776)"/><path d="M107.081 15.371a2.06 2.06 0 002.059-2.061 2.06 2.06 0 00-2.059-2.062 2.06 2.06 0 00-2.059 2.062 2.06 2.06 0 002.059 2.061z" fill="#BAA869"/><path d="M107.081 15.371a2.06 2.06 0 002.059-2.061 2.06 2.06 0 00-2.059-2.062 2.06 2.06 0 00-2.059 2.062 2.06 2.06 0 002.059 2.061z" fill="url(#paint4_linear_10944_60776)"/><path d="M99.198 11.541a1.766 1.766 0 11-3.533 0 1.766 1.766 0 113.533 0z" fill="#BAA869"/><path d="M99.198 11.541a1.766 1.766 0 11-3.533 0 1.766 1.766 0 113.533 0z" fill="url(#paint5_linear_10944_60776)"/><path d="M67.891 15.371a2.06 2.06 0 002.06-2.061 2.06 2.06 0 00-2.06-2.062 2.06 2.06 0 00-2.059 2.062 2.06 2.06 0 002.06 2.061z" fill="#BAA869"/><path d="M67.891 15.371a2.06 2.06 0 002.06-2.061 2.06 2.06 0 00-2.06-2.062 2.06 2.06 0 00-2.059 2.062 2.06 2.06 0 002.06 2.061z" fill="url(#paint6_linear_10944_60776)"/><path d="M75.775 11.541a1.766 1.766 0 103.533 0 1.766 1.766 0 10-3.534 0z" fill="#BAA869"/><path d="M75.775 11.541a1.766 1.766 0 103.533 0 1.766 1.766 0 10-3.534 0z" fill="url(#paint7_linear_10944_60776)"/><path d="M59.227 145.255l-3.62 1.91.691-4.043-2.929-2.86 4.048-.589 1.81-3.673 1.81 3.673 4.052.589-2.928 2.86.69 4.043-3.624-1.91zm14.498 0l-3.62 1.91.691-4.043-2.929-2.86 4.048-.589 1.81-3.673 1.815 3.673 4.047.589-2.928 2.86.69 4.043-3.624-1.91zm14.495 0l-3.619 1.91.691-4.043-2.929-2.86 4.048-.589 1.81-3.673 1.815 3.673 4.047.589-2.928 2.86.69 4.043-3.624-1.91zm14.506 0l-3.625 1.91.691-4.043-2.929-2.86 4.048-.589 1.815-3.673 1.81 3.673 4.047.589-2.928 2.86.69 4.043-3.619-1.91zm14.5 0l-3.625 1.91.691-4.043-2.929-2.86 4.048-.589 1.815-3.673 1.81 3.673 4.047.589-2.928 2.86.69 4.043-3.619-1.91z" fill="#BAA869"/><path d="M68.03 47.365l.945.78c-.165.36-.24.675-.315 1.245a133.3 133.3 0 01-.915 5.97h1.77c1.05 0 1.38-.015 1.95-.105v1.89c-.54-.06-.885-.075-1.92-.075h-9.06c-1.05 0-1.395.015-1.935.075v-1.89c.57.09.9.105 1.965.105h5.235c.42-1.98.735-4.095.945-6.15h-4.68c-.84 0-1.155.015-1.68.09v-1.905c.525.09.855.12 1.665.12h4.365c.9 0 1.2-.03 1.665-.15zm5.535 5.925v-2.085c.66.09.945.105 2.43.105h7.995c1.485 0 1.77-.015 2.43-.105v2.085c-.6-.075-.765-.075-2.445-.075H76.01c-1.68 0-1.845 0-2.445.075zm19.32-4.425h3.9V47.62c0-.795-.015-1.14-.06-1.485h1.92c-.045.36-.045.465-.045.99 0 .555-.015 1.14-.015 1.74h.945c1.14 0 1.425-.015 1.965-.105v1.83c-.51-.06-.72-.075-1.935-.075h-.99c-.03 2.7-.18 3.66-.735 4.845-.825 1.62-2.295 2.775-4.455 3.495-.255-.6-.51-.96-1.125-1.59 2.13-.6 3.39-1.545 4.035-3 .36-.9.45-1.635.48-3.75h-3.885v2.235c0 .675.015.9.06 1.26h-1.95c.045-.315.045-.48.06-1.29v-2.205h-.915c-1.2 0-1.41.015-1.92.075v-1.83c.54.09.825.105 1.95.105h.885v-1.5c0-.765-.015-.96-.075-1.335h1.965c-.06.495-.06.555-.06 1.275v1.56zm5.745-3.315l1.02-.285c.45.735.78 1.455 1.035 2.34l-1.035.3c-.285-.96-.6-1.695-1.02-2.355zm3.825 1.545l-.96.315a9.495 9.495 0 00-1.02-2.265l.96-.3c.405.63.72 1.335 1.02 2.25zm1.11 6.195v-2.085c.66.09.945.105 2.43.105h7.995c1.485 0 1.77-.015 2.43-.105v2.085c-.6-.075-.765-.075-2.445-.075h-7.965c-1.68 0-1.845 0-2.445.075zM53.03 66.055V64.21c.495.09.81.105 1.755.105h5.235c.945 0 1.26-.015 1.755-.105v1.845c-.465-.06-.75-.075-1.725-.075h-5.295c-.975 0-1.26.015-1.725.075zm9.51 1.74l.855.96c-.15.27-.24.48-.42.945-.78 2.205-1.92 3.87-3.48 5.07-1.065.825-2.04 1.335-3.93 2.04-.33-.75-.51-1.005-1.17-1.74 1.83-.465 3.015-1.02 4.17-1.98 1.11-.93 1.755-1.845 2.415-3.51h-7.305c-1.005 0-1.38.015-1.92.075v-1.83c.57.09.9.105 1.95.105h7.14c.93 0 1.23-.03 1.695-.135zm4.29-1.425l1.245-1.485c1.785 1.11 2.715 1.8 3.87 2.895l-1.29 1.635c-1.2-1.275-2.43-2.265-3.825-3.045zm.525 9.9L66.8 74.2c1.29-.075 3.075-.51 4.44-1.11 1.875-.81 3.27-1.965 4.455-3.675.66-.96 1.08-1.785 1.53-3 .585.705.825.93 1.59 1.47-1.275 2.745-2.7 4.515-4.755 5.88-1.53 1.02-3.39 1.755-5.715 2.25-.6.12-.645.135-.99.255zm18.48-9.57l-.225-1.275c-.135-.735-.195-.99-.36-1.41l1.98-.315c.015.39.075.825.18 1.41l.24 1.305 3.165-.495c.735-.12 1.05-.195 1.44-.33l.315 1.8c-.405.03-.405.03-1.44.195l-3.165.495.45 2.46 3.525-.555a13.33 13.33 0 001.56-.345l.33 1.8c-.315.015-.375.015-.69.075-.09 0-.165.015-.24.03l-.6.09-3.57.57.54 2.91c.18.99.195 1.035.36 1.545l-2.01.36c-.015-.45-.075-.87-.195-1.575l-.54-2.955-3.705.585c-.72.12-.99.18-1.53.33l-.3-1.845c.51 0 .945-.045 1.59-.15l3.645-.585-.45-2.46-2.79.435c-.69.12-1.245.225-1.65.345l-.3-1.845c.54-.015 1.02-.075 1.65-.165l2.79-.435zm10.995-.33l1.245-1.485c1.785 1.11 2.715 1.8 3.87 2.895l-1.29 1.635c-1.2-1.275-2.43-2.265-3.825-3.045zm.525 9.9L96.8 74.2c1.29-.075 3.075-.51 4.44-1.11 1.875-.81 3.27-1.965 4.455-3.675.66-.96 1.08-1.785 1.53-3 .585.705.825.93 1.59 1.47-1.275 2.745-2.7 4.515-4.755 5.88-1.53 1.02-3.39 1.755-5.715 2.25-.6.12-.645.135-.99.255zm24.93-10.17l.51.585c-.135.195-.21.375-.375.9-.885 2.67-1.605 4.005-3.015 5.67-1.335 1.53-3.18 2.85-5.34 3.795-.39-.705-.66-1.035-1.275-1.575 3.93-1.5 6.465-4.185 7.665-8.085l-4.515.06c-.84 1.38-2.265 2.94-3.51 3.855-.45-.615-.675-.81-1.455-1.29 1.62-1.08 2.82-2.43 3.885-4.35.45-.81.72-1.515.765-1.995l2.055.42c-.105.135-.12.165-.255.45-.12.27-.255.57-.405.87-.075.135-.075.15-.105.21l-.12.225c.18-.015.42-.03.72-.03l3.285-.045c.405 0 .66-.015.78-.03-.345-.75-.615-1.23-1.095-1.875l1.11-.375c.585.78.93 1.38 1.335 2.37l-.645.24zm2.595-.915l-1.11.42c-.36-.885-.795-1.65-1.29-2.325l1.08-.375c.615.795.96 1.395 1.32 2.28zM59.3 120.376l-.048-2.664c-2.112 2.208-4.992 3.936-8.328 5.016-.48-.888-.84-1.416-1.56-2.28 3.336-.792 6.168-2.208 8.184-4.056h-4.152c-.12.408-.192.624-.36 1.2l-2.808-.048a20.972 20.972 0 001.368-4.44c.192-1.056.336-2.112.36-2.616.432.048 1.104.072 2.28.072h4.92l-.024-1.56h-5.376c-.936 0-1.56.024-2.208.096v-2.328c-.264.264-.384.36-.72.672-.48-.792-.984-1.416-1.56-1.944 2.04-1.56 3.216-3.072 3.768-4.872l2.568.48c-.336.624-.432.816-.72 1.296h3.072c1.152 0 1.776-.024 2.352-.144v1.944c.936-1.08 1.512-2.16 1.944-3.576l2.544.456c-.192.504-.216.552-.6 1.344h4.56c1.296 0 1.848-.024 2.64-.144v2.472c-.744-.096-1.44-.12-2.52-.12h-1.872c.456.672.672 1.032 1.056 1.656l-1.968.576h1.152c1.176 0 1.608-.024 2.232-.096-.072.48-.096.864-.096 1.728v2.472c0 .864.024 1.248.096 1.752-.6-.048-1.272-.072-2.232-.072H61.7l.024 1.608h6.84c.912 0 1.488-.024 2.064-.096-.048.336-.072.48-.096.744-.072.912-.168 1.68-.216 2.28-.24 2.328-.408 2.952-.888 3.504-.456.528-1.176.72-2.808.72-.72 0-1.2-.024-2.232-.096-.144-.96-.288-1.512-.6-2.352.912.12 2.064.24 2.592.24 1.32 0 1.392-.12 1.56-2.808h-6.192l.048 4.008c.024 1.272.072 1.92.192 2.664h-2.832c.12-.696.144-1.128.144-2.064v-.624zm-.096-6.12l-.024-1.608h-4.92c-.096.6-.12.744-.312 1.608h5.256zM61.652 109l.024 1.56h5.208V109h-5.232zm-.648-2.136h4.632c-.264-.624-.72-1.44-1.224-2.232h-1.464a11.704 11.704 0 01-1.944 2.232zm-7.248 0h2.088c-.288-.792-.6-1.416-1.08-2.256h-1.32a14.38 14.38 0 01-1.872 2.16c.552.072 1.08.096 2.184.096zm2.424 0h4.368c-.36-.48-.864-.936-1.536-1.44.408-.336.528-.456.864-.768-.384-.024-.84-.048-1.344-.048h-1.32c.288.456.432.696.96 1.632l-1.992.624zM81.3 90.6l-3.6.4c-.45 0-.55-.15-.55-.6 0-.2.1-.35.55-.45 4.5-1.05 9.3-2.65 12.75-4.05.5 0 .75.2.75.6l-.1 11.85v19.5c0 3.65.3 4.35 5.4 4.6.5 0 .55.05.55.5 0 .4-.05.45-.55.45-2.3-.1-6.15-.15-8.8-.15-2.75 0-6.25.05-8.6.15-.45 0-.5-.05-.5-.45 0-.45.05-.5.5-.5 4.75-.25 5.3-.95 5.3-4.6V92.7c0-1.3-.75-2.15-1.95-2.15-.4 0-.8 0-1.15.05zm34.712 14.248v-2.04c0-.792-.048-1.296-.144-1.872h2.904c-.096.504-.144.984-.144 1.872v2.04h3.648c1.2 0 2.016-.048 2.736-.144v2.688a28.796 28.796 0 00-2.76-.12h-9.336c-1.32 0-2.232.048-2.832.12v-2.664c.696.096 1.368.12 2.76.12h3.168zm-3.696 14.64h5.232c1.416-3.792 2.568-8.256 2.904-11.304l2.928.672c-.336 1.224-.336 1.224-.888 3.312-.528 2.136-1.32 4.584-2.304 7.32h2.688c1.248 0 2.04-.048 2.76-.144v2.736c-.816-.12-1.656-.168-2.856-.168h-10.392c-1.176 0-2.112.048-2.856.168v-2.736c.72.096 1.512.144 2.784.144zm-6.528.648v-6.816c0-.792.024-1.68.072-2.688-.84 1.296-1.152 1.704-1.848 2.52-.216-.936-.6-1.944-1.08-2.88 1.68-1.8 3.024-4.008 3.984-6.576.456-1.176.792-2.304.912-3.168l2.76.696c-.744 2.208-1.392 3.84-2.232 5.664v13.272c0 1.056.048 1.872.168 2.784h-2.904c.12-.936.168-1.608.168-2.808zm10.44-2.328l-2.616.72c-.696-3.72-1.392-6.288-2.544-9.24l2.496-.888c1.248 3.336 1.824 5.448 2.664 9.408z" fill="#221A15"/></g><defs><linearGradient id="paint0_linear_10944_60776" x1="70" y1="10.5" x2="109.421" y2="28.513" gradientUnits="userSpaceOnUse"><stop stop-color="#BAA869"/><stop offset=".49" stop-color="#F0E5BE"/><stop offset="1" stop-color="#BAA869"/></linearGradient><linearGradient id="paint1_linear_10944_60776" x1="70" y1="10.5" x2="109.421" y2="28.513" gradientUnits="userSpaceOnUse"><stop stop-color="#BAA869"/><stop offset=".49" stop-color="#F0E5BE"/><stop offset="1" stop-color="#BAA869"/></linearGradient><linearGradient id="paint2_linear_10944_60776" x1="70" y1="10.5" x2="109.421" y2="28.513" gradientUnits="userSpaceOnUse"><stop stop-color="#BAA869"/><stop offset=".49" stop-color="#F0E5BE"/><stop offset="1" stop-color="#BAA869"/></linearGradient><linearGradient id="paint3_linear_10944_60776" x1="70" y1="10.5" x2="109.421" y2="28.513" gradientUnits="userSpaceOnUse"><stop stop-color="#BAA869"/><stop offset=".49" stop-color="#F0E5BE"/><stop offset="1" stop-color="#BAA869"/></linearGradient><linearGradient id="paint4_linear_10944_60776" x1="70" y1="10.5" x2="109.421" y2="28.513" gradientUnits="userSpaceOnUse"><stop stop-color="#BAA869"/><stop offset=".49" stop-color="#F0E5BE"/><stop offset="1" stop-color="#BAA869"/></linearGradient><linearGradient id="paint5_linear_10944_60776" x1="70" y1="10.5" x2="109.421" y2="28.513" gradientUnits="userSpaceOnUse"><stop stop-color="#BAA869"/><stop offset=".49" stop-color="#F0E5BE"/><stop offset="1" stop-color="#BAA869"/></linearGradient><linearGradient id="paint6_linear_10944_60776" x1="70" y1="10.5" x2="109.421" y2="28.513" gradientUnits="userSpaceOnUse"><stop stop-color="#BAA869"/><stop offset=".49" stop-color="#F0E5BE"/><stop offset="1" stop-color="#BAA869"/></linearGradient><linearGradient id="paint7_linear_10944_60776" x1="70" y1="10.5" x2="109.421" y2="28.513" gradientUnits="userSpaceOnUse"><stop stop-color="#BAA869"/><stop offset=".49" stop-color="#F0E5BE"/><stop offset="1" stop-color="#BAA869"/></linearGradient><clipPath id="clip0_10944_60776"><path fill="#fff" d="M0 0h175v152H0z"/></clipPath></defs></svg>