<svg width="122" height="109" fill="none" xmlns="http://www.w3.org/2000/svg"><g clip-path="url(#clip0_10944_62664)"><path d="M44.316 12.471h45.076a7.674 7.674 0 016.648 3.85L118.576 55.5a7.72 7.72 0 010 7.704L96.04 102.383a7.674 7.674 0 01-6.648 3.85H44.316a7.674 7.674 0 01-6.648-3.85L15.132 63.204a7.719 7.719 0 010-7.704l22.536-39.18a7.674 7.674 0 016.648-3.849z" fill="#FFCFDC"/><path d="M44.316 12.471h45.076a7.674 7.674 0 016.648 3.85L118.576 55.5a7.72 7.72 0 010 7.704L96.04 102.383a7.674 7.674 0 01-6.648 3.85H44.316a7.674 7.674 0 01-6.648-3.85L15.132 63.204a7.719 7.719 0 010-7.704l22.536-39.18a7.674 7.674 0 016.648-3.849z" fill="url(#paint0_linear_10944_62664)"/><path d="M40.601 105.887a5.997 5.997 0 003.017.813h46.976a6.03 6.03 0 005.223-3.027l10.279-18.28M40.895 13.59a6.03 6.03 0 00-2.5 2.374l-23.49 40.828a6.076 6.076 0 000 6.05l19.202 33.381m78.942-22.51l6.252-10.867a6.078 6.078 0 000-6.05l-23.49-40.829a6.024 6.024 0 00-5.224-3.027H54.194" stroke="#221A15" stroke-width="2" stroke-linecap="round" stroke-linejoin="round"/><path d="M48.275 34.971c.52 0 1.005.15 1.455.45.46.3.83.705 1.11 1.215.28.51.42 1.08.42 1.71 0 .62-.14 1.185-.42 1.695-.28.51-.65.92-1.11 1.23-.45.3-.935.45-1.455.45h-2.76l.15-.27v3.105c0 .26-.08.48-.24.66a.825.825 0 01-.63.255.807.807 0 01-.615-.255.958.958 0 01-.24-.66v-8.67a.898.898 0 01.915-.915h3.42zm0 5.04c.19 0 .375-.08.555-.24.18-.16.33-.365.45-.615a1.912 1.912 0 000-1.62c-.12-.25-.27-.45-.45-.6-.18-.16-.365-.24-.555-.24h-2.79l.18-.27v3.825l-.165-.24h2.775zm14.963.21a5.8 5.8 0 01-.375 2.1 5.369 5.369 0 01-1.065 1.725c-.45.49-.99.875-1.62 1.155-.62.28-1.3.42-2.04.42s-1.42-.14-2.04-.42a5.05 5.05 0 01-1.62-1.155 5.51 5.51 0 01-1.05-1.725 5.8 5.8 0 01-.375-2.1c0-.75.125-1.45.375-2.1.25-.65.6-1.22 1.05-1.71.46-.5 1-.89 1.62-1.17.62-.28 1.3-.42 2.04-.42s1.42.14 2.04.42c.63.28 1.17.67 1.62 1.17.46.49.815 1.06 1.065 1.71a5.8 5.8 0 01.375 2.1zm-1.95 0c0-.67-.135-1.275-.405-1.815-.27-.55-.64-.985-1.11-1.305-.47-.32-1.015-.48-1.635-.48-.62 0-1.165.16-1.635.48-.47.32-.84.75-1.11 1.29-.26.54-.39 1.15-.39 1.83 0 .67.13 1.28.39 1.83.27.54.64.97 1.11 1.29.47.32 1.015.48 1.635.48.62 0 1.165-.16 1.635-.48.47-.32.84-.75 1.11-1.29.27-.55.405-1.16.405-1.83zm6.147 4.335c0 .26-.095.48-.285.66a.96.96 0 01-.66.255c-.28 0-.505-.085-.675-.255a.925.925 0 01-.255-.66v-8.67c0-.26.09-.475.27-.645.18-.18.41-.27.69-.27.24 0 .45.09.63.27.19.17.285.385.285.645v8.67zm10.82-9.585c.24 0 .435.08.585.24.15.16.225.36.225.6v8.745a.898.898 0 01-.915.915c-.13 0-.265-.02-.405-.06a.745.745 0 01-.3-.195l-5.895-7.485.39-.24v7.14c0 .24-.08.44-.24.6-.15.16-.35.24-.6.24a.765.765 0 01-.585-.24.843.843 0 01-.225-.6v-8.745a.898.898 0 01.915-.915c.14 0 .285.03.435.09.15.05.26.13.33.24l5.715 7.29-.255.18v-6.96c0-.24.075-.44.225-.6.15-.16.35-.24.6-.24zm7.22 10.5a.964.964 0 01-.69-.255.898.898 0 01-.27-.66v-8.7h1.95v8.7c0 .26-.094.48-.284.66-.18.17-.415.255-.705.255zm-3.314-8.775c-.26 0-.48-.08-.66-.24a.825.825 0 01-.255-.63c0-.26.085-.465.255-.615.18-.16.4-.24.66-.24h6.66c.26 0 .475.08.645.24.18.16.27.37.27.63s-.09.47-.27.63a.939.939 0 01-.645.225h-6.66zM57.944 82.911c-2.523 0-4.665-.66-6.425-1.98-1.73-1.35-3.05-3.212-3.96-5.588-.909-2.405-1.363-5.163-1.363-8.272 0-3.139.454-5.896 1.364-8.272.909-2.376 2.229-4.224 3.96-5.544 1.76-1.35 3.9-2.024 6.423-2.024s4.65.675 6.38 2.024c1.76 1.32 3.095 3.168 4.005 5.544.909 2.376 1.364 5.133 1.364 8.272 0 3.11-.455 5.867-1.364 8.272-.91 2.376-2.245 4.239-4.005 5.588-1.73 1.32-3.857 1.98-6.38 1.98zm0-5.28c1.231 0 2.287-.381 3.167-1.144.91-.792 1.614-1.965 2.113-3.52.498-1.584.748-3.55.748-5.896 0-2.376-.25-4.341-.748-5.896-.5-1.554-1.203-2.713-2.112-3.476-.88-.792-1.937-1.188-3.169-1.188a4.677 4.677 0 00-3.167 1.188c-.91.763-1.614 1.922-2.113 3.476-.498 1.555-.747 3.52-.747 5.896 0 2.347.249 4.312.748 5.896.498 1.555 1.202 2.728 2.111 3.52.91.763 1.966 1.144 3.169 1.144zm23.99 4.84c-.82 0-1.495-.25-2.023-.748-.528-.528-.792-1.173-.792-1.936V57.611l.616.968-3.212 2.376c-.41.323-.924.484-1.54.484-.704 0-1.32-.264-1.848-.792a2.582 2.582 0 01-.792-1.892c0-.939.455-1.701 1.364-2.288l6.336-4.224a2.9 2.9 0 01.968-.44 4.72 4.72 0 011.056-.132c.85 0 1.525.264 2.024.792.499.499.748 1.13.748 1.892v25.432c0 .763-.279 1.408-.836 1.936-.528.499-1.217.748-2.068.748z" fill="#EB537B"/><g clip-path="url(#clip1_10944_62664)" fill="#FFE236" stroke="#000" stroke-linecap="round" stroke-linejoin="round"><path d="M1 11.971c6.335 1.932 7.752 3.502 9.5 10.5 1.748-6.998 3.165-8.568 9.5-10.5-6.335-1.932-7.752-3.501-9.5-10.5C8.752 8.47 7.335 10.04 1 11.971zm12 16.5c3.669 1.102 4.488 2.002 5.5 6 1.012-3.998 1.831-4.898 5.5-6-3.669-1.107-4.488-2.002-5.5-6-1.012 3.998-1.831 4.893-5.5 6z"/></g></g><defs><clipPath id="clip0_10944_62664"><path fill="#fff" transform="translate(0 .471)" d="M0 0h122v108H0z"/></clipPath><clipPath id="clip1_10944_62664"><path fill="#fff" transform="matrix(-1 0 0 1 25 .471)" d="M0 0h25v35H0z"/></clipPath><linearGradient id="paint0_linear_10944_62664" x1="25.5" y1="4.971" x2="47.173" y2="117.401" gradientUnits="userSpaceOnUse"><stop stop-color="#FFD8E8"/><stop offset=".5" stop-color="#FFCABA"/><stop offset="1" stop-color="#FFEF9B"/></linearGradient></defs></svg>