<svg width="66" height="186" fill="none" xmlns="http://www.w3.org/2000/svg"><g clip-path="url(#clip0_11089_247693)"><path d="M33.103 61.957c15.81 0 28.627-12.817 28.627-28.627 0-15.81-12.817-28.627-28.627-28.627-15.81 0-28.626 12.817-28.626 28.627 0 15.81 12.816 28.627 28.626 28.627z" fill="#F4A0B6"/><path d="M33.103 61.957c15.81 0 28.627-12.817 28.627-28.627 0-15.81-12.817-28.627-28.627-28.627-15.81 0-28.626 12.817-28.626 28.627 0 15.81 12.816 28.627 28.626 28.627z" fill="url(#paint0_linear_11089_247693)" fill-opacity=".5"/><path d="M33.103 65.336c17.676 0 32.005-14.329 32.005-32.005 0-17.676-14.33-32.005-32.005-32.005-17.676 0-32.005 14.33-32.005 32.005 0 17.676 14.329 32.005 32.005 32.005z" stroke="#221A15" stroke-width=".75" stroke-linecap="round" stroke-linejoin="round"/><path d="M27.585 44.029h1.02v3.11h-1.02v-3.11zm0 3.64h1.02v2.54h-1.02v-2.54zm-2.67-.42h6.49v3.55h-1.06v-2.81h-4.42v2.83h-1.01v-3.57zm-1.22-2h8.87v.88h-8.87v-.88zm1.82 3.3h5.32v.66h-5.32v-.66zm0 1.25h5.32v.75h-5.32v-.75zm4.94-6.46l.56.73c-.38.06-.8.113-1.26.16-.46.046-.94.086-1.44.12-.493.033-.99.06-1.49.08-.5.013-.98.023-1.44.03a1.958 1.958 0 00-.09-.37 5.555 5.555 0 00-.13-.37 116.887 116.887 0 002.85-.12 33.198 33.198 0 002.44-.26zm-3.38 2.08l.82.39a7.16 7.16 0 01-.79.75c-.3.24-.62.47-.96.69a10.742 10.742 0 01-2.11 1.02c-.053-.08-.12-.17-.2-.27a3.489 3.489 0 00-.24-.31 5.033 5.033 0 00-.24-.26c.46-.127.923-.294 1.39-.5a9.78 9.78 0 001.31-.7c.413-.26.753-.53 1.02-.81zm2.02-.02c.267.266.603.523 1.01.77.407.24.85.453 1.33.64.48.18.96.323 1.44.43a5.03 5.03 0 00-.67.85 9.53 9.53 0 01-1.45-.56 9.45 9.45 0 01-1.35-.82c-.42-.307-.78-.63-1.08-.97l.77-.34zm-4.02-.87l.92-.19c.107.146.2.31.28.49.087.18.147.34.18.48l-.96.23a3.095 3.095 0 00-.17-.49 3.141 3.141 0 00-.25-.52zm5.13-.31l1.08.27c-.133.213-.263.416-.39.61-.127.193-.243.36-.35.5l-.84-.27c.087-.16.177-.344.27-.55.1-.214.177-.4.23-.56zm-2.62-2.7h1.08v1.34h-1.08v-1.34zm-3.76.71h8.59v1.94h-1.04v-1.03h-6.55v1.03h-1v-1.94zm9.78 7.49h9.05v.94h-9.05v-.94zm2.18-2.52h4.67v.75h-4.67v-.75zm0 1.25h4.67v.75h-4.67v-.75zm-.51-2.62h5.73v4.4h-1.11v-3.52h-3.57v3.56h-1.05v-4.44zm-1.61-3.16h8.93v.93h-8.93v-.93zm3.89-1.16h1.07v4.04h-1.07v-4.04zm-.52 1.46l.88.34a6.987 6.987 0 01-.75.95c-.287.306-.6.593-.94.86-.333.26-.683.496-1.05.71-.36.206-.73.383-1.11.53a3.685 3.685 0 00-.31-.44 2.34 2.34 0 00-.36-.39 8.125 8.125 0 002.08-1.06c.32-.227.613-.464.88-.71a4.97 4.97 0 00.68-.79zm2.06.01c.187.266.417.523.69.77.28.246.583.476.91.69a8.27 8.27 0 002.14 1.01c-.073.06-.157.143-.25.25-.087.106-.17.213-.25.32a4.314 4.314 0 00-.19.3 8.783 8.783 0 01-1.14-.53 9.098 9.098 0 01-1.06-.7 10.2 10.2 0 01-.94-.83c-.287-.3-.54-.614-.76-.94l.85-.34z" fill="#221A15"/><g clip-path="url(#clip1_11089_247693)"><path d="M40.935 14.934h-15.77v22.134h15.77V14.934z" fill="#fff"/><path d="M40.936 37.069v-.25h-15.52V15.184h15.27v21.885h.501V14.934a.25.25 0 00-.25-.25H25.164a.25.25 0 00-.251.25v22.134a.25.25 0 00.251.249h15.771a.25.25 0 00.251-.25h-.25z" fill="#4C423D"/><path d="M29.85 19.102v-.249h-2.483v-2.214H29.6v2.463h.502V16.39a.25.25 0 00-.252-.25h-2.733a.25.25 0 00-.251.25v2.712a.25.25 0 00.251.25h2.733a.25.25 0 00.251-.249h-.25zm0 4.129v-.25h-2.483v-2.213H29.6v2.463h.502v-2.712a.25.25 0 00-.252-.25h-2.733a.25.25 0 00-.251.25v2.712a.25.25 0 00.251.25h2.733a.25.25 0 00.251-.25h-.25zm0 4.129v-.25h-2.483v-2.213H29.6v2.463h.502v-2.712a.25.25 0 00-.252-.25h-2.733a.25.25 0 00-.251.25v2.712a.25.25 0 00.251.249h2.733a.25.25 0 00.251-.25h-.25zm0 4.127v-.25h-2.483v-2.213H29.6v2.463h.502v-2.712a.25.25 0 00-.252-.25h-2.733a.25.25 0 00-.251.25v2.712a.25.25 0 00.251.249h2.733a.25.25 0 00.251-.25h-.25zm0 4.127v-.25h-2.483v-2.213H29.6v2.463h.502V32.9a.25.25 0 00-.252-.249h-2.733a.25.25 0 00-.251.25v2.712a.25.25 0 00.251.249h2.733a.25.25 0 00.251-.25h-.25zm9.134-18.116h-7.987a.25.25 0 00-.25.25c0 .137.111.248.25.248h7.987a.25.25 0 00.251-.249.25.25 0 00-.25-.249zm0 4.127h-7.987a.25.25 0 00-.25.25.25.25 0 00.25.248h7.987a.25.25 0 00.251-.249.25.25 0 00-.25-.249zm-4.894 4.129h-3.093a.25.25 0 00-.25.249.25.25 0 00.25.249h3.094a.25.25 0 00.25-.249.25.25 0 00-.25-.25zm1.102 4.126h-4.195a.25.25 0 00-.25.25.25.25 0 00.25.249h4.195a.25.25 0 00.25-.25.25.25 0 00-.25-.248zm3.792 4.128h-7.987a.25.25 0 00-.25.249.25.25 0 00.25.249h7.987a.25.25 0 00.251-.25.25.25 0 00-.25-.248z" fill="#4C423D"/><path d="M27.44 17.723l.56.67a.253.253 0 00.357.03l1.141-.973a.248.248 0 00.027-.352.252.252 0 00-.354-.026l-.947.808-.397-.475a.252.252 0 00-.353-.033.248.248 0 00-.034.35zm0 4.129l.56.67a.254.254 0 00.357.03l1.141-.974a.248.248 0 00.027-.35.252.252 0 00-.354-.027l-.947.808-.397-.475a.252.252 0 00-.353-.033.248.248 0 00-.034.35zm0 4.125l.56.67a.254.254 0 00.357.03l1.141-.974a.248.248 0 00.027-.35.252.252 0 00-.354-.027l-.947.808-.397-.475a.252.252 0 00-.353-.033.248.248 0 00-.034.35zm9.347 1.338l2.074-.178c-.016.502-1.015 1.301-1.272 1.29l-.704-.787s-.028-.135-.098-.325z" fill="#F090A9"/><path d="M36.79 27.314l.022.248 2.073-.179-.021-.248-.251-.008a.327.327 0 01-.03.111.911.911 0 01-.079.146 1.98 1.98 0 01-.238.291c-.14.145-.305.28-.443.375a1.381 1.381 0 01-.179.104.395.395 0 01-.057.023h-.002l.002.01-.002-.01.002.01-.002-.01.012.078v-.079l-.012.001.012.078v-.079.107l.005-.107h-.005v.107l.005-.107h-.01v.25l.187-.166-.704-.786-.188.165.246-.05a2.745 2.745 0 00-.107-.36l-.236.085-.236.085a2.67 2.67 0 01.083.273l.004.014v.003l.13-.026-.13.026a.25.25 0 00.059.116l.704.786a.252.252 0 00.188.084v-.25l-.01.25h.015a.46.46 0 00.124-.018.806.806 0 00.1-.035c.06-.026.122-.059.185-.097a2.94 2.94 0 00.348-.251 3.15 3.15 0 00.496-.51c.07-.095.132-.191.18-.293.023-.051.043-.103.058-.158a.739.739 0 00.027-.17.248.248 0 00-.079-.188.252.252 0 00-.194-.067l-2.073.178a.248.248 0 00-.214.333l.235-.085z" fill="#4C423D"/><path d="M38.48 26.332l-1.652.142a3.836 3.836 0 01.088-.04l.025-.01.012-.006a5 5 0 00.038-.016l.013-.006.009-.004.032-.014c.078-.034.163-.073.249-.116l.014-.007a.269.269 0 00.015-.007l.03-.017.014-.007.015-.008.015-.008.014-.008a.465.465 0 00.016-.01l.013-.006.075-.046.014-.009.028-.018.013-.01.015-.01.013-.009.014-.01.002-.002.011-.007.015-.012.011-.008.026-.02.012-.011a.802.802 0 00.199-.237l.594.557h-.002z" fill="#F090A9"/><path d="M38.48 26.331l-.022-.248-1.652.142.022.248.106.226.074-.033h-.001a.713.713 0 01.01-.004h.001a.467.467 0 01.022-.01h.002a.311.311 0 01.011-.006l.04-.017-.003.001.014-.006.007-.003h.001l.034-.015c.08-.036.169-.076.26-.122h.002l.013-.007h.001a.93.93 0 01.017-.01l-.002.002.035-.019-.12-.219.116.221a.756.756 0 00.02-.01l-.122-.218.12.22.016-.01a.708.708 0 01.016-.009l.016-.008.017-.01.014-.008.084-.05h-.001l.017-.01v-.001l.032-.021.015-.01.001-.001.015-.01.002-.002a.344.344 0 00.014-.01l.017-.012h-.001.003-.001l.014-.011h-.001l.018-.013-.154-.197.152.198.017-.012-.157-.195.155.196.031-.025-.002.001.015-.012.003-.002.015-.013h-.001c.094-.082.18-.179.243-.297l-.223-.116-.172.181.593.557.172-.181.173-.181-.594-.557a.252.252 0 00-.395.066.555.555 0 01-.13.154v.001l-.01.009.164.188-.162-.19a.23.23 0 01-.009.007l-.002.002-.02.016-.002.001a.134.134 0 01-.006.005l-.002.001-.011.01h-.001l-.008.006-.003.002-.011.008-.013.009.146.203-.144-.204-.015.01h.001l-.01.006-.026.017h.001l-.01.007h-.002a1.697 1.697 0 01-.067.041l-.01.006a.267.267 0 01-.017.01v-.001l-.01.006a.424.424 0 00-.017.01l-.01.005h-.002l-.009.005-.003.002-.028.015h-.002l-.013.007h.001l-.014.007h.001c-.08.04-.16.076-.236.11a.956.956 0 00-.031.013.346.346 0 00-.021.009h-.002l-.038.017-.013.006.001-.001a1.57 1.57 0 01-.026.011l-.007.003h-.001l-.084.038a.248.248 0 00.128.474l1.652-.142a.25.25 0 00.216-.166.247.247 0 00-.065-.263l-.173.181v.001z" fill="#4C423D"/><path d="M44.58 32.727l.532 1.386-4.673 1.767-.533-1.386.477-.18 3.707-1.402.49-.185z" fill="#EB537B"/><path d="M44.58 32.725l-.234.089.443 1.154-4.204 1.59-.354-.922.242-.091 3.707-1.402.49-.185-.09-.233-.089-.233-.49.186-3.706 1.401-.477.18a.249.249 0 00-.145.322l.532 1.387a.252.252 0 00.324.144l4.674-1.767a.248.248 0 00.145-.321l-.533-1.387a.25.25 0 00-.324-.144l.09.232z" fill="#4C423D"/><path d="M43.785 32.115l.306.795-3.708 1.402-.305-.795.285-.108 2.942-1.112.48-.182z" fill="#fff"/><path d="M43.786 32.116l-.234.089.216.562-3.239 1.224-.126-.33.05-.018 2.942-1.113.48-.181-.089-.233-.089-.233-.48.182-2.942 1.112-.285.108a.248.248 0 00-.145.322l.305.795c.05.128.194.193.324.144l3.707-1.402a.248.248 0 00.145-.321l-.305-.795a.252.252 0 00-.324-.145l.09.233z" fill="#4C423D"/><path d="M35.474 26.1c.36.026.635.198.842.417.237.252.385.566.47.799.07.19.097.325.097.325l.705.786c.257.012 1.256-.787 1.272-1.29l2.98-.256.158-.013c.066.314.14.708.249 1.193l.059.26a.695.695 0 00.006.026l.025.109.007.032.021.09.008.033.044.187.013.054.024.098.01.043.001.005.029.117.012.052.01.038.007.032a57.68 57.68 0 00.073.298l.015.06.003.013.011.045.016.062.022.09.045.18.008.03.111.442.027.105.023.091.014.056.014.056.021.082.007.026.007.027.023.09.01.036c0 .007.002.013.004.02l.02.075.023.09.012.048.007.026.081.316c.11.423.183.697.183.697l-2.942 1.112-.07-.212a.661.661 0 00-.341-.39l-2.562-1.232a1.564 1.564 0 01-.676-.624l-1.517-2.618a1.02 1.02 0 01-.094-.217l-.191-.64-.245-.817-.004-.012a.387.387 0 01.266-.483c.2-.057.382-.076.546-.064z" fill="#fff"/><path d="M35.477 26.1l-.019.248a.95.95 0 01.38.108c.11.058.21.138.297.231.101.107.186.231.256.356a2.56 2.56 0 01.245.63l.003.014v.003l.13-.026-.13.026a.25.25 0 00.06.116l.704.786a.252.252 0 00.187.084v-.249l-.01.249h.016a.46.46 0 00.124-.018.805.805 0 00.1-.035 1.52 1.52 0 00.185-.097 3.18 3.18 0 00.844-.762c.07-.093.132-.19.18-.292.023-.051.043-.103.058-.158a.739.739 0 00.026-.17l-.25-.007.021.248 2.98-.256.158-.014-.021-.248-.246.05c.065.311.14.707.25 1.197l.059.261.006.027.025.11.008.033v-.001l.021.09.008.034.044.186.013.054.024.1v-.001l.01.043v.004l.03.12.012.05v.002l.01.037v-.001a.603.603 0 00.007.033l.016.062.058.236.014.06.003.011v.002l.012.045.015.063v-.001l.023.09.045.18.007.031.112.443.026.105.023.091.015.056.014.055.02.082.008.028.243-.062-.244.06.008.028.023.09.009.036a.612.612 0 01.005.02l.02.075.022.09v-.001l.013.05v-.002l.007.027.081.316c.11.424.183.698.183.698l.243-.063-.09-.233-2.941 1.113.09.232.238-.077-.07-.212a.91.91 0 00-.47-.536L37.5 31.35a1.313 1.313 0 01-.567-.524l-1.517-2.617a.76.76 0 01-.071-.165l-.192-.64-.245-.817-.004-.012a.138.138 0 01.095-.172 1.389 1.389 0 01.46-.055l.017-.248.018-.248a1.88 1.88 0 00-.634.073.641.641 0 00-.463.611c0 .06.008.122.026.182l.004.012.245.818.191.64c.029.094.068.184.117.27l1.518 2.617c.181.314.455.566.783.724l2.562 1.233a.41.41 0 01.213.242l.07.212a.252.252 0 00.328.155l2.941-1.111a.25.25 0 00.154-.296l-.013-.05-.17-.646-.081-.315-.006-.024v-.003l-.013-.048-.023-.09-.02-.075-.005-.02v.002l-.009-.037-.023-.09a2.722 2.722 0 00-.006-.024l-.001-.003a5.128 5.128 0 00-.007-.026l-.02-.082-.014-.055-.014-.055-.024-.092a7.103 7.103 0 01-.026-.104l-.112-.442v-.001a.903.903 0 01-.007-.028v-.001l-.045-.18-.022-.09-.016-.063v.001l-.01-.044v.002l-.004-.016-.015-.06-.058-.235a18.333 18.333 0 00-.022-.093v-.002a1.094 1.094 0 01-.01-.037l-.012-.051c-.01-.04-.02-.078-.028-.118v.001l-.001-.004v-.001l-.01-.043-.024-.099a80.455 80.455 0 00-.057-.24 1.284 1.284 0 01-.036-.154l-.026-.108-.006-.027-.058-.257c-.107-.482-.181-.873-.248-1.19a.25.25 0 00-.267-.198l-.159.014-2.98.256a.25.25 0 00-.229.24.326.326 0 01-.029.111.908.908 0 01-.08.146 2.03 2.03 0 01-.238.29c-.14.146-.304.282-.443.375a1.372 1.372 0 01-.178.105.404.404 0 01-.052.021l-.006.002h-.002l.002.01-.001-.01.001.01-.001-.01.012.078v-.079l-.012.001.012.078v-.079.117l.005-.117h-.005v.117l.005-.117h-.01v.25l.187-.166-.705-.786-.187.165.246-.05a3.077 3.077 0 00-.301-.788 2.276 2.276 0 00-.329-.456 1.644 1.644 0 00-.43-.33 1.453 1.453 0 00-.577-.164l-.018.248h-.002z" fill="#4C423D"/><path d="M42.929 26.389c.02.24-.08.406-.223.418-.141.013-.27-.133-.291-.374-.021-.24.077-.446.219-.458.141-.012.273.173.294.414z" fill="#FFCFDC"/><path d="M42.928 26.39l-.25.02a.447.447 0 01-.007.12.139.139 0 01-.012.032l-.006.01.025.024-.015-.03a.04.04 0 00-.01.006l.025.024-.015-.03.026.053-.005-.06a.061.061 0 00-.022.006l.027.054-.005-.06.005.057v-.057h-.005l.005.057v-.057.052l.026-.046a.056.056 0 00-.026-.006v.052l.026-.046-.01.017.011-.016h-.001l-.01.016.01-.016-.003.006.004-.005-.004.005.004-.005-.001-.002a.135.135 0 01-.027-.043.38.38 0 01-.026-.153.422.422 0 01.026-.14.105.105 0 01.01-.02l.002-.002h.001l-.033-.033.02.041a.05.05 0 00.013-.008l-.033-.032.02.04-.042-.081.008.09a.088.088 0 00.035-.009l-.043-.081.008.09-.008-.098v.099h.008l-.008-.099v.099-.089l-.029.085a.096.096 0 00.029.004v-.089l-.029.085.017-.05-.028.044a.05.05 0 00.011.006l.017-.05-.028.044.006-.01-.007.01h.001l.007-.01-.008.01s.006.004.013.013a.27.27 0 01.036.07c.011.033.02.071.024.114l.25-.022.25-.022a.96.96 0 00-.045-.22.811.811 0 00-.066-.147.603.603 0 00-.16-.184.42.42 0 00-.579.056.56.56 0 00-.077.11.724.724 0 00-.069.184.908.908 0 00-.018.29.9.9 0 00.045.216c.036.1.09.192.17.264.04.036.088.066.14.088a.448.448 0 00.208.032.446.446 0 00.32-.177.59.59 0 00.103-.2.8.8 0 00.027-.311l-.25.021h.001z" fill="#4C423D"/><path d="M42.705 26.808l-.706.061-.158.014c-.142.012-.27-.133-.291-.374-.021-.241.077-.446.219-.458l.863-.074c-.142.012-.24.217-.218.458.02.24.15.386.291.374z" fill="#FFCFDC"/><path d="M42.707 26.808l-.022-.248-.706.06-.158.014.005.056v-.056h-.004l.004.056v-.056.051l.026-.045a.057.057 0 00-.026-.006v.051l.026-.045-.01.016.012-.016h-.002l-.01.016.012-.016-.004.006.004-.005-.004.005.004-.005-.002-.002a.135.135 0 01-.026-.044.378.378 0 01-.026-.152.423.423 0 01.026-.14.103.103 0 01.01-.02l.003-.002-.033-.033.02.04a.047.047 0 00.013-.008l-.033-.032.021.04-.042-.08.008.09a.092.092 0 00.034-.01l-.042-.08.007.09.864-.074a.25.25 0 00.14-.439.256.256 0 00-.183-.058.447.447 0 00-.282.144.563.563 0 00-.078.111.718.718 0 00-.069.185.907.907 0 00-.018.289.89.89 0 00.045.216.63.63 0 00.17.264.448.448 0 00.346.12.25.25 0 00.142-.439.25.25 0 00-.183-.057l.021.248-.02-.248.004.053v-.053h-.005l.005.053v-.053.052l.026-.046a.056.056 0 00-.026-.006v.052l.026-.046-.01.016.011-.016h-.001l-.01.016.011-.016-.003.006.003-.005-.003.005.004-.005-.002-.002a.137.137 0 01-.026-.044.471.471 0 01-.016-.245.242.242 0 01.026-.067l.002-.003-.033-.032.021.04a.05.05 0 00.012-.008l-.033-.032.021.04-.042-.08.008.09a.09.09 0 00.034-.01l-.042-.08.008.09a.25.25 0 00.228-.27.25.25 0 00-.272-.227l-.863.075a.449.449 0 00-.282.144.564.564 0 00-.079.11.722.722 0 00-.068.185.907.907 0 00-.018.288c.006.077.021.15.045.217.036.101.09.193.17.265.04.035.087.066.14.087a.447.447 0 00.207.033l.159-.014.705-.06a.25.25 0 10-.042-.497l.02.248zm.076 2.432l-.014-.061a.251.251 0 00-.488.117l.015.062a.25.25 0 00.487-.118l-.014-.061a.251.251 0 00-.488.117l.015.062a.25.25 0 00.487-.118z" fill="#4C423D"/><path d="M42.469 28.998l.028.118-.028-.118z" fill="#fff"/><path d="M42.466 28.997l-.244.058.028.118a.252.252 0 00.458.072.25.25 0 00.03-.188l-.028-.118a.25.25 0 00-.488.116l.244-.058-.244.058.029.119a.252.252 0 00.458.071.249.249 0 00.03-.188l-.029-.117a.251.251 0 00-.488.116l.244-.059z" fill="#4C423D"/><path d="M42.457 28.95l.01.042a4.422 4.422 0 01-.01-.043z" fill="#fff"/><path d="M42.455 28.95l-.245.058.01.043a.252.252 0 00.459.073.248.248 0 00.03-.188l-.01-.043a.251.251 0 00-.489.114l.01.044a.251.251 0 00.489-.115l-.01-.043a.251.251 0 00-.49.114l.245-.057z" fill="#4C423D"/><path d="M42.367 28.58l.008.033-.008-.033z" fill="#fff"/><path d="M42.368 28.579l-.244.057.008.033a.252.252 0 00.458.074.25.25 0 00.03-.188 3.91 3.91 0 01-.007-.032.25.25 0 00-.49.113l.009.034a.252.252 0 00.458.073.249.249 0 00.03-.188 2.496 2.496 0 01-.007-.032.25.25 0 00-.489.113l.245-.056v-.001z" fill="#4C423D"/><path d="M42.34 28.455l.007.033a2.257 2.257 0 00-.007-.033z" fill="#fff"/><path d="M42.094 28.512l.008.033a.251.251 0 00.489-.113 4.258 4.258 0 01-.008-.031.251.251 0 00-.489.11l.008.034a.251.251 0 00.489-.113 4.258 4.258 0 01-.008-.031.251.251 0 00-.489.11z" fill="#4C423D"/><path d="M41.75 26.052l.02-.001c-.142.012-.24.217-.22.458.022.24.15.386.292.374l-2.98.256-2.074.178a2.368 2.368 0 00-.47-.798l.51-.044 1.652-.142 3.27-.281z" fill="#FFCFDC"/><path d="M41.749 26.05l.021.248.02-.001a.25.25 0 00.228-.27.25.25 0 00-.272-.227.45.45 0 00-.282.144.555.555 0 00-.078.11.719.719 0 00-.068.186.92.92 0 00-.019.289v-.001a.89.89 0 00.046.217.63.63 0 00.17.264.447.447 0 00.346.12.25.25 0 00.23-.27.25.25 0 00-.271-.227l-2.981.257-2.074.178.022.248.236-.085a3.044 3.044 0 00-.194-.427 2.266 2.266 0 00-.329-.456l-.183.17.022.248.509-.043 1.652-.142 3.27-.282-.021-.248-.022-.248-3.27.281-1.652.142-.51.044a.248.248 0 00-.162.418c.102.107.187.232.256.357.07.125.123.25.162.357a.25.25 0 00.258.162l2.074-.178 2.98-.256a.25.25 0 10-.043-.496l.005.052v-.053h-.005l.005.053v-.053.052l.026-.046a.057.057 0 00-.026-.006v.052l.026-.046-.01.017.011-.016h-.001l-.01.016.011-.016-.003.005.003-.005-.003.005.004-.005-.002-.001a.137.137 0 01-.026-.044.38.38 0 01-.025-.11.519.519 0 01.008-.136.253.253 0 01.026-.067l.002-.002h.001l-.033-.033.02.04a.047.047 0 00.013-.008l-.033-.032.02.04-.042-.08.008.09a.088.088 0 00.035-.01l-.043-.08.008.09a.25.25 0 00.229-.27.25.25 0 00-.272-.226l-.02.002.022.248z" fill="#4C423D"/><path d="M40.108 25.385c.423.202 1 .422 1.3.448a.414.414 0 01.342.218l-3.27.281-.594-.556-.186.226-.013.01-.012.01a.765.765 0 01-.026.02l-.011.01-.015.01a.375.375 0 01-.01.009l-.003.002-.014.01a1.134 1.134 0 01-.028.02l-.013.008-.028.018a3.366 3.366 0 01-.09.055l-.012.007-.017.01-.013.007-.016.009a.603.603 0 01-.027.014l-.032.017-.015.008-.014.006a5.168 5.168 0 01-.29.134l-.012.006-.038.017a.898.898 0 00-.037.016c-.003 0-.006.002-.009.004l-.079.035-.51.044a1.262 1.262 0 00-.841-.417l2.534-2.006a.455.455 0 01.532-.017c.409.276 1.12.798 1.566 1.307z" fill="#fff"/><path d="M40.109 25.385l-.109.224c.22.105.476.213.72.3.123.044.242.082.354.112.055.015.11.028.161.038.052.01.102.018.151.022.023.002.04.006.052.01a.12.12 0 01.046.025.258.258 0 01.052.064l.215-.13-.022-.247-3.158.271-.512-.48a.251.251 0 00-.367.024l-.186.226.194.158-.167-.186-.01.008.165.188-.162-.19a.352.352 0 01-.03.025l-.005.003-.001.001-.005.004-.011.01h-.002l-.009.007h.002-.003l-.011.009-.013.009.146.203-.144-.205-.015.01.144.205-.142-.206a.273.273 0 00-.01.008h-.001l-.026.017h.001a1.697 1.697 0 01-.091.055l.002-.002a.512.512 0 00-.043.024l.122.218-.12-.219-.013.007-.002.001-.01.005-.002.002-.028.014-.002.001-.013.007h.001l-.014.006h.001c-.08.04-.16.076-.236.11a.956.956 0 00-.031.014v-.001a.151.151 0 01-.01.005l-.01.003-.003.002c-.012.005-.025.01-.038.017l.101.228-.098-.23-.016.007h.001l-.026.01.102.228-.098-.229-.011.005h-.002l-.083.038.106.225-.022-.248-.509.044.022.248.183-.17a1.639 1.639 0 00-.429-.33 1.45 1.45 0 00-.578-.165l-.018.248.157.195 2.534-2.006-.157-.195.154.197a.2.2 0 01.237-.008c.2.135.475.331.752.554.278.223.558.474.766.71a.25.25 0 00.08.062l.109-.225.19-.163a6.754 6.754 0 00-.829-.771 12.178 12.178 0 00-.786-.579.707.707 0 00-.827.026l-.003.002-2.534 2.006a.249.249 0 00.138.444.95.95 0 01.38.107c.11.058.21.138.297.231a.252.252 0 00.206.078l.509-.044a.25.25 0 00.084-.022l.075-.033h-.002l.006-.002h.001l.004-.003.023-.01h.001l.009-.004.003-.001.039-.017-.102-.228.098.23a.38.38 0 01.015-.007l.007-.003h.001l.034-.015c.08-.036.169-.076.26-.122h.002l.013-.007h.001l.017-.01-.002.001.035-.018-.12-.219.117.22a.437.437 0 00.018-.009l-.12-.218.118.22.015-.009.003-.001a.364.364 0 00.015-.009l.016-.009.017-.01h.002a2.231 2.231 0 00.097-.058h-.001l.016-.01.032-.021.014-.01.002-.001.015-.01.002-.002a.29.29 0 00.03-.021l.002-.002.002-.001a.25.25 0 00.012-.01l-.001.002.018-.014.016-.013-.159-.193.156.196.03-.025.014-.011.002-.002.015-.014a.204.204 0 00.028-.028l.015-.019.398.373a.252.252 0 00.194.067l3.27-.282a.252.252 0 00.202-.135.247.247 0 00-.01-.242.796.796 0 00-.096-.13.64.64 0 00-.438-.206.98.98 0 01-.097-.015 2.443 2.443 0 01-.24-.062 6.901 6.901 0 01-.876-.348l-.108.225z" fill="#4C423D"/><path d="M37.701 26.001l.186-.226a.8.8 0 01-.186.226z" fill="#fff"/><path d="M37.7 26.002l.195.158.186-.226-.194-.158-.223-.115a.555.555 0 01-.13.154l.166.187.166.187a1.04 1.04 0 00.243-.297.248.248 0 00-.084-.323.252.252 0 00-.333.05l-.186.226a.247.247 0 00.02.337c.095.09.242.093.34.007l-.166-.187z" fill="#4C423D"/><path d="M37.676 26.024l.012-.01-.012.01z" fill="#fff"/><path d="M37.676 26.02l.161.192.014-.011a.25.25 0 00-.14-.438.253.253 0 00-.184.057l-.01.008a.247.247 0 00-.034.351.25.25 0 00.354.033l-.16-.19.159.192.015-.013a.25.25 0 00-.14-.438.254.254 0 00-.195.067.248.248 0 00-.032.35c.087.105.245.12.352.034l-.159-.193z" fill="#4C423D"/><path d="M37.639 26.052l.011-.009-.011.009z" fill="#fff"/><path d="M37.637 26.051l.154.197.016-.013a.248.248 0 00.036-.35.253.253 0 00-.358-.032l.153.198.152.198.016-.013a.248.248 0 00-.132-.442.251.251 0 00-.184.055l-.002.002-.005.004a.248.248 0 00-.044.348.253.253 0 00.35.046l-.151-.198z" fill="#4C423D"/><path d="M37.613 26.07l.011-.008a.258.258 0 01-.01.009z" fill="#fff"/><path d="M37.612 26.072l.15.2a.25.25 0 00.11-.174.248.248 0 00-.215-.281.252.252 0 00-.186.049l-.007.005a.249.249 0 00.112.447.252.252 0 00.187-.047l-.15-.2.148.201.014-.01a.247.247 0 00.048-.349.253.253 0 00-.36-.04.248.248 0 00-.052.347c.082.11.239.134.35.053l-.148-.201z" fill="#4C423D"/><path d="M37.597 26.083l.146.202.016-.01a.248.248 0 00-.112-.448.251.251 0 00-.187.047l-.01.007a.248.248 0 00-.057.348.252.252 0 00.35.056c.006-.003.01-.007.017-.012a.248.248 0 00.052-.348.252.252 0 00-.35-.052l-.012.008a.248.248 0 00-.057.348.252.252 0 00.35.056l-.146-.202z" fill="#4C423D"/><path d="M37.729 26.294a.25.25 0 00.116-.173.25.25 0 00-.395-.242l-.013.009a.248.248 0 00-.058.347.252.252 0 00.364.048.25.25 0 00.102-.162.25.25 0 00-.395-.242l-.013.009a.248.248 0 00-.058.347c.08.113.237.139.35.059z" fill="#4C423D"/><path d="M37.557 26.11l.013-.008-.013.008z" fill="#fff"/><path d="M37.556 26.111l.14.207.014-.01a.248.248 0 00-.096-.45.252.252 0 00-.188.04l-.01.007a.248.248 0 00-.069.345.252.252 0 00.365.057.247.247 0 00.063-.345.252.252 0 00-.348-.065l-.01.008a.248.248 0 00-.07.345.252.252 0 00.349.068l-.14-.206z" fill="#4C423D"/><path d="M37.514 26.14l.014-.01-.014.01z" fill="#fff"/><path d="M37.515 26.139l.134.21.016-.01a.247.247 0 00-.085-.452.253.253 0 00-.199.041.248.248 0 00.079.454.25.25 0 00.19-.033l-.135-.21.133.21.017-.01a.248.248 0 00-.085-.452.253.253 0 00-.2.041.248.248 0 00-.077.344c.074.116.228.15.346.077l-.134-.21z" fill="#4C423D"/><path d="M37.426 26.19l.012-.006-.012.007z" fill="#fff"/><path d="M37.424 26.191l.127.215a.252.252 0 00.129-.159.25.25 0 00-.37-.278l-.01.006.125.216.124.217.014-.008a.25.25 0 10-.253-.43l-.012.006a.248.248 0 00-.09.34.25.25 0 00.341.092l-.124-.217z" fill="#4C423D"/><path d="M37.397 26.209l.122.218.016-.009a.25.25 0 00.094-.34.252.252 0 00-.343-.092l-.01.006a.248.248 0 00-.098.339c.068.12.22.163.342.096l.015-.008a.25.25 0 00.094-.34.252.252 0 00-.342-.093l-.011.007a.248.248 0 00-.098.338c.068.12.22.164.342.097l-.122-.218v-.001z" fill="#4C423D"/><path d="M37.365 26.224l.015-.007a.631.631 0 01-.015.007z" fill="#fff"/><path d="M37.366 26.225l.119.22a.63.63 0 00.015-.008l-.12-.22-.122-.217-.01.006a.248.248 0 00-.103.337.252.252 0 00.357.092.248.248 0 00.098-.337.252.252 0 00-.34-.1l-.012.008a.248.248 0 00-.103.337.252.252 0 00.34.102l-.118-.22z" fill="#4C423D"/><path d="M37.352 26.234l.014-.007-.014.007z" fill="#fff"/><path d="M37.352 26.233l.117.22a.251.251 0 00.138-.158.25.25 0 00-.362-.287l-.008.004a.248.248 0 00.04.459c.065.02.133.013.192-.017l-.116-.221.115.221a.251.251 0 00.14-.159.25.25 0 00-.362-.288l-.01.005a.248.248 0 00-.106.336.25.25 0 00.338.106l-.115-.221z" fill="#4C423D"/><path d="M37.305 26.258l.015-.008-.015.008z" fill="#fff"/><path d="M37.306 26.257l.115.22a.251.251 0 00.14-.155.249.249 0 00-.166-.311.254.254 0 00-.191.018l-.014.006a.248.248 0 00-.107.336.252.252 0 00.355.098.249.249 0 00-.043-.458.253.253 0 00-.191.018l-.014.007a.248.248 0 00-.107.335c.064.123.215.17.338.107l-.115-.22v-.001z" fill="#4C423D"/><path d="M37.293 26.263l.014-.007-.014.007z" fill="#fff"/><path d="M37.294 26.264l.115.221.014-.006a.25.25 0 10-.229-.443c-.005.001-.01.004-.014.006a.248.248 0 00-.11.335.253.253 0 00.339.108l.013-.006a.25.25 0 10-.229-.443l-.014.006a.248.248 0 00-.108.335.25.25 0 00.337.108l-.114-.221z" fill="#4C423D"/><path d="M36.992 26.402a.455.455 0 00.013-.006l-.013.006z" fill="#fff"/><path d="M36.991 26.402l.098.23a.252.252 0 00.148-.144.248.248 0 00-.142-.323.254.254 0 00-.192.004l-.01.005a.248.248 0 00-.133.327.251.251 0 00.33.131l-.099-.23.1.23.014-.006a.248.248 0 00-.01-.46.254.254 0 00-.192.004l-.01.004a.248.248 0 00.005.46.25.25 0 00.193-.002l-.1-.229z" fill="#4C423D"/><path d="M34.667 26.66l.245.818-.369.031-1.035-.33.963-.502.196-.017z" fill="#FFCFDC"/><path d="M34.668 26.66l-.24.072.157.524-.012.001-.418-.133.389-.203.146-.012-.022-.248-.021-.248-.197.017a.25.25 0 00-.095.027l-.963.502a.25.25 0 00.04.458l1.035.33c.032.01.066.015.099.012l.369-.032a.248.248 0 00.219-.32l-.245-.817a.251.251 0 00-.262-.177l.021.248zm7.945-.933l-.864.075a.25.25 0 10.043.496l.864-.074a.25.25 0 00.228-.27.25.25 0 00-.271-.227zm.072.833l-.706.06-.158.014a.25.25 0 10.044.496l.158-.013.705-.061a.25.25 0 00.229-.27.25.25 0 00-.272-.227z" fill="#4C423D"/><path d="M34.892 27.228l-.319.028-.418-.134.389-.202.146-.013a.25.25 0 10-.043-.496l-.197.017a.251.251 0 00-.095.028l-.963.502a.25.25 0 00.04.458l1.035.33c.032.01.066.014.099.01l.369-.03a.25.25 0 00.228-.27.25.25 0 00-.271-.227zm1.447-.463l.509-.044 1.652-.142 3.27-.28.02-.003a.25.25 0 00.228-.27.25.25 0 00-.272-.227.4.4 0 00-.12.03.454.454 0 00-.162.115.567.567 0 00-.078.11.723.723 0 00-.068.185.919.919 0 00-.019.29v-.001a.92.92 0 00.045.216.63.63 0 00.17.265.448.448 0 00.346.12.25.25 0 00.23-.27.25.25 0 00-.272-.227l-2.98.257-2.073.178a.25.25 0 00-.228.27.25.25 0 00.272.226l2.073-.178 2.98-.256a.25.25 0 10-.042-.496l.004.052v-.053h-.004l.004.053v-.053.052l.026-.046a.057.057 0 00-.026-.006v.052l.026-.046-.01.017.012-.016h-.002l-.01.016.012-.016-.004.005.004-.005-.003.005.003-.005-.002-.001a.133.133 0 01-.026-.044.478.478 0 01-.017-.246.253.253 0 01.027-.067l.002-.002-.033-.033.021.04c.009-.004.012-.008.013-.008l-.034-.032.021.04-.042-.08.008.09a.09.09 0 00.034-.01l-.042-.08.008.09a.25.25 0 00.228-.27.25.25 0 00-.271-.226l-.02.002-3.27.28-1.652.143-.51.043a.25.25 0 10.044.497zm6.294-.79l.022.248-.009-.098v.098h.009l-.009-.098v.098-.088l-.028.084a.096.096 0 00.028.004v-.088l-.028.084.017-.05-.029.045a.05.05 0 00.012.005l.017-.05-.029.045.007-.01-.007.01.007-.01-.007.01.012.013a.27.27 0 01.036.07.455.455 0 01.017.233.139.139 0 01-.012.032l-.006.009.025.024-.015-.03a.04.04 0 00-.01.006l.025.024-.015-.03.026.053-.005-.059a.061.061 0 00-.022.006l.027.053-.005-.059.005.056v-.056h-.005l.005.056v-.056.051l.026-.045a.056.056 0 00-.026-.006v.051l.026-.045-.01.016.011-.015-.001-.001-.01.017.01-.016-.003.005.004-.005-.004.005.004-.005-.001-.001a.134.134 0 01-.027-.044.38.38 0 01-.026-.152.422.422 0 01.026-.141.105.105 0 01.01-.019l.002-.003h.001l-.033-.032.02.04c.009-.004.013-.008.013-.008l-.033-.032.02.04-.042-.08.008.09a.088.088 0 00.035-.01l-.043-.08.008.09-.022-.248-.021-.248a.41.41 0 00-.121.03.45.45 0 00-.161.114.563.563 0 00-.078.11.72.72 0 00-.069.185.907.907 0 00-.018.289.899.899 0 00.045.216.63.63 0 00.17.265c.04.036.088.066.14.088a.446.446 0 00.208.032.447.447 0 00.32-.177.59.59 0 00.103-.2.8.8 0 00.027-.311.957.957 0 00-.11-.368.604.604 0 00-.16-.184.42.42 0 00-.297-.089l.022.248.001-.001z" fill="#4C423D"/><path d="M37.777 28.261l-.704-.786-.188.165.246-.05a3.077 3.077 0 00-.301-.788 2.276 2.276 0 00-.328-.456 1.644 1.644 0 00-.43-.33 1.453 1.453 0 00-.691-.168 1.88 1.88 0 00-.52.077.641.641 0 00-.464.611c0 .06.008.122.026.182l.004.012.245.818.192.64c.028.094.067.184.117.27l1.517 2.617c.182.314.455.566.783.724l2.562 1.233a.41.41 0 01.213.242l.07.212a.25.25 0 00.316.16.249.249 0 00.161-.314l-.07-.212a.91.91 0 00-.47-.536L37.5 31.35a1.313 1.313 0 01-.567-.524l-1.517-2.618a.764.764 0 01-.071-.164l-.191-.64-.246-.817-.003-.012a.136.136 0 01.022-.122.14.14 0 01.073-.05 1.387 1.387 0 01.459-.055c.144.01.268.05.379.107.11.059.21.138.298.232.1.106.186.23.255.356a2.56 2.56 0 01.246.63l.003.014v.003l.13-.027-.13.026a.25.25 0 00.059.116l.704.787a.252.252 0 00.355.02.248.248 0 00.02-.351z" fill="#4C423D"/><path d="M37.779 28.261a.252.252 0 00-.355-.02.248.248 0 00-.02.351l.553.619a.252.252 0 00.355.02.248.248 0 00.02-.351l-.553-.619zm-2.134-1.976l-.167-.185.156.195 2.535-2.007-.157-.194.154.196a.202.202 0 01.237-.007c.2.134.474.33.752.554a6.2 6.2 0 01.765.71c.116.133.209.26.266.37.064.122.216.17.339.106a.248.248 0 00.106-.336 2.483 2.483 0 00-.332-.466 6.723 6.723 0 00-.828-.771 12.15 12.15 0 00-.786-.579.707.707 0 00-.828.026l-.002.002-2.534 2.006-.011.01a.248.248 0 00-.019.352c.093.102.252.11.355.018zm6.11.633c.065.31.14.707.25 1.196l.059.261.006.027.025.11.008.033v-.001l.02.09.009.034.044.186.013.054.023.1v-.002l.01.044v-.001l.002.004v.002l.028.118.013.051v.002l.01.037v-.002a.587.587 0 00.007.034l.015.062.058.236v-.001l.015.06.003.012v.003l.011.043v.001l.016.062.023.09.044.18.008.03.111.443.027.105a10.111 10.111 0 00.038.148l.014.054.02.083.008.027v-.001l.006.028.023.09.01.035a.814.814 0 01.004.018v.002l.02.075.023.09.013.05v-.001a144.406 144.406 0 01.493-.098v.001l-.007-.027-.012-.048-.023-.09-.02-.075v.001a2.418 2.418 0 01-.004-.02l-.01-.037-.023-.089a2.523 2.523 0 00-.006-.026v-.001l-.007-.026-.021-.082-.014-.055-.014-.056-.024-.09V30.5l-.026-.105-.112-.441v-.001l-.007-.03a58.462 58.462 0 01-.067-.269l-.016-.062v.001a3.93 3.93 0 00-.01-.046l-.244.06.244-.057a2.084 2.084 0 00-.004-.016l-.015-.06-.058-.235-.015-.062a1.798 1.798 0 00-.007-.03v-.002l-.01-.038v.001a1.7 1.7 0 00-.012-.052 2.253 2.253 0 01-.028-.118v.002l-.001-.005v-.001a2.624 2.624 0 01-.01-.043l-.024-.098-.013-.054-.044-.186a1.06 1.06 0 01-.008-.032l-.02-.09a1.023 1.023 0 01-.008-.032l-.026-.109-.006-.027-.058-.257c-.107-.482-.181-.873-.248-1.19a.25.25 0 00-.492.101z" fill="#4C423D"/><path d="M40 25.61c.22.105.476.213.72.3.123.044.242.082.353.112.056.015.11.027.162.038.052.01.102.018.151.022.022.002.04.006.052.01a.11.11 0 01.045.025.26.26 0 01.053.064l.003.005v.001c.075.116.23.15.347.075a.248.248 0 00.076-.344l-.212.134.215-.13a.79.79 0 00-.098-.129.64.64 0 00-.437-.207.971.971 0 01-.097-.014 2.454 2.454 0 01-.24-.063 6.924 6.924 0 01-.876-.348.252.252 0 00-.335.117.248.248 0 00.118.332zm-3.067 1.092l.074-.034a.528.528 0 01.034-.014l.012-.005.039-.017-.101-.228.098.23a.568.568 0 01.015-.007l.007-.003.034-.016c.08-.035.17-.075.261-.121h.001l.014-.007.017-.01-.001.001a2.89 2.89 0 00.034-.018l-.119-.22.117.221a.437.437 0 00.018-.01l-.121-.217.119.219.015-.008.002-.002a.313.313 0 00.016-.008l.015-.009h.001l.016-.01h.002a2.228 2.228 0 00.097-.058l.015-.01h.001l.031-.021c.006-.004.01-.008.015-.01l.002-.001.014-.01.002-.002a.291.291 0 00.03-.021l.003-.002.001-.001a.896.896 0 00.013-.01l-.002.001.018-.014.017-.012-.16-.193.156.195.031-.025.014-.01.002-.003.015-.013a.248.248 0 00.02-.352.252.252 0 00-.364-.012l.165.189-.162-.19a.313.313 0 01-.03.025l-.005.003h-.001l-.005.005-.011.008-.002.001a.32.32 0 00-.009.007h.002l-.003.001-.011.008-.013.01.146.202-.144-.204-.015.01.144.204-.142-.206-.01.008h-.002c-.007.006-.016.011-.025.017h.001l-.011.007a1.701 1.701 0 01-.068.04l-.012.008.002-.001-.017.01v-.001l-.01.006a.313.313 0 00-.017.009l.123.217-.12-.219-.013.007-.002.002-.01.005h-.002l-.028.016h-.002l-.013.007h.001l-.014.006h.001a5.1 5.1 0 01-.236.11.872.872 0 00-.031.014.169.169 0 01-.01.004l-.01.004-.003.001-.038.017-.013.005h.001a1.294 1.294 0 01-.026.011l-.007.003h-.001l-.084.038a.248.248 0 00-.121.331.252.252 0 00.333.12v.002z" fill="#4C423D"/><path d="M37.503 25.758l.211.198.593.557c.101.094.26.09.355-.01a.248.248 0 00-.01-.352l-.593-.557-.212-.198a.253.253 0 00-.355.01c-.095.1-.09.258.01.352zm.087 2.917v-.25l-.01.25h.016a.456.456 0 00.124-.018.8.8 0 00.1-.035c.06-.026.121-.059.185-.097a3.186 3.186 0 00.844-.762c.07-.094.132-.19.18-.292.023-.051.043-.103.058-.158a.74.74 0 00.026-.17.25.25 0 00-.243-.256.25.25 0 00-.258.241.328.328 0 01-.03.111.901.901 0 01-.08.146c-.06.093-.143.194-.237.29-.14.146-.305.281-.444.375a1.375 1.375 0 01-.178.105.398.398 0 01-.052.02c-.002.002-.004.002-.005.002h-.002l.002.011-.002-.01.002.01-.002-.01.012.078v-.079h-.012l.012.079v-.079.117l.005-.117h-.005v.117l.005-.117h-.01a.25.25 0 00-.251.25.25.25 0 00.25.248zm3.028 5.549l-.215-.562.05-.02 2.942-1.111.246-.093.216.562c.05.129.194.193.324.144a.249.249 0 00.145-.321l-.305-.795a.252.252 0 00-.324-.145l-.48.182-2.942 1.112-.285.108a.248.248 0 00-.145.322l.305.795c.05.128.194.193.324.144a.248.248 0 00.145-.322z" fill="#4C423D"/><path d="M40.674 35.791l-.443-1.154.242-.092 3.707-1.402.255-.096.443 1.154c.05.129.195.193.324.144a.248.248 0 00.145-.321l-.532-1.387a.25.25 0 00-.324-.144l-.49.185-3.706 1.402-.477.18a.249.249 0 00-.145.322l.532 1.386c.05.129.195.193.324.144a.248.248 0 00.145-.321z" fill="#4C423D"/></g><g filter="url(#filter0_d_11089_247693)"><mask id="a" maskUnits="userSpaceOnUse" x=".625" y="1.605" width="23" height="16" fill="#000"><path fill="#fff" d="M.625 1.605h23v16h-23z"/><path d="M6.93 16.805c-1.148 0-2.12-.3-2.92-.9-.788-.613-1.388-1.46-1.8-2.54-.414-1.093-.62-2.346-.62-3.76 0-1.426.206-2.68.62-3.76.412-1.08 1.012-1.92 1.8-2.52.8-.613 1.772-.92 2.92-.92 1.146 0 2.112.307 2.9.92.8.6 1.406 1.44 1.82 2.52.412 1.08.62 2.334.62 3.76 0 1.414-.208 2.667-.62 3.76-.414 1.08-1.02 1.927-1.82 2.54-.788.6-1.754.9-2.9.9zm0-2.4c.56 0 1.04-.173 1.44-.52.412-.36.732-.893.96-1.6.226-.72.34-1.613.34-2.68 0-1.08-.114-1.973-.34-2.68-.228-.706-.548-1.233-.96-1.58-.4-.36-.88-.54-1.44-.54a2.12 2.12 0 00-1.44.54c-.414.347-.734.874-.96 1.58-.228.707-.34 1.6-.34 2.68 0 1.067.112 1.96.34 2.68.226.707.546 1.24.96 1.6.412.347.892.52 1.44.52zm15.304 0c.32 0 .587.107.8.32.214.214.32.48.32.8 0 .307-.106.567-.32.78-.213.2-.48.3-.8.3h-6.8c-.346 0-.62-.106-.82-.32-.2-.213-.3-.486-.3-.82 0-.333.12-.626.36-.88l4.36-4.66c.494-.533.88-1.08 1.16-1.64.294-.56.44-1.046.44-1.46 0-.666-.193-1.2-.58-1.6-.386-.413-.9-.62-1.54-.62-.253 0-.513.06-.78.18-.266.12-.526.287-.78.5-.24.214-.466.46-.68.74-.16.214-.32.347-.48.4a1.38 1.38 0 01-.44.08c-.293 0-.566-.106-.82-.32-.24-.226-.36-.486-.36-.78 0-.226.074-.446.22-.66a6.235 6.235 0 011.7-1.54c.414-.253.84-.446 1.28-.58.44-.146.867-.22 1.28-.22.894 0 1.667.18 2.32.54.667.347 1.18.847 1.54 1.5.36.64.54 1.4.54 2.28 0 .734-.22 1.554-.66 2.46a10.04 10.04 0 01-1.74 2.52l-2.7 2.88-.22-.18h4.5z"/></mask><path d="M6.93 16.805c-1.148 0-2.12-.3-2.92-.9-.788-.613-1.388-1.46-1.8-2.54-.414-1.093-.62-2.346-.62-3.76 0-1.426.206-2.68.62-3.76.412-1.08 1.012-1.92 1.8-2.52.8-.613 1.772-.92 2.92-.92 1.146 0 2.112.307 2.9.92.8.6 1.406 1.44 1.82 2.52.412 1.08.62 2.334.62 3.76 0 1.414-.208 2.667-.62 3.76-.414 1.08-1.02 1.927-1.82 2.54-.788.6-1.754.9-2.9.9zm0-2.4c.56 0 1.04-.173 1.44-.52.412-.36.732-.893.96-1.6.226-.72.34-1.613.34-2.68 0-1.08-.114-1.973-.34-2.68-.228-.706-.548-1.233-.96-1.58-.4-.36-.88-.54-1.44-.54a2.12 2.12 0 00-1.44.54c-.414.347-.734.874-.96 1.58-.228.707-.34 1.6-.34 2.68 0 1.067.112 1.96.34 2.68.226.707.546 1.24.96 1.6.412.347.892.52 1.44.52zm15.304 0c.32 0 .587.107.8.32.214.214.32.48.32.8 0 .307-.106.567-.32.78-.213.2-.48.3-.8.3h-6.8c-.346 0-.62-.106-.82-.32-.2-.213-.3-.486-.3-.82 0-.333.12-.626.36-.88l4.36-4.66c.494-.533.88-1.08 1.16-1.64.294-.56.44-1.046.44-1.46 0-.666-.193-1.2-.58-1.6-.386-.413-.9-.62-1.54-.62-.253 0-.513.06-.78.18-.266.12-.526.287-.78.5-.24.214-.466.46-.68.74-.16.214-.32.347-.48.4a1.38 1.38 0 01-.44.08c-.293 0-.566-.106-.82-.32-.24-.226-.36-.486-.36-.78 0-.226.074-.446.22-.66a6.235 6.235 0 011.7-1.54c.414-.253.84-.446 1.28-.58.44-.146.867-.22 1.28-.22.894 0 1.667.18 2.32.54.667.347 1.18.847 1.54 1.5.36.64.54 1.4.54 2.28 0 .734-.22 1.554-.66 2.46a10.04 10.04 0 01-1.74 2.52l-2.7 2.88-.22-.18h4.5z" fill="url(#paint1_linear_11089_247693)"/><path d="M6.93 16.805c-1.148 0-2.12-.3-2.92-.9-.788-.613-1.388-1.46-1.8-2.54-.414-1.093-.62-2.346-.62-3.76 0-1.426.206-2.68.62-3.76.412-1.08 1.012-1.92 1.8-2.52.8-.613 1.772-.92 2.92-.92 1.146 0 2.112.307 2.9.92.8.6 1.406 1.44 1.82 2.52.412 1.08.62 2.334.62 3.76 0 1.414-.208 2.667-.62 3.76-.414 1.08-1.02 1.927-1.82 2.54-.788.6-1.754.9-2.9.9zm0-2.4c.56 0 1.04-.173 1.44-.52.412-.36.732-.893.96-1.6.226-.72.34-1.613.34-2.68 0-1.08-.114-1.973-.34-2.68-.228-.706-.548-1.233-.96-1.58-.4-.36-.88-.54-1.44-.54a2.12 2.12 0 00-1.44.54c-.414.347-.734.874-.96 1.58-.228.707-.34 1.6-.34 2.68 0 1.067.112 1.96.34 2.68.226.707.546 1.24.96 1.6.412.347.892.52 1.44.52zm15.304 0c.32 0 .587.107.8.32.214.214.32.48.32.8 0 .307-.106.567-.32.78-.213.2-.48.3-.8.3h-6.8c-.346 0-.62-.106-.82-.32-.2-.213-.3-.486-.3-.82 0-.333.12-.626.36-.88l4.36-4.66c.494-.533.88-1.08 1.16-1.64.294-.56.44-1.046.44-1.46 0-.666-.193-1.2-.58-1.6-.386-.413-.9-.62-1.54-.62-.253 0-.513.06-.78.18-.266.12-.526.287-.78.5-.24.214-.466.46-.68.74-.16.214-.32.347-.48.4a1.38 1.38 0 01-.44.08c-.293 0-.566-.106-.82-.32-.24-.226-.36-.486-.36-.78 0-.226.074-.446.22-.66a6.235 6.235 0 011.7-1.54c.414-.253.84-.446 1.28-.58.44-.146.867-.22 1.28-.22.894 0 1.667.18 2.32.54.667.347 1.18.847 1.54 1.5.36.64.54 1.4.54 2.28 0 .734-.22 1.554-.66 2.46a10.04 10.04 0 01-1.74 2.52l-2.7 2.88-.22-.18h4.5z" fill="url(#paint2_linear_11089_247693)"/><path d="M4.01 15.905l-.116.148.003.002.112-.15zm-1.8-2.54l-.176.067.175-.066zm0-7.52l-.176-.067.175.067zm1.8-2.52l.113.15-.114-.15zm5.82 0l-.116.148.003.002.112-.15zm1.82 2.52l.174-.067-.175.067zm0 7.52l.174.067-.175-.066zm-1.82 2.54l.113.15-.114-.15zm-1.46-2.02l.122.142-.123-.141zm.96-1.6l.178.058v-.001l-.179-.056zm0-5.36l-.18.058.18-.058zm-.96-1.58l-.126.14.005.004.12-.144zm-2.88 0l.12.144.002-.002-.123-.142zm-.96 1.58l-.18-.057.18.057zm0 5.36l-.18.057.18-.056zm.96 1.6l-.124.142.003.002.12-.143zm1.44 2.733c-1.113 0-2.046-.29-2.808-.862l-.225.3c.837.627 1.851.937 3.032.937v-.375zm-2.806-.86c-.755-.59-1.337-1.406-1.74-2.46l-.35.134c.424 1.107 1.042 1.984 1.86 2.621l.23-.295zm-1.74-2.459c-.403-1.068-.607-2.298-.607-3.694h-.375c0 1.432.209 2.708.632 3.827l.35-.133zm-.607-3.694c0-1.408.204-2.638.607-3.693l-.35-.134c-.423 1.106-.632 2.383-.632 3.827h.375zm.607-3.693c.403-1.053.984-1.862 1.739-2.437l-.228-.299c-.818.625-1.437 1.495-1.861 2.602l.35.134zm1.74-2.438c.762-.585 1.694-.881 2.805-.881v-.375c-1.182 0-2.197.317-3.034.959l.228.297zm2.805-.881c1.111 0 2.036.296 2.785.88l.23-.295c-.824-.643-1.833-.96-3.015-.96v.375zm2.788.882c.767.576 1.354 1.385 1.757 2.437l.35-.134C11.4 4.671 10.774 3.8 9.942 3.175l-.225.3zm1.757 2.437c.403 1.055.608 2.285.608 3.693h.375c0-1.444-.21-2.72-.633-3.827l-.35.134zm.608 3.693c0 1.396-.205 2.626-.608 3.694l.35.133c.423-1.119.633-2.395.633-3.827h-.375zm-.608 3.693c-.403 1.053-.99 1.87-1.759 2.459l.228.297c.832-.637 1.457-1.514 1.881-2.621l-.35-.135zm-1.759 2.458c-.749.572-1.674.862-2.786.862v.375c1.181 0 2.19-.31 3.014-.938l-.228-.299zM6.93 14.593c.602 0 1.127-.188 1.563-.566l-.246-.283c-.364.315-.8.474-1.317.474v.375zm1.563-.566c.447-.39.782-.956 1.016-1.684l-.357-.115c-.22.685-.525 1.185-.905 1.516l.246.283zm1.016-1.685c.234-.744.349-1.658.349-2.737h-.375c0 1.055-.113 1.928-.332 2.624l.358.113zm.349-2.737c0-1.091-.115-2.005-.35-2.737l-.356.115c.218.682.33 1.554.33 2.622h.376zm-.35-2.737c-.233-.728-.569-1.29-1.017-1.666l-.241.287c.377.317.682.809.902 1.494l.357-.115zM8.495 5.206a2.266 2.266 0 00-1.565-.588v.375c.516 0 .95.164 1.315.492l.25-.279zM6.93 4.618a2.31 2.31 0 00-1.563.586l.246.283c.38-.33.816-.494 1.317-.494v-.375zm-1.56.584c-.45.376-.785.938-1.018 1.666l.357.115c.22-.685.524-1.177.902-1.494l-.241-.287zM4.35 6.868C4.116 7.6 4 8.514 4 9.605h.376c0-1.068.112-1.94.33-2.622l-.356-.115zM4 9.605c0 1.079.115 1.993.35 2.737l.357-.113c-.22-.696-.331-1.569-.331-2.624h-.375zm.35 2.738c.233.728.568 1.295 1.015 1.684l.246-.283c-.38-.33-.685-.83-.904-1.516l-.357.115zm1.018 1.686c.447.376.97.564 1.56.564v-.375a1.99 1.99 0 01-1.32-.476l-.24.287zm17.665.697l.133-.133-.133.133zm0 1.58l.129.136.004-.004-.133-.133zm-8.42-.02l.137-.129-.137.128zm.06-1.7l.136.128h.001l-.137-.129zm4.36-4.66l.137.128v-.001l-.137-.128zm1.16-1.64l-.166-.088-.002.004.168.083zm-.14-3.06l-.137.128.002.002.135-.13zm-2.32-.44l-.077-.172.077.171zm-.78.5l-.12-.144-.004.003.124.14zm-.68.74l-.149-.114v.001l.15.112zm-.48.4l.06.177-.06-.178zm-1.26-.24l-.129.136.008.007.121-.144zm-.14-1.44l-.15-.113-.004.006.154.106zm.58-.66l-.132-.133.132.132zm2.4-1.46l.055.179.005-.002-.06-.178zm3.6.32l-.09.164.004.002.086-.167zm1.54 1.5l-.164.09v.001l.164-.092zm-.12 4.74l-.168-.082h-.001l.17.081zm-1.74 2.52l.137.128-.137-.128zm-2.7 2.88l-.119.145.136.11.12-.127-.137-.129zm-.22-.18v-.188h-.525l.407.333.118-.146zm4.5.187c.274 0 .492.09.668.265l.265-.265a1.273 1.273 0 00-.933-.375v.375zm.668.265a.898.898 0 01.265.667h.375c0-.366-.124-.681-.375-.932l-.265.265zm.265.667c0 .258-.088.47-.265.648l.265.265a1.25 1.25 0 00.375-.912h-.375zm-.261.644a.938.938 0 01-.672.249v.375c.363 0 .677-.115.928-.35l-.256-.274zm-.672.249h-6.8v.375h6.8v-.375zm-6.8 0c-.305 0-.525-.092-.683-.26l-.274.256c.242.258.57.379.957.379v-.375zm-.683-.26c-.163-.174-.25-.4-.25-.693h-.374c0 .374.113.696.35.949l.274-.257zm-.25-.693c0-.283.1-.53.31-.75l-.273-.258a1.428 1.428 0 00-.411 1.008h.375zm.31-.751l4.36-4.66-.274-.257-4.36 4.66.274.257zm4.36-4.661a7.308 7.308 0 001.19-1.684l-.335-.167a6.933 6.933 0 01-1.13 1.596l.276.255zm1.19-1.68c.3-.574.46-1.092.46-1.548h-.374c0 .372-.133.827-.419 1.373l.332.174zm.46-1.548c0-.705-.205-1.288-.632-1.73l-.27.26c.347.36.528.842.528 1.47h.375zm-.63-1.728c-.427-.456-.992-.679-1.677-.679v.375c.596 0 1.057.19 1.403.56l.274-.256zm-1.677-.679c-.283 0-.57.067-.857.196l.154.342c.246-.11.48-.163.703-.163v-.375zm-.857.196a3.537 3.537 0 00-.824.528l.242.287a3.16 3.16 0 01.736-.473l-.154-.342zm-.827.531a5.39 5.39 0 00-.705.767l.298.227c.207-.271.426-.509.656-.713l-.25-.28zm-.706.768c-.15.2-.28.298-.39.335l.12.355c.211-.07.4-.238.57-.465l-.3-.225zm-.39.335c-.145.048-.271.07-.38.07v.375c.158 0 .325-.032.5-.09l-.12-.355zm-.38.07c-.243 0-.475-.087-.699-.276l-.242.287c.283.238.598.364.941.364v-.375zm-.691-.269c-.208-.196-.301-.409-.301-.644h-.375c0 .352.146.66.418.917l.258-.273zm-.301-.644c0-.183.058-.367.187-.553l-.31-.213c-.164.24-.252.497-.252.766h.375zm.182-.547a6.05 6.05 0 01.563-.64l-.265-.265a6.423 6.423 0 00-.598.68l.3.225zm.563-.64a5.854 5.854 0 011.085-.853l-.196-.32c-.425.261-.81.564-1.154.908l.265.265zm1.085-.853c.4-.245.813-.432 1.237-.56l-.11-.359a5.682 5.682 0 00-1.323.6l.196.32zm1.241-.562a3.85 3.85 0 011.221-.21v-.375c-.436 0-.882.077-1.34.23l.12.355zm1.221-.21c.868 0 1.61.175 2.23.517l.18-.329c-.685-.378-1.491-.563-2.41-.563v.375zm2.234.519c.634.33 1.12.803 1.462 1.424l.328-.181a3.82 3.82 0 00-1.617-1.576l-.173.333zm1.463 1.425c.341.607.516 1.334.516 2.188h.375c0-.905-.186-1.698-.564-2.371l-.327.183zm.516 2.188c0 .697-.21 1.488-.642 2.379l.338.163c.448-.923.679-1.771.679-2.542h-.375zm-.642 2.38a9.854 9.854 0 01-1.708 2.473l.274.255a10.23 10.23 0 001.772-2.567l-.338-.161zm-1.708 2.472l-2.7 2.88.274.257 2.7-2.88-.274-.257zm-2.444 2.863l-.22-.18-.238.29.22.18.238-.29zm-.339.153h4.5v-.375h-4.5v.375z" fill="#221A15" mask="url(#a)"/></g></g><path fill="#221A15" d="M32.625 65.945h.75V185.32h-.75z"/><defs><linearGradient id="paint0_linear_11089_247693" x1="1.037" y1="-1.802" x2="65.477" y2="2.241" gradientUnits="userSpaceOnUse"><stop stop-color="#FFD7E8"/><stop offset=".5" stop-color="#FFDCD1"/><stop offset="1" stop-color="#FFF1A7"/></linearGradient><linearGradient id="paint1_linear_11089_247693" x1=".625" y1="-1.395" x2="25.863" y2=".314" gradientUnits="userSpaceOnUse"><stop stop-color="#FFF9EC"/><stop offset=".507" stop-color="#FFE9B8"/><stop offset="1" stop-color="#FFF9EA"/></linearGradient><linearGradient id="paint2_linear_11089_247693" x1="22.032" y1="-2.994" x2="17.678" y2="21.092" gradientUnits="userSpaceOnUse"><stop stop-color="#FFD8E8"/><stop offset=".5" stop-color="#FFCABA"/><stop offset="1" stop-color="#FFEF9B"/></linearGradient><clipPath id="clip0_11089_247693"><path fill="#fff" transform="translate(.5 .32)" d="M0 0h65v66H0z"/></clipPath><clipPath id="clip1_11089_247693"><path fill="#fff" transform="translate(24.875 14.604)" d="M0 0h20.625v22.875H0z"/></clipPath><filter id="filter0_d_11089_247693" x="1.401" y="2.218" width="22.891" height="15.525" filterUnits="userSpaceOnUse" color-interpolation-filters="sRGB"><feFlood flood-opacity="0" result="BackgroundImageFix"/><feColorMatrix in="SourceAlpha" values="0 0 0 0 0 0 0 0 0 0 0 0 0 0 0 0 0 0 127 0" result="hardAlpha"/><feOffset dx=".75" dy=".75"/><feComposite in2="hardAlpha" operator="out"/><feColorMatrix values="0 0 0 0 0.133333 0 0 0 0 0.101961 0 0 0 0 0.0823529 0 0 0 1 0"/><feBlend in2="BackgroundImageFix" result="effect1_dropShadow_11089_247693"/><feBlend in="SourceGraphic" in2="effect1_dropShadow_11089_247693" result="shape"/></filter></defs></svg>