<svg width="174" height="264" fill="none" xmlns="http://www.w3.org/2000/svg"><g clip-path="url(#clip0_10944_62762)"><path d="M86.94 163.749c42.16 0 76.337-34.178 76.337-76.338S129.1 11.073 86.94 11.073c-42.16 0-76.338 34.177-76.338 76.338 0 42.16 34.177 76.338 76.337 76.338z" fill="#F4A0B6"/><path d="M86.94 163.749c42.16 0 76.337-34.178 76.337-76.338S129.1 11.073 86.94 11.073c-42.16 0-76.338 34.177-76.338 76.338 0 42.16 34.177 76.338 76.337 76.338z" fill="url(#paint0_linear_10944_62762)" fill-opacity=".5"/><path d="M86.94 172.759c47.136 0 85.347-38.212 85.347-85.347 0-47.136-38.211-85.347-85.346-85.347-47.136 0-85.347 38.211-85.347 85.347 0 47.135 38.21 85.347 85.347 85.347z" stroke="#221A15" stroke-width="2" stroke-linecap="round" stroke-linejoin="round"/><path d="M75.92 119.571h2.04v6.22h-2.04v-6.22zm0 7.28h2.04v5.08h-2.04v-5.08zm-5.34-.84h12.98v7.1h-2.12v-5.62H72.6v5.66h-2.02v-7.14zm-2.44-4h17.74v1.76H68.14v-1.76zm3.64 6.6h10.64v1.32H71.78v-1.32zm0 2.5h10.64v1.5H71.78v-1.5zm9.88-12.92l1.12 1.46c-.76.12-1.6.227-2.52.32-.92.094-1.88.174-2.88.24-.987.067-1.98.12-2.98.16-1 .027-1.96.047-2.88.06a3.94 3.94 0 00-.18-.74c-.093-.293-.18-.54-.26-.74a221.944 221.944 0 005.7-.24 61.429 61.429 0 002.66-.24c.84-.093 1.58-.186 2.22-.28zm-6.76 4.16l1.64.78c-.453.507-.98 1.007-1.58 1.5-.6.48-1.24.94-1.92 1.38a21.277 21.277 0 01-4.22 2.04c-.107-.16-.24-.34-.4-.54a7.074 7.074 0 00-.48-.62 9.878 9.878 0 00-.48-.52c.92-.253 1.847-.586 2.78-1 .933-.413 1.807-.88 2.62-1.4.827-.52 1.507-1.06 2.04-1.62zm4.04-.04c.533.534 1.207 1.047 2.02 1.54.813.48 1.7.907 2.66 1.28.96.36 1.92.647 2.88.86-.213.214-.453.487-.72.82-.253.334-.46.627-.62.88-.96-.28-1.927-.653-2.9-1.12-.96-.48-1.86-1.026-2.7-1.64a13.39 13.39 0 01-2.16-1.94l1.54-.68zm-8.04-1.74l1.84-.38c.213.294.4.62.56.98.173.36.293.68.36.96l-1.92.46a6.22 6.22 0 00-.34-.98 6.321 6.321 0 00-.5-1.04zm10.26-.62l2.16.54c-.267.427-.527.834-.78 1.22-.253.387-.487.72-.7 1l-1.68-.54c.173-.32.353-.686.54-1.1.2-.426.353-.8.46-1.12zm-5.24-5.4h2.16v2.68h-2.16v-2.68zm-7.52 1.42h17.18v3.88H83.5v-2.06H70.4v2.06h-2v-3.88zm19.56 14.98h18.1v1.88h-18.1v-1.88zm4.36-5.04h9.34v1.5h-9.34v-1.5zm0 2.5h9.34v1.5h-9.34v-1.5zm-1.02-5.24h11.46v8.8h-2.22v-7.04H93.4v7.12h-2.1v-8.88zm-3.22-6.32h17.86v1.86H88.08v-1.86zm7.78-2.32H98v8.08h-2.14v-8.08zm-1.04 2.92l1.76.68a13.928 13.928 0 01-1.5 1.9c-.573.614-1.2 1.187-1.88 1.72a18.62 18.62 0 01-2.1 1.42c-.72.414-1.46.767-2.22 1.06a7.451 7.451 0 00-.62-.88 4.704 4.704 0 00-.72-.78 16.17 16.17 0 004.16-2.12c.64-.453 1.227-.926 1.76-1.42a9.809 9.809 0 001.36-1.58zm4.12.02a9.128 9.128 0 001.38 1.54c.56.494 1.167.954 1.82 1.38.653.427 1.34.814 2.06 1.16.733.347 1.473.634 2.22.86a4.41 4.41 0 00-.5.5c-.173.214-.34.427-.5.64a8.921 8.921 0 00-.38.6 17.483 17.483 0 01-2.28-1.06c-.733-.413-1.44-.88-2.12-1.4a20.34 20.34 0 01-1.88-1.66c-.573-.6-1.08-1.226-1.52-1.88l1.7-.68z" fill="#221A15"/><g clip-path="url(#clip1_10944_62762)"><path d="M107.83 38.356H65.773V97.38h42.057V38.356z" fill="#fff"/><path d="M107.829 97.38v-.664H66.442V39.02h40.718v58.36h1.338V38.356a.664.664 0 00-.669-.664H65.773a.667.667 0 00-.67.664V97.38a.667.667 0 00.67.664h42.056a.664.664 0 00.669-.664h-.669z" fill="#4C423D"/><path d="M78.267 49.47v-.664h-6.62V42.9h5.95v6.569h1.339v-7.233a.666.666 0 00-.67-.664h-7.288a.666.666 0 00-.67.664v7.233a.667.667 0 00.67.664h7.289a.667.667 0 00.67-.664h-.67zm0 11.008v-.664h-6.62v-5.905h5.95v6.569h1.339v-7.233a.667.667 0 00-.67-.664h-7.288a.667.667 0 00-.67.664v7.233a.666.666 0 00.67.664h7.289a.666.666 0 00.67-.664h-.67zm0 11.008v-.665h-6.62v-5.904h5.95v6.569h1.339v-7.233a.667.667 0 00-.67-.665h-7.288a.667.667 0 00-.67.664v7.234a.667.667 0 00.67.664h7.289a.667.667 0 00.67-.664h-.67zm0 11.005v-.664h-6.62v-5.904h5.95v6.568h1.339v-7.233a.667.667 0 00-.67-.664h-7.288a.667.667 0 00-.67.664v7.233a.667.667 0 00.67.665h7.289a.667.667 0 00.67-.664h-.67zm0 11.009v-.665h-6.62V86.93h5.95v6.57h1.339v-7.234a.666.666 0 00-.67-.664h-7.288a.666.666 0 00-.67.664V93.5a.667.667 0 00.67.664h7.289a.667.667 0 00.67-.664h-.67zm24.357-48.308H81.326c-.37 0-.67.297-.67.664 0 .367.3.664.67.664h21.298c.37 0 .67-.297.67-.664 0-.367-.3-.664-.67-.664zm0 11.006H81.326c-.37 0-.67.297-.67.664 0 .367.3.664.67.664h21.298c.37 0 .67-.297.67-.664 0-.367-.3-.664-.67-.664zM89.575 67.206h-8.25a.667.667 0 00-.669.664c0 .366.3.664.67.664h8.249c.37 0 .67-.298.67-.664 0-.367-.3-.664-.67-.664zm2.936 11.004H81.326c-.37 0-.67.297-.67.664 0 .366.3.664.67.664H92.51c.37 0 .67-.298.67-.664 0-.367-.3-.664-.67-.664zm10.113 11.007H81.326c-.37 0-.67.298-.67.665 0 .366.3.664.67.664h21.298c.37 0 .67-.298.67-.665 0-.366-.3-.664-.67-.664z" fill="#4C423D"/><path d="M71.84 45.79l1.491 1.789a.675.675 0 00.952.08l3.044-2.596a.66.66 0 00.07-.937.673.673 0 00-.943-.07l-2.527 2.155-1.056-1.267a.673.673 0 00-.943-.088.66.66 0 00-.089.935zm0 11.006l1.491 1.788a.675.675 0 00.952.08l3.044-2.596a.66.66 0 00.07-.936.673.673 0 00-.943-.07l-2.527 2.155-1.056-1.267a.673.673 0 00-.943-.088.661.661 0 00-.089.935zm0 11.004l1.491 1.788a.674.674 0 00.952.08l3.044-2.596a.66.66 0 00.07-.936.673.673 0 00-.943-.07l-2.527 2.155-1.056-1.267a.673.673 0 00-.943-.088.661.661 0 00-.089.935zm24.928 3.569l5.529-.476c-.042 1.34-2.706 3.47-3.391 3.44l-1.879-2.098s-.073-.36-.26-.867z" fill="#F090A9"/><path d="M96.77 71.37l.058.66 5.53-.475-.057-.661-.67-.022a.875.875 0 01-.077.297c-.048.115-.12.248-.212.389a5.364 5.364 0 01-.636.775 7.83 7.83 0 01-1.182.999 3.679 3.679 0 01-.475.28 1.055 1.055 0 01-.154.059l-.004.001.005.028-.004-.028h-.001l.005.028-.004-.028.032.209v-.211a.17.17 0 00-.032.002l.032.209v-.211.284l.01-.284h-.01v.284l.01-.284h-.025v.664l.5-.44-1.879-2.098-.5.441.656-.132a7.268 7.268 0 00-.286-.962l-.63.227-.628.227a7.084 7.084 0 01.222.727l.009.038v.009l.346-.07-.345.07a.666.666 0 00.156.308l1.879 2.097a.67.67 0 00.5.224v-.665l-.026.664h.04c.128 0 .233-.02.331-.047.092-.025.179-.057.266-.094a4.01 4.01 0 00.494-.258c.296-.18.612-.408.928-.67a8.504 8.504 0 001.322-1.361c.188-.25.353-.509.479-.78.063-.137.117-.276.156-.42a1.93 1.93 0 00.071-.453.662.662 0 00-.209-.503.672.672 0 00-.518-.18l-5.53.476a.661.661 0 00-.572.889l.63-.227v-.002z" fill="#4C423D"/><path d="M101.279 68.748l-4.406.378c.064-.03.135-.06.21-.094l.025-.01.065-.029.033-.015.103-.044.033-.015a13.768 13.768 0 00.772-.357c.013-.005.025-.012.037-.018l.04-.02.084-.044.036-.02.038-.02.042-.023.035-.02.045-.025.032-.019c.069-.039.136-.08.202-.122l.037-.023.075-.05.035-.023.039-.027a8.12 8.12 0 01.036-.026l.036-.026.007-.005.029-.021.04-.03.03-.023.068-.055.032-.027.034-.028a2.14 2.14 0 00.496-.603l1.583 1.484h-.003z" fill="#F090A9"/><path d="M101.279 68.747l-.057-.661-4.406.379.057.661.283.602c.057-.027.124-.056.199-.089l-.004.002.028-.012h.002l.06-.027.004-.002.03-.013h.002c.031-.015.066-.03.103-.045l-.006.002.038-.016.018-.008.003-.001.09-.04c.213-.094.45-.2.695-.324l.002-.001.036-.018.003-.001.045-.024-.005.002.093-.048-.318-.585.308.59.051-.027-.323-.582.317.585.046-.024h.001l.041-.023h.001l.04-.024.003-.001.043-.025h-.001c.015-.008.027-.015.039-.02.075-.044.15-.09.225-.137l-.004.003.045-.03.003-.001.083-.055-.002.001.043-.029.002-.001.038-.027.006-.004c.013-.008.025-.018.039-.028l.044-.032-.002.002.007-.004-.002.001.038-.028-.003.002.049-.037-.411-.524.406.528.044-.035-.42-.517.414.521.083-.067-.004.004.04-.033.006-.005.04-.035-.003.002c.251-.22.482-.479.648-.795l-.594-.307-.46.483 1.584 1.484.459-.483.46-.483-1.583-1.484a.67.67 0 00-1.053.176 1.483 1.483 0 01-.346.41l-.002.003-.026.023.437.502-.431-.508a1.003 1.003 0 01-.025.02l-.005.005-.053.042-.005.004a.26.26 0 01-.016.013l-.005.004-.031.023-.003.003-.02.014-.001.002-.007.004-.002.002a1.725 1.725 0 00-.028.02l-.034.024.389.54-.383-.544-.04.028.002-.001-.026.018-.002.001-.068.044h.003l-.028.017-.005.003a4.492 4.492 0 01-.178.107l-.027.016h-.001a.677.677 0 01-.045.026l.002-.002-.03.017h.001a.917.917 0 00-.044.024h.001l-.028.014-.007.004a1.466 1.466 0 00-.022.012l-.009.004-.074.04-.005.001-.035.018h.003l-.038.018.003-.002a13.4 13.4 0 01-.63.294l-.083.036h.002a.526.526 0 01-.028.011l-.028.012-.006.003-.102.044h.001l-.036.015.004-.002-.07.03h.002a.31.31 0 00-.021.008l-.004.002c-.076.033-.15.066-.222.1a.662.662 0 00-.364.773c.085.312.38.518.704.49l4.406-.378a.667.667 0 00.575-.443.658.658 0 00-.173-.702l-.46.483.001.003z" fill="#4C423D"/><path d="M117.549 85.797l1.42 3.699-12.463 4.712-1.42-3.698 1.271-.481 9.886-3.738 1.306-.494z" fill="#EB537B"/><path d="M117.549 85.798l-.626.236 1.182 3.078-11.211 4.24-.943-2.458.646-.244 9.885-3.738 1.305-.493-.238-.62-.238-.621-1.305.493-9.886 3.738-1.271.481a.663.663 0 00-.387.858l1.42 3.698a.67.67 0 00.864.384l12.462-4.713a.663.663 0 00.387-.857l-1.42-3.698a.671.671 0 00-.863-.383l.238.62-.001-.001z" fill="#4C423D"/><path d="M115.429 84.17l.814 2.12-9.886 3.738-.814-2.12.76-.287 7.845-2.966 1.281-.485z" fill="#fff"/><path d="M115.431 84.171l-.626.237.576 1.5-8.636 3.265-.337-.88.135-.05 7.845-2.966 1.281-.485-.238-.62-.239-.62-1.281.484-7.845 2.966-.76.288a.663.663 0 00-.387.857l.814 2.12a.67.67 0 00.864.384l9.886-3.738a.662.662 0 00.387-.857l-.814-2.12a.673.673 0 00-.864-.384l.239.62z" fill="#4C423D"/><path d="M93.268 68.13c.961.068 1.694.525 2.246 1.11.632.67 1.026 1.51 1.253 2.13.186.507.26.867.26.867l1.879 2.097c.685.03 3.349-2.1 3.391-3.44l7.947-.683.421-.036c.176.837.375 1.888.664 3.182l.157.692.017.07.067.29.02.088.056.24c.007.03.013.059.021.088l.117.497.035.143a29.834 29.834 0 00.09.377l.003.012.076.315.033.138.025.1.021.086.04.165.154.628.039.161c.004.012.006.025.009.037l.03.118.041.166.06.24.119.48.021.079a304.067 304.067 0 00.43 1.704l.038.148.038.148.055.218.019.072.018.072.061.238.025.097a.96.96 0 00.013.051l.052.202.061.238.034.13.017.07.218.841c.293 1.13.487 1.859.487 1.859l-7.845 2.966-.186-.566a1.765 1.765 0 00-.911-1.037l-6.833-3.287a4.174 4.174 0 01-1.8-1.665l-4.046-6.98a2.716 2.716 0 01-.251-.58l-.51-1.705-.654-2.18-.01-.032a1.033 1.033 0 01.71-1.288 4.19 4.19 0 011.457-.17v-.002z" fill="#fff"/><path d="M93.27 68.131l-.048.662c.387.029.715.131 1.011.286.296.156.56.368.795.617.268.284.496.616.68.95a6.806 6.806 0 01.655 1.679l.009.037v.009l.346-.07-.345.07a.667.667 0 00.156.308l1.879 2.098a.67.67 0 00.5.223v-.664l-.028.663.042.001c.128 0 .233-.021.331-.048.092-.025.179-.057.266-.093.162-.07.324-.156.494-.259.296-.18.612-.408.928-.67a8.504 8.504 0 001.322-1.36 4.43 4.43 0 00.479-.781c.063-.136.117-.275.156-.42a1.93 1.93 0 00.071-.452l-.669-.022.058.662 7.947-.683.421-.036-.057-.662-.655.135c.174.827.374 1.885.665 3.19.05.225.103.458.158.696v.001l.016.07v.001l.067.291.021.09v-.003l.056.243.022.09v-.002c.038.163.077.33.118.498a8.8 8.8 0 00.034.143v.001l.063.263v-.002l.028.117v-.003l.002.012v.003l.077.316c.01.046.022.09.033.137v.003l.025.1v-.005c.006.031.013.061.021.09l.041.165.154.629v-.002l.04.162.007.03.001.006.03.118v.002l.041.165.06.24.12.481v-.003c.006.03.013.058.02.085v-.002c.099.4.199.795.297 1.181l.071.28v-.001l.061.245.039.15.037.146.056.22.02.074.648-.166-.65.158.019.076.062.24v-.002l.024.097v.002l.015.053v-.002l.05.201.062.24v-.002l.034.133-.001-.006c.006.028.013.052.019.074l.218.842c.294 1.13.486 1.861.487 1.862l.647-.169-.238-.62-7.845 2.966.238.62.637-.205-.186-.567a2.43 2.43 0 00-1.256-1.428l-6.832-3.288a3.502 3.502 0 01-1.513-1.398l-4.045-6.98a2.031 2.031 0 01-.19-.437l-.51-1.706-.654-2.18-.01-.032a.366.366 0 01.253-.46c.38-.108.716-.153 1.018-.153.07 0 .139.003.206.008l.048-.663.048-.662c-.1-.007-.2-.01-.303-.01-.436 0-.9.065-1.388.205a1.71 1.71 0 00-.9.62 1.69 1.69 0 00-.265 1.495l.01.033.653 2.18.51 1.705a3.4 3.4 0 00.313.722l4.045 6.979a4.84 4.84 0 002.09 1.932l6.832 3.287c.269.13.474.362.567.645l.186.567a.67.67 0 00.874.415l7.845-2.967a.666.666 0 00.409-.79l-.034-.13c-.068-.258-.232-.879-.452-1.724l-.217-.841-.016-.064-.001-.006c-.011-.043-.023-.085-.033-.128v-.002l-.062-.237-.052-.203v-.001l-.013-.05v.003l-.024-.097v-.002l-.062-.238a1.684 1.684 0 01-.017-.066l-.002-.007a17.901 17.901 0 01-.073-.287l-.038-.148a6.751 6.751 0 01-.037-.147l-.062-.244v-.002l-.071-.277-.297-1.179v-.002l-.02-.075v-.002a61.862 61.862 0 01-.179-.718v-.001l-.042-.167v.002a4.962 4.962 0 00-.029-.119l.002.006-.011-.043-.039-.159v-.002l-.154-.626-.04-.165-.02-.083v-.004l-.026-.1v.003l-.032-.138-.076-.315v.004l-.002-.012v-.004l-.028-.112v-.002l-.064-.262v.001l-.034-.145v.002a93.939 93.939 0 00-.117-.496v-.002l-.021-.085-.055-.24v-.001l-.02-.085-.067-.29v.002l-.017-.073v.001l-.155-.687c-.287-1.284-.484-2.327-.662-3.175a.668.668 0 00-.713-.526l-.422.037-7.947.683a.666.666 0 00-.611.64.874.874 0 01-.077.297 2.54 2.54 0 01-.212.39 5.359 5.359 0 01-.636.774 7.832 7.832 0 01-1.182 1 3.69 3.69 0 01-.476.279 1.066 1.066 0 01-.153.059l-.004.001.005.028-.004-.028h-.001l.005.028-.004-.028.032.209v-.21a.186.186 0 00-.032.001l.032.209v-.21.311l.013-.311h-.013v.311l.013-.311h-.028v.664l.5-.44-1.879-2.098-.5.441.656-.132a8.177 8.177 0 00-.804-2.102 6.054 6.054 0 00-.875-1.216 4.378 4.378 0 00-1.144-.882 3.875 3.875 0 00-1.542-.437l-.048.662-.003-.002z" fill="#4C423D"/><path d="M113.141 68.9c.057.642-.214 1.083-.593 1.116-.378.032-.721-.355-.777-.998-.056-.642.206-1.189.583-1.221.378-.033.73.462.787 1.104z" fill="#FFCFDC"/><path d="M113.14 68.9l-.667.057a1.025 1.025 0 01-.019.319.373.373 0 01-.047.11h-.001l.066.065-.04-.08a.096.096 0 00-.026.016l.066.064-.04-.08.071.142-.014-.159a.164.164 0 00-.058.016l.071.143-.014-.159h.001l.012.15v-.15h-.012l.012.15v-.15.138l.07-.122a.15.15 0 00-.07-.016v.138l.07-.122-.025.044.028-.042-.004-.002-.025.045.029-.042-.01.015.01-.014-.01.014.011-.014-.005-.004a.37.37 0 01-.069-.117.981.981 0 01-.065-.29 1.156 1.156 0 01.021-.364.699.699 0 01.042-.127c.011-.024.022-.04.028-.05l.006-.007.001-.002-.089-.085.056.108c.022-.012.032-.022.033-.022l-.089-.086.056.108-.113-.216.022.242a.236.236 0 00.091-.026l-.113-.217.022.242-.024-.262v.263l.024-.001-.024-.262v.263-.237l-.075.225a.258.258 0 00.075.012v-.237l-.075.225.045-.134-.076.12c.005.003.015.01.031.014l.045-.134-.076.12.018-.027-.02.026.003.001.018-.027-.02.026s.015.012.034.037a.717.717 0 01.095.187c.03.085.055.189.064.301l.667-.057.666-.058a2.581 2.581 0 00-.12-.587 2.151 2.151 0 00-.176-.393 1.603 1.603 0 00-.424-.491 1.23 1.23 0 00-.313-.172 1.118 1.118 0 00-.478-.065 1.05 1.05 0 00-.323.08 1.195 1.195 0 00-.429.305 1.478 1.478 0 00-.208.294c-.084.156-.143.32-.183.493a2.447 2.447 0 00-.049.77c.018.204.058.397.121.578.095.27.241.512.454.704.107.096.232.177.372.235a1.19 1.19 0 00.553.085h.001a1.18 1.18 0 00.55-.19c.12-.079.222-.176.306-.282.127-.16.214-.34.271-.532.057-.193.085-.396.085-.608 0-.073-.004-.147-.01-.223l-.667.057.002-.003z" fill="#4C423D"/><path d="M112.549 70.016l-1.882.162-.421.036c-.379.033-.721-.355-.777-.997-.057-.642.204-1.19.583-1.222l2.303-.198c-.378.033-.639.58-.583 1.222.057.642.399 1.03.777.997z" fill="#FFCFDC"/><path d="M112.551 70.016l-.058-.661-1.881.162-.422.037h.001l.013.149v-.15h-.013l.013.15v-.15.137l.069-.122a.152.152 0 00-.069-.016v.138l.069-.122-.026.045.03-.043-.004-.002-.026.045.03-.043-.01.014.01-.013-.009.013.01-.013-.005-.004a.368.368 0 01-.069-.117 1.019 1.019 0 01-.065-.29 1.153 1.153 0 01.021-.364.723.723 0 01.042-.128.275.275 0 01.029-.05l.005-.007.001-.001-.088-.085.056.107c.022-.012.032-.022.033-.022l-.088-.085.056.107-.113-.216.02.242a.247.247 0 00.092-.026l-.113-.216.021.242 2.304-.198a.668.668 0 00.609-.72.666.666 0 00-.725-.604c-.113.01-.224.037-.324.079a1.203 1.203 0 00-.429.305 1.517 1.517 0 00-.207.295 1.95 1.95 0 00-.183.493 2.447 2.447 0 00-.049.77v-.001c.018.204.058.398.121.577.095.27.241.513.454.705.107.096.231.177.372.235a1.19 1.19 0 00.552.085.667.667 0 00.611-.718.666.666 0 00-.724-.605l.057.661-.056-.662.012.143v-.143h-.012l.012.143v-.143.138l.07-.122a.155.155 0 00-.07-.016v.138l.07-.122-.026.044.03-.042-.004-.002-.026.044.03-.042-.01.014.011-.013-.01.013.01-.013-.005-.005a.367.367 0 01-.069-.117 1.02 1.02 0 01-.065-.29v-.002a1.133 1.133 0 01.021-.363.622.622 0 01.071-.177l.005-.007.001-.001-.089-.086.057.108a.11.11 0 00.032-.022l-.089-.086.057.108-.114-.216.022.242a.247.247 0 00.092-.026l-.114-.216.022.242a.667.667 0 00.609-.72.668.668 0 00-.725-.604l-2.303.198a1.07 1.07 0 00-.323.079 1.199 1.199 0 00-.43.305 1.52 1.52 0 00-.208.295c-.084.155-.143.32-.182.492a2.389 2.389 0 00-.049.77c.018.204.058.397.121.577.095.27.241.513.455.705.106.096.231.177.371.234a1.19 1.19 0 00.554.086l.422-.036 1.881-.162a.665.665 0 00.609-.718.666.666 0 00-.723-.605l.057.662-.003-.002zm.21 6.487l-.041-.164a.669.669 0 00-.807-.49.664.664 0 00-.494.802l.041.166a.67.67 0 001.301-.314l-.041-.164a.669.669 0 00-.807-.49.664.664 0 00-.494.802l.041.166a.67.67 0 001.301-.314z" fill="#4C423D"/><path d="M111.914 75.858l.076.315-.076-.315z" fill="#fff"/><path d="M111.914 75.856l-.651.154.076.316a.67.67 0 001.301-.31l-.076-.315a.669.669 0 00-.806-.49.663.663 0 00-.495.8l.651-.154-.651.154c.026.105.05.21.077.316a.67.67 0 001.301-.31l-.076-.314a.67.67 0 00-1.302.309l.651-.155v-.001z" fill="#4C423D"/><path d="M111.885 75.729l.027.115-.027-.115z" fill="#fff"/><path d="M111.884 75.73l-.652.154.028.117a.67.67 0 001.222.193.66.66 0 00.08-.502l-.027-.113a.67.67 0 00-1.303.305l.028.117a.67.67 0 001.302-.31l-.028-.112a.67.67 0 00-1.303.305l.651-.153h.002z" fill="#4C423D"/><path d="M111.65 74.74l.021.088-.021-.087z" fill="#fff"/><path d="M111.649 74.74l-.651.151.021.09a.673.673 0 00.806.494.661.661 0 00.497-.8l-.02-.085a.67.67 0 00-1.304.302l.022.09a.672.672 0 00.805.494.66.66 0 00.498-.8 2.242 2.242 0 01-.02-.085.67.67 0 00-1.304.302l.652-.151-.002-.002z" fill="#4C423D"/><path d="M111.572 74.41l.02.088a2.353 2.353 0 00-.02-.087z" fill="#fff"/><path d="M110.92 74.561l.02.09a.669.669 0 001.303-.302l-.019-.085a.67.67 0 00-1.304.297l.02.09a.669.669 0 001.303-.302l-.019-.085a.67.67 0 00-1.304.297z" fill="#4C423D"/><path d="M110 68l.052-.005c-.378.032-.639.58-.584 1.221.056.642.399 1.03.777.998l-7.947.683-5.53.475c-.226-.62-.62-1.459-1.252-2.129l1.357-.117 4.406-.378 8.721-.75v.001z" fill="#FFCFDC"/><path d="M109.999 67.997l.057.662.052-.005a.668.668 0 00.609-.718.67.67 0 00-.725-.605 1.055 1.055 0 00-.323.079 1.207 1.207 0 00-.43.305 1.517 1.517 0 00-.207.294 1.96 1.96 0 00-.183.493 2.447 2.447 0 00-.049.77c.018.204.058.397.121.577.095.27.241.513.454.705.107.095.232.176.372.234a1.19 1.19 0 00.552.086.67.67 0 00.456-.233.659.659 0 00-.081-.937.666.666 0 00-.488-.153l-7.947.683-5.53.475.058.662.629-.227a8.145 8.145 0 00-.517-1.139 6.05 6.05 0 00-.876-1.216l-.489.454.058.661 1.358-.117 4.406-.378 8.72-.75h-.001l-.057-.662-.057-.661-8.721.75-4.406.378-1.357.117a.669.669 0 00-.567.424.66.66 0 00.136.691c.268.285.496.617.68.95.186.334.329.668.433.952.104.283.385.46.687.434l5.53-.475 7.946-.683a.665.665 0 10-.113-1.324l.012.141v-.142h-.012l.012.141v-.141.138l.069-.122a.146.146 0 00-.069-.016v.138l.069-.122-.025.044.029-.042-.004-.002-.025.044.029-.042-.009.014.01-.014-.009.014.01-.014-.005-.004a.344.344 0 01-.07-.117.986.986 0 01-.065-.29v-.002a1.102 1.102 0 01.021-.362.722.722 0 01.042-.129c.011-.023.022-.04.028-.05l.006-.007.001-.001-.089-.086.056.108c.022-.011.032-.021.033-.022l-.089-.086.056.108-.113-.216.022.242a.233.233 0 00.091-.026l-.113-.216.022.242a.666.666 0 00.609-.719.669.669 0 00-.725-.605l-.051.005h-.001l.058.661-.001.002z" fill="#4C423D"/><path d="M105.622 66.223c1.13.538 2.67 1.126 3.466 1.195.41.035.692.218.913.58l-8.72.75-1.583-1.483-.497.602-.033.029-.033.027a1.987 1.987 0 01-.099.078l-.04.03a.665.665 0 01-.028.02l-.007.005c-.012.01-.024.018-.036.026a8.12 8.12 0 00-.036.026c-.013.01-.026.018-.04.027a.568.568 0 01-.034.024l-.075.05a7.765 7.765 0 01-.238.145l-.033.019-.044.025-.036.02-.042.023a1.625 1.625 0 01-.074.04l-.083.043-.04.02-.037.02a13.865 13.865 0 01-.75.346l-.023.01-.033.014-.103.045a1.817 1.817 0 00-.098.043l-.024.01c-.076.034-.147.065-.21.095l-1.358.117c-.552-.586-1.285-1.042-2.246-1.111l6.758-5.35a1.213 1.213 0 011.419-.046c1.09.736 2.987 2.129 4.176 3.486h.001z" fill="#fff"/><path d="M105.622 66.223l-.289.599c.586.279 1.27.567 1.921.8.326.116.644.218.941.298a6.8 6.8 0 00.431.102 4 4 0 00.403.059c.06.005.105.014.139.025a.335.335 0 01.121.067.682.682 0 01.139.171L110 68l-.058-.662-8.422.724-1.364-1.28a.67.67 0 00-.978.063l-.497.603.518.42-.445-.496-.026.022.438.503-.432-.508a1.004 1.004 0 01-.082.068l-.01.007-.004.004-.013.01-.03.023-.003.003a.723.723 0 00-.025.019l.004-.003-.007.005h.002l-.032.022-.034.023.389.54-.383-.544-.04.028.383.544-.377-.548a.816.816 0 00-.03.02l-.002.001-.067.044h.002l-.03.018-.002.002a4.615 4.615 0 01-.211.126l.004-.003a.53.53 0 01-.044.025h.002l-.03.016a.967.967 0 00-.043.024l.326.58-.319-.584-.035.018-.006.004-.025.013-.006.003a7.208 7.208 0 01-.075.04l-.004.001-.035.018.003-.001-.038.019.003-.002c-.212.107-.427.204-.63.294l-.084.036h.003a.401.401 0 01-.028.011c-.013.005-.02.01-.025.01l-.01.005-.102.044.27.608-.261-.612-.043.019.004-.002-.07.03.272.607-.262-.611-.03.012-.003.002c-.078.034-.152.066-.223.1l.283.601-.058-.662-1.357.117.057.662.489-.454a4.377 4.377 0 00-1.144-.882 3.876 3.876 0 00-1.542-.438l-.048.663.418.52 6.758-5.352-.418-.519.411.524a.537.537 0 01.631-.02c.532.36 1.266.883 2.006 1.477.74.594 1.488 1.264 2.041 1.896.061.07.131.123.215.163l.289-.599.506-.435c-.636-.725-1.431-1.431-2.209-2.058a32.174 32.174 0 00-2.095-1.542 1.887 1.887 0 00-2.207.07l-.006.004-6.758 5.35a.663.663 0 00.368 1.182c.387.029.715.131 1.012.286.295.156.56.368.794.617a.67.67 0 00.547.208l1.357-.117a.67.67 0 00.226-.06l.198-.088-.003.001a.846.846 0 01.015-.007h.003l.011-.005.06-.026.004-.002.022-.01.01-.004.102-.045-.27-.608.26.612.042-.017.018-.009.003-.001.09-.04c.213-.094.45-.2.695-.323l.002-.002.036-.018.003-.001.045-.023-.005.002a5.44 5.44 0 00.093-.049l-.318-.584.31.588a.905.905 0 00.049-.026l-.323-.582.317.586.04-.022.008-.004.04-.022h.001l.04-.023.003-.002.043-.024.005-.003.033-.019a5.85 5.85 0 00.225-.136l-.002.002.043-.028.003-.001.083-.055-.002.001.04-.026.005-.004.039-.027.005-.004a.968.968 0 00.079-.058h.001l.007-.005.004-.003.033-.024-.004.002.05-.037.042-.034-.424-.514.415.522.083-.067.035-.03.006-.005.04-.035a.556.556 0 00.073-.076l.042-.05 1.06.993a.67.67 0 00.517.179l8.721-.75a.662.662 0 00.514-1.006 2.135 2.135 0 00-.259-.345 1.704 1.704 0 00-.531-.388 1.88 1.88 0 00-.637-.165 2.531 2.531 0 01-.258-.038 6.39 6.39 0 01-.64-.166 18.506 18.506 0 01-2.336-.928l-.289.6.003.002z" fill="#4C423D"/><path d="M99.201 67.867l.497-.603c-.116.221-.29.421-.497.603z" fill="#fff"/><path d="M99.201 67.867l.518.42.497-.602-.518-.42-.594-.308a1.484 1.484 0 01-.345.411l.442.499.443.499c.25-.22.481-.479.647-.795a.66.66 0 00-.225-.861.672.672 0 00-.886.134l-.497.602a.659.659 0 00.054.899c.251.24.644.25.907.02l-.443-.498z" fill="#4C423D"/><path d="M99.137 67.925c.01-.01.022-.019.033-.028a.683.683 0 01-.033.028z" fill="#fff"/><path d="M99.135 67.922l.429.51.036-.03a.665.665 0 00-.376-1.169.677.677 0 00-.512.175.658.658 0 00-.092.937.67.67 0 00.944.088l-.428-.51.424.513.04-.033a.665.665 0 00-.376-1.169.677.677 0 00-.516.179.662.662 0 00-.087.933c.234.28.656.322.94.09l-.424-.513-.002-.001z" fill="#4C423D"/><path d="M99.035 67.999l.03-.024-.03.024z" fill="#fff"/><path d="M99.037 68l.411.524.043-.034a.662.662 0 00.096-.932.674.674 0 00-.955-.087l.406.528.405.528.045-.034a.663.663 0 00-.352-1.178.671.671 0 00-.492.146l-.004.004-.013.01a.662.662 0 00-.12.93.673.673 0 00.936.122L99.038 68z" fill="#4C423D"/><path d="M98.967 68.052l.03-.022a.818.818 0 01-.03.022z" fill="#fff"/><path d="M98.968 68.052l.4.532.034-.025a.66.66 0 00.128-.93.674.674 0 00-.938-.127l-.02.015a.662.662 0 00.3 1.193.67.67 0 00.497-.126l-.4-.532.395.535.038-.028a.66.66 0 00.128-.93.675.675 0 00-.963-.11.662.662 0 00-.136.928.674.674 0 00.934.14l-.396-.535h-.001z" fill="#4C423D"/><path d="M98.923 68.082l.392.538.04-.029a.661.661 0 00-.297-1.192.67.67 0 00-.526.145.66.66 0 00-.152.927.673.673 0 00.935.15l.044-.032a.66.66 0 00.14-.928.672.672 0 00-.935-.14l-.032.023a.66.66 0 00-.15.927.673.673 0 00.933.15l-.391-.539z" fill="#4C423D"/><path d="M99.277 68.65a.67.67 0 00.309-.46.665.665 0 00-.554-.763.679.679 0 00-.499.117l-.033.024a.66.66 0 00-.157.926.672.672 0 00.973.128.67.67 0 00.27-.433.665.665 0 00-.554-.762.679.679 0 00-.499.117l-.033.024a.66.66 0 00-.157.926.672.672 0 00.934.156z" fill="#4C423D"/><path d="M98.816 68.16l.036-.023-.036.024z" fill="#fff"/><path d="M98.816 68.159l.373.551.04-.026a.66.66 0 00-.258-1.202.672.672 0 00-.502.108l-.026.018a.66.66 0 00-.183.922.672.672 0 00.93.18l.042-.028a.66.66 0 00.17-.923.671.671 0 00-.929-.171l-.03.02a.66.66 0 00-.182.922.672.672 0 00.929.18l-.373-.55-.001-.001z" fill="#4C423D"/><path d="M98.703 68.233l.038-.023-.038.023z" fill="#fff"/><path d="M98.704 68.233l.36.56.042-.026a.66.66 0 00-.226-1.206.675.675 0 00-.532.11.661.661 0 00.21 1.21.669.669 0 00.506-.088l-.359-.56.356.562c.018-.011.033-.02.046-.03a.66.66 0 00-.226-1.206.674.674 0 00-.504.094l-.03.019a.66.66 0 00-.207.915.67.67 0 00.922.207l-.356-.562-.002.001z" fill="#4C423D"/><path d="M98.469 68.375c.01-.007.022-.013.033-.019-.01.007-.022.013-.033.019z" fill="#fff"/><path d="M98.467 68.374l.337.574.033-.02a.665.665 0 00-.167-1.216.68.68 0 00-.507.07l-.027.015.331.577.332.578a.672.672 0 00.349-.426.666.666 0 00-.985-.744.662.662 0 00-.275.924.673.673 0 00.912.245l-.331-.577h-.002z" fill="#4C423D"/><path d="M98.391 68.42l.326.58.04-.023a.666.666 0 00.251-.905.67.67 0 00-.912-.248l-.03.017a.662.662 0 00-.259.903c.18.32.588.436.91.257l.041-.023a.663.663 0 00-.154-1.217.674.674 0 00-.507.064l-.03.017a.662.662 0 00-.259.903c.18.32.588.436.91.257l-.326-.58-.001-.003z" fill="#4C423D"/><path d="M98.309 68.462l.038-.02-.038.02z" fill="#fff"/><path d="M98.308 68.462l.317.585.04-.021-.32-.584-.325-.58-.028.015a.661.661 0 00-.274.9c.175.323.58.444.907.27.012-.007.028-.014.046-.025a.662.662 0 00.261-.9.673.673 0 00-.94-.245.661.661 0 00-.273.9.67.67 0 00.906.27l-.316-.585z" fill="#4C423D"/><path d="M98.273 68.481l.038-.02-.038.02z" fill="#fff"/><path d="M98.275 68.481l.31.589a.67.67 0 00.369-.422.665.665 0 00-.965-.768.661.661 0 00.086 1.235.67.67 0 00.51-.046l-.31-.588.308.59.051-.028a.665.665 0 00-.135-1.22.68.68 0 00-.51.056l-.024.013a.661.661 0 00-.283.896.67.67 0 00.901.282l-.308-.59v.001z" fill="#4C423D"/><path d="M98.148 68.545l.041-.021-.04.02z" fill="#fff"/><path d="M98.15 68.544l.308.59.045-.023a.663.663 0 00-.115-1.221.677.677 0 00-.51.046l-.035.018a.662.662 0 00-.288.896c.17.326.574.453.903.285l.045-.024a.663.663 0 00-.115-1.222.677.677 0 00-.51.048l-.035.018a.662.662 0 00-.288.895c.17.327.574.453.903.285l-.307-.59z" fill="#4C423D"/><path d="M98.115 68.564l.038-.019-.038.02z" fill="#fff"/><path d="M98.116 68.563l.305.591.037-.017a.664.664 0 00-.1-1.223.678.678 0 00-.51.04l-.038.019a.662.662 0 00-.29.894.672.672 0 00.9.287l.037-.017a.664.664 0 00-.1-1.223.678.678 0 00-.51.04l-.038.019a.662.662 0 00-.29.894.672.672 0 00.901.287l-.306-.59h.002z" fill="#4C423D"/><path d="M97.31 68.935a.723.723 0 00.035-.015l-.034.015z" fill="#fff"/><path d="M97.31 68.934l.261.612a.673.673 0 00.396-.384.662.662 0 00-.38-.86.676.676 0 00-.512.01l-.029.013a.662.662 0 00-.351.87.67.67 0 00.877.351l-.261-.612.264.61.037-.015a.662.662 0 00-.025-1.227.676.676 0 00-.512.01l-.026.012a.663.663 0 00.013 1.229.669.669 0 00.513-.007l-.264-.61v-.002z" fill="#4C423D"/><path d="M91.114 69.622l.653 2.18-.984.084-2.761-.88 2.568-1.34.524-.044z" fill="#FFCFDC"/><path d="M91.113 69.622l-.642.19.42 1.399-.032.003-1.115-.356 1.036-.54.39-.034-.057-.661-.058-.662-.524.046a.665.665 0 00-.253.073l-2.569 1.34a.665.665 0 00-.355.645.668.668 0 00.462.575l2.761.88a.664.664 0 00.263.03l.984-.084a.67.67 0 00.495-.289.662.662 0 00.088-.563l-.653-2.18a.67.67 0 00-.7-.472l.058.662v-.002zm21.185-2.488l-2.304.198a.666.666 0 00-.609.72.668.668 0 00.725.604l2.303-.198a.665.665 0 10-.115-1.324zm.193 2.219l-1.882.162-.421.036a.666.666 0 00-.609.72.668.668 0 00.725.604l.421-.037 1.882-.162a.666.666 0 00.609-.719.668.668 0 00-.725-.604z" fill="#4C423D"/><path d="M91.708 71.14l-.85.072-1.115-.355 1.037-.54.39-.034a.665.665 0 00.61-.719.668.668 0 00-.725-.604l-.524.045a.665.665 0 00-.253.074l-2.569 1.339a.665.665 0 00-.355.646.668.668 0 00.462.575l2.761.88a.666.666 0 00.263.03l.984-.085a.666.666 0 00.609-.719.668.668 0 00-.725-.604v-.002zm3.865-1.237l1.357-.116 4.406-.379 8.72-.75.051-.005a.668.668 0 00.61-.718.67.67 0 00-.725-.605 1.07 1.07 0 00-.323.079 1.207 1.207 0 00-.43.305 1.473 1.473 0 00-.207.295c-.085.155-.144.32-.183.492a2.447 2.447 0 00-.05.77c.018.204.059.397.122.577.095.27.241.513.454.705.106.096.232.177.371.234a1.196 1.196 0 00.553.086.665.665 0 10-.113-1.323l-7.947.683-5.53.475a.666.666 0 00-.61.72.668.668 0 00.726.604l5.53-.475 7.946-.683a.665.665 0 10-.113-1.324l.012.141v-.142h-.012l.012.141v-.141.138l.069-.122a.146.146 0 00-.069-.016v.138l.069-.122-.025.044.029-.042-.004-.002-.025.044.029-.042-.009.014.01-.014-.009.014.01-.014-.005-.004a.362.362 0 01-.07-.117.986.986 0 01-.065-.29v-.002a1.102 1.102 0 01.021-.362.72.72 0 01.042-.129c.011-.023.022-.04.028-.05l.006-.007.001-.001-.089-.086.056.108c.022-.011.032-.021.033-.022l-.089-.086.056.108-.113-.216.022.242a.233.233 0 00.091-.026l-.113-.216.022.242a.666.666 0 00.609-.719.669.669 0 00-.725-.605l-.051.005h-.001l-8.72.75-4.406.378-1.358.117a.666.666 0 00-.609.72.668.668 0 00.725.604zm16.78-2.107l.058.661-.023-.262v.263l.023-.001-.023-.262v.263-.237l-.075.225a.247.247 0 00.075.012v-.237l-.075.225.044-.134-.075.12a.147.147 0 00.031.014l.044-.134-.075.12.017-.027-.019.026.003.002.017-.028-.02.026s.015.012.034.037a.71.71 0 01.096.187 1.205 1.205 0 01.044.62.374.374 0 01-.047.11h-.001l.066.064-.04-.08a.116.116 0 00-.026.017l.066.063-.04-.08.071.143-.014-.159a.162.162 0 00-.058.016l.071.143-.014-.159h.001l.012.15v-.15h-.012l.012.15v-.15.138l.07-.123a.15.15 0 00-.07-.016v.138l.07-.122-.025.045.028-.042-.004-.002-.025.044.029-.041-.01.014.01-.014-.01.014.011-.014-.005-.004a.37.37 0 01-.069-.116.982.982 0 01-.065-.29 1.157 1.157 0 01.021-.364.697.697 0 01.042-.128c.011-.024.022-.04.028-.05l.006-.007.001-.001-.089-.086.056.108a.088.088 0 00.033-.022l-.089-.085.056.108-.113-.216.022.241a.233.233 0 00.091-.026l-.113-.216.022.242-.059-.662-.057-.661a1.08 1.08 0 00-.323.079 1.195 1.195 0 00-.429.305 1.478 1.478 0 00-.208.294c-.084.156-.143.32-.183.493a2.448 2.448 0 00-.049.77c.018.204.058.397.121.578.095.27.241.513.454.705.107.095.232.176.372.234a1.193 1.193 0 00.553.086h.001c.199-.017.391-.086.55-.19.12-.08.222-.176.306-.282.127-.16.214-.341.271-.533.057-.192.085-.395.085-.608a2.587 2.587 0 00-.131-.81 2.148 2.148 0 00-.175-.393 1.607 1.607 0 00-.425-.491 1.213 1.213 0 00-.313-.172 1.118 1.118 0 00-.478-.065l.058.662.002-.004z" fill="#4C423D"/><path d="M99.408 73.894l-1.879-2.097-.5.44.656-.131a8.174 8.174 0 00-.804-2.102 6.054 6.054 0 00-.875-1.216 4.377 4.377 0 00-1.144-.882 3.878 3.878 0 00-1.845-.449c-.436 0-.9.066-1.388.206a1.711 1.711 0 00-.9.62 1.691 1.691 0 00-.265 1.496l.01.032.653 2.18.511 1.705c.076.252.18.494.313.722l4.045 6.979a4.84 4.84 0 002.089 1.932l6.832 3.287c.27.13.474.362.567.645l.186.567a.67.67 0 00.844.425.663.663 0 00.429-.837l-.186-.567a2.426 2.426 0 00-1.255-1.428l-6.833-3.288a3.502 3.502 0 01-1.512-1.398l-4.046-6.98a2.031 2.031 0 01-.19-.437l-.51-1.706-.653-2.18-.01-.032a.363.363 0 01.058-.325.37.37 0 01.196-.134c.38-.109.716-.154 1.016-.154a2.539 2.539 0 011.218.294c.296.155.56.367.795.616.268.284.496.617.68.95a6.81 6.81 0 01.655 1.679l.009.038.001.008v.001l.345-.07-.345.069a.667.667 0 00.156.309l1.879 2.097a.673.673 0 00.945.055.66.66 0 00.056-.938l-.004-.001z" fill="#4C423D"/><path d="M99.408 73.894a.673.673 0 00-.945-.056.66.66 0 00-.056.938l1.478 1.65a.673.673 0 00.945.055.66.66 0 00.055-.938l-1.477-1.65zm-5.689-5.269l-.448-.494.418.52 6.758-5.351-.418-.52.411.524a.537.537 0 01.631-.02c.532.36 1.266.883 2.006 1.478.74.593 1.488 1.263 2.041 1.895.309.353.556.694.709.986.17.325.575.451.903.282a.661.661 0 00.284-.896c-.224-.426-.531-.837-.885-1.243-.636-.725-1.431-1.43-2.209-2.056a32.449 32.449 0 00-2.095-1.543 1.887 1.887 0 00-2.207.07l-.007.004-6.758 5.35-.03.026a.66.66 0 00-.05.938.674.674 0 00.946.05zm16.294 1.685c.174.827.374 1.885.665 3.19.05.225.103.457.158.696v.001l.016.07v.001l.068.291.021.089v-.002l.056.242.021.09v-.002l.118.498v.002l.034.142.063.263v-.002l.028.117v-.003l.002.012v.003l.077.316.032.137v.003l.026.1v-.004c.006.03.013.06.021.088l.04.166.155.629v-.002l.039.163.008.03.002.008.028.113.001.004.042.165.059.24.12.48.02.082v-.002l.297 1.182.071.279v-.002l.063.245.038.15.037.147.056.22v-.002l.019.075-.001-.004.019.074.061.24.025.095v.002l.012.046.001.004.052.2v.002l.061.238v-.001l.035.133v-.001l.016.066v.003c.079.3.152.582.219.843a.67.67 0 001.297-.332l-.218-.84v.002l-.017-.071v-.001a5.226 5.226 0 01-.034-.128v-.002a11.296 11.296 0 01-.061-.238v.001l-.052-.203.001.004-.014-.055v.002a5.22 5.22 0 01-.024-.098l-.061-.237-.018-.07-.002-.004-.017-.068v-.002a12.726 12.726 0 01-.056-.217l-.038-.147a7.947 7.947 0 01-.037-.148l-.062-.243v-.001a302.107 302.107 0 01-.368-1.457v-.002c-.007-.023-.013-.05-.02-.078l-.119-.477-.06-.24-.041-.168.001.004-.031-.123-.649.16.651-.152-.01-.043a5.382 5.382 0 01-.039-.158v-.002l-.155-.626-.04-.165-.02-.083v-.004l-.026-.1v.002l-.032-.138-.076-.314v.003l-.002-.011v-.004l-.028-.113v-.002a22.194 22.194 0 00-.064-.261l-.034-.144v.001a93.993 93.993 0 00-.117-.495v-.002a15.22 15.22 0 01-.021-.085l-.055-.24v-.002c-.008-.028-.014-.057-.02-.084l-.067-.29v.002l-.017-.074v.002l-.155-.688c-.287-1.284-.484-2.326-.662-3.174a.67.67 0 00-1.311.271l-.001.002z" fill="#4C423D"/><path d="M105.335 66.822c.586.278 1.27.567 1.921.8.326.115.644.218.941.297.149.04.293.074.431.102.139.027.272.048.404.06a.618.618 0 01.138.025.329.329 0 01.121.067.681.681 0 01.139.17l.009.015.001.002a.673.673 0 00.925.2.661.661 0 00.202-.918l-.001-.002-.564.36.572-.346a2.126 2.126 0 00-.259-.344 1.712 1.712 0 00-.53-.389 1.886 1.886 0 00-.638-.164 2.59 2.59 0 01-.258-.038 6.59 6.59 0 01-.639-.166 18.416 18.416 0 01-2.336-.928.672.672 0 00-.893.311.662.662 0 00.314.886zm-8.18 2.908l.198-.088-.003.002.028-.012h.002a1.43 1.43 0 01.06-.027l.004-.002.03-.013h.002c.031-.015.066-.03.103-.045l-.27-.608.26.612a.955.955 0 01.041-.018l.019-.008.003-.002.089-.039c.214-.094.45-.201.695-.324l.003-.001.036-.018.002-.001.045-.024-.004.002a5.44 5.44 0 00.092-.048l-.317-.585.31.589a.868.868 0 00.049-.026l-.323-.582.317.585.04-.021.007-.004c.011-.006.025-.013.04-.023h.002l.04-.023.002-.001a.53.53 0 01.044-.025l.005-.002.032-.019c.075-.043.15-.088.225-.136l-.001.001.043-.027.002-.001.083-.055h-.002c.018-.01.03-.02.04-.026l.005-.004.04-.026.004-.004a.968.968 0 00.08-.058l.007-.005.004-.003a1.48 1.48 0 00.033-.025l-.003.003.049-.037.043-.034-.424-.514.414.521.083-.067c.014-.01.025-.02.036-.03l.006-.004.04-.036a.66.66 0 00.055-.937.673.673 0 00-.945-.056l-.026.023.438.502-.432-.507a.692.692 0 00-.028.024h-.001l-.053.044-.01.007-.003.003-.014.01-.03.024-.003.003a.94.94 0 00-.025.018l.004-.002-.007.004h.002l-.032.022-.033.023.388.541-.383-.545-.04.028.383.545-.377-.549-.03.02-.001.002-.068.044.002-.001-.03.019-.002.001a4.446 4.446 0 01-.211.126l.005-.002-.045.025.002-.001-.03.016h.001a.836.836 0 00-.044.024l.326.58-.319-.584a4.14 4.14 0 01-.035.019l-.006.003-.024.014-.007.003-.074.039-.005.002-.035.018.003-.001-.038.018.003-.001c-.212.106-.427.204-.63.294l-.084.036.003-.001a.395.395 0 01-.028.012l-.025.01-.01.004-.102.045h.002l-.036.014.004-.002-.07.03h.001a.332.332 0 00-.02.009l-.004.001-.222.1a.662.662 0 00-.324.882.672.672 0 00.89.321l-.001.004z" fill="#4C423D"/><path d="M98.675 67.218l.564.528 1.582 1.484c.269.252.692.24.947-.026a.661.661 0 00-.027-.94l-1.583-1.483-.564-.529a.674.674 0 00-.947.027.661.661 0 00.027.939zM98.906 75v-.665L98.88 75h.042c.128 0 .232-.02.33-.047.093-.025.18-.057.266-.094.162-.069.325-.156.495-.258.296-.18.612-.408.928-.67a8.504 8.504 0 001.322-1.361c.188-.25.352-.51.479-.78.063-.137.116-.276.156-.42a2.04 2.04 0 00.071-.453.667.667 0 00-.648-.685.666.666 0 00-.69.643.883.883 0 01-.078.297 2.45 2.45 0 01-.212.389 5.42 5.42 0 01-.635.775 7.884 7.884 0 01-1.182.999 3.693 3.693 0 01-.476.28 1.066 1.066 0 01-.153.058l-.005.002.005.027-.004-.027h-.001l.005.027-.004-.027.032.208v-.21a.175.175 0 00-.032.002l.032.208v-.21.312l.013-.311h-.013v.311l.013-.311h-.027c-.37 0-.67.297-.67.664 0 .366.3.664.67.664L98.907 75zm8.077 14.794l-.576-1.5.135-.05 7.845-2.967.656-.248.575 1.5a.672.672 0 00.864.385.663.663 0 00.388-.858l-.814-2.12a.673.673 0 00-.864-.384l-1.281.484-7.845 2.966-.76.288a.663.663 0 00-.387.857l.814 2.12a.67.67 0 00.864.384.662.662 0 00.387-.857h-.001z" fill="#4C423D"/><path d="M107.132 93.972l-1.182-3.078.646-.245 9.886-3.738.68-.257 1.182 3.078a.67.67 0 00.864.384.664.664 0 00.387-.857l-1.421-3.698a.668.668 0 00-.863-.384l-1.305.493-9.886 3.738-1.271.481a.663.663 0 00-.387.858l1.42 3.698a.67.67 0 00.864.384.662.662 0 00.387-.857h-.001z" fill="#4C423D"/></g><g filter="url(#filter0_d_10944_62762)"><mask id="a" maskUnits="userSpaceOnUse" x="0" y="5.471" width="45" height="30" fill="#000"><path fill="#fff" d="M0 5.471h45v30H0z"/><path d="M11.608 34.871c-2.293 0-4.24-.6-5.84-1.8-1.573-1.226-2.773-2.92-3.6-5.08-.827-2.186-1.24-4.693-1.24-7.52 0-2.853.413-5.36 1.24-7.52.827-2.16 2.027-3.84 3.6-5.04 1.6-1.226 3.547-1.84 5.84-1.84 2.293 0 4.227.614 5.8 1.84 1.6 1.2 2.813 2.88 3.64 5.04s1.24 4.667 1.24 7.52c0 2.827-.413 5.334-1.24 7.52-.826 2.16-2.04 3.854-3.64 5.08-1.573 1.2-3.507 1.8-5.8 1.8zm0-4.8c1.12 0 2.08-.347 2.88-1.04.827-.72 1.467-1.787 1.92-3.2.453-1.44.68-3.226.68-5.36 0-2.16-.227-3.947-.68-5.36-.453-1.413-1.093-2.466-1.92-3.16-.8-.72-1.76-1.08-2.88-1.08-1.093 0-2.053.36-2.88 1.08-.827.694-1.467 1.747-1.92 3.16-.453 1.413-.68 3.2-.68 5.36 0 2.134.227 3.92.68 5.36.453 1.413 1.093 2.48 1.92 3.2a4.347 4.347 0 002.88 1.04zm30.61 0c.64 0 1.174.213 1.6.64.427.427.64.96.64 1.6 0 .614-.213 1.133-.64 1.56-.426.4-.96.6-1.6.6h-13.6c-.693 0-1.24-.213-1.64-.64-.4-.427-.6-.973-.6-1.64 0-.667.24-1.253.72-1.76l8.72-9.32c.987-1.067 1.76-2.16 2.32-3.28.587-1.12.88-2.093.88-2.92 0-1.333-.386-2.4-1.16-3.2-.773-.827-1.8-1.24-3.08-1.24-.506 0-1.026.12-1.56.36a6.698 6.698 0 00-1.56 1c-.48.427-.933.92-1.36 1.48-.32.427-.64.694-.96.8-.32.107-.613.16-.88.16-.586 0-1.133-.213-1.64-.64-.48-.453-.72-.973-.72-1.56 0-.453.147-.893.44-1.32.32-.426.707-.866 1.16-1.32a12.085 12.085 0 012.24-1.76c.827-.506 1.68-.893 2.56-1.16a8.077 8.077 0 012.56-.44c1.787 0 3.334.36 4.64 1.08a7.267 7.267 0 013.08 3c.72 1.28 1.08 2.8 1.08 4.56 0 1.467-.44 3.107-1.32 4.92-.853 1.787-2.013 3.467-3.48 5.04l-5.4 5.76-.44-.36h9z"/></mask><path d="M11.608 34.871c-2.293 0-4.24-.6-5.84-1.8-1.573-1.226-2.773-2.92-3.6-5.08-.827-2.186-1.24-4.693-1.24-7.52 0-2.853.413-5.36 1.24-7.52.827-2.16 2.027-3.84 3.6-5.04 1.6-1.226 3.547-1.84 5.84-1.84 2.293 0 4.227.614 5.8 1.84 1.6 1.2 2.813 2.88 3.64 5.04s1.24 4.667 1.24 7.52c0 2.827-.413 5.334-1.24 7.52-.826 2.16-2.04 3.854-3.64 5.08-1.573 1.2-3.507 1.8-5.8 1.8zm0-4.8c1.12 0 2.08-.347 2.88-1.04.827-.72 1.467-1.787 1.92-3.2.453-1.44.68-3.226.68-5.36 0-2.16-.227-3.947-.68-5.36-.453-1.413-1.093-2.466-1.92-3.16-.8-.72-1.76-1.08-2.88-1.08-1.093 0-2.053.36-2.88 1.08-.827.694-1.467 1.747-1.92 3.16-.453 1.413-.68 3.2-.68 5.36 0 2.134.227 3.92.68 5.36.453 1.413 1.093 2.48 1.92 3.2a4.347 4.347 0 002.88 1.04zm30.61 0c.64 0 1.174.213 1.6.64.427.427.64.96.64 1.6 0 .614-.213 1.133-.64 1.56-.426.4-.96.6-1.6.6h-13.6c-.693 0-1.24-.213-1.64-.64-.4-.427-.6-.973-.6-1.64 0-.667.24-1.253.72-1.76l8.72-9.32c.987-1.067 1.76-2.16 2.32-3.28.587-1.12.88-2.093.88-2.92 0-1.333-.386-2.4-1.16-3.2-.773-.827-1.8-1.24-3.08-1.24-.506 0-1.026.12-1.56.36a6.698 6.698 0 00-1.56 1c-.48.427-.933.92-1.36 1.48-.32.427-.64.694-.96.8-.32.107-.613.16-.88.16-.586 0-1.133-.213-1.64-.64-.48-.453-.72-.973-.72-1.56 0-.453.147-.893.44-1.32.32-.426.707-.866 1.16-1.32a12.085 12.085 0 012.24-1.76c.827-.506 1.68-.893 2.56-1.16a8.077 8.077 0 012.56-.44c1.787 0 3.334.36 4.64 1.08a7.267 7.267 0 013.08 3c.72 1.28 1.08 2.8 1.08 4.56 0 1.467-.44 3.107-1.32 4.92-.853 1.787-2.013 3.467-3.48 5.04l-5.4 5.76-.44-.36h9z" fill="url(#paint1_linear_10944_62762)"/><path d="M11.608 34.871c-2.293 0-4.24-.6-5.84-1.8-1.573-1.226-2.773-2.92-3.6-5.08-.827-2.186-1.24-4.693-1.24-7.52 0-2.853.413-5.36 1.24-7.52.827-2.16 2.027-3.84 3.6-5.04 1.6-1.226 3.547-1.84 5.84-1.84 2.293 0 4.227.614 5.8 1.84 1.6 1.2 2.813 2.88 3.64 5.04s1.24 4.667 1.24 7.52c0 2.827-.413 5.334-1.24 7.52-.826 2.16-2.04 3.854-3.64 5.08-1.573 1.2-3.507 1.8-5.8 1.8zm0-4.8c1.12 0 2.08-.347 2.88-1.04.827-.72 1.467-1.787 1.92-3.2.453-1.44.68-3.226.68-5.36 0-2.16-.227-3.947-.68-5.36-.453-1.413-1.093-2.466-1.92-3.16-.8-.72-1.76-1.08-2.88-1.08-1.093 0-2.053.36-2.88 1.08-.827.694-1.467 1.747-1.92 3.16-.453 1.413-.68 3.2-.68 5.36 0 2.134.227 3.92.68 5.36.453 1.413 1.093 2.48 1.92 3.2a4.347 4.347 0 002.88 1.04zm30.61 0c.64 0 1.174.213 1.6.64.427.427.64.96.64 1.6 0 .614-.213 1.133-.64 1.56-.426.4-.96.6-1.6.6h-13.6c-.693 0-1.24-.213-1.64-.64-.4-.427-.6-.973-.6-1.64 0-.667.24-1.253.72-1.76l8.72-9.32c.987-1.067 1.76-2.16 2.32-3.28.587-1.12.88-2.093.88-2.92 0-1.333-.386-2.4-1.16-3.2-.773-.827-1.8-1.24-3.08-1.24-.506 0-1.026.12-1.56.36a6.698 6.698 0 00-1.56 1c-.48.427-.933.92-1.36 1.48-.32.427-.64.694-.96.8-.32.107-.613.16-.88.16-.586 0-1.133-.213-1.64-.64-.48-.453-.72-.973-.72-1.56 0-.453.147-.893.44-1.32.32-.426.707-.866 1.16-1.32a12.085 12.085 0 012.24-1.76c.827-.506 1.68-.893 2.56-1.16a8.077 8.077 0 012.56-.44c1.787 0 3.334.36 4.64 1.08a7.267 7.267 0 013.08 3c.72 1.28 1.08 2.8 1.08 4.56 0 1.467-.44 3.107-1.32 4.92-.853 1.787-2.013 3.467-3.48 5.04l-5.4 5.76-.44-.36h9z" fill="url(#paint2_linear_10944_62762)"/><path d="M5.768 33.071l-.307.395.007.005.3-.4zm-3.6-5.08l-.468.177.001.002.467-.179zm0-15.04l-.467-.178.467.178zm3.6-5.04l.303.398.001-.001-.304-.397zm11.64 0l-.307.395.007.005.3-.4zm3.64 5.04l.467-.178-.467.178zm0 15.04l.467.179v-.002l-.467-.177zm-3.64 5.08l.303.398.001-.001-.304-.397zm-2.92-4.04l.328.378-.328-.378zm1.92-3.2l.476.153.001-.003-.477-.15zm0-10.72l-.476.153.476-.153zm-1.92-3.16l-.334.372.006.006.007.005.321-.383zm-5.76 0l.321.383.008-.006-.329-.377zm-1.92 3.16l-.476-.152.476.152zm0 10.72l-.477.15.001.003.476-.153zm1.92 3.2l-.328.377.007.006.321-.383zm2.88 5.34c-2.202 0-4.039-.574-5.54-1.7l-.6.8c1.699 1.274 3.755 1.9 6.14 1.9v-1zm-5.532-1.694c-1.491-1.162-2.642-2.776-3.44-4.864l-.935.357c.854 2.231 2.104 4.004 3.76 5.295l.615-.788zm-3.44-4.863c-.802-2.12-1.208-4.564-1.208-7.343h-1c0 2.875.42 5.443 1.272 7.697l.936-.354zm-1.208-7.343c0-2.806.407-5.25 1.207-7.341l-.934-.357C.848 15 .428 17.57.428 20.47h1zm1.207-7.341c.8-2.088 1.949-3.687 3.436-4.821l-.606-.795C3.806 8.779 2.555 10.54 1.7 12.773l.934.357zm3.437-4.822c1.501-1.15 3.337-1.737 5.536-1.737v-1c-2.387 0-4.445.64-6.144 1.943l.608.794zm5.536-1.737c2.2 0 4.02.586 5.493 1.735l.615-.79c-1.674-1.304-3.72-1.945-6.108-1.945v1zm5.5 1.74c1.514 1.135 2.675 2.733 3.473 4.819l.934-.357c-.855-2.234-2.12-3.997-3.807-5.262l-.6.8zm3.473 4.819c.8 2.091 1.207 4.535 1.207 7.341h1c0-2.9-.42-5.47-1.273-7.698l-.934.357zm1.207 7.341c0 2.779-.406 5.224-1.208 7.343l.936.354c.852-2.254 1.272-4.822 1.272-7.697h-1zm-1.207 7.341c-.798 2.087-1.96 3.7-3.477 4.862l.608.794c1.684-1.29 2.948-3.065 3.803-5.298l-.934-.358zm-3.476 4.862c-1.473 1.123-3.295 1.697-5.497 1.697v1c2.385 0 4.43-.626 6.103-1.902l-.606-.795zm-5.497-2.103c1.233 0 2.311-.385 3.208-1.162l-.655-.756c-.704.61-1.546.918-2.553.918v1zm3.208-1.163c.916-.797 1.597-1.954 2.068-3.424l-.952-.306c-.435 1.357-1.035 2.334-1.772 2.976l.656.754zm2.069-3.427c.473-1.504.703-3.345.703-5.51h-1c0 2.102-.224 3.834-.657 5.21l.954.3zm.703-5.51c0-2.19-.23-4.033-.704-5.512l-.952.305c.432 1.347.656 3.078.656 5.207h1zm-.704-5.512c-.471-1.471-1.153-2.618-2.075-3.39l-.642.765c.732.614 1.33 1.574 1.765 2.93l.952-.305zm-2.061-3.38c-.896-.806-1.977-1.208-3.215-1.208v1c1.002 0 1.841.318 2.546.952l.669-.744zm-3.215-1.208A4.75 4.75 0 008.4 11.574l.657.754a3.752 3.752 0 012.551-.957v-1zm-3.201 1.197c-.921.773-1.603 1.92-2.075 3.39l.952.306c.435-1.356 1.033-2.316 1.765-2.93l-.642-.766zm-2.075 3.39c-.475 1.48-.704 3.323-.704 5.513h1c0-2.13.224-3.86.656-5.207l-.952-.305zm-.704 5.513c0 2.165.23 4.006.703 5.51l.954-.3c-.433-1.376-.657-3.108-.657-5.21h-1zm.704 5.513c.472 1.47 1.152 2.627 2.068 3.424l.657-.754c-.738-.642-1.338-1.62-1.773-2.976l-.952.306zm2.075 3.43a4.847 4.847 0 003.201 1.157v-1a3.848 3.848 0 01-2.559-.923l-.642.766zm35.411 1.297l.354-.353-.354.353zm0 3.16l.342.365.006-.006.006-.005-.354-.354zm-16.84-.04l.365-.342-.365.342zm.12-3.4l.363.344.003-.002-.366-.342zm8.72-9.32l.366.342.002-.002-.368-.34zm2.32-3.28l-.443-.232-.004.009.447.223zm-.28-6.12l-.365.342.006.006.36-.348zm-4.64-.88l-.205-.456.205.456zm-1.56 1l-.322-.382-.01.008.332.374zm-1.36 1.48l-.397-.303-.003.003.4.3zm-.96.8l.159.474-.159-.474zm-2.52-.48l-.343.364.01.01.011.009.322-.383zm-.28-2.88l-.4-.3-.006.008-.006.009.412.283zm1.16-1.32l-.353-.353.353.353zm4.8-2.92l.146.479.013-.004-.159-.475zm7.2.64l-.24.438.01.006.23-.444zm3.08 3l-.438.242.003.003.435-.245zm-.24 9.48l-.45-.218v.003l.45.215zm-3.48 5.04l.365.342h.001l-.366-.342zm-5.4 5.76l-.316.387.361.296.32-.34-.365-.343zm-.44-.36v-.5h-1.4l1.084.887.316-.387zm9 .5c.517 0 .92.167 1.247.494l.707-.707c-.527-.527-1.19-.787-1.954-.787v1zm1.247.494c.327.326.493.73.493 1.246h1c0-.764-.26-1.427-.786-1.953l-.707.707zm.493 1.246c0 .483-.162.876-.493 1.207l.707.707c.522-.522.786-1.17.786-1.914h-1zm-.481 1.195c-.325.305-.732.465-1.259.465v1c.754 0 1.414-.24 1.942-.735l-.683-.73zm-1.259.465h-13.6v1h13.6v-1zm-13.6 0c-.582 0-.987-.175-1.275-.482l-.73.684c.513.546 1.202.798 2.005.798v-1zm-1.275-.482c-.3-.32-.465-.739-.465-1.298h-1c0 .775.236 1.45.736 1.982l.73-.684zm-.465-1.298c0-.532.187-.997.583-1.416l-.726-.688c-.563.595-.857 1.303-.857 2.104h1zm.585-1.418l8.72-9.32-.73-.683-8.72 9.32.73.683zm8.722-9.322c1.014-1.096 1.816-2.228 2.4-3.396l-.894-.447c-.536 1.071-1.28 2.126-2.24 3.164l.734.679zm2.396-3.388c.606-1.157.937-2.213.937-3.152h-1c0 .714-.255 1.605-.822 2.688l.885.464zm.937-3.152c0-1.435-.42-2.636-1.3-3.547l-.72.695c.667.689 1.02 1.621 1.02 2.852h1zm-1.294-3.541c-.881-.942-2.047-1.399-3.446-1.399v1c1.162 0 2.05.37 2.715 1.082l.73-.683zm-3.446-1.4c-.587 0-1.177.14-1.765.404l.41.912c.48-.215.93-.316 1.355-.316v-1zm-1.765.404a7.18 7.18 0 00-1.677 1.074l.645.765a6.2 6.2 0 011.443-.927l-.41-.912zm-1.687 1.082c-.506.45-.98.968-1.425 1.551l.795.606a9.915 9.915 0 011.295-1.41l-.665-.747zm-1.428 1.554c-.291.39-.535.565-.718.626l.317.948c.457-.152.853-.51 1.201-.974l-.8-.6zm-.718.626a2.309 2.309 0 01-.722.134v1c.333 0 .68-.066 1.039-.186l-.317-.948zm-.722.134c-.453 0-.889-.161-1.317-.522l-.645.765c.585.492 1.243.757 1.962.757v-1zm-1.296-.503c-.394-.372-.564-.766-.564-1.197h-1c0 .742.31 1.389.877 1.924l.687-.727zm-.564-1.197c0-.338.108-.681.353-1.037l-.825-.566c-.342.498-.528 1.035-.528 1.603h1zm.34-1.02c.304-.404.674-.826 1.114-1.266l-.707-.707c-.467.466-.87.924-1.207 1.373l.8.6zm1.114-1.266c.638-.638 1.354-1.2 2.148-1.688l-.523-.852a12.578 12.578 0 00-2.332 1.833l.707.707zM30.2 8.097a10.487 10.487 0 012.443-1.107l-.29-.957c-.923.28-1.815.684-2.676 1.212l.523.852zm2.457-1.111a7.577 7.577 0 012.401-.415v-1c-.886 0-1.793.158-2.718.466l.317.949zm2.401-.415c1.72 0 3.18.346 4.4 1.018l.482-.876c-1.394-.768-3.027-1.142-4.882-1.142v1zm4.41 1.024a6.767 6.767 0 012.872 2.798l.876-.483a7.767 7.767 0 00-3.287-3.202l-.461.887zm2.875 2.801c.67 1.192 1.015 2.624 1.015 4.315h1c0-1.829-.374-3.437-1.144-4.805l-.871.49zm1.015 4.315c0 1.368-.41 2.933-1.27 4.702l.9.436c.902-1.857 1.37-3.573 1.37-5.138h-1zm-1.27 4.705c-.83 1.737-1.96 3.375-3.395 4.914l.731.682c1.499-1.607 2.688-3.329 3.566-5.165l-.903-.431zm-3.394 4.913l-5.4 5.76.73.684 5.4-5.76-.73-.684zm-4.719 5.715l-.44-.36-.633.774.44.36.633-.774zm-.757.527h9v-1h-9v1z" fill="#221A15" mask="url(#a)"/></g></g><path fill="#221A15" d="M86 173.471h2v90h-2z"/><defs><linearGradient id="paint0_linear_10944_62762" x1="1.429" y1="-6.274" x2="173.27" y2="4.508" gradientUnits="userSpaceOnUse"><stop stop-color="#FFD7E8"/><stop offset=".5" stop-color="#FFDCD1"/><stop offset="1" stop-color="#FFF1A7"/></linearGradient><linearGradient id="paint1_linear_10944_62762" x1="-1" y1="-.529" x2="49.476" y2="2.888" gradientUnits="userSpaceOnUse"><stop stop-color="#FFF9EC"/><stop offset=".507" stop-color="#FFE9B8"/><stop offset="1" stop-color="#FFF9EA"/></linearGradient><linearGradient id="paint2_linear_10944_62762" x1="41.814" y1="-3.728" x2="33.107" y2="44.444" gradientUnits="userSpaceOnUse"><stop stop-color="#FFD8E8"/><stop offset=".5" stop-color="#FFCABA"/><stop offset="1" stop-color="#FFEF9B"/></linearGradient><clipPath id="clip0_10944_62762"><path fill="#fff" transform="translate(0 .471)" d="M0 0h174v174H0z"/></clipPath><clipPath id="clip1_10944_62762"><path fill="#fff" transform="translate(65 37.471)" d="M0 0h55v61H0z"/></clipPath><filter id="filter0_d_10944_62762" x=".428" y="5.571" width="46.531" height="31.8" filterUnits="userSpaceOnUse" color-interpolation-filters="sRGB"><feFlood flood-opacity="0" result="BackgroundImageFix"/><feColorMatrix in="SourceAlpha" values="0 0 0 0 0 0 0 0 0 0 0 0 0 0 0 0 0 0 127 0" result="hardAlpha"/><feOffset dx="2" dy="2"/><feComposite in2="hardAlpha" operator="out"/><feColorMatrix values="0 0 0 0 0.133333 0 0 0 0 0.101961 0 0 0 0 0.0823529 0 0 0 1 0"/><feBlend in2="BackgroundImageFix" result="effect1_dropShadow_10944_62762"/><feBlend in="SourceGraphic" in2="effect1_dropShadow_10944_62762" result="shape"/></filter></defs></svg>