<svg width="48" height="50" fill="none" xmlns="http://www.w3.org/2000/svg"><g clip-path="url(#clip0_10944_61300)" fill="#FFE236" stroke="#414141" stroke-width="2" stroke-linecap="round" stroke-linejoin="round"><path d="M2.086 17.005c-.47.153-.47.837 0 .99 8.766 2.836 11.319 5.588 13.911 15.085.137.501.869.501 1.006 0 2.592-9.497 5.145-12.249 13.91-15.085.472-.153.472-.837 0-.99-8.765-2.836-11.318-5.588-13.91-15.085-.137-.501-.869-.501-1.006 0-2.592 9.497-5.145 12.249-13.91 15.085zM31.05 39.493c-.465.163-.465.849 0 1.012 4.156 1.46 5.61 3.032 6.93 7.548.146.5.894.5 1.04 0 1.32-4.516 2.774-6.087 6.93-7.548.464-.163.465-.849 0-1.012-4.156-1.465-5.61-3.031-6.93-7.547-.146-.5-.894-.5-1.04 0-1.32 4.516-2.774 6.082-6.93 7.547z"/></g><defs><clipPath id="clip0_10944_61300"><path fill="#fff" transform="matrix(-1 0 0 1 47.5 0)" d="M0 0h47v50H0z"/></clipPath></defs></svg>