<svg width="47" height="59" fill="none" xmlns="http://www.w3.org/2000/svg"><g clip-path="url(#clip0_10944_61304)" fill="#FFE236" stroke="#414141" stroke-width="2" stroke-linecap="round" stroke-linejoin="round"><path d="M10.5 20.5C22.169 24.088 24.78 27.002 28 40c3.22-12.998 5.831-15.912 17.5-19.5C33.831 16.912 31.22 13.998 28 1c-3.22 12.998-5.831 15.912-17.5 19.5zM1.5 47c6.67 2.02 8.16 3.67 10 11 1.84-7.33 3.33-8.98 10-11-6.67-2.03-8.16-3.67-10-11-1.84 7.33-3.33 8.97-10 11z"/></g><defs><clipPath id="clip0_10944_61304"><path fill="#fff" transform="matrix(-1 0 0 1 46.5 0)" d="M0 0h46v59H0z"/></clipPath></defs></svg>