<svg width="194" height="168" fill="none" xmlns="http://www.w3.org/2000/svg"><g clip-path="url(#clip0_10944_61295)"><path d="M179.448 87.716a1 1 0 001.224-1.227L158.368 4.003a1 1 0 00-1.671-.448l-60.544 60.28a1 1 0 00.447 1.674l24.139 6.47c.583.156.909.756.676 1.312C111.05 98.036 77.64 160.01 4.54 154.642c-1.227-.09-1.73 1.973-.554 2.333 45.24 13.865 99.695 18.545 150.15-75.224.22-.41.702-.632 1.151-.511l24.161 6.476z" fill="url(#paint0_linear_10944_61295)"/></g><defs><linearGradient id="paint0_linear_10944_61295" x1="121.01" y1="-7.554" x2="71.978" y2="175.369" gradientUnits="userSpaceOnUse"><stop stop-color="#FF7575"/><stop offset="1" stop-color="#FFE99B"/></linearGradient><clipPath id="clip0_10944_61295"><path fill="#fff" d="M0 0h194v168H0z"/></clipPath></defs></svg>