<svg width="66" height="171" fill="none" xmlns="http://www.w3.org/2000/svg"><g clip-path="url(#clip0_11089_247658)"><path d="M33.103 62.171c15.81 0 28.627-12.816 28.627-28.626S48.913 4.918 33.103 4.918c-15.81 0-28.626 12.817-28.626 28.627 0 15.81 12.816 28.626 28.626 28.626z" fill="#F4A0B6"/><path d="M33.103 62.171c15.81 0 28.627-12.816 28.627-28.626S48.913 4.918 33.103 4.918c-15.81 0-28.626 12.817-28.626 28.627 0 15.81 12.816 28.626 28.626 28.626z" fill="url(#paint0_linear_11089_247658)" fill-opacity=".5"/><path d="M21.915 38.363l-.03.23c-.007.1-.017.204-.03.31-.007.1-.013.19-.02.27-.013.187-.027.397-.04.63l-.02.74-.02.78v1.65l.02.96c.013.32.023.614.03.88.007.26.01.467.01.62 0 .38-.047.677-.14.89-.087.214-.207.364-.36.45a1.08 1.08 0 01-.54.13 2.12 2.12 0 01-.74-.15 3.035 3.035 0 01-.74-.39 2.396 2.396 0 01-.58-.58 1.288 1.288 0 01-.22-.71c0-.32.12-.633.36-.94.247-.306.567-.59.96-.85.393-.266.813-.48 1.26-.64.453-.166.917-.29 1.39-.37.473-.08.9-.12 1.28-.12.507 0 .96.087 1.36.26.407.167.73.41.97.73.24.314.36.694.36 1.14 0 .394-.077.75-.23 1.07a2.13 2.13 0 01-.71.82c-.32.227-.737.404-1.25.53-.227.047-.45.08-.67.1-.22.02-.427.04-.62.06l-.41-1.16c.213 0 .423-.003.63-.01.207-.006.4-.026.58-.06.28-.053.533-.136.76-.25a1.46 1.46 0 00.55-.44c.14-.186.21-.41.21-.67a.961.961 0 00-.2-.62 1.235 1.235 0 00-.55-.38 2.062 2.062 0 00-.79-.14 5.97 5.97 0 00-1.28.14 8.102 8.102 0 00-1.25.36c-.3.114-.573.25-.82.41a2.7 2.7 0 00-.57.49c-.14.167-.21.33-.21.49 0 .087.027.17.08.25.06.08.133.15.22.21.093.06.187.11.28.15.1.034.187.05.26.05.093 0 .17-.033.23-.1.06-.066.09-.183.09-.35a86.741 86.741 0 00-.04-1.9 74.69 74.69 0 01-.01-1.21v-.87c.007-.3.01-.586.01-.86v-.72c.007-.213.01-.373.01-.48 0-.073-.003-.163-.01-.27l-.02-.32a1.444 1.444 0 00-.03-.24h1.24zm2.92 1.09c.253.12.533.267.84.44.307.174.6.347.88.52.287.174.517.327.69.46l-.55.91a4.451 4.451 0 00-.48-.36 8.68 8.68 0 00-.65-.41c-.227-.14-.45-.27-.67-.39-.213-.126-.397-.23-.55-.31l.49-.86zm-6.09.59c.287.034.537.054.75.06a13.458 13.458 0 001.45-.02c.313-.026.63-.06.95-.1.327-.046.647-.1.96-.16a9.27 9.27 0 00.85-.2l.02 1.11c-.273.06-.573.117-.9.17a28.626 28.626 0 01-1.93.24c-.293.02-.55.03-.77.03a24.4 24.4 0 01-.79-.01 6.964 6.964 0 01-.57-.04l-.02-1.08zm9.89-.74h8.03v5.87h-1.11v-4.84h-5.85v4.89h-1.07v-5.92zm.7 2.17h6.76v.99h-6.76v-.99zm0 2.18h6.77v1.03h-6.77v-1.03zm2.7-5.68h1.12v9.33h-1.12v-9.33zm9.64.45h2.1v1.01h-2.1v-1.01zm1.54 0h1.14c.047.72.127 1.41.24 2.07.113.654.28 1.257.5 1.81.22.547.503 1.034.85 1.46.353.42.787.76 1.3 1.02a4.904 4.904 0 00-.59.53 4.31 4.31 0 00-.25.29 5.038 5.038 0 01-1.33-1.15 6.193 6.193 0 01-.88-1.55 10.478 10.478 0 01-.53-1.88c-.12-.673-.207-1.38-.26-2.12h-.19v-.48zm-.01 2.04l1.1.16c-.22 1.127-.563 2.11-1.03 2.95a6.053 6.053 0 01-1.8 2.04 2.29 2.29 0 00-.23-.26 4.46 4.46 0 00-.31-.3 2.177 2.177 0 00-.29-.25 4.634 4.634 0 001.68-1.76c.413-.74.707-1.6.88-2.58zm-2.85 1.42v3.65h-1.05v-2.65h-1.23v-1h2.28zm0 3.18c.213.34.513.59.9.75.393.16.857.254 1.39.28.287.007.63.014 1.03.02a84.195 84.195 0 002.56-.04c.42-.02.793-.043 1.12-.07a2.92 2.92 0 00-.13.32 9.21 9.21 0 00-.13.4c-.033.14-.06.264-.08.37-.3.02-.64.034-1.02.04-.38.007-.773.01-1.18.01-.4.007-.79.007-1.17 0-.38 0-.717-.006-1.01-.02-.627-.026-1.163-.126-1.61-.3a2.752 2.752 0 01-1.15-.84c-.22.2-.45.4-.69.6-.233.207-.487.42-.76.64l-.54-1.12c.233-.14.48-.3.74-.48.26-.186.51-.373.75-.56h.98zm-2.24-6.21l.8-.64c.207.134.417.29.63.47.22.18.423.364.61.55.193.18.347.35.46.51l-.85.7a3.286 3.286 0 00-.43-.51 8.007 8.007 0 00-.59-.57 6.796 6.796 0 00-.63-.51z" fill="#221A15"/><path d="M33.103 65.551c17.676 0 32.005-14.329 32.005-32.005 0-17.676-14.33-32.005-32.005-32.005-17.676 0-32.005 14.33-32.005 32.005 0 17.676 14.329 32.005 32.005 32.005z" stroke="#221A15" stroke-width=".75" stroke-linecap="round" stroke-linejoin="round"/><path d="M42.876 17.818L30.794 30.803l-2.275 3.622-.335-5.459v0l14.692-11.148z" fill="#F090A9" stroke="#4C423D" stroke-width=".75" stroke-linecap="round" stroke-linejoin="round"/><path d="M42.875 17.818L28.183 28.966l-4.808-3.383 19.5-7.765z" fill="#fff" stroke="#4C423D" stroke-width=".75" stroke-linecap="round" stroke-linejoin="round"/><path d="M42.875 17.818l-6.019 17.25-5.427-3.818-.636-.447 12.082-12.985z" fill="#fff" stroke="#4C423D" stroke-width=".75" stroke-linecap="round" stroke-linejoin="round"/><path d="M31.429 31.25l-2.911 3.175 2.274-3.622.637.446z" stroke="#4C423D" stroke-width=".75" stroke-linecap="round" stroke-linejoin="round"/><g filter="url(#filter0_d_11089_247658)"><mask id="a" maskUnits="userSpaceOnUse" x="1.625" y="1.82" width="19" height="16" fill="#000"><path fill="#fff" d="M1.625 1.82h19v16h-19z"/><path d="M7.236 17.02c-1.147 0-2.12-.3-2.92-.9-.787-.613-1.387-1.46-1.8-2.54-.414-1.093-.62-2.346-.62-3.76 0-1.426.206-2.68.62-3.76.413-1.08 1.013-1.92 1.8-2.52.8-.613 1.773-.92 2.92-.92 1.146 0 2.113.307 2.9.92.8.6 1.406 1.44 1.82 2.52.413 1.08.62 2.334.62 3.76 0 1.414-.207 2.667-.62 3.76-.414 1.08-1.02 1.927-1.82 2.54-.787.6-1.754.9-2.9.9zm0-2.4c.56 0 1.04-.173 1.44-.52.413-.36.733-.893.96-1.6.226-.72.34-1.613.34-2.68 0-1.08-.114-1.973-.34-2.68-.227-.706-.547-1.233-.96-1.58-.4-.36-.88-.54-1.44-.54-.547 0-1.027.18-1.44.54-.414.347-.734.874-.96 1.58-.227.707-.34 1.6-.34 2.68 0 1.067.113 1.96.34 2.68.226.707.546 1.24.96 1.6.413.347.893.52 1.44.52zm10.905 2.2c-.373 0-.68-.113-.92-.34-.24-.24-.36-.533-.36-.88V5.52l.28.44-1.46 1.08c-.187.147-.42.22-.7.22-.32 0-.6-.12-.84-.36s-.36-.526-.36-.86c0-.426.207-.773.62-1.04l2.88-1.92c.133-.093.28-.16.44-.2.173-.04.333-.06.48-.06.386 0 .693.12.92.36.227.227.34.514.34.86V15.6c0 .347-.127.64-.38.88-.24.227-.553.34-.94.34z"/></mask><path d="M7.236 17.02c-1.147 0-2.12-.3-2.92-.9-.787-.613-1.387-1.46-1.8-2.54-.414-1.093-.62-2.346-.62-3.76 0-1.426.206-2.68.62-3.76.413-1.08 1.013-1.92 1.8-2.52.8-.613 1.773-.92 2.92-.92 1.146 0 2.113.307 2.9.92.8.6 1.406 1.44 1.82 2.52.413 1.08.62 2.334.62 3.76 0 1.414-.207 2.667-.62 3.76-.414 1.08-1.02 1.927-1.82 2.54-.787.6-1.754.9-2.9.9zm0-2.4c.56 0 1.04-.173 1.44-.52.413-.36.733-.893.96-1.6.226-.72.34-1.613.34-2.68 0-1.08-.114-1.973-.34-2.68-.227-.706-.547-1.233-.96-1.58-.4-.36-.88-.54-1.44-.54-.547 0-1.027.18-1.44.54-.414.347-.734.874-.96 1.58-.227.707-.34 1.6-.34 2.68 0 1.067.113 1.96.34 2.68.226.707.546 1.24.96 1.6.413.347.893.52 1.44.52zm10.905 2.2c-.373 0-.68-.113-.92-.34-.24-.24-.36-.533-.36-.88V5.52l.28.44-1.46 1.08c-.187.147-.42.22-.7.22-.32 0-.6-.12-.84-.36s-.36-.526-.36-.86c0-.426.207-.773.62-1.04l2.88-1.92c.133-.093.28-.16.44-.2.173-.04.333-.06.48-.06.386 0 .693.12.92.36.227.227.34.514.34.86V15.6c0 .347-.127.64-.38.88-.24.227-.553.34-.94.34z" fill="url(#paint1_linear_11089_247658)"/><path d="M7.236 17.02c-1.147 0-2.12-.3-2.92-.9-.787-.613-1.387-1.46-1.8-2.54-.414-1.093-.62-2.346-.62-3.76 0-1.426.206-2.68.62-3.76.413-1.08 1.013-1.92 1.8-2.52.8-.613 1.773-.92 2.92-.92 1.146 0 2.113.307 2.9.92.8.6 1.406 1.44 1.82 2.52.413 1.08.62 2.334.62 3.76 0 1.414-.207 2.667-.62 3.76-.414 1.08-1.02 1.927-1.82 2.54-.787.6-1.754.9-2.9.9zm0-2.4c.56 0 1.04-.173 1.44-.52.413-.36.733-.893.96-1.6.226-.72.34-1.613.34-2.68 0-1.08-.114-1.973-.34-2.68-.227-.706-.547-1.233-.96-1.58-.4-.36-.88-.54-1.44-.54-.547 0-1.027.18-1.44.54-.414.347-.734.874-.96 1.58-.227.707-.34 1.6-.34 2.68 0 1.067.113 1.96.34 2.68.226.707.546 1.24.96 1.6.413.347.893.52 1.44.52zm10.905 2.2c-.373 0-.68-.113-.92-.34-.24-.24-.36-.533-.36-.88V5.52l.28.44-1.46 1.08c-.187.147-.42.22-.7.22-.32 0-.6-.12-.84-.36s-.36-.526-.36-.86c0-.426.207-.773.62-1.04l2.88-1.92c.133-.093.28-.16.44-.2.173-.04.333-.06.48-.06.386 0 .693.12.92.36.227.227.34.514.34.86V15.6c0 .347-.127.64-.38.88-.24.227-.553.34-.94.34z" fill="url(#paint2_linear_11089_247658)"/><path d="M4.316 16.12l-.116.148.003.002.113-.15zm-1.8-2.54l-.176.067.176-.067zm0-7.52l-.175-.067.175.067zm1.8-2.52l.113.15-.113-.15zm5.82 0l-.116.148.003.002.113-.15zm1.82 2.52l.175-.067-.175.067zm0 7.52l.175.067-.175-.067zm-1.82 2.54l.113.15-.113-.15zm-1.46-2.02l.123.142-.123-.142zm.96-1.6l.178.058v-.001l-.178-.057zm0-5.36l-.179.058.179-.058zm-.96-1.58l-.126.14.005.004.12-.144zm-2.88 0l.12.144.003-.002-.123-.142zm-.96 1.58l-.179-.057.179.057zm0 5.36l-.18.057h.001l.179-.057zm.96 1.6l-.123.142.002.002.12-.144zm1.44 2.733c-1.113 0-2.045-.29-2.808-.863l-.225.3c.837.628 1.852.938 3.033.938v-.375zm-2.805-.86c-.756-.59-1.337-1.406-1.74-2.46l-.35.134c.423 1.107 1.042 1.984 1.86 2.621l.23-.296zm-1.74-2.459c-.404-1.068-.608-2.298-.608-3.694h-.375c0 1.432.21 2.708.632 3.827l.351-.133zM2.083 9.82c0-1.409.204-2.638.608-3.693l-.35-.134C1.917 7.1 1.708 8.376 1.708 9.82h.375zm.608-3.693c.403-1.053.984-1.862 1.738-2.438l-.227-.298c-.819.625-1.438 1.495-1.861 2.602l.35.134zM4.43 3.69c.763-.585 1.694-.881 2.806-.881v-.375c-1.182 0-2.197.317-3.034.959l.228.297zm2.806-.881c1.111 0 2.035.296 2.784.88l.231-.296c-.824-.642-1.833-.96-3.015-.96v.376zm2.787.882c.768.576 1.355 1.385 1.758 2.437l.35-.134c-.424-1.107-1.05-1.978-1.883-2.603l-.225.3zm1.758 2.437c.403 1.055.607 2.284.607 3.693h.375c0-1.444-.209-2.721-.632-3.827l-.35.134zm.607 3.693c0 1.396-.204 2.626-.608 3.694l.351.133c.423-1.119.632-2.395.632-3.827h-.375zm-.607 3.693c-.403 1.053-.99 1.87-1.76 2.459l.229.297c.831-.637 1.457-1.514 1.88-2.622l-.35-.134zm-1.759 2.458c-.749.572-1.674.862-2.786.862v.375c1.18 0 2.19-.31 3.013-.939l-.227-.298zm-2.786-1.163c.602 0 1.126-.188 1.563-.566l-.246-.283c-.364.315-.8.474-1.317.474v.375zm1.563-.566c.447-.39.782-.956 1.015-1.684l-.357-.115c-.22.685-.524 1.185-.904 1.516l.246.283zm1.016-1.685c.234-.744.348-1.658.348-2.737h-.375c0 1.055-.112 1.928-.331 2.624l.358.113zm.348-2.737c0-1.091-.114-2.005-.349-2.737l-.357.115c.219.681.331 1.554.331 2.622h.375zm-.349-2.737c-.233-.728-.569-1.29-1.018-1.666l-.24.287c.377.317.681.808.901 1.494l.357-.115zM8.801 5.421a2.266 2.266 0 00-1.565-.588v.375c.515 0 .95.164 1.314.492l.251-.28zm-1.565-.588a2.31 2.31 0 00-1.563.586l.246.283a1.94 1.94 0 011.317-.494v-.375zm-1.56.584c-.45.376-.785.938-1.019 1.666l.357.115c.22-.686.524-1.177.902-1.494l-.24-.287zm-1.02 1.666c-.234.732-.349 1.646-.349 2.737h.375c0-1.068.113-1.94.331-2.622l-.357-.115zM4.308 9.82c0 1.079.115 1.993.349 2.737l.358-.113c-.22-.696-.332-1.569-.332-2.624h-.375zm.35 2.738c.233.728.568 1.295 1.015 1.684l.246-.283c-.38-.331-.685-.83-.905-1.516l-.357.115zm1.017 1.686c.448.375.97.564 1.56.564v-.375c-.503 0-.94-.158-1.319-.476l-.24.287zm11.546 2.236l-.133.133.004.004.129-.137zm-.36-10.96l.158-.1-.346-.544v.644h.188zm.28.44l.111.151.14-.104-.093-.147-.158.1zm-1.46 1.08l-.112-.15-.004.003.116.147zm-1.54-.14l.132-.132-.132.132zM14.4 5l.101.158.003-.002L14.4 5zm2.88-1.92l.104.156.003-.002-.107-.154zm.44-.2l-.042-.182h-.004l.046.182zm1.4.3l-.136.13.003.003.133-.133zm-.04 13.3l.129.137-.13-.137zm-.94.153c-.332 0-.59-.1-.791-.289l-.258.273c.28.264.634.39 1.049.39v-.374zm-.788-.285a1.01 1.01 0 01-.305-.748h-.375c0 .396.14.737.415 1.013l.265-.265zm-.305-.748V5.52h-.375V15.6h.375zm-.345-9.979l.28.44.316-.201-.28-.44-.316.201zm.326.189l-1.46 1.08.223.301 1.46-1.08-.223-.301zm-1.464 1.083a.913.913 0 01-.584.18v.375c.314 0 .59-.083.816-.26l-.232-.295zm-.584.18a.964.964 0 01-.708-.305l-.265.265c.273.273.6.415.973.415v-.375zm-.708-.305a.987.987 0 01-.305-.728h-.375c0 .384.14.718.415.993l.265-.265zm-.305-.728c0-.352.165-.644.534-.882l-.203-.315c-.457.295-.706.696-.706 1.197h.375zm.537-.884l2.88-1.92-.208-.312-2.88 1.92.208.312zm2.883-1.922c.115-.08.24-.137.378-.172l-.09-.364c-.183.046-.35.122-.503.229l.215.307zm.375-.171a1.96 1.96 0 01.438-.055v-.375a2.3 2.3 0 00-.522.065l.084.365zm.438-.055c.345 0 .598.105.784.301l.272-.257c-.268-.284-.628-.42-1.056-.42v.376zm.787.305a.979.979 0 01.285.727h.375c0-.392-.13-.727-.395-.992l-.265.265zm.285.727V15.6h.375V4.04h-.375zm0 11.56a.979.979 0 01-.321.744l.258.272c.29-.275.438-.617.438-1.016h-.375zm-.32.744c-.2.188-.465.289-.812.289v.375c.426 0 .788-.126 1.069-.391l-.258-.273z" fill="#221A15" mask="url(#a)"/></g></g><path fill="#221A15" d="M32.625 65.945h.75V170.32h-.75z"/><defs><linearGradient id="paint0_linear_11089_247658" x1="1.037" y1="-1.587" x2="65.477" y2="2.456" gradientUnits="userSpaceOnUse"><stop stop-color="#FFD7E8"/><stop offset=".5" stop-color="#FFDCD1"/><stop offset="1" stop-color="#FFF1A7"/></linearGradient><linearGradient id="paint1_linear_11089_247658" x1=".625" y1="-1.18" x2="22.732" y2=".13" gradientUnits="userSpaceOnUse"><stop stop-color="#FFF9EC"/><stop offset=".507" stop-color="#FFE9B8"/><stop offset="1" stop-color="#FFF9EA"/></linearGradient><linearGradient id="paint2_linear_11089_247658" x1="19.356" y1="-2.779" x2="14.428" y2="21.076" gradientUnits="userSpaceOnUse"><stop stop-color="#FFD8E8"/><stop offset=".5" stop-color="#FFCABA"/><stop offset="1" stop-color="#FFEF9B"/></linearGradient><clipPath id="clip0_11089_247658"><path fill="#fff" transform="translate(.5 .32)" d="M0 0h65v66H0z"/></clipPath><filter id="filter0_d_11089_247658" x="1.708" y="2.433" width="18.69" height="15.525" filterUnits="userSpaceOnUse" color-interpolation-filters="sRGB"><feFlood flood-opacity="0" result="BackgroundImageFix"/><feColorMatrix in="SourceAlpha" values="0 0 0 0 0 0 0 0 0 0 0 0 0 0 0 0 0 0 127 0" result="hardAlpha"/><feOffset dx=".75" dy=".75"/><feComposite in2="hardAlpha" operator="out"/><feColorMatrix values="0 0 0 0 0.133333 0 0 0 0 0.101961 0 0 0 0 0.0823529 0 0 0 1 0"/><feBlend in2="BackgroundImageFix" result="effect1_dropShadow_11089_247658"/><feBlend in="SourceGraphic" in2="effect1_dropShadow_11089_247658" result="shape"/></filter></defs></svg>