<svg width="57" height="61" fill="none" xmlns="http://www.w3.org/2000/svg"><g clip-path="url(#clip0_10944_62527)" fill="#FFE236" stroke="#414141" stroke-width="2" stroke-linecap="round" stroke-linejoin="round"><path d="M1 21.971c12.336 3.772 15.096 6.836 18.5 20.5 3.404-13.664 6.164-16.728 18.5-20.5-12.336-3.772-15.096-6.836-18.5-20.5C16.096 15.135 13.336 18.2 1 21.971zm34 26c7.004 2.112 8.568 3.837 10.5 11.5 1.932-7.663 3.496-9.388 10.5-11.5-7.004-2.122-8.568-3.837-10.5-11.5-1.932 7.663-3.496 9.378-10.5 11.5z"/></g><defs><clipPath id="clip0_10944_62527"><path fill="#fff" transform="matrix(-1 0 0 1 57 .471)" d="M0 0h57v60H0z"/></clipPath></defs></svg>