<svg width="158" height="38" fill="none" xmlns="http://www.w3.org/2000/svg"><path d="M5.744 36.395a2 2 0 01-2-2V7.098a2 2 0 012-2h148.551c1.512 0 2.478 1.614 1.762 2.947l-6.317 11.758a2 2 0 000 1.894l6.316 11.751c.716 1.333-.249 2.947-1.762 2.947H5.744z" fill="#221A15" stroke="#221A15" stroke-width=".72" stroke-linecap="round" stroke-linejoin="round"/><path d="M2.541 33.192a2 2 0 01-2-2V3.895a2 2 0 012-2h148.551c1.512 0 2.477 1.614 1.762 2.946l-6.317 11.76a1.998 1.998 0 000 1.893l6.316 11.751c.716 1.332-.249 2.947-1.762 2.947H2.541z" fill="#fff" stroke="#221A15" stroke-width="1.08" stroke-linecap="round" stroke-linejoin="round"/><circle cx="3.863" cy="5.203" r=".72" fill="#221A15"/><path d="M8.14 5.204h136.832" stroke="#221A15" stroke-width="1.3" stroke-linecap="round" stroke-linejoin="round"/><circle cx="148.113" cy="5.203" r=".72" fill="#221A15"/><circle cx="148.113" cy="29.887" r=".72" fill="#221A15"/><path d="M143.827 29.887H6.002" stroke="#221A15" stroke-width="1.3" stroke-linecap="round" stroke-linejoin="round"/><circle cx="3.863" cy="29.887" r=".72" fill="#221A15"/><path d="M97.484 18.056c-4.466-.13-8.874-.224-13.253-.296 1.289.303 2.542.605 3.644.807 3.328.641 6.432-.029 9.609-.511z" fill="#FDE7DE"/><path d="M118.117 19.3c.013.076.179.311.578.72l-.903-.053c0 .848.393 1.703 1.063 2.354.313-.143.559-.333.847-.53-.172-1.203-.958-2.044-1.314-2.37a1.028 1.028 0 00-.178-.128c.497-.015 1.019-.038 1.64-.053a40.347 40.347 0 00-2.009-.257 97.325 97.325 0 00-1.8-.182 146.987 146.987 0 00-3.459-.272c-.399.12-.786.219-1.167.295.86.174 1.757.295 2.685.378-2.12.129-4.252 0-6.193-.378-.94.197-1.782.212-2.476-.121-.16-.084-.319-.16-.479-.235.762 0 1.53.053 2.316.22l.639.136c.276-.06.565-.137.86-.22l.166.084c.688.34 1.536.325 2.488.136-.215-.046-.43-.091-.639-.137a10.677 10.677 0 00-2.328-.234l.086.038c-1.358-.084-2.71-.152-4.049-.22a561.398 561.398 0 00-7.76-.325c-2.702.507-5.35 1.21-8.188.537-.94-.204-2.01-.53-3.109-.848-2.973-.06-5.922-.098-8.877-.121-1.241.159-2.5.106-3.742-.023-11.642-.053-23.345.152-35.589.424-.725.023-4.392.371-4.97.863l-1.106.379.031.227.11.84-.042.394c-.013.174-.019.348-.025.522a4.973 4.973 0 00.203 1.552c.412 1.416 1.628 2.476 3.563 2.446 7.74.628 14.026.416 20.353.12 2.316-.37 4.639-.59 6.98-.522-1.18.091-2.36.243-3.533.432 2.863-.136 5.732-.295 8.717-.416l-.27-.023 2.175-.06c1.13-.114 2.322-.13 3.52-.1h-.08.228c.663.016 1.327.039 1.978.061l2.764.03c.264-.022 2.095-.173 3.576-.113-.05.015-.092.023-.135.03h.718c.326.038.621.084.848.152h.75c3.323.06 6.512.242 9.608.416 1.26-.106 2.537-.174 3.864-.098-.147.015-.288.023-.436.038.645.037 1.284.075 1.917.113h.068c2.617.454 6.407.227 6.487.349.406 0 .817-.016 1.223-.03.725.007 1.443.014 2.162 0a.419.419 0 01-.067-.228c2.279-.583 4.632-.954 7.034-.795a52.6 52.6 0 001.941-.431c1.143-.28 1.548-.773 1.733-1.363a6.035 6.035 0 01-.879-.613c-.749-.644-1.149-1.5-1.179-2.347l.89.038a11.721 11.721 0 00-.528-.492h.08c.209 0 .418-.008.627-.016l-.007.03zm-36.971 3.892a1.44 1.44 0 01-.092-.326c.32.122.645.205.964.273l.436-.03a.739.739 0 01.461-.03l-.46.03a1.834 1.834 0 00-.179.075c-.467.235-.884.636-1.136.008h.006z" fill="url(#paint0_linear_10944_62862)" fill-opacity=".5"/><path d="M112.311 24.652c-1.462.152-2.917.41-4.358.72a80.686 80.686 0 004.416-.288c1.433-.13 2.924-.31 4.127-.51-1.21-.123-2.745-.073-4.185.078z" fill="#FDE7DE"/><g filter="url(#filter0_d_10944_62862)"><path d="M44.615 24.692c-.84 0-1.596-.102-2.268-.306-.672-.216-1.314-.588-1.926-1.116a1.42 1.42 0 01-.36-.45 1.118 1.118 0 01-.126-.504c0-.276.096-.516.288-.72a.998.998 0 01.756-.324c.228 0 .432.072.612.216.456.372.906.654 1.35.846.456.192 1.014.288 1.674.288.444 0 .852-.066 1.224-.198.372-.144.672-.33.9-.558.228-.24.342-.51.342-.81 0-.36-.108-.666-.324-.918-.216-.252-.546-.462-.99-.63-.444-.18-1.008-.318-1.692-.414a7.9 7.9 0 01-1.71-.432 4.343 4.343 0 01-1.242-.756 3.152 3.152 0 01-.738-1.08 3.75 3.75 0 01-.252-1.404c0-.78.198-1.446.594-1.998.408-.552.954-.972 1.638-1.26.684-.288 1.44-.432 2.268-.432.78 0 1.5.12 2.16.36.672.228 1.218.522 1.638.882.348.276.522.594.522.954 0 .264-.102.504-.306.72a.96.96 0 01-.72.324.79.79 0 01-.486-.162 3.065 3.065 0 00-.774-.468 5.81 5.81 0 00-1.026-.378 3.52 3.52 0 00-1.008-.162c-.516 0-.954.066-1.314.198-.348.132-.612.312-.792.54-.18.228-.27.492-.27.792 0 .36.102.66.306.9.216.228.522.414.918.558.396.132.87.252 1.422.36.72.132 1.35.288 1.89.468.552.18 1.008.414 1.368.702.36.276.63.63.81 1.062.18.42.27.936.27 1.548 0 .78-.216 1.452-.648 2.016-.432.564-1.002.996-1.71 1.296-.696.3-1.452.45-2.268.45zm11.856-.18c-.336 0-.612-.102-.828-.306a1.077 1.077 0 01-.324-.792v-10.44h2.34v10.44c0 .312-.114.576-.342.792-.216.204-.498.306-.846.306zm-3.978-10.53a1.15 1.15 0 01-.792-.288c-.204-.192-.306-.444-.306-.756s.102-.558.306-.738a1.15 1.15 0 01.792-.288h7.992c.312 0 .57.096.774.288a.963.963 0 01.324.756.963.963 0 01-.324.756c-.204.18-.462.27-.774.27h-7.992zm12.978-2.07h6.03c.312 0 .57.102.774.306a.963.963 0 01.324.756c0 .3-.108.546-.324.738-.204.18-.462.27-.774.27h-5.04l.162-.306v3.51l-.144-.144h4.212c.312 0 .57.102.774.306a.963.963 0 01.324.756c0 .3-.108.546-.324.738-.204.18-.462.27-.774.27h-4.158l.09-.144v3.636l-.144-.162H71.5c.312 0 .57.108.774.324a.96.96 0 01.324.72c0 .3-.108.546-.324.738a1.085 1.085 0 01-.774.288h-6.03a1.11 1.11 0 01-.792-.306 1.11 1.11 0 01-.306-.792V13.01a1.077 1.077 0 011.098-1.098zm15.304 0c.624 0 1.206.18 1.746.54.552.36.996.846 1.332 1.458.336.612.504 1.296.504 2.052 0 .744-.168 1.422-.504 2.034a4.162 4.162 0 01-1.332 1.476c-.54.36-1.122.54-1.746.54h-3.312l.18-.324v3.726c0 .312-.096.576-.288.792-.192.204-.444.306-.756.306a.969.969 0 01-.738-.306 1.15 1.15 0 01-.288-.792V13.01a1.077 1.077 0 011.098-1.098h4.104zm0 6.048c.228 0 .45-.096.666-.288.216-.192.396-.438.54-.738a2.294 2.294 0 000-1.944c-.144-.3-.324-.54-.54-.72-.216-.192-.438-.288-.666-.288h-3.348l.216-.324v4.59l-.198-.288h3.33zm16.665 6.732c-1.032 0-1.908-.27-2.628-.81-.708-.552-1.248-1.314-1.62-2.286-.372-.984-.558-2.112-.558-3.384 0-1.284.186-2.412.558-3.384.372-.972.912-1.728 1.62-2.268.72-.552 1.596-.828 2.628-.828s1.902.276 2.61.828c.72.54 1.266 1.296 1.638 2.268.372.972.558 2.1.558 3.384 0 1.272-.186 2.4-.558 3.384-.372.972-.918 1.734-1.638 2.286-.708.54-1.578.81-2.61.81zm0-2.16c.504 0 .936-.156 1.296-.468.372-.324.66-.804.864-1.44.204-.648.306-1.452.306-2.412 0-.972-.102-1.776-.306-2.412-.204-.636-.492-1.11-.864-1.422a1.87 1.87 0 00-1.296-.486c-.492 0-.924.162-1.296.486-.372.312-.66.786-.864 1.422-.204.636-.306 1.44-.306 2.412 0 .96.102 1.764.306 2.412.204.636.492 1.116.864 1.44.372.312.804.468 1.296.468zm14.675 0c.288 0 .528.096.72.288a.977.977 0 01.288.72c0 .276-.096.51-.288.702-.192.18-.432.27-.72.27h-6.12c-.312 0-.558-.096-.738-.288-.18-.192-.27-.438-.27-.738s.108-.564.324-.792l3.924-4.194c.444-.48.792-.972 1.044-1.476.264-.504.396-.942.396-1.314 0-.6-.174-1.08-.522-1.44-.348-.372-.81-.558-1.386-.558-.228 0-.462.054-.702.162-.24.108-.474.258-.702.45-.216.192-.42.414-.612.666-.144.192-.288.312-.432.36a1.261 1.261 0 01-.396.072c-.264 0-.51-.096-.738-.288-.216-.204-.324-.438-.324-.702 0-.204.066-.402.198-.594a5.606 5.606 0 011.53-1.386 4.944 4.944 0 011.152-.522c.396-.132.78-.198 1.152-.198.804 0 1.5.162 2.088.486a3.27 3.27 0 011.386 1.35c.324.576.486 1.26.486 2.052 0 .66-.198 1.398-.594 2.214a9.038 9.038 0 01-1.566 2.268l-2.43 2.592-.198-.162h4.05z" fill="#221A15"/></g><defs><linearGradient id="paint0_linear_10944_62862" x1="31.15" y1="17.483" x2="93.198" y2="56.986" gradientUnits="userSpaceOnUse"><stop stop-color="#FF87B2"/><stop offset=".5" stop-color="#FE7E6C"/><stop offset=".953" stop-color="#FFD600"/></linearGradient><filter id="filter0_d_10944_62862" x="39.935" y="11.732" width="73.188" height="12.96" filterUnits="userSpaceOnUse" color-interpolation-filters="sRGB"><feFlood flood-opacity="0" result="BackgroundImageFix"/><feColorMatrix in="SourceAlpha" values="0 0 0 0 0 0 0 0 0 0 0 0 0 0 0 0 0 0 127 0" result="hardAlpha"/><feOffset/><feComposite in2="hardAlpha" operator="out"/><feColorMatrix values="0 0 0 0 0.133333 0 0 0 0 0.101961 0 0 0 0 0.0823529 0 0 0 1 0"/><feBlend in2="BackgroundImageFix" result="effect1_dropShadow_10944_62862"/><feBlend in="SourceGraphic" in2="effect1_dropShadow_10944_62862" result="shape"/></filter></defs></svg>