<svg width="170" height="128" fill="none" xmlns="http://www.w3.org/2000/svg"><g clip-path="url(#clip0_11006_32328)"><path fill-rule="evenodd" clip-rule="evenodd" d="M81.535 111.915c.42.649.794 1.328 1.118 2.03 2.046 4.612 4.45 13.09 4.45 13.09a1.087 1.087 0 001.058.792 1.088 1.088 0 001.044-.813s3.297-12.565 4.59-17.029c7.496 5.862 19.381 7.014 28.741 3.702 6.221-2.201 11.31-6.355 13.36-12.308 8.775 5.332 17.867 1.191 22.439-6.02 2.938-4.632 3.985-10.52 1.89-15.94 5.321-1.148 8.537-5.628 9.469-10.788 1.42-7.857-2.493-17.17-11.985-18.17a13.483 13.483 0 00.004-10.352c-3.304-8.417-14.217-14.912-25.996-9.337-.415-4.494-3.814-8.845-8.639-11.652-7.744-4.505-19.031-5.047-26.544 3.997C87.28 10.394 69.107 8.995 55.49 14.419c-8.908 3.549-15.806 10.005-17.144 17.962-5.184-2.34-9.829-2.411-13.644-1.102-9.265 3.186-13.675 14.635-9.3 22.767-19.55 4.475-17.181 36.192 4.626 35.466-.522 3.395.2 6.864 2.033 9.77 4.604 7.672 15.841 12.801 27.66 5.481.832 4.709 4.029 8.088 8.334 9.995 6.845 3.032 16.535 2.26 23.482-2.847" fill="#414141"/><path fill-rule="evenodd" clip-rule="evenodd" d="M154.273 49.124c16.605-.018 16.865 25.76 2.685 27.1 6.674 13.536-9.133 31.313-23.391 21.1-3.97 15.946-30.183 19.343-42.006 8.445-.178-.164-5.112 18.632-5.112 18.632s-4.964-17.491-6.74-16.095c-11.091 8.709-30.25 5.31-30.803-7.772-16.706 11.841-32.766-3.164-29.17-14.54-22.366 2.2-24.696-30.56-4.274-33.502-7.657-10.857 4.005-30.23 22.08-20.8 1.53-20.733 42.8-31.464 57.235-9.066 11.82-16.252 35.349-4.312 34.15 7.602 16.69-9.448 32.25 7.361 25.348 18.896" fill="#fff"/><path d="M68.26 47.72a1.16 1.16 0 01-.28 1.035c-.223.3-.55.448-.98.448h-.783c-.3 0-.57-.102-.812-.308a1.275 1.275 0 01-.448-.756l-1.26-7.784a1.286 1.286 0 01.28-1.035c.26-.3.588-.449.98-.449h.784c.317 0 .588.103.812.308.242.187.392.44.448.756l1.26 7.784zm-4.62 6.355c0 .672-.167 1.288-.503 1.848a3.86 3.86 0 01-1.344 1.344c-.542.336-1.158.505-1.848.505h-.56c-.355 0-.663-.122-.924-.364a1.313 1.313 0 01-.364-.925v-.755c0-.355.12-.654.364-.897.26-.26.569-.392.924-.392h.56c.26 0 .392-.12.392-.364V44.22c0-.242-.122-.364-.364-.364h-.812c-.224 0-.364.122-.42.364l-2.212 12.489a1.16 1.16 0 01-.42.756 1.16 1.16 0 01-.812.308h-.784c-.411 0-.738-.15-.98-.448-.262-.337-.355-.682-.28-1.036l2.128-12.069c.037-.242-.066-.364-.308-.364h-.868a1.31 1.31 0 01-.924-.363 1.313 1.313 0 01-.364-.924v-.756c0-.355.12-.654.364-.896.26-.262.569-.392.924-.392h1.456c.242 0 .382-.122.42-.364l.056-.252a1.16 1.16 0 01.448-.729c.242-.205.513-.308.812-.308h.784c.392 0 .718.15.98.448.205.28.298.57.28.868 0 .224.112.337.336.337h.756c.877 0 1.614.307 2.212.923.597.598.896 1.326.896 2.184v10.444zm20.83.252a3.28 3.28 0 01-.476 1.736c-.299.523-.71.943-1.232 1.26a3.436 3.436 0 01-1.736.449h-.644c-.635 0-1.213-.15-1.736-.448a3.7 3.7 0 01-1.26-1.26 3.28 3.28 0 01-.476-1.736v-3.613c0-.242-.121-.364-.364-.364h-.056c-.243 0-.383.122-.42.364l-1.064 5.992c-.056.3-.205.551-.448.757a1.159 1.159 0 01-.812.308h-.784a1.25 1.25 0 01-.98-.448c-.243-.3-.336-.654-.28-1.064l2.884-16.352c.056-.318.205-.57.448-.757.243-.205.513-.308.812-.308h.784c.392 0 .719.16.98.476.243.3.336.645.28 1.036l-1.12 6.329c-.019.074 0 .149.056.224a.348.348 0 00.252.111h.42c.765 0 1.41.271 1.932.813a2.67 2.67 0 01.812 1.96v4.535c0 .075.047.113.14.113h.644c.075 0 .112-.038.112-.112v-6.02c0-.355.121-.654.364-.897.261-.26.57-.392.924-.392h.756c.373 0 .681.131.924.392.243.243.364.542.364.896v6.02zm13.274-11.76c0 .355-.122.663-.364.925a1.218 1.218 0 01-.896.364H93.32c-.243 0-.364.12-.364.363v12.264c0 .355-.122.663-.364.925a1.256 1.256 0 01-.924.364h-.756c-.355 0-.663-.122-.924-.364a1.313 1.313 0 01-.364-.925V44.22c0-.242-.122-.364-.364-.364h-.112c-.355 0-.654-.12-.896-.363a1.313 1.313 0 01-.364-.924v-.756c0-.355.121-.654.364-.896a1.17 1.17 0 01.896-.392h.112c.242 0 .364-.131.364-.392 0-.355.121-.654.364-.896a1.31 1.31 0 01.924-.364h.756c.373 0 .681.12.924.364.242.242.364.54.364.896 0 .26.121.392.364.392h3.164c.354 0 .653.13.896.392.242.242.364.54.364.896v.756zm3.5 6.3c0 .355-.122.654-.364.897a1.22 1.22 0 01-.896.363H99.2c-.355 0-.654-.12-.896-.364a1.218 1.218 0 01-.364-.895v-.42a.45.45 0 00-.168-.364.451.451 0 00-.364-.169h-2.492c-.355 0-.663-.12-.924-.364a1.218 1.218 0 01-.364-.895v-.785c0-.354.121-.653.364-.896.261-.242.569-.364.924-.364h2.492c.709 0 1.353.178 1.932.533a3.721 3.721 0 011.372 1.372 3.63 3.63 0 01.532 1.931v.42zm0 7.617c0 .354-.122.662-.364.923a1.22 1.22 0 01-.896.365h-2.52a3.876 3.876 0 01-1.932-.505 4.184 4.184 0 01-1.4-1.4 3.777 3.777 0 01-.504-1.931v-1.877c0-.354.121-.653.364-.895a1.31 1.31 0 01.924-.364h.756c.373 0 .681.12.924.364.242.242.364.54.364.895v1.877c0 .13.046.252.14.364.112.093.233.14.364.14h2.52c.354 0 .653.13.896.392.242.242.364.54.364.895v.757zm16.2-2.157c0 .635-.158 1.214-.476 1.736a3.457 3.457 0 01-1.232 1.26 3.434 3.434 0 01-1.736.449h-.644a3.44 3.44 0 01-1.736-.448 3.71 3.71 0 01-1.26-1.26 3.284 3.284 0 01-.476-1.736v-3.613c0-.242-.121-.364-.364-.364h-.056c-.242 0-.382.122-.42.364l-1.064 5.992c-.056.3-.205.551-.448.757a1.158 1.158 0 01-.812.308h-.784a1.25 1.25 0 01-.98-.448c-.242-.3-.336-.654-.28-1.064l2.884-16.352a1.18 1.18 0 01.448-.757 1.23 1.23 0 01.812-.308h.784c.392 0 .719.16.98.476.243.3.336.645.28 1.036l-1.12 6.329c-.018.074 0 .149.056.224a.35.35 0 00.252.111h.42c.766 0 1.41.271 1.932.813.542.54.812 1.194.812 1.96v4.535c0 .075.047.113.14.113H114c.075 0 .112-.038.112-.112v-6.02c0-.355.122-.654.364-.897.262-.26.57-.392.924-.392h.756c.374 0 .682.131.924.392.243.243.364.542.364.896v6.02zM55.292 83.076c0 .672-.168 1.288-.504 1.848a3.86 3.86 0 01-1.344 1.343 3.525 3.525 0 01-1.848.505H46.22a3.672 3.672 0 01-1.876-.505A3.86 3.86 0 0143 84.924a3.525 3.525 0 01-.504-1.849v-.84c0-.354.12-.653.364-.895.26-.262.569-.392.924-.392h.784c.336 0 .625.13.868.392.26.242.392.54.392.895v.84c0 .094.037.187.112.28a.448.448 0 00.28.112h5.376a.348.348 0 00.252-.111.448.448 0 00.112-.28v-3.724c0-.243-.122-.365-.364-.365H46.22a1.31 1.31 0 01-.924-.363 1.313 1.313 0 01-.364-.924v-.785c0-.354.12-.653.364-.896.26-.242.569-.364.924-.364h5.376a.348.348 0 00.252-.112.448.448 0 00.112-.28v-3.696c0-.26-.122-.391-.364-.391H46.22a.448.448 0 00-.28.111.38.38 0 00-.112.28v.757c0 .354-.131.653-.392.895a1.185 1.185 0 01-.868.365h-.784c-.355 0-.663-.122-.924-.365a1.218 1.218 0 01-.364-.895v-.757c0-.69.168-1.316.504-1.875a3.86 3.86 0 011.344-1.344 3.672 3.672 0 011.876-.504h5.376c.672 0 1.288.168 1.848.504a3.86 3.86 0 011.344 1.344c.336.56.504 1.185.504 1.876v3.695c0 .3-.038.598-.112.896a4.801 4.801 0 01-.308.868c-.15.187-.15.383 0 .588.13.262.233.542.308.84.074.3.112.598.112.897v3.724zm15.85-9.156c0 1.343-.44 2.51-1.317 3.5l-2.436 2.772c-.168.168-.168.345 0 .532l3.444 3.92c.355.429.43.886.224 1.371-.242.504-.634.757-1.176.757h-1.036c-.373 0-.69-.14-.952-.42l-2.744-3.109c-.149-.167-.308-.167-.476 0l-2.744 3.109c-.224.28-.541.42-.952.42H59.97a1.37 1.37 0 01-.7-.197 1.079 1.079 0 01-.476-.56c-.205-.485-.14-.942.196-1.371l8.344-9.409c.318-.373.476-.811.476-1.316v-1.456a.488.488 0 00-.14-.363.452.452 0 00-.364-.168H59.97c-.354 0-.662-.122-.924-.365a1.218 1.218 0 01-.364-.895v-.784c0-.355.122-.654.364-.897.262-.242.57-.364.924-.364h7.336c.71 0 1.354.178 1.932.532a3.721 3.721 0 011.372 1.372c.355.58.532 1.223.532 1.932v1.457zM87 70.67c0 .355-.122.654-.364.896-.243.243-.551.365-.924.365h-9.884c-.355 0-.654-.122-.896-.365a1.218 1.218 0 01-.364-.895v-.784c0-.355.121-.654.364-.897.242-.242.541-.364.896-.364h9.884c.373 0 .681.122.924.365.242.242.364.54.364.895v.784zm0 5.012c0 .355-.122.663-.364.924-.243.243-.551.365-.924.365h-2.548c-.243 0-.364.12-.364.364v1.931a7.135 7.135 0 01-1.176 3.949l-2.016 2.996c-.224.373-.579.56-1.064.56h-.924c-.504 0-.878-.225-1.12-.672-.243-.448-.224-.887.056-1.316l2.296-3.416c.41-.598.616-1.298.616-2.1v-1.933c0-.242-.112-.363-.336-.363h-3.304c-.355 0-.654-.122-.896-.364a1.313 1.313 0 01-.364-.925v-.756c0-.373.121-.68.364-.924.242-.242.541-.364.896-.364h9.884c.373 0 .681.122.924.365.242.242.364.55.364.923v.756zm11.35 3.584c0 .355-.13.654-.392.897a1.218 1.218 0 01-.896.364h-.784c-.355 0-.653-.122-.896-.365a1.218 1.218 0 01-.364-.895v-5.6c0-.355.121-.654.364-.897a1.22 1.22 0 01.896-.364h.784c.355 0 .653.122.896.365.261.242.392.54.392.895v5.6zm-3.78 0c0 .355-.13.654-.392.897a1.218 1.218 0 01-.896.364h-.784c-.355 0-.663-.122-.924-.365a1.218 1.218 0 01-.364-.895v-5.6c0-.355.121-.654.364-.897.261-.242.57-.364.924-.364h.784c.355 0 .653.122.896.365.261.242.392.54.392.895v5.6zm8.316-4.171l-1.568 8.876c-.131.802-.523 1.474-1.176 2.016a3.338 3.338 0 01-2.184.784h-1.4c-.355 0-.663-.122-.924-.365a1.313 1.313 0 01-.364-.923v-.756c0-.355.121-.654.364-.896.261-.262.57-.392.924-.392h1.344c.056 0 .093-.01.112-.028l.028-.029c0-.018.01-.037.028-.055l1.54-8.68c.056-.318.196-.57.42-.757.243-.205.523-.308.84-.308h.756c.411 0 .737.15.98.448.261.337.355.691.28 1.064zm18.131-5.319c0 .716-.261 1.335-.783 1.856a2.49 2.49 0 01-1.827.755 2.584 2.584 0 01-1.856-.755 2.584 2.584 0 01-.754-1.855c0-.716.251-1.325.754-1.828a2.584 2.584 0 011.856-.754 2.49 2.49 0 011.827.755 2.44 2.44 0 01.783 1.827zm-2.61 3.683c0 1.393-.455 2.6-1.363 3.626l-8.149 9.25c-.29.29-.619.436-.986.436h-1.073c-.561 0-.967-.262-1.218-.784-.213-.502-.136-.976.232-1.42l8.613-9.745c.348-.405.522-.86.522-1.362v-1.508a.467.467 0 00-.174-.377.469.469 0 00-.377-.174h-7.598a1.26 1.26 0 01-.928-.377 1.259 1.259 0 01-.377-.928v-.813c0-.367.125-.676.377-.928a1.26 1.26 0 01.928-.376h7.598c.309 0 .618.028.928.087a.265.265 0 01.203.174.312.312 0 010 .26 3.05 3.05 0 00-.29 1.276c0 .793.27 1.49.812 2.088a3.16 3.16 0 001.972 1.016c.232.038.348.174.348.406v.173zm.493-3.682a.388.388 0 00-.145-.32.476.476 0 00-.348-.144c-.31 0-.464.154-.464.464 0 .135.038.25.116.347a.472.472 0 00.348.145.476.476 0 00.348-.144.477.477 0 00.145-.349zm8.535 10.553c0 .355-.13.654-.392.897a1.216 1.216 0 01-.896.364h-.756c-.354 0-.662-.122-.924-.364a1.22 1.22 0 01-.364-.896v-11.2c0-.374.122-.682.364-.925.262-.242.57-.363.924-.363h.756c.355 0 .654.12.896.364.262.242.392.55.392.924v11.2zm.448 4.34c0 .58-.214 1.074-.644 1.484a1.99 1.99 0 01-1.456.617 2.119 2.119 0 01-1.512-.617 2.025 2.025 0 01-.616-1.484c0-.578.206-1.073.616-1.484a2.12 2.12 0 011.512-.615c.56 0 1.046.205 1.456.615.43.411.644.906.644 1.484z" fill="url(#paint0_linear_11006_32328)"/><path d="M154.273 49.124c16.605-.018 16.865 25.76 2.685 27.1 6.674 13.536-9.133 31.313-23.391 21.1-3.97 15.946-30.183 19.343-42.006 8.445-.178-.164-5.112 18.632-5.112 18.632s-4.964-17.491-6.74-16.095c-11.091 8.709-30.25 5.31-30.803-7.772-16.706 11.841-32.766-3.164-29.17-14.54-22.366 2.2-24.696-30.56-4.274-33.502-7.657-10.857 4.005-30.23 22.08-20.8 1.53-20.733 42.8-31.464 57.235-9.066 11.82-16.252 35.349-4.312 34.15 7.602 16.688-9.449 32.248 7.361 25.347 18.896z" stroke="#414141" stroke-width="2" stroke-linecap="round" stroke-linejoin="round"/><path d="M11.476 30.389L1.23 30.4m12.371-6.717L1.09 19.123m15.344-1.985l-8.4-5.863m13.273 1.743l-8.05-10.601m14.14 8.513L23.88 1.316" stroke="#414141" stroke-width="2.172" stroke-linecap="round" stroke-linejoin="round"/></g><defs><linearGradient id="paint0_linear_11006_32328" x1="41.195" y1="31.771" x2="133.483" y2="39.67" gradientUnits="userSpaceOnUse"><stop stop-color="#FF87B2"/><stop offset=".5" stop-color="#FE7E6C"/><stop offset="1" stop-color="#FFC075"/></linearGradient><clipPath id="clip0_11006_32328"><path fill="#fff" d="M0 0h170v128H0z"/></clipPath></defs></svg>