<svg width="254" height="97" fill="none" xmlns="http://www.w3.org/2000/svg"><path d="M122.396 91.89l20.606-21.153h76.007c16.415 0 29.735-13.305 29.735-29.736s-13.304-29.735-29.735-29.735H47.437C31.02 11.266 17.7 24.57 17.7 41c0 16.431 13.32 29.736 29.736 29.736h74.349l.626 21.152h-.016z" fill="#fff"/><path d="M67.388 50.274c0 .9-.226 1.726-.676 2.476-.45.75-1.05 1.35-1.8 1.801-.726.45-1.552.676-2.477.676h-7.73c-.475 0-.875-.163-1.2-.488a1.76 1.76 0 01-.488-1.238v-1.014c0-.475.162-.875.488-1.2.325-.35.725-.525 1.2-.525h7.73c.325 0 .487-.163.487-.488V35.866c0-.35-.162-.526-.487-.526h-7.73a1.63 1.63 0 01-1.2-.487 1.632 1.632 0 01-.488-1.201v-1.05c0-.476.162-.876.488-1.201.325-.35.725-.526 1.2-.526h7.73c.925 0 1.75.226 2.476.676.75.45 1.35 1.05 1.801 1.8.45.751.675 1.59.675 2.515v14.408zm20.067 0c0 .9-.225 1.726-.675 2.476-.45.75-1.05 1.35-1.801 1.801-.725.45-1.55.676-2.476.676h-7.73c-.475 0-.875-.163-1.2-.488a1.76 1.76 0 01-.488-1.238v-1.014c0-.475.162-.875.488-1.2.325-.35.725-.525 1.2-.525h7.73c.325 0 .487-.163.487-.488V35.866c0-.35-.162-.526-.487-.526h-7.73a1.63 1.63 0 01-1.2-.487 1.632 1.632 0 01-.488-1.201v-1.05c0-.476.162-.876.488-1.201.325-.35.725-.526 1.2-.526h7.73c.925 0 1.75.226 2.476.676.75.45 1.35 1.05 1.801 1.8.45.751.675 1.59.675 2.515v14.408zm26.259-16.284c0 .25-.087.462-.262.637-.15.15-.351.226-.601.226h-1.013a.947.947 0 01-.638-.226.947.947 0 01-.225-.637v-3.265c0-.225.075-.412.225-.563a.869.869 0 01.638-.262h1.013a.75.75 0 01.601.263.71.71 0 01.262.562v3.265zm-3.414 0a.87.87 0 01-.263.637.895.895 0 01-.6.226h-1.051a.895.895 0 01-.6-.226.87.87 0 01-.263-.637v-3.265c0-.225.088-.412.263-.563a.826.826 0 01.6-.262h1.051c.225 0 .425.087.6.263a.71.71 0 01.263.562v3.265zm-2.814 16.284c0 .9-.225 1.726-.676 2.476-.45.75-1.05 1.35-1.801 1.801-.725.45-1.55.676-2.476.676h-.75c-.476 0-.888-.163-1.239-.488a1.76 1.76 0 01-.487-1.238v-1.014c0-.475.162-.875.487-1.2.351-.35.763-.525 1.239-.525h.75c.35 0 .525-.163.525-.488V37.066c0-.325-.162-.487-.487-.487h-1.089c-.3 0-.487.162-.562.487l-2.965 16.735c-.05.4-.237.738-.562 1.013-.326.275-.7.413-1.126.413h-1.013c-.55 0-.988-.2-1.313-.6-.35-.451-.476-.914-.376-1.39l2.852-16.17c.05-.326-.088-.488-.413-.488h-1.163a1.76 1.76 0 01-1.238-.488 1.76 1.76 0 01-.488-1.238v-1.014c0-.475.163-.875.488-1.2.35-.35.763-.525 1.238-.525h1.951c.326 0 .513-.163.563-.488l.075-.338c.075-.4.275-.725.6-.975a1.643 1.643 0 011.089-.413h1.05c.525 0 .951.2 1.276.6.325.35.463.738.413 1.163 0 .3.15.45.45.45h1.013c.775 0 1.476.188 2.101.563a4.313 4.313 0 011.501 1.501 4.01 4.01 0 01.563 2.101v13.996zm6.191-8.517c.1.525-.025.988-.375 1.388-.301.4-.738.6-1.314.6h-1.05c-.4 0-.763-.137-1.088-.413a1.706 1.706 0 01-.601-1.013l-.825-5.065c-.075-.525.05-.988.375-1.388.35-.4.788-.6 1.313-.6h1.051c.425 0 .788.137 1.088.412.325.25.525.588.6 1.013l.826 5.066zm22.359-6.904c0 .475-.163.875-.488 1.2-.325.326-.738.488-1.238.488h-.638c-.325 0-.488.163-.488.488V53.5c0 .475-.162.888-.488 1.238a1.63 1.63 0 01-1.2.488h-1.051a1.63 1.63 0 01-1.2-.488 1.756 1.756 0 01-.488-1.238V37.029c0-.325-.163-.488-.488-.488h-.525c-.326 0-.488.163-.488.488v8.555a9.8 9.8 0 01-.638 3.49 9.035 9.035 0 01-1.876 2.963l-2.401 2.627c-.326.375-.751.563-1.276.563-.2 0-.4-.038-.6-.113-.726-.275-1.089-.813-1.089-1.613V52c0-.475.151-.863.451-1.163l1.651-1.801c.9-.976 1.35-2.127 1.35-3.452v-8.555c0-.325-.162-.488-.487-.488h-1.276a1.63 1.63 0 01-1.201-.488 1.633 1.633 0 01-.488-1.2v-1.051c0-.475.163-.876.488-1.2a1.633 1.633 0 011.201-.488h7.204c.125 0 .238-.05.338-.15.1-.126.15-.25.15-.376 0-.475.162-.875.488-1.2.325-.35.725-.526 1.2-.526h1.051c.475 0 .875.175 1.2.526.326.325.488.725.488 1.2a.6.6 0 00.15.375c.1.1.213.15.338.15h.638c.5 0 .913.163 1.238.488.325.325.488.726.488 1.201v1.05zm22.376 3.151c0 1.801-.588 3.365-1.763 4.69l-3.265 3.715c-.225.225-.225.463 0 .713l4.615 5.253c.476.575.576 1.188.301 1.839-.326.675-.851 1.013-1.576 1.013h-1.389c-.5 0-.925-.188-1.275-.563l-3.677-4.165c-.2-.225-.413-.225-.638 0l-3.677 4.165c-.3.375-.726.563-1.276.563h-1.351c-.325 0-.638-.088-.938-.263a1.446 1.446 0 01-.638-.75c-.275-.65-.187-1.264.263-1.839l11.181-12.607c.426-.5.638-1.088.638-1.764v-1.95a.66.66 0 00-.187-.489.607.607 0 00-.488-.225h-9.831a1.76 1.76 0 01-1.238-.487 1.633 1.633 0 01-.488-1.201v-1.05c0-.476.163-.876.488-1.201a1.76 1.76 0 011.238-.488h9.831c.95 0 1.813.238 2.589.713a4.986 4.986 0 011.838 1.838 4.85 4.85 0 01.713 2.59v1.95zm22.377 0c0 1.801-.588 3.365-1.764 4.69l-3.264 3.715c-.225.225-.225.463 0 .713l4.615 5.253c.475.575.575 1.188.3 1.839-.325.675-.851 1.013-1.576 1.013h-1.388c-.5 0-.926-.188-1.276-.563l-3.677-4.165c-.2-.225-.413-.225-.638 0l-3.677 4.165c-.3.375-.725.563-1.276.563h-1.35c-.326 0-.638-.088-.938-.263a1.441 1.441 0 01-.638-.75c-.275-.65-.188-1.264.262-1.839l11.182-12.607c.425-.5.638-1.088.638-1.764v-1.95a.66.66 0 00-.188-.489.605.605 0 00-.488-.225h-9.83c-.476 0-.888-.162-1.239-.487a1.632 1.632 0 01-.487-1.201v-1.05c0-.476.162-.876.487-1.201a1.762 1.762 0 011.239-.488h9.83c.951 0 1.814.238 2.589.713a4.989 4.989 0 011.839 1.838 4.86 4.86 0 01.713 2.59v1.95zm22.376 11.557c0 .75-.35 1.276-1.051 1.576-.225.075-.45.112-.675.112-.475 0-.876-.162-1.201-.487l-3.377-3.34c-.075-.075-.175-.1-.3-.075-.1 0-.175.063-.225.188l-1.426 3.602c-.5 1.225-1.313 2.213-2.439 2.964a6.318 6.318 0 01-3.639 1.126h-.638c-.475 0-.876-.163-1.201-.488a1.76 1.76 0 01-.487-1.238v-1.014c0-.475.162-.875.487-1.2.325-.35.726-.525 1.201-.525h.638c.95 0 1.601-.438 1.951-1.314l2.139-5.328c.125-.3.075-.563-.15-.788l-5.779-5.74c-.325-.376-.487-.776-.487-1.201v-1.463c0-.75.35-1.276 1.05-1.576.675-.275 1.301-.15 1.876.375l5.141 5.103a.28.28 0 00.3.112c.125-.05.2-.125.225-.225l3.152-7.767c.275-.725.8-1.088 1.576-1.088h1.125c.6 0 1.063.25 1.388.75.351.526.413 1.064.188 1.614l-4.015 9.906c-.125.325-.062.587.188.788l3.977 3.977c.325.325.488.725.488 1.2v1.464zm10.745-2.964c0 .475-.175.875-.526 1.2a1.63 1.63 0 01-1.2.488h-1.013c-.476 0-.888-.162-1.239-.488a1.632 1.632 0 01-.487-1.2V31.588c0-.5.162-.913.487-1.238a1.762 1.762 0 011.239-.488h1.013c.475 0 .875.163 1.2.488.351.325.526.738.526 1.238v15.009zm.6 5.816c0 .775-.288 1.438-.863 1.988-.55.55-1.201.826-1.951.826-.775 0-1.451-.276-2.026-.826a2.708 2.708 0 01-.826-1.989c0-.775.275-1.438.826-1.988.575-.55 1.251-.826 2.026-.826.75 0 1.401.276 1.951.826.575.55.863 1.213.863 1.989z" fill="url(#paint0_linear_10944_61225)"/><path d="M122.174 91.668l20.605-21.152h76.007c16.415 0 29.735-13.305 29.735-29.736 0-16.43-13.304-29.735-29.735-29.735H47.198c-16.415 0-29.735 13.304-29.735 29.735 0 16.431 13.304 29.736 29.735 29.736h74.35" stroke="#414141" stroke-width="2" stroke-linecap="round" stroke-linejoin="round"/><path d="M10.43 26.91l-8.98.01m10.843-5.894l-10.967-4m13.45-1.742l-7.364-5.143m11.635 1.529l-7.055-9.3m12.392 7.467l-3.081-8.433" stroke="#414141" stroke-width="1.563" stroke-linecap="round" stroke-linejoin="round"/><defs><linearGradient id="paint0_linear_10944_61225" x1="51.478" y1="12.227" x2="220.757" y2="41.402" gradientUnits="userSpaceOnUse"><stop stop-color="#FF87B2"/><stop offset=".5" stop-color="#FE7E6C"/><stop offset="1" stop-color="#FFC075"/></linearGradient></defs></svg>