<svg width="45" height="45" fill="none" xmlns="http://www.w3.org/2000/svg"><path d="M9.327 26.512c4.51 4.899 11.486 4.607 16.619-.673 5.221-5.19 5.437-12.159.482-16.613-4.853-4.531-11.854-4.265-16.644.647-4.866 4.835-5.056 11.829-.47 16.626l.013.013zM32.82 42.414c2.528 2.741 6.428 2.576 9.312-.368 2.922-2.907 3.037-6.803.28-9.303-2.72-2.538-6.632-2.386-9.313.368-2.72 2.703-2.833 6.625-.267 9.316l-.013-.013z" fill="#221A15"/><path d="M4.327 21.512c4.51 4.899 11.486 4.607 16.619-.673 5.221-5.19 5.437-12.159.482-16.613C16.575-.305 9.574-.04 4.784 4.873-.082 9.708-.272 16.7 4.314 21.499l.013.013zM27.82 37.414c2.528 2.741 6.428 2.576 9.312-.368 2.922-2.907 3.037-6.803.28-9.303-2.72-2.538-6.632-2.386-9.313.368-2.72 2.703-2.834 6.625-.267 9.316l-.013-.013z" fill="#fff"/><path d="M4.327 21.512c4.51 4.899 11.486 4.607 16.619-.673 5.221-5.19 5.437-12.159.482-16.613C16.575-.305 9.574-.04 4.784 4.873-.082 9.708-.272 16.7 4.314 21.499l.013.013zM27.82 37.414c2.528 2.741 6.428 2.576 9.312-.368 2.922-2.907 3.037-6.803.28-9.303-2.72-2.538-6.632-2.386-9.313.368-2.72 2.703-2.834 6.625-.267 9.316l-.013-.013z" stroke="#221A15" stroke-width="2" stroke-linecap="round" stroke-linejoin="round"/></svg>