<svg width="64" height="72" fill="none" xmlns="http://www.w3.org/2000/svg"><g clip-path="url(#clip0_10944_62524)" fill="#FFE236" stroke="#414141" stroke-width="2" stroke-linecap="round" stroke-linejoin="round"><path d="M45 45.971c-14.67 4.508-17.952 8.17-22 24.5-4.048-16.33-7.33-19.992-22-24.5 14.67-4.508 17.952-8.17 22-24.5 4.048 16.33 7.33 19.992 22 24.5zm18-30.5c-8.337 2.571-10.2 4.671-12.5 14-2.3-9.329-4.163-11.429-12.5-14 8.337-2.583 10.2-4.67 12.5-14 2.3 9.33 4.163 11.417 12.5 14z"/></g><defs><clipPath id="clip0_10944_62524"><path fill="#fff" transform="translate(0 .471)" d="M0 0h64v71H0z"/></clipPath></defs></svg>