<svg width="175" height="152" fill="none" xmlns="http://www.w3.org/2000/svg"><g clip-path="url(#clip0_10944_60715)"><path d="M134.903 37.375c7.491 7.755 14.281 16.234 19.327 25.674 2.506 4.715 4.604 9.64 6.1 14.73 1.502 5.091 2.396 10.342 2.556 15.62a57.312 57.312 0 01-1.667 15.687c-1.27 5.124-3.241 10.071-5.786 14.713-5.095 9.303-12.432 17.345-20.906 23.829" stroke="#56C7C7" stroke-width=".8" stroke-miterlimit="10"/><path d="M125.231 28.266s-.022 1.078.248 2.42c.276 1.35.845 2.958 2.076 4.074 1.838 1.73 4.692 1.918 5.979 1.913-.784-.724-1.601-1.492-2.429-2.394-.42-.447-.823-.945-1.259-1.453a26.11 26.11 0 01-1.319-1.67 292.42 292.42 0 011.567 1.488c.486.475.95.922 1.397 1.348.9.851 1.767 1.592 2.689 2.266.016-1.083-.133-4.311-2.186-6.251-1.281-1.16-2.982-1.603-4.351-1.747a10.682 10.682 0 00-2.412.011v-.005zm12.416 105.029s.828.597 1.673 1.57c.828.967 1.722 2.365 1.662 3.913-.039 1.188-.58 2.338-1.248 3.283a12.587 12.587 0 01-2.004 2.045c.271-2.012.48-4.178-.116-6.881.066 2.808-.138 4.886-.679 7.019-.756-.735-2.721-3.023-2.578-5.516.044-.763.282-1.47.607-2.106a8.288 8.288 0 011.104-1.73c.398-.492.812-.873 1.093-1.155.288-.282.475-.442.475-.442h.011zm-7.431-91.194s.459-.619 1.204-1.221c.745-.603 1.783-1.2 2.964-1.128 1.806.105 3.423 1.713 4.075 2.46-1.524-.166-3.197-.293-5.228.082 2.114.045 3.754.128 5.343.52-.541.592-2.158 2.106-4.09 2.001-1.182-.066-2.247-.74-3.02-1.398-.773-.658-1.253-1.31-1.253-1.31l.005-.006zm6.569 7.269s.497-.581 1.292-1.128c.789-.548 1.877-1.073 3.069-.934 1.811.22 3.241 1.984 3.826 2.774-1.496-.293-3.136-.553-5.167-.337 2.081.205 3.682.431 5.244.94-.579.536-2.346 1.934-4.239 1.669-1.16-.16-2.148-.912-2.843-1.625-.724-.697-1.182-1.354-1.182-1.354v-.006zm5.906 7.666s.547-.53 1.386-1.011c.834-.481 1.96-.901 3.125-.664a4.16 4.16 0 011.258.509c.381.238.707.542 1.011.851a9.44 9.44 0 011.28 1.73c-1.457-.431-3.041-.851-5.09-.807 2.054.376 3.6.757 5.101 1.41-.629.475-2.522 1.691-4.366 1.26-1.143-.254-1.993-1.106-2.661-1.846-.663-.746-1.038-1.437-1.038-1.437l-.006.005zm5.15 8.567s.63-.487 1.552-.885c.922-.403 2.131-.718 3.312-.337 1.805.58 2.854 2.686 3.279 3.61-1.457-.625-3.069-1.239-5.173-1.432 2.06.624 3.633 1.194 5.112 2.05-.712.41-2.832 1.415-4.692.758-1.137-.398-1.96-1.338-2.495-2.19-.591-.828-.9-1.574-.9-1.574h.005zm4.186 9.058s.696-.398 1.679-.68c.982-.281 2.257-.442 3.345.105 1.673.84 2.578 3.057 2.76 4.069-1.297-.857-2.881-1.68-4.985-2.15 1.005.442 1.888.862 2.694 1.304.79.442 1.458.917 2.12 1.465-.778.31-3.064.983-4.775.066-1.038-.564-1.8-1.58-2.219-2.493a8.606 8.606 0 01-.459-1.183l-.16-.497v-.006zm2.959 9.06s.712-.27 1.668-.392c.955-.122 2.147-.089 3.119.57 1.545 1 1.866 3.21 1.981 4.167-1.159-.979-2.406-1.984-4.311-2.72 1.739 1.106 2.964 2.067 4.074 3.261-.767.172-3.003.454-4.499-.64a3.866 3.866 0 01-1.066-1.222 5.474 5.474 0 01-.331-.702 6.462 6.462 0 01-.276-.691 7.35 7.35 0 01-.359-1.63zm.52 9.225s.833-.16 1.915-.122c1.088.045 2.402.299 3.318 1.205.707.697 1.082 1.675 1.281 2.61.149.933.099 1.823.05 2.36a20.82 20.82 0 00-1.739-1.974c-.663-.647-1.502-1.282-2.474-1.863 1.756 1.542 2.882 2.841 3.832 4.39-.884.021-3.401-.15-4.809-1.637-.436-.453-.701-.99-.911-1.537a6.428 6.428 0 01-.414-1.614 8.016 8.016 0 01-.06-1.287c.011-.327.016-.531.016-.531h-.005zm-1.099 9.622s.927 0 2.075.277c1.143.271 2.534.823 3.307 1.984.602.89.806 2.017.806 3.057a11.453 11.453 0 01-.452 2.531c-.834-1.642-1.789-3.344-3.672-5.008.757 1.001 1.408 1.924 1.894 2.808.502.89.922 1.769 1.259 2.698-.944-.166-3.594-.912-4.787-2.803-.364-.58-.552-1.205-.64-1.824a6.93 6.93 0 01-.105-1.791 9.34 9.34 0 01.204-1.37c.061-.349.111-.559.111-.559zm-3.556 12.233s.911.237 1.966.79c1.049.553 2.28 1.448 2.749 2.791.364 1.029.287 2.189.022 3.217-.304 1.006-.767 1.88-1.065 2.394-.42-1.824-.939-3.748-2.363-5.859.243.586.463 1.149.668 1.691.204.542.342 1.05.486 1.559.276 1.006.469 1.973.574 2.979-.889-.392-3.324-1.763-4.019-3.935-.216-.664-.243-1.338-.171-1.979a7.2 7.2 0 01.358-1.808c.177-.536.387-.989.552-1.315a7.24 7.24 0 01.249-.525h-.006zm-5.466 9.523s.883.42 1.844 1.193c.961.774 1.987 1.902 2.23 3.389a4.78 4.78 0 01-.044 1.708 7.318 7.318 0 01-.58 1.569c-.491.979-1.087 1.819-1.529 2.261a18.945 18.945 0 00-.287-3.046 16.327 16.327 0 00-.96-3.388c.237 1.283.408 2.438.508 3.538.049.547.082 1.083.088 1.603a18.387 18.387 0 01-.088 1.536c-.84-.575-3.048-2.41-3.313-4.759-.21-1.465.381-2.819.944-3.869.552-1.05 1.187-1.747 1.187-1.747v.012zm8.922 23.242s-.541-1.315-1.656-2.653c-1.11-1.338-2.805-2.692-4.947-2.929-.817-.094-1.639-.017-2.44.16-.817.155-1.606.414-2.335.724a25.284 25.284 0 00-3.472 1.857c1.319.249 2.743.536 4.239.896 1.496.359 3.108.829 4.864 1.531-1.932-.326-3.621-.608-5.184-.868-1.573-.271-3.019-.464-4.466-.558.282.663.867 1.923 1.8 3.117.938 1.194 2.225 2.316 3.98 2.642 1.077.199 2.23.077 3.357-.221 1.109-.321 2.175-.846 3.113-1.376.469-.271.906-.542 1.286-.807a29.2 29.2 0 00.983-.758c.547-.447.867-.751.867-.751l.011-.006zm9.053-12.651s-.74-1.156-2.021-2.222c-1.281-1.073-3.086-2.04-5.123-1.891-1.59.094-3.086.802-4.328 1.625a17.167 17.167 0 00-2.953 2.305c1.269.017 2.622.028 4.101.133 1.485.105 3.092.293 4.836.636-1.855.055-3.527.005-5.029.033a58.579 58.579 0 00-4.273.204c.37.575 1.115 1.658 2.186 2.631 1.071.967 2.468 1.824 4.196 1.863 1.06.022 2.098-.31 3.103-.785.993-.486 1.959-1.116 2.727-1.813.778-.68 1.429-1.36 1.882-1.863.227-.254.409-.464.525-.613.11-.155.176-.238.176-.238l-.005-.005zm6.796-13.823s-.916-.962-2.34-1.73c-1.425-.774-3.357-1.349-5.289-.813a6.955 6.955 0 00-2.048.978c-.652.415-1.253.901-1.783 1.41a16.145 16.145 0 00-1.386 1.514c-.42.47-.756.901-1.005 1.233 2.507-.392 5.195-.951 8.728-.94-1.788.376-3.351.702-4.792 1.006-1.463.288-2.793.586-4.085.968.464.486 1.38 1.392 2.584 2.128 1.203.735 2.688 1.298 4.339 1 1.005-.188 1.993-.674 2.871-1.327.85-.668 1.617-1.492 2.263-2.293.657-.791 1.126-1.587 1.452-2.173.326-.585.502-.967.502-.967l-.011.006zm3.528-15.09s-1.093-.724-2.622-1.15c-1.535-.437-3.462-.564-5.19.354-1.347.696-2.379 1.879-3.135 3.062a16.32 16.32 0 00-1.712 3.09c1.116-.453 2.302-.945 3.638-1.41a42.62 42.62 0 012.12-.68 34.81 34.81 0 012.335-.613c-1.584.768-3.069 1.36-4.377 1.946-.657.292-1.281.574-1.883.867-.602.304-1.187.597-1.772.896.536.364 1.59 1.033 2.882 1.492 1.297.453 2.837.691 4.378.077.91-.386 1.716-1.072 2.418-1.879.695-.812 1.308-1.746 1.7-2.653a20.46 20.46 0 00.927-2.382c.1-.31.177-.569.227-.746.055-.177.066-.277.066-.277v.006zm.934-13.908s-1.182-.475-2.722-.586c-1.546-.116-3.428.133-4.88 1.349-1.154.934-1.916 2.271-2.407 3.565-.53 1.293-.883 2.542-1.027 3.31 1.949-1.315 4.212-2.835 7.204-4.206-.695.514-1.347.995-1.965 1.454-.64.448-1.242.873-1.822 1.282-1.148.824-2.169 1.598-3.124 2.427.579.243 1.711.674 3.041.857a7.41 7.41 0 002.093 0c.723-.111 1.435-.354 2.075-.807.795-.553 1.436-1.371 1.949-2.283.254-.459.48-.94.674-1.426.165-.487.303-.978.419-1.448.227-.945.359-1.819.431-2.46.033-.32.061-.575.072-.757v-.277l-.011.006zm-2.17-13.354s-1.187-.243-2.683-.071c-1.501.165-3.251.735-4.471 2.166-.928 1.095-1.397 2.51-1.623 3.836a15.41 15.41 0 00-.37 3.366c.811-.812 1.667-1.691 2.666-2.592a33.415 33.415 0 011.612-1.376 31.138 31.138 0 011.827-1.388c-1.109 1.244-2.197 2.31-3.13 3.311-.938 1-1.761 1.93-2.523 2.907.602.122 1.767.316 3.07.233 1.286-.083 2.766-.46 3.831-1.565.652-.674 1.11-1.564 1.424-2.531.31-.962.514-1.995.525-2.924.077-1.863-.16-3.377-.16-3.377l.005.005zm-3.915-11.408s-1.198-.044-2.606.331c-1.413.376-3.042 1.172-3.969 2.703-.679 1.16-.994 2.62-1.032 3.941a14.24 14.24 0 00.06 1.852c.05.558.083 1.061.138 1.431.337-.458.685-.934 1.049-1.426.359-.486.718-.978 1.115-1.487a29.64 29.64 0 012.877-3.161c-.933 1.37-1.756 2.537-2.479 3.626-.723 1.094-1.43 2.139-2.015 3.206 1.192.016 4.659.05 6.426-2.383a6.027 6.027 0 001.015-2.636c.133-.95.122-1.94.045-2.836-.083-.89-.199-1.708-.359-2.266-.149-.564-.271-.9-.271-.9l.006.005zm-5.343-10.557s-1.153.11-2.462.647c-1.314.536-2.793 1.504-3.511 3.095-1.032 2.416-.292 5.671.171 7.053.988-1.94 2.098-4.118 4.058-6.511-1.491 2.874-2.578 4.941-3.412 7.169 1.143-.15 4.466-.614 5.857-3.2.801-1.565.657-3.654.31-5.345-.166-.857-.453-1.553-.646-2.078-.205-.52-.354-.83-.354-.83h-.011zm-6.421-9.69s-1.098.232-2.307.885c-1.215.652-2.545 1.735-3.075 3.35a5.617 5.617 0 00-.26 1.912c.006.32.039.64.083.961.033.327.083.642.144.951a14.06 14.06 0 00.966 2.974c.734-1.996 1.573-4.229 3.207-6.75-1.126 2.92-1.987 5.064-2.495 7.297 1.104-.282 4.262-1.166 5.255-3.77.602-1.603.254-3.581-.254-5.162-.557-1.537-1.258-2.659-1.258-2.659l-.006.011zm-7.236-8.876s-1.038.326-2.153 1.067c-1.121.74-2.314 1.896-2.683 3.498-.519 2.422.822 5.296 1.529 6.484.513-2.006 1.109-4.24 2.462-6.81-.823 2.908-1.446 5.058-1.717 7.274 1.038-.381 3.991-1.558 4.704-4.162.43-1.603-.083-3.46-.713-4.913-.303-.741-.684-1.322-.955-1.758-.276-.426-.469-.68-.469-.68h-.005zm-7.834-8.168s-.983.398-2.01 1.2c-1.026.8-2.103 2-2.335 3.57-.392 2.438 1.198 5.063 1.971 6.163.32-1.979.712-4.173 1.822-6.749-.574 2.858-.983 4.964-1.071 7.141.96-.442 3.698-1.824 4.206-4.421.287-1.576-.358-3.306-1.071-4.643a15.46 15.46 0 00-1.021-1.642 5.344 5.344 0 00-.353-.459c-.089-.105-.138-.16-.138-.16z" fill="#56C7C7"/><path d="M40.068 37.375c-7.491 7.755-14.281 16.234-19.327 25.674-2.506 4.715-4.604 9.64-6.1 14.73-1.502 5.091-2.396 10.342-2.556 15.62a57.3 57.3 0 001.667 15.687c1.27 5.124 3.24 10.071 5.785 14.713 5.096 9.303 12.433 17.345 20.907 23.829" stroke="#56C7C7" stroke-width=".8" stroke-miterlimit="10"/><path d="M49.739 28.266s.022 1.078-.248 2.42c-.277 1.35-.845 2.958-2.076 4.074-1.839 1.73-4.693 1.918-5.979 1.913.784-.724 1.601-1.492 2.43-2.394.419-.447.822-.945 1.258-1.453.436-.509.877-1.061 1.32-1.67-.558.526-1.077 1.018-1.569 1.488-.486.475-.95.922-1.396 1.348a27.57 27.57 0 01-2.689 2.266c-.016-1.083.133-4.311 2.186-6.251 1.281-1.16 2.981-1.603 4.35-1.747a10.69 10.69 0 012.413.011v-.005zM37.324 133.295s-.828.597-1.673 1.57c-.828.967-1.723 2.365-1.662 3.913.039 1.188.58 2.338 1.248 3.283a12.574 12.574 0 002.004 2.045c-.27-2.012-.48-4.178.116-6.881-.066 2.808.138 4.886.679 7.019.756-.735 2.721-3.023 2.578-5.516-.044-.763-.282-1.47-.607-2.106a8.252 8.252 0 00-1.104-1.73c-.398-.492-.812-.873-1.094-1.155a10.435 10.435 0 00-.474-.442h-.011zm7.431-91.194s-.459-.619-1.204-1.221c-.745-.603-1.783-1.2-2.965-1.128-1.805.105-3.422 1.713-4.074 2.46 1.524-.166 3.197-.293 5.228.082-2.114.045-3.754.128-5.343.52.54.592 2.158 2.106 4.09 2.001 1.182-.066 2.247-.74 3.02-1.398a8.738 8.738 0 001.253-1.31l-.005-.006zm-6.571 7.269s-.497-.581-1.292-1.128c-.79-.548-1.877-1.073-3.07-.934-1.81.22-3.24 1.984-3.825 2.774 1.496-.293 3.136-.553 5.167-.337-2.08.205-3.682.431-5.244.94.58.536 2.346 1.934 4.24 1.669 1.159-.16 2.147-.912 2.843-1.625a10.268 10.268 0 001.181-1.354v-.006zm-5.906 7.666s-.546-.53-1.386-1.011c-.833-.481-1.96-.901-3.124-.664a4.157 4.157 0 00-1.259.509c-.38.238-.707.542-1.01.851a9.46 9.46 0 00-1.28 1.73c1.456-.431 3.04-.851 5.089-.807-2.054.376-3.6.757-5.101 1.41.63.475 2.523 1.691 4.367 1.26 1.142-.254 1.993-1.106 2.66-1.846.663-.746 1.038-1.437 1.038-1.437l.006.005zm-5.151 8.567s-.63-.487-1.551-.885c-.922-.403-2.131-.718-3.312-.337-1.806.58-2.854 2.686-3.28 3.61 1.458-.625 3.07-1.239 5.173-1.432-2.06.624-3.632 1.194-5.112 2.05.712.41 2.832 1.415 4.692.758 1.138-.398 1.96-1.338 2.496-2.19.59-.828.9-1.574.9-1.574h-.006zm-4.183 9.058s-.695-.398-1.678-.68c-.983-.281-2.258-.442-3.346.105-1.672.84-2.578 3.057-2.76 4.069 1.297-.857 2.882-1.68 4.985-2.15a34.418 34.418 0 00-2.694 1.304c-.79.442-1.457.917-2.12 1.465.779.31 3.064.983 4.776.066 1.037-.564 1.8-1.58 2.219-2.493a8.68 8.68 0 00.458-1.183l.16-.497v-.006zm-2.961 9.06s-.712-.27-1.667-.392c-.955-.122-2.148-.089-3.12.57-1.545 1-1.865 3.21-1.981 4.167 1.16-.979 2.407-1.984 4.311-2.72-1.739 1.106-2.964 2.067-4.074 3.261.768.172 3.003.454 4.5-.64a3.855 3.855 0 001.065-1.222c.132-.232.237-.465.331-.702.11-.232.199-.465.276-.691.304-.89.359-1.63.359-1.63zm-.518 9.225s-.834-.16-1.916-.122c-1.087.045-2.4.299-3.317 1.205-.707.697-1.082 1.675-1.281 2.61-.15.933-.1 1.823-.05 2.36a20.834 20.834 0 011.74-1.974c.662-.647 1.5-1.282 2.472-1.863-1.755 1.542-2.881 2.841-3.83 4.39.882.021 3.4-.15 4.807-1.637.437-.453.702-.99.911-1.537a6.381 6.381 0 00.414-1.614c.067-.508.072-.961.061-1.287l-.016-.531h.005zm1.099 9.622s-.928 0-2.076.277c-1.143.271-2.534.823-3.307 1.984-.602.89-.806 2.017-.806 3.057.055 1.028.287 1.967.453 2.531.833-1.642 1.788-3.344 3.67-5.008-.756 1.001-1.407 1.924-1.893 2.808-.502.89-.922 1.769-1.258 2.698.944-.166 3.594-.912 4.786-2.803.364-.58.552-1.205.64-1.824a6.93 6.93 0 00.105-1.791 9.255 9.255 0 00-.204-1.37c-.06-.349-.11-.559-.11-.559zm3.554 12.233s-.91.237-1.965.79c-1.049.553-2.28 1.448-2.75 2.791-.364 1.029-.286 2.189-.021 3.217.303 1.006.767 1.88 1.065 2.394.42-1.824.939-3.748 2.363-5.859a55.811 55.811 0 00-.668 1.691c-.204.542-.342 1.05-.486 1.559a18.291 18.291 0 00-.574 2.979c.889-.392 3.323-1.763 4.019-3.935.215-.664.243-1.338.171-1.979a7.196 7.196 0 00-.359-1.808 9.453 9.453 0 00-.552-1.315c-.143-.332-.248-.525-.248-.525h.005zm5.466 9.523s-.883.42-1.844 1.193c-.96.774-1.987 1.902-2.23 3.389a4.797 4.797 0 00.044 1.708c.127.547.337 1.077.58 1.569.491.979 1.087 1.819 1.529 2.261a18.99 18.99 0 01.287-3.046c.188-1.072.475-2.194.96-3.388a38.457 38.457 0 00-.507 3.538 20.25 20.25 0 00-.089 1.603c.006.514.039 1.022.089 1.536.839-.575 3.047-2.41 3.312-4.759.21-1.465-.38-2.819-.944-3.869-.552-1.05-1.187-1.747-1.187-1.747v.012zm-8.92 23.242s.541-1.315 1.656-2.653c1.11-1.338 2.805-2.692 4.947-2.929.817-.094 1.64-.017 2.44.16.817.155 1.606.414 2.335.724 1.44.63 2.716 1.365 3.472 1.857-1.32.249-2.744.536-4.24.896a34.719 34.719 0 00-4.863 1.531c1.932-.326 3.621-.608 5.184-.868 1.573-.271 3.02-.464 4.466-.558-.282.663-.867 1.923-1.8 3.117-.938 1.194-2.225 2.316-3.98 2.642-1.077.199-2.23.077-3.357-.221-1.11-.321-2.175-.846-3.113-1.376a18.21 18.21 0 01-1.287-.807 29.785 29.785 0 01-.982-.758 17.203 17.203 0 01-.867-.751l-.01-.006zm-9.055-12.651s.74-1.156 2.02-2.222c1.281-1.073 3.086-2.04 5.124-1.891 1.59.094 3.085.802 4.328 1.625a17.19 17.19 0 012.953 2.305c-1.27.017-2.622.028-4.102.133a39.195 39.195 0 00-4.836.636c1.855.055 3.528.005 5.03.033 1.518.011 2.865.094 4.272.204-.37.575-1.115 1.658-2.186 2.631-1.07.967-2.467 1.824-4.195 1.863-1.06.022-2.098-.31-3.103-.785-.994-.486-1.96-1.116-2.727-1.813-.778-.68-1.43-1.36-1.882-1.863a13.601 13.601 0 01-.525-.613c-.11-.155-.176-.238-.176-.238l.005-.005zm-6.795-13.823s.916-.962 2.34-1.73c1.425-.774 3.357-1.349 5.29-.813a6.962 6.962 0 012.047.978 11.58 11.58 0 011.783 1.41 16.14 16.14 0 011.386 1.514c.42.47.756.901 1.005 1.233-2.507-.392-5.195-.951-8.728-.94 1.788.376 3.35.702 4.792 1.006 1.463.288 2.793.586 4.085.968-.464.486-1.38 1.392-2.584 2.128-1.203.735-2.688 1.298-4.339 1-1.005-.188-1.993-.674-2.87-1.327-.85-.668-1.618-1.492-2.264-2.293-.657-.791-1.126-1.587-1.452-2.173a16.13 16.13 0 01-.502-.967l.01.006zm-3.529-15.09s1.093-.724 2.622-1.15c1.535-.437 3.462-.564 5.19.354 1.347.696 2.379 1.879 3.135 3.062a16.26 16.26 0 011.712 3.09c-1.116-.453-2.302-.945-3.638-1.41a42.532 42.532 0 00-2.12-.68 34.84 34.84 0 00-2.335-.613c1.584.768 3.069 1.36 4.377 1.946.657.292 1.281.574 1.883.867.602.304 1.187.597 1.772.896-.535.364-1.59 1.033-2.882 1.492-1.297.453-2.837.691-4.378.077-.91-.386-1.716-1.072-2.418-1.879-.695-.812-1.308-1.746-1.7-2.653a20.506 20.506 0 01-.927-2.382c-.1-.31-.177-.569-.227-.746-.055-.177-.066-.277-.066-.277v.006zM.353 92.094s1.181-.475 2.721-.586c1.546-.116 3.429.133 4.88 1.349 1.154.934 1.916 2.271 2.407 3.565.53 1.293.884 2.542 1.027 3.31-1.948-1.315-4.212-2.835-7.204-4.206.696.514 1.347.995 1.965 1.454.64.448 1.242.873 1.822 1.282 1.148.824 2.17 1.598 3.125 2.427-.58.243-1.712.674-3.042.857a7.404 7.404 0 01-2.092 0c-.724-.111-1.436-.354-2.076-.807-.795-.553-1.435-1.371-1.949-2.283a12.44 12.44 0 01-.673-1.426 17.584 17.584 0 01-.42-1.448 20.638 20.638 0 01-.43-2.46c-.034-.32-.061-.575-.072-.757v-.277l.01.006zM2.522 78.74s1.187-.243 2.683-.071c1.501.165 3.251.735 4.471 2.166.928 1.095 1.397 2.51 1.623 3.836.31 1.343.37 2.598.37 3.366-.811-.812-1.667-1.691-2.666-2.592a33.022 33.022 0 00-1.612-1.376 30.866 30.866 0 00-1.828-1.388c1.11 1.244 2.198 2.31 3.13 3.311.939 1 1.762 1.93 2.523 2.907-.601.122-1.766.316-3.069.233-1.286-.083-2.766-.46-3.831-1.565-.652-.674-1.11-1.564-1.425-2.531-.309-.962-.513-1.995-.524-2.924-.077-1.863.16-3.377.16-3.377l-.005.005zm3.915-11.408s1.198-.044 2.605.331c1.414.376 3.042 1.172 3.97 2.703.679 1.16.993 2.62 1.032 3.941a14.24 14.24 0 01-.06 1.852c-.05.558-.084 1.061-.139 1.431-.337-.458-.684-.934-1.049-1.426-.358-.486-.717-.978-1.115-1.487a29.64 29.64 0 00-2.876-3.161c.933 1.37 1.756 2.537 2.479 3.626.723 1.094 1.43 2.139 2.015 3.206-1.193.016-4.66.05-6.426-2.383a6.028 6.028 0 01-1.016-2.636c-.132-.95-.121-1.94-.044-2.836.083-.89.199-1.708.359-2.266.149-.564.27-.9.27-.9l-.005.005zm5.343-10.557s1.155.11 2.463.647c1.314.536 2.793 1.504 3.51 3.095 1.033 2.416.294 5.671-.17 7.053-.988-1.94-2.098-4.118-4.058-6.511 1.49 2.874 2.578 4.941 3.412 7.169-1.143-.15-4.466-.614-5.857-3.2-.8-1.565-.657-3.654-.31-5.345.166-.857.453-1.553.646-2.078.205-.52.354-.83.354-.83h.01zm6.42-9.69s1.098.232 2.307.885c1.214.652 2.545 1.735 3.075 3.35.204.618.276 1.265.26 1.912-.006.32-.04.64-.083.961a10.35 10.35 0 01-.144.951 14.077 14.077 0 01-.966 2.974c-.734-1.996-1.573-4.229-3.207-6.75 1.126 2.92 1.987 5.064 2.495 7.297-1.104-.282-4.262-1.166-5.256-3.77-.602-1.603-.254-3.581.254-5.162.558-1.537 1.259-2.659 1.259-2.659l.005.011zm7.238-8.876s1.038.326 2.153 1.067c1.12.74 2.313 1.896 2.683 3.498.519 2.422-.823 5.296-1.53 6.484-.513-2.006-1.11-4.24-2.462-6.81.823 2.908 1.447 5.058 1.717 7.274-1.038-.381-3.991-1.558-4.703-4.162-.43-1.603.082-3.46.712-4.913.303-.741.684-1.322.955-1.758.276-.426.47-.68.47-.68h.005zm7.832-8.168s.983.398 2.01 1.2c1.027.8 2.103 2 2.335 3.57.392 2.438-1.198 5.063-1.97 6.163-.32-1.979-.713-4.173-1.822-6.749.574 2.858.982 4.964 1.07 7.141-.96-.442-3.698-1.824-4.206-4.421-.287-1.576.359-3.306 1.071-4.643a15.57 15.57 0 011.021-1.642c.144-.204.265-.36.354-.459.088-.105.138-.16.138-.16z" fill="#56C7C7"/><path d="M100.788 35.513c.944-6.837 3.384-15.41 6.707-22.507-1.297 2.83-7.508 7.08-11.532 6.185-4.648-1.034-7.977-9.927-8.474-17.383-.502 7.456-3.826 16.35-8.474 17.383-4.03.895-10.24-3.36-11.532-6.185 3.323 7.102 5.769 15.675 6.707 22.507h26.603-.005z" fill="#BAA869"/><path d="M100.788 35.513c.944-6.837 3.384-15.41 6.707-22.507-1.297 2.83-7.508 7.08-11.532 6.185-4.648-1.034-7.977-9.927-8.474-17.383-.502 7.456-3.826 16.35-8.474 17.383-4.03.895-10.24-3.36-11.532-6.185 3.323 7.102 5.769 15.675 6.707 22.507h26.603-.005z" fill="url(#paint0_linear_10944_60715)"/><path d="M80.644 16.914c-1.254-1.139-2.534-3.217-3.103-5.373.088 2.228-.535 4.726-1.397 6.185 1.507.768 3.136.591 4.5-.812z" fill="#BAA869"/><path d="M80.644 16.914c-1.254-1.139-2.534-3.217-3.103-5.373.088 2.228-.535 4.726-1.397 6.185 1.507.768 3.136.591 4.5-.812z" fill="url(#paint1_linear_10944_60715)"/><path d="M94.329 16.914c1.253-1.139 2.534-3.217 3.102-5.373-.088 2.228.536 4.726 1.397 6.185-1.507.768-3.136.591-4.5-.812z" fill="#BAA869"/><path d="M94.329 16.914c1.253-1.139 2.534-3.217 3.102-5.373-.088 2.228.536 4.726 1.397 6.185-1.507.768-3.136.591-4.5-.812z" fill="url(#paint2_linear_10944_60715)"/><path d="M89.901 2.808a2.416 2.416 0 01-2.412 2.415 2.416 2.416 0 010-4.83 2.416 2.416 0 012.412 2.415z" fill="#BAA869"/><path d="M89.901 2.808a2.416 2.416 0 01-2.412 2.415 2.416 2.416 0 010-4.83 2.416 2.416 0 012.412 2.415z" fill="url(#paint3_linear_10944_60715)"/><path d="M107.081 15.371a2.06 2.06 0 002.059-2.061 2.06 2.06 0 00-2.059-2.062 2.06 2.06 0 00-2.059 2.062 2.06 2.06 0 002.059 2.061z" fill="#BAA869"/><path d="M107.081 15.371a2.06 2.06 0 002.059-2.061 2.06 2.06 0 00-2.059-2.062 2.06 2.06 0 00-2.059 2.062 2.06 2.06 0 002.059 2.061z" fill="url(#paint4_linear_10944_60715)"/><path d="M99.198 11.541a1.766 1.766 0 11-3.533 0 1.766 1.766 0 113.533 0z" fill="#BAA869"/><path d="M99.198 11.541a1.766 1.766 0 11-3.533 0 1.766 1.766 0 113.533 0z" fill="url(#paint5_linear_10944_60715)"/><path d="M67.891 15.371a2.06 2.06 0 002.06-2.061 2.06 2.06 0 00-2.06-2.062 2.06 2.06 0 00-2.059 2.062 2.06 2.06 0 002.06 2.061z" fill="#BAA869"/><path d="M67.891 15.371a2.06 2.06 0 002.06-2.061 2.06 2.06 0 00-2.06-2.062 2.06 2.06 0 00-2.059 2.062 2.06 2.06 0 002.06 2.061z" fill="url(#paint6_linear_10944_60715)"/><path d="M75.775 11.541a1.766 1.766 0 103.533 0 1.766 1.766 0 10-3.534 0z" fill="#BAA869"/><path d="M75.775 11.541a1.766 1.766 0 103.533 0 1.766 1.766 0 10-3.534 0z" fill="url(#paint7_linear_10944_60715)"/><path d="M59.227 145.255l-3.62 1.91.691-4.043-2.929-2.86 4.048-.589 1.81-3.673 1.81 3.673 4.052.589-2.928 2.86.69 4.043-3.624-1.91zm14.498 0l-3.62 1.91.691-4.043-2.929-2.86 4.048-.589 1.81-3.673 1.815 3.673 4.047.589-2.928 2.86.69 4.043-3.624-1.91zm14.495 0l-3.619 1.91.691-4.043-2.929-2.86 4.048-.589 1.81-3.673 1.815 3.673 4.047.589-2.928 2.86.69 4.043-3.624-1.91zm14.506 0l-3.625 1.91.691-4.043-2.929-2.86 4.048-.589 1.815-3.673 1.81 3.673 4.047.589-2.928 2.86.69 4.043-3.619-1.91zm14.5 0l-3.625 1.91.691-4.043-2.929-2.86 4.048-.589 1.815-3.673 1.81 3.673 4.047.589-2.928 2.86.69 4.043-3.619-1.91z" fill="#BAA869"/><path d="M53.18 54.08v-.384a6.14 6.14 0 00-.096-1.168h1.968c-.064.304-.08.688-.08 1.168v.384h4.432a18 18 0 001.776-.064c-.048.352-.064.656-.064 1.216v1.312c0 .512.016.88.064 1.232h-1.728v-2.128H49.036v2.128h-1.744c.048-.368.08-.72.08-1.248v-1.296a8.7 8.7 0 00-.064-1.216c.512.048.96.064 1.744.064h4.128zm-1.92 7.168h-2.256c-.784 0-1.264.032-1.712.096V59.6c.432.08.896.096 1.712.096h10.48c.8 0 1.248-.016 1.696-.096v1.744a11.98 11.98 0 00-1.696-.096H56.54v3.648c0 .384.208.448 1.536.448 1.184 0 1.552-.096 1.664-.432.08-.208.144-.816.144-1.36v-.272c.688.304.976.384 1.648.496-.064 1.6-.256 2.304-.736 2.704-.448.384-1.12.48-3.168.48-2.4 0-2.864-.224-2.864-1.376v-4.336h-1.76c-.128 1.488-.304 2.144-.816 3.04-.784 1.376-1.808 2.08-4.384 3.072a7.842 7.842 0 00-.976-1.648c1.344-.4 1.824-.592 2.432-.928 1.04-.576 1.696-1.504 1.888-2.672.048-.256.064-.416.112-.864zm-1.68-2.736V56.8c.432.064.8.08 1.52.08h6.272c.72 0 1.088-.016 1.536-.08v1.712c-.448-.064-.832-.08-1.536-.08H51.1c-.704 0-1.088.016-1.52.08zm20.288.992h-2.08c-.768 0-1.312.032-1.744.08v-1.136c-.768.448-1.056.608-1.744.912-.48-.896-.48-.896-1.056-1.696 1.52-.592 2.816-1.296 3.872-2.112a14.332 14.332 0 001.76-1.68c.336-.368.512-.592.864-1.152h2.032c.896 1.216 1.664 1.984 2.848 2.832 1.328.944 2.384 1.488 3.92 2.032-.576.832-.768 1.184-1.024 1.84a21.891 21.891 0 01-1.904-1.008v1.168c-.464-.048-.96-.08-1.696-.08H71.66v1.808h2.592c.832 0 1.344-.032 1.76-.08v1.792c-.432-.048-.976-.08-1.76-.08H71.66v2.16h4.16c.848 0 1.536-.032 2.032-.096v1.872c-.528-.08-1.2-.112-2.016-.112h-9.984c-.816 0-1.472.032-2 .112v-1.872c.464.064 1.152.096 2.048.096h3.968v-2.16h-2.352c-.8 0-1.344.032-1.776.08v-1.792c.496.064.976.08 1.776.08h2.352v-1.808zm-2.208-1.616h6.336c.336 0 .448 0 .752-.016-1.76-1.168-2.768-2.096-3.936-3.632-.928 1.376-2.08 2.464-3.856 3.632.32.016.464.016.704.016zm14.88-.224v-1.488c-.448.432-.688.624-1.312 1.12-.496-.608-.704-.832-1.168-1.216 1.504-1.088 2.384-1.984 2.976-3.088a3.98 3.98 0 00.336-.784l1.856.352c-.128.192-.128.192-.336.576-.16.272-.288.48-.512.816h7.76c.976 0 1.52-.032 2.016-.096v1.76a17.3 17.3 0 00-1.568-.08v2.128h.624c.752 0 1.104-.016 1.568-.096v1.792c-.464-.08-.832-.096-1.568-.096h-.624v2.144h.32c.752 0 1.104-.016 1.52-.08v1.76c-.416-.08-.8-.096-1.488-.096H82.028c-.624 0-.976.016-1.424.096v-1.76c.432.064.848.08 1.568.08h.368v-2.144h-.688c-.72 0-1.088.016-1.568.096v-1.792c.464.08.816.096 1.568.096h.688zm1.584-2.128v2.128h1.296v-2.128h-1.296zm0 3.728v2.144h1.296v-2.144h-1.296zm2.752 2.144h1.328v-2.144h-1.328v2.144zm0-3.744h1.328v-2.128h-1.328v2.128zm2.768 3.744h1.36v-2.144h-1.36v2.144zm0-3.744h1.36v-2.128h-1.36v2.128zm5.04 8.544l-1.536.96c-.576-1.328-.976-2-1.92-3.344l1.376-.688c.928 1.136 1.408 1.856 2.08 3.072zm-4.352.56l-1.744.384c-.24-1.552-.336-2-.752-3.36l1.552-.352c.448 1.264.656 1.968.944 3.328zm-3.712.272l-1.744.16v-.656c0-.608-.128-2.048-.24-2.832l1.552-.176c.272 1.456.368 2.16.432 3.504zm-4.96.224l-1.392-1.104c.976-.96 1.44-1.648 1.984-2.992l1.472.736c-.656 1.552-1.072 2.208-2.064 3.36zm21.712-2.592l-.368-1.712c-.08.208-.096.288-.176.544a11.837 11.837 0 01-1.616-2.256c.08 1.088.096 1.312.096 1.824v2.64c0 .768.016 1.184.096 1.664h-1.856c.08-.512.112-.992.112-1.696v-2.064c0-.64.032-1.392.064-1.92-.72 1.76-1.232 2.656-2.08 3.6a4.82 4.82 0 00-.816-1.648c.672-.688 1.184-1.392 1.728-2.368.336-.592.4-.752.848-1.808h-.832c-.704 0-1.056.016-1.44.08v-1.696c.368.064.704.08 1.44.08h1.072v-3.792c0-.72-.016-1.184-.08-1.568h1.824c-.064.416-.08.784-.08 1.552v3.808h.752c.608 0 .88-.016 1.232-.064v1.664a9.306 9.306 0 00-1.264-.064h-.576c.592 1.008 1.184 1.728 2.064 2.448-.224.4-.288.544-.448.896.368-.016.928-.112 1.472-.224l3.744-.832v-7.312c0-.928-.016-1.36-.096-1.856h1.936c-.08.528-.096.96-.096 1.84v6.944c.656-.16.944-.24 1.36-.4l.336 1.824c-.432.048-.88.128-1.536.288l-.16.032v2.336c0 .896.016 1.376.096 1.888h-1.936c.08-.544.096-.928.096-1.904v-1.936l-3.392.768c-.704.16-1.168.288-1.52.4zM97.02 54.064l1.36-.608c.512 1.424.752 2.24.976 3.456l-1.344.576c-.256-1.472-.544-2.464-.992-3.424zm5.504-.64l1.344.592c-.416 1.472-.624 2.032-1.28 3.472l-1.168-.608c.512-1.072.784-1.904 1.104-3.456zm1.52 1.456l1.12-1.232c1.376.96 1.888 1.408 2.8 2.352l-1.088 1.344c-1.184-1.264-1.264-1.328-2.832-2.464zm-.496 3.952l1.12-1.184c1.264.864 1.952 1.456 2.784 2.352l-1.088 1.296c-1.12-1.2-1.664-1.68-2.816-2.464zm10.528-1.904l-.112-2.096c.352.016.528.016.608.016.288 0 .288 0 2.64-.16 1.168-.064 3.904-.208 8.176-.416 1.312-.064 1.392-.064 1.648-.128l.112 2.032c-.176-.016-.176-.016-.336-.016-.96 0-2.144.32-3.168.864-2.032 1.056-3.232 2.656-3.232 4.272 0 1.248.784 2.208 2.128 2.608.784.24 1.808.416 2.384.416.016 0 .16 0 .32-.016l-.288 2.176c-.208-.048-.24-.048-.544-.096-1.76-.224-2.768-.512-3.744-1.056-1.472-.832-2.288-2.192-2.288-3.856 0-1.36.544-2.704 1.52-3.76.608-.656 1.184-1.088 2.224-1.616-1.296.192-2.288.288-5.392.512-1.424.112-2.16.208-2.656.32zm9.792 1.536l1.12-.56c.704.752 1.136 1.36 1.68 2.352l-1.12.592c-.528-.976-.976-1.616-1.68-2.384zm4.704.752l-1.104.624a11.789 11.789 0 00-1.632-2.32l1.072-.56a9.253 9.253 0 011.664 2.256zm-77 26.04h-3.12c-1.152 0-1.968.048-2.616.12v-1.704c-1.152.672-1.584.912-2.616 1.368-.72-1.344-.72-1.344-1.584-2.544 2.28-.888 4.224-1.944 5.808-3.168a21.499 21.499 0 002.64-2.52c.504-.552.768-.888 1.296-1.728h3.048c1.344 1.824 2.496 2.976 4.272 4.248 1.992 1.416 3.576 2.232 5.88 3.048-.864 1.248-1.152 1.776-1.536 2.76-1.08-.504-1.776-.888-2.856-1.512v1.752c-.696-.072-1.44-.12-2.544-.12H54.26v2.712h3.888c1.248 0 2.016-.048 2.64-.12v2.688c-.648-.072-1.464-.12-2.64-.12H54.26v3.24h6.24c1.272 0 2.304-.048 3.048-.144v2.808c-.792-.12-1.8-.168-3.024-.168H45.548c-1.224 0-2.208.048-3 .168v-2.808c.696.096 1.728.144 3.072.144h5.952v-3.24h-3.528c-1.2 0-2.016.048-2.664.12v-2.688c.744.096 1.464.12 2.664.12h3.528v-2.712zm-3.312-2.424h9.504c.504 0 .672 0 1.128-.024-2.64-1.752-4.152-3.144-5.904-5.448-1.392 2.064-3.12 3.696-5.784 5.448.48.024.696.024 1.056.024zm36.696-7.944l1.968 1.08c-.768 1.272-1.104 1.776-2.04 2.952.288.312.336.384.648.744.504-.696.72-1.056 1.488-2.304l1.752 1.272c-.504.624-.504.624-1.68 2.16a23.303 23.303 0 01-1.92 2.16c.72-.048.984-.072 1.728-.144a6.405 6.405 0 00-.432-.936l1.512-.552c.6 1.248.864 1.896 1.416 3.768l-1.68.552c-.12-.528-.168-.696-.264-1.152a38.98 38.98 0 01-1.752.216c.552.36.6.384 1.248.984l-.912.864h.528c1.44 0 1.872-.024 2.52-.144v2.52a19.578 19.578 0 00-2.52-.144h-.816l1.848 1.176c-.936 1.224-1.608 1.968-2.616 2.88.696.96 1.32 1.488 1.68 1.488.432 0 .648-.672.888-2.904a5.884 5.884 0 001.824 1.32c-.264 1.752-.528 2.688-.984 3.384-.336.528-.816.768-1.56.768-1.2 0-2.304-.792-3.672-2.592-1.728 1.224-3.096 1.944-5.256 2.688-.408-.912-.648-1.32-1.368-2.136 2.16-.528 3.696-1.176 5.52-2.376-.552-1.128-.84-1.992-1.224-3.696h-3.192c-.024.384-.024.48-.072.768.792.888 1.416 1.344 2.664 2.016a6.619 6.619 0 00-.648 1.056c-.336.6-.336.6-.504.912a7.966 7.966 0 01-1.992-1.68c-.624 2.088-1.416 3.384-2.976 4.992-.672-.768-.96-1.032-1.92-1.728 1.896-1.416 2.88-3.384 3.12-6.336-.888.024-1.32.048-1.8.096v-2.424c.576.072.96.096 1.968.096h4.944c-.096-.696-.12-.888-.168-1.344l-1.344.48c-.048-.408-.072-.552-.096-.816-.624.096-1.032.168-1.68.264-1.848.24-3.096.408-3.432.48l-.096-.744c-.36.696-.504 1.056-.696 1.68a12.72 12.72 0 01-1.128-2.208c.048.672.096 2.088.096 2.928v6.912c0 1.488.024 2.328.12 2.952H69.38c.096-.672.144-1.704.144-2.952V89.96c0-1.08.048-1.944.192-3.96-.72 2.52-1.344 4.104-2.088 5.376-.288-1.104-.648-1.968-1.152-2.64.648-1.032 1.032-1.8 1.8-3.816.24-.624.432-1.2.984-3.24h-.576c-.6 0-1.2.048-1.632.096v-2.568c.408.096.768.12 1.632.12h.816v-1.992c0-1.152-.024-1.896-.12-2.52h2.592c-.072.576-.096 1.224-.096 2.496v2.016h.432c.504 0 .936-.024 1.224-.048-.168-.168-.264-.24-.528-.48l1.392-1.656.528.504c.744-1.056 1.152-1.824 1.536-2.856l1.968.984c-.768 1.44-1.224 2.184-2.088 3.36.24.288.336.408.576.744.648-.984.816-1.248 1.248-2.256l1.704 1.152v-1.128c-.024-1.656-.048-2.016-.168-2.736h2.64c-.12.456-.144.864-.144 1.608 0 .072 0 .384.024.768v.744L82.964 77c.288.264.456.432.528.504a10.855 10.855 0 001.464-2.616zm-.744 6.408c-.624-.84-1.2-1.464-1.992-2.16.024 2.184.024 2.184.12 3.888h.336c.936-.984.936-.984 1.536-1.728zM83.9 85.52l.72-.696c-.216.024-.36.048-.456.048-.408.072-.408.072-1.032.12-.024 0-.264.024-.6.048.048.552.072.624.192 1.512h2.688c-.528-.528-.84-.72-1.512-1.032zm-10.176-6.072v2.328c-.6-.072-.864-.096-1.368-.096h-.336c.36.888.744 1.488 1.464 2.352l-.072-.528c.168.024.264.024.36.024h.432c.816-.936 1.08-1.272 1.512-1.848-.72-.936-1.224-1.512-1.992-2.232zm12 9.336h-2.592c.192.888.36 1.368.768 2.256 1.128-1.056 1.464-1.464 1.824-2.256zm-7.776-6.624l1.512-.48c.336.744.456 1.032.624 1.584-.144-2.016-.192-3.12-.192-4.2-.288.408-.36.528-.528.768-.888 1.344-1.944 2.688-2.736 3.528.936-.072.936-.072 1.752-.192-.168-.384-.216-.528-.432-1.008zm14.232-.288l-.288-2.664c.312.048.936.072 1.152.072.048 0 .144 0 .288-.024h.36c1.08-1.848 1.68-3.24 2.016-4.656l2.784.504c-.192.312-.288.528-.456.888-.288.624-1.152 2.232-1.704 3.144 1.536-.096 2.112-.144 3.6-.336-.432-.84-.576-1.056-1.104-1.92l1.92-.936c1.104 1.536 1.824 2.784 2.976 5.016l-2.16 1.272c-.264-.624-.384-.912-.552-1.296-1.536.24-5.616.672-7.272.768-.6.024-1.2.096-1.56.168zm14.256-4.968v1.104c1.248-.384 1.848-.6 2.664-1.008 1.344-.648 2.04-1.056 2.784-1.68l1.776 2.208c-.504.216-.504.216-1.68.792-1.536.768-3.408 1.488-5.544 2.112v1.512c0 .576.216.672 1.728.672 1.944 0 2.496-.072 2.808-.312.264-.24.36-.72.408-2.496.816.384 1.56.6 2.4.744-.192 2.256-.408 3.072-.96 3.624-.624.6-1.536.744-4.68.744-1.92 0-2.664-.072-3.288-.336-.672-.264-.936-.72-.936-1.584v-5.976c0-.912-.024-1.512-.12-2.064h2.76c-.096.528-.12 1.008-.12 1.944zm.024 11.088v.792c2.304-.648 4.032-1.44 5.544-2.592l1.824 2.112c-.696.384-3.048 1.44-3.792 1.728-1.176.432-1.416.504-3.576 1.104v2.256c0 .408.144.552.6.648.384.096.84.12 1.704.12 1.584 0 2.184-.12 2.4-.48.216-.312.36-1.368.384-2.76.72.36 1.584.648 2.448.816-.168 2.256-.432 3.168-1.056 3.864-.648.72-1.488.888-4.512.888-2.352 0-3.12-.096-3.744-.48-.552-.336-.744-.768-.744-1.56v-6.312c0-1.104-.024-1.56-.12-2.136h2.76c-.096.504-.12.936-.12 1.992zm-13.2 6.36v-9.6c0-.84-.024-1.488-.096-2.208.528.048.96.072 1.728.072h5.28c.984 0 1.536-.024 2.16-.096-.048.672-.072 1.056-.072 2.256v9.552c0 1.032-.192 1.584-.672 1.872-.504.312-1.272.456-2.52.456-.216 0-.576 0-1.008-.024-.072-.84-.216-1.512-.528-2.448.456.096 1.08.168 1.608.168.504 0 .6-.072.648-.432v-1.992h-4.032v2.376c0 1.128.024 1.896.12 2.664H93.14c.096-.816.12-1.44.12-2.616zm2.472-9.552v1.488h4.056V84.8h-4.056zm0 3.552v1.488h4.056v-1.488h-4.056zm33.042-3.252l1.818-.9a16.741 16.741 0 012.7 5.724l-2.052 1.026c-.36-1.89-1.476-4.536-2.466-5.85zm-5.292-3.96l-.036.234c-.09.522-.216 1.26-.396 2.232-.054.306-.054.306-.108.54.54-.018.792-.036 1.116-.036 1.188 0 2.07.324 2.664.954.612.684.846 1.548.846 3.186 0 3.096-.522 5.562-1.386 6.552-.504.594-1.044.81-1.998.81-.828 0-1.566-.144-2.772-.54.018-.342.036-.612.036-.792 0-.468-.036-.828-.18-1.53.972.432 1.998.72 2.628.72.522 0 .81-.342 1.08-1.224.288-.936.468-2.574.468-4.104 0-1.656-.414-2.142-1.8-2.142-.378 0-.666.018-1.08.054-.882 3.69-1.692 5.868-3.672 9.792l-2.088-1.152c1.386-1.89 2.772-5.13 3.618-8.478-.27.036-.27.036-.846.144l-1.638.27a7.391 7.391 0 00-.738.18l-.216-2.124c.81-.018 1.746-.108 3.834-.378.342-1.998.468-3.024.468-3.636v-.324l2.34.234a4.188 4.188 0 00-.144.558zm4.176.126l1.26-.63c.792.846 1.278 1.53 1.89 2.646l-1.26.666c-.594-1.098-1.098-1.818-1.89-2.682zm5.292.846l-1.242.702a13.262 13.262 0 00-1.836-2.61l1.206-.63a10.41 10.41 0 011.872 2.538zm-58.122 32.92h-2.952c-.198 1.134-.486 1.89-1.008 2.754 1.908 1.044 3.744 1.458 6.75 1.584-.324.648-.612 1.332-.774 1.998-3.042-.324-5.112-.972-7.092-2.232-1.044 1.008-2.178 1.656-4.014 2.304a8.356 8.356 0 00-1.116-1.692c1.656-.45 2.718-.954 3.654-1.728-.468-.432-.702-.702-1.116-1.242a8.91 8.91 0 00-.558-.666l1.566-.828c.216.432.576.882 1.188 1.44a5.643 5.643 0 00.63-1.692H67.34c-.576 0-1.008.018-1.458.072.054-.522.072-.864.072-1.512v-2.502c0-.774-.018-1.08-.072-1.512.54.036.81.054 1.674.054h2.79l-.018-1.296h-2.97c-.72 0-1.188.018-1.728.09v-1.944c.54.072 1.224.108 1.944.108h2.754c-.018-.936-.036-1.26-.108-1.818h2.07c-.054.504-.054.504-.054 1.818h3.132c.828 0 1.422-.036 2.034-.108v1.944c-.54-.072-1.08-.09-1.8-.09h-3.366v1.296h2.646c.81 0 1.188-.018 1.692-.054-.036.45-.054.9-.054 1.566v2.322c0 .864.018 1.206.054 1.638-.522-.054-.936-.072-1.746-.072zm-4.5-3.672h-2.502v1.962h2.394c.072-.81.072-.954.108-1.962zm4.302 0H72.2c-.036.936-.054 1.278-.126 1.962h2.556v-1.962zm-12.114 8.046v-5.292c0-.558 0-.846.054-1.998-.396.702-.684 1.134-1.26 1.89-.252-.864-.45-1.386-.828-2.142 1.656-1.8 3.042-4.77 3.366-7.164l2.052.486c-.72 2.232-.828 2.556-1.476 3.996v10.242c0 .774.018 1.368.09 2.088h-2.106c.072-.684.108-1.224.108-2.106zm20.916-12.168l.648-1.962c2.034.63 4.374.954 7.164 1.008l-.342 2.016c-3.582-.216-4.986-.432-7.47-1.062zm-1.458 4.86l-.126-2.16c.486.054.666.054 1.062.054 1.746 0 4.14-.144 6.39-.396.81-.09 1.134-.144 1.44-.288l1.206 1.548c-.342.234-.72.558-1.53 1.35-.972.936-2.52 2.322-3.078 2.754.45-.162.684-.216 1.098-.216.684 0 1.152.234 1.494.756.252.396.324.648.396 1.656.126 1.422.36 1.674 1.548 1.674 1.206 0 2.61-.27 3.546-.684l.27 2.232c-.306.018-.414.036-1.584.216-1.098.162-1.746.216-2.52.216-1.278 0-1.998-.198-2.52-.684-.504-.468-.648-.9-.738-2.322-.036-.684-.072-.936-.18-1.152-.126-.234-.414-.378-.756-.378-.846 0-1.656.504-3.114 1.908a41.392 41.392 0 00-2.538 2.682l-1.656-1.872c.792-.54.792-.54 4.176-3.6.414-.378.738-.684 2.088-1.98.486-.468 1.188-1.134 2.106-1.998-1.026.162-1.494.234-2.34.306-.252.018-.252.018-1.818.144-.342.036-.342.036-.936.09-.666.054-.792.072-1.386.144zm21.978.432l.036.036c1.638-.648 2.43-.828 3.78-.828 3.078 0 5.058 1.584 5.058 4.05 0 1.71-.846 3.078-2.448 3.978-1.17.666-2.7 1.026-4.356 1.026-1.512 0-2.772-.288-3.492-.828-.684-.504-1.08-1.26-1.08-2.07 0-1.494 1.296-2.574 3.096-2.574 1.26 0 2.358.522 3.114 1.476.36.45.558.846.828 1.62 1.494-.558 2.142-1.332 2.142-2.61 0-1.404-1.386-2.322-3.564-2.322-2.628 0-5.256 1.062-7.416 3.024l-1.224-1.944c.63-.306 1.35-.792 2.538-1.692 1.674-1.278 4.014-3.294 5.382-4.68l.324-.324-.018-.018c-.684.09-1.836.162-5.094.306a6.072 6.072 0 00-.864.09l-.09-2.16c.612.072 1.134.108 2.124.108 1.53 0 3.726-.09 5.472-.216.63-.054.828-.09 1.116-.234l1.116 1.584c-.306.162-.432.27-.936.738-.9.828-2.214 1.998-2.826 2.52-.324.27-1.62 1.242-1.98 1.476-.45.306-.45.306-.738.468zm2.592 6.408c-.324-1.242-1.008-1.89-2.016-1.89-.648 0-1.062.324-1.062.828 0 .72.81 1.134 2.142 1.134.342 0 .432 0 .936-.072z" fill="#221A15"/></g><defs><linearGradient id="paint0_linear_10944_60715" x1="70" y1="10.5" x2="109.421" y2="28.513" gradientUnits="userSpaceOnUse"><stop stop-color="#BAA869"/><stop offset=".49" stop-color="#F0E5BE"/><stop offset="1" stop-color="#BAA869"/></linearGradient><linearGradient id="paint1_linear_10944_60715" x1="70" y1="10.5" x2="109.421" y2="28.513" gradientUnits="userSpaceOnUse"><stop stop-color="#BAA869"/><stop offset=".49" stop-color="#F0E5BE"/><stop offset="1" stop-color="#BAA869"/></linearGradient><linearGradient id="paint2_linear_10944_60715" x1="70" y1="10.5" x2="109.421" y2="28.513" gradientUnits="userSpaceOnUse"><stop stop-color="#BAA869"/><stop offset=".49" stop-color="#F0E5BE"/><stop offset="1" stop-color="#BAA869"/></linearGradient><linearGradient id="paint3_linear_10944_60715" x1="70" y1="10.5" x2="109.421" y2="28.513" gradientUnits="userSpaceOnUse"><stop stop-color="#BAA869"/><stop offset=".49" stop-color="#F0E5BE"/><stop offset="1" stop-color="#BAA869"/></linearGradient><linearGradient id="paint4_linear_10944_60715" x1="70" y1="10.5" x2="109.421" y2="28.513" gradientUnits="userSpaceOnUse"><stop stop-color="#BAA869"/><stop offset=".49" stop-color="#F0E5BE"/><stop offset="1" stop-color="#BAA869"/></linearGradient><linearGradient id="paint5_linear_10944_60715" x1="70" y1="10.5" x2="109.421" y2="28.513" gradientUnits="userSpaceOnUse"><stop stop-color="#BAA869"/><stop offset=".49" stop-color="#F0E5BE"/><stop offset="1" stop-color="#BAA869"/></linearGradient><linearGradient id="paint6_linear_10944_60715" x1="70" y1="10.5" x2="109.421" y2="28.513" gradientUnits="userSpaceOnUse"><stop stop-color="#BAA869"/><stop offset=".49" stop-color="#F0E5BE"/><stop offset="1" stop-color="#BAA869"/></linearGradient><linearGradient id="paint7_linear_10944_60715" x1="70" y1="10.5" x2="109.421" y2="28.513" gradientUnits="userSpaceOnUse"><stop stop-color="#BAA869"/><stop offset=".49" stop-color="#F0E5BE"/><stop offset="1" stop-color="#BAA869"/></linearGradient><clipPath id="clip0_10944_60715"><path fill="#fff" d="M0 0h175v152H0z"/></clipPath></defs></svg>