<svg width="178" height="162" fill="none" xmlns="http://www.w3.org/2000/svg"><path d="M176.448 84.716a1 1 0 001.224-1.227L155.368 1.003a1 1 0 00-1.671-.448l-60.544 60.28a1 1 0 00.447 1.674l24.139 6.47c.583.156.909.756.676 1.312C108.05 95.036 74.64 157.01 1.54 151.642c-1.227-.09-1.73 1.973-.554 2.333 45.24 13.865 99.695 18.545 150.15-75.224.22-.41.702-.632 1.151-.511l24.161 6.476z" fill="url(#paint0_linear_10944_61296)"/><defs><linearGradient id="paint0_linear_10944_61296" x1="118.01" y1="-10.554" x2="68.978" y2="172.369" gradientUnits="userSpaceOnUse"><stop stop-color="#FF7575"/><stop offset="1" stop-color="#FFE99B"/></linearGradient></defs></svg>