<svg width="122" height="109" fill="none" xmlns="http://www.w3.org/2000/svg"><g clip-path="url(#clip0_10944_62688)"><path d="M44.316 12.471h45.076a7.674 7.674 0 016.648 3.85L118.576 55.5a7.72 7.72 0 010 7.704L96.04 102.383a7.674 7.674 0 01-6.648 3.85H44.316a7.674 7.674 0 01-6.648-3.85L15.132 63.204a7.719 7.719 0 010-7.704l22.536-39.18a7.674 7.674 0 016.648-3.849z" fill="#FFCFDC"/><path d="M44.316 12.471h45.076a7.674 7.674 0 016.648 3.85L118.576 55.5a7.72 7.72 0 010 7.704L96.04 102.383a7.674 7.674 0 01-6.648 3.85H44.316a7.674 7.674 0 01-6.648-3.85L15.132 63.204a7.719 7.719 0 010-7.704l22.536-39.18a7.674 7.674 0 016.648-3.849z" fill="url(#paint0_linear_10944_62688)"/><path d="M40.601 105.887a5.997 5.997 0 003.017.813h46.976a6.03 6.03 0 005.223-3.027l10.279-18.28M40.895 13.59a6.03 6.03 0 00-2.5 2.374l-23.49 40.828a6.076 6.076 0 000 6.05l19.202 33.381m78.942-22.51l6.252-10.867a6.078 6.078 0 000-6.05l-23.49-40.829a6.024 6.024 0 00-5.224-3.027H54.194" stroke="#221A15" stroke-width="2" stroke-linecap="round" stroke-linejoin="round"/><path d="M48.275 34.971c.52 0 1.005.15 1.455.45.46.3.83.705 1.11 1.215.28.51.42 1.08.42 1.71 0 .62-.14 1.185-.42 1.695-.28.51-.65.92-1.11 1.23-.45.3-.935.45-1.455.45h-2.76l.15-.27v3.105c0 .26-.08.48-.24.66a.825.825 0 01-.63.255.807.807 0 01-.615-.255.958.958 0 01-.24-.66v-8.67a.898.898 0 01.915-.915h3.42zm0 5.04c.19 0 .375-.08.555-.24.18-.16.33-.365.45-.615a1.912 1.912 0 000-1.62c-.12-.25-.27-.45-.45-.6-.18-.16-.365-.24-.555-.24h-2.79l.18-.27v3.825l-.165-.24h2.775zm14.963.21a5.8 5.8 0 01-.375 2.1 5.369 5.369 0 01-1.065 1.725c-.45.49-.99.875-1.62 1.155-.62.28-1.3.42-2.04.42s-1.42-.14-2.04-.42a5.05 5.05 0 01-1.62-1.155 5.51 5.51 0 01-1.05-1.725 5.8 5.8 0 01-.375-2.1c0-.75.125-1.45.375-2.1.25-.65.6-1.22 1.05-1.71.46-.5 1-.89 1.62-1.17.62-.28 1.3-.42 2.04-.42s1.42.14 2.04.42c.63.28 1.17.67 1.62 1.17.46.49.815 1.06 1.065 1.71a5.8 5.8 0 01.375 2.1zm-1.95 0c0-.67-.135-1.275-.405-1.815-.27-.55-.64-.985-1.11-1.305-.47-.32-1.015-.48-1.635-.48-.62 0-1.165.16-1.635.48-.47.32-.84.75-1.11 1.29-.26.54-.39 1.15-.39 1.83 0 .67.13 1.28.39 1.83.27.54.64.97 1.11 1.29.47.32 1.015.48 1.635.48.62 0 1.165-.16 1.635-.48.47-.32.84-.75 1.11-1.29.27-.55.405-1.16.405-1.83zm6.147 4.335c0 .26-.095.48-.285.66a.96.96 0 01-.66.255c-.28 0-.505-.085-.675-.255a.925.925 0 01-.255-.66v-8.67c0-.26.09-.475.27-.645.18-.18.41-.27.69-.27.24 0 .45.09.63.27.19.17.285.385.285.645v8.67zm10.82-9.585c.24 0 .435.08.585.24.15.16.225.36.225.6v8.745a.898.898 0 01-.915.915c-.13 0-.265-.02-.405-.06a.745.745 0 01-.3-.195l-5.895-7.485.39-.24v7.14c0 .24-.08.44-.24.6-.15.16-.35.24-.6.24a.765.765 0 01-.585-.24.843.843 0 01-.225-.6v-8.745a.898.898 0 01.915-.915c.14 0 .285.03.435.09.15.05.26.13.33.24l5.715 7.29-.255.18v-6.96c0-.24.075-.44.225-.6.15-.16.35-.24.6-.24zm7.22 10.5a.964.964 0 01-.69-.255.898.898 0 01-.27-.66v-8.7h1.95v8.7c0 .26-.094.48-.284.66-.18.17-.415.255-.705.255zm-3.314-8.775c-.26 0-.48-.08-.66-.24a.825.825 0 01-.255-.63c0-.26.085-.465.255-.615.18-.16.4-.24.66-.24h6.66c.26 0 .475.08.645.24.18.16.27.37.27.63s-.09.47-.27.63a.939.939 0 01-.645.225h-6.66zM54.678 82.911c-2.523 0-4.664-.66-6.424-1.98-1.73-1.35-3.05-3.212-3.96-5.588-.91-2.405-1.364-5.163-1.364-8.272 0-3.139.455-5.896 1.364-8.272.91-2.376 2.23-4.224 3.96-5.544 1.76-1.35 3.901-2.024 6.424-2.024 2.523 0 4.65.675 6.38 2.024 1.76 1.32 3.095 3.168 4.004 5.544.91 2.376 1.364 5.133 1.364 8.272 0 3.11-.455 5.867-1.364 8.272-.91 2.376-2.244 4.239-4.004 5.588-1.73 1.32-3.857 1.98-6.38 1.98zm0-5.28c1.232 0 2.288-.381 3.168-1.144.91-.792 1.613-1.965 2.112-3.52.499-1.584.748-3.55.748-5.896 0-2.376-.25-4.341-.748-5.896-.499-1.554-1.203-2.713-2.112-3.476-.88-.792-1.936-1.188-3.168-1.188A4.677 4.677 0 0051.51 57.7c-.91.763-1.613 1.922-2.112 3.476-.499 1.555-.748 3.52-.748 5.896 0 2.347.25 4.312.748 5.896.499 1.555 1.203 2.728 2.112 3.52.91.763 1.965 1.144 3.168 1.144zm18.447-1.364c.264 0 .543.044.836.132.323.088.675.264 1.056.528a8.391 8.391 0 001.76 1.012c.704.294 1.51.44 2.42.44.91 0 1.76-.22 2.552-.66a5.806 5.806 0 002.024-1.936c.528-.85.792-1.862.792-3.036 0-1.115-.234-2.038-.704-2.772a4.313 4.313 0 00-1.804-1.672 5.075 5.075 0 00-2.376-.572c-.645 0-1.188.059-1.628.176-.41.118-.821.25-1.232.396-.381.118-.836.176-1.364.176-.674 0-1.202-.234-1.584-.704-.352-.47-.528-1.026-.528-1.672 0-.41.074-.777.22-1.1a6.48 6.48 0 01.748-1.056l7.744-8.228 1.188 1.012H72.421c-.704 0-1.29-.235-1.76-.704-.47-.47-.704-1.056-.704-1.76 0-.675.235-1.232.704-1.672.47-.47 1.056-.704 1.76-.704h13.464c.91 0 1.584.25 2.024.748.47.499.704 1.13.704 1.892 0 .382-.102.763-.308 1.144a4.75 4.75 0 01-.748.968l-7.788 8.36-1.188-1.496c.323-.146.763-.279 1.32-.396.587-.117 1.07-.176 1.452-.176 1.73 0 3.227.455 4.488 1.364a8.496 8.496 0 012.948 3.476c.704 1.408 1.056 2.933 1.056 4.576 0 2.17-.484 4.048-1.452 5.632-.968 1.584-2.332 2.801-4.092 3.652-1.76.85-3.813 1.276-6.16 1.276-1.085 0-2.156-.132-3.212-.396s-1.965-.616-2.728-1.056c-.645-.352-1.085-.733-1.32-1.144-.205-.44-.308-.85-.308-1.232 0-.674.235-1.305.704-1.892.499-.616 1.115-.924 1.848-.924z" fill="#EB537B"/><g clip-path="url(#clip1_10944_62688)" fill="#FFE236" stroke="#000" stroke-linecap="round" stroke-linejoin="round"><path d="M1 11.971c6.335 1.932 7.752 3.502 9.5 10.5 1.748-6.998 3.165-8.568 9.5-10.5-6.335-1.932-7.752-3.501-9.5-10.5C8.752 8.47 7.335 10.04 1 11.971zm12 16.5c3.669 1.102 4.488 2.002 5.5 6 1.012-3.998 1.831-4.898 5.5-6-3.669-1.107-4.488-2.002-5.5-6-1.012 3.998-1.831 4.893-5.5 6z"/></g></g><defs><clipPath id="clip0_10944_62688"><path fill="#fff" transform="translate(0 .471)" d="M0 0h122v108H0z"/></clipPath><clipPath id="clip1_10944_62688"><path fill="#fff" transform="matrix(-1 0 0 1 25 .471)" d="M0 0h25v35H0z"/></clipPath><linearGradient id="paint0_linear_10944_62688" x1="25.5" y1="4.971" x2="47.173" y2="117.401" gradientUnits="userSpaceOnUse"><stop stop-color="#FFD8E8"/><stop offset=".5" stop-color="#FFCABA"/><stop offset="1" stop-color="#FFEF9B"/></linearGradient></defs></svg>