<svg width="174" height="252" fill="none" xmlns="http://www.w3.org/2000/svg"><g clip-path="url(#clip0_10944_62727)"><path d="M86.94 163.749c42.16 0 76.337-34.178 76.337-76.338S129.1 11.073 86.94 11.073c-42.16 0-76.338 34.177-76.338 76.338 0 42.16 34.177 76.338 76.337 76.338z" fill="#F4A0B6"/><path d="M86.94 163.749c42.16 0 76.337-34.178 76.337-76.338S129.1 11.073 86.94 11.073c-42.16 0-76.338 34.177-76.338 76.338 0 42.16 34.177 76.338 76.337 76.338z" fill="url(#paint0_linear_10944_62727)" fill-opacity=".5"/><path d="M65.58 105.311l-.06.46a10.7 10.7 0 01-.06.62 90.875 90.875 0 00-.12 1.8c-.013.467-.027.96-.04 1.48l-.04 1.56v3.3l.04 1.92c.027.64.047 1.227.06 1.76.013.52.02.934.02 1.24 0 .76-.093 1.354-.28 1.78-.173.427-.413.727-.72.9-.307.174-.667.26-1.08.26-.453 0-.947-.1-1.48-.3a6.017 6.017 0 01-1.48-.78 4.786 4.786 0 01-1.16-1.16 2.574 2.574 0 01-.44-1.42c0-.64.24-1.266.72-1.88.493-.613 1.133-1.18 1.92-1.7.787-.533 1.627-.96 2.52-1.28.907-.333 1.833-.58 2.78-.74.947-.16 1.8-.24 2.56-.24 1.013 0 1.92.174 2.72.52.813.334 1.46.82 1.94 1.46.48.627.72 1.387.72 2.28 0 .787-.153 1.5-.46 2.14-.307.64-.78 1.187-1.42 1.64-.64.454-1.473.807-2.5 1.06-.453.094-.9.16-1.34.2-.44.04-.853.08-1.24.12l-.82-2.32c.427 0 .847-.006 1.26-.02.413-.013.8-.053 1.16-.12a5.778 5.778 0 001.52-.5c.467-.226.833-.52 1.1-.88.28-.373.42-.82.42-1.34 0-.493-.133-.906-.4-1.24-.267-.333-.633-.586-1.1-.76-.453-.186-.98-.28-1.58-.28-.853 0-1.707.094-2.56.28-.853.174-1.687.414-2.5.72-.6.227-1.147.5-1.64.82-.48.32-.86.647-1.14.98-.28.334-.42.66-.42.98 0 .174.053.34.16.5.12.16.267.3.44.42.187.12.373.22.56.3.2.067.373.1.52.1.187 0 .34-.066.46-.2.12-.133.18-.366.18-.7 0-.36-.007-.88-.02-1.56a170.32 170.32 0 00-.06-2.24c-.013-.826-.02-1.633-.02-2.42v-1.74c.013-.6.02-1.173.02-1.72v-1.44c.013-.426.02-.746.02-.96a9.21 9.21 0 00-.02-.54l-.04-.64a2.879 2.879 0 00-.06-.48h2.48zm5.84 2.18c.507.24 1.067.534 1.68.88.613.347 1.2.694 1.76 1.04.573.347 1.033.654 1.38.92l-1.1 1.82a9.01 9.01 0 00-.96-.72c-.4-.28-.833-.553-1.3-.82-.453-.28-.9-.54-1.34-.78-.427-.253-.793-.46-1.1-.62l.98-1.72zm-12.18 1.18a17.82 17.82 0 001.5.12 26.915 26.915 0 002.9-.04c.627-.053 1.26-.12 1.9-.2.653-.093 1.293-.2 1.92-.32s1.193-.253 1.7-.4l.04 2.22c-.547.12-1.147.234-1.8.34a56.15 56.15 0 01-3.86.48c-.587.04-1.1.06-1.54.06-.64 0-1.167-.006-1.58-.02a13.76 13.76 0 01-1.14-.08l-.04-2.16zm19.78-1.48h16.06v11.74h-2.22v-9.68h-11.7v9.78h-2.14v-11.84zm1.4 4.34h13.52v1.98H80.42v-1.98zm0 4.36h13.54v2.06H80.42v-2.06zm5.4-11.36h2.24v18.66h-2.24v-18.66zm19.28.9h4.2v2.02h-4.2v-2.02zm3.08 0h2.28c.093 1.44.253 2.82.48 4.14a18.2 18.2 0 001 3.62 11.256 11.256 0 001.7 2.92 8.186 8.186 0 002.6 2.04 10.014 10.014 0 00-1.18 1.06c-.2.214-.367.407-.5.58a10.048 10.048 0 01-2.66-2.3 12.366 12.366 0 01-1.76-3.1 20.948 20.948 0 01-1.06-3.76 41.02 41.02 0 01-.52-4.24h-.38v-.96zm-.02 4.08l2.2.32c-.44 2.254-1.127 4.22-2.06 5.9-.92 1.667-2.12 3.027-3.6 4.08a4.691 4.691 0 00-.46-.52 8.92 8.92 0 00-.62-.6 4.384 4.384 0 00-.58-.5 9.255 9.255 0 003.36-3.52c.827-1.48 1.413-3.2 1.76-5.16zm-5.7 2.84v7.3h-2.1v-5.3H97.9v-2h4.56zm0 6.36a3.767 3.767 0 001.8 1.5c.787.32 1.713.507 2.78.56.573.014 1.26.027 2.06.04.8 0 1.64-.006 2.52-.02.893-.013 1.76-.033 2.6-.06.84-.04 1.587-.086 2.24-.14-.08.16-.167.374-.26.64-.093.267-.18.534-.26.8-.067.28-.12.527-.16.74-.6.04-1.28.067-2.04.08-.76.014-1.547.02-2.36.02-.8.014-1.58.014-2.34 0-.76 0-1.433-.013-2.02-.04-1.253-.053-2.327-.253-3.22-.6-.88-.333-1.647-.893-2.3-1.68-.44.4-.9.8-1.38 1.2-.467.414-.973.84-1.52 1.28l-1.08-2.24c.467-.28.96-.6 1.48-.96.52-.373 1.02-.746 1.5-1.12h1.96zm-4.48-12.42l1.6-1.28c.413.267.833.58 1.26.94.44.36.847.727 1.22 1.1.387.36.693.7.92 1.02l-1.7 1.4a6.67 6.67 0 00-.86-1.02c-.36-.386-.753-.766-1.18-1.14a13.886 13.886 0 00-1.26-1.02z" fill="#221A15"/><path d="M86.94 172.759c47.136 0 85.347-38.212 85.347-85.347 0-47.136-38.211-85.347-85.346-85.347-47.136 0-85.347 38.211-85.347 85.347 0 47.135 38.21 85.347 85.347 85.347z" stroke="#221A15" stroke-width="2" stroke-linecap="round" stroke-linejoin="round"/><path d="M112.999 45.471L80.781 80.098l-6.067 9.659-.894-14.558v-.002L113 45.471z" fill="#F090A9" stroke="#4C423D" stroke-width="2" stroke-linecap="round" stroke-linejoin="round"/><path d="M113 45.471L73.822 75.197 61 66.177l52-20.706z" fill="#fff" stroke="#4C423D" stroke-width="2" stroke-linecap="round" stroke-linejoin="round"/><path d="M112.999 45.471l-16.05 46-14.47-10.183-1.698-1.19L113 45.471z" fill="#fff" stroke="#4C423D" stroke-width="2" stroke-linecap="round" stroke-linejoin="round"/><path d="M82.478 81.288l-7.763 8.469 6.066-9.659 1.697 1.19z" stroke="#4C423D" stroke-width="2" stroke-linecap="round" stroke-linejoin="round"/><g filter="url(#filter0_d_10944_62727)"><mask id="a" maskUnits="userSpaceOnUse" x="4" y="5.872" width="37" height="30" fill="#000"><path fill="#fff" d="M4 5.872h37v30H4z"/><path d="M15.721 35.272c-2.293 0-4.24-.6-5.84-1.8-1.573-1.227-2.773-2.92-3.6-5.08-.826-2.187-1.24-4.694-1.24-7.52 0-2.854.414-5.36 1.24-7.52.827-2.16 2.027-3.84 3.6-5.04 1.6-1.227 3.547-1.84 5.84-1.84 2.294 0 4.227.613 5.8 1.84 1.6 1.2 2.814 2.88 3.64 5.04.827 2.16 1.24 4.666 1.24 7.52 0 2.826-.413 5.333-1.24 7.52-.826 2.16-2.04 3.853-3.64 5.08-1.573 1.2-3.506 1.8-5.8 1.8zm0-4.8c1.12 0 2.08-.347 2.88-1.04.827-.72 1.467-1.787 1.92-3.2.454-1.44.68-3.227.68-5.36 0-2.16-.226-3.947-.68-5.36-.453-1.414-1.093-2.467-1.92-3.16-.8-.72-1.76-1.08-2.88-1.08-1.093 0-2.053.36-2.88 1.08-.826.693-1.466 1.746-1.92 3.16-.453 1.413-.68 3.2-.68 5.36 0 2.133.227 3.92.68 5.36.454 1.413 1.094 2.48 1.92 3.2a4.348 4.348 0 002.88 1.04zm21.81 4.4c-.746 0-1.36-.227-1.84-.68a2.394 2.394 0 01-.72-1.76v-20.16l.56.88-2.92 2.16c-.373.293-.84.44-1.4.44-.64 0-1.2-.24-1.68-.72a2.348 2.348 0 01-.72-1.72c0-.854.414-1.547 1.24-2.08l5.76-3.84c.267-.187.56-.32.88-.4.347-.08.667-.12.96-.12.774 0 1.387.24 1.84.72.454.453.68 1.026.68 1.72v23.12a2.33 2.33 0 01-.76 1.76c-.48.453-1.106.68-1.88.68z"/></mask><path d="M15.721 35.272c-2.293 0-4.24-.6-5.84-1.8-1.573-1.227-2.773-2.92-3.6-5.08-.826-2.187-1.24-4.694-1.24-7.52 0-2.854.414-5.36 1.24-7.52.827-2.16 2.027-3.84 3.6-5.04 1.6-1.227 3.547-1.84 5.84-1.84 2.294 0 4.227.613 5.8 1.84 1.6 1.2 2.814 2.88 3.64 5.04.827 2.16 1.24 4.666 1.24 7.52 0 2.826-.413 5.333-1.24 7.52-.826 2.16-2.04 3.853-3.64 5.08-1.573 1.2-3.506 1.8-5.8 1.8zm0-4.8c1.12 0 2.08-.347 2.88-1.04.827-.72 1.467-1.787 1.92-3.2.454-1.44.68-3.227.68-5.36 0-2.16-.226-3.947-.68-5.36-.453-1.414-1.093-2.467-1.92-3.16-.8-.72-1.76-1.08-2.88-1.08-1.093 0-2.053.36-2.88 1.08-.826.693-1.466 1.746-1.92 3.16-.453 1.413-.68 3.2-.68 5.36 0 2.133.227 3.92.68 5.36.454 1.413 1.094 2.48 1.92 3.2a4.348 4.348 0 002.88 1.04zm21.81 4.4c-.746 0-1.36-.227-1.84-.68a2.394 2.394 0 01-.72-1.76v-20.16l.56.88-2.92 2.16c-.373.293-.84.44-1.4.44-.64 0-1.2-.24-1.68-.72a2.348 2.348 0 01-.72-1.72c0-.854.414-1.547 1.24-2.08l5.76-3.84c.267-.187.56-.32.88-.4.347-.08.667-.12.96-.12.774 0 1.387.24 1.84.72.454.453.68 1.026.68 1.72v23.12a2.33 2.33 0 01-.76 1.76c-.48.453-1.106.68-1.88.68z" fill="url(#paint1_linear_10944_62727)"/><path d="M15.721 35.272c-2.293 0-4.24-.6-5.84-1.8-1.573-1.227-2.773-2.92-3.6-5.08-.826-2.187-1.24-4.694-1.24-7.52 0-2.854.414-5.36 1.24-7.52.827-2.16 2.027-3.84 3.6-5.04 1.6-1.227 3.547-1.84 5.84-1.84 2.294 0 4.227.613 5.8 1.84 1.6 1.2 2.814 2.88 3.64 5.04.827 2.16 1.24 4.666 1.24 7.52 0 2.826-.413 5.333-1.24 7.52-.826 2.16-2.04 3.853-3.64 5.08-1.573 1.2-3.506 1.8-5.8 1.8zm0-4.8c1.12 0 2.08-.347 2.88-1.04.827-.72 1.467-1.787 1.92-3.2.454-1.44.68-3.227.68-5.36 0-2.16-.226-3.947-.68-5.36-.453-1.414-1.093-2.467-1.92-3.16-.8-.72-1.76-1.08-2.88-1.08-1.093 0-2.053.36-2.88 1.08-.826.693-1.466 1.746-1.92 3.16-.453 1.413-.68 3.2-.68 5.36 0 2.133.227 3.92.68 5.36.454 1.413 1.094 2.48 1.92 3.2a4.348 4.348 0 002.88 1.04zm21.81 4.4c-.746 0-1.36-.227-1.84-.68a2.394 2.394 0 01-.72-1.76v-20.16l.56.88-2.92 2.16c-.373.293-.84.44-1.4.44-.64 0-1.2-.24-1.68-.72a2.348 2.348 0 01-.72-1.72c0-.854.414-1.547 1.24-2.08l5.76-3.84c.267-.187.56-.32.88-.4.347-.08.667-.12.96-.12.774 0 1.387.24 1.84.72.454.453.68 1.026.68 1.72v23.12a2.33 2.33 0 01-.76 1.76c-.48.453-1.106.68-1.88.68z" fill="url(#paint2_linear_10944_62727)"/><path d="M9.881 33.472l-.307.394.007.006.3-.4zm-3.6-5.08l-.467.176v.002l.467-.178zm0-15.04l-.467-.18.467.18zm3.6-5.04l.304.397-.304-.397zm11.64 0l-.307.394.007.006.3-.4zm3.64 5.04l.467-.18-.467.18zm0 15.04l.467.178.001-.002-.468-.176zm-3.64 5.08l.304.397-.304-.397zm-2.92-4.04l.328.377-.328-.377zm1.92-3.2l.476.152.001-.002-.477-.15zm0-10.72l-.476.152.476-.152zm-1.92-3.16l-.334.371.006.006.007.006.321-.383zm-5.76 0l.322.383.007-.006-.329-.377zm-1.92 3.16l-.476-.153.476.153zm0 10.72l-.476.15v.002l.476-.152zm1.92 3.2l-.328.377.007.006.321-.383zm2.88 5.34c-2.201 0-4.039-.575-5.54-1.7l-.6.8c1.7 1.274 3.755 1.9 6.14 1.9v-1zm-5.532-1.695c-1.49-1.162-2.641-2.775-3.44-4.864l-.935.357c.854 2.232 2.104 4.005 3.76 5.296l.615-.789zm-3.44-4.862c-.801-2.12-1.208-4.565-1.208-7.343h-1c0 2.874.42 5.443 1.273 7.696l.935-.353zm-1.208-7.343c0-2.806.407-5.25 1.207-7.342l-.934-.357c-.853 2.229-1.273 4.798-1.273 7.699h1zm1.207-7.342c.8-2.088 1.949-3.686 3.437-4.82l-.607-.796c-1.659 1.265-2.91 3.027-3.764 5.259l.934.357zm3.438-4.822c1.5-1.15 3.336-1.736 5.535-1.736v-1c-2.387 0-4.445.64-6.144 1.943l.609.793zm5.535-1.736c2.2 0 4.02.586 5.493 1.734l.615-.789c-1.674-1.305-3.72-1.945-6.108-1.945v1zm5.5 1.74c1.514 1.135 2.675 2.732 3.473 4.818l.934-.357c-.855-2.234-2.12-3.996-3.807-5.261l-.6.8zm3.473 4.818c.8 2.092 1.207 4.536 1.207 7.342h1c0-2.901-.42-5.47-1.273-7.7l-.934.358zm1.207 7.342c0 2.778-.406 5.223-1.207 7.343l.935.353c.852-2.253 1.272-4.822 1.272-7.696h-1zm-1.207 7.34c-.798 2.087-1.96 3.7-3.477 4.863l.609.793c1.683-1.29 2.948-3.064 3.802-5.298l-.934-.357zm-3.476 4.862c-1.473 1.123-3.295 1.698-5.497 1.698v1c2.385 0 4.43-.626 6.104-1.903l-.607-.795zm-5.497-2.102c1.233 0 2.311-.386 3.208-1.163l-.655-.755c-.704.61-1.545.918-2.553.918v1zm3.209-1.163c.916-.798 1.596-1.954 2.067-3.425l-.952-.305c-.435 1.356-1.034 2.333-1.772 2.976l.657.754zm2.068-3.427c.474-1.504.703-3.345.703-5.51h-1c0 2.101-.223 3.834-.657 5.21l.954.3zm.703-5.51c0-2.19-.229-4.034-.704-5.513l-.952.305c.432 1.347.656 3.078.656 5.208h1zm-.704-5.513c-.471-1.47-1.153-2.618-2.074-3.39l-.643.766c.732.614 1.33 1.573 1.765 2.93l.952-.306zm-2.061-3.38c-.896-.805-1.977-1.207-3.215-1.207v1c1.002 0 1.842.317 2.546.951l.669-.743zm-3.215-1.207a4.751 4.751 0 00-3.208 1.203l.657.754a3.752 3.752 0 012.551-.957v-1zm-3.2 1.197c-.922.772-1.604 1.92-2.076 3.39l.953.305c.434-1.356 1.033-2.315 1.765-2.93l-.643-.765zm-2.076 3.39c-.474 1.48-.704 3.322-.704 5.513h1c0-2.13.224-3.86.657-5.208l-.953-.305zm-.704 5.513c0 2.165.23 4.006.704 5.51l.953-.3c-.433-1.377-.657-3.109-.657-5.21h-1zm.704 5.512c.472 1.47 1.152 2.627 2.068 3.425l.657-.755c-.738-.642-1.338-1.619-1.772-2.975l-.953.305zm2.075 3.43a4.847 4.847 0 003.201 1.158v-1a3.848 3.848 0 01-2.558-.924l-.643.767zm23.172 4.378l-.354.353.005.005.005.005.344-.363zm-.72-21.92l.422-.269-.922-1.448v1.717h.5zm.56.88l.297.402.375-.278-.25-.393-.422.269zm-2.92 2.16l-.298-.402-.005.004-.006.004.309.394zm-3.08-.28l.353-.354-.353.354zm.52-3.8l.27.42.007-.004-.277-.416zm5.76-3.84l.277.416.01-.007-.287-.41zm.88-.4l-.113-.488-.009.003.122.485zm2.8.6l-.364.343.005.005.005.005.354-.353zm-.08 26.6l.343.363-.343-.363zm-1.88.18c-.637 0-1.122-.19-1.497-.544l-.687.727c.586.553 1.327.817 2.184.817v-1zm-1.487-.534a1.895 1.895 0 01-.573-1.406h-1c0 .822.29 1.537.866 2.113l.707-.707zm-.573-1.406v-20.16h-1v20.16h1zM34.55 12.54l.56.88.843-.537-.56-.88-.843.537zm.684.21l-2.92 2.16.595.804 2.92-2.16-.595-.804zm-2.931 2.168c-.27.213-.622.334-1.091.334v1c.65 0 1.232-.173 1.709-.547l-.618-.787zm-1.091.334c-.499 0-.934-.181-1.327-.574l-.707.707c.568.568 1.252.867 2.034.867v-1zm-1.327-.574a1.848 1.848 0 01-.573-1.366h-1c0 .802.294 1.501.866 2.073l.707-.707zm-.573-1.366c0-.656.301-1.202 1.01-1.66l-.541-.84c-.944.608-1.47 1.448-1.47 2.5h1zm1.017-1.664l5.76-3.84-.555-.832-5.76 3.84.555.832zM36.1 7.8c.215-.15.453-.259.714-.324l-.243-.97a3.136 3.136 0 00-1.045.475l.573.82zm.705-.322c.317-.073.6-.107.848-.107v-1a4.83 4.83 0 00-1.073.132l.225.975zm.848-.107c.661 0 1.134.2 1.476.563l.727-.687c-.564-.597-1.318-.876-2.203-.876v1zm1.486.573c.352.352.534.794.534 1.367h1c0-.814-.271-1.519-.827-2.074l-.707.707zm.534 1.367v23.12h1V9.312h-1zm0 23.12c0 .555-.196 1.01-.604 1.397l.688.726a2.831 2.831 0 00.916-2.123h-1zm-.604 1.396c-.371.35-.867.544-1.536.544v1c.877 0 1.635-.261 2.223-.817l-.687-.727z" fill="#221A15" mask="url(#a)"/></g></g><path fill="#221A15" d="M86 173.471h2v78h-2z"/><defs><linearGradient id="paint0_linear_10944_62727" x1="1.429" y1="-6.274" x2="173.27" y2="4.508" gradientUnits="userSpaceOnUse"><stop stop-color="#FFD7E8"/><stop offset=".5" stop-color="#FFDCD1"/><stop offset="1" stop-color="#FFF1A7"/></linearGradient><linearGradient id="paint1_linear_10944_62727" x1="3" y1="-.128" x2="46.168" y2="2.367" gradientUnits="userSpaceOnUse"><stop stop-color="#FFF9EC"/><stop offset=".507" stop-color="#FFE9B8"/><stop offset="1" stop-color="#FFF9EA"/></linearGradient><linearGradient id="paint2_linear_10944_62727" x1="39.571" y1="-3.328" x2="29.495" y2="44.286" gradientUnits="userSpaceOnUse"><stop stop-color="#FFD8E8"/><stop offset=".5" stop-color="#FFCABA"/><stop offset="1" stop-color="#FFEF9B"/></linearGradient><clipPath id="clip0_10944_62727"><path fill="#fff" transform="translate(0 .471)" d="M0 0h174v174H0z"/></clipPath><filter id="filter0_d_10944_62727" x="4.541" y="5.972" width="38.131" height="31.8" filterUnits="userSpaceOnUse" color-interpolation-filters="sRGB"><feFlood flood-opacity="0" result="BackgroundImageFix"/><feColorMatrix in="SourceAlpha" values="0 0 0 0 0 0 0 0 0 0 0 0 0 0 0 0 0 0 127 0" result="hardAlpha"/><feOffset dx="2" dy="2"/><feComposite in2="hardAlpha" operator="out"/><feColorMatrix values="0 0 0 0 0.133333 0 0 0 0 0.101961 0 0 0 0 0.0823529 0 0 0 1 0"/><feBlend in2="BackgroundImageFix" result="effect1_dropShadow_10944_62727"/><feBlend in="SourceGraphic" in2="effect1_dropShadow_10944_62727" result="shape"/></filter></defs></svg>