<svg width="174" height="192" fill="none" xmlns="http://www.w3.org/2000/svg"><g clip-path="url(#clip0_10944_62882)"><path d="M86.94 163.749c42.16 0 76.337-34.178 76.337-76.338S129.1 11.073 86.94 11.073c-42.16 0-76.338 34.177-76.338 76.338 0 42.16 34.177 76.338 76.337 76.338z" fill="#F4A0B6"/><path d="M86.94 163.749c42.16 0 76.337-34.178 76.337-76.338S129.1 11.073 86.94 11.073c-42.16 0-76.338 34.177-76.338 76.338 0 42.16 34.177 76.338 76.337 76.338z" fill="url(#paint0_linear_10944_62882)" fill-opacity=".5"/><path d="M60.144 117.599v1.134h5.238v-1.134h-5.238zm0-2.412v1.116h5.238v-1.116h-5.238zm-1.764-1.368h8.838v6.3H58.38v-6.3zm1.548 5.616l1.782.45a13.695 13.695 0 01-1.71 3.132c-.708.96-1.47 1.764-2.286 2.412a2.432 2.432 0 00-.396-.414l-.504-.504a3.162 3.162 0 00-.468-.396 9.364 9.364 0 002.106-2.034 10.117 10.117 0 001.476-2.646zm.324 1.818h6.48v1.602H59.28l.972-1.602zm5.994 0h1.818l-.018.144v.324c0 .12-.006.216-.018.288a84.468 84.468 0 01-.306 3.906c-.096.984-.21 1.74-.342 2.268-.132.528-.294.906-.486 1.134-.192.228-.396.384-.612.468a2.676 2.676 0 01-.756.198c-.264.036-.6.048-1.008.036-.396 0-.822-.012-1.278-.036a3.436 3.436 0 00-.162-.81 2.978 2.978 0 00-.342-.792 22.77 22.77 0 001.962.09c.144 0 .264-.012.36-.036a.828.828 0 00.288-.198c.144-.144.264-.45.36-.918.108-.48.204-1.182.288-2.106.096-.936.18-2.154.252-3.654v-.306zm-3.24 2.16l1.134 1.188c-.42.18-.882.354-1.386.522-.504.156-1.014.294-1.53.414a49.21 49.21 0 01-1.494.324 3.422 3.422 0 00-.198-.594 5.902 5.902 0 00-.252-.594c.444-.12.894-.246 1.35-.378.456-.132.894-.276 1.314-.432.42-.156.774-.306 1.062-.45zm-4.428-.09h1.638v3.078c0 .216.042.354.126.414.084.06.27.09.558.09h1.818c.156 0 .27-.024.342-.072.084-.06.144-.168.18-.324.036-.156.06-.39.072-.702.168.12.396.24.684.36.3.108.564.186.792.234-.06.528-.162.936-.306 1.224-.144.288-.342.492-.594.612-.24.108-.564.162-.972.162h-2.25c-.576 0-1.014-.06-1.314-.18-.3-.12-.504-.324-.612-.612-.108-.288-.162-.684-.162-1.188v-3.096zm-7.164-.792a68.74 68.74 0 002.682-.63c1.056-.276 2.112-.558 3.168-.846l.234 1.728c-.972.288-1.956.576-2.952.864-.996.276-1.908.534-2.736.774l-.396-1.89zm.342-5.832h5.652v1.782h-5.652v-1.782zm2.196-3.456h1.854v14.58c0 .492-.054.876-.162 1.152-.096.288-.282.51-.558.666-.288.156-.642.258-1.062.306-.42.048-.936.072-1.548.072a5.272 5.272 0 00-.198-.936 7.463 7.463 0 00-.342-.936c.36.012.702.018 1.026.018h.666c.12 0 .204-.024.252-.072.048-.06.072-.15.072-.27v-14.58zm28.17 1.044l1.404-.936c.42.36.852.774 1.296 1.242.456.468.804.876 1.044 1.224l-1.476 1.044a6.48 6.48 0 00-.594-.81c-.252-.3-.528-.606-.828-.918a14.05 14.05 0 00-.846-.846zm-12.258 2.808H86.19v1.602H69.864v-1.602zm.81-2.592h7.848v1.494h-7.848v-1.494zm-.306 5.094h8.478v1.386h-8.478v-1.386zm-.27 7.38h8.766v1.422h-8.766v-1.422zm3.6-13.752h1.836v5.328h-1.836v-5.328zm-1.602 11.214v.774h5.022v-.774h-5.022zm0-1.71v.756h5.022v-.756h-5.022zm-1.386-.99h7.848v4.446H70.71v-4.446zm3.168.612H75.3v3.492h.144v4.212h-1.692v-4.212h.126v-3.492zm-.162-3.726h1.746v3.474h-1.746v-3.474zm5.706-5.382h1.944a64.703 64.703 0 00.054 4.608c.072 1.464.186 2.826.342 4.086.168 1.248.372 2.34.612 3.276.24.924.516 1.644.828 2.16.312.516.654.774 1.026.774.204 0 .354-.234.45-.702.108-.468.186-1.23.234-2.286.204.204.45.402.738.594.3.18.57.318.81.414-.084 1.02-.222 1.806-.414 2.358-.18.564-.432.954-.756 1.17-.312.228-.726.342-1.242.342-.612 0-1.158-.216-1.638-.648-.468-.42-.87-1.008-1.206-1.764-.336-.768-.624-1.674-.864-2.718a32.74 32.74 0 01-.54-3.456 63.93 63.93 0 01-.288-3.942 99.082 99.082 0 01-.09-4.266zm4.428 6.282l1.71.54a22.774 22.774 0 01-1.692 4.014 18.273 18.273 0 01-2.34 3.366 15.058 15.058 0 01-2.988 2.61 5.549 5.549 0 00-.594-.756c-.24-.276-.48-.51-.72-.702a13.294 13.294 0 002.844-2.286 15.665 15.665 0 002.232-3.078 18.267 18.267 0 001.548-3.708zm7.758 1.71h8.784v1.53h-8.784v-1.53zm-.288 3.06h9.396v1.602H91.32v-1.602zm5.562-2.592h1.71v7.992h-1.71v-7.992zm-3.564.072h1.656v3.402c0 .288-.036.636-.108 1.044a7.146 7.146 0 01-.378 1.314c-.168.456-.408.9-.72 1.332-.312.432-.708.81-1.188 1.134a6.859 6.859 0 00-.594-.594 5.417 5.417 0 00-.666-.522c.54-.336.954-.732 1.242-1.188.288-.456.486-.912.594-1.368.108-.456.162-.84.162-1.152v-3.402zm-3.888-5.364h4.68v1.278h-4.68v-1.278zm8.352 0h4.698v1.278h-4.698v-1.278zm3.942-2.466h1.89v13.788c0 .504-.06.906-.18 1.206-.108.3-.312.528-.612.684-.324.168-.726.27-1.206.306-.468.048-1.044.066-1.728.054a5.07 5.07 0 00-.126-.612 9.265 9.265 0 00-.216-.702 3.222 3.222 0 00-.234-.594c.42.012.828.018 1.224.018h.828c.132 0 .222-.03.27-.09.06-.06.09-.156.09-.288v-13.77zm-12.114 0h5.724v6.3H89.61v-1.404h3.906v-3.51H89.61v-1.386zm13.086 0v1.386h-4.23v3.546h4.23v1.404H96.63v-6.336h6.066zm-14.22 0h1.89v16.092h-1.89v-16.092zm26.298 13.608h5.904v1.746h-5.904v-1.746zm-.972-5.004h7.884v7.416h-1.908v-5.652h-4.14v5.724h-1.836v-7.488zm-1.188-3.294l2.466-.126c.936-.048 1.92-.102 2.952-.162 1.044-.072 2.082-.138 3.114-.198l-.018 1.728c-.984.072-1.974.15-2.97.234-.984.084-1.932.156-2.844.216-.912.06-1.74.12-2.484.18l-.216-1.872zm5.76-2.448l1.548-.774c.384.504.756 1.05 1.116 1.638.372.576.708 1.146 1.008 1.71.3.564.522 1.074.666 1.53l-1.674.9a10.246 10.246 0 00-.612-1.548 19.919 19.919 0 00-.954-1.782c-.348-.6-.714-1.158-1.098-1.674zm-2.52-3.6l2.142.414a67.617 67.617 0 01-1.674 4.662c-.3.744-.588 1.404-.864 1.98l-1.638-.432c.192-.444.384-.942.576-1.494.204-.552.396-1.122.576-1.71.18-.6.348-1.188.504-1.764.156-.588.282-1.14.378-1.656zm-10.134 3.654h5.868v1.782h-5.868v-1.782zm2.52-3.654l1.818.216a239.75 239.75 0 01-.63 2.97c-.216 1.044-.45 2.094-.702 3.15a112.4 112.4 0 01-.738 3.024c-.24.96-.468 1.836-.684 2.628l-1.566-.846c.204-.696.42-1.5.648-2.412.228-.912.45-1.872.666-2.88.228-1.02.444-2.028.648-3.024.204-.996.384-1.938.54-2.826zm-1.53 10.782l1.062-1.35c.636.384 1.296.822 1.98 1.314.696.492 1.344.99 1.944 1.494.6.504 1.074.984 1.422 1.44l-1.152 1.548c-.348-.444-.816-.93-1.404-1.458a28.29 28.29 0 00-1.872-1.602 20.631 20.631 0 00-1.98-1.386zm4.158-7.128h.324l.342-.054 1.134.198c-.132 2.34-.432 4.356-.9 6.048-.456 1.692-1.08 3.114-1.872 4.266a9.772 9.772 0 01-2.952 2.79 7.879 7.879 0 00-.54-.828c-.228-.3-.438-.54-.63-.72 1.008-.54 1.872-1.326 2.592-2.358.72-1.044 1.284-2.316 1.692-3.816.42-1.512.69-3.234.81-5.166v-.36z" fill="#221A15"/><path fill="#fff" d="M60.963 50.135h53.969v34.152H60.963z"/><path d="M124.482 87.149v1.595a2.837 2.837 0 01-2.833 2.843H54.722a2.837 2.837 0 01-2.833-2.843V87.15h30.65v2.22H93.83v-2.22h30.652z" fill="#948E8B"/><path d="M124.483 87.15h-.89v1.595a1.946 1.946 0 01-1.942 1.95H54.724a1.93 1.93 0 01-1.613-.86 1.935 1.935 0 01-.331-1.09v-.702h28.87v1.327a.9.9 0 00.26.63.895.895 0 00.63.262h11.29a.895.895 0 00.89-.892v-1.327h29.761v-1.786h-30.65a.895.895 0 00-.89.893v1.327H83.43V87.15a.895.895 0 00-.89-.893H51.89a.896.896 0 00-.89.892v1.596a3.741 3.741 0 001.641 3.097 3.7 3.7 0 002.083.638h66.926a3.71 3.71 0 003.087-1.646 3.73 3.73 0 00.636-2.09V87.15a.903.903 0 00-.26-.631.898.898 0 00-.63-.262v.893z" fill="#4C423D"/><path d="M117.785 48.677v38.472H58.588V48.677c0-.883.714-1.598 1.593-1.598h56.011c.88 0 1.593.715 1.593 1.598zm-1.914 36.005V49.546H60.502v35.137h55.37-.001z" fill="#948E8B"/><path d="M117.784 48.677h-.89v37.58H59.476v-37.58a.713.713 0 01.31-.585.692.692 0 01.393-.12h56.012a.712.712 0 01.703.705h1.78a2.495 2.495 0 00-1.095-2.063 2.472 2.472 0 00-1.389-.426H60.18a2.488 2.488 0 00-2.483 2.492v38.472a.895.895 0 00.89.893h59.198a.896.896 0 00.629-.262.902.902 0 00.26-.63V48.676h-.89zm-1.915 36.006h.89V49.547a.903.903 0 00-.26-.631.898.898 0 00-.63-.262H60.501a.895.895 0 00-.89.893v35.137a.895.895 0 00.89.893h55.369a.894.894 0 00.89-.893h-.89v-.893H61.39V50.439h53.59v34.244h.89-.001z" fill="#4C423D"/><path d="M93.832 87.149H82.54v2.22h11.29v-2.22z" fill="#948E8B"/><path d="M93.833 87.15h-.89v1.326h-9.51v-.434h10.4v-1.786h-11.29a.895.895 0 00-.89.893v2.22a.9.9 0 00.26.63.895.895 0 00.63.263h11.29a.895.895 0 00.89-.893v-2.22a.895.895 0 00-.89-.893v.893z" fill="#4C423D"/><path d="M59.476 87.148V48.676a.713.713 0 01.31-.585.692.692 0 01.393-.12h56.012a.712.712 0 01.703.705V87.15c0 .493.398.893.89.893.491 0 .89-.4.89-.893V48.676a2.495 2.495 0 00-1.095-2.064 2.473 2.473 0 00-1.389-.426H60.18a2.488 2.488 0 00-2.483 2.492V87.15c0 .493.399.893.89.893s.89-.4.89-.893v-.002z" fill="#4C423D"/><path d="M128.217 67.939v2.188h-17.436V67.94c0-.631.59-1.144 1.315-1.144h14.806c.726 0 1.315.513 1.315 1.144z" fill="#948E8B"/><path d="M117.785 87.15v.892h5.808v.703a1.946 1.946 0 01-.857 1.617 1.92 1.92 0 01-1.086.333H54.723a1.93 1.93 0 01-1.612-.86 1.935 1.935 0 01-.331-1.09v-.702h65.005v-1.786H51.89a.896.896 0 00-.89.892v1.596a3.741 3.741 0 001.641 3.097 3.7 3.7 0 002.083.638h66.926a3.71 3.71 0 003.087-1.646 3.73 3.73 0 00.636-2.09V87.15a.903.903 0 00-.26-.631.898.898 0 00-.63-.262h-6.697v.893h-.001z" fill="#4C423D"/><path fill="#fff" d="M110.781 70.96h17.436v27.488h-17.436z"/><g clip-path="url(#clip1_10944_62882)"><mask id="a" style="mask-type:luminance" maskUnits="userSpaceOnUse" x="114" y="77" width="11" height="12"><path d="M119.496 87.87a4.794 4.794 0 003.408-1.416 4.817 4.817 0 001.411-3.418 4.814 4.814 0 00-.366-1.85 4.816 4.816 0 00-1.045-1.569 4.8 4.8 0 00-5.252-1.049 4.835 4.835 0 00-2.609 6.318 4.836 4.836 0 002.609 2.617 4.789 4.789 0 001.844.367z" fill="#fff" stroke="#fff" stroke-width="1.14" stroke-linejoin="round"/><path d="M117.568 83.037l1.446 1.45 2.891-2.9" stroke="#000" stroke-width="1.14" stroke-linecap="round" stroke-linejoin="round"/></mask><g mask="url(#a)"><path d="M114.102 77.237h11.564v11.602h-11.564V77.237z" fill="#F090A9"/></g></g><path d="M128.217 96.782v2.189c0 .63-.589 1.143-1.315 1.143h-14.806c-.725 0-1.315-.513-1.315-1.143v-2.19h17.436zm-7.696 1.642c0-.49-.457-.889-1.022-.889s-1.022.398-1.022.889.458.888 1.022.888c.564 0 1.022-.398 1.022-.888z" fill="#948E8B"/><g clip-path="url(#clip2_10944_62882)"><mask id="b" style="mask-type:luminance" maskUnits="userSpaceOnUse" x="75" y="55" width="25" height="25"><path d="M87.943 77.993a10.685 10.685 0 007.6-3.16 10.752 10.752 0 003.149-7.625 10.781 10.781 0 00-6.635-9.965 10.685 10.685 0 00-4.114-.819 10.686 10.686 0 00-7.601 3.159 10.754 10.754 0 00-3.149 7.625 10.778 10.778 0 006.635 9.966c1.304.542 2.703.82 4.115.819z" fill="#fff" stroke="#fff" stroke-width="2.544" stroke-linejoin="round"/><path d="M83.643 67.208l3.224 3.236 6.45-6.47" stroke="#000" stroke-width="2.544" stroke-linecap="round" stroke-linejoin="round"/></mask><g mask="url(#b)"><path d="M75.047 54.27h25.798v25.882H75.047V54.27z" fill="#F090A9"/></g></g><path d="M81.65 87.15v2.219a.895.895 0 00.89.893h11.29a.895.895 0 00.89-.893v-2.22a.892.892 0 00-.89-.893c-.49 0-.89.4-.89.893v1.327h-9.51v-1.327a.892.892 0 00-.89-.893c-.49 0-.89.4-.89.893zm47.211-18.95v30.617a2.756 2.756 0 01-2.752 2.761h-13.405a2.757 2.757 0 01-2.753-2.761V68.2a2.758 2.758 0 012.753-2.762h13.405a2.757 2.757 0 012.752 2.761zm-1.562 30.617V68.2c0-.66-.533-1.195-1.19-1.195h-13.405c-.657 0-1.191.536-1.191 1.195v30.617c0 .659.534 1.194 1.191 1.194h13.405c.657 0 1.19-.535 1.19-1.194z" fill="#4C423D"/><path d="M119.914 96.782c.917 0 1.661.745 1.661 1.666 0 .92-.742 1.666-1.661 1.666-.918 0-1.66-.747-1.66-1.666 0-.92.744-1.666 1.66-1.666zm7.544-27.188h-15.787a.892.892 0 000 1.786h15.787a.892.892 0 000-1.786z" fill="#4C423D"/><path d="M127.292 95.95h-16.415c-.511 0-.926.373-.926.833 0 .46.415.833.926.833h16.415c.511 0 .926-.373.926-.833 0-.46-.415-.833-.926-.833z" fill="#4C423D"/><path d="M86.94 172.759c47.136 0 85.347-38.212 85.347-85.347 0-47.136-38.211-85.347-85.346-85.347-47.136 0-85.347 38.211-85.347 85.347 0 47.135 38.21 85.347 85.347 85.347z" stroke="#221A15" stroke-width="2" stroke-linecap="round" stroke-linejoin="round"/><g filter="url(#filter0_d_10944_62882)"><mask id="c" maskUnits="userSpaceOnUse" x="1" y="5.471" width="45" height="30" fill="#000"><path fill="#fff" d="M1 5.471h45v30H1z"/><path d="M12.753 34.871c-2.294 0-4.24-.6-5.84-1.8-1.574-1.226-2.774-2.92-3.6-5.08-.827-2.186-1.24-4.693-1.24-7.52 0-2.853.413-5.36 1.24-7.52.826-2.16 2.026-3.84 3.6-5.04 1.6-1.226 3.546-1.84 5.84-1.84 2.293 0 4.226.614 5.8 1.84 1.6 1.2 2.813 2.88 3.64 5.04.826 2.16 1.24 4.667 1.24 7.52 0 2.827-.414 5.334-1.24 7.52-.827 2.16-2.04 3.854-3.64 5.08-1.574 1.2-3.507 1.8-5.8 1.8zm0-4.8c1.12 0 2.08-.347 2.88-1.04.826-.72 1.466-1.787 1.92-3.2.453-1.44.68-3.226.68-5.36 0-2.16-.227-3.947-.68-5.36-.454-1.413-1.094-2.466-1.92-3.16-.8-.72-1.76-1.08-2.88-1.08-1.094 0-2.054.36-2.88 1.08-.827.694-1.467 1.747-1.92 3.16-.454 1.413-.68 3.2-.68 5.36 0 2.134.226 3.92.68 5.36.453 1.413 1.093 2.48 1.92 3.2a4.347 4.347 0 002.88 1.04zm16.77-1.24c.24 0 .493.04.76.12.293.08.613.24.96.48a7.63 7.63 0 001.6.92c.64.267 1.373.4 2.2.4.827 0 1.6-.2 2.32-.6a5.278 5.278 0 001.84-1.76c.48-.773.72-1.693.72-2.76 0-1.013-.213-1.853-.64-2.52a3.921 3.921 0 00-1.64-1.52 4.612 4.612 0 00-2.16-.52c-.587 0-1.08.053-1.48.16a18.2 18.2 0 00-1.12.36c-.347.107-.76.16-1.24.16-.613 0-1.093-.213-1.44-.64-.32-.427-.48-.933-.48-1.52 0-.373.067-.707.2-1 .16-.293.387-.613.68-.96l7.04-7.48 1.08.92h-9.84c-.64 0-1.173-.213-1.6-.64-.427-.426-.64-.96-.64-1.6 0-.613.213-1.12.64-1.52.427-.426.96-.64 1.6-.64h12.24c.827 0 1.44.227 1.84.68.427.454.64 1.027.64 1.72 0 .347-.093.694-.28 1.04a4.32 4.32 0 01-.68.88l-7.08 7.6-1.08-1.36c.293-.133.693-.253 1.2-.36.533-.106.973-.16 1.32-.16 1.573 0 2.933.414 4.08 1.24a7.724 7.724 0 012.68 3.16c.64 1.28.96 2.667.96 4.16 0 1.973-.44 3.68-1.32 5.12-.88 1.44-2.12 2.547-3.72 3.32-1.6.773-3.467 1.16-5.6 1.16-.987 0-1.96-.12-2.92-.36s-1.787-.56-2.48-.96c-.587-.32-.987-.666-1.2-1.04-.187-.4-.28-.773-.28-1.12 0-.613.213-1.186.64-1.72.453-.56 1.013-.84 1.68-.84z"/></mask><path d="M12.753 34.871c-2.294 0-4.24-.6-5.84-1.8-1.574-1.226-2.774-2.92-3.6-5.08-.827-2.186-1.24-4.693-1.24-7.52 0-2.853.413-5.36 1.24-7.52.826-2.16 2.026-3.84 3.6-5.04 1.6-1.226 3.546-1.84 5.84-1.84 2.293 0 4.226.614 5.8 1.84 1.6 1.2 2.813 2.88 3.64 5.04.826 2.16 1.24 4.667 1.24 7.52 0 2.827-.414 5.334-1.24 7.52-.827 2.16-2.04 3.854-3.64 5.08-1.574 1.2-3.507 1.8-5.8 1.8zm0-4.8c1.12 0 2.08-.347 2.88-1.04.826-.72 1.466-1.787 1.92-3.2.453-1.44.68-3.226.68-5.36 0-2.16-.227-3.947-.68-5.36-.454-1.413-1.094-2.466-1.92-3.16-.8-.72-1.76-1.08-2.88-1.08-1.094 0-2.054.36-2.88 1.08-.827.694-1.467 1.747-1.92 3.16-.454 1.413-.68 3.2-.68 5.36 0 2.134.226 3.92.68 5.36.453 1.413 1.093 2.48 1.92 3.2a4.347 4.347 0 002.88 1.04zm16.77-1.24c.24 0 .493.04.76.12.293.08.613.24.96.48a7.63 7.63 0 001.6.92c.64.267 1.373.4 2.2.4.827 0 1.6-.2 2.32-.6a5.278 5.278 0 001.84-1.76c.48-.773.72-1.693.72-2.76 0-1.013-.213-1.853-.64-2.52a3.921 3.921 0 00-1.64-1.52 4.612 4.612 0 00-2.16-.52c-.587 0-1.08.053-1.48.16a18.2 18.2 0 00-1.12.36c-.347.107-.76.16-1.24.16-.613 0-1.093-.213-1.44-.64-.32-.427-.48-.933-.48-1.52 0-.373.067-.707.2-1 .16-.293.387-.613.68-.96l7.04-7.48 1.08.92h-9.84c-.64 0-1.173-.213-1.6-.64-.427-.426-.64-.96-.64-1.6 0-.613.213-1.12.64-1.52.427-.426.96-.64 1.6-.64h12.24c.827 0 1.44.227 1.84.68.427.454.64 1.027.64 1.72 0 .347-.093.694-.28 1.04a4.32 4.32 0 01-.68.88l-7.08 7.6-1.08-1.36c.293-.133.693-.253 1.2-.36.533-.106.973-.16 1.32-.16 1.573 0 2.933.414 4.08 1.24a7.724 7.724 0 012.68 3.16c.64 1.28.96 2.667.96 4.16 0 1.973-.44 3.68-1.32 5.12-.88 1.44-2.12 2.547-3.72 3.32-1.6.773-3.467 1.16-5.6 1.16-.987 0-1.96-.12-2.92-.36s-1.787-.56-2.48-.96c-.587-.32-.987-.666-1.2-1.04-.187-.4-.28-.773-.28-1.12 0-.613.213-1.186.64-1.72.453-.56 1.013-.84 1.68-.84z" fill="url(#paint1_linear_10944_62882)"/><path d="M12.753 34.871c-2.294 0-4.24-.6-5.84-1.8-1.574-1.226-2.774-2.92-3.6-5.08-.827-2.186-1.24-4.693-1.24-7.52 0-2.853.413-5.36 1.24-7.52.826-2.16 2.026-3.84 3.6-5.04 1.6-1.226 3.546-1.84 5.84-1.84 2.293 0 4.226.614 5.8 1.84 1.6 1.2 2.813 2.88 3.64 5.04.826 2.16 1.24 4.667 1.24 7.52 0 2.827-.414 5.334-1.24 7.52-.827 2.16-2.04 3.854-3.64 5.08-1.574 1.2-3.507 1.8-5.8 1.8zm0-4.8c1.12 0 2.08-.347 2.88-1.04.826-.72 1.466-1.787 1.92-3.2.453-1.44.68-3.226.68-5.36 0-2.16-.227-3.947-.68-5.36-.454-1.413-1.094-2.466-1.92-3.16-.8-.72-1.76-1.08-2.88-1.08-1.094 0-2.054.36-2.88 1.08-.827.694-1.467 1.747-1.92 3.16-.454 1.413-.68 3.2-.68 5.36 0 2.134.226 3.92.68 5.36.453 1.413 1.093 2.48 1.92 3.2a4.347 4.347 0 002.88 1.04zm16.77-1.24c.24 0 .493.04.76.12.293.08.613.24.96.48a7.63 7.63 0 001.6.92c.64.267 1.373.4 2.2.4.827 0 1.6-.2 2.32-.6a5.278 5.278 0 001.84-1.76c.48-.773.72-1.693.72-2.76 0-1.013-.213-1.853-.64-2.52a3.921 3.921 0 00-1.64-1.52 4.612 4.612 0 00-2.16-.52c-.587 0-1.08.053-1.48.16a18.2 18.2 0 00-1.12.36c-.347.107-.76.16-1.24.16-.613 0-1.093-.213-1.44-.64-.32-.427-.48-.933-.48-1.52 0-.373.067-.707.2-1 .16-.293.387-.613.68-.96l7.04-7.48 1.08.92h-9.84c-.64 0-1.173-.213-1.6-.64-.427-.426-.64-.96-.64-1.6 0-.613.213-1.12.64-1.52.427-.426.96-.64 1.6-.64h12.24c.827 0 1.44.227 1.84.68.427.454.64 1.027.64 1.72 0 .347-.093.694-.28 1.04a4.32 4.32 0 01-.68.88l-7.08 7.6-1.08-1.36c.293-.133.693-.253 1.2-.36.533-.106.973-.16 1.32-.16 1.573 0 2.933.414 4.08 1.24a7.724 7.724 0 012.68 3.16c.64 1.28.96 2.667.96 4.16 0 1.973-.44 3.68-1.32 5.12-.88 1.44-2.12 2.547-3.72 3.32-1.6.773-3.467 1.16-5.6 1.16-.987 0-1.96-.12-2.92-.36s-1.787-.56-2.48-.96c-.587-.32-.987-.666-1.2-1.04-.187-.4-.28-.773-.28-1.12 0-.613.213-1.186.64-1.72.453-.56 1.013-.84 1.68-.84z" fill="url(#paint2_linear_10944_62882)"/><path d="M6.913 33.071l-.308.395.008.005.3-.4zm-3.6-5.08l-.468.177v.002l.468-.179zm0-15.04l-.467-.178.467.178zm3.6-5.04l.303.398v-.001l-.303-.397zm11.64 0l-.308.395.008.005.3-.4zm3.64 5.04l.467-.178-.467.178zm0 15.04l.467.179v-.002l-.467-.177zm-3.64 5.08l.303.398v-.001l-.303-.397zm-2.92-4.04l.327.378h.001l-.328-.378zm1.92-3.2l.476.153v-.003l-.476-.15zm0-10.72l-.477.153.477-.153zm-1.92-3.16l-.335.372.007.006.006.005.322-.383zm-5.76 0l.321.383.007-.006-.328-.377zm-1.92 3.16l-.476-.152.476.152zm0 10.72l-.477.15v.003l.477-.153zm1.92 3.2l-.329.377.007.006.322-.383zm2.88 5.34c-2.202 0-4.04-.574-5.54-1.7l-.6.8c1.699 1.274 3.755 1.9 6.14 1.9v-1zM7.22 32.677c-1.49-1.162-2.64-2.777-3.44-4.864l-.934.357c.854 2.231 2.103 4.004 3.76 5.295l.614-.788zm-3.44-4.863c-.801-2.12-1.207-4.564-1.207-7.343h-1c0 2.875.42 5.443 1.272 7.697l.935-.354zm-1.207-7.343c0-2.806.406-5.25 1.207-7.341l-.934-.357C1.993 15 1.573 17.57 1.573 20.47h1zM3.78 13.13c.799-2.088 1.948-3.687 3.436-4.821l-.607-.795C4.951 8.779 3.7 10.54 2.846 12.773l.934.357zm3.437-4.822c1.5-1.15 3.337-1.737 5.536-1.737v-1c-2.388 0-4.445.64-6.145 1.943l.609.794zm5.536-1.737c2.199 0 4.02.586 5.492 1.735l.615-.79c-1.674-1.304-3.72-1.945-6.107-1.945v1zm5.5 1.74c1.513 1.135 2.674 2.733 3.473 4.819l.934-.357c-.855-2.234-2.12-3.997-3.807-5.262l-.6.8zm3.473 4.819c.8 2.091 1.207 4.535 1.207 7.341h1c0-2.9-.42-5.47-1.273-7.698l-.934.357zm1.207 7.341c0 2.779-.407 5.224-1.208 7.343l.935.354c.852-2.254 1.273-4.822 1.273-7.697h-1zm-1.207 7.341c-.799 2.087-1.961 3.7-3.478 4.862l.609.794c1.684-1.29 2.948-3.065 3.803-5.298l-.934-.358zm-3.477 4.862c-1.472 1.123-3.294 1.697-5.496 1.697v1c2.384 0 4.429-.626 6.103-1.902l-.607-.795zm-5.496-2.103c1.232 0 2.31-.385 3.207-1.162l-.655-.756c-.703.61-1.545.918-2.552.918v1zm3.208-1.163c.916-.797 1.596-1.954 2.068-3.424l-.953-.306c-.434 1.357-1.034 2.334-1.772 2.976l.657.754zm2.069-3.427c.473-1.504.703-3.345.703-5.51h-1c0 2.102-.224 3.834-.657 5.21l.954.3zm.703-5.51c0-2.19-.23-4.033-.704-5.512l-.953.305c.433 1.347.657 3.078.657 5.207h1zm-.704-5.512c-.472-1.471-1.154-2.618-2.075-3.39l-.643.765c.732.614 1.33 1.574 1.765 2.93l.953-.305zm-2.062-3.38c-.896-.806-1.976-1.208-3.214-1.208v1c1.002 0 1.841.318 2.545.952l.67-.744zm-3.214-1.208a4.75 4.75 0 00-3.209 1.203l.657.754a3.752 3.752 0 012.552-.957v-1zM9.55 11.568c-.921.773-1.603 1.92-2.074 3.39l.952.306c.435-1.356 1.033-2.316 1.765-2.93l-.643-.766zm-2.074 3.39c-.475 1.48-.704 3.323-.704 5.513h1c0-2.13.224-3.86.656-5.207l-.952-.305zm-.704 5.513c0 2.165.23 4.006.703 5.51l.954-.3c-.434-1.376-.657-3.108-.657-5.21h-1zm.704 5.513c.471 1.47 1.152 2.627 2.067 3.424l.657-.754c-.738-.642-1.337-1.62-1.772-2.976l-.952.306zm2.074 3.43a4.847 4.847 0 003.202 1.157v-1a3.848 3.848 0 01-2.559-.923l-.643.766zm20.732-.463l-.144.48.012.003.132-.483zm.96.48l.304-.397-.01-.007-.01-.007-.284.411zm1.6.92l-.2.459.008.003.192-.462zm4.52-.2l.243.437.005-.003-.248-.434zm1.84-1.76l.42.27.005-.006-.425-.264zm.08-5.28l-.429.257.004.007.004.006.421-.27zm-1.64-1.52l-.23.444.006.003.224-.447zm-3.64-.36l-.129-.483-.008.002.137.481zm-1.12.36l.147.478.01-.003.011-.004-.168-.47zm-2.68-.48l-.4.3.006.008.006.008.388-.316zm-.28-2.52l-.439-.24-.009.017-.007.016.455.207zm.68-.96l-.364-.343-.01.01-.008.01.382.323zm7.04-7.48l.324-.38-.362-.309-.326.347.364.342zm1.08.92v.5h1.358l-1.034-.88-.324.38zm-11.44-.64l-.354.354.354-.354zm0-3.12l.342.365.006-.006.006-.005-.354-.354zm15.68.04l-.375.331.005.006.006.006.364-.343zm.36 2.76l.432.252.004-.007.004-.008-.44-.237zm-.68.88l-.354-.353-.006.006-.006.006.366.341zm-7.08 7.6l-.392.311.362.455.396-.425-.366-.34zm-1.08-1.36l-.207-.455-.583.265.398.501.392-.31zm1.2-.36l-.098-.49h-.005l.103.49zm5.4 1.08l-.292.406.01.007.282-.413zm2.68 3.16l-.453.213.006.01.447-.223zm-.36 9.28l-.427-.26.427.26zm-3.72 3.32l-.218-.45.218.45zm-8.52.8l.121-.485-.121.485zm-2.48-.96l.25-.433-.01-.006-.24.44zm-1.2-1.04l-.453.212.009.018.01.018.434-.248zm.36-2.84l-.389-.314-.002.002.391.312zm1.68-.34c.184 0 .389.03.616.1l.288-.959a3.144 3.144 0 00-.904-.14v1zm.628.103c.222.06.49.189.807.408l.57-.822c-.377-.26-.749-.452-1.113-.551l-.264.965zm.788.394a8.13 8.13 0 001.705.982l.398-.917a7.134 7.134 0 01-1.495-.859l-.608.794zm1.712.985c.711.296 1.512.438 2.392.438v-1c-.773 0-1.44-.125-2.008-.361l-.384.923zm2.392.438c.911 0 1.768-.221 2.563-.663l-.486-.874a4.201 4.201 0 01-2.077.537v1zm2.568-.666a5.779 5.779 0 002.013-1.923l-.842-.541a4.779 4.779 0 01-1.667 1.596l.496.868zm2.017-1.93c.537-.865.795-1.88.795-3.024h-1c0 .99-.222 1.815-.645 2.497l.85.527zm.795-3.024c0-1.082-.228-2.023-.719-2.79l-.842.54c.362.566.561 1.306.561 2.25h1zm-.711-2.777a4.421 4.421 0 00-1.845-1.71l-.448.894a3.421 3.421 0 011.435 1.33l.858-.514zm-1.838-1.706a5.112 5.112 0 00-2.391-.577v1c.695 0 1.336.155 1.93.464l.46-.887zm-2.391-.577c-.614 0-1.153.056-1.609.177l.258.966c.344-.092.791-.143 1.351-.143v-1zm-1.617.18c-.384.11-.768.232-1.151.37l.336.941c.363-.13.727-.246 1.09-.35l-.275-.962zm-1.13.362c-.287.088-.648.138-1.093.138v1c.515 0 .98-.057 1.387-.182l-.294-.956zm-1.093.138c-.483 0-.812-.16-1.052-.455l-.776.63c.453.559 1.084.825 1.828.825v-1zm-1.04-.44c-.249-.331-.38-.73-.38-1.22h-1c0 .684.189 1.298.58 1.82l.8-.6zm-.38-1.22c0-.313.056-.574.155-.793l-.91-.414a2.89 2.89 0 00-.245 1.207h1zm.139-.76c.14-.256.344-.547.623-.877l-.764-.646a6.387 6.387 0 00-.737 1.044l.878.479zm.605-.857l7.04-7.48-.728-.685-7.04 7.48.728.685zm6.352-7.442l1.08.92.648-.761-1.08-.92-.648.76zm1.404.04h-9.84v1h9.84v-1zm-9.84 0c-.516 0-.92-.168-1.246-.494l-.708.707c.527.526 1.19.786 1.954.786v-1zm-1.246-.494c-.327-.327-.494-.73-.494-1.247h-1c0 .764.26 1.427.786 1.954l.708-.707zm-.494-1.247c0-.483.162-.855.482-1.155l-.684-.73c-.533.5-.798 1.141-.798 1.885h1zm.494-1.166c.326-.327.73-.494 1.246-.494v-1c-.764 0-1.427.26-1.954.787l.708.707zm1.246-.494h12.24v-1h-12.24v1zm12.24 0c.738 0 1.191.2 1.465.511l.75-.662c-.526-.596-1.3-.849-2.215-.849v1zm1.476.523c.329.35.504.796.504 1.377h1c0-.805-.252-1.506-.776-2.062l-.728.685zm.504 1.377c0 .253-.067.52-.22.803l.88.474c.22-.41.34-.837.34-1.277h-1zm-.212.788a3.815 3.815 0 01-.602.779l.707.707c.297-.297.55-.624.759-.982l-.864-.504zm-.614.791l-7.08 7.6.732.682 7.08-7.6-.732-.682zm-6.322 7.63l-1.08-1.36-.784.622 1.08 1.36.784-.622zm-1.265-.594c.246-.112.606-.222 1.096-.326l-.206-.978c-.524.11-.963.24-1.304.394l.414.91zm1.091-.325c.517-.103.921-.15 1.222-.15v-1c-.393 0-.868.06-1.418.17l.196.98zm1.222-.15c1.48 0 2.736.387 3.788 1.146l.584-.811c-1.241-.895-2.706-1.335-4.372-1.335v1zm3.798 1.153a7.224 7.224 0 012.51 2.96l.905-.425a8.223 8.223 0 00-2.851-3.36l-.564.825zm2.515 2.97c.603 1.208.907 2.518.907 3.937h1c0-1.567-.337-3.03-1.013-4.383l-.894.447zm.907 3.937c0 1.897-.422 3.51-1.247 4.86l.854.52c.935-1.53 1.393-3.33 1.393-5.38h-1zm-1.247 4.86c-.827 1.353-1.992 2.396-3.51 3.13l.435.9c1.681-.812 2.996-1.983 3.929-3.51l-.854-.52zm-3.51 3.13c-1.52.735-3.31 1.11-5.383 1.11v1c2.194 0 4.137-.398 5.818-1.21l-.436-.9zm-5.383 1.11c-.946 0-1.878-.115-2.799-.345l-.242.97c1 .25 2.013.375 3.041.375v-1zm-2.799-.345c-.925-.231-1.706-.536-2.351-.908l-.5.866c.742.428 1.614.764 2.609 1.012l.242-.97zm-2.362-.914c-.546-.298-.856-.589-1.005-.849l-.868.496c.278.487.768.89 1.395 1.231l.478-.878zm-.986-.812c-.164-.351-.233-.652-.233-.909h-1c0 .437.117.883.327 1.332l.906-.423zm-.233-.909c0-.487.166-.952.53-1.407l-.78-.625c-.49.611-.75 1.292-.75 2.032h1zm.529-1.405c.367-.454.789-.655 1.291-.655v-1c-.831 0-1.53.36-2.069 1.026l.778.629z" fill="#221A15" mask="url(#c)"/></g></g><defs><linearGradient id="paint0_linear_10944_62882" x1="1.429" y1="-6.274" x2="173.27" y2="4.508" gradientUnits="userSpaceOnUse"><stop stop-color="#FFD7E8"/><stop offset=".5" stop-color="#FFDCD1"/><stop offset="1" stop-color="#FFF1A7"/></linearGradient><linearGradient id="paint1_linear_10944_62882" x1="0" y1="-.529" x2="49.434" y2="2.748" gradientUnits="userSpaceOnUse"><stop stop-color="#FFF9EC"/><stop offset=".507" stop-color="#FFE9B8"/><stop offset="1" stop-color="#FFF9EA"/></linearGradient><linearGradient id="paint2_linear_10944_62882" x1="41.922" y1="-3.728" x2="33.042" y2="44.379" gradientUnits="userSpaceOnUse"><stop stop-color="#FFD8E8"/><stop offset=".5" stop-color="#FFCABA"/><stop offset="1" stop-color="#FFEF9B"/></linearGradient><clipPath id="clip0_10944_62882"><path fill="#fff" transform="translate(0 .471)" d="M0 0h174v174H0z"/></clipPath><clipPath id="clip1_10944_62882"><path fill="#fff" transform="translate(114.102 77.624)" d="M0 0h10.794v10.829H0z"/></clipPath><clipPath id="clip2_10944_62882"><path fill="#fff" transform="translate(75.908 55.133)" d="M0 0h24.078v24.156H0z"/></clipPath><filter id="filter0_d_10944_62882" x="1.572" y="5.571" width="45.65" height="31.8" filterUnits="userSpaceOnUse" color-interpolation-filters="sRGB"><feFlood flood-opacity="0" result="BackgroundImageFix"/><feColorMatrix in="SourceAlpha" values="0 0 0 0 0 0 0 0 0 0 0 0 0 0 0 0 0 0 127 0" result="hardAlpha"/><feOffset dx="2" dy="2"/><feComposite in2="hardAlpha" operator="out"/><feColorMatrix values="0 0 0 0 0.133333 0 0 0 0 0.101961 0 0 0 0 0.0823529 0 0 0 1 0"/><feBlend in2="BackgroundImageFix" result="effect1_dropShadow_10944_62882"/><feBlend in="SourceGraphic" in2="effect1_dropShadow_10944_62882" result="shape"/></filter></defs></svg>