<svg width="41" height="47" fill="none" xmlns="http://www.w3.org/2000/svg"><g clip-path="url(#clip0_10944_61330)"><path d="M7.953 47a1.143 1.143 0 01-1.11-.885c-.819-3.61 1.097-5.096 2.364-6.08.22-.169.426-.329.6-.484.987-.88 1.71-1.626 2.238-2.256a10.263 10.263 0 01-3.613-.864c-2.146-.943-2.469-2.478-2.093-3.507.544-1.489 2.778-2.614 6.4-1.569 2.04.59 2.704 1.744 2.902 2.61.04.178.066.36.074.542.36-.12.727-.26 1.098-.42.83-.36 2.185-1.714 3.122-2.947-3.354-.071-7.634-.9-13.634-2.54-.816-.224-2.52-1.02-3.133-2.432-.323-.745-.288-1.526.102-2.26 1.316-2.476 8.456-2.563 12.625-1.413 4.511 1.243 6.631 3.023 7.296 6.132a10.743 10.743 0 002.197-.677c2.024-.874 3.662-2.186 4.494-3.601.662-1.125.738-2.249.197-3.538-.32.024-.64.046-.958.068-.482.033-.965.066-1.447.105l-1.264.102c-6.615.538-8.844.72-19.375-.98-2.181-.353-5.064-1.793-6.112-3.77C.394 15.34.36 14.29.826 13.303c1.735-3.683 14.602-4.196 22.571-.9 2.044.846 5.616 2.92 7.16 4.885.204.26.508.647.824 1.135 2.773-.285 5.2-.88 6.494-2.912 1.095-1.718-.597-5.036-2.8-6.94-5.938-5.133-10.5-5.759-14.525-6.312a1.143 1.143 0 01-.948-.836 1.131 1.131 0 01.815-1.385c.145-.038.296-.047.444-.026 4.125.566 9.258 1.27 15.709 6.846 2.549 2.203 5.236 6.721 3.23 9.869-1.67 2.62-4.412 3.477-7.383 3.86.436 1.41.487 3.114-.568 4.91-1.072 1.821-3.096 3.475-5.555 4.536-1.142.49-2.348.817-3.581.971-1.113 2.208-3.68 4.597-4.993 5.164a14.52 14.52 0 01-2.729.885c-.704 1.247-1.922 2.637-3.665 4.19-.231.206-.479.398-.718.584-1.186.92-2.043 1.584-1.542 3.79a1.13 1.13 0 01-.62 1.272 1.145 1.145 0 01-.493.112zm2.16-13.78c-1.054 0-1.581.33-1.633.48.01.045.187.355.872.656a8.04 8.04 0 004.044.653c.06-.268.045-.443.023-.54-.112-.491-.777-.78-1.315-.935-.8-.23-1.462-.314-1.991-.314zm.1-9.168c-.448 0-.891.014-1.325.043-2.334.154-3.443.668-3.615.893-.061.117-.054.186-.013.28.192.443 1.042.979 1.644 1.143 6.466 1.77 10.776 2.56 14.008 2.462-.355-1.468-1.235-2.981-5.625-4.192-1.479-.408-3.302-.63-5.075-.63zm1.262-11.591c-4.597 0-8.187.957-8.586 1.804-.158.337-.143.65.05 1.013.638 1.204 2.863 2.33 4.46 2.588 10.258 1.656 12.417 1.48 18.825.959l1.267-.103c.41-.033.82-.062 1.23-.09-1.15-1.417-4.113-3.273-6.198-4.135-3.637-1.504-7.623-2.036-11.048-2.036z" fill="#414141"/></g><defs><clipPath id="clip0_10944_61330"><path fill="#fff" transform="translate(.5)" d="M0 0h40v47H0z"/></clipPath></defs></svg>