<svg width="34" height="40" fill="none" xmlns="http://www.w3.org/2000/svg"><circle cx="31.809" cy="6.363" r="1.549" fill="#EB537B"/><circle cx="1.941" cy="6.363" r="1.549" fill="#EB537B"/><circle cx="16.939" cy="1.549" r="1.549" fill="#EB537B"/><circle cx="9.504" cy="2.787" r="1.549" fill="#EB537B"/><circle cx="24.373" cy="2.787" r="1.549" fill="#EB537B"/><path d="M24.568 11.675L6.225 16.54 9.73 29.494l18.344-4.866-3.506-12.953z" fill="#fff" stroke="#fff" stroke-width=".892" stroke-linecap="round" stroke-linejoin="round"/><path d="M6.72 18.371l5.522 20.403M8.85 15.817l15.69-4.141 3.531 12.986-16.033 4.232M7.086 15.067a1.2 1.2 0 01-.86 1.475 1.222 1.222 0 01-1.495-.854 1.2 1.2 0 01.86-1.475 1.222 1.222 0 011.495.854zm4.996-.082L9.25 19.873m6.338-5.821l-5.39 9.297m8.896-10.227l-7.95 13.702M22.603 12.19L13.07 28.62m11.897-15.388l-8.388 14.455m9.335-10.979l-5.83 10.046m6.776-6.566l-3.27 5.637" stroke="#EB537B" stroke-width=".892" stroke-linecap="round" stroke-linejoin="round"/></svg>