<svg width="66" height="66" fill="none" xmlns="http://www.w3.org/2000/svg"><g clip-path="url(#clip0_11089_247813)"><path d="M33.103 61.52c15.81 0 28.627-12.818 28.627-28.628S48.913 4.266 33.103 4.266c-15.81 0-28.626 12.816-28.626 28.626S17.293 61.52 33.103 61.52z" fill="#F4A0B6"/><path d="M33.103 61.52c15.81 0 28.627-12.818 28.627-28.628S48.913 4.266 33.103 4.266c-15.81 0-28.626 12.816-28.626 28.626S17.293 61.52 33.103 61.52z" fill="url(#paint0_linear_11089_247813)" fill-opacity=".5"/><path d="M19.324 44.579v.583h2.692v-.583h-2.692zm0-1.24v.574h2.692v-.573h-2.692zm-.907-.703h4.542v3.238h-4.541v-3.238zm.796 2.886l.916.232a7.04 7.04 0 01-.879 1.61 6.478 6.478 0 01-1.175 1.239 1.251 1.251 0 00-.203-.213l-.26-.259a1.628 1.628 0 00-.24-.203 4.794 4.794 0 001.082-1.046 5.2 5.2 0 00.759-1.36zm.166.935h3.33v.823H18.88l.5-.823zm3.08 0h.935l-.01.074v.166a.936.936 0 01-.009.148 42.305 42.305 0 01-.157 2.008 8.79 8.79 0 01-.175 1.165c-.068.271-.152.466-.25.583a.799.799 0 01-.315.24c-.11.05-.24.084-.388.102a3.246 3.246 0 01-.518.019c-.204 0-.423-.007-.657-.019a1.768 1.768 0 00-.083-.416 1.53 1.53 0 00-.176-.407 11.74 11.74 0 001.008.046.78.78 0 00.185-.018.427.427 0 00.148-.102c.074-.074.136-.231.185-.472.056-.247.105-.607.148-1.082.05-.481.093-1.107.13-1.878v-.157zm-1.664 1.11l.582.61a9.172 9.172 0 01-.712.269c-.259.08-.52.15-.786.212-.265.062-.521.117-.768.167a1.762 1.762 0 00-.102-.306 3.025 3.025 0 00-.129-.305c.228-.061.46-.126.694-.194a9.71 9.71 0 00.675-.222c.216-.08.398-.157.546-.231zm-2.276-.047h.842v1.582c0 .111.022.182.065.213.043.03.139.046.287.046h.933c.08 0 .139-.012.176-.037.043-.03.073-.086.092-.166.018-.08.03-.2.037-.361.086.062.203.123.351.185.155.056.29.096.407.12-.03.272-.083.481-.157.63a.659.659 0 01-.305.314c-.123.055-.29.083-.5.083h-1.154c-.296 0-.52-.03-.675-.093a.529.529 0 01-.315-.314c-.055-.148-.083-.352-.083-.61V47.52zm-3.681-.407c.382-.08.842-.188 1.378-.323a160.6 160.6 0 001.628-.435l.12.888c-.5.148-1.005.296-1.517.444-.512.142-.98.274-1.406.398l-.203-.971zm.176-2.996h2.904v.915h-2.904v-.915zm1.128-1.776h.953v7.492c0 .253-.028.45-.083.592a.602.602 0 01-.287.342 1.5 1.5 0 01-.546.157 7.17 7.17 0 01-.795.038 2.706 2.706 0 00-.102-.482 3.831 3.831 0 00-.176-.48c.185.006.36.009.527.009h.343c.061 0 .104-.013.129-.037.025-.031.037-.077.037-.139v-7.492zm14.476.536l.722-.481a9 9 0 01.666.638c.234.24.413.45.536.63l-.758.536a3.329 3.329 0 00-.305-.417 9.433 9.433 0 00-.426-.471 7.212 7.212 0 00-.435-.435zM24.32 44.32h8.39v.823h-8.39v-.823zm.416-1.332h4.033v.768h-4.033v-.768zm-.157 2.618h4.357v.712h-4.357v-.712zm-.139 3.792h4.505v.731H24.44v-.73zm1.85-7.067h.944v2.738h-.944v-2.738zm-.823 5.763v.398h2.58v-.398h-2.58zm0-.879v.389h2.58v-.389h-2.58zm-.712-.509h4.033v2.285h-4.033v-2.285zm1.628.315h.73v1.794h.075v2.165h-.87v-2.164h.065V47.02zm-.084-1.915h.898v1.785h-.898v-1.785zm2.933-2.766h.999c-.019.82-.01 1.61.027 2.368.037.753.096 1.453.176 2.1.087.642.191 1.203.315 1.684.123.475.265.845.425 1.11.16.265.336.398.528.398.104 0 .181-.12.23-.361.056-.24.096-.632.121-1.175a2.4 2.4 0 00.38.305c.153.093.292.164.415.213-.043.524-.114.928-.212 1.212-.093.29-.222.49-.389.601-.16.117-.373.176-.638.176-.314 0-.595-.111-.842-.333-.24-.216-.447-.518-.62-.907a7.94 7.94 0 01-.444-1.397 16.81 16.81 0 01-.277-1.776 32.854 32.854 0 01-.148-2.025 50.976 50.976 0 01-.046-2.193zm2.275 3.229l.879.277c-.234.74-.524 1.428-.87 2.063a9.39 9.39 0 01-1.202 1.73 7.739 7.739 0 01-1.535 1.341 2.847 2.847 0 00-.306-.388 2.884 2.884 0 00-.37-.361 6.835 6.835 0 001.462-1.175c.438-.469.82-.996 1.147-1.582a9.39 9.39 0 00.795-1.905zm3.987.878h4.514v.787h-4.514v-.787zm-.148 1.573h4.828v.823h-4.828v-.823zm2.858-1.332h.879v4.107h-.879v-4.107zm-1.831.037h.85v1.748c0 .148-.018.327-.055.537-.037.21-.102.434-.194.675a2.86 2.86 0 01-.37.684c-.16.223-.364.417-.61.583a3.518 3.518 0 00-.648-.573 1.96 1.96 0 00.638-.61c.148-.235.25-.47.306-.704a2.65 2.65 0 00.083-.592v-1.748zm-1.998-2.757h2.405v.657h-2.405v-.657zm4.292 0h2.414v.657h-2.414v-.657zm2.026-1.267h.97v7.086c0 .259-.03.465-.092.62a.627.627 0 01-.314.351 1.603 1.603 0 01-.62.157c-.24.025-.537.034-.888.028a2.606 2.606 0 00-.065-.314 4.812 4.812 0 00-.11-.361 1.653 1.653 0 00-.121-.306c.216.007.425.01.629.01h.425c.068 0 .115-.016.14-.047.03-.03.045-.08.045-.147V42.7zm-6.226 0h2.942v3.238h-2.942v-.722h2.008v-1.803h-2.008V42.7zm6.725 0v.712h-2.174v1.823h2.174v.721h-3.117v-3.256h3.117zm-7.308 0h.972v8.27h-.971V42.7zm13.515 6.993h3.034v.898h-3.034v-.898zm-.5-2.571h4.052v3.81h-.98V48.03h-2.128v2.942h-.944v-3.848zm-.61-1.693l1.267-.065a178.3 178.3 0 001.517-.083c.536-.037 1.07-.07 1.6-.102l-.009.888c-.506.037-1.014.077-1.526.12-.506.044-.993.08-1.462.111-.468.031-.894.062-1.276.093l-.111-.962zm2.96-1.258l.795-.398c.198.26.389.54.574.842.19.296.364.589.518.879.154.29.268.552.342.786l-.86.462a5.277 5.277 0 00-.315-.795 10.244 10.244 0 00-.49-.916 9.013 9.013 0 00-.564-.86zm-1.295-1.85l1.1.213a34.7 34.7 0 01-.86 2.396c-.154.382-.302.721-.444 1.017l-.842-.222c.1-.228.198-.484.297-.768.104-.283.203-.576.295-.878.093-.309.18-.611.26-.907.08-.302.144-.586.194-.851zM42.745 44.2h3.016v.915h-3.016V44.2zm1.295-1.878l.934.111c-.098.481-.206.99-.323 1.526a54.87 54.87 0 01-.361 1.619c-.124.536-.25 1.054-.38 1.554-.123.493-.24.944-.351 1.35l-.805-.434c.105-.358.216-.771.333-1.24.117-.468.231-.962.342-1.48.118-.524.229-1.042.334-1.554.104-.512.197-.996.277-1.452zm-.786 5.54l.546-.693c.326.197.666.422 1.017.675.358.253.69.509.999.768.308.259.552.506.73.74l-.591.796a6.096 6.096 0 00-.722-.75 14.537 14.537 0 00-.962-.823 10.616 10.616 0 00-1.017-.712zM45.39 44.2h.166l.176-.028.583.102c-.068 1.202-.223 2.238-.463 3.108-.234.87-.555 1.6-.962 2.192a5.023 5.023 0 01-1.517 1.434 4.028 4.028 0 00-.278-.426 3.006 3.006 0 00-.323-.37A3.823 3.823 0 0044.105 49c.37-.536.66-1.19.87-1.96.215-.777.354-1.662.416-2.655V44.2z" fill="#221A15"/><g clip-path="url(#clip1_11089_247813)"><path fill="#fff" d="M23.359 18.914h20.238v12.807H23.359z"/><path d="M47.181 32.797v.598c0 .59-.475 1.066-1.062 1.066H21.022a1.064 1.064 0 01-1.063-1.066v-.598h11.494v.832h4.234v-.832h11.494z" fill="#948E8B"/><path d="M47.181 32.796h-.334v.598a.73.73 0 01-.728.731H21.021a.724.724 0 01-.604-.322.725.725 0 01-.125-.409v-.263H31.12v.497a.336.336 0 00.334.335h4.233a.335.335 0 00.334-.335v-.497h11.16v-.67H35.687a.335.335 0 00-.334.335v.498h-3.566v-.498a.336.336 0 00-.334-.335H19.959a.336.336 0 00-.334.335v.598a1.402 1.402 0 001.396 1.4H46.12a1.39 1.39 0 001.157-.616 1.4 1.4 0 00.239-.784v-.598a.336.336 0 00-.334-.335v.335z" fill="#4C423D"/><path d="M44.668 18.369v14.427h-22.2V18.369a.6.6 0 01.598-.6H44.07a.6.6 0 01.598.6zM43.95 31.87V18.695H23.187V31.87H43.95z" fill="#948E8B"/><path d="M44.67 18.369h-.335v14.092H22.804V18.37a.26.26 0 01.116-.22.259.259 0 01.147-.044h21.005c.037 0 .07.007.102.02a.268.268 0 01.161.244h.668a.933.933 0 00-.932-.933H23.068a.925.925 0 00-.772.411.94.94 0 00-.16.523v14.427a.336.336 0 00.334.335h22.2a.336.336 0 00.333-.335V18.37h-.334zm-.719 13.502h.334V18.695a.336.336 0 00-.334-.335H23.188a.336.336 0 00-.334.335v13.176a.336.336 0 00.334.335h20.764a.335.335 0 00.333-.335h-.333v-.334h-20.43V19.03h20.096v12.84h.334z" fill="#4C423D"/><path d="M35.687 32.797h-4.234v.832h4.234v-.832z" fill="#948E8B"/><path d="M35.687 32.796h-.334v.497h-3.566v-.163h3.9v-.669h-4.234a.336.336 0 00-.334.335v.832a.336.336 0 00.334.335h4.234a.336.336 0 00.334-.335v-.832a.336.336 0 00-.334-.335v.335z" fill="#4C423D"/><path d="M22.804 32.794V18.367a.26.26 0 01.116-.219.259.259 0 01.147-.045h21.005a.268.268 0 01.264.264v14.428a.334.334 0 10.667 0V18.367a.933.933 0 00-.932-.933H23.068a.924.924 0 00-.772.411c-.1.15-.16.33-.16.523v14.427a.334.334 0 10.668 0z" fill="#4C423D"/><path d="M48.581 25.59v.822h-6.538v-.821c0-.237.221-.429.493-.429h5.552c.272 0 .493.192.493.429z" fill="#948E8B"/><path d="M44.67 32.796v.334h2.177v.264a.73.73 0 01-.728.731H21.02a.724.724 0 01-.604-.322.725.725 0 01-.125-.409v-.263H44.67v-.67H19.96a.336.336 0 00-.334.335v.598a1.402 1.402 0 001.396 1.4H46.12a1.39 1.39 0 001.157-.616 1.4 1.4 0 00.239-.784v-.598a.336.336 0 00-.334-.335H44.67v.335z" fill="#4C423D"/><path fill="#fff" d="M42.043 26.725h6.539v10.308h-6.539z"/><g clip-path="url(#clip2_11089_247813)"><mask id="a" style="mask-type:luminance" maskUnits="userSpaceOnUse" x="43" y="29" width="5" height="5"><path d="M45.315 33.067a1.795 1.795 0 001.278-.53 1.807 1.807 0 00.529-1.283 1.813 1.813 0 00-1.807-1.813 1.797 1.797 0 00-1.278.531 1.808 1.808 0 00-.53 1.282 1.813 1.813 0 001.808 1.813z" fill="#fff" stroke="#fff" stroke-width=".428" stroke-linejoin="round"/><path d="M44.592 31.255l.542.544 1.084-1.088" stroke="#000" stroke-width=".428" stroke-linecap="round" stroke-linejoin="round"/></mask><g mask="url(#a)"><path d="M43.29 29.078h4.336v4.351h-4.337v-4.35z" fill="#F090A9"/></g></g><path d="M48.581 36.408v.821c0 .236-.22.429-.493.429h-5.552c-.272 0-.493-.193-.493-.429v-.82h6.538zm-2.886.616c0-.184-.171-.333-.383-.333s-.383.149-.383.333c0 .184.171.333.383.333s.383-.15.383-.333z" fill="#948E8B"/><g clip-path="url(#clip3_11089_247813)"><mask id="b" style="mask-type:luminance" maskUnits="userSpaceOnUse" x="28" y="20" width="10" height="10"><path d="M33.476 29.361a4.007 4.007 0 002.85-1.184 4.032 4.032 0 001.181-2.86 4.045 4.045 0 00-2.488-3.737 4.009 4.009 0 00-1.543-.307 4.01 4.01 0 00-2.85 1.185 4.032 4.032 0 00-1.18 2.86 4.043 4.043 0 002.487 3.737 4.01 4.01 0 001.543.306z" fill="#fff" stroke="#fff" stroke-width=".954" stroke-linejoin="round"/><path d="M31.863 25.317l1.21 1.213 2.418-2.427" stroke="#000" stroke-width=".954" stroke-linecap="round" stroke-linejoin="round"/></mask><g mask="url(#b)"><path d="M28.643 20.465h9.674v9.706h-9.674v-9.706z" fill="#F090A9"/></g></g><path d="M31.117 32.796v.832a.335.335 0 00.334.335h4.234a.336.336 0 00.334-.335v-.832a.334.334 0 10-.668 0v.497h-3.566v-.497a.334.334 0 10-.668 0zm17.707-7.106v11.48c0 .572-.462 1.036-1.032 1.036h-5.027c-.57 0-1.033-.464-1.033-1.036V25.69c0-.572.463-1.036 1.033-1.036h5.026c.57 0 1.033.464 1.033 1.036zm-.586 11.481V25.69c0-.247-.2-.448-.447-.448h-5.026c-.247 0-.447.2-.447.448v11.48c0 .248.2.448.447.448h5.026c.247 0 .447-.2.447-.448z" fill="#4C423D"/><path d="M45.468 36.408c.344 0 .623.28.623.625a.623.623 0 11-1.245 0c0-.345.279-.625.622-.625zm2.829-10.195h-5.92a.334.334 0 000 .67h5.92a.334.334 0 000-.67z" fill="#4C423D"/><path d="M48.235 36.094H42.08c-.191 0-.347.14-.347.312s.156.313.347.313h6.156c.192 0 .347-.14.347-.313 0-.172-.155-.312-.347-.312z" fill="#4C423D"/></g><path d="M33.103 64.899c17.676 0 32.005-14.33 32.005-32.005 0-17.676-14.33-32.005-32.005-32.005-17.676 0-32.005 14.329-32.005 32.005 0 17.676 14.329 32.005 32.005 32.005z" stroke="#221A15" stroke-width=".75" stroke-linecap="round" stroke-linejoin="round"/><g filter="url(#filter0_d_11089_247813)"><mask id="c" maskUnits="userSpaceOnUse" x=".625" y="1.605" width="22" height="16" fill="#000"><path fill="#fff" d="M.625 1.605h22v16h-22z"/><path d="M6.251 16.805c-1.146 0-2.12-.3-2.92-.9-.786-.613-1.386-1.46-1.8-2.54-.413-1.093-.62-2.346-.62-3.76 0-1.426.207-2.68.62-3.76.414-1.08 1.014-1.92 1.8-2.52.8-.613 1.774-.92 2.92-.92 1.147 0 2.114.307 2.9.92.8.6 1.407 1.44 1.82 2.52.414 1.08.62 2.334.62 3.76 0 1.414-.206 2.667-.62 3.76-.413 1.08-1.02 1.927-1.82 2.54-.786.6-1.753.9-2.9.9zm0-2.4c.56 0 1.04-.173 1.44-.52.414-.36.734-.893.96-1.6.227-.72.34-1.613.34-2.68 0-1.08-.113-1.973-.34-2.68-.226-.706-.546-1.233-.96-1.58-.4-.36-.88-.54-1.44-.54-.546 0-1.026.18-1.44.54-.413.347-.733.874-.96 1.58-.226.707-.34 1.6-.34 2.68 0 1.067.114 1.96.34 2.68.227.707.547 1.24.96 1.6.414.347.894.52 1.44.52zm8.385-.62c.12 0 .247.02.38.06.147.04.307.12.48.24.227.174.494.327.8.46.32.134.687.2 1.1.2.414 0 .8-.1 1.16-.3a2.64 2.64 0 00.92-.88c.24-.386.36-.846.36-1.38 0-.506-.106-.926-.32-1.26a1.96 1.96 0 00-.82-.76 2.306 2.306 0 00-1.08-.26c-.293 0-.54.027-.74.08a9.064 9.064 0 00-.56.18c-.173.054-.38.08-.62.08-.306 0-.546-.106-.72-.32a1.23 1.23 0 01-.24-.76c0-.186.034-.353.1-.5a3.05 3.05 0 01.34-.48l3.52-3.74.54.46h-4.92c-.32 0-.586-.106-.8-.32a1.086 1.086 0 01-.32-.8c0-.306.107-.56.32-.76.214-.213.48-.32.8-.32h6.12c.414 0 .72.114.92.34.214.227.32.514.32.86 0 .174-.046.347-.14.52-.093.16-.206.307-.34.44l-3.54 3.8-.54-.68a2.98 2.98 0 01.6-.18 3.53 3.53 0 01.66-.08c.787 0 1.467.207 2.04.62.587.4 1.034.927 1.34 1.58.32.64.48 1.334.48 2.08 0 .987-.22 1.84-.66 2.56-.44.72-1.06 1.274-1.86 1.66-.8.387-1.733.58-2.8.58-.493 0-.98-.06-1.46-.18s-.893-.28-1.24-.48c-.293-.16-.493-.333-.6-.52-.093-.2-.14-.386-.14-.56 0-.306.107-.593.32-.86.227-.28.507-.42.84-.42z"/></mask><path d="M6.251 16.805c-1.146 0-2.12-.3-2.92-.9-.786-.613-1.386-1.46-1.8-2.54-.413-1.093-.62-2.346-.62-3.76 0-1.426.207-2.68.62-3.76.414-1.08 1.014-1.92 1.8-2.52.8-.613 1.774-.92 2.92-.92 1.147 0 2.114.307 2.9.92.8.6 1.407 1.44 1.82 2.52.414 1.08.62 2.334.62 3.76 0 1.414-.206 2.667-.62 3.76-.413 1.08-1.02 1.927-1.82 2.54-.786.6-1.753.9-2.9.9zm0-2.4c.56 0 1.04-.173 1.44-.52.414-.36.734-.893.96-1.6.227-.72.34-1.613.34-2.68 0-1.08-.113-1.973-.34-2.68-.226-.706-.546-1.233-.96-1.58-.4-.36-.88-.54-1.44-.54-.546 0-1.026.18-1.44.54-.413.347-.733.874-.96 1.58-.226.707-.34 1.6-.34 2.68 0 1.067.114 1.96.34 2.68.227.707.547 1.24.96 1.6.414.347.894.52 1.44.52zm8.385-.62c.12 0 .247.02.38.06.147.04.307.12.48.24.227.174.494.327.8.46.32.134.687.2 1.1.2.414 0 .8-.1 1.16-.3a2.64 2.64 0 00.92-.88c.24-.386.36-.846.36-1.38 0-.506-.106-.926-.32-1.26a1.96 1.96 0 00-.82-.76 2.306 2.306 0 00-1.08-.26c-.293 0-.54.027-.74.08a9.064 9.064 0 00-.56.18c-.173.054-.38.08-.62.08-.306 0-.546-.106-.72-.32a1.23 1.23 0 01-.24-.76c0-.186.034-.353.1-.5a3.05 3.05 0 01.34-.48l3.52-3.74.54.46h-4.92c-.32 0-.586-.106-.8-.32a1.086 1.086 0 01-.32-.8c0-.306.107-.56.32-.76.214-.213.48-.32.8-.32h6.12c.414 0 .72.114.92.34.214.227.32.514.32.86 0 .174-.046.347-.14.52-.093.16-.206.307-.34.44l-3.54 3.8-.54-.68a2.98 2.98 0 01.6-.18 3.53 3.53 0 01.66-.08c.787 0 1.467.207 2.04.62.587.4 1.034.927 1.34 1.58.32.64.48 1.334.48 2.08 0 .987-.22 1.84-.66 2.56-.44.72-1.06 1.274-1.86 1.66-.8.387-1.733.58-2.8.58-.493 0-.98-.06-1.46-.18s-.893-.28-1.24-.48c-.293-.16-.493-.333-.6-.52-.093-.2-.14-.386-.14-.56 0-.306.107-.593.32-.86.227-.28.507-.42.84-.42z" fill="url(#paint1_linear_11089_247813)"/><path d="M6.251 16.805c-1.146 0-2.12-.3-2.92-.9-.786-.613-1.386-1.46-1.8-2.54-.413-1.093-.62-2.346-.62-3.76 0-1.426.207-2.68.62-3.76.414-1.08 1.014-1.92 1.8-2.52.8-.613 1.774-.92 2.92-.92 1.147 0 2.114.307 2.9.92.8.6 1.407 1.44 1.82 2.52.414 1.08.62 2.334.62 3.76 0 1.414-.206 2.667-.62 3.76-.413 1.08-1.02 1.927-1.82 2.54-.786.6-1.753.9-2.9.9zm0-2.4c.56 0 1.04-.173 1.44-.52.414-.36.734-.893.96-1.6.227-.72.34-1.613.34-2.68 0-1.08-.113-1.973-.34-2.68-.226-.706-.546-1.233-.96-1.58-.4-.36-.88-.54-1.44-.54-.546 0-1.026.18-1.44.54-.413.347-.733.874-.96 1.58-.226.707-.34 1.6-.34 2.68 0 1.067.114 1.96.34 2.68.227.707.547 1.24.96 1.6.414.347.894.52 1.44.52zm8.385-.62c.12 0 .247.02.38.06.147.04.307.12.48.24.227.174.494.327.8.46.32.134.687.2 1.1.2.414 0 .8-.1 1.16-.3a2.64 2.64 0 00.92-.88c.24-.386.36-.846.36-1.38 0-.506-.106-.926-.32-1.26a1.96 1.96 0 00-.82-.76 2.306 2.306 0 00-1.08-.26c-.293 0-.54.027-.74.08a9.064 9.064 0 00-.56.18c-.173.054-.38.08-.62.08-.306 0-.546-.106-.72-.32a1.23 1.23 0 01-.24-.76c0-.186.034-.353.1-.5a3.05 3.05 0 01.34-.48l3.52-3.74.54.46h-4.92c-.32 0-.586-.106-.8-.32a1.086 1.086 0 01-.32-.8c0-.306.107-.56.32-.76.214-.213.48-.32.8-.32h6.12c.414 0 .72.114.92.34.214.227.32.514.32.86 0 .174-.046.347-.14.52-.093.16-.206.307-.34.44l-3.54 3.8-.54-.68a2.98 2.98 0 01.6-.18 3.53 3.53 0 01.66-.08c.787 0 1.467.207 2.04.62.587.4 1.034.927 1.34 1.58.32.64.48 1.334.48 2.08 0 .987-.22 1.84-.66 2.56-.44.72-1.06 1.274-1.86 1.66-.8.387-1.733.58-2.8.58-.493 0-.98-.06-1.46-.18s-.893-.28-1.24-.48c-.293-.16-.493-.333-.6-.52-.093-.2-.14-.386-.14-.56 0-.306.107-.593.32-.86.227-.28.507-.42.84-.42z" fill="url(#paint2_linear_11089_247813)"/><path d="M3.331 15.905l-.115.148.003.002.112-.15zm-1.8-2.54l-.175.067.175-.066zm0-7.52l-.175-.067.175.067zm1.8-2.52l.114.15-.114-.15zm5.82 0l-.115.148.003.002.112-.15zm1.82 2.52l.175-.067-.175.067zm0 7.52l.175.067-.175-.066zm-1.82 2.54l.114.15-.114-.15zm-1.46-2.02l.123.142-.123-.141zm.96-1.6l.179.058v-.001l-.179-.056zm0-5.36l-.178.058.178-.058zm-.96-1.58l-.125.14.005.004.12-.144zm-2.88 0l.12.144.003-.002-.123-.142zm-.96 1.58l-.178-.057.178.057zm0 5.36l-.179.057.18-.056zm.96 1.6l-.123.142.003.002.12-.143zm1.44 2.733c-1.112 0-2.044-.29-2.807-.862l-.225.3c.837.627 1.851.937 3.032.937v-.375zm-2.804-.86c-.756-.59-1.337-1.406-1.74-2.46l-.35.134c.423 1.107 1.041 1.984 1.859 2.621l.23-.295zm-1.74-2.459c-.404-1.068-.608-2.298-.608-3.694H.724c0 1.432.21 2.708.632 3.827l.35-.133zm-.608-3.694c0-1.408.204-2.638.607-3.693l-.35-.134C.933 6.884.724 8.161.724 9.605h.375zm.607-3.693C2.11 4.86 2.69 4.05 3.445 3.475l-.227-.299c-.82.625-1.438 1.495-1.862 2.602l.35.134zm1.74-2.438c.762-.585 1.694-.881 2.805-.881v-.375c-1.182 0-2.197.317-3.034.959l.228.297zm2.805-.881c1.112 0 2.036.296 2.785.88l.23-.295c-.824-.643-1.833-.96-3.015-.96v.375zm2.788.882c.767.576 1.354 1.385 1.757 2.437l.35-.134c-.424-1.107-1.05-1.978-1.882-2.603l-.225.3zm1.757 2.437c.404 1.055.608 2.285.608 3.693h.375c0-1.444-.21-2.72-.633-3.827l-.35.134zm.608 3.693c0 1.396-.204 2.626-.608 3.694l.35.133c.423-1.119.633-2.395.633-3.827h-.375zm-.608 3.693c-.403 1.053-.99 1.87-1.759 2.459l.228.297c.832-.637 1.458-1.514 1.881-2.621l-.35-.135zm-1.758 2.458c-.75.572-1.674.862-2.787.862v.375c1.181 0 2.19-.31 3.014-.938l-.227-.299zM6.25 14.593c.603 0 1.127-.188 1.563-.566l-.245-.283c-.364.315-.8.474-1.318.474v.375zm1.563-.566c.447-.39.782-.956 1.016-1.684l-.357-.115c-.22.685-.525 1.185-.905 1.516l.246.283zm1.016-1.685c.234-.744.349-1.658.349-2.737h-.375c0 1.055-.112 1.928-.332 2.624l.358.113zm.349-2.737c0-1.091-.114-2.005-.35-2.737l-.356.115c.218.682.33 1.554.33 2.622h.376zm-.35-2.737c-.233-.728-.568-1.29-1.017-1.666l-.241.287c.378.317.682.809.902 1.494l.357-.115zm-1.01-1.662a2.266 2.266 0 00-1.566-.588v.375c.516 0 .95.164 1.315.492l.25-.279zM6.25 4.618c-.592 0-1.115.196-1.563.586l.246.283c.38-.33.816-.494 1.317-.494v-.375zm-1.56.584c-.449.376-.785.938-1.018 1.666l.357.115c.22-.685.524-1.177.902-1.494l-.241-.287zM3.673 6.868c-.235.732-.35 1.646-.35 2.737H3.7c0-1.068.112-1.94.33-2.622l-.356-.115zm-.35 2.737c0 1.079.115 1.993.35 2.737l.357-.113c-.219-.696-.331-1.569-.331-2.624h-.375zm.35 2.738c.233.728.568 1.295 1.015 1.684l.246-.283c-.38-.33-.684-.83-.904-1.516l-.357.115zm1.018 1.686c.447.376.97.564 1.56.564v-.375a1.99 1.99 0 01-1.32-.476l-.24.287zm10.326-.184l-.054.18.004.001.05-.18zm.48.24l.114-.149-.008-.005-.107.155zm.8.46l-.075.172.002.002.073-.173zm2.26-.1l.09.164h.003l-.093-.164zm.92-.88l.157.102.002-.003-.16-.098zm.04-2.64l-.161.097.003.005.157-.101zm-.82-.76l-.087.167.003.001.084-.168zm-1.82-.18l-.049-.18h-.003l.052.18zm-.56.18l.055.18.008-.003-.063-.177zm-1.34-.24l-.15.113.004.006.146-.119zm-.14-1.26l-.166-.09-.005.013.17.077zm.34-.48l-.137-.128-.007.007.144.121zm3.52-3.74l.121-.142-.136-.116-.122.13.137.128zm.54.46v.188h.509l-.388-.33-.122.142zm-5.72-.32l-.133.133.133-.133zm0-1.56l.128.137.004-.004-.132-.133zm7.84.02l-.141.125.004.004.137-.129zm.18 1.38l.162.095.003-.006-.166-.089zm-.34.44l-.133-.132-.005.005.137.127zm-3.54 3.8l-.147.117.135.17.149-.159-.137-.128zm-.54-.68l-.078-.17-.219.1.15.187.146-.117zm.6-.18l-.037-.183h-.002l.038.183zm2.7.54l-.11.153.004.002.105-.155zm1.34 1.58l-.17.08.002.004.168-.084zm-.18 4.64l-.16-.097.16.098zm-1.86 1.66l-.082-.168.081.169zm-4.26.4l.045-.181-.046.181zm-1.24-.48l.093-.162-.004-.002-.09.164zm-.6-.52l-.17.08.003.007.004.007.162-.093zm.18-1.42l-.146-.117.146.118zm.84-.232c.099 0 .207.016.326.052l.107-.36a1.511 1.511 0 00-.434-.067v.375zm.33.053c.12.033.26.101.423.214l.213-.309a1.793 1.793 0 00-.537-.266l-.099.361zm.416.208c.24.184.52.345.839.483l.15-.344a3.629 3.629 0 01-.762-.436l-.227.297zm.841.485c.347.144.74.214 1.172.214v-.375c-.393 0-.734-.063-1.027-.186l-.145.347zm1.172.214c.446 0 .864-.108 1.252-.324l-.183-.327a2.164 2.164 0 01-1.069.276v.375zm1.253-.325c.4-.229.73-.543.985-.941l-.315-.203a2.47 2.47 0 01-.855.819l.186.325zm.987-.944c.261-.42.388-.916.388-1.479h-.375c0 .505-.113.93-.332 1.282l.319.197zm.388-1.479c0-.532-.112-.99-.35-1.36l-.315.202c.189.295.29.678.29 1.159h.375zm-.347-1.356a2.148 2.148 0 00-.897-.831l-.167.335c.314.158.561.386.743.689l.321-.193zm-.894-.83a2.494 2.494 0 00-1.167-.281v.375c.358 0 .688.08.994.239l.173-.333zm-1.167-.281a3.1 3.1 0 00-.788.086l.097.363c.179-.048.408-.074.691-.074v-.375zm-.791.087c-.19.055-.381.116-.572.184l.127.353c.183-.065.365-.124.548-.176l-.103-.36zm-.564.181c-.15.047-.337.072-.564.072v.375c.253 0 .479-.028.675-.088l-.11-.359zm-.564.072c-.258 0-.442-.087-.575-.25l-.291.236c.213.262.51.389.866.389v-.375zm-.57-.245a1.044 1.044 0 01-.203-.648h-.375c0 .33.09.624.277.873l.3-.225zm-.203-.648c0-.164.03-.303.083-.422l-.341-.155c-.08.174-.117.368-.117.577h.375zm.077-.41c.072-.132.177-.282.319-.448l-.287-.243c-.152.18-.273.35-.361.512l.33.18zm.312-.441l3.52-3.74-.273-.257-3.52 3.74.273.257zm3.262-3.726l.54.46.243-.285-.54-.46-.243.285zm.662.13h-4.92v.375h4.92v-.375zm-4.92 0a.898.898 0 01-.668-.265l-.265.265c.25.25.566.375.932.375v-.375zm-.668-.265a.898.898 0 01-.265-.668h-.375c0 .367.124.682.375.933l.265-.265zm-.265-.668a.81.81 0 01.26-.623l-.256-.273c-.253.237-.379.54-.379.896h.375zm.265-.627a.898.898 0 01.668-.265v-.375c-.367 0-.682.124-.933.375l.265.265zm.668-.265h6.12v-.375h-6.12v.375zm6.12 0c.38 0 .626.103.779.277l.281-.249c-.247-.28-.614-.403-1.06-.403v.375zm.783.281c.177.188.269.427.269.731h.375c0-.388-.121-.723-.371-.988l-.273.257zm.269.731a.902.902 0 01-.118.432l.33.177c.107-.197.163-.4.163-.609h-.375zm-.114.426c-.085.146-.189.28-.311.402l.265.265c.145-.144.268-.304.37-.478l-.325-.189zm-.316.407l-3.54 3.8.275.255 3.54-3.8-.275-.255zm-3.256 3.81l-.54-.68-.293.234.54.68.293-.233zm-.609-.392c.13-.058.314-.115.561-.167l-.077-.367c-.26.055-.475.118-.64.193l.156.341zm.56-.167c.26-.052.466-.076.622-.076v-.375c-.19 0-.424.029-.696.084l.073.367zm.622-.076c.752 0 1.393.197 1.93.585l.22-.305c-.609-.439-1.328-.655-2.15-.655v.375zm1.935.587c.558.381.983.882 1.276 1.505l.34-.16a4.049 4.049 0 00-1.405-1.654l-.211.31zm1.278 1.51c.306.612.46 1.277.46 1.995h.375c0-.774-.166-1.496-.5-2.163l-.335.167zm.46 1.995c0 .959-.213 1.777-.633 2.463l.32.195c.461-.754.688-1.642.688-2.658h-.375zm-.633 2.463c-.42.687-1.012 1.217-1.781 1.589l.163.337c.83-.401 1.479-.978 1.939-1.73l-.32-.196zm-1.781 1.589c-.77.372-1.675.561-2.719.561v.375c1.09 0 2.052-.197 2.882-.599l-.163-.337zm-2.719.561c-.477 0-.949-.058-1.414-.174l-.091.363c.495.124.997.186 1.505.186v-.375zm-1.414-.174a4.627 4.627 0 01-1.192-.46l-.187.324c.365.21.795.376 1.288.5l.091-.364zm-1.196-.463c-.278-.152-.444-.304-.527-.449l-.325.187c.13.229.364.423.673.591l.18-.33zm-.52-.435a1.147 1.147 0 01-.122-.48h-.375c0 .207.056.42.158.639l.34-.159zm-.122-.48c0-.26.089-.506.279-.743l-.293-.235a1.538 1.538 0 00-.361.978h.375zm.278-.743c.195-.24.423-.35.694-.35v-.375c-.394 0-.726.17-.985.49l.291.235z" fill="#221A15" mask="url(#c)"/></g></g><defs><clipPath id="clip0_11089_247813"><path fill="#fff" transform="translate(.5 .32)" d="M0 0h65v65H0z"/></clipPath><clipPath id="clip1_11089_247813"><path fill="#fff" transform="translate(19.625 16.416)" d="M0 0h30.75v22.125H0z"/></clipPath><clipPath id="clip2_11089_247813"><path fill="#fff" transform="translate(43.29 29.223)" d="M0 0h4.048v4.061H0z"/></clipPath><clipPath id="clip3_11089_247813"><path fill="#fff" transform="translate(28.965 20.79)" d="M0 0h9.029v9.059H0z"/></clipPath><linearGradient id="paint0_linear_11089_247813" x1="1.037" y1="-2.24" x2="65.477" y2="1.804" gradientUnits="userSpaceOnUse"><stop stop-color="#FFD7E8"/><stop offset=".5" stop-color="#FFDCD1"/><stop offset="1" stop-color="#FFF1A7"/></linearGradient><linearGradient id="paint1_linear_11089_247813" x1="-.375" y1="-1.395" x2="24.863" y2=".314" gradientUnits="userSpaceOnUse"><stop stop-color="#FFF9EC"/><stop offset=".507" stop-color="#FFE9B8"/><stop offset="1" stop-color="#FFF9EA"/></linearGradient><linearGradient id="paint2_linear_11089_247813" x1="21.032" y1="-2.994" x2="16.678" y2="21.092" gradientUnits="userSpaceOnUse"><stop stop-color="#FFD8E8"/><stop offset=".5" stop-color="#FFCABA"/><stop offset="1" stop-color="#FFEF9B"/></linearGradient><filter id="filter0_d_11089_247813" x=".724" y="2.218" width="22.45" height="15.525" filterUnits="userSpaceOnUse" color-interpolation-filters="sRGB"><feFlood flood-opacity="0" result="BackgroundImageFix"/><feColorMatrix in="SourceAlpha" values="0 0 0 0 0 0 0 0 0 0 0 0 0 0 0 0 0 0 127 0" result="hardAlpha"/><feOffset dx=".75" dy=".75"/><feComposite in2="hardAlpha" operator="out"/><feColorMatrix values="0 0 0 0 0.133333 0 0 0 0 0.101961 0 0 0 0 0.0823529 0 0 0 1 0"/><feBlend in2="BackgroundImageFix" result="effect1_dropShadow_11089_247813"/><feBlend in="SourceGraphic" in2="effect1_dropShadow_11089_247813" result="shape"/></filter></defs></svg>