<svg width="245" height="49" fill="none" xmlns="http://www.w3.org/2000/svg"><mask id="a" fill="#fff"><path d="M1 1h244v48H1V1z"/></mask><path d="M245 37H1v24h244V37z" fill="#83E1E1" mask="url(#a)"/><mask id="b" maskUnits="userSpaceOnUse" x="0" y="0" width="242" height="45" fill="#000"><path fill="#fff" d="M0 0h242v45H0z"/><path d="M18.24 41.24a2.791 2.791 0 01-1.92-.12c-.613-.267-1-.733-1.16-1.4-.187-.64-.133-1.213.16-1.72.32-.48.827-.813 1.52-1a16.744 16.744 0 003.08-1.12 12.009 12.009 0 002.52-1.72 49.88 49.88 0 01-1.72-1.64 21.992 21.992 0 01-1.6-1.88c-.32-.453-.44-.973-.36-1.56.08-.613.373-1.08.88-1.4.453-.32.973-.44 1.56-.36a2.04 2.04 0 011.4.8c.347.427.707.84 1.08 1.24.4.4.813.787 1.24 1.16.4-.987.68-2.133.84-3.44h-2.28c-1.707 0-3.053-.173-4.04-.52-.987-.373-1.693-.987-2.12-1.84-.4-.88-.6-2.067-.6-3.56 0-1.52.2-2.707.6-3.56.427-.88 1.133-1.493 2.12-1.84.987-.373 2.333-.56 4.04-.56h2.4v-2.52h-8.36c-.56 0-1.053-.2-1.48-.6-.4-.427-.6-.92-.6-1.48 0-.587.2-1.08.6-1.48.427-.4.92-.6 1.48-.6h8.36V6.36c0-.693.227-1.24.68-1.64.453-.427 1-.64 1.64-.64.64 0 1.187.213 1.64.64.453.4.68.947.68 1.64v2.16h8.92c.587 0 1.08.2 1.48.6.4.4.6.893.6 1.48 0 .56-.2 1.053-.6 1.48-.4.4-.893.6-1.48.6h-8.92v2.52h2.56c1.707 0 3.04.187 4 .56.987.347 1.68.96 2.08 1.84.4.853.6 2.04.6 3.56 0 1.493-.2 2.68-.6 3.56-.4.853-1.093 1.467-2.08 1.84-.96.347-2.293.52-4 .52h-2.72c-.24 2.293-.8 4.32-1.68 6.08 1.573.907 3.28 1.64 5.12 2.2 1.84.56 3.787.973 5.84 1.24.747.107 1.28.427 1.6.96.347.533.44 1.16.28 1.88-.187.72-.613 1.187-1.28 1.4-.64.24-1.347.307-2.12.2a41.875 41.875 0 01-6.36-1.6 30.174 30.174 0 01-5.72-2.64c-1.947 2-4.547 3.48-7.8 4.44zm-6.56.4c-.64 0-1.187-.213-1.64-.64-.427-.4-.64-.933-.64-1.6V21.8c-.213.373-.44.747-.68 1.12-.24.347-.467.68-.68 1-.347.56-.84.907-1.48 1.04a2.38 2.38 0 01-1.8-.32c-.587-.32-.933-.8-1.04-1.44-.107-.64.013-1.213.36-1.72.693-.987 1.4-2.147 2.12-3.48a60.18 60.18 0 002.04-4.16A59.252 59.252 0 0010 9.64c.533-1.387.947-2.613 1.24-3.68.213-.693.6-1.173 1.16-1.44.56-.293 1.173-.347 1.84-.16.613.16 1.067.52 1.36 1.08.293.533.347 1.107.16 1.72-.24.8-.507 1.64-.8 2.52a47.515 47.515 0 01-1 2.64V39.4c0 .667-.227 1.2-.68 1.6-.453.427-.987.64-1.6.64zM30.52 23h2.72c.8 0 1.333-.12 1.6-.36.267-.267.4-.76.4-1.48 0-.747-.133-1.24-.4-1.48-.267-.267-.8-.4-1.6-.4h-2.72V23zm-7.28 0h2.64v-3.72h-2.64c-.773 0-1.307.133-1.6.4-.267.24-.4.733-.4 1.48 0 .72.133 1.213.4 1.48.293.24.827.36 1.6.36zm33.24 11.84c-1.227.053-2.4-.227-3.52-.84s-2.107-1.6-2.96-2.96c-.72-1.2-1.333-2.72-1.84-4.56-.507-1.84-.867-3.827-1.08-5.96a43.39 43.39 0 01-.16-6.44c.053-.667.307-1.213.76-1.64a2.15 2.15 0 011.72-.6 2.169 2.169 0 011.64.8 2.15 2.15 0 01.6 1.72 41.651 41.651 0 00.04 5.48c.133 1.76.387 3.373.76 4.84.373 1.44.84 2.64 1.4 3.6.613 1.093 1.387 1.64 2.32 1.64 1.147-.027 2.107-1.227 2.88-3.6a2.322 2.322 0 011.2-1.36c.587-.32 1.2-.373 1.84-.16.613.187 1.067.587 1.36 1.2.293.587.333 1.187.12 1.8-.747 2.347-1.747 4.093-3 5.24-1.253 1.12-2.613 1.72-4.08 1.8zm21.8-7.04a2.31 2.31 0 01-1.88-.08 2.48 2.48 0 01-1.24-1.36c-.4-.987-.947-1.987-1.64-3a21.207 21.207 0 00-2.28-2.88c-.827-.907-1.68-1.667-2.56-2.28-.533-.373-.867-.893-1-1.56a2.096 2.096 0 01.44-1.8c.427-.533.947-.827 1.56-.88.64-.053 1.24.12 1.8.52 1.12.773 2.213 1.72 3.28 2.84a27.232 27.232 0 012.96 3.6c.88 1.28 1.533 2.533 1.96 3.76.213.613.187 1.24-.08 1.88-.267.613-.707 1.027-1.32 1.24zm10.28 11.48c-.587-.347-.96-.84-1.12-1.48a2.38 2.38 0 01.32-1.8c1.04-1.68 1.96-3.533 2.76-5.56.8-2.027 1.48-4.133 2.04-6.32a66.583 66.583 0 001.4-6.44c-.773.08-1.533.147-2.28.2-.72.053-1.4.107-2.04.16a2.583 2.583 0 01-1.76-.56c-.48-.427-.747-.973-.8-1.64-.027-.667.173-1.24.6-1.72a2.169 2.169 0 011.64-.8c.773-.053 1.6-.107 2.48-.16a46.733 46.733 0 002.72-.24c.08-.907.133-1.773.16-2.6.027-.827.027-1.613 0-2.36-.027-.667.173-1.24.6-1.72a2.356 2.356 0 011.68-.76 2.277 2.277 0 011.72.64c.48.427.733.973.76 1.64.027.667.027 1.387 0 2.16-.027.747-.08 1.547-.16 2.4 1.2-.213 2.28-.413 3.24-.6a2.38 2.38 0 011.8.32c.56.347.907.84 1.04 1.48.133.667.013 1.267-.36 1.8a2.24 2.24 0 01-1.48 1 61.2 61.2 0 01-2.24.4c-.8.133-1.653.267-2.56.4a88.214 88.214 0 01-1.52 7.56 65.994 65.994 0 01-2.32 7.48c-.88 2.373-1.893 4.48-3.04 6.32-.347.56-.84.92-1.48 1.08-.64.16-1.24.067-1.8-.28zm27.84-.88c-3.973.907-7.387.933-10.24.08-2.827-.853-4.853-2.427-6.08-4.72a2.496 2.496 0 01-.2-1.8c.187-.64.573-1.12 1.16-1.44.587-.32 1.187-.387 1.8-.2.64.187 1.12.573 1.44 1.16.8 1.413 2.147 2.293 4.04 2.64 1.893.347 4.253.213 7.08-.4.667-.133 1.267-.013 1.8.36.56.347.907.84 1.04 1.48.133.667.013 1.28-.36 1.84a2.24 2.24 0 01-1.48 1zm-1.96-15.28c-.907-.213-1.947-.36-3.12-.44a30.872 30.872 0 00-3.52-.04c-1.173.027-2.28.133-3.32.32a2.397 2.397 0 01-1.76-.36 2.418 2.418 0 01-.96-1.48c-.133-.64-.027-1.227.32-1.76.373-.56.88-.893 1.52-1a30.601 30.601 0 013.96-.4 36.686 36.686 0 014.2.08c1.387.08 2.653.253 3.8.52.64.133 1.12.48 1.44 1.04.347.56.44 1.16.28 1.8-.133.613-.48 1.093-1.04 1.44a2.49 2.49 0 01-1.8.28zm22.04 11.72c-1.227.053-2.4-.227-3.52-.84s-2.107-1.6-2.96-2.96c-.72-1.2-1.333-2.72-1.84-4.56-.507-1.84-.867-3.827-1.08-5.96a43.39 43.39 0 01-.16-6.44c.053-.667.307-1.213.76-1.64a2.15 2.15 0 011.72-.6 2.169 2.169 0 011.64.8c.453.48.653 1.053.6 1.72a41.651 41.651 0 00.04 5.48c.133 1.76.387 3.373.76 4.84.373 1.44.84 2.64 1.4 3.6.613 1.093 1.387 1.64 2.32 1.64 1.147-.027 2.107-1.227 2.88-3.6a2.32 2.32 0 011.2-1.36c.587-.32 1.2-.373 1.84-.16.613.187 1.067.587 1.36 1.2.293.587.333 1.187.12 1.8-.747 2.347-1.747 4.093-3 5.24-1.253 1.12-2.613 1.72-4.08 1.8zm21.8-7.04a2.31 2.31 0 01-1.88-.08 2.48 2.48 0 01-1.24-1.36c-.4-.987-.947-1.987-1.64-3a21.254 21.254 0 00-2.28-2.88c-.827-.907-1.68-1.667-2.56-2.28-.533-.373-.867-.893-1-1.56a2.096 2.096 0 01.44-1.8c.427-.533.947-.827 1.56-.88.64-.053 1.24.12 1.8.52 1.12.773 2.213 1.72 3.28 2.84a27.255 27.255 0 012.96 3.6c.88 1.28 1.533 2.533 1.96 3.76.213.613.187 1.24-.08 1.88-.267.613-.707 1.027-1.32 1.24zm31.92 13.64c-.827 0-1.467-.227-1.92-.68-.427-.453-.68-1.013-.76-1.68-.053-.693.133-1.267.56-1.72a2.508 2.508 0 011.68-.8c.853-.08 1.413-.24 1.68-.48.267-.267.4-.773.4-1.52v-6.4h-11.28c-.667 0-1.187-.2-1.56-.6a2.234 2.234 0 01-.56-1.52c0-.587.187-1.08.56-1.48.373-.427.893-.64 1.56-.64h11.28v-3.16h-12.4c-.907 0-1.533-.373-1.88-1.12v8.92c0 1.413-.173 2.52-.52 3.32-.32.773-.907 1.32-1.76 1.64-.853.293-2.08.44-3.68.44s-2.84-.147-3.72-.44c-.853-.32-1.453-.867-1.8-1.64-.32-.8-.48-1.907-.48-3.32V13c0-1.413.16-2.507.48-3.28.347-.8.947-1.36 1.8-1.68.88-.32 2.12-.48 3.72-.48s2.827.16 3.68.48c.853.32 1.44.88 1.76 1.68.347.773.52 1.867.52 3.28v4.72c.347-.747.973-1.12 1.88-1.12h7.44v-3.56h-5.8c-.613 0-1.107-.2-1.48-.6-.373-.4-.56-.88-.56-1.44 0-.587.187-1.067.56-1.44.373-.4.867-.6 1.48-.6h5.8V6.4c0-.747.227-1.333.68-1.76a2.417 2.417 0 011.72-.68c.693 0 1.267.227 1.72.68.48.427.72 1.013.72 1.76v2.56h6.44c.64 0 1.133.2 1.48.6.373.373.56.853.56 1.44 0 .56-.187 1.04-.56 1.44-.347.4-.84.6-1.48.6h-6.44v3.56h8.2c.64 0 1.147.2 1.52.6.373.4.56.893.56 1.48s-.187 1.08-.56 1.48c-.373.4-.88.6-1.52.6h-3.48v3.16h3.12c.667 0 1.187.213 1.56.64.373.4.56.893.56 1.48s-.187 1.093-.56 1.52c-.373.4-.893.6-1.56.6h-3.12v7.4c0 2.053-.507 3.547-1.52 4.48-1.013.933-2.587 1.4-4.72 1.4zm-5.8-6.28c-.213-.24-.52-.547-.92-.92a56.546 56.546 0 00-2.16-2.04 2.069 2.069 0 01-.72-1.52c0-.64.213-1.173.64-1.6a2.355 2.355 0 011.68-.76 2.27 2.27 0 011.76.6c.213.187.507.467.88.84l1.2 1.04c.4.347.693.627.88.84.507.507.787 1.093.84 1.76.053.64-.173 1.213-.68 1.72-.453.453-1.027.693-1.72.72a2.094 2.094 0 01-1.68-.68zm-12.8-5.4c.667 0 1.093-.107 1.28-.32.213-.213.32-.693.32-1.44v-5.2h-3.24V28c0 .747.107 1.227.32 1.44.213.213.653.32 1.32.32zm-1.64-11.16h3.24v-5.04c0-.747-.107-1.227-.32-1.44-.187-.24-.613-.36-1.28-.36s-1.107.12-1.32.36c-.213.213-.32.693-.32 1.44v5.04zm41.88 20.04c-.667.107-1.267-.027-1.8-.4a2.385 2.385 0 01-1-1.52c-.24-1.36-.427-2.933-.56-4.72a78.29 78.29 0 01-.2-5.72c0-2 .053-4.013.16-6.04.107-2.027.267-3.96.48-5.8.24-1.867.52-3.533.84-5 .133-.64.48-1.133 1.04-1.48.56-.373 1.16-.493 1.8-.36.64.16 1.133.52 1.48 1.08.373.533.493 1.133.36 1.8a55.02 55.02 0 00-1 6.16c-.24 2.213-.4 4.467-.48 6.76a78.266 78.266 0 00.12 6.64c.133 2.133.36 4.08.68 5.84.133.64 0 1.227-.4 1.76-.373.533-.88.867-1.52 1zm16.4-2.16c-3.467 0-6.053-.627-7.76-1.88-1.68-1.253-2.693-3.093-3.04-5.52a2.3 2.3 0 01.4-1.76 2.4 2.4 0 011.6-.96c.64-.08 1.227.08 1.76.48.533.373.853.893.96 1.56.16 1.147.707 2 1.64 2.56.933.56 2.453.84 4.56.84 2 0 4.413-.307 7.24-.92.64-.16 1.24-.053 1.8.32s.907.88 1.04 1.52.013 1.24-.36 1.8a2.55 2.55 0 01-1.52 1.04c-1.44.347-2.88.587-4.32.72-1.413.133-2.747.2-4 .2zm-7.32-19.8a2.38 2.38 0 01-1.8-.32c-.533-.373-.867-.893-1-1.56a2.38 2.38 0 01.32-1.8 2.22 2.22 0 011.56-1c1.493-.293 3.16-.48 5-.56 1.84-.107 3.667-.12 5.48-.04 1.813.053 3.413.2 4.8.44a2.22 2.22 0 011.56 1c.373.533.493 1.133.36 1.8a2.222 2.222 0 01-1 1.56 2.397 2.397 0 01-1.76.36 36.9 36.9 0 00-6.72-.52c-2.32 0-4.587.213-6.8.64z"/></mask><path d="M18.24 41.24a2.791 2.791 0 01-1.92-.12c-.613-.267-1-.733-1.16-1.4-.187-.64-.133-1.213.16-1.72.32-.48.827-.813 1.52-1a16.744 16.744 0 003.08-1.12 12.009 12.009 0 002.52-1.72 49.88 49.88 0 01-1.72-1.64 21.992 21.992 0 01-1.6-1.88c-.32-.453-.44-.973-.36-1.56.08-.613.373-1.08.88-1.4.453-.32.973-.44 1.56-.36a2.04 2.04 0 011.4.8c.347.427.707.84 1.08 1.24.4.4.813.787 1.24 1.16.4-.987.68-2.133.84-3.44h-2.28c-1.707 0-3.053-.173-4.04-.52-.987-.373-1.693-.987-2.12-1.84-.4-.88-.6-2.067-.6-3.56 0-1.52.2-2.707.6-3.56.427-.88 1.133-1.493 2.12-1.84.987-.373 2.333-.56 4.04-.56h2.4v-2.52h-8.36c-.56 0-1.053-.2-1.48-.6-.4-.427-.6-.92-.6-1.48 0-.587.2-1.08.6-1.48.427-.4.92-.6 1.48-.6h8.36V6.36c0-.693.227-1.24.68-1.64.453-.427 1-.64 1.64-.64.64 0 1.187.213 1.64.64.453.4.68.947.68 1.64v2.16h8.92c.587 0 1.08.2 1.48.6.4.4.6.893.6 1.48 0 .56-.2 1.053-.6 1.48-.4.4-.893.6-1.48.6h-8.92v2.52h2.56c1.707 0 3.04.187 4 .56.987.347 1.68.96 2.08 1.84.4.853.6 2.04.6 3.56 0 1.493-.2 2.68-.6 3.56-.4.853-1.093 1.467-2.08 1.84-.96.347-2.293.52-4 .52h-2.72c-.24 2.293-.8 4.32-1.68 6.08 1.573.907 3.28 1.64 5.12 2.2 1.84.56 3.787.973 5.84 1.24.747.107 1.28.427 1.6.96.347.533.44 1.16.28 1.88-.187.72-.613 1.187-1.28 1.4-.64.24-1.347.307-2.12.2a41.875 41.875 0 01-6.36-1.6 30.174 30.174 0 01-5.72-2.64c-1.947 2-4.547 3.48-7.8 4.44zm-6.56.4c-.64 0-1.187-.213-1.64-.64-.427-.4-.64-.933-.64-1.6V21.8c-.213.373-.44.747-.68 1.12-.24.347-.467.68-.68 1-.347.56-.84.907-1.48 1.04a2.38 2.38 0 01-1.8-.32c-.587-.32-.933-.8-1.04-1.44-.107-.64.013-1.213.36-1.72.693-.987 1.4-2.147 2.12-3.48a60.18 60.18 0 002.04-4.16A59.252 59.252 0 0010 9.64c.533-1.387.947-2.613 1.24-3.68.213-.693.6-1.173 1.16-1.44.56-.293 1.173-.347 1.84-.16.613.16 1.067.52 1.36 1.08.293.533.347 1.107.16 1.72-.24.8-.507 1.64-.8 2.52a47.515 47.515 0 01-1 2.64V39.4c0 .667-.227 1.2-.68 1.6-.453.427-.987.64-1.6.64zM30.52 23h2.72c.8 0 1.333-.12 1.6-.36.267-.267.4-.76.4-1.48 0-.747-.133-1.24-.4-1.48-.267-.267-.8-.4-1.6-.4h-2.72V23zm-7.28 0h2.64v-3.72h-2.64c-.773 0-1.307.133-1.6.4-.267.24-.4.733-.4 1.48 0 .72.133 1.213.4 1.48.293.24.827.36 1.6.36zm33.24 11.84c-1.227.053-2.4-.227-3.52-.84s-2.107-1.6-2.96-2.96c-.72-1.2-1.333-2.72-1.84-4.56-.507-1.84-.867-3.827-1.08-5.96a43.39 43.39 0 01-.16-6.44c.053-.667.307-1.213.76-1.64a2.15 2.15 0 011.72-.6 2.169 2.169 0 011.64.8 2.15 2.15 0 01.6 1.72 41.651 41.651 0 00.04 5.48c.133 1.76.387 3.373.76 4.84.373 1.44.84 2.64 1.4 3.6.613 1.093 1.387 1.64 2.32 1.64 1.147-.027 2.107-1.227 2.88-3.6a2.322 2.322 0 011.2-1.36c.587-.32 1.2-.373 1.84-.16.613.187 1.067.587 1.36 1.2.293.587.333 1.187.12 1.8-.747 2.347-1.747 4.093-3 5.24-1.253 1.12-2.613 1.72-4.08 1.8zm21.8-7.04a2.31 2.31 0 01-1.88-.08 2.48 2.48 0 01-1.24-1.36c-.4-.987-.947-1.987-1.64-3a21.207 21.207 0 00-2.28-2.88c-.827-.907-1.68-1.667-2.56-2.28-.533-.373-.867-.893-1-1.56a2.096 2.096 0 01.44-1.8c.427-.533.947-.827 1.56-.88.64-.053 1.24.12 1.8.52 1.12.773 2.213 1.72 3.28 2.84a27.232 27.232 0 012.96 3.6c.88 1.28 1.533 2.533 1.96 3.76.213.613.187 1.24-.08 1.88-.267.613-.707 1.027-1.32 1.24zm10.28 11.48c-.587-.347-.96-.84-1.12-1.48a2.38 2.38 0 01.32-1.8c1.04-1.68 1.96-3.533 2.76-5.56.8-2.027 1.48-4.133 2.04-6.32a66.583 66.583 0 001.4-6.44c-.773.08-1.533.147-2.28.2-.72.053-1.4.107-2.04.16a2.583 2.583 0 01-1.76-.56c-.48-.427-.747-.973-.8-1.64-.027-.667.173-1.24.6-1.72a2.169 2.169 0 011.64-.8c.773-.053 1.6-.107 2.48-.16a46.733 46.733 0 002.72-.24c.08-.907.133-1.773.16-2.6.027-.827.027-1.613 0-2.36-.027-.667.173-1.24.6-1.72a2.356 2.356 0 011.68-.76 2.277 2.277 0 011.72.64c.48.427.733.973.76 1.64.027.667.027 1.387 0 2.16-.027.747-.08 1.547-.16 2.4 1.2-.213 2.28-.413 3.24-.6a2.38 2.38 0 011.8.32c.56.347.907.84 1.04 1.48.133.667.013 1.267-.36 1.8a2.24 2.24 0 01-1.48 1 61.2 61.2 0 01-2.24.4c-.8.133-1.653.267-2.56.4a88.214 88.214 0 01-1.52 7.56 65.994 65.994 0 01-2.32 7.48c-.88 2.373-1.893 4.48-3.04 6.32-.347.56-.84.92-1.48 1.08-.64.16-1.24.067-1.8-.28zm27.84-.88c-3.973.907-7.387.933-10.24.08-2.827-.853-4.853-2.427-6.08-4.72a2.496 2.496 0 01-.2-1.8c.187-.64.573-1.12 1.16-1.44.587-.32 1.187-.387 1.8-.2.64.187 1.12.573 1.44 1.16.8 1.413 2.147 2.293 4.04 2.64 1.893.347 4.253.213 7.08-.4.667-.133 1.267-.013 1.8.36.56.347.907.84 1.04 1.48.133.667.013 1.28-.36 1.84a2.24 2.24 0 01-1.48 1zm-1.96-15.28c-.907-.213-1.947-.36-3.12-.44a30.872 30.872 0 00-3.52-.04c-1.173.027-2.28.133-3.32.32a2.397 2.397 0 01-1.76-.36 2.418 2.418 0 01-.96-1.48c-.133-.64-.027-1.227.32-1.76.373-.56.88-.893 1.52-1a30.601 30.601 0 013.96-.4 36.686 36.686 0 014.2.08c1.387.08 2.653.253 3.8.52.64.133 1.12.48 1.44 1.04.347.56.44 1.16.28 1.8-.133.613-.48 1.093-1.04 1.44a2.49 2.49 0 01-1.8.28zm22.04 11.72c-1.227.053-2.4-.227-3.52-.84s-2.107-1.6-2.96-2.96c-.72-1.2-1.333-2.72-1.84-4.56-.507-1.84-.867-3.827-1.08-5.96a43.39 43.39 0 01-.16-6.44c.053-.667.307-1.213.76-1.64a2.15 2.15 0 011.72-.6 2.169 2.169 0 011.64.8c.453.48.653 1.053.6 1.72a41.651 41.651 0 00.04 5.48c.133 1.76.387 3.373.76 4.84.373 1.44.84 2.64 1.4 3.6.613 1.093 1.387 1.64 2.32 1.64 1.147-.027 2.107-1.227 2.88-3.6a2.32 2.32 0 011.2-1.36c.587-.32 1.2-.373 1.84-.16.613.187 1.067.587 1.36 1.2.293.587.333 1.187.12 1.8-.747 2.347-1.747 4.093-3 5.24-1.253 1.12-2.613 1.72-4.08 1.8zm21.8-7.04a2.31 2.31 0 01-1.88-.08 2.48 2.48 0 01-1.24-1.36c-.4-.987-.947-1.987-1.64-3a21.254 21.254 0 00-2.28-2.88c-.827-.907-1.68-1.667-2.56-2.28-.533-.373-.867-.893-1-1.56a2.096 2.096 0 01.44-1.8c.427-.533.947-.827 1.56-.88.64-.053 1.24.12 1.8.52 1.12.773 2.213 1.72 3.28 2.84a27.255 27.255 0 012.96 3.6c.88 1.28 1.533 2.533 1.96 3.76.213.613.187 1.24-.08 1.88-.267.613-.707 1.027-1.32 1.24zm31.92 13.64c-.827 0-1.467-.227-1.92-.68-.427-.453-.68-1.013-.76-1.68-.053-.693.133-1.267.56-1.72a2.508 2.508 0 011.68-.8c.853-.08 1.413-.24 1.68-.48.267-.267.4-.773.4-1.52v-6.4h-11.28c-.667 0-1.187-.2-1.56-.6a2.234 2.234 0 01-.56-1.52c0-.587.187-1.08.56-1.48.373-.427.893-.64 1.56-.64h11.28v-3.16h-12.4c-.907 0-1.533-.373-1.88-1.12v8.92c0 1.413-.173 2.52-.52 3.32-.32.773-.907 1.32-1.76 1.64-.853.293-2.08.44-3.68.44s-2.84-.147-3.72-.44c-.853-.32-1.453-.867-1.8-1.64-.32-.8-.48-1.907-.48-3.32V13c0-1.413.16-2.507.48-3.28.347-.8.947-1.36 1.8-1.68.88-.32 2.12-.48 3.72-.48s2.827.16 3.68.48c.853.32 1.44.88 1.76 1.68.347.773.52 1.867.52 3.28v4.72c.347-.747.973-1.12 1.88-1.12h7.44v-3.56h-5.8c-.613 0-1.107-.2-1.48-.6-.373-.4-.56-.88-.56-1.44 0-.587.187-1.067.56-1.44.373-.4.867-.6 1.48-.6h5.8V6.4c0-.747.227-1.333.68-1.76a2.417 2.417 0 011.72-.68c.693 0 1.267.227 1.72.68.48.427.72 1.013.72 1.76v2.56h6.44c.64 0 1.133.2 1.48.6.373.373.56.853.56 1.44 0 .56-.187 1.04-.56 1.44-.347.4-.84.6-1.48.6h-6.44v3.56h8.2c.64 0 1.147.2 1.52.6.373.4.56.893.56 1.48s-.187 1.08-.56 1.48c-.373.4-.88.6-1.52.6h-3.48v3.16h3.12c.667 0 1.187.213 1.56.64.373.4.56.893.56 1.48s-.187 1.093-.56 1.52c-.373.4-.893.6-1.56.6h-3.12v7.4c0 2.053-.507 3.547-1.52 4.48-1.013.933-2.587 1.4-4.72 1.4zm-5.8-6.28c-.213-.24-.52-.547-.92-.92a56.546 56.546 0 00-2.16-2.04 2.069 2.069 0 01-.72-1.52c0-.64.213-1.173.64-1.6a2.355 2.355 0 011.68-.76 2.27 2.27 0 011.76.6c.213.187.507.467.88.84l1.2 1.04c.4.347.693.627.88.84.507.507.787 1.093.84 1.76.053.64-.173 1.213-.68 1.72-.453.453-1.027.693-1.72.72a2.094 2.094 0 01-1.68-.68zm-12.8-5.4c.667 0 1.093-.107 1.28-.32.213-.213.32-.693.32-1.44v-5.2h-3.24V28c0 .747.107 1.227.32 1.44.213.213.653.32 1.32.32zm-1.64-11.16h3.24v-5.04c0-.747-.107-1.227-.32-1.44-.187-.24-.613-.36-1.28-.36s-1.107.12-1.32.36c-.213.213-.32.693-.32 1.44v5.04zm41.88 20.04c-.667.107-1.267-.027-1.8-.4a2.385 2.385 0 01-1-1.52c-.24-1.36-.427-2.933-.56-4.72a78.29 78.29 0 01-.2-5.72c0-2 .053-4.013.16-6.04.107-2.027.267-3.96.48-5.8.24-1.867.52-3.533.84-5 .133-.64.48-1.133 1.04-1.48.56-.373 1.16-.493 1.8-.36.64.16 1.133.52 1.48 1.08.373.533.493 1.133.36 1.8a55.02 55.02 0 00-1 6.16c-.24 2.213-.4 4.467-.48 6.76a78.266 78.266 0 00.12 6.64c.133 2.133.36 4.08.68 5.84.133.64 0 1.227-.4 1.76-.373.533-.88.867-1.52 1zm16.4-2.16c-3.467 0-6.053-.627-7.76-1.88-1.68-1.253-2.693-3.093-3.04-5.52a2.3 2.3 0 01.4-1.76 2.4 2.4 0 011.6-.96c.64-.08 1.227.08 1.76.48.533.373.853.893.96 1.56.16 1.147.707 2 1.64 2.56.933.56 2.453.84 4.56.84 2 0 4.413-.307 7.24-.92.64-.16 1.24-.053 1.8.32s.907.88 1.04 1.52.013 1.24-.36 1.8a2.55 2.55 0 01-1.52 1.04c-1.44.347-2.88.587-4.32.72-1.413.133-2.747.2-4 .2zm-7.32-19.8a2.38 2.38 0 01-1.8-.32c-.533-.373-.867-.893-1-1.56a2.38 2.38 0 01.32-1.8 2.22 2.22 0 011.56-1c1.493-.293 3.16-.48 5-.56 1.84-.107 3.667-.12 5.48-.04 1.813.053 3.413.2 4.8.44a2.22 2.22 0 011.56 1c.373.533.493 1.133.36 1.8a2.222 2.222 0 01-1 1.56 2.397 2.397 0 01-1.76.36 36.9 36.9 0 00-6.72-.52c-2.32 0-4.587.213-6.8.64z" fill="url(#paint0_linear_10944_61148)"/><path d="M18.24 41.24l.809 2.889.04-.012-.849-2.877zm-1.92-.12l1.196-2.751-1.196 2.751zm-1.16-1.4l2.917-.7a3.064 3.064 0 00-.037-.14l-2.88.84zm.16-1.72l-2.496-1.664a3.064 3.064 0 00-.1.16L15.32 38zm1.52-1l-.76-2.902a1.45 1.45 0 00-.02.005L16.84 37zm3.08-1.12l1.31 2.698.062-.03-1.372-2.668zm2.52-1.72l1.998 2.238a3 3 0 00.02-4.458l-2.018 2.22zm-1.72-1.64l-2.17 2.071.049.05 2.121-2.121zm-1.6-1.88l-2.45 1.73.061.085 2.389-1.815zm-.36-1.56l2.973.405.002-.017-2.975-.388zm.88-1.4l1.602 2.537c.043-.028.086-.056.128-.086l-1.73-2.451zm1.56-.36l.405-2.973-.405 2.973zm1.4.8l-2.383 1.822.055.07L22.6 28.12zm1.08 1.24l-2.193 2.047c.023.025.047.05.072.074l2.121-2.121zm1.24 1.16l-1.976 2.258a3 3 0 004.756-1.13l-2.78-1.128zm.84-3.44l2.978.365a3 3 0 00-2.978-3.365v3zm-6.32-.52l-1.062 2.806.067.024.995-2.83zm-2.12-1.84l-2.731 1.241c.015.034.031.068.048.1l2.683-1.341zm0-7.12l-2.7-1.309a2.31 2.31 0 00-.016.036L17.32 17.6zm2.12-1.84l.994 2.83.068-.024-1.062-2.806zm6.44-.56v3a3 3 0 003-3h-3zm0-2.52h3a3 3 0 00-3-3v3zm-9.84-.6l-2.189 2.052c.044.047.09.093.137.137l2.052-2.189zm0-2.96l-2.052-2.189a3.063 3.063 0 00-.07.068L16.04 9.12zm9.84-.6v3a3 3 0 003-3h-3zm.68-3.8l1.985 2.25.071-.065L26.56 4.72zm3.28 0l-2.056 2.185.071.065 1.985-2.25zm.68 3.8h-3a3 3 0 003 3v-3zm10.4.6l2.121-2.121L40.92 9.12zm0 2.96l2.121 2.121.068-.07-2.189-2.051zm-10.4.6v-3a3 3 0 00-3 3h3zm0 2.52h-3a3 3 0 003 3v-3zm6.56.56l-1.087 2.796.093.034.994-2.83zm2.08 1.84l-2.731 1.241.015.032L39.16 17.6zm0 7.12l2.716 1.273.015-.032-2.731-1.241zm-2.08 1.84l1.019 2.822.043-.016-1.062-2.806zm-6.72.52v-3a3 3 0 00-2.984 2.688l2.984.312zm-1.68 6.08l-2.683-1.342a3 3 0 001.185 3.941l1.498-2.599zm5.12 2.2l-.873 2.87.873-2.87zm5.84 1.24l.424-2.97a2.637 2.637 0 00-.038-.005L39.64 36.6zm1.6.96l-2.573 1.543.058.092 2.515-1.635zm.28 1.88l2.904.753.025-.102-2.929-.651zm-1.28 1.4l-.914-2.857a3.088 3.088 0 00-.14.048l1.054 2.809zm-2.12.2l-.505 2.957.095.015.41-2.972zm-6.36-1.6l-.971 2.839.011.003.96-2.842zm-5.72-2.64l1.538-2.576a3 3 0 00-3.688.484l2.15 2.092zm-16 4.2l2.056-2.185-.004-.004L10.04 41zM9.4 21.8h3a3 3 0 00-5.605-1.488L9.4 21.8zm-.68 1.12l2.467 1.708a3.24 3.24 0 00.056-.086L8.72 22.92zm-.68 1l-2.496-1.664a3.03 3.03 0 00-.055.085L8.04 23.92zm-1.48 1.04l.612 2.937-.612-2.937zm-1.8-.32l1.58-2.55a3.009 3.009 0 00-.143-.084L4.76 24.64zM3.72 23.2l-2.96.493 2.96-.493zm.36-1.72l-2.455-1.725-.02.03L4.08 21.48zM6.2 18l2.64 1.425L6.2 18zm2.04-4.16l-2.722-1.26a2.933 2.933 0 00-.02.042L8.24 13.84zM10 9.64L7.2 8.563l-.011.03L10 9.64zm1.24-3.68l-2.867-.882a3 3 0 00-.026.087l2.893.795zm1.16-1.44l1.29 2.709.102-.052L12.4 4.52zm1.84-.16l-.809 2.889.052.014.757-2.903zm1.36 1.08l-2.657 1.392.028.054L15.6 5.44zm.16 1.72l-2.87-.873-.004.011 2.874.862zm-.8 2.52l2.837.975.01-.026-2.847-.949zm-1 2.64l-2.774-1.142a3 3 0 00-.226 1.142h3zM13.28 41l-1.985-2.25a2.911 2.911 0 00-.071.065L13.28 41zm17.24-18h-3a3 3 0 003 3v-3zm4.32-.36l2.007 2.23c.039-.035.077-.072.114-.109L34.84 22.64zm0-2.96l-2.121 2.121c.037.038.075.074.114.109l2.007-2.23zm-4.32-.4v-3a3 3 0 00-3 3h3zM25.88 23v3a3 3 0 003-3h-3zm0-3.72h3a3 3 0 00-3-3v3zm-4.24.4l2.007 2.23.011-.01-2.018-2.22zm0 2.96l-2.121 2.121c.07.07.144.138.221.2l1.9-2.321zm-4.209 15.711l-.02.005a.293.293 0 01.088.007l.017.006-2.392 5.502a5.79 5.79 0 003.925.258L17.43 38.35zm.085.018c.08.035.227.121.364.287.136.163.184.31.197.364l-5.834 1.4c.373 1.556 1.378 2.798 2.88 3.451l2.393-5.502zm.524.511c-.004-.014.02.064.007.208a1.05 1.05 0 01-.13.415l-5.193-3.006c-.763 1.317-.825 2.756-.444 4.063l5.76-1.68zm-.224.784a.844.844 0 01-.227.232c-.058.038-.062.026.03 0l-1.559-5.793c-1.218.328-2.42 1.01-3.236 2.233l4.992 3.328zm-.216.238a19.735 19.735 0 003.63-1.324l-2.62-5.397a13.72 13.72 0 01-2.53.917l1.52 5.804zm3.692-1.354c1.148-.59 2.2-1.306 3.146-2.15l-3.996-4.476c-.548.49-1.176.92-1.894 1.29l2.744 5.336zm3.166-6.608a46.978 46.978 0 01-1.617-1.541L18.6 34.64a52.879 52.879 0 001.823 1.739l4.036-4.44zm-1.568-1.49c-.48-.503-.94-1.044-1.381-1.624l-4.777 3.63a24.984 24.984 0 001.818 2.136l4.34-4.142zm-1.32-1.539a.943.943 0 01.143.325c.03.131.023.223.02.25l-5.946-.81c-.175 1.283.093 2.577.882 3.695l4.902-3.46zm.165.558c-.01.07-.045.223-.155.398a1.13 1.13 0 01-.338.35l-3.204-5.073c-1.288.814-2.062 2.084-2.253 3.549l5.95.776zm-.365.663a.943.943 0 01-.325.142.738.738 0 01-.25.02l.81-5.945c-1.283-.175-2.577.092-3.695.881l3.46 4.902zm-.575.162a.967.967 0 01-.578-.35l4.766-3.645c-.848-1.11-2.039-1.768-3.378-1.95l-.81 5.945zm-.523-.281c.39.48.795.945 1.215 1.395l4.386-4.094c-.326-.35-.641-.711-.945-1.085l-4.656 3.784zm1.287 1.47c.447.447.909.879 1.386 1.296l3.95-4.516a22.5 22.5 0 01-1.094-1.023l-4.241 4.24zm6.141.165c.52-1.28.853-2.693 1.038-4.202l-5.956-.73c-.135 1.104-.361 1.985-.642 2.678l5.56 2.254zm-1.94-7.567h-2.28v6h2.28v-6zm-2.28 0c-1.554 0-2.516-.164-3.046-.35l-1.989 5.66c1.445.508 3.176.69 5.035.69v-6zm-2.978-.326c-.362-.137-.446-.27-.499-.376l-5.366 2.684c.8 1.601 2.13 2.694 3.741 3.304l2.124-5.612zm-.45-.275c-.154-.336-.332-1.044-.332-2.319h-6c0 1.712.222 3.377.869 4.801l5.462-2.482zm-.332-2.319c0-1.319.183-2.003.316-2.287l-5.432-2.546c-.667 1.422-.884 3.112-.884 4.833h6zm.3-2.251c.055-.115.117-.214.415-.319l-1.99-5.66c-1.676.589-3.027 1.716-3.824 3.361l5.398 2.618zm.482-.343c.503-.19 1.438-.366 2.978-.366v-6c-1.873 0-3.631.198-5.102.754l2.124 5.612zm2.978-.366h2.4v-6h-2.4v6zm5.4-3v-2.52h-6v2.52h6zm-3-5.52h-8.36v6h8.36v-6zm-8.36 0a.922.922 0 01.572.211l-4.104 4.378c.956.895 2.173 1.411 3.532 1.411v-6zm.709.348a.922.922 0 01.211.572h-6c0 1.359.516 2.576 1.411 3.532l4.378-4.104zm.211.572a.994.994 0 01-.279.641L13.92 7c-.986.985-1.479 2.252-1.479 3.601h6zm-.348.709a.922.922 0 01-.572.211v-6c-1.359 0-2.576.516-3.532 1.411l4.104 4.378zm-.572.211h8.36v-6h-8.36v6zm11.36-3V6.36h-6v2.16h6zm0-2.16c0-.019.003.071-.059.219a1.087 1.087 0 01-.276.39l-3.97-4.499c-1.197 1.056-1.695 2.476-1.695 3.89h6zm-.264.545a.69.69 0 01-.215.13.6.6 0 01-.201.045v-6c-1.38 0-2.67.489-3.696 1.455l4.112 4.37zm-.416.175a.6.6 0 01-.2-.045.69.69 0 01-.216-.13l4.112-4.37A5.305 5.305 0 0028.2 1.08v6zm-.345-.11a1.087 1.087 0 01-.276-.391c-.062-.148-.059-.238-.059-.219h6c0-1.414-.498-2.834-1.695-3.89l-3.97 4.5zm-.335-.61v2.16h6V6.36h-6zm3 5.16h8.92v-6h-8.92v6zm8.92 0a.994.994 0 01-.641-.279L43.04 7c-.985-.986-2.252-1.479-3.601-1.479v6zm-.641-.279a.994.994 0 01-.279-.641h6c0-1.35-.493-2.616-1.479-3.601L38.8 11.24zm-.279-.641a.922.922 0 01.211-.572l4.378 4.104c.895-.956 1.411-2.173 1.411-3.532h-6zm.279-.641a.993.993 0 01.641-.279v6c1.35 0 2.616-.493 3.601-1.479L38.8 9.96zm.641-.279h-8.92v6h8.92v-6zm-11.92 3v2.52h6v-2.52h-6zm3 5.52h2.56v-6h-2.56v6zm2.56 0c1.547 0 2.453.177 2.913.356l2.174-5.592c-1.46-.568-3.22-.764-5.087-.764v6zm3.006.39a.799.799 0 01.266.137c.017.015.043.04.077.114l5.462-2.482c-.768-1.69-2.129-2.836-3.816-3.43l-1.99 5.661zm.358.283c.133.284.316.968.316 2.287h6c0-1.721-.217-3.41-.884-4.833l-5.432 2.546zm.316 2.287c0 1.275-.178 1.983-.331 2.319l5.462 2.482c.647-1.424.869-3.09.869-4.801h-6zm-.316 2.287c-.029.06-.074.174-.426.307l2.124 5.612c1.621-.614 2.962-1.726 3.734-3.373l-5.432-2.546zm-.383.291c-.486.176-1.42.342-2.981.342v6c1.853 0 3.585-.18 5.019-.698l-2.038-5.644zm-2.981.342h-2.72v6h2.72v-6zm-5.704 2.688c-.209 1.995-.686 3.663-1.38 5.05l5.367 2.684c1.066-2.133 1.71-4.518 1.98-7.11l-5.967-.624zm-.194 8.991a27.496 27.496 0 005.744 2.471l1.747-5.74a21.508 21.508 0 01-4.495-1.93l-2.996 5.2zm5.744 2.471a38.917 38.917 0 006.328 1.345l.772-5.95a32.928 32.928 0 01-5.353-1.135l-1.747 5.74zm6.29 1.34c.06.008-.019.007-.16-.078a1.163 1.163 0 01-.389-.389l5.145-3.087c-.883-1.473-2.317-2.181-3.748-2.386l-.848 5.94zm-.491-.375a.838.838 0 01-.122-.323c-.016-.105.002-.142-.012-.083l5.858 1.302c.304-1.37.163-2.849-.694-4.166l-5.03 3.27zm-.109-.508a.989.989 0 01.23-.381c.177-.194.37-.288.48-.323l1.828 5.714c1.719-.55 2.844-1.863 3.27-3.504l-5.808-1.506zm.57-.656c-.11.041-.306.086-.656.037l-.82 5.944c1.196.165 2.414.075 3.583-.363l-2.106-5.618zm-.561.052a38.883 38.883 0 01-5.905-1.485l-1.92 5.684a44.879 44.879 0 006.815 1.715l1.01-5.914zm-5.894-1.481a27.172 27.172 0 01-5.153-2.378l-3.076 5.152a33.175 33.175 0 006.287 2.903l1.941-5.68zm-8.84-1.894c-1.519 1.559-3.635 2.81-6.5 3.655l1.698 5.754c3.641-1.074 6.725-2.784 9.1-5.224l-4.299-4.185zM11.68 38.64a.6.6 0 01.2.045c.107.042.18.097.216.13l-4.112 4.37a5.305 5.305 0 003.696 1.455v-6zm.412.171c.1.095.194.226.253.375.056.14.055.226.055.214h-6c0 1.368.47 2.74 1.588 3.789l4.104-4.378zm.308.589V21.8h-6v17.6h6zM6.795 20.312a22.08 22.08 0 01-.599.986l5.047 3.244c.268-.416.522-.834.762-1.254l-5.21-2.976zm-.542.9c-.249.36-.485.708-.71 1.044l4.993 3.328c.203-.304.42-.623.65-.956l-4.933-3.416zm-.764 1.129a.732.732 0 01.196-.196.753.753 0 01.263-.122l1.224 5.874a5.201 5.201 0 003.419-2.398l-5.102-3.158zm.46-.318a.58.58 0 01.206.003.56.56 0 01.184.063l-3.158 5.102a5.38 5.38 0 003.99.706l-1.223-5.874zm.248-.017a.96.96 0 01.295.277c.123.17.172.332.187.424l-5.918.986c.263 1.581 1.195 2.834 2.562 3.58l2.874-5.267zm.482.7a.771.771 0 01-.123.467l-4.952-3.387c-.81 1.185-1.07 2.551-.843 3.907l5.918-.986zm-.144.499c.775-1.104 1.542-2.368 2.305-3.78l-5.28-2.85c-.677 1.254-1.323 2.31-1.935 3.18l4.91 3.45zm2.305-3.78a63.245 63.245 0 002.141-4.367L5.5 12.622a57.269 57.269 0 01-1.939 3.953l5.28 2.85zm2.122-4.325a62.177 62.177 0 001.85-4.413L7.188 8.593a56.252 56.252 0 01-1.671 3.987l5.444 2.52zm1.838-4.383c.558-1.45 1.006-2.774 1.333-3.962l-5.786-1.59C8.087 6.11 7.71 7.24 7.2 8.563l5.6 2.154zm1.307-3.875c.014-.046.003.016-.08.12a.992.992 0 01-.337.267L11.11 1.81c-1.448.69-2.323 1.92-2.737 3.267l5.734 1.764zm-.315.335a.691.691 0 01-.252.072c-.095.008-.138-.008-.109 0L15.05 1.47c-1.327-.371-2.737-.292-4.041.392l2.784 5.314zm-.31.086a.879.879 0 01-.308-.164.887.887 0 01-.231-.267l5.315-2.784a5.056 5.056 0 00-3.26-2.59l-1.515 5.805zm-.51-.377a.89.89 0 01-.082-.6l5.74 1.747c.408-1.34.305-2.755-.401-4.039L12.97 6.886zm-.085-.588c-.23.768-.488 1.579-.773 2.433l5.692 1.898a91.78 91.78 0 00.828-2.607l-5.748-1.724zm-.764 2.407a44.514 44.514 0 01-.937 2.473l5.548 2.284c.394-.957.749-1.893 1.063-2.807l-5.674-1.95zM10.96 12.32V39.4h6V12.32h-6zm0 27.08a.78.78 0 01.069-.273c.07-.164.172-.293.266-.377l3.97 4.5c1.17-1.032 1.695-2.422 1.695-3.85h-6zm.264-.585a.666.666 0 01.202-.12.716.716 0 01.254-.055v6c1.39 0 2.656-.514 3.656-1.455l-4.112-4.37zM30.52 26h2.72v-6h-2.72v6zm2.72 0c.53 0 1.101-.038 1.658-.163.528-.119 1.284-.369 1.949-.967l-4.014-4.46a2.04 2.04 0 01.526-.348c.122-.055.205-.075.222-.079.024-.005-.07.017-.341.017v6zm3.721-1.239c1.162-1.16 1.279-2.728 1.279-3.601h-6c0 .194-.02.216.004.127.023-.087.128-.422.475-.768l4.242 4.242zm1.279-3.601c0-.528-.044-1.123-.204-1.713-.156-.578-.48-1.359-1.19-1.997l-4.013 4.46c-.442-.398-.566-.812-.59-.897-.025-.097-.003-.072-.003.147h6zm-1.279-3.601c-.655-.655-1.426-.948-1.993-1.09a7.16 7.16 0 00-1.728-.189v6c.255 0 .325.023.272.01a1.32 1.32 0 01-.264-.102 2.058 2.058 0 01-.53-.387l4.243-4.242zM33.24 16.28h-2.72v6h2.72v-6zm-5.72 3V23h6v-3.72h-6zM23.24 26h2.64v-6h-2.64v6zm5.64-3v-3.72h-6V23h6zm-3-6.72h-2.64v6h2.64v-6zm-2.64 0c-.904 0-2.443.112-3.618 1.18l4.036 4.44c-.334.303-.633.381-.67.39-.046.012.02-.01.252-.01v-6zm-3.607 1.17c-.709.638-1.033 1.419-1.19 1.997a6.588 6.588 0 00-.203 1.713h6c0-.219.022-.244-.004-.147-.023.085-.147.499-.59.897l-4.013-4.46zm-1.393 3.71c0 .873.118 2.44 1.279 3.601l4.242-4.242c.347.346.452.681.475.768.024.09.004.067.004-.127h-6zm1.5 3.802C20.9 25.91 22.377 26 23.24 26v-6a3 3 0 01-.26-.01c-.06-.005-.077-.01-.061-.007.014.003.081.02.184.064.103.045.261.127.437.271l-3.8 4.644zm36.74 9.878l.13 2.997c.011 0 .022 0 .033-.002l-.163-2.995zM52.96 34l-1.44 2.631L52.96 34zM50 31.04l-2.572 1.544.03.05L50 31.04zm-1.84-4.56l2.892-.796-2.892.796zm-1.08-5.96l-2.986.295v.003l2.986-.298zm-.16-6.44l-2.99-.24-.006.09 2.996.15zm.76-1.64l2.056 2.185.004-.004-2.06-2.181zm1.72-.6l-.24 2.99c.04.004.08.006.12.008l.12-2.998zm1.64.8l-2.295 1.932c.037.044.075.087.114.128l2.181-2.06zm.6 1.72l-2.99-.24a2.537 2.537 0 00-.005.069l2.995.171zm.04 5.48l-2.992.223v.004l2.992-.227zm.76 4.84l-2.907.74.003.013 2.904-.753zm1.4 3.6l2.616-1.468a2.74 2.74 0 00-.025-.044L53.84 28.28zm2.32 1.64v3h.07l-.07-3zm2.88-3.6l-2.834-.986a2.851 2.851 0 00-.018.057l2.852.929zm1.2-1.36l1.342 2.683a2.17 2.17 0 00.095-.05L60.24 24.96zm1.84-.16l-.949 2.846.075.024.874-2.87zm1.36 1.2l-2.706 1.294.023.048L63.44 26zm.12 1.8l-2.834-.986a2.94 2.94 0 00-.025.076l2.859.91zm-3 5.24l1.999 2.237a2.91 2.91 0 00.026-.024L60.56 33.04zm17.72-5.24l-.986-2.834a3.219 3.219 0 00-.067.025L78.28 27.8zm-1.88-.08l-1.342 2.683.048.023L76.4 27.72zm-1.24-1.36l2.794-1.093a2.389 2.389 0 00-.014-.034l-2.78 1.127zm-1.64-3l-2.506 1.649.03.045 2.476-1.694zm-2.28-2.88l-2.217 2.021.032.035 2.185-2.056zm-2.56-2.28l-1.72 2.458.005.003L68.68 18.2zm-1-1.56l2.942-.588-2.942.588zm.44-1.8l-2.343-1.874 2.343 1.874zm1.56-.88l-.25-2.99-.01.001.26 2.989zm1.8.52l-1.744 2.441.04.028 1.704-2.469zm3.28 2.84l-2.172 2.069.025.027 2.147-2.096zm4.92 7.36l2.833-.986-2.833.986zm-.08 1.88l2.751 1.196.018-.042L79.6 26.56zm-23.25 5.283c-.657.028-1.29-.113-1.95-.474l-2.88 5.262c1.58.866 3.294 1.284 5.09 1.206l-.26-5.994zm-1.95-.474c-.568-.312-1.209-.887-1.859-1.924l-5.082 3.19c1.056 1.684 2.39 3.081 4.06 3.996l2.882-5.262zm-1.828-1.872c-.54-.9-1.061-2.148-1.52-3.813l-5.784 1.592c.554 2.015 1.26 3.807 2.16 5.308l5.145-3.088zm-1.52-3.813c-.456-1.659-.788-3.477-.987-5.463l-5.97.598c.228 2.28.616 4.436 1.173 6.457l5.784-1.592zm-.986-5.459a40.378 40.378 0 01-.15-5.995l-5.992-.3a46.39 46.39 0 00.17 6.885l5.971-.59zm-.156-5.906c.002-.018 0 .03-.038.112a.648.648 0 01-.136.194l-4.112-4.37c-1.038.977-1.587 2.237-1.694 3.586l5.98.478zm-.17.302a.812.812 0 01-.282.162.771.771 0 01-.297.047l.478-5.98a5.147 5.147 0 00-4.019 1.409l4.12 4.362zm-.46.217a.761.761 0 01-.285-.082.786.786 0 01-.25-.184l4.59-3.864a5.166 5.166 0 00-3.815-1.866l-.24 5.996zm-.421-.138a.812.812 0 01-.162-.282.771.771 0 01-.047-.297l5.98.478a5.147 5.147 0 00-1.409-4.019l-4.362 4.12zm-.214-.511a44.65 44.65 0 00.043 5.874l5.984-.446a38.653 38.653 0 01-.037-5.086l-5.99-.342zm.044 5.878c.144 1.905.421 3.693.844 5.353l5.814-1.48c-.324-1.273-.553-2.712-.676-4.327l-5.982.454zm.847 5.366c.42 1.622.977 3.097 1.713 4.359l5.182-3.024c-.383-.658-.76-1.583-1.087-2.84l-5.808 1.505zm1.688 4.315c.936 1.669 2.55 3.172 4.936 3.172v-6a.82.82 0 01.452.14c.075.054 0 .03-.156-.248l-5.232 2.936zm5.006 3.171c1.736-.04 3.018-1.002 3.853-2.045.802-1.002 1.372-2.282 1.81-3.625l-5.705-1.858c-.336 1.03-.633 1.538-.79 1.735-.067.083-.05.036.077-.039.147-.085.364-.16.615-.166l.14 5.998zm5.644-5.613a.645.645 0 01-.125.199.612.612 0 01-.167.138l-2.684-5.366a5.32 5.32 0 00-2.692 3.057l5.667 1.972zm-.197.288a.74.74 0 01-.277.075.707.707 0 01-.269-.023l1.898-5.692a5.22 5.22 0 00-4.226.372l2.874 5.268zm-.47.076a.877.877 0 01-.473-.376l5.412-2.588c-.631-1.321-1.721-2.328-3.193-2.776l-1.747 5.74zm-.45-.328a.699.699 0 01-.06-.252.732.732 0 01.03-.276l5.667 1.972a5.231 5.231 0 00-.27-4.128l-5.367 2.684zm-.056-.452c-.654 2.058-1.436 3.268-2.166 3.937l4.05 4.426c1.776-1.625 2.995-3.907 3.834-6.543L60.7 26.89zm-2.14 3.913c-.822.735-1.554 1.004-2.244 1.041l.326 5.992c2.244-.123 4.232-1.054 5.916-2.559l-3.998-4.474zm18.666-5.812a.628.628 0 01.23-.028c.125.005.21.037.237.05l-2.588 5.413a5.308 5.308 0 004.227.183l-2.106-5.618zm.515.046a.483.483 0 01.125.102.47.47 0 01.087.128l-5.588 2.186a5.48 5.48 0 002.692 2.95l2.684-5.366zm.198.196a18.904 18.904 0 00-1.944-3.567l-4.952 3.388c.59.862 1.028 1.673 1.336 2.433l5.56-2.254zm-1.914-3.522a24.207 24.207 0 00-2.601-3.287l-4.37 4.112a18.2 18.2 0 011.959 2.473l5.012-3.298zm-2.57-3.252a18.416 18.416 0 00-3.06-2.72l-3.431 4.922c.673.47 1.36 1.075 2.058 1.84l4.434-4.042zM70.4 15.742a.62.62 0 01.156.169c.054.085.067.144.066.14l-5.884 1.177c.278 1.387 1.025 2.592 2.222 3.43l3.44-4.916zm.222.31a.849.849 0 01-.018.35.836.836 0 01-.141.312l-4.686-3.748a5.093 5.093 0 00-1.039 4.262l5.884-1.176zm-.16.662c.008-.01-.04.052-.158.119a.927.927 0 01-.364.116l-.52-5.978c-1.525.133-2.765.898-3.643 1.995l4.686 3.748zm-.533.236a.47.47 0 01-.152-.018c-.058-.017-.072-.033-.04-.01l3.487-4.883c-1.094-.781-2.392-1.185-3.793-1.069l.498 5.98zm-.154-.001c.93.642 1.869 1.45 2.813 2.44l4.344-4.138c-1.19-1.25-2.437-2.335-3.747-3.24l-3.41 4.938zm2.838 2.467a24.23 24.23 0 012.635 3.204l4.944-3.4a30.225 30.225 0 00-3.285-3.996l-4.294 4.192zm2.635 3.204c.757 1.1 1.275 2.116 1.599 3.046l5.666-1.972c-.53-1.523-1.318-3.014-2.32-4.474l-4.945 3.4zm1.599 3.046a.52.52 0 01-.024-.183c.003-.075.02-.105.008-.077l5.538 2.308c.53-1.27.618-2.66.144-4.02l-5.666 1.972zm.002-.302a.731.731 0 01.167-.22.825.825 0 01.278-.177l1.972 5.667c1.43-.498 2.496-1.522 3.085-2.878l-5.502-2.392zM88.56 39.28l1.58-2.55a3.537 3.537 0 00-.054-.033L88.56 39.28zm-1.12-1.48l-2.937.612c.008.039.017.077.027.116l2.91-.728zm.32-1.8l-2.55-1.58L87.76 36zm4.8-11.88l-2.898-.777a2.019 2.019 0 00-.008.033l2.906.744zm1.4-6.44l2.96.487a3 3 0 00-3.269-3.471l.309 2.984zm-2.28.2l-.214-2.992h-.008l.222 2.992zm-2.04.16l.12 2.998.13-.008-.25-2.99zm-1.76-.56l-1.993 2.242c.043.039.088.076.134.113l1.859-2.355zm-.8-1.64l-2.998.12c.002.04.004.08.008.12l2.99-.24zm.6-1.72l2.242 1.993.053-.06-2.295-1.933zm1.64-.8l.12 2.998a3.11 3.11 0 00.086-.005l-.206-2.993zm2.48-.16l-.176-2.995h-.005l.181 2.995zm2.72-.24l.35 2.98a3 3 0 002.638-2.716l-2.988-.264zm.16-2.6l2.998.097-2.998-.097zm0-2.36l2.998-.107V7.84l-2.998.12zm.6-1.72l-2.181-2.06-.061.067L95.28 6.24zm3.4-.12l-2.06 2.181.067.061L98.68 6.12zm.76 1.64l-2.998.12 2.998-.12zm0 2.16l2.998.107v-.004L99.44 9.92zm-.16 2.4l-2.987-.28a3 3 0 003.512 3.234l-.525-2.954zm3.24-.6l.573 2.945.039-.008-.612-2.937zm1.8.32l1.579-2.55-1.579 2.55zm1.04 1.48l2.942-.588-.005-.024-2.937.612zm-.36 1.8l-2.458-1.72c-.019.028-.039.056-.057.085L105 15.32zm-1.48 1l.588 2.942.024-.005-.612-2.937zm-2.24.4l-.478-2.962-.015.003.493 2.959zm-2.56.4l-.436-2.968a3 3 0 00-2.53 2.512l2.966.456zm-1.52 7.56l2.912.72.002-.006-2.914-.714zm-2.32 7.48l-2.806-1.06-.007.017 2.813 1.043zm-3.04 6.32l-2.546-1.587-.005.008 2.551 1.579zm-1.48 1.08l.728 2.91-.728-2.91zm26.04-1.16l-.612-2.937a2.706 2.706 0 00-.055.012l.667 2.925zm-10.24.08l-.867 2.872.007.002.86-2.874zm-6.08-4.72l-2.683 1.342.038.073 2.645-1.415zm-.2-1.8L97 31.12a3.372 3.372 0 00-.023.083l2.903.757zm1.16-1.44l1.437 2.634-1.437-2.634zm1.8-.2l-.873 2.87.033.01.84-2.88zm1.44 1.16l-2.634 1.437.023.04 2.611-1.477zm4.04 2.64l-.54 2.95.54-2.95zm7.08-.4l-.588-2.942-.048.01.636 2.932zm1.8.36l-1.72 2.458c.046.032.093.063.141.093l1.579-2.551zm1.04 1.48l2.942-.588-.005-.024-2.937.612zm-.36 1.84l-2.496-1.664a.48.48 0 00-.019.029l2.515 1.635zm-3.44-14.28l-.687 2.92.075.017.612-2.937zm-3.12-.44l-.209 2.993h.005l.204-2.993zm-3.52-.04l.068 3 .065-.003-.133-2.997zm-3.32.32l.493 2.96.037-.007-.53-2.953zm-1.76-.36l-1.78 2.415c.048.035.096.068.145.1l1.635-2.515zm-.96-1.48l-2.937.612.006.025 2.931-.637zm.32-1.76l-2.496-1.664-.02.029 2.516 1.635zm1.52-1l.493 2.96.01-.003-.503-2.957zm3.96-.4l-.113-2.998h-.002l.115 2.998zm4.2.08l-.23 2.991.057.004.173-2.995zm3.8.52l-.68 2.922.068.015.612-2.937zM117 19.6l-2.605 1.488.054.091L117 19.6zm.28 1.8l-2.91-.728-.022.09 2.932.638zm-1.04 1.44l1.488 2.605.091-.054-1.579-2.551zM90.086 36.697a.586.586 0 01.146.143.683.683 0 01.118.232l-5.82 1.456c.361 1.447 1.252 2.595 2.504 3.335l3.052-5.166zm.29.491a.58.58 0 01-.002.207.56.56 0 01-.063.184l-5.102-3.158a5.38 5.38 0 00-.706 3.99l5.874-1.223zm-.065.391c1.143-1.846 2.14-3.862 3-6.038l-5.582-2.203c-.74 1.878-1.583 3.57-2.52 5.083l5.102 3.158zm3-6.038a56.024 56.024 0 002.155-6.677l-5.812-1.488a50.004 50.004 0 01-1.924 5.962l5.58 2.203zm2.146-6.644a69.584 69.584 0 001.463-6.73L91 17.193a63.575 63.575 0 01-1.338 6.15l5.795 1.554zm-1.806-10.201a71.7 71.7 0 01-2.185.192l.428 5.984c.78-.055 1.571-.125 2.375-.208l-.618-5.968zm-2.193.192c-.728.054-1.417.108-2.067.162l.498 5.98c.63-.053 1.3-.106 2.013-.158l-.444-5.984zm-1.938.154c-.014.001.024-.002.09.02a.434.434 0 01.129.063l-3.718 4.71a5.582 5.582 0 003.739 1.203l-.24-5.996zm.353.196a.657.657 0 01.188.315c.008.03.01.048.01.048l-5.981.478c.112 1.403.713 2.68 1.797 3.643l3.986-4.484zm.205.482c0 .006 0 .075-.035.178a.661.661 0 01-.12.215l-4.485-3.986c-.964 1.085-1.412 2.424-1.356 3.833l5.996-.24zm-.103.332a.786.786 0 01-.25.184.761.761 0 01-.285.082l-.24-5.996a5.166 5.166 0 00-3.815 1.866l4.59 3.864zm-.449.26c.764-.052 1.583-.105 2.456-.158l-.364-5.989c-.887.054-1.722.108-2.504.162l.412 5.986zm2.45-.157c.965-.057 1.93-.142 2.895-.256l-.701-5.958c-.85.1-1.698.174-2.546.224l.352 5.99zm5.532-2.971c.085-.957.142-1.88.17-2.767l-5.996-.194a43.776 43.776 0 01-.15 2.433l5.976.528zm.17-2.767c.03-.888.03-1.743 0-2.564l-5.996.214c.024.672.024 1.39 0 2.156l5.996.194zm0-2.577c0 .006 0 .075-.035.178a.662.662 0 01-.12.215l-4.485-3.986c-.964 1.085-1.412 2.424-1.356 3.833l5.996-.24zm-.217.46a.61.61 0 01-.184.123.578.578 0 01-.197.055l-.24-5.996A5.354 5.354 0 0093.1 4.18l4.362 4.12zm-.381.178a.654.654 0 01-.236-.046.689.689 0 01-.224-.131l4.12-4.362a5.275 5.275 0 00-3.9-1.457l.24 5.996zm-.393-.116a.786.786 0 01-.179-.25.667.667 0 01-.066-.232l5.996-.24c-.058-1.446-.65-2.77-1.765-3.762l-3.986 4.484zm-.245-.482a26 26 0 010 1.937l5.996.206a32.08 32.08 0 000-2.383l-5.996.24zm0 1.933a38.735 38.735 0 01-.149 2.227l5.974.56c.085-.903.142-1.76.171-2.573l-5.996-.214zm3.363 5.46c1.212-.215 2.309-.418 3.288-.608l-1.146-5.89c-.941.183-2.004.38-3.192.591l1.05 5.908zm3.327-.616a.583.583 0 01-.207-.003.554.554 0 01-.184-.063l3.158-5.102a5.379 5.379 0 00-3.991-.706l1.224 5.874zm-.391-.066a.731.731 0 01-.196-.196.774.774 0 01-.122-.263l5.874-1.224a5.204 5.204 0 00-2.398-3.419l-3.158 5.102zm-.323-.483a.796.796 0 01.124-.509l4.916 3.441c.866-1.237 1.13-2.678.844-4.108l-5.884 1.176zm.067-.423a.748.748 0 01.205-.2.668.668 0 01.218-.102l1.224 5.874c1.398-.291 2.588-1.078 3.383-2.302l-5.03-3.27zm.447-.307a55.97 55.97 0 01-2.13.38l.956 5.924c.855-.138 1.64-.278 2.35-.42l-1.176-5.884zm-2.145.383c-.779.13-1.613.26-2.504.39l.873 5.937c.924-.136 1.796-.272 2.617-.409l-.986-5.918zm-5.032 2.903a85.239 85.239 0 01-1.469 7.302l5.828 1.428a91.24 91.24 0 001.571-7.818l-5.93-.912zm-1.467 7.295a63.02 63.02 0 01-2.214 7.14l5.612 2.121a68.954 68.954 0 002.426-7.82l-5.824-1.44zm-2.22 7.158c-.822 2.214-1.75 4.134-2.774 5.776l5.092 3.174c1.27-2.038 2.368-4.332 3.307-6.864l-5.626-2.086zm-2.779 5.784a.606.606 0 01.153-.154.599.599 0 01.19-.097l1.456 5.82a5.347 5.347 0 003.303-2.41l-5.102-3.16zm.343-.251a.692.692 0 01.26-.004c.128.02.215.063.247.083l-3.158 5.102a5.25 5.25 0 004.107.64l-1.456-5.821zm26.101-1.175c-3.647.832-6.506.791-8.713.13l-1.72 5.75c3.499 1.046 7.467.951 11.767-.03l-1.334-5.85zm-8.706.133c-2.176-.657-3.503-1.77-4.302-3.263l-5.29 2.83c1.654 3.093 4.381 5.127 7.858 6.177l1.734-5.744zm-4.264-3.19c-.002-.004.02.04.029.12a.523.523 0 01-.009.18l-5.806-1.515a5.495 5.495 0 00.42 3.899l5.366-2.684zm-.003.382a.618.618 0 01-.114.202.63.63 0 01-.169.152l-2.874-5.268A5.32 5.32 0 0097 31.12l5.76 1.68zm-.283.354a.758.758 0 01-.51.036l1.746-5.74c-1.419-.432-2.849-.251-4.11.436l2.874 5.268zM102 33.2a.621.621 0 01-.202-.114.637.637 0 01-.152-.17l5.268-2.873a5.32 5.32 0 00-3.234-2.603L102 33.2zm-.331-.242c1.321 2.332 3.522 3.639 6.111 4.113l1.08-5.902c-1.198-.22-1.69-.673-1.969-1.167l-5.222 2.956zm6.111 4.113c2.427.445 5.219.24 8.256-.42l-1.272-5.863c-2.616.568-4.545.63-5.904.381l-1.08 5.902zm8.208-.41a.63.63 0 01-.226-.01.766.766 0 01-.282-.113l3.44-4.916c-1.237-.866-2.678-1.13-4.108-.844l1.176 5.884zm-.367-.03a.731.731 0 01-.196-.196.774.774 0 01-.122-.263l5.874-1.224a5.204 5.204 0 00-2.398-3.419l-3.158 5.102zm-.323-.483a.58.58 0 01.008-.204.61.61 0 01.078-.208l4.992 3.328a5.36 5.36 0 00.806-4.092l-5.884 1.176zm.067-.383a.748.748 0 01.205-.2.668.668 0 01.218-.102l1.224 5.874c1.398-.291 2.588-1.078 3.383-2.302l-5.03-3.27zm-.238-15.565c-1.1-.26-2.307-.425-3.603-.513l-.408 5.986c1.051.072 1.924.2 2.637.367l1.374-5.84zm-3.598-.513a33.855 33.855 0 00-3.862-.044l.266 5.994a27.866 27.866 0 013.178.036l.418-5.986zm-3.797-.046a24.69 24.69 0 00-3.782.366l1.06 5.906c.872-.157 1.823-.25 2.858-.274l-.136-5.998zm-3.745.36a.523.523 0 01.174.01c.097.02.165.055.194.074l-3.27 5.03a5.396 5.396 0 003.888.804l-.986-5.918zm.513.184a.53.53 0 01.117.132c.05.078.069.142.075.166l-5.863 1.274a5.42 5.42 0 002.111 3.258l3.56-4.83zm.197.323a.735.735 0 01-.102.487l-5.03-3.27a5.26 5.26 0 00-.742 4.007l5.874-1.224zm-.121.516a.683.683 0 01-.187.172.804.804 0 01-.296.123l-.986-5.918c-1.492.248-2.709 1.074-3.523 2.295l4.992 3.328zm-.473.293a27.63 27.63 0 013.572-.36l-.23-5.995a33.61 33.61 0 00-4.348.44l1.006 5.915zm3.57-.36a33.67 33.67 0 013.857.074l.46-5.982a39.697 39.697 0 00-4.543-.087l.226 5.996zm3.914.078c1.246.072 2.34.225 3.293.447l1.36-5.844c-1.34-.312-2.779-.505-4.307-.593l-.346 5.99zm3.361.462a.843.843 0 01-.304-.145.892.892 0 01-.249-.264l5.21-2.976a5.07 5.07 0 00-3.433-2.489l-1.224 5.874zm-.499-.318a.696.696 0 01-.083-.248.685.685 0 01.004-.259l5.82 1.456a5.246 5.246 0 00-.639-4.107l-5.102 3.158zm-.101-.416a.841.841 0 01.313-.474l3.158 5.102c1.213-.751 2.077-1.903 2.393-3.354l-5.864-1.274zm.404-.528a.477.477 0 01.157-.05.45.45 0 01.143-.002l-1.224 5.874a5.486 5.486 0 003.9-.612l-2.976-5.21zM136.48 34.84l.13 2.997c.011 0 .022 0 .033-.002l-.163-2.995zm-3.52-.84l-1.441 2.631L132.96 34zM130 31.04l-2.572 1.544.031.05L130 31.04zm-1.84-4.56l2.892-.796-2.892.796zm-1.08-5.96l-2.985.295v.003l2.985-.298zm-.16-6.44l-2.99-.24-.006.09 2.996.15zm.76-1.64l2.056 2.185.004-.004-2.06-2.181zm1.72-.6l-.239 2.99a2.3 2.3 0 00.119.008l.12-2.998zm1.64.8l-2.295 1.932c.037.044.075.087.114.128l2.181-2.06zm.6 1.72l-2.99-.24a1.536 1.536 0 00-.005.069l2.995.171zm.04 5.48l-2.992.223.001.004 2.991-.227zm.76 4.84l-2.907.74.003.013 2.904-.753zm1.4 3.6l2.616-1.468-.025-.044-2.591 1.512zm2.32 1.64v3h.07l-.07-3zm2.88-3.6l-2.833-.986a1.198 1.198 0 00-.019.057l2.852.929zm1.2-1.36l1.342 2.683a2.17 2.17 0 00.095-.05l-1.437-2.633zm1.84-.16l-.949 2.846.076.024.873-2.87zm1.36 1.2l-2.706 1.294a.932.932 0 00.023.048L143.44 26zm.12 1.8l-2.833-.986-.026.076 2.859.91zm-3 5.24l1.999 2.237.026-.024-2.025-2.213zm17.72-5.24l-.986-2.834-.067.025 1.053 2.809zm-1.88-.08l-1.342 2.683.048.023 1.294-2.706zm-1.24-1.36l2.794-1.093-.014-.034-2.78 1.127zm-1.64-3l-2.506 1.649.03.045 2.476-1.694zm-2.28-2.88l-2.217 2.021.032.035 2.185-2.056zm-2.56-2.28l-1.72 2.458.005.003 1.715-2.461zm-1-1.56l2.942-.588-2.942.588zm.44-1.8l-2.343-1.874 2.343 1.874zm1.56-.88l-.249-2.99-.011.001.26 2.989zm1.8.52l-1.744 2.441.039.028 1.705-2.469zm3.28 2.84l-2.172 2.069.025.027 2.147-2.096zm4.92 7.36l2.833-.986-2.833.986zm-.08 1.88l2.751 1.196.018-.042-2.769-1.154zm-23.25 5.283c-.657.028-1.289-.113-1.949-.474l-2.882 5.262c1.58.866 3.295 1.284 5.091 1.206l-.26-5.994zm-1.949-.474c-.569-.312-1.21-.887-1.86-1.924l-5.082 3.19c1.056 1.684 2.389 3.081 4.06 3.996l2.882-5.262zm-1.829-1.872c-.539-.9-1.061-2.148-1.52-3.813l-5.784 1.592c.554 2.015 1.259 3.807 2.16 5.308l5.144-3.088zm-1.52-3.813c-.456-1.659-.788-3.477-.987-5.463l-5.97.598c.228 2.28.616 4.436 1.173 6.457l5.784-1.592zm-.987-5.459a40.54 40.54 0 01-.149-5.995l-5.992-.3a46.376 46.376 0 00.171 6.885l5.97-.59zm-.155-5.906c.002-.018 0 .03-.038.112a.648.648 0 01-.136.194l-4.112-4.37c-1.038.977-1.587 2.237-1.694 3.586l5.98.478zm-.17.302a.815.815 0 01-.282.162.77.77 0 01-.297.047l.478-5.98a5.149 5.149 0 00-4.019 1.409l4.12 4.362zm-.46.217a.761.761 0 01-.285-.082.782.782 0 01-.25-.184l4.59-3.864a5.166 5.166 0 00-3.815-1.866l-.24 5.996zm-.421-.138a.811.811 0 01-.162-.282.763.763 0 01-.047-.297l5.98.478a5.147 5.147 0 00-1.409-4.019l-4.362 4.12zm-.214-.511a44.72 44.72 0 00.043 5.874l5.984-.446a38.756 38.756 0 01-.037-5.086l-5.99-.342zm.044 5.878c.144 1.905.421 3.693.844 5.353l5.814-1.48c-.324-1.273-.553-2.712-.676-4.327l-5.982.454zm.847 5.366c.421 1.622.976 3.097 1.713 4.359l5.182-3.024c-.383-.658-.761-1.583-1.087-2.84l-5.808 1.505zm1.688 4.315c.936 1.669 2.55 3.172 4.936 3.172v-6a.818.818 0 01.452.14c.075.054 0 .03-.156-.248l-5.232 2.936zm5.006 3.171c1.736-.04 3.018-1.002 3.853-2.045.802-1.002 1.372-2.282 1.809-3.625l-5.704-1.858c-.336 1.03-.633 1.538-.791 1.735-.066.083-.049.036.078-.039.147-.085.364-.16.615-.166l.14 5.998zm5.643-5.613a.627.627 0 01-.123.199.612.612 0 01-.168.138l-2.684-5.366a5.32 5.32 0 00-2.691 3.057l5.666 1.972zm-.196.288a.744.744 0 01-.277.075.713.713 0 01-.269-.023l1.898-5.692a5.221 5.221 0 00-4.226.372l2.874 5.268zm-.47.076a.88.88 0 01-.473-.376l5.412-2.588c-.631-1.321-1.721-2.328-3.193-2.776l-1.746 5.74zm-.45-.328a.684.684 0 01-.06-.252.725.725 0 01.03-.276l5.666 1.972a5.228 5.228 0 00-.27-4.128l-5.366 2.684zm-.056-.452c-.654 2.058-1.436 3.268-2.166 3.937l4.05 4.426c1.776-1.625 2.995-3.907 3.834-6.543l-5.718-1.82zm-2.14 3.913c-.822.735-1.555 1.004-2.244 1.041l.326 5.992c2.244-.123 4.232-1.054 5.916-2.559l-3.998-4.474zm18.666-5.812a.628.628 0 01.231-.028.636.636 0 01.236.05l-2.588 5.413a5.307 5.307 0 004.227.183l-2.106-5.618zm.515.046a.502.502 0 01.125.102.49.49 0 01.087.128l-5.588 2.186a5.486 5.486 0 002.692 2.95l2.684-5.366zm.198.196a18.931 18.931 0 00-1.944-3.567l-4.952 3.388c.59.862 1.028 1.673 1.336 2.433l5.56-2.254zm-1.914-3.522a24.162 24.162 0 00-2.601-3.287l-4.37 4.112a18.19 18.19 0 011.959 2.473l5.012-3.298zm-2.569-3.252a18.419 18.419 0 00-3.062-2.72l-3.43 4.922c.673.47 1.361 1.075 2.058 1.84l4.434-4.042zm-3.057-2.717c.037.026.1.082.156.169.054.085.066.144.066.14l-5.884 1.177c.278 1.387 1.025 2.592 2.222 3.43l3.44-4.916zm.222.31a.865.865 0 01-.018.35.847.847 0 01-.141.312l-4.686-3.748a5.094 5.094 0 00-1.039 4.262l5.884-1.176zm-.159.662c.007-.01-.04.052-.159.119a.929.929 0 01-.364.116l-.52-5.978c-1.524.133-2.765.898-3.643 1.995l4.686 3.748zm-.534.236a.486.486 0 01-.152-.018c-.058-.017-.072-.033-.041-.01l3.488-4.883c-1.094-.781-2.392-1.185-3.793-1.069l.498 5.98zm-.154-.001c.93.642 1.869 1.45 2.813 2.44l4.344-4.138c-1.189-1.25-2.437-2.335-3.747-3.24l-3.41 4.938zm2.838 2.467a24.186 24.186 0 012.635 3.204l4.944-3.4a30.246 30.246 0 00-3.285-3.996l-4.294 4.192zm2.635 3.204c.757 1.1 1.275 2.116 1.599 3.046l5.666-1.972c-.529-1.523-1.318-3.014-2.321-4.474l-4.944 3.4zm1.599 3.046a.486.486 0 01-.024-.183c.003-.075.02-.105.008-.077l5.538 2.308c.53-1.27.617-2.66.144-4.02l-5.666 1.972zm.002-.302a.714.714 0 01.167-.22.833.833 0 01.278-.177l1.972 5.667c1.431-.498 2.496-1.522 3.085-2.878l-5.502-2.392zM188.28 40.76l-2.185 2.056.064.065 2.121-2.121zm-.76-1.68l-2.991.23c.003.043.007.085.012.127l2.979-.357zm.56-1.72l-2.181-2.06-.004.004 2.185 2.056zm1.68-.8l.239 2.99c.014 0 .027-.002.041-.003l-.28-2.987zm1.68-.48l2.007 2.23c.039-.035.077-.072.114-.109l-2.121-2.121zm.4-7.92h3a3 3 0 00-3-3v3zm-12.84-.6l-2.258 1.976.065.071L179 27.56zm0-3l2.193 2.047a2.57 2.57 0 00.065-.072L179 24.56zm12.84-.64v3a3 3 0 003-3h-3zm0-3.16h3a3 3 0 00-3-3v3zm-14.28-1.12l2.721-1.263a3 3 0 00-5.721 1.263h3zm-.52 12.24l-2.753-1.193-.019.046 2.772 1.147zm-1.76 1.64l.975 2.837a3.48 3.48 0 00.078-.028l-1.053-2.809zm-7.4 0l-1.053 2.809.104.037.949-2.846zm-1.8-1.64l-2.785 1.114.047.113 2.738-1.227zm0-22.16l-2.753-1.193-.019.046 2.772 1.147zm1.8-1.68l-1.025-2.82a.688.688 0 00-.028.011l1.053 2.809zm7.4 0l-1.053 2.809 1.053-2.809zm1.76 1.68l-2.785 1.114.047.113 2.738-1.227zm.52 8h-3a3 3 0 005.721 1.263l-2.721-1.263zm9.32-1.12v3a3 3 0 003-3h-3zm0-3.56h3a3 3 0 00-3-3v3zm-7.28-.6l2.193-2.047-2.193 2.047zm0-2.88l2.121 2.121a1.79 1.79 0 00.072-.074L179.6 9.56zm7.28-.6v3a3 3 0 003-3h-3zm.68-4.32l2.056 2.185.004-.004-2.06-2.181zm3.44 0l-2.121 2.121c.041.042.084.082.128.121L191 4.64zm.72 4.32h-3a3 3 0 003 3v-3zm7.92.6l-2.267 1.965c.047.054.095.106.146.156l2.121-2.121zm0 2.88l-2.193-2.047a3.19 3.19 0 00-.074.082l2.267 1.965zm-7.92.6v-3a3 3 0 00-3 3h3zm0 3.56h-3a3 3 0 003 3v-3zm9.72.6l2.193-2.047-2.193 2.047zm0 2.96l2.193 2.047-2.193-2.047zm-5 .6v-3a3 3 0 00-3 3h3zm0 3.16h-3a3 3 0 003 3v-3zm4.68.64l-2.258 1.976.065.071 2.193-2.047zm0 3l2.193 2.047a2.57 2.57 0 00.065-.072l-2.258-1.975zm-4.68.6v-3a3 3 0 00-3 3h3zm-1.52 11.88l2.032 2.207-2.032-2.207zm-10.52-4.88l-2.242 1.993.061.067 2.181-2.06zm-.92-.92l-2.121 2.121c.024.025.049.049.074.072l2.047-2.193zm-1.2-1.16l2.047-2.193-2.047 2.193zm-.96-.88l1.993-2.242-.008-.007-1.985 2.249zm-.72-1.52h-3c0 .044.001.087.003.13l2.997-.13zm.64-1.6l2.121 2.121.06-.061-2.181-2.06zm1.68-.76l.12 2.998c.04-.002.08-.004.119-.008l-.239-2.99zm1.76.6l-2 2.236.024.022 1.976-2.258zm.88.84l-2.121 2.121c.05.05.102.1.156.146l1.965-2.267zm2.08 1.88l-2.258 1.975c.044.05.09.1.137.146l2.121-2.121zm.84 1.76l-2.99.24v.01l2.99-.25zm-.68 1.72l-2.121-2.121 2.121 2.121zm-1.72.72l-.115-2.998h-.005l.12 2.998zm-13.2-6.4l-2.121-2.121a3.147 3.147 0 00-.137.146l2.258 1.975zm.32-6.64h3a3 3 0 00-3-3v3zm-3.24 0v-3a3 3 0 00-3 3h3zm0-4.2h-3a3 3 0 003 3v-3zm3.24 0v3a3 3 0 003-3h-3zm-.32-6.48l-2.368 1.842c.076.098.159.191.247.28l2.121-2.122zm-2.6 0l2.121 2.121a2.44 2.44 0 00.121-.128l-2.242-1.993zm19.92 26.32c-.144 0-.161-.02-.098.002a.869.869 0 01.299.197l-4.242 4.242c1.166 1.166 2.659 1.559 4.041 1.559v-6zm.265.264l.019.024a.21.21 0 01.019.035c.005.01.006.015.005.01a.228.228 0 01-.009-.05l-5.958.714c.15 1.25.653 2.422 1.554 3.38l4.37-4.113zm.046.146c-.001-.015.007.07-.038.209a.98.98 0 01-.208.357l-4.37-4.112c-1.076 1.143-1.476 2.58-1.366 4.006l5.982-.46zm-.25.57a.544.544 0 01-.262.13l-.478-5.98a5.507 5.507 0 00-3.622 1.73l4.362 4.12zm-.221.127a8.92 8.92 0 001.604-.282c.477-.137 1.183-.397 1.803-.955l-4.014-4.46c.193-.173.362-.265.445-.306.087-.041.134-.053.118-.049a1.49 1.49 0 01-.153.032c-.091.016-.21.032-.363.046l.56 5.974zm3.521-1.346c1.175-1.175 1.279-2.779 1.279-3.641h-6c0 .215-.021.253-.001.176.018-.07.119-.417.48-.777l4.242 4.242zm1.279-3.641v-6.4h-6v6.4h6zm-3-9.4h-11.28v6h11.28v-6zm-11.28 0c-.036 0 .043-.005.187.05.156.06.317.165.446.303l-4.386 4.094c1.061 1.137 2.45 1.553 3.753 1.553v-6zm.698.424a.8.8 0 01.182.456h-6a5.23 5.23 0 001.302 3.495l4.516-3.95zm.182.456a.772.772 0 01-.054.252.97.97 0 01-.193.315l-4.386-4.094c-.932.998-1.367 2.24-1.367 3.527h6zm-.182.495a1.236 1.236 0 01-.449.32c-.162.067-.263.065-.249.065v-6c-1.364 0-2.773.47-3.818 1.664l4.516 3.951zm-.698.385h11.28v-6h-11.28v6zm14.28-3v-3.16h-6v3.16h6zm-3-6.16h-12.4v6h12.4v-6zm-12.4 0c-.043 0 .134-.007.385.143.27.16.409.373.456.474l-5.442 2.526c.394.848 1.019 1.62 1.916 2.154.878.524 1.821.703 2.685.703v-6zm-4.88 1.88v8.92h6v-8.92h-6zm0 8.92c0 1.227-.159 1.866-.273 2.127l5.506 2.386c.58-1.339.767-2.913.767-4.513h-6zm-.292 2.173c-.003.008-.001.002.009-.014a.25.25 0 01.038-.044c.013-.012.018-.014.008-.008a.608.608 0 01-.096.044l2.106 5.618c1.555-.583 2.811-1.688 3.479-3.302l-5.544-2.294zm.037-.05c-.386.133-1.222.277-2.705.277v6c1.717 0 3.334-.149 4.655-.603l-1.95-5.674zm-2.705.277c-1.476 0-2.341-.143-2.771-.286l-1.898 5.692c1.33.443 2.945.594 4.669.594v-6zm-2.667-.249a.73.73 0 01-.109-.05l-.014-.009a.09.09 0 01.015.017c.004.005.001.002-.007-.016l-5.476 2.454c.701 1.563 1.944 2.644 3.485 3.222l2.106-5.618zm-.068.055c-.116-.29-.265-.961-.265-2.206h-6c0 1.582.171 3.125.695 4.434l5.57-2.228zm-.265-2.206V13h-6v15.56h6zm0-15.56c0-1.254.152-1.89.252-2.133l-5.544-2.294c-.54 1.304-.708 2.854-.708 4.427h6zm.233-2.087c.011-.027.018-.036.017-.034l-.013.014c-.006.006-.007.005.004-.002a.624.624 0 01.092-.042l-2.106-5.618c-1.577.591-2.813 1.712-3.5 3.296l5.506 2.386zm.072-.054c.399-.145 1.233-.299 2.695-.299v-6c-1.738 0-3.384.166-4.745.66l2.05 5.64zm2.695-.299c1.47 0 2.273.156 2.627.289l2.106-5.618c-1.353-.507-3.003-.671-4.733-.671v6zm2.627.289a.51.51 0 01.079.036.033.033 0 01-.002-.001l-.015-.014a.517.517 0 01-.035-.041l-.005-.008.006.013 5.57-2.228c-.653-1.633-1.9-2.778-3.492-3.375l-2.106 5.618zm.075.098c.096.213.258.817.258 2.053h6c0-1.59-.185-3.173-.782-4.507l-5.476 2.454zM174.56 13v4.72h6V13h-6zm5.721 5.983a1.173 1.173 0 01-.456.474c-.251.15-.428.143-.385.143v-6c-.864 0-1.807.18-2.685.703-.897.534-1.522 1.306-1.916 2.154l5.442 2.526zm-.841.617h7.44v-6h-7.44v6zm10.44-3v-3.56h-6v3.56h6zm-3-6.56h-5.8v6h5.8v-6zm-5.8 0c.022 0 .136.004.297.07.169.068.314.173.416.283l-4.386 4.094c1.012 1.085 2.339 1.553 3.673 1.553v-6zm.713.353c.057.061.13.163.183.3a.874.874 0 01.064.307h-6c0 1.3.462 2.517 1.367 3.487l4.386-4.094zm.247.607a.84.84 0 01-.064.287 1.155 1.155 0 01-.255.394l-4.242-4.242c-1.001 1-1.439 2.276-1.439 3.561h6zm-.247.607c-.102.11-.247.215-.416.283a.846.846 0 01-.297.07v-6c-1.334 0-2.661.468-3.673 1.553l4.386 4.094zm-.713.353h5.8v-6h-5.8v6zm8.8-3V6.4h-6v2.56h6zm0-2.56c0-.071.011-.028-.032.081a.947.947 0 01-.232.344l-4.112-4.37c-1.174 1.106-1.624 2.55-1.624 3.945h6zm-.26.421a.555.555 0 01-.167.099.523.523 0 01-.173.04v-6a5.417 5.417 0 00-3.78 1.499l4.12 4.362zm-.34.139c.016 0-.047.002-.153-.04a.746.746 0 01-.248-.159l4.242-4.242C192.057 1.454 190.697.96 189.28.96v6zm-.273-.078a.963.963 0 01-.244-.346c-.051-.125-.043-.188-.043-.136h6c0-1.45-.5-2.912-1.727-4.002l-3.986 4.484zm-.287-.482v2.56h6V6.4h-6zm3 5.56h6.44v-6h-6.44v6zm6.44 0c.01 0-.101.001-.277-.07a1.366 1.366 0 01-.51-.365l4.534-3.93c-1.035-1.194-2.436-1.635-3.747-1.635v6zm-.641-.279c-.1-.1-.194-.236-.255-.394A.84.84 0 01197.2 11h6c0-1.285-.438-2.56-1.439-3.561l-4.242 4.242zM197.2 11c0-.06.011-.171.064-.307a.947.947 0 01.183-.3l4.386 4.094A5.035 5.035 0 00203.2 11h-6zm.173-.525c.139-.16.32-.288.51-.365.176-.071.287-.07.277-.07v6c1.311 0 2.712-.441 3.747-1.635l-4.534-3.93zm.787-.435h-6.44v6h6.44v-6zm-9.44 3v3.56h6v-3.56h-6zm3 6.56h8.2v-6h-8.2v6zm8.2 0c.008 0-.088 0-.242-.06a1.209 1.209 0 01-.431-.293l4.386-4.094c-1.038-1.112-2.395-1.553-3.713-1.553v6zm-.673-.353a.97.97 0 01-.193-.315.772.772 0 01-.054-.252h6c0-1.287-.435-2.529-1.367-3.527l-4.386 4.094zM199 18.68c0-.029.006-.123.054-.252a.97.97 0 01.193-.315l4.386 4.094c.932-.998 1.367-2.24 1.367-3.527h-6zm.247-.567c.116-.124.268-.229.431-.293.154-.06.25-.06.242-.06v6c1.318 0 2.675-.441 3.713-1.553l-4.386-4.094zm.673-.353h-3.48v6h3.48v-6zm-6.48 3v3.16h6v-3.16h-6zm3 6.16h3.12v-6h-3.12v6zm3.12 0c.014 0-.087.002-.249-.065a1.236 1.236 0 01-.449-.32l4.516-3.95c-1.045-1.195-2.454-1.665-3.818-1.665v6zm-.633-.313a.97.97 0 01-.193-.315.772.772 0 01-.054-.252h6c0-1.287-.435-2.529-1.367-3.527l-4.386 4.094zm-.247-.567a.8.8 0 01.182-.456l4.516 3.951a5.234 5.234 0 001.302-3.495h-6zm.247-.527c.129-.139.29-.243.446-.303.144-.055.223-.05.187-.05v6c1.303 0 2.692-.416 3.753-1.553l-4.386-4.094zm.633-.353h-3.12v6h3.12v-6zm-6.12 3v7.4h6v-7.4h-6zm0 7.4c0 1.628-.405 2.138-.552 2.273l4.064 4.414c1.88-1.731 2.488-4.208 2.488-6.687h-6zm-.552 2.273c-.224.206-.91.607-2.688.607v6c2.488 0 4.949-.532 6.752-2.193l-4.064-4.414zm-6.246-4.666a17.46 17.46 0 00-1.115-1.12l-4.094 4.386c.372.347.601.581.725.72l4.484-3.986zm-1.041-1.048a50.565 50.565 0 00-1.274-1.232l-4.094 4.386c.374.35.749.712 1.126 1.088l4.242-4.242zm-1.274-1.232c-.407-.38-.748-.692-1.014-.93l-3.986 4.485c.214.19.513.465.906.831l4.094-4.386zm-1.022-.936a.9.9 0 01.206.285.847.847 0 01.086.314l-5.994.26a5.063 5.063 0 001.732 3.64l3.97-4.5zm.295.729a.676.676 0 01-.055.234.85.85 0 01-.184.287l-4.242-4.242c-1.026 1.026-1.519 2.339-1.519 3.721h6zm-.179.46a.608.608 0 01-.184.123.583.583 0 01-.197.055l-.24-5.996a5.355 5.355 0 00-3.741 1.698l4.362 4.12zm-.262.17a.703.703 0 01-.267-.04.644.644 0 01-.212-.114l4-4.472a5.265 5.265 0 00-3.999-1.354l.478 5.98zm-.455-.132c.138.12.376.344.735.703l4.242-4.242a22.044 22.044 0 00-1.025-.977l-3.952 4.516zm.891.85c.4.346.8.692 1.2 1.04l3.93-4.535-1.2-1.04-3.93 4.534zm1.2 1.04a7.3 7.3 0 01.587.547l4.516-3.95a12.43 12.43 0 00-1.173-1.132l-3.93 4.534zm.724.693l.023.026a.355.355 0 01-.052-.148l5.98-.478c-.114-1.43-.737-2.67-1.709-3.642l-4.242 4.242zm-.029-.112a1.02 1.02 0 01.07-.442c.06-.152.128-.218.119-.208l4.242 4.242c1.05-1.05 1.684-2.462 1.549-4.09l-5.98.498zm.189-.65a.63.63 0 01.193-.126c.08-.034.122-.032.093-.03l.23 5.995c1.381-.053 2.692-.563 3.726-1.597L185.679 33zm.281-.157a.832.832 0 01.326.067.859.859 0 01.295.191l-4.362 4.12a5.092 5.092 0 003.981 1.618l-.24-5.996zm-14.36-.082a6.42 6.42 0 001.548-.17c.502-.125 1.327-.417 1.99-1.175l-4.516-3.95c.246-.281.503-.45.685-.545a1.8 1.8 0 01.385-.15c.114-.029.108-.01-.092-.01v6zm3.401-1.199c.691-.69.941-1.51 1.048-1.99A7.33 7.33 0 00176.2 28h-6c0 .255-.02.323-.009.27.008-.033.034-.143.105-.297.071-.153.209-.4.463-.654l4.242 4.242zM176.2 28v-5.2h-6V28h6zm-3-8.2h-3.24v6h3.24v-6zm-6.24 3V28h6v-5.2h-6zm0 5.2c0 .492.033 1.038.151 1.57.107.481.357 1.3 1.048 1.991l4.242-4.242c.254.253.392.5.463.654.071.154.097.264.105.296.011.054-.009-.014-.009-.269h-6zm1.199 3.561c.644.645 1.398.912 1.904 1.035a6.555 6.555 0 001.537.164v-6c-.196 0-.215-.018-.123.005a1.6 1.6 0 01.325.12c.156.077.376.21.599.434l-4.242 4.242zm1.801-9.961h3.24v-6h-3.24v6zm6.24-3v-5.04h-6v5.04h6zm0-5.04a7.33 7.33 0 00-.151-1.57c-.107-.481-.357-1.3-1.048-1.991l-4.242 4.242a2.29 2.29 0 01-.463-.654c-.071-.154-.097-.264-.105-.296-.011-.053.009.014.009.269h6zm-.952-3.282c-.63-.81-1.456-1.159-2.016-1.316a6.044 6.044 0 00-1.632-.202v6c.182 0 .156.02.008-.022-.133-.037-.652-.206-1.096-.776l4.736-3.684zM171.6 8.76c-.489 0-1.053.041-1.619.196-.556.151-1.319.47-1.943 1.17l4.484 3.987c-.41.462-.847.6-.963.631-.125.035-.137.016.041.016v-6zm-3.441 1.239c-.691.69-.941 1.51-1.048 1.99a7.33 7.33 0 00-.151 1.571h6c0-.255.02-.322.009-.27-.008.033-.034.143-.105.297a2.29 2.29 0 01-.463.654L168.159 10zm-1.199 3.561v5.04h6v-5.04h-6zm44.88 25.08l.474 2.962c.046-.007.092-.015.138-.025l-.612-2.937zm-1.8-.4l1.72-2.458-1.72 2.458zm-1-1.52l-2.954.521.017.09 2.937-.611zm-.56-4.72l-2.992.22v.003L208.48 32zm-.04-11.76l2.996.158-2.996-.158zm.48-5.8l-2.976-.383-.004.037 2.98.346zm.84-5l2.931.64.006-.028-2.937-.612zm1.04-1.48l1.579 2.55a1.52 1.52 0 00.085-.054L210.8 7.96zm1.8-.36l.728-2.91a3.164 3.164 0 00-.116-.027L212.6 7.6zm1.48 1.08l-2.551 1.58c.03.047.061.094.093.14l2.458-1.72zm.36 1.8l2.927.66.015-.072-2.942-.588zm-1.48 12.92l-2.998-.105-.001.034 2.999.071zm.12 6.64l-2.994.185v.002l2.994-.187zm.68 5.84l-2.952.537.015.075 2.937-.612zm-.4 1.76l-2.4-1.8-.058.08 2.458 1.72zm7.12-3.04l-1.794 2.405.018.013 1.776-2.418zm-3.04-5.52l2.97-.424a1.618 1.618 0 00-.011-.07l-2.959.494zm.4-1.76l-2.4-1.8-.058.08 2.458 1.72zm1.6-.96l-.372-2.977-.102.015.474 2.962zm1.76.48l-1.8 2.4.08.058 1.72-2.458zm.96 1.56l2.971-.415-.009-.059-2.962.474zm1.64 2.56l1.543-2.573-1.543 2.573zm11.8-.08l.636 2.932.092-.022-.728-2.91zm1.8.32l-1.664 2.496L237.4 31.2zm1.04 1.52l-2.937.612 2.937-.612zm-.36 1.8l2.458 1.72.038-.056-2.496-1.664zm-1.52 1.04l.702 2.917.026-.007-.728-2.91zm-4.32.72l-.277-2.987h-.005l.282 2.987zm-11.32-19.6l-.568-2.946-.044.01.612 2.936zm-1.8-.32l-1.72 2.458c.046.032.093.063.141.093l1.579-2.551zm-1-1.56l2.942-.588-.005-.024-2.937.612zm.32-1.8l-2.496-1.664a2.932 2.932 0 00-.055.085L218.44 13zm1.56-1l.474 2.962c.035-.005.07-.011.104-.018L220 12zm5-.56l.13 2.997.044-.002L225 11.44zm5.48-.04l-.132 2.997.044.002.088-2.999zm4.8.44l-.512 2.956.038.006.474-2.962zm1.56 1l-2.496 1.664.038.056 2.458-1.72zm.36 1.8l-2.942-.588a4.41 4.41 0 00-.02.114l2.962.474zm-1 1.56l1.635 2.515.029-.019L236.2 16.2zm-1.76.36l-.511 2.956.018.003.493-2.959zm-6.72-.52v3h.034l-.034-3zm-16.354 19.638a.654.654 0 01.175.014.64.64 0 01.219.09l-3.44 4.916c1.197.838 2.59 1.129 3.994.904l-.948-5.924zm.394.104c.021.015.08.063.136.15a.547.547 0 01.081.176l-5.874 1.224a5.383 5.383 0 002.217 3.366l3.44-4.916zm.234.417c-.218-1.238-.394-2.708-.522-4.422l-5.984.446c.139 1.86.336 3.536.598 5.018l5.908-1.042zm-.522-4.419a74.8 74.8 0 01-.192-5.5h-6c0 2.066.069 4.047.208 5.94l5.984-.44zm-.192-5.5c0-1.947.052-3.907.156-5.882l-5.992-.316a118.327 118.327 0 00-.164 6.198h6zm.156-5.882c.104-1.97.259-3.84.464-5.612l-5.96-.691a96.164 96.164 0 00-.496 5.987l5.992.316zm.46-5.575a55.95 55.95 0 01.795-4.744L206.829 8.8a61.842 61.842 0 00-.885 5.257l5.952.766zm.801-4.771a.774.774 0 01-.122.263.731.731 0 01-.196.196l-3.158-5.102a5.204 5.204 0 00-2.398 3.42l5.874 1.223zm-.233.404a.615.615 0 01-.206.076.706.706 0 01-.27.005l1.224-5.874c-1.453-.303-2.869-.004-4.076.8l3.328 4.993zm-.592.054a.607.607 0 01-.19-.097.624.624 0 01-.153-.154l5.102-3.158a5.349 5.349 0 00-3.303-2.411l-1.456 5.82zm-.25-.11a.796.796 0 01-.124-.508l5.884 1.176c.286-1.43.022-2.871-.844-4.108l-4.916 3.44zm-.109-.58a58.19 58.19 0 00-1.056 6.497l5.966.646c.229-2.116.545-4.056.944-5.824l-5.854-1.319zm-1.056 6.497a95.466 95.466 0 00-.495 6.978l5.996.21c.078-2.223.233-4.403.465-6.542l-5.966-.646zm-.496 7.012a81.015 81.015 0 00.125 6.896l5.988-.37a75.103 75.103 0 01-.115-6.384l-5.998-.142zm.125 6.898c.139 2.229.378 4.294.722 6.19l5.904-1.074c-.296-1.624-.51-3.452-.638-5.49l-5.988.374zm.737 6.265a.88.88 0 01.012-.357c.036-.16.1-.261.125-.295l4.8 3.6c.905-1.207 1.25-2.67.937-4.172l-5.874 1.224zm.079-.572a.587.587 0 01.149-.136.558.558 0 01.177-.08l1.224 5.873a5.386 5.386 0 003.366-2.217l-4.916-3.44zm17.338-2.44c-3.2 0-5.028-.596-5.984-1.298l-3.552 4.836c2.457 1.804 5.803 2.462 9.536 2.462v-6zm-5.966-1.285c-.932-.695-1.61-1.758-1.864-3.54l-5.94.85c.439 3.072 1.788 5.688 4.216 7.5l3.588-4.81zm-1.875-3.608a.633.633 0 01-.014.238.657.657 0 01-.087.215l-4.916-3.44a5.296 5.296 0 00-.901 3.973l5.918-.986zm-.159.533a.569.569 0 01-.157.133.525.525 0 01-.169.07l-.948-5.925a5.401 5.401 0 00-3.526 2.122l4.8 3.6zm-.428.217a.655.655 0 01-.241-.023.55.55 0 01-.171-.074l3.6-4.8c-1.132-.849-2.492-1.237-3.932-1.057l.744 5.954zm-.332-.04a.744.744 0 01-.195-.215.63.63 0 01-.087-.208l5.924-.948c-.229-1.435-.976-2.685-2.202-3.544l-3.44 4.916zm-.291-.482c.276 1.979 1.301 3.658 3.068 4.717l3.086-5.144c-.099-.06-.121-.098-.127-.106-.009-.014-.056-.09-.085-.297l-5.942.83zm3.068 4.717c1.662.998 3.876 1.268 6.103 1.268v-6c-1.986 0-2.813-.29-3.017-.413l-3.086 5.145zm6.103 1.268c2.285 0 4.924-.348 7.876-.988l-1.272-5.864c-2.702.586-4.889.852-6.604.852v6zm7.968-1.01a.81.81 0 01-.323.004.742.742 0 01-.269-.098l3.328-4.992c-1.247-.832-2.713-1.104-4.192-.734l1.456 5.82zm-.592-.094a.67.67 0 01-.233-.364l5.874-1.224c-.299-1.436-1.119-2.608-2.313-3.404l-3.328 4.992zm-.233-.364a.721.721 0 01.081-.476l4.992 3.328c.805-1.207 1.104-2.623.801-4.076l-5.874 1.224zm.119-.532a.452.452 0 01.104-.096.378.378 0 01.106-.054l1.456 5.82a5.55 5.55 0 003.25-2.23l-4.916-3.44zm.236-.157c-1.304.314-2.601.53-3.895.65l.554 5.974a33.422 33.422 0 004.745-.79l-1.404-5.834zm-3.9.65c-1.331.126-2.57.187-3.718.187v6c1.359 0 2.787-.072 4.282-.213l-.564-5.974zm-11.65-19.55a.583.583 0 01.207.003.554.554 0 01.184.063l-3.158 5.102a5.379 5.379 0 003.991.706l-1.224-5.874zm.532.16c.037.025.1.081.156.168.054.085.066.144.066.14l-5.884 1.177c.278 1.387 1.025 2.592 2.222 3.43l3.44-4.916zm.217.285a.581.581 0 01-.003.207.583.583 0 01-.063.184l-5.102-3.158a5.382 5.382 0 00-.706 3.99l5.874-1.223zm-.121.476a.72.72 0 01-.207.192.72.72 0 01-.255.106l-.948-5.924a5.22 5.22 0 00-3.582 2.298l4.992 3.328zm-.358.28c1.319-.26 2.833-.432 4.552-.507l-.26-5.994c-1.961.085-3.78.286-5.448.613l1.156 5.888zm4.596-.509a51.09 51.09 0 015.174-.038l.264-5.994a56.726 56.726 0 00-5.786.042l.348 5.99zm5.218-.036c1.709.05 3.163.187 4.376.397l1.024-5.912c-1.56-.27-3.307-.426-5.224-.483l-.176 5.998zm4.414.403a.72.72 0 01-.255-.106.72.72 0 01-.207-.192l4.992-3.328a5.22 5.22 0 00-3.582-2.298l-.948 5.924zm-.424-.242a.796.796 0 01-.124-.508l5.884 1.176c.286-1.43.022-2.871-.844-4.108l-4.916 3.44zm-.144-.394a.7.7 0 01.106-.255.732.732 0 01.192-.207l3.328 4.992a5.217 5.217 0 002.298-3.582l-5.924-.948zm.327-.481a.594.594 0 01.194-.074.523.523 0 01.174-.01l-.986 5.918a5.396 5.396 0 003.888-.804l-3.27-5.03zm.386-.081a39.899 39.899 0 00-7.265-.564l.068 6a33.902 33.902 0 016.175.476l1.022-5.912zm-7.231-.564c-2.505 0-4.962.23-7.368.694l1.136 5.892a32.84 32.84 0 016.232-.586v-6z" fill="#EB537B" mask="url(#b)"/><defs><linearGradient id="paint0_linear_10944_61148" x1="3" y1="1" x2="230.482" y2="77.988" gradientUnits="userSpaceOnUse"><stop stop-color="#FFF9EC"/><stop offset=".507" stop-color="#FFE9B8"/><stop offset="1" stop-color="#FFF9EA"/></linearGradient></defs></svg>