<svg width="131" height="25" fill="none" xmlns="http://www.w3.org/2000/svg"><mask id="a" maskUnits="userSpaceOnUse" x="0" y="0" width="131" height="25" fill="#000"><path fill="#fff" d="M0 0h131v25H0z"/><path d="M4.33 20.56a1.326 1.326 0 01-1.804-.638 1.335 1.335 0 01-.066-1.034 1.36 1.36 0 01.682-.77c2.097-1.012 3.96-2.23 5.588-3.652 1.643-1.437 2.977-2.992 4.004-4.664.645-1.056.293-1.584-1.056-1.584H5.672a1.29 1.29 0 01-.946-.396 1.365 1.365 0 01-.396-.968c0-.381.132-.704.396-.968s.58-.396.946-.396h6.094c1.32 0 2.332.242 3.036.726.704.47 1.085 1.115 1.144 1.936.073.821-.198 1.767-.814 2.838a13.513 13.513 0 01-1.166 1.76 37.68 37.68 0 012.068 1.848c.719.66 1.386 1.305 2.002 1.936a79.81 79.81 0 011.584 1.584c.25.264.374.587.374.968s-.14.704-.418.968a1.317 1.317 0 01-.968.396 1.397 1.397 0 01-.968-.418c-.396-.41-.895-.924-1.496-1.54a78.16 78.16 0 00-1.914-1.936 35.886 35.886 0 00-1.958-1.826 30.213 30.213 0 01-3.74 3.278A25.72 25.72 0 014.33 20.56zm32.956-.242c-2.713.455-4.92.645-6.622.572-1.687-.088-2.955-.484-3.806-1.188a3.89 3.89 0 01-1.298-1.958c-.22-.792-.33-1.767-.33-2.926V5.886c0-.381.132-.704.396-.968.279-.264.601-.396.968-.396.381 0 .704.132.968.396s.396.587.396.968v4.862c1.188-.293 2.42-.63 3.696-1.012 1.29-.396 2.45-.792 3.476-1.188.381-.147.74-.14 1.078.022.337.147.572.396.704.748s.117.704-.044 1.056a1.187 1.187 0 01-.748.704c-1.247.455-2.596.88-4.048 1.276s-2.823.74-4.114 1.034v1.43c0 .865.059 1.489.176 1.87.132.367.337.66.616.88.337.25.821.433 1.452.55.63.103 1.481.117 2.552.044 1.085-.073 2.464-.25 4.136-.528.367-.073.697.007.99.242.308.22.491.52.55.902.059.367-.022.697-.242.99a1.42 1.42 0 01-.902.55zm2.2-10.252a2.172 2.172 0 01-1.562-.638 2.198 2.198 0 01-.638-1.584c0-.616.213-1.137.638-1.562.44-.44.96-.66 1.562-.66.616 0 1.137.22 1.562.66.44.425.66.946.66 1.562a2.16 2.16 0 01-.66 1.584 2.124 2.124 0 01-1.562.638zm0-1.276a.971.971 0 00.682-.264.931.931 0 00.286-.682.86.86 0 00-.286-.66.931.931 0 00-.682-.286.931.931 0 00-.682.286.895.895 0 00-.264.66c0 .264.088.491.264.682a.97.97 0 00.682.264zm6.952 5.302c-.367 0-.69-.132-.968-.396a1.365 1.365 0 01-.396-.968c0-.381.132-.704.396-.968.279-.264.601-.396.968-.396h13.706c.381 0 .704.132.968.396s.396.587.396.968c0 .367-.132.69-.396.968a1.317 1.317 0 01-.968.396H46.438zm24.64 7.876a1.26 1.26 0 01-.946-.418 1.291 1.291 0 01-.396-.946V5.402c0-.381.132-.697.396-.946.264-.264.58-.396.946-.396.381 0 .704.132.968.396.264.25.396.565.396.946v5.302c.19-.293.455-.484.792-.572a1.24 1.24 0 01.99.11 31.9 31.9 0 012.64 1.562c.91.572 1.694 1.137 2.354 1.694.293.235.455.55.484.946.044.381-.059.719-.308 1.012-.235.279-.543.44-.924.484a1.393 1.393 0 01-1.012-.308c-.41-.323-.887-.667-1.43-1.034a37.733 37.733 0 00-1.606-1.056 23.802 23.802 0 00-1.452-.902 1.415 1.415 0 01-.528-.484v8.448c0 .367-.132.682-.396.946a1.282 1.282 0 01-.968.418zm8.58-12.364c-.19.161-.425.227-.704.198a.883.883 0 01-.638-.374 14.97 14.97 0 00-.594-.814c-.25-.323-.477-.601-.682-.836a.822.822 0 01-.176-.594.82.82 0 01.308-.594.775.775 0 01.594-.22.98.98 0 01.616.264c.22.19.47.447.748.77.279.308.513.587.704.836.161.22.22.462.176.726a.969.969 0 01-.352.638zm2.134-1.87a.886.886 0 01-.704.264.835.835 0 01-.638-.33 53.28 53.28 0 00-1.386-1.54.917.917 0 01-.242-.572c0-.235.095-.447.286-.638a.782.782 0 01.572-.242.921.921 0 01.638.198c.22.176.484.41.792.704.308.293.565.565.77.814.161.19.235.418.22.682a.994.994 0 01-.308.66zm9.856 15.092c-1.481 0-2.515-.257-3.102-.77-.587-.499-.88-1.327-.88-2.486v-1.386c0-.983.198-1.716.594-2.2-.425.235-.85.462-1.276.682-.425.22-.843.418-1.254.594-.352.147-.69.19-1.012.132-.323-.059-.572-.25-.748-.572-.161-.337-.183-.645-.066-.924.117-.293.337-.506.66-.638a32.75 32.75 0 002.816-1.254 26.349 26.349 0 002.75-1.584h-4.818c-.293 0-.528-.095-.704-.286a1.022 1.022 0 01-.242-.682.94.94 0 01.242-.66c.176-.19.41-.286.704-.286h3.542a13.517 13.517 0 00-.33-.55 4.586 4.586 0 01-.198-.33.793.793 0 01-.154-.462c0-.161.03-.315.088-.462a1.285 1.285 0 01-.22-.616c-.015-.323.08-.565.286-.726.205-.176.47-.264.792-.264.733 0 1.54-.022 2.42-.066.88-.044 1.775-.103 2.684-.176a61.9 61.9 0 002.618-.264c.85-.103 1.613-.22 2.288-.352.323-.059.601-.03.836.088a.737.737 0 01.462.55c.161.587 0 .975-.484 1.166.279.147.462.36.55.638.103.264.073.535-.088.814a8.083 8.083 0 01-.242.44c-.103.176-.213.367-.33.572h3.718c.293 0 .521.095.682.286a.895.895 0 01.264.66.971.971 0 01-.264.682c-.161.19-.389.286-.682.286h-4.708a29.02 29.02 0 002.816 1.584 32.17 32.17 0 002.618 1.166c.323.132.543.345.66.638.117.279.103.572-.044.88a1.12 1.12 0 01-.77.638 1.677 1.677 0 01-1.034-.11l-1.188-.55a31.19 31.19 0 01-1.21-.638c.367.499.55 1.217.55 2.156v1.386c0 1.159-.293 1.987-.88 2.486-.587.513-1.62.77-3.102.77h-5.61zM86.06 9.054c-.352 0-.653-.11-.902-.33-.25-.235-.374-.543-.374-.924v-.44c0-1.144.286-1.958.858-2.442.587-.484 1.562-.726 2.926-.726H93.1v-.836c0-.381.14-.697.418-.946.279-.264.601-.396.968-.396.381 0 .704.132.968.396.279.25.418.565.418.946v.836h4.444c1.379 0 2.354.242 2.926.726.587.484.88 1.298.88 2.442v.44c0 .381-.125.69-.374.924-.249.22-.55.33-.902.33s-.653-.103-.902-.308c-.249-.205-.374-.499-.374-.88v-.528c0-.455-.103-.763-.308-.924-.191-.176-.557-.264-1.1-.264H88.744c-.543 0-.917.088-1.122.264-.205.161-.308.47-.308.924v.528c0 .381-.125.675-.374.88-.235.205-.528.308-.88.308zm9.68 1.452h1.562c.147-.279.323-.616.528-1.012.205-.41.367-.726.484-.946a.277.277 0 01.066-.11.957.957 0 00.066-.11c-.41.059-.85.117-1.32.176-.455.059-.917.117-1.386.176v1.826zm-6.05 4.642c.528-.132 1.18-.198 1.958-.198h1.628v-2.442c-.47.425-1.012.865-1.628 1.32-.616.455-1.269.895-1.958 1.32zM91.89 21h1.386v-1.276H90.24c.015.543.132.895.352 1.056.22.147.653.22 1.298.22zm7.238-5.874c-.63-.396-1.24-.807-1.826-1.232a25.289 25.289 0 01-1.562-1.298v2.354h1.518c.381 0 .726.015 1.034.044.308.015.587.059.836.132zm-7.7-4.62h1.848V8.9l-1.386.088c-.455.015-.902.037-1.342.066a15.812 15.812 0 01.88 1.452zm-1.188 7.502h3.036v-1.232H91.89c-.63 0-1.056.073-1.276.22-.22.147-.345.484-.374 1.012zM95.74 21h1.276c.645 0 1.078-.073 1.298-.22.22-.161.337-.513.352-1.056H95.74V21zm0-2.992h2.926c-.015-.528-.132-.865-.352-1.012-.22-.147-.653-.22-1.298-.22H95.74v1.232zm12.76 4.202a.961.961 0 01-.726-.33.994.994 0 01-.308-.726c0-.279.103-.52.308-.726a.992.992 0 01.726-.308h3.278v-5.302c0-.895.125-1.591.374-2.09.249-.499.675-.85 1.276-1.056.601-.205 1.415-.308 2.442-.308h.594V8.262A24.155 24.155 0 01114.286 10a36.89 36.89 0 01-2.508 1.628 41.53 41.53 0 01-2.42 1.32 1.775 1.775 0 01-1.1.132c-.367-.088-.638-.315-.814-.682a1.253 1.253 0 01-.066-.946c.117-.323.337-.557.66-.704.689-.323 1.43-.697 2.222-1.122a46.61 46.61 0 002.332-1.386 27.838 27.838 0 002.068-1.408h-6.006a.992.992 0 01-.726-.308 1.11 1.11 0 01-.286-.748c0-.293.095-.535.286-.726a.992.992 0 01.726-.308h7.81V3.51c0-.381.125-.69.374-.924.249-.235.557-.352.924-.352.352 0 .653.117.902.352.264.235.396.543.396.924v1.232h7.788a.95.95 0 01.726.308c.205.19.308.433.308.726 0 .279-.103.528-.308.748a.949.949 0 01-.726.308h-5.94a29.2 29.2 0 002.068 1.43c.763.47 1.54.917 2.332 1.342a53.7 53.7 0 002.244 1.122c.323.132.543.367.66.704.117.323.095.645-.066.968a1.188 1.188 0 01-.836.682 1.615 1.615 0 01-1.078-.11 29.68 29.68 0 01-2.464-1.32 36.206 36.206 0 01-2.53-1.694 27.02 27.02 0 01-2.178-1.76v3.168h.594c1.041 0 1.855.103 2.442.308.587.205 1.005.557 1.254 1.056.249.499.374 1.195.374 2.09v5.302h3.278a.95.95 0 01.726.308c.191.205.286.447.286.726 0 .279-.095.52-.286.726a.92.92 0 01-.726.33H108.5zm5.852-2.09h6.798v-1.078h-6.798v1.078zm0-2.86h6.798v-1.034h-6.798v1.034zm.022-2.816h6.754c-.044-.41-.176-.682-.396-.814-.22-.147-.579-.22-1.078-.22h-3.784c-.499 0-.865.073-1.1.22-.22.132-.352.403-.396.814z"/></mask><path d="M4.33 20.56a1.326 1.326 0 01-1.804-.638 1.335 1.335 0 01-.066-1.034 1.36 1.36 0 01.682-.77c2.097-1.012 3.96-2.23 5.588-3.652 1.643-1.437 2.977-2.992 4.004-4.664.645-1.056.293-1.584-1.056-1.584H5.672a1.29 1.29 0 01-.946-.396 1.365 1.365 0 01-.396-.968c0-.381.132-.704.396-.968s.58-.396.946-.396h6.094c1.32 0 2.332.242 3.036.726.704.47 1.085 1.115 1.144 1.936.073.821-.198 1.767-.814 2.838a13.513 13.513 0 01-1.166 1.76 37.68 37.68 0 012.068 1.848c.719.66 1.386 1.305 2.002 1.936a79.81 79.81 0 011.584 1.584c.25.264.374.587.374.968s-.14.704-.418.968a1.317 1.317 0 01-.968.396 1.397 1.397 0 01-.968-.418c-.396-.41-.895-.924-1.496-1.54a78.16 78.16 0 00-1.914-1.936 35.886 35.886 0 00-1.958-1.826 30.213 30.213 0 01-3.74 3.278A25.72 25.72 0 014.33 20.56zm32.956-.242c-2.713.455-4.92.645-6.622.572-1.687-.088-2.955-.484-3.806-1.188a3.89 3.89 0 01-1.298-1.958c-.22-.792-.33-1.767-.33-2.926V5.886c0-.381.132-.704.396-.968.279-.264.601-.396.968-.396.381 0 .704.132.968.396s.396.587.396.968v4.862c1.188-.293 2.42-.63 3.696-1.012 1.29-.396 2.45-.792 3.476-1.188.381-.147.74-.14 1.078.022.337.147.572.396.704.748s.117.704-.044 1.056a1.187 1.187 0 01-.748.704c-1.247.455-2.596.88-4.048 1.276s-2.823.74-4.114 1.034v1.43c0 .865.059 1.489.176 1.87.132.367.337.66.616.88.337.25.821.433 1.452.55.63.103 1.481.117 2.552.044 1.085-.073 2.464-.25 4.136-.528.367-.073.697.007.99.242.308.22.491.52.55.902.059.367-.022.697-.242.99a1.42 1.42 0 01-.902.55zm2.2-10.252a2.172 2.172 0 01-1.562-.638 2.198 2.198 0 01-.638-1.584c0-.616.213-1.137.638-1.562.44-.44.96-.66 1.562-.66.616 0 1.137.22 1.562.66.44.425.66.946.66 1.562a2.16 2.16 0 01-.66 1.584 2.124 2.124 0 01-1.562.638zm0-1.276a.971.971 0 00.682-.264.931.931 0 00.286-.682.86.86 0 00-.286-.66.931.931 0 00-.682-.286.931.931 0 00-.682.286.895.895 0 00-.264.66c0 .264.088.491.264.682a.97.97 0 00.682.264zm6.952 5.302c-.367 0-.69-.132-.968-.396a1.365 1.365 0 01-.396-.968c0-.381.132-.704.396-.968.279-.264.601-.396.968-.396h13.706c.381 0 .704.132.968.396s.396.587.396.968c0 .367-.132.69-.396.968a1.317 1.317 0 01-.968.396H46.438zm24.64 7.876a1.26 1.26 0 01-.946-.418 1.291 1.291 0 01-.396-.946V5.402c0-.381.132-.697.396-.946.264-.264.58-.396.946-.396.381 0 .704.132.968.396.264.25.396.565.396.946v5.302c.19-.293.455-.484.792-.572a1.24 1.24 0 01.99.11 31.9 31.9 0 012.64 1.562c.91.572 1.694 1.137 2.354 1.694.293.235.455.55.484.946.044.381-.059.719-.308 1.012-.235.279-.543.44-.924.484a1.393 1.393 0 01-1.012-.308c-.41-.323-.887-.667-1.43-1.034a37.733 37.733 0 00-1.606-1.056 23.802 23.802 0 00-1.452-.902 1.415 1.415 0 01-.528-.484v8.448c0 .367-.132.682-.396.946a1.282 1.282 0 01-.968.418zm8.58-12.364c-.19.161-.425.227-.704.198a.883.883 0 01-.638-.374 14.97 14.97 0 00-.594-.814c-.25-.323-.477-.601-.682-.836a.822.822 0 01-.176-.594.82.82 0 01.308-.594.775.775 0 01.594-.22.98.98 0 01.616.264c.22.19.47.447.748.77.279.308.513.587.704.836.161.22.22.462.176.726a.969.969 0 01-.352.638zm2.134-1.87a.886.886 0 01-.704.264.835.835 0 01-.638-.33 53.28 53.28 0 00-1.386-1.54.917.917 0 01-.242-.572c0-.235.095-.447.286-.638a.782.782 0 01.572-.242.921.921 0 01.638.198c.22.176.484.41.792.704.308.293.565.565.77.814.161.19.235.418.22.682a.994.994 0 01-.308.66zm9.856 15.092c-1.481 0-2.515-.257-3.102-.77-.587-.499-.88-1.327-.88-2.486v-1.386c0-.983.198-1.716.594-2.2-.425.235-.85.462-1.276.682-.425.22-.843.418-1.254.594-.352.147-.69.19-1.012.132-.323-.059-.572-.25-.748-.572-.161-.337-.183-.645-.066-.924.117-.293.337-.506.66-.638a32.75 32.75 0 002.816-1.254 26.349 26.349 0 002.75-1.584h-4.818c-.293 0-.528-.095-.704-.286a1.022 1.022 0 01-.242-.682.94.94 0 01.242-.66c.176-.19.41-.286.704-.286h3.542a13.517 13.517 0 00-.33-.55 4.586 4.586 0 01-.198-.33.793.793 0 01-.154-.462c0-.161.03-.315.088-.462a1.285 1.285 0 01-.22-.616c-.015-.323.08-.565.286-.726.205-.176.47-.264.792-.264.733 0 1.54-.022 2.42-.066.88-.044 1.775-.103 2.684-.176a61.9 61.9 0 002.618-.264c.85-.103 1.613-.22 2.288-.352.323-.059.601-.03.836.088a.737.737 0 01.462.55c.161.587 0 .975-.484 1.166.279.147.462.36.55.638.103.264.073.535-.088.814a8.083 8.083 0 01-.242.44c-.103.176-.213.367-.33.572h3.718c.293 0 .521.095.682.286a.895.895 0 01.264.66.971.971 0 01-.264.682c-.161.19-.389.286-.682.286h-4.708a29.02 29.02 0 002.816 1.584 32.17 32.17 0 002.618 1.166c.323.132.543.345.66.638.117.279.103.572-.044.88a1.12 1.12 0 01-.77.638 1.677 1.677 0 01-1.034-.11l-1.188-.55a31.19 31.19 0 01-1.21-.638c.367.499.55 1.217.55 2.156v1.386c0 1.159-.293 1.987-.88 2.486-.587.513-1.62.77-3.102.77h-5.61zM86.06 9.054c-.352 0-.653-.11-.902-.33-.25-.235-.374-.543-.374-.924v-.44c0-1.144.286-1.958.858-2.442.587-.484 1.562-.726 2.926-.726H93.1v-.836c0-.381.14-.697.418-.946.279-.264.601-.396.968-.396.381 0 .704.132.968.396.279.25.418.565.418.946v.836h4.444c1.379 0 2.354.242 2.926.726.587.484.88 1.298.88 2.442v.44c0 .381-.125.69-.374.924-.249.22-.55.33-.902.33s-.653-.103-.902-.308c-.249-.205-.374-.499-.374-.88v-.528c0-.455-.103-.763-.308-.924-.191-.176-.557-.264-1.1-.264H88.744c-.543 0-.917.088-1.122.264-.205.161-.308.47-.308.924v.528c0 .381-.125.675-.374.88-.235.205-.528.308-.88.308zm9.68 1.452h1.562c.147-.279.323-.616.528-1.012.205-.41.367-.726.484-.946a.277.277 0 01.066-.11.957.957 0 00.066-.11c-.41.059-.85.117-1.32.176-.455.059-.917.117-1.386.176v1.826zm-6.05 4.642c.528-.132 1.18-.198 1.958-.198h1.628v-2.442c-.47.425-1.012.865-1.628 1.32-.616.455-1.269.895-1.958 1.32zM91.89 21h1.386v-1.276H90.24c.015.543.132.895.352 1.056.22.147.653.22 1.298.22zm7.238-5.874c-.63-.396-1.24-.807-1.826-1.232a25.289 25.289 0 01-1.562-1.298v2.354h1.518c.381 0 .726.015 1.034.044.308.015.587.059.836.132zm-7.7-4.62h1.848V8.9l-1.386.088c-.455.015-.902.037-1.342.066a15.812 15.812 0 01.88 1.452zm-1.188 7.502h3.036v-1.232H91.89c-.63 0-1.056.073-1.276.22-.22.147-.345.484-.374 1.012zM95.74 21h1.276c.645 0 1.078-.073 1.298-.22.22-.161.337-.513.352-1.056H95.74V21zm0-2.992h2.926c-.015-.528-.132-.865-.352-1.012-.22-.147-.653-.22-1.298-.22H95.74v1.232zm12.76 4.202a.961.961 0 01-.726-.33.994.994 0 01-.308-.726c0-.279.103-.52.308-.726a.992.992 0 01.726-.308h3.278v-5.302c0-.895.125-1.591.374-2.09.249-.499.675-.85 1.276-1.056.601-.205 1.415-.308 2.442-.308h.594V8.262A24.155 24.155 0 01114.286 10a36.89 36.89 0 01-2.508 1.628 41.53 41.53 0 01-2.42 1.32 1.775 1.775 0 01-1.1.132c-.367-.088-.638-.315-.814-.682a1.253 1.253 0 01-.066-.946c.117-.323.337-.557.66-.704.689-.323 1.43-.697 2.222-1.122a46.61 46.61 0 002.332-1.386 27.838 27.838 0 002.068-1.408h-6.006a.992.992 0 01-.726-.308 1.11 1.11 0 01-.286-.748c0-.293.095-.535.286-.726a.992.992 0 01.726-.308h7.81V3.51c0-.381.125-.69.374-.924.249-.235.557-.352.924-.352.352 0 .653.117.902.352.264.235.396.543.396.924v1.232h7.788a.95.95 0 01.726.308c.205.19.308.433.308.726 0 .279-.103.528-.308.748a.949.949 0 01-.726.308h-5.94a29.2 29.2 0 002.068 1.43c.763.47 1.54.917 2.332 1.342a53.7 53.7 0 002.244 1.122c.323.132.543.367.66.704.117.323.095.645-.066.968a1.188 1.188 0 01-.836.682 1.615 1.615 0 01-1.078-.11 29.68 29.68 0 01-2.464-1.32 36.206 36.206 0 01-2.53-1.694 27.02 27.02 0 01-2.178-1.76v3.168h.594c1.041 0 1.855.103 2.442.308.587.205 1.005.557 1.254 1.056.249.499.374 1.195.374 2.09v5.302h3.278a.95.95 0 01.726.308c.191.205.286.447.286.726 0 .279-.095.52-.286.726a.92.92 0 01-.726.33H108.5zm5.852-2.09h6.798v-1.078h-6.798v1.078zm0-2.86h6.798v-1.034h-6.798v1.034zm.022-2.816h6.754c-.044-.41-.176-.682-.396-.814-.22-.147-.579-.22-1.078-.22h-3.784c-.499 0-.865.073-1.1.22-.22.132-.352.403-.396.814z" fill="#fff"/><path d="M4.33 20.56l-.865-1.803-.015.007-.014.007.894 1.789zm-1.034.066l-.702 1.873.046.017.046.015.61-1.905zm-.836-1.738l-1.873-.702-.013.034-.011.036 1.897.632zm.682-.77l-.87-1.801-.012.006-.012.006.894 1.789zm5.588-3.652l1.316 1.506h.001L8.73 14.465zm4.004-4.664l1.704 1.046.003-.003-1.707-1.043zm-8.008-1.98L3.274 9.197l.019.02.019.02 1.414-1.415zm10.076-1.606l-1.133 1.648.012.008.012.008 1.109-1.664zm1.144 1.936l-1.995.142.001.018.002.018 1.992-.178zm-.814 2.838l-1.734-.997-.01.016-.008.017 1.752.964zm-1.166 1.76l-1.58-1.225-1.188 1.532 1.494 1.235 1.274-1.542zm2.068 1.848l-1.384 1.444.015.015.016.014 1.353-1.473zm2.002 1.936l-1.43 1.398.016.016.017.017 1.397-1.431zm1.584 1.584l1.454-1.373-.008-.009-.008-.008-1.438 1.39zm-.044 1.936l-1.375-1.452-.02.019-.02.019 1.415 1.414zm-.968.396l-.077 1.998.039.002h.038v-2zm-.968-.418L16.2 21.42l.013.013.013.013 1.414-1.414zm-1.496-1.54l-1.447 1.38.008.009.008.008 1.431-1.397zm-1.914-1.936l-1.414 1.414.008.008.007.008 1.399-1.43zm-1.958-1.826l1.304-1.516-1.434-1.234-1.311 1.363 1.441 1.387zm-3.74 3.278l1.192 1.606.003-.002-1.195-1.604zm-5.096.763a.708.708 0 01.47-.05l-1.22 3.81a3.32 3.32 0 002.538-.182L3.436 18.77zm.562-.018a.615.615 0 01.191.122c.075.069.12.139.141.184L.722 20.785a3.347 3.347 0 001.872 1.714l1.404-3.746zm.332.306c.02.043.048.12.054.224a.64.64 0 01-.027.237L.563 18.256a3.334 3.334 0 00.159 2.529l3.608-1.726zm.003.531a.653.653 0 01-.296.317l-1.79-3.578a3.36 3.36 0 00-1.66 1.857l3.746 1.404zm-.322.33c2.247-1.085 4.262-2.399 6.035-3.948L7.414 12.96c-1.483 1.296-3.193 2.417-5.141 3.357l1.738 3.602zm6.036-3.949c1.777-1.555 3.248-3.26 4.391-5.123L11.03 8.755c-.91 1.483-2.109 2.886-3.617 4.206l2.634 3.01zm4.394-5.126c.227-.373.458-.84.557-1.372.104-.565.07-1.295-.38-1.968-.428-.643-1.045-.95-1.522-1.098-.477-.148-.972-.189-1.418-.189v4c.229 0 .283.025.232.01-.051-.017-.368-.126-.62-.505a1.364 1.364 0 01-.226-.978c.025-.136.058-.141-.037.014l3.414 2.086zm-2.763-4.627H5.672v4h6.006v-4zm-6.006 0a.68.68 0 01.26.056.657.657 0 01.208.134L3.312 9.236a3.29 3.29 0 002.36.982v-4zm.506.229a.65.65 0 01.152.407h-4c0 .904.346 1.713.944 2.343l2.904-2.75zm.152.407a.627.627 0 01-.05.23.67.67 0 01-.14.216L3.312 4.472a3.315 3.315 0 00-.982 2.382h4zm-.19.446a.657.657 0 01-.207.134.693.693 0 01-.261.056v-4a3.29 3.29 0 00-2.36.982L6.14 7.3zm-.468.19h6.094v-4H5.672v4zm6.094 0c1.12 0 1.669.213 1.903.374l2.266-3.296c-1.174-.807-2.65-1.078-4.169-1.078v4zm1.927.39c.206.137.245.23.258.414l3.99-.285c-.104-1.457-.828-2.656-2.03-3.457L13.693 7.88zm.26.45c.024.255-.047.78-.555 1.663l3.468 1.994c.724-1.259 1.196-2.625 1.072-4.013l-3.984.356zm-.573 1.696c-.268.486-.597.986-.995 1.499l3.162 2.45c.512-.66.96-1.334 1.337-2.021l-3.504-1.928zm-.688 4.266a35.74 35.74 0 011.958 1.75l2.768-2.888a39.7 39.7 0 00-2.178-1.946l-2.548 3.084zm1.99 1.78a49.413 49.413 0 011.923 1.86l2.862-2.795a53.426 53.426 0 00-2.08-2.012L14.68 16.07zm1.957 1.893a77.614 77.614 0 011.543 1.543l2.876-2.78c-.443-.458-.985-1-1.625-1.625l-2.794 2.862zm1.527 1.526a.66.66 0 01-.172-.405h4c0-.864-.301-1.686-.92-2.341l-2.908 2.746zm-.172-.405a.68.68 0 01.06-.265.675.675 0 01.147-.219l2.75 2.904a3.281 3.281 0 001.043-2.42h-4zm.168-.446a.67.67 0 01.217-.14c.1-.041.184-.05.229-.05v4c.9 0 1.734-.334 2.382-.982l-2.828-2.828zm.523-.189a.593.593 0 01.37.166l-2.83 2.83a3.396 3.396 0 002.306 1.002l.154-3.998zm.395.193c-.4-.415-.902-.931-1.505-1.55l-2.862 2.795c.6.614 1.095 1.125 1.487 1.531l2.88-2.776zm-1.488-1.532a80.463 80.463 0 00-1.963-1.986l-2.798 2.86a76.11 76.11 0 011.866 1.886l2.895-2.76zm-1.948-1.97a37.832 37.832 0 00-2.068-1.928l-2.609 3.032c.588.506 1.204 1.08 1.849 1.724l2.828-2.828zm-4.813-1.799a28.209 28.209 0 01-3.494 3.06l2.39 3.21a32.209 32.209 0 003.986-3.496l-2.882-2.774zm-3.49 3.059a23.732 23.732 0 01-3.876 2.355l1.73 3.606a27.714 27.714 0 004.529-2.749L7.34 16.402zm29.945 3.916l.33 1.973.024-.005.024-.004-.378-1.964zm-6.622.572l-.104 1.997h.009l.009.001.086-1.998zm-3.806-1.188l1.275-1.54-.006-.006-.006-.005-1.263 1.551zm-1.298-1.958l-1.927.535.005.017.004.016 1.918-.568zm.066-12.826L24.25 3.466l-.02.019-.018.019 1.414 1.414zm1.936 0l-1.414 1.414 1.414-1.414zm.396 5.83h-2v2.554l2.48-.612-.48-1.942zm3.696-1.012l.573 1.916.007-.002.007-.002-.587-1.912zm3.476-1.188l-.718-1.867-.002.001.72 1.866zm1.078.022l-.863 1.804.033.016.033.014.797-1.834zm.66 1.804l-1.818-.833-.015.031-.013.033 1.846.769zm-.748.704l-.633-1.897-.026.008-.026.01.685 1.879zm-4.048 1.276l.526 1.93-.526-1.93zm-4.114 1.034l-.443-1.95-1.557.353v1.597h2zm.176 3.3l-1.912.588.014.045.016.044 1.882-.677zm.616.88l-1.24 1.57.026.02.025.018 1.189-1.608zm1.452.55l-.366 1.966.022.004.023.004.321-1.974zm2.552.044l-.135-1.995h-.002l.137 1.995zm4.136-.528l.329 1.973.032-.005.031-.007-.392-1.961zm.99.242l-1.25 1.562.043.034.044.031 1.163-1.627zm.55.902l-1.977.304.002.012 1.975-.316zm-.242.99l-1.6-1.2 1.6 1.2zm-.264-10.34l-1.438 1.39.024.024.024.024 1.39-1.438zm0-3.146l1.414 1.414-1.414-1.414zm3.124 0l-1.438 1.39.024.024.024.024 1.39-1.438zm0 3.146l1.414 1.414-1.414-1.414zm-.88-.902l1.357 1.47.029-.028.028-.028-1.414-1.414zm0-1.342l-1.414 1.414.028.028.03.028 1.356-1.47zm-1.364 0l1.414 1.414-1.414-1.414zm0 1.342l-1.47 1.357.055.058.058.055 1.357-1.47zm-1.849 9.82c-2.648.443-4.701.61-6.205.546l-.172 3.996c1.899.082 4.26-.132 7.039-.598l-.661-3.944zm-6.187.547c-1.471-.077-2.25-.413-2.635-.732l-2.55 3.082c1.316 1.089 3.075 1.545 4.977 1.644l.208-3.994zm-2.648-.742a1.894 1.894 0 01-.642-.975l-3.836 1.136a5.89 5.89 0 001.954 2.941l2.524-3.102zm-.633-.942c-.156-.563-.257-1.346-.257-2.391h-4c0 1.272.12 2.44.403 3.461l3.854-1.07zm-.257-2.391V5.886h-4v8.932h4zm0-8.932a.627.627 0 01-.05.23.67.67 0 01-.14.216l-2.828-2.828a3.315 3.315 0 00-.982 2.382h4zm-.229.484a.651.651 0 01-.407.152v-4c-.904 0-1.713.346-2.344.944l2.752 2.904zm-.407.152a.627.627 0 01-.23-.05.67.67 0 01-.216-.14l2.828-2.828a3.315 3.315 0 00-2.382-.982v4zm-.446-.19a.67.67 0 01-.14-.217.627.627 0 01-.05-.229h4c0-.9-.334-1.734-.982-2.382l-2.828 2.828zm-.19-.446v4.862h4V5.886h-4zm2.48 6.804a81.46 81.46 0 003.789-1.038L31.08 7.82a77.397 77.397 0 01-3.602.986l.958 3.884zm3.803-1.042a54.492 54.492 0 003.609-1.234l-1.44-3.732c-.974.376-2.087.757-3.343 1.142l1.174 3.824zm3.607-1.233a.563.563 0 01-.203.028.744.744 0 01-.3-.069l1.726-3.608c-.882-.422-1.817-.408-2.659-.085l1.436 3.734zm-.437-.01a.719.719 0 01-.23-.167.68.68 0 01-.142-.218l3.746-1.404a3.265 3.265 0 00-1.78-1.88l-1.594 3.668zm-.372-.385a.672.672 0 01.01-.48l3.637 1.667c.376-.82.424-1.724.099-2.591l-3.746 1.404zm-.017-.415a.748.748 0 01.178-.247.801.801 0 01.287-.177l1.265 3.794a3.186 3.186 0 001.962-1.832l-3.692-1.538zm.413-.406a49.029 49.029 0 01-3.89 1.226l1.053 3.858a52.958 52.958 0 004.207-1.326l-1.37-3.758zm-3.89 1.226c-1.427.389-2.77.726-4.03 1.013l.886 3.9c1.322-.3 2.721-.652 4.197-1.054l-1.052-3.86zm-5.587 2.963v1.43h4v-1.43h-4zm0 1.43c0 .888.053 1.77.264 2.458l3.824-1.176a.544.544 0 01-.019-.088 3.418 3.418 0 01-.034-.265 10.209 10.209 0 01-.035-.929h-4zm.294 2.547a3.918 3.918 0 001.259 1.773l2.478-3.14a.194.194 0 01.037.038l.002.003a.26.26 0 01-.012-.028l-3.764 1.354zm1.31 1.811c.675.5 1.489.762 2.274.908l.732-3.932a2.924 2.924 0 01-.494-.13c-.109-.041-.144-.068-.135-.062l-2.378 3.216zm2.319.916c.85.138 1.874.143 3.01.065l-.274-3.99c-1.006.069-1.682.044-2.094-.023l-.642 3.948zm3.008.065c1.175-.079 2.625-.266 4.33-.55l-.658-3.946c-1.639.273-2.947.438-3.942.505l.27 3.991zm4.393-.562a.814.814 0 01-.344-.013.804.804 0 01-.307-.144l2.498-3.124a3.151 3.151 0 00-2.631-.641l.784 3.922zm-.564-.091a.678.678 0 01-.177-.196.634.634 0 01-.088-.226l3.954-.608a3.307 3.307 0 00-1.364-2.226l-2.325 3.255zm-.263-.41a.698.698 0 01.016-.268.723.723 0 01.117-.258l3.2 2.4c.55-.733.76-1.612.617-2.506l-3.95.632zm.133-.526a.612.612 0 01.32-.214l.756 3.928a3.417 3.417 0 002.124-1.314l-3.2-2.4zm2.898-10.502c-.06 0-.081-.01-.085-.011a.295.295 0 01-.087-.065l-2.78 2.876a4.17 4.17 0 002.952 1.2v-4zm-.124-.028a.265.265 0 01-.061-.083.292.292 0 01-.015-.111h-4c0 1.13.411 2.158 1.2 2.974l2.876-2.78zm-.076-.194a.416.416 0 01.011-.096.292.292 0 01.041-.052L36.51 4.868a4.123 4.123 0 00-1.224 2.976h4zm.052-.148a.462.462 0 01.085-.067.268.268 0 01.063-.007v-4c-1.152 0-2.176.445-2.976 1.246l2.828 2.828zm.148-.074c.035 0 .055.003.064.005l.01.002.007.005a.312.312 0 01.043.038l2.876-2.78a4.087 4.087 0 00-3-1.27v4zm.172.098a.308.308 0 01.038.043l.005.007.002.01c.002.01.005.03.005.064h4a4.087 4.087 0 00-1.27-3l-2.78 2.876zm.05.124c0 .064-.01.087-.011.089-.001.002-.012.03-.063.08l2.828 2.83a4.159 4.159 0 001.246-2.999h-4zm-.074.17a.28.28 0 01-.041.035l-.01.006-.02.005a.42.42 0 01-.077.006v4a4.123 4.123 0 002.976-1.224l-2.828-2.828zm-.148 2.776a2.97 2.97 0 002.039-.794l-2.714-2.94a1.02 1.02 0 01.675-.266v4zm2.096-.85a2.93 2.93 0 00.872-2.096h-4a1.058 1.058 0 01.3-.732l2.828 2.828zm.872-2.096a2.86 2.86 0 00-.93-2.13l-2.713 2.94a1.126 1.126 0 01-.264-.378 1.099 1.099 0 01-.093-.432h4zm-.872-2.074a2.93 2.93 0 00-2.096-.872v4a1.058 1.058 0 01-.732-.3l2.828-2.828zm-2.096-.872a2.93 2.93 0 00-2.096.872l2.828 2.828a1.06 1.06 0 01-.732.3v-4zm-2.096.872a2.894 2.894 0 00-.85 2.074h4a1.123 1.123 0 01-.322.754L37.39 5.77zm-.85 2.074c0 .757.27 1.471.794 2.039l2.94-2.714a1.017 1.017 0 01.266.675h-4zm.907 2.152a2.97 2.97 0 002.039.794v-4a1.018 1.018 0 01.675.266l-2.714 2.94zm8.023 3.7l-1.452 1.376.037.039.04.037 1.375-1.452zm0-1.936l-1.376-1.452-.02.019-.018.019 1.414 1.414zm15.642 0l1.414-1.414-1.414 1.414zm0 1.936l1.414 1.414.02-.019.018-.02-1.452-1.375zm-14.674-1.604a.65.65 0 01.407.152l-2.75 2.904a3.36 3.36 0 002.343.944v-4zm.484.228a.65.65 0 01.152.408h-4c0 .904.346 1.713.944 2.344l2.904-2.752zm.152.408a.627.627 0 01-.05.23.67.67 0 01-.14.216l-2.828-2.828a3.315 3.315 0 00-.982 2.382h4zm-.228.484a.65.65 0 01-.407.152v-4c-.905 0-1.714.346-2.345.944l2.752 2.904zm-.408.152h13.706v-4H46.438v4zm13.706 0a.627.627 0 01-.23-.05.67.67 0 01-.216-.14l2.828-2.828a3.315 3.315 0 00-2.382-.982v4zm-.446-.19a.67.67 0 01-.14-.217.627.627 0 01-.05-.229h4c0-.9-.334-1.734-.982-2.382l-2.828 2.828zm-.19-.446a.65.65 0 01.152-.408l2.904 2.752c.598-.631.944-1.44.944-2.344h-4zm.19-.446a.67.67 0 01.217-.14c.1-.041.184-.05.229-.05v4c.9 0 1.734-.334 2.382-.982l-2.828-2.828zm.446-.19H46.438v4h13.706v-4zm9.988 9.458l1.452-1.376-.019-.02-.019-.018-1.414 1.414zm0-17.094l1.373 1.454.021-.02.02-.02-1.414-1.414zm1.914 0L70.632 5.87l.02.02.02.02 1.374-1.454zm.396 6.248h-2v6.747l3.677-5.657-1.677-1.09zm.792-.572l.505 1.935.039-.01.038-.012-.582-1.913zm.99.11l-.958 1.756.014.007.014.007.93-1.77zm2.64 1.562l-1.097 1.672.016.01.016.01 1.065-1.692zm2.354 1.694l-1.29 1.528.02.017.02.017 1.25-1.562zm.484.946l-1.995.148.004.04.004.041 1.987-.229zm-.308 1.012l-1.524-1.295-.006.007 1.53 1.288zm-.924.484l.153 1.994.038-.003.038-.004-.229-1.987zm-1.012-.308l1.25-1.562-.007-.005-.007-.006-1.236 1.573zm-1.43-1.034l-1.14 1.643.01.007.01.007 1.12-1.657zm-1.606-1.056l-1.11 1.664.027.018.027.017 1.056-1.699zm-1.452-.902l.986-1.74-.005-.003-.981 1.743zm-.528-.484l1.703-1.048-3.703-6.018v7.066h2zm-.396 9.394l-1.414-1.414-.02.019-.018.02 1.452 1.375zm7.612-11.946l1.292 1.527.01-.008-1.302-1.519zm-.704.198l-.22 1.988.01.001.21-1.989zm-.638-.374l-1.664 1.11.025.037.026.036 1.613-1.183zm-.594-.814l1.583-1.223-1.583 1.223zm-.682-.836l-1.548 1.266.021.026.022.025 1.505-1.317zm-.176-.594l1.996.125-1.996-.125zm.308-.594l1.292 1.527.03-.026.03-.027-1.352-1.474zm.594-.22l-.133 1.996h.008l.125-1.996zm.616.264l-1.351 1.474.02.02.021.017 1.31-1.511zm.748.77l-1.514 1.307.015.018.016.017 1.483-1.342zm.704.836l1.613-1.183-.012-.016-.012-.016-1.589 1.215zm.176.726l-1.973-.329-.008.048-.005.047 1.986.234zm1.078-.968l-.11 1.997h.005l.105-1.997zm-.638-.33l1.573-1.236-.027-.033-.027-.033-1.519 1.302zm-.66-.748l1.487-1.338L79.79 6.92zm-.726-.792l-1.48 1.345.01.012.01.01 1.46-1.367zm-.242-.572h-2v.067l.004.066 1.996-.133zm.286-.638l1.414 1.414-1.414-1.414zm.572-.242v2h.062l.063-.004-.125-1.996zm.638.198l1.25-1.562-.016-.012-.015-.011-1.219 1.585zm1.562 1.518l-1.544 1.271.009.01.008.01 1.527-1.291zm.22.682l1.997.117v-.006L82.1 7.074zM71.078 19.968a.751.751 0 01.506.206l-2.904 2.752a3.257 3.257 0 002.398 1.042v-4zm.468.168a.694.694 0 01.19.468h-4c0 .908.35 1.729.982 2.36l2.828-2.828zm.19.468V5.402h-4v15.202h4zm0-15.202a.767.767 0 01-.23.508l-2.747-2.908a3.243 3.243 0 00-1.023 2.4h4zm-.19.468a.657.657 0 01-.207.134.693.693 0 01-.261.056v-4a3.29 3.29 0 00-2.36.982l2.828 2.828zm-.468.19a.627.627 0 01-.23-.05.67.67 0 01-.216-.14l2.828-2.828a3.315 3.315 0 00-2.382-.982v4zm-.405-.15a.767.767 0 01-.231-.508h4c0-.9-.337-1.752-1.023-2.4L70.673 5.91zm-.231-.508v5.302h4V5.402h-4zm3.677 6.392a.66.66 0 01-.165.168.665.665 0 01-.215.105l-1.01-3.87a3.307 3.307 0 00-1.964 1.417l3.354 2.18zm-.303.251a.767.767 0 01-.55-.047l1.916-3.512a3.238 3.238 0 00-2.53-.267l1.164 3.826zm-.522-.033c.803.422 1.627.91 2.473 1.464l2.194-3.345a33.78 33.78 0 00-2.807-1.66l-1.86 3.541zm2.505 1.485a18.946 18.946 0 012.129 1.53l2.58-3.057a22.917 22.917 0 00-2.58-1.859L75.8 13.497zm2.17 1.563a.74.74 0 01-.261-.468l3.989-.296a3.275 3.275 0 00-1.23-2.36L77.97 15.06zm-.254-.387a.69.69 0 01.03-.272.686.686 0 01.125-.24l3.048 2.59a3.274 3.274 0 00.77-2.536l-3.973.458zm.15-.505a.657.657 0 01.376-.215l.458 3.974a3.364 3.364 0 002.225-1.183l-3.06-2.576zm.452-.222a.554.554 0 01.196.026c.09.027.156.068.194.098l-2.498 3.124a3.392 3.392 0 002.414.74l-.306-3.988zm.377.113a26.736 26.736 0 00-1.546-1.118l-2.24 3.314c.513.346.95.663 1.314.95l2.472-3.146zm-1.525-1.104a39.9 39.9 0 00-1.691-1.112l-2.112 3.398c.514.319 1.02.652 1.521 1l2.282-3.286zm-1.638-1.077c-.558-.373-1.084-.7-1.575-.978l-1.972 3.48c.389.22.831.494 1.329.826l2.218-3.328zm-1.58-.981s.024.014.063.049c.039.036.087.09.131.162l-3.406 2.096c.328.533.78.914 1.25 1.18l1.962-3.487zm-3.509 1.259v8.448h4v-8.448h-4zm0 8.448c0-.062.013-.156.056-.26a.658.658 0 01.134-.208l2.828 2.828a3.29 3.29 0 00.982-2.36h-4zm.152-.43c.037-.038.11-.1.22-.147a.688.688 0 01.264-.059v4c.935 0 1.781-.368 2.42-1.043l-2.904-2.75zm7.772-12.097c.118-.1.266-.181.431-.228a.99.99 0 01.366-.036l-.418 3.978c.748.079 1.545-.102 2.205-.66l-2.584-3.054zm.809-.263a1.108 1.108 0 01.754.431l-3.226 2.366a2.882 2.882 0 002.03 1.179l.442-3.976zm.805.505a16.906 16.906 0 00-.675-.928l-3.166 2.446c.235.303.402.534.513.7L79.98 8.32zm-.675-.928a19.95 19.95 0 00-.76-.93l-3.01 2.634c.172.196.373.442.604.742l3.166-2.446zm-.717-.88c.1.124.18.27.227.43.045.154.05.283.045.368l-3.992-.25a2.82 2.82 0 00.624 1.985l3.096-2.532zm.272.798a1.195 1.195 0 01-.396.808L75.88 5.063a2.82 2.82 0 00-1.012 1.996l3.992.25zm-.337.755a1.147 1.147 0 01-.376.226 1.251 1.251 0 01-.514.076l.266-3.992a2.773 2.773 0 00-2.078.742l2.702 2.948zm-.882.302a1.013 1.013 0 01-.61-.258l2.703-2.948a2.977 2.977 0 00-1.843-.786l-.25 3.992zm-.569-.22c.123.105.303.285.544.565l3.028-2.614a9.587 9.587 0 00-.952-.974l-2.62 3.022zm.575.6c.253.28.45.515.598.709l3.178-2.43a15.403 15.403 0 00-.81-.963l-2.966 2.684zm.574.677a1.033 1.033 0 01-.166-.365 1.062 1.062 0 01-.018-.42l3.946.657a2.925 2.925 0 00-.536-2.238L78.22 9.423zm-.197-.69c.014-.124.054-.259.125-.387a.95.95 0 01.207-.26l2.604 3.037A2.967 2.967 0 0081.996 9.2l-3.972-.468zm2.354-2.413a1.11 1.11 0 01.815-.32l-.21 3.995a2.885 2.885 0 002.223-.847L80.378 6.32zm.82-.319a1.16 1.16 0 01.825.431l-3.146 2.472a2.834 2.834 0 002.1 1.09l.222-3.993zm.77.365c-.19-.221-.421-.483-.691-.784l-2.974 2.676c.258.286.466.523.629.712l3.037-2.604zm-.691-.784a55.456 55.456 0 00-.754-.822l-2.918 2.736c.209.223.441.477.698.762l2.974-2.676zm-.733-.8a1.07 1.07 0 01.274.641l-3.992.266a2.92 2.92 0 00.758 1.784l2.96-2.69zm.278.774c0 .163-.035.33-.103.483a.99.99 0 01-.197.293l-2.828-2.828c-.505.505-.872 1.207-.872 2.052h4zm-.3.776a1.22 1.22 0 01-.842.344v-4a2.78 2.78 0 00-1.986.828l2.828 2.828zm-.717.34a1.074 1.074 0 01-.706-.213l2.438-3.17a2.92 2.92 0 00-1.982-.61l.25 3.993zm-.736-.236c.158.127.377.319.662.59l2.758-2.896a14.63 14.63 0 00-.922-.818L79.07 6.436zm.662.59c.266.254.464.466.605.637l3.088-2.542a11.16 11.16 0 00-.935-.991l-2.758 2.896zm.622.658a1.082 1.082 0 01-.25-.72l3.994.22a2.935 2.935 0 00-.69-2.084l-3.054 2.584zm-.25-.727c.008-.12.038-.251.097-.377a.92.92 0 01.178-.26l2.828 2.828a2.992 2.992 0 00.89-1.957l-3.993-.234zm8.443 15.099l1.317-1.505-.01-.01-.012-.009-1.295 1.524zm-.286-6.072l1.548 1.266-2.514-3.017.966 1.751zm-1.276.682l-.919-1.776.919 1.776zm-1.254.594l.77 1.846.009-.004.009-.004-.788-1.838zm-1.012.132l-.358 1.968.358-1.968zm-.748-.572l-1.804.863.023.048.025.047 1.756-.958zm-.066-.924l1.843.776.007-.017.007-.016-1.857-.743zm.66-.638l-.722-1.865-.018.007-.017.007.757 1.851zm5.566-2.838l1.103 1.668 5.55-3.668H90.13v2zm-5.522-.286l-1.527 1.292.028.033.03.032 1.469-1.357zm0-1.342l-1.47-1.357-.004.006 1.474 1.351zm4.246-.286v2H92.3l-1.71-2.992-1.736.992zm-.33-.55l1.687-1.074-1.687 1.074zm-.198-.33l1.789-.894-.066-.132-.085-.12-1.638 1.146zm-.066-.924l1.857.743.41-1.026-.65-.893-1.617 1.176zm-.22-.616l-1.998.09.003.072.009.072 1.986-.234zm.286-.726l1.236 1.573.033-.027.033-.027-1.302-1.519zm3.212-.33l-.1-1.998.1 1.998zm5.302-.44l-.24-1.986h-.004l.244 1.986zm2.288-.352L98.77 4.27l-.013.003-.013.002.384 1.963zm.836.088l-.894 1.789.065.033.067.027.762-1.849zm.462.55l-1.952.434.01.048.014.048 1.928-.53zm-.484 1.166l-.733-1.86L95.15 7.78l3.86 2.032.932-1.77zm.55.638l-1.907.602.02.062.023.06 1.864-.724zm-.088.814l-1.73-1.002-.032.053-.027.055 1.789.894zm-.242.44l1.728 1.008-1.728-1.008zm-.33.572l-1.736-.992-1.71 2.992h3.446v-2zm4.4.286l-1.527 1.292.054.063.059.06 1.414-1.415zm0 1.342l-1.47-1.357-.029.032-.028.033 1.527 1.292zm-5.39.286v-2h-6.841l5.764 3.685 1.077-1.685zm2.816 1.584l.884-1.794-.884 1.794zm2.618 1.166l.757-1.851-.019-.008-.02-.008-.718 1.867zm.66.638l-1.857.743.007.017.007.016 1.843-.776zm-.044.88l1.804.863.002-.003-1.806-.86zm-.77.638l.408 1.958.039-.008.038-.01-.485-1.94zm-1.034-.11l-.838 1.816.02.01.021.008.797-1.834zm-1.188-.55l-.894 1.789.026.013.026.012.842-1.814zm-1.21-.638l.971-1.748-2.582 2.933 1.611-1.185zm-.33 6.028l-1.295-1.524-.011.01-.011.009 1.317 1.505zM85.158 8.724l-1.37 1.456.023.022.024.022 1.323-1.5zm.484-3.806l-1.273-1.543-.01.008-.009.008 1.292 1.527zm7.458-.726v2h2v-2h-2zm.418-1.782l1.334 1.49.02-.019.022-.02-1.376-1.451zm1.936 0L94.04 3.824l.039.04.041.036 1.334-1.49zm.418 1.782h-2v2h2v-2zm7.37.726l-1.292 1.527.01.008.009.008 1.273-1.543zm.506 3.806l1.323 1.5.024-.022.024-.022-1.371-1.456zm-1.804.022l1.271-1.544-1.271 1.544zm-.682-2.332l-1.357 1.47.059.054.062.049 1.236-1.573zm-13.64 0l1.236 1.573.033-.027.033-.027-1.302-1.519zm-.682 2.332l-1.271-1.544-.023.02-.023.019 1.317 1.505zm8.8 1.76h-2v2h2v-2zm1.562 0v2h1.207l.563-1.069-1.77-.931zm.528-1.012l1.776.92.006-.012.007-.014-1.789-.894zm.484-.946l1.765.941.079-.149.053-.16-1.897-.632zm.066-.11l1.414 1.414.14-.14.11-.165-1.664-1.109zm.066-.11l1.789.894 1.707-3.414-3.779.54.283 1.98zm-1.32.176l-.248-1.985-.008.001.256 1.984zm-1.386.176l-.248-1.985-1.752.22V8.68h2zm-6.05 6.468l-1.05-1.702 1.535 3.642-.485-1.94zm3.586-.198v2h2v-2h-2zm0-2.442h2V7.996l-3.343 3.03 1.343 1.482zm-1.628 1.32l1.188 1.61-1.188-1.61zM93.276 21v2h2v-2h-2zm0-1.276h2v-2h-2v2zm-3.036 0v-2h-2.055l.056 2.054 1.999-.054zm.352 1.056l-1.183 1.613.036.026.038.025 1.109-1.664zm8.536-5.654l-.564 1.919 1.628-3.613-1.064 1.694zm-1.826-1.232l-1.22 1.585.023.018.023.016 1.174-1.619zm-1.562-1.298l1.343-1.482-3.343-3.03v4.512h2zm0 2.354h-2v2h2v-2zm2.552.044l-.19 1.991.048.005.047.002.095-1.998zm-6.864-4.488l-1.789.894.553 1.106h1.236v-2zm1.848 0v2h2v-2h-2zm0-1.606h2V6.771l-2.125.133.125 1.996zm-1.386.088l.064 1.999.033-.001.032-.002-.129-1.996zm-1.342.066l-.133-1.996-3.505.234 1.99 2.895 1.648-1.133zm.506.792l-1.715 1.029 1.715-1.029zm-.814 8.162l-1.997-.11-.117 2.11h2.114v-2zm3.036 0v2h2v-2h-2zm0-1.232h2v-2h-2v2zm-2.662.22l1.11 1.664-1.11-1.664zM95.74 21h-2v2h2v-2zm2.574-.22l1.11 1.664.037-.025.036-.026-1.183-1.613zm.352-1.056l1.999.054.056-2.054h-2.055v2zm-2.926 0v-2h-2v2h2zm0-1.716h-2v2h2v-2zm2.926 0v2h2.056l-.057-2.055-1.999.055zm-.352-1.012l1.11-1.664-1.11 1.664zm-2.574-.22v-2h-2v2h2zm-4.092 4.05c-.636 0-1.093-.056-1.405-.134-.315-.078-.398-.157-.38-.141l-2.634 3.01c1.161 1.016 2.834 1.265 4.419 1.265v-4zm-1.807-.294l-.002-.003a.565.565 0 01-.067-.136c-.052-.144-.106-.403-.106-.823h-4c0 1.445.364 2.972 1.585 4.01l2.59-3.048zm-.175-.962v-1.386h-4v1.386h4zm0-1.386c0-.364.037-.61.08-.766.04-.151.077-.186.062-.168l-3.096-2.533c-.814.996-1.046 2.271-1.046 3.467h4zm-2.372-3.951c-.41.226-.82.445-1.229.657l1.838 3.552c.441-.228.882-.464 1.323-.707l-1.932-3.502zm-1.229.657c-.385.199-.76.376-1.123.532l1.576 3.676c.458-.196.92-.415 1.385-.656l-1.838-3.552zm-1.104.524c-.032.013-.033.01-.007.006a.405.405 0 01.122.004l-.716 3.936a3.77 3.77 0 002.14-.254l-1.54-3.692zm.115.01c.136.025.29.087.428.192a.82.82 0 01.222.246l-3.512 1.916c.426.78 1.152 1.401 2.146 1.582l.716-3.936zm.698.533a.692.692 0 01.053.236c.011.153-.014.322-.08.48l-3.686-1.553c-.39.927-.24 1.842.105 2.563l3.608-1.726zm-.013.682a.924.924 0 01-.214.316.745.745 0 01-.226.154l-1.514-3.702c-.767.314-1.42.895-1.76 1.746l3.714 1.486zm-.475.484c.974-.377 1.97-.821 2.988-1.33l-1.788-3.578c-.918.459-1.8.85-2.644 1.178l1.444 3.73zm2.988-1.33a28.349 28.349 0 002.959-1.705l-2.206-3.336a24.36 24.36 0 01-2.541 1.463l1.788 3.578zm1.856-5.373h-4.818v4h4.818v-4zm-4.818 0c.071 0 .2.012.357.076.162.065.302.166.409.281l-2.94 2.714c.606.656 1.403.929 2.174.929v-4zm.823.422a1.001 1.001 0 01.231.61h-4c0 .708.23 1.4.715 1.974l3.054-2.584zm.231.61a.959.959 0 01-.062.325 1.11 1.11 0 01-.222.366l-2.948-2.702a2.937 2.937 0 00-.768 2.011h4zm-.288.697a1.15 1.15 0 01-.41.281.966.966 0 01-.356.076v-4c-.771 0-1.568.273-2.174.93l2.94 2.713zm-.766.357h3.542v-4h-3.542v4zm5.279-2.992c-.13-.227-.257-.438-.38-.632l-3.374 2.148c.082.129.175.284.28.468l3.474-1.984zm-.38-.632a7.567 7.567 0 01-.099-.158l-.016-.028.019.036-3.578 1.788c.083.166.205.361.3.51l3.374-2.148zm-.246-.403c.105.151.207.391.207.685h-4c0 .616.204 1.165.516 1.609l3.276-2.294zm.207.685a.77.77 0 01-.055.28L86.403 7.96a3.23 3.23 0 00-.231 1.205h4zm-.294-1.638c.13.179.148.322.148.326l-3.972.468c.059.503.224 1.057.588 1.558l3.236-2.352zm.16.47a.997.997 0 01-.077.4c-.083.21-.224.399-.4.537l-2.47-3.146c-.835.656-1.085 1.594-1.049 2.39l3.996-.182zm-.41.883a.96.96 0 01-.317.18.638.638 0 01-.193.037v-4c-.703 0-1.459.201-2.094.745l2.604 3.038zm-.51.217c.773 0 1.613-.023 2.52-.069l-.2-3.995a46.77 46.77 0 01-2.32.064v4zm2.52-.069a90.175 90.175 0 002.745-.18L94.06 4.86c-.89.072-1.764.13-2.623.172l.2 3.995zm2.745-.18a65.149 65.149 0 002.7-.272l-.487-3.97a61.13 61.13 0 01-2.535.255l.322 3.988zm2.697-.271c.888-.108 1.7-.232 2.432-.375l-.768-3.926c-.617.12-1.33.231-2.144.33l.48 3.97zm2.406-.37c.005-.001-.038.007-.116-.001a.888.888 0 01-.3-.09l1.788-3.578c-.709-.355-1.447-.383-2.088-.267l.716 3.936zm-.284-.03a1.235 1.235 0 01-.467-.35 1.232 1.232 0 01-.261-.516l3.904-.868c-.2-.9-.797-1.613-1.652-1.965l-1.523 3.698zm-.704-.77c.013.05-.07-.2.08-.565a1.21 1.21 0 01.631-.66l1.466 3.722c.619-.244 1.263-.72 1.598-1.529.313-.753.229-1.491.081-2.028l-3.856 1.06zm.512 2.406a.838.838 0 01-.236-.195.967.967 0 01-.19-.335l3.815-1.204a3.065 3.065 0 00-1.526-1.806l-1.863 3.54zm-.382-.407a1.158 1.158 0 01-.07-.538.963.963 0 01.115-.375l3.462 2.004c.418-.723.576-1.629.221-2.54l-3.728 1.449zm-.013-.805c-.032.064-.09.17-.18.326l3.455 2.016c.113-.196.218-.383.303-.554L98.615 8.6zm-.18.326c-.107.182-.22.378-.34.588l3.473 1.984c.115-.2.222-.386.322-.556l-3.456-2.016zm1.397 3.58h3.718v-4h-3.718v4zm3.718 0c-.069 0-.21-.011-.383-.084a1.245 1.245 0 01-.462-.338l3.054-2.584c-.609-.72-1.441-.994-2.209-.994v4zm-.732-.3a1.123 1.123 0 01-.322-.754h4a2.89 2.89 0 00-.85-2.074l-2.828 2.828zm-.322-.754a1.017 1.017 0 01.266-.675l2.94 2.714a2.972 2.972 0 00.794-2.039h-4zm.209-.61c.121-.142.281-.262.462-.338.173-.072.314-.084.383-.084v4c.768 0 1.6-.274 2.209-.994l-3.054-2.584zm.845-.422h-4.708v4h4.708v-4zm-5.785 3.685a31.086 31.086 0 003.009 1.693l1.768-3.588a27.014 27.014 0 01-2.623-1.475l-2.154 3.37zm3.009 1.693c1.02.502 1.95.918 2.784 1.239l1.436-3.734a30.152 30.152 0 01-2.452-1.093l-1.768 3.588zm2.745 1.223a.732.732 0 01-.226-.155.923.923 0 01-.214-.315l3.714-1.486c-.341-.851-.993-1.432-1.76-1.746l-1.514 3.702zm-.426-.437a1.01 1.01 0 01-.077-.447.818.818 0 01.07-.309l3.612 1.72c.357-.75.45-1.641.081-2.516l-3.686 1.552zm-.005-.759a.814.814 0 01.214-.264.872.872 0 01.335-.175l.97 3.88a3.117 3.117 0 002.089-1.715l-3.608-1.726zm.626-.457a.328.328 0 01.171.014l-1.594 3.668a3.675 3.675 0 002.239.234l-.816-3.916zm.212.032l-1.184-.548-1.684 3.628 1.192.552 1.676-3.632zm-1.132-.523a30.04 30.04 0 01-1.133-.597l-1.942 3.496c.421.235.85.46 1.287.679l1.788-3.578zm-3.715 2.336c.014.019.161.25.161.971h4c0-1.157-.219-2.362-.939-3.34l-3.222 2.369zm.161.971v1.386h4v-1.386h-4zm0 1.386c0 .42-.054.68-.105.823a.565.565 0 01-.07.14l2.59 3.047c1.221-1.038 1.585-2.565 1.585-4.01h-4zm-.197.98c.018-.015-.065.064-.38.142-.312.078-.769.134-1.405.134v4c1.585 0 3.258-.249 4.419-1.265l-2.634-3.01zm-1.785.276h-5.61v4h5.61v-4zM86.06 7.054a.712.712 0 01.421.17l-2.646 3c.637.562 1.417.83 2.225.83v-4zm.469.214a.858.858 0 01.202.299.653.653 0 01.053.233h-4c0 .863.304 1.723 1.003 2.38l2.742-2.912zm.255.532v-.44h-4v.44h4zm0-.44c0-.868.22-.975.15-.915L84.35 3.39c-1.215 1.03-1.566 2.55-1.566 3.97h4zm.13-.9c0 .001.023-.018.084-.046.062-.029.158-.065.297-.1.286-.07.7-.122 1.273-.122v-4c-1.5 0-3.063.247-4.199 1.183l2.546 3.086zm1.654-.268H93.1v-4h-4.532v4zm6.532-2v-.836h-4v.836h4zm0-.836a.73.73 0 01-.066.286.767.767 0 01-.182.258L92.184.92A3.213 3.213 0 0091.1 3.356h4zm-.206.506a.651.651 0 01-.407.152v-4a3.36 3.36 0 00-2.344.944l2.75 2.904zm-.408.152a.627.627 0 01-.23-.05.67.67 0 01-.216-.14L96.868.996a3.315 3.315 0 00-2.382-.982v4zM94.12 3.9a.767.767 0 01-.182-.258.73.73 0 01-.066-.286h4c0-.937-.372-1.8-1.084-2.436L94.12 3.9zm-.248-.544v.836h4v-.836h-4zm2 2.836h4.444v-4h-4.444v4zm4.444 0c.583 0 1 .052 1.284.123.286.07.365.142.35.13l2.584-3.054c-1.132-.958-2.717-1.199-4.218-1.199v4zm1.653.269c-.067-.056.153.045.153.899h4c0-1.434-.367-2.961-1.607-3.985l-2.546 3.086zm.153.899v.44h4v-.44h-4zm0 .44a.64.64 0 01.053-.233.852.852 0 01.202-.3l2.742 2.913c.698-.657 1.003-1.517 1.003-2.38h-4zm.303-.576a.707.707 0 01.421-.17v4c.808 0 1.588-.268 2.225-.83l-2.646-3zm.421-.17c.02 0 .078.003.157.03.081.028.155.07.212.118l-2.542 3.088a3.37 3.37 0 002.173.764v-4zm.369.148c.121.099.224.234.289.388.061.144.066.25.066.276h-4c0 .859.307 1.768 1.103 2.424l2.542-3.088zm.355.664v-.528h-4v.528h4zm0-.528c0-.63-.122-1.75-1.072-2.497l-2.472 3.146a1.29 1.29 0 01-.43-.589c-.038-.113-.026-.152-.026-.06h4zm-.951-2.394a2.91 2.91 0 00-1.308-.673 4.953 4.953 0 00-1.149-.121v4c.176 0 .235.016.215.01a.786.786 0 01-.147-.054 1.3 1.3 0 01-.325-.222l2.714-2.94zm-2.457-.794H88.744v4h11.418v-4zm-11.418 0c-.612 0-1.635.07-2.424.745l2.604 3.038a1.226 1.226 0 01-.287.185.688.688 0 01-.122.045c-.01.002.003-.002.045-.006.04-.004.101-.007.184-.007v-4zm-2.358.691c-.95.747-1.072 1.867-1.072 2.497h4c0-.092.012-.053-.026.06a1.288 1.288 0 01-.43.589L86.386 4.84zm-1.072 2.497v.528h4v-.528h-4zm0 .528c0-.026.005-.132.066-.276.065-.154.169-.289.289-.388l2.542 3.088c.796-.656 1.103-1.565 1.103-2.424h-4zm.309-.625a.803.803 0 01.26-.152.563.563 0 01.177-.035v4c.77 0 1.55-.237 2.197-.803l-2.634-3.01zm10.117 5.265h1.562v-4H95.74v4zm3.332-1.069c.149-.283.327-.624.534-1.022l-3.551-1.842-.523 1.002 3.54 1.863zm.547-1.049c.203-.405.355-.702.46-.899l-3.53-1.882c-.13.243-.3.577-.508.993l3.578 1.788zm.592-1.208a1.716 1.716 0 01-.417.672l-2.828-2.828a2.276 2.276 0 00-.55.892l3.795 1.264zm-.167.367c.051-.076.124-.19.191-.325l-3.578-1.788c.021-.043.039-.072.047-.086l.012-.02 3.328 2.22zm-1.88-3.199a69.69 69.69 0 01-1.286.171l.496 3.97c.48-.06.931-.12 1.355-.181l-.566-3.96zm-1.294.172c-.452.059-.911.117-1.378.175l.496 3.97 1.394-.177-.512-3.968zm-3.13 2.16v1.826h4V8.68h-4zm-3.565 8.408c.318-.08.796-.138 1.473-.138v-4c-.877 0-1.705.073-2.443.258l.97 3.88zm1.473-.138h1.628v-4h-1.628v4zm3.628-2v-2.442h-4v2.442h4zm-3.343-3.924c-.41.372-.9.77-1.473 1.193l2.376 3.218a23.01 23.01 0 001.783-1.447l-2.686-2.964zm-1.473 1.193a26.45 26.45 0 01-1.82 1.227l2.1 3.404a30.458 30.458 0 002.096-1.413L90.46 12.22zM91.89 23h1.386v-4H91.89v4zm3.386-2v-1.276h-4V21h4zm-2-3.276H90.24v4h3.036v-4zm-5.035 2.054c.016.607.13 1.853 1.168 2.615l2.366-3.226c.325.239.435.517.461.595.025.076.007.065.003-.092l-3.998.108zm1.242 2.666c.448.3.93.416 1.264.473.365.062.755.083 1.143.083v-4c-.124 0-.227-.004-.308-.01a1.759 1.759 0 01-.166-.017c-.032-.005-.02-.006.02.008.037.013.138.05.265.135l-2.218 3.328zm10.709-9.012a30.963 30.963 0 01-1.716-1.157l-2.348 3.238c.624.452 1.27.888 1.936 1.307l2.128-3.388zm-1.67-1.123a23.357 23.357 0 01-1.439-1.195l-2.686 2.964c.514.466 1.077.933 1.686 1.401l2.438-3.17zm-4.782.287v2.354h4v-2.354h-4zm2 4.354h1.518v-4H95.74v4zm1.518 0c.332 0 .612.013.844.035l.38-3.982a12.98 12.98 0 00-1.224-.053v4zm.939.042c.177.008.295.032.367.053l1.128-3.838a5.55 5.55 0 00-1.305-.21l-.19 3.995zm-6.769-4.486h1.848v-4h-1.848v4zm3.848-2V8.9h-4v1.606h4zm-2.125-3.602l-1.39.088.258 3.992c.453-.03.914-.059 1.382-.088l-.25-3.992zm-1.325.085a40.02 40.02 0 00-1.411.07l.266 3.99c.416-.027.841-.048 1.273-.062l-.128-3.998zM88.9 10.187c.134.195.28.423.439.688l3.43-2.058a17.286 17.286 0 00-.573-.896L88.9 10.187zm.439.688c.171.286.263.451.3.525l3.578-1.788c-.11-.22-.267-.494-.448-.795l-3.43 2.058zm.901 9.133h3.036v-4H90.24v4zm5.036-2v-1.232h-4v1.232h4zm-2-3.232H91.89v4h1.386v-4zm-1.386 0c-.382 0-.769.021-1.132.084-.335.058-.81.176-1.253.472l2.218 3.328c-.123.082-.222.12-.26.133-.041.014-.054.014-.025.009a1.63 1.63 0 01.156-.017c.078-.006.176-.009.296-.009v-4zm-2.385.556a2.707 2.707 0 00-1.025 1.334 4.237 4.237 0 00-.237 1.231l3.994.222c.008-.15.026-.15-.005-.067a1.31 1.31 0 01-.509.608l-2.218-3.328zM95.74 23h1.276v-4H95.74v4zm1.276 0c.388 0 .778-.021 1.143-.083.334-.057.816-.174 1.264-.473l-2.218-3.328a1.15 1.15 0 01.265-.135c.04-.014.052-.013.02-.008a1.86 1.86 0 01-.166.018 5.007 5.007 0 01-.308.009v4zm2.48-.607c1.039-.762 1.153-2.008 1.169-2.615l-3.998-.108c-.005.157-.023.168.003.092a1.27 1.27 0 01.461-.595l2.366 3.226zm-.83-4.669H95.74v4h2.926v-4zm-4.926 2V21h4v-1.276h-4zm2 .284h2.926v-4H95.74v4zm4.925-2.055a4.147 4.147 0 00-.209-1.251 2.682 2.682 0 00-1.033-1.37l-2.218 3.328a1.332 1.332 0 01-.527-.644c-.033-.094-.015-.1-.011.048l3.998-.111zm-1.242-2.621c-.448-.3-.93-.416-1.264-.473a6.925 6.925 0 00-1.143-.083v4a4.237 4.237 0 01.474.027c.032.005.02.006-.02-.008a1.15 1.15 0 01-.265-.135l2.218-3.328zm-2.407-.556H95.74v4h1.276v-4zm-3.276 2v1.232h4v-1.232h-4zm14.034 5.104l1.462-1.365-.023-.025-.025-.024-1.414 1.414zm0-1.452l1.414 1.414-1.414-1.414zm4.004-.308v2h2v-2h-2zm.374-7.392l-1.789-.894 1.789.894zm4.312-1.364v2h2v-2h-2zm0-3.102h2V3.748l-3.344 3.033 1.344 1.481zM114.286 10l1.157 1.632.005-.005L114.286 10zm-2.508 1.628l1.011 1.725.009-.005-1.02-1.72zm-2.42 1.32l.833 1.818.031-.014.03-.015-.894-1.789zm-1.1.132l-.467 1.945.045.01.044.009.378-1.964zm-.814-.682l-1.821.828.009.019.009.019 1.803-.866zm-.066-.946l-1.88-.684-.009.026-.008.025 1.897.633zm.66-.704l.828 1.82.01-.004.01-.005-.848-1.811zm2.222-1.122l.946 1.762.013-.007.012-.007-.971-1.748zm2.332-1.386l-1.057-1.698-.007.005-.008.004 1.072 1.689zm2.068-1.408l1.206 1.595 4.755-3.595h-5.961v2zm-6.732-.308l-1.511 1.31.046.054.051.05 1.414-1.414zm0-1.474l-1.414-1.414 1.414 1.414zm8.536-.308v2h2v-2h-2zm.374-2.156l1.371 1.456-1.371-1.456zm1.826 0l-1.371 1.456.021.02.021.019 1.329-1.495zm.396 2.156h-2v2h2v-2zm8.514.308l-1.466 1.36.051.055.054.05 1.361-1.465zm0 1.474l-1.462-1.365-.004.004 1.466 1.361zm-6.666.308v-2h-5.925l4.713 3.59 1.212-1.59zm2.068 1.43l-1.072 1.689.012.007.012.007 1.048-1.703zm2.332 1.342l-.946 1.762.006.004.007.003.933-1.769zm2.244 1.122l-.848 1.811.045.021.046.02.757-1.852zm.66.704l-1.889.657.005.013.004.014 1.88-.684zm-.066.968l-1.789-.894-.007.014-.007.014 1.803.866zm-.836.682l-.45-1.949-.008.002-.009.002.467 1.945zm-1.078-.11l-.853 1.809.01.005.01.004.833-1.818zm-2.464-1.32l-1.042 1.707.011.007.011.006 1.02-1.72zm-2.53-1.694l-1.181 1.614 1.181-1.614zm-2.178-1.76l1.344-1.481-3.344-3.033v4.514h2zm0 3.168h-2v2h2v-2zm3.036.308l-.661 1.888.661-1.888zm1.254 1.056l1.789-.894-1.789.894zm.374 7.392h-2v2h2v-2zm4.004.308l-1.466 1.36 1.466-1.36zm0 1.452l-1.466-1.36-.023.024-.022.026 1.511 1.31zm-13.376-1.76h-2v2h2v-2zm6.798 0v2h2v-2h-2zm0-1.078h2v-2h-2v2zm-6.798 0v-2h-2v2h2zm0-1.782h-2v2h2v-2zm6.798 0v2h2v-2h-2zm0-1.034h2v-2h-2v2zm-6.798 0v-2h-2v2h2zm.022-1.782l-1.989-.213-.237 2.213h2.226v-2zm6.754 0v2h2.226l-.237-2.213-1.989.213zm-.396-.814l-1.109 1.664.039.026.041.025 1.029-1.715zm-5.962 0l1.029 1.715.016-.01.015-.009-1.06-1.696zm-6.27 6.58c.132 0 .286.028.437.097a.946.946 0 01.299.208l-2.924 2.73a2.96 2.96 0 002.188.965v-4zm.688.256a1.007 1.007 0 01.278.688h-4c0 .834.331 1.577.894 2.14l2.828-2.828zm.278.688a1.007 1.007 0 01-.278.688l-2.828-2.828a2.991 2.991 0 00-.894 2.14h4zm-.278.688a1.014 1.014 0 01-.688.278v-4c-.833 0-1.577.331-2.14.894l2.828 2.828zm-.688.278h3.278v-4H108.5v4zm5.278-2v-5.302h-4v5.302h4zm0-5.302c0-.752.112-1.093.163-1.196l-3.578-1.788c-.447.895-.585 1.946-.585 2.984h4zm.163-1.196c.002-.004.002-.002-.002.002l-.006.007s.036-.03.141-.066l-1.292-3.786c-1.023.35-1.901 1.02-2.419 2.055l3.578 1.788zm.133-.057c.305-.104.871-.201 1.796-.201v-4c-1.129 0-2.191.109-3.088.415l1.292 3.786zm1.796-.201h.594v-4h-.594v4zm2.594-2V8.262h-4v3.102h4zm-3.344-4.583a21.993 21.993 0 01-1.996 1.592l2.324 3.255a26.035 26.035 0 002.36-1.885l-2.688-2.962zm-1.991 1.588a34.683 34.683 0 01-2.371 1.539l2.04 3.44a38.623 38.623 0 002.645-1.716l-2.314-3.263zm-2.362 1.534c-.819.48-1.586.897-2.303 1.256l1.788 3.578a43.52 43.52 0 002.537-1.384l-2.022-3.45zm-2.242 1.227a.263.263 0 01.111-.014l-.756 3.928c.789.152 1.58.057 2.311-.278l-1.666-3.636zm.2.005a.854.854 0 01.339.175.708.708 0 01.183.223l-3.606 1.73c.413.86 1.148 1.521 2.15 1.762l.934-3.89zm.54.435a.66.66 0 01.048.21.797.797 0 01-.038.305l-3.794-1.266a3.255 3.255 0 00.142 2.407l3.642-1.656zm-.007.566a.814.814 0 01-.392.433l-1.656-3.642a3.2 3.2 0 00-1.712 1.841l3.76 1.367zm-.372.423c.728-.34 1.502-.731 2.32-1.171l-1.892-3.524c-.766.411-1.473.768-2.124 1.073l1.696 3.622zm2.345-1.185a48.56 48.56 0 002.433-1.445L111.52 6.55c-.729.463-1.473.906-2.231 1.327l1.942 3.496zm2.418-1.436a29.775 29.775 0 002.217-1.51l-2.412-3.191a26.12 26.12 0 01-1.919 1.305l2.114 3.396zm1.011-5.106h-6.006v4h6.006v-4zm-6.006 0a1.014 1.014 0 01.688.278l-2.828 2.828a2.992 2.992 0 002.14.894v-4zm.785.382a.908.908 0 01.203.562h-4c0 .783.284 1.492.775 2.058l3.022-2.62zm.203.562a1.037 1.037 0 01-.3.688l-2.828-2.828a2.98 2.98 0 00-.872 2.14h4zm-.3.688a1.014 1.014 0 01-.688.278v-4c-.833 0-1.577.331-2.14.894l2.828 2.828zm-.688.278h7.81v-4h-7.81v4zm9.81-2V3.51h-4v1.232h4zm0-1.232a.641.641 0 01-.053.233.852.852 0 01-.202.3l-2.742-2.913c-.698.657-1.003 1.517-1.003 2.38h4zm-.255.532a.75.75 0 01-.241.149.603.603 0 01-.206.043v-4c-.837 0-1.647.286-2.295.896l2.742 2.912zm-.447.192a.74.74 0 01-.469-.192l2.742-2.912a3.268 3.268 0 00-2.273-.896v4zm-.427-.153a.865.865 0 01-.212-.3.706.706 0 01-.063-.271h4c0-.901-.339-1.772-1.067-2.419l-2.658 2.99zm-.275-.571v1.232h4V3.51h-4zm2 3.232h7.788v-4h-7.788v4zm7.788 0a1.066 1.066 0 01-.74-.331l2.932-2.722a2.948 2.948 0 00-2.192-.947v4zm-.635-.226a1.06 1.06 0 01-.331-.74h4c0-.82-.313-1.603-.947-2.192l-2.722 2.932zm-.331-.74a.961.961 0 01.23-.617l2.924 2.73a3.065 3.065 0 00.846-2.113h-4zm.226-.613a1.066 1.066 0 01.74-.331v4c.82 0 1.603-.313 2.192-.947l-2.932-2.722zm.74-.331h-5.94v4h5.94v-4zm-7.152 3.59a31.491 31.491 0 002.208 1.529l2.144-3.378a27.357 27.357 0 01-1.928-1.332l-2.424 3.182zm2.232 1.543c.796.49 1.607.957 2.434 1.401l1.892-3.524a43.932 43.932 0 01-2.23-1.283l-2.096 3.406zm2.447 1.408c.83.437 1.606.826 2.329 1.164l1.696-3.622a51.105 51.105 0 01-2.159-1.08l-1.866 3.538zm2.42 1.204a.859.859 0 01-.295-.208.811.811 0 01-.177-.282l3.778-1.314a3.122 3.122 0 00-1.792-1.898l-1.514 3.702zm-.463-.463a.847.847 0 01.025-.61l3.578 1.788a3.18 3.18 0 00.157-2.546l-3.76 1.367zm.011-.582a.725.725 0 01.198-.238.805.805 0 01.319-.163l.9 3.898c1-.231 1.762-.876 2.189-1.765l-3.606-1.731zm.5-.397a.394.394 0 01.222.017l-1.666 3.636a3.614 3.614 0 002.378.237l-.934-3.89zm.242.026a27.756 27.756 0 01-2.297-1.231l-2.04 3.44c.91.54 1.788 1.011 2.631 1.409l1.706-3.618zm-2.275-1.218a34.204 34.204 0 01-2.391-1.6l-2.362 3.227a38.18 38.18 0 002.669 1.787l2.084-3.414zm-2.391-1.6a24.957 24.957 0 01-2.015-1.628l-2.688 2.962a28.917 28.917 0 002.341 1.893l2.362-3.228zm-5.359-.147v3.168h4V8.196h-4zm2 5.168h.594v-4h-.594v4zm.594 0c.947 0 1.503.098 1.781.196l1.322-3.776c-.895-.313-1.967-.42-3.103-.42v4zm1.781.196a.7.7 0 01.099.042c.019.01.026.017.027.018l-.003-.004.003.006 3.578-1.788c-.51-1.02-1.366-1.694-2.382-2.05l-1.322 3.776zm.126.062c.051.103.163.444.163 1.196h4c0-1.038-.138-2.09-.585-2.984l-3.578 1.788zm.163 1.196v5.302h4v-5.302h-4zm2 7.302h3.278v-4h-3.278v4zm3.278 0a1.066 1.066 0 01-.74-.331l2.932-2.722a2.948 2.948 0 00-2.192-.947v4zm-.74-.331a.928.928 0 01-.18-.293.94.94 0 01-.068-.342h4a3.03 3.03 0 00-.82-2.087l-2.932 2.722zm-.248-.635a.94.94 0 01.068-.343.928.928 0 01.18-.292l2.932 2.722c.532-.573.82-1.3.82-2.087h-4zm.203-.584c.075-.086.194-.188.359-.263.165-.075.317-.097.426-.097v4c.868 0 1.664-.358 2.237-1.02l-3.022-2.62zm.785-.36H108.5v4h18.502v-4zm-12.65 1.91h6.798v-4h-6.798v4zm8.798-2v-1.078h-4v1.078h4zm-2-3.078h-6.798v4h6.798v-4zm-8.798 2v1.078h4v-1.078h-4zm2 .218h6.798v-4h-6.798v4zm8.798-2v-1.034h-4v1.034h4zm-2-3.034h-6.798v4h6.798v-4zm-8.798 2v1.034h4v-1.034h-4zm2.022.218h6.754v-4h-6.754v4zm8.743-2.213c-.07-.652-.338-1.705-1.356-2.316l-2.058 3.43a1.306 1.306 0 01-.505-.538c-.065-.133-.064-.204-.059-.15l3.978-.426zm-1.276-2.265c-.73-.487-1.591-.556-2.187-.556v4c.076 0 .135.003.178.006a.485.485 0 01.066.009c.002 0-.022-.005-.067-.022a1.046 1.046 0 01-.208-.109l2.218-3.328zm-2.187-.556h-3.784v4h3.784v-4zm-3.784 0c-.614 0-1.442.076-2.16.524l2.12 3.392a.96.96 0 01-.172.086c-.035.013-.052.016-.045.014a2.139 2.139 0 01.257-.016v-4zm-2.129.505c-1.018.611-1.286 1.664-1.356 2.316l3.978.426c.005-.054.006.017-.059.15-.073.15-.227.371-.505.538l-2.058-3.43z" fill="#0C8D8D" mask="url(#a)"/></svg>