<svg width="369" height="80" fill="none" xmlns="http://www.w3.org/2000/svg"><g filter="url(#filter0_d_10944_61299)"><mask id="a" maskUnits="userSpaceOnUse" x=".5" y="0" width="365" height="77" fill="#000"><path fill="#fff" d="M.5 0h365v77H.5z"/><path d="M39.196 72.624a4.41 4.41 0 01-3.024-1.152c-.816-.768-1.224-1.776-1.224-3.024V58.08c-2.016 1.536-4.392 3.096-7.128 4.68a107.733 107.733 0 01-8.424 4.392c-2.832 1.344-5.448 2.448-7.848 3.312-1.152.432-2.208.48-3.168.144-.912-.336-1.608-1.032-2.088-2.088-.384-.96-.408-1.872-.072-2.736.384-.864 1.08-1.464 2.088-1.8a79.145 79.145 0 006.264-2.304c2.256-.96 4.488-1.968 6.696-3.024a148.226 148.226 0 006.264-3.24H9.1a2.845 2.845 0 01-2.088-.864c-.576-.624-.864-1.344-.864-2.16 0-.816.288-1.512.864-2.088A2.845 2.845 0 019.1 49.44h25.848v-3.456h-7.704c-4.224 0-7.176-.72-8.856-2.16-1.632-1.44-2.448-3.984-2.448-7.632V24.744c-.768.816-1.512 1.632-2.232 2.448a45.82 45.82 0 01-2.16 2.16c-.768.768-1.728 1.2-2.88 1.296-1.104.096-2.088-.24-2.952-1.008-.72-.672-1.104-1.512-1.152-2.52-.048-1.056.288-1.896 1.008-2.52 1.68-1.584 3.384-3.384 5.112-5.4a89.874 89.874 0 005.04-6.264c1.584-2.208 2.904-4.296 3.96-6.264.528-.96 1.296-1.608 2.304-1.944 1.056-.336 2.088-.24 3.096.288 1.008.432 1.656 1.152 1.944 2.16.288 1.008.168 1.992-.36 2.952-.288.48-.6.984-.936 1.512a14.517 14.517 0 01-1.008 1.584H35.74c.336-.816.72-1.776 1.152-2.88.48-1.152.864-2.088 1.152-2.808.528-1.248 1.344-2.064 2.448-2.448 1.104-.432 2.208-.456 3.312-.072 1.104.384 1.872 1.032 2.304 1.944.48.864.48 1.824 0 2.88-.24.48-.504 1.032-.792 1.656l-.864 1.728h19.224c.816 0 1.512.288 2.088.864.576.528.864 1.272.864 2.232 0 .912-.288 1.656-.864 2.232a2.845 2.845 0 01-2.088.864H43.372v3.024h16.632c.912 0 1.584.288 2.016.864.48.576.72 1.248.72 2.016s-.24 1.44-.72 2.016c-.432.528-1.104.792-2.016.792H43.372v3.024h16.632c.912 0 1.584.288 2.016.864.48.576.72 1.248.72 2.016s-.24 1.44-.72 2.016c-.432.528-1.104.792-2.016.792H43.372v3.024H64.54c.816 0 1.512.264 2.088.792.576.528.864 1.248.864 2.16 0 .912-.288 1.68-.864 2.304a2.845 2.845 0 01-2.088.864H43.372v3.456h25.56c.816 0 1.512.288 2.088.864.576.576.864 1.272.864 2.088 0 .816-.288 1.536-.864 2.16a2.845 2.845 0 01-2.088.864H50.716c2.928 1.584 6.12 3.12 9.576 4.608 3.456 1.488 6.648 2.712 9.576 3.672 1.008.336 1.68.984 2.016 1.944.336.912.312 1.848-.072 2.808-.432 1.008-1.128 1.68-2.088 2.016-.96.384-2.016.384-3.168 0-2.352-.864-4.944-1.968-7.776-3.312a104.801 104.801 0 01-8.28-4.32c-2.688-1.584-5.064-3.12-7.128-4.608v10.224c0 1.248-.408 2.256-1.224 3.024-.816.768-1.8 1.152-2.952 1.152zM24.004 31.152h10.944v-3.024H24.004v3.024zm0-8.712h10.944v-3.024H24.004v3.024zm4.68 17.424h6.264V36.84H24.076c.096 1.2.48 2.016 1.152 2.448.672.384 1.824.576 3.456.576zm60.408 14.832c-1.392.336-2.544.24-3.456-.288-.912-.528-1.536-1.32-1.872-2.376-.288-1.104-.144-2.112.432-3.024.576-.96 1.536-1.56 2.88-1.8a84.482 84.482 0 0011.88-3.024c3.936-1.296 7.632-2.784 11.088-4.464a86.065 86.065 0 01-3.024-2.736 39.088 39.088 0 01-2.592-3.024 99.193 99.193 0 01-4.32 3.096c-1.488.96-3 1.848-4.536 2.664a5.784 5.784 0 01-3.096.72c-1.104-.096-1.992-.672-2.664-1.728-.624-.96-.768-1.92-.432-2.88.336-1.008.984-1.752 1.944-2.232 3.552-1.776 6.912-3.984 10.08-6.624 3.168-2.688 5.856-5.352 8.064-7.992H98.38c-1.776 0-3 .288-3.672.864-.672.576-1.008 1.56-1.008 2.952v2.736c0 1.296-.432 2.28-1.296 2.952-.816.672-1.8 1.008-2.952 1.008-1.2 0-2.208-.36-3.024-1.08-.816-.768-1.224-1.776-1.224-3.024v-2.808c0-3.84.912-6.552 2.736-8.136 1.872-1.584 5.016-2.376 9.432-2.376h14.544V8.688c0-1.392.432-2.448 1.296-3.168.912-.768 2.016-1.152 3.312-1.152 1.248 0 2.328.384 3.24 1.152.912.72 1.368 1.776 1.368 3.168v3.384h14.904c4.464 0 7.608.792 9.432 2.376 1.824 1.584 2.736 4.296 2.736 8.136v2.808c0 1.248-.408 2.256-1.224 3.024-.816.72-1.824 1.08-3.024 1.08-1.152 0-2.136-.336-2.952-1.008-.816-.672-1.224-1.656-1.224-2.952V22.8c0-1.392-.336-2.376-1.008-2.952-.672-.576-1.92-.864-3.744-.864H117.82c0 .384-.048.768-.144 1.152a3.305 3.305 0 01-.504 1.008 36.936 36.936 0 01-1.584 2.016h8.64c2.208 0 3.96.408 5.256 1.224 1.344.768 2.232 1.776 2.664 3.024.48 1.2.504 2.496.072 3.888s-1.296 2.712-2.592 3.96a81.775 81.775 0 01-5.472 4.608c3.408 1.632 7.032 3 10.872 4.104a90.226 90.226 0 0011.808 2.376 4.45 4.45 0 012.736 1.584c.72.816.96 1.872.72 3.168-.24 1.344-.912 2.304-2.016 2.88-1.056.528-2.28.672-3.672.432a114.609 114.609 0 01-14.616-3.816c-4.752-1.632-9.144-3.648-13.176-6.048-3.984 2.256-8.28 4.2-12.888 5.832-4.608 1.632-9.552 3.072-14.832 4.32zm21.384 17.352c-3.312 0-5.952-.336-7.92-1.008-1.92-.672-3.312-1.8-4.176-3.384-.816-1.536-1.224-3.672-1.224-6.408s.408-4.896 1.224-6.48c.864-1.584 2.256-2.712 4.176-3.384 1.968-.672 4.608-1.008 7.92-1.008h12.744c3.36 0 6 .336 7.92 1.008 1.968.672 3.36 1.8 4.176 3.384.864 1.584 1.296 3.744 1.296 6.48s-.432 4.872-1.296 6.408c-.816 1.584-2.208 2.712-4.176 3.384-1.92.672-4.56 1.008-7.92 1.008h-12.744zm0-7.272h12.744c1.968 0 3.24-.216 3.816-.648.624-.48.936-1.44.936-2.88 0-1.488-.312-2.448-.936-2.88-.576-.48-1.848-.72-3.816-.72h-12.744c-1.92 0-3.192.24-3.816.72-.576.432-.864 1.392-.864 2.88 0 1.44.288 2.4.864 2.88.624.432 1.896.648 3.816.648zm6.624-28.944c.816-.528 1.608-1.056 2.376-1.584a47.992 47.992 0 002.304-1.728c1.104-.864 1.536-1.56 1.296-2.088-.192-.528-.96-.792-2.304-.792h-10.584a28.808 28.808 0 003.168 3.24 48.407 48.407 0 003.744 2.952zM211.06 71.4c-1.152 0-2.136-.336-2.952-1.008-.768-.672-1.2-1.608-1.296-2.808-.096-1.152.216-2.136.936-2.952.72-.864 1.68-1.32 2.88-1.368 1.632-.096 2.856-.264 3.672-.504.816-.288 1.392-.792 1.728-1.512.384-.768.696-1.92.936-3.456.288-1.536.504-3.552.648-6.048.192-2.496.336-5.256.432-8.28.096-3.024.168-6.048.216-9.072.048-1.488-.072-2.592-.36-3.312-.24-.72-.744-1.176-1.512-1.368-.72-.24-1.848-.36-3.384-.36h-.288c-.192 9.888-1.488 18.264-3.888 25.128-2.352 6.816-6.36 12.408-12.024 16.776-.864.672-1.896.936-3.096.792-1.152-.096-2.088-.6-2.808-1.512-.624-.816-.864-1.752-.72-2.808.144-1.008.6-1.824 1.368-2.448 3.264-2.448 5.832-5.352 7.704-8.712 1.92-3.408 3.312-7.344 4.176-11.808.864-4.512 1.344-9.648 1.44-15.408h-5.184c-1.2 0-2.16-.384-2.88-1.152-.672-.768-1.008-1.68-1.008-2.736 0-1.056.36-1.944 1.08-2.664a3.923 3.923 0 01-2.16.648h-29.952c-1.104 0-1.992-.36-2.664-1.08-.672-.72-1.008-1.584-1.008-2.592 0-1.056.336-1.92 1.008-2.592.672-.72 1.56-1.08 2.664-1.08h11.16V9.12c0-1.248.408-2.256 1.224-3.024.816-.768 1.8-1.152 2.952-1.152s2.136.384 2.952 1.152c.816.768 1.224 1.776 1.224 3.024v6.984h10.44c1.104 0 1.992.36 2.664 1.08.672.672 1.008 1.536 1.008 2.592 0 1.008-.336 1.848-1.008 2.52.672-.432 1.44-.648 2.304-.648h5.184V9.192c0-1.2.384-2.16 1.152-2.88.816-.72 1.752-1.08 2.808-1.08 1.104 0 2.016.36 2.736 1.08.768.72 1.152 1.68 1.152 2.88v12.456h1.368c2.832 0 5.112.336 6.84 1.008 1.728.624 3 1.8 3.816 3.528.816 1.68 1.2 4.152 1.152 7.416 0 3.12-.048 6.24-.144 9.36-.096 3.12-.24 6.048-.432 8.784-.144 2.688-.336 4.992-.576 6.912-.432 3.552-1.2 6.24-2.304 8.064-1.056 1.824-2.52 3.048-4.392 3.672-1.824.672-4.152 1.008-6.984 1.008zm-42.552-1.296c-.96.768-2.064 1.104-3.312 1.008-1.2-.048-2.184-.6-2.952-1.656-.624-.912-.864-1.896-.72-2.952.144-1.056.72-1.944 1.728-2.664 2.352-1.68 4.464-3.48 6.336-5.4a50.073 50.073 0 005.112-6.12 57.483 57.483 0 00-3.24-2.736 115.307 115.307 0 00-3.24-2.448c-1.008-.72-1.56-1.584-1.656-2.592-.096-1.056.192-2.04.864-2.952.672-.912 1.56-1.44 2.664-1.584 1.152-.192 2.208.048 3.168.72.96.672 1.92 1.368 2.88 2.088s1.92 1.488 2.88 2.304a69.483 69.483 0 003.024-7.344c.432-1.2 1.128-1.992 2.088-2.376 1.008-.432 2.04-.456 3.096-.072 1.056.336 1.824 1.008 2.304 2.016.528.96.576 2.04.144 3.24a67.136 67.136 0 01-2.088 5.112 54.821 54.821 0 01-2.376 4.752c2.544 2.4 4.776 4.632 6.696 6.696.816.912 1.176 1.944 1.08 3.096-.048 1.104-.528 2.064-1.44 2.88-.912.816-1.92 1.224-3.024 1.224-1.104-.048-2.064-.528-2.88-1.44a97.486 97.486 0 00-4.968-5.184 70.314 70.314 0 01-5.544 6.552 59.913 59.913 0 01-6.624 5.832zm-5.976-30.6c-.768-.768-1.152-1.68-1.152-2.736 0-1.056.408-1.944 1.224-2.664a72.93 72.93 0 004.248-4.32c1.44-1.584 2.664-3.048 3.672-4.392.624-.864 1.464-1.344 2.52-1.44 1.104-.144 2.04.096 2.808.72a3.904 3.904 0 011.512 2.448c.192 1.008-.024 1.944-.648 2.808-1.104 1.488-2.424 3.096-3.96 4.824-1.488 1.728-2.88 3.216-4.176 4.464a5.472 5.472 0 01-3.024 1.368c-1.152.096-2.16-.264-3.024-1.08zm34.848-.648c-.768.72-1.728 1.056-2.88 1.008-1.104-.096-2.016-.528-2.736-1.296-.672-.768-1.536-1.656-2.592-2.664l-3.168-3.024a77.893 77.893 0 00-2.664-2.448c-.768-.72-1.128-1.584-1.08-2.592a3.806 3.806 0 011.152-2.592 4.155 4.155 0 012.736-1.152c1.104-.096 2.088.264 2.952 1.08.72.624 1.608 1.44 2.664 2.448l3.312 3.024c1.104 1.008 1.968 1.872 2.592 2.592.768.816 1.128 1.776 1.08 2.88-.048 1.056-.504 1.968-1.368 2.736zm74.952 33.48c-1.152 0-2.136-.384-2.952-1.152-.816-.768-1.224-1.776-1.224-3.024V52.608c-1.824 1.92-3.984 3.864-6.48 5.832a107.717 107.717 0 01-7.704 5.544c-2.592 1.68-5.016 3.12-7.272 4.32-1.2.624-2.424.792-3.672.504-1.248-.24-2.136-.888-2.664-1.944s-.648-2.112-.36-3.168c.336-1.056 1.032-1.848 2.088-2.376 2.16-1.008 4.44-2.232 6.84-3.672a119.728 119.728 0 007.128-4.536c2.352-1.632 4.44-3.192 6.264-4.68h-19.44c-1.104 0-1.992-.336-2.664-1.008-.624-.72-.936-1.584-.936-2.592 0-.96.312-1.776.936-2.448.672-.72 1.56-1.08 2.664-1.08h25.272V36.84h-3.888c-4.128 0-7.392-.36-9.792-1.08-2.352-.768-4.032-2.064-5.04-3.888-1.008-1.824-1.512-4.344-1.512-7.56v-4.464c0-3.264.504-5.784 1.512-7.56 1.008-1.824 2.688-3.096 5.04-3.816 2.4-.768 5.664-1.152 9.792-1.152h16.344c4.128 0 7.368.384 9.72 1.152 2.4.72 4.104 1.992 5.112 3.816 1.008 1.776 1.512 4.296 1.512 7.56v4.464c0 3.216-.504 5.736-1.512 7.56-1.008 1.824-2.712 3.12-5.112 3.888-2.352.72-5.592 1.08-9.72 1.08h-4.104v4.464h25.2c1.104 0 1.968.36 2.592 1.08.672.672 1.008 1.488 1.008 2.448 0 1.008-.336 1.872-1.008 2.592-.624.672-1.488 1.008-2.592 1.008h-19.152a142.097 142.097 0 006.264 4.68 161.61 161.61 0 007.128 4.536c2.448 1.44 4.728 2.664 6.84 3.672 1.104.48 1.8 1.272 2.088 2.376.288 1.056.168 2.088-.36 3.096-.528 1.056-1.416 1.704-2.664 1.944-1.2.288-2.424.12-3.672-.504-2.256-1.2-4.728-2.664-7.416-4.392a107.717 107.717 0 01-7.704-5.544c-2.496-2.016-4.68-3.984-6.552-5.904V68.16c0 1.248-.408 2.256-1.224 3.024-.816.768-1.8 1.152-2.952 1.152zm4.176-42.192h4.104c2.016 0 3.552-.12 4.608-.36 1.056-.24 1.776-.696 2.16-1.368.432-.72.672-1.8.72-3.24h-11.592v4.968zm0-11.16H288.1c-.048-1.44-.288-2.52-.72-3.24-.384-.72-1.104-1.176-2.16-1.368-1.056-.24-2.592-.36-4.608-.36h-4.104v4.968zm-12.24 11.16h3.888v-4.968h-11.448c.096 1.44.336 2.52.72 3.24.432.672 1.176 1.128 2.232 1.368 1.056.24 2.592.36 4.608.36zm-7.56-11.16h11.448v-4.968h-3.888c-2.016 0-3.552.12-4.608.36-1.056.192-1.8.648-2.232 1.368-.384.72-.624 1.8-.72 3.24zm74.112 48.168c-.768-.096-1.392-.464-1.872-1.104-.48-.608-.672-1.312-.576-2.112.096-.8.448-1.44 1.056-1.92.64-.48 1.36-.672 2.16-.576.992.128 1.872.16 2.64.096a3.42 3.42 0 002.064-1.008c.576-.576 1.088-1.52 1.536-2.832.448-1.312.832-3.12 1.152-5.424.288-2.016.304-3.584.048-4.704-.224-1.152-.816-1.936-1.776-2.352-.96-.448-2.384-.608-4.272-.48a77.081 77.081 0 01-2.784 7.872 73.212 73.212 0 01-3.504 7.488c-1.28 2.336-2.672 4.448-4.176 6.336-.512.608-1.152.96-1.92 1.056-.768.128-1.472-.048-2.112-.528a3.109 3.109 0 01-1.104-1.92c-.096-.8.112-1.504.624-2.112 1.888-2.304 3.6-5.008 5.136-8.112a69.267 69.267 0 003.888-9.6c-.992.128-2.016.256-3.072.384-1.024.096-2.032.192-3.024.288-.8.064-1.504-.144-2.112-.624-.608-.48-.96-1.12-1.056-1.92-.064-.8.144-1.504.624-2.112.48-.64 1.12-.992 1.92-1.056a87.95 87.95 0 014.176-.384 96.102 96.102 0 014.128-.288c.352-1.44.624-2.848.816-4.224a47.42 47.42 0 00.384-4.032c.064-.8.384-1.456.96-1.968.608-.544 1.312-.784 2.112-.72.8.032 1.456.352 1.968.96.544.576.784 1.264.72 2.064a90.576 90.576 0 01-.48 3.696 64.365 64.365 0 01-.72 3.936c4.352.064 7.296 1.232 8.832 3.504 1.568 2.272 2.032 5.712 1.392 10.32-.512 3.968-1.344 7.04-2.496 9.216-1.12 2.176-2.608 3.616-4.464 4.32-1.856.736-4.128.928-6.816.576zm26.784-14.112a2.804 2.804 0 01-2.208.24 2.785 2.785 0 01-1.728-1.392c-.544-1.024-1.232-2.096-2.064-3.216a53.83 53.83 0 00-2.592-3.312c-.864-1.088-1.696-2.016-2.496-2.784-.576-.544-.88-1.2-.912-1.968-.032-.8.224-1.488.768-2.064.544-.576 1.2-.864 1.968-.864.8-.032 1.488.224 2.064.768a34.725 34.725 0 013.072 3.312 45.539 45.539 0 012.928 3.744c.928 1.28 1.696 2.496 2.304 3.648.384.704.464 1.44.24 2.208-.192.736-.64 1.296-1.344 1.68zm-4.032-14.448a42.466 42.466 0 00-1.584-1.488 24.475 24.475 0 00-1.728-1.584c-.32-.288-.512-.688-.576-1.2-.032-.512.128-.976.48-1.392.352-.416.768-.64 1.248-.672.512-.032.976.08 1.392.336.544.32 1.168.784 1.872 1.392a20.286 20.286 0 011.824 1.584c.416.416.624.912.624 1.488 0 .544-.192 1.04-.576 1.488-.384.416-.88.64-1.488.672a2.031 2.031 0 01-1.488-.624zm4.032-4.512a45.134 45.134 0 00-1.728-1.392 84.83 84.83 0 00-1.824-1.44c-.32-.288-.528-.688-.624-1.2a1.83 1.83 0 01.384-1.392c.288-.416.672-.656 1.152-.72a2.053 2.053 0 011.44.24c.544.288 1.2.704 1.968 1.248.768.512 1.408.992 1.92 1.44.448.384.688.864.72 1.44a2.209 2.209 0 01-.48 1.536c-.32.448-.784.704-1.392.768-.576.064-1.088-.112-1.536-.528z"/></mask><path d="M39.196 72.624a4.41 4.41 0 01-3.024-1.152c-.816-.768-1.224-1.776-1.224-3.024V58.08c-2.016 1.536-4.392 3.096-7.128 4.68a107.733 107.733 0 01-8.424 4.392c-2.832 1.344-5.448 2.448-7.848 3.312-1.152.432-2.208.48-3.168.144-.912-.336-1.608-1.032-2.088-2.088-.384-.96-.408-1.872-.072-2.736.384-.864 1.08-1.464 2.088-1.8a79.145 79.145 0 006.264-2.304c2.256-.96 4.488-1.968 6.696-3.024a148.226 148.226 0 006.264-3.24H9.1a2.845 2.845 0 01-2.088-.864c-.576-.624-.864-1.344-.864-2.16 0-.816.288-1.512.864-2.088A2.845 2.845 0 019.1 49.44h25.848v-3.456h-7.704c-4.224 0-7.176-.72-8.856-2.16-1.632-1.44-2.448-3.984-2.448-7.632V24.744c-.768.816-1.512 1.632-2.232 2.448a45.82 45.82 0 01-2.16 2.16c-.768.768-1.728 1.2-2.88 1.296-1.104.096-2.088-.24-2.952-1.008-.72-.672-1.104-1.512-1.152-2.52-.048-1.056.288-1.896 1.008-2.52 1.68-1.584 3.384-3.384 5.112-5.4a89.874 89.874 0 005.04-6.264c1.584-2.208 2.904-4.296 3.96-6.264.528-.96 1.296-1.608 2.304-1.944 1.056-.336 2.088-.24 3.096.288 1.008.432 1.656 1.152 1.944 2.16.288 1.008.168 1.992-.36 2.952-.288.48-.6.984-.936 1.512a14.517 14.517 0 01-1.008 1.584H35.74c.336-.816.72-1.776 1.152-2.88.48-1.152.864-2.088 1.152-2.808.528-1.248 1.344-2.064 2.448-2.448 1.104-.432 2.208-.456 3.312-.072 1.104.384 1.872 1.032 2.304 1.944.48.864.48 1.824 0 2.88-.24.48-.504 1.032-.792 1.656l-.864 1.728h19.224c.816 0 1.512.288 2.088.864.576.528.864 1.272.864 2.232 0 .912-.288 1.656-.864 2.232a2.845 2.845 0 01-2.088.864H43.372v3.024h16.632c.912 0 1.584.288 2.016.864.48.576.72 1.248.72 2.016s-.24 1.44-.72 2.016c-.432.528-1.104.792-2.016.792H43.372v3.024h16.632c.912 0 1.584.288 2.016.864.48.576.72 1.248.72 2.016s-.24 1.44-.72 2.016c-.432.528-1.104.792-2.016.792H43.372v3.024H64.54c.816 0 1.512.264 2.088.792.576.528.864 1.248.864 2.16 0 .912-.288 1.68-.864 2.304a2.845 2.845 0 01-2.088.864H43.372v3.456h25.56c.816 0 1.512.288 2.088.864.576.576.864 1.272.864 2.088 0 .816-.288 1.536-.864 2.16a2.845 2.845 0 01-2.088.864H50.716c2.928 1.584 6.12 3.12 9.576 4.608 3.456 1.488 6.648 2.712 9.576 3.672 1.008.336 1.68.984 2.016 1.944.336.912.312 1.848-.072 2.808-.432 1.008-1.128 1.68-2.088 2.016-.96.384-2.016.384-3.168 0-2.352-.864-4.944-1.968-7.776-3.312a104.801 104.801 0 01-8.28-4.32c-2.688-1.584-5.064-3.12-7.128-4.608v10.224c0 1.248-.408 2.256-1.224 3.024-.816.768-1.8 1.152-2.952 1.152zM24.004 31.152h10.944v-3.024H24.004v3.024zm0-8.712h10.944v-3.024H24.004v3.024zm4.68 17.424h6.264V36.84H24.076c.096 1.2.48 2.016 1.152 2.448.672.384 1.824.576 3.456.576zm60.408 14.832c-1.392.336-2.544.24-3.456-.288-.912-.528-1.536-1.32-1.872-2.376-.288-1.104-.144-2.112.432-3.024.576-.96 1.536-1.56 2.88-1.8a84.482 84.482 0 0011.88-3.024c3.936-1.296 7.632-2.784 11.088-4.464a86.065 86.065 0 01-3.024-2.736 39.088 39.088 0 01-2.592-3.024 99.193 99.193 0 01-4.32 3.096c-1.488.96-3 1.848-4.536 2.664a5.784 5.784 0 01-3.096.72c-1.104-.096-1.992-.672-2.664-1.728-.624-.96-.768-1.92-.432-2.88.336-1.008.984-1.752 1.944-2.232 3.552-1.776 6.912-3.984 10.08-6.624 3.168-2.688 5.856-5.352 8.064-7.992H98.38c-1.776 0-3 .288-3.672.864-.672.576-1.008 1.56-1.008 2.952v2.736c0 1.296-.432 2.28-1.296 2.952-.816.672-1.8 1.008-2.952 1.008-1.2 0-2.208-.36-3.024-1.08-.816-.768-1.224-1.776-1.224-3.024v-2.808c0-3.84.912-6.552 2.736-8.136 1.872-1.584 5.016-2.376 9.432-2.376h14.544V8.688c0-1.392.432-2.448 1.296-3.168.912-.768 2.016-1.152 3.312-1.152 1.248 0 2.328.384 3.24 1.152.912.72 1.368 1.776 1.368 3.168v3.384h14.904c4.464 0 7.608.792 9.432 2.376 1.824 1.584 2.736 4.296 2.736 8.136v2.808c0 1.248-.408 2.256-1.224 3.024-.816.72-1.824 1.08-3.024 1.08-1.152 0-2.136-.336-2.952-1.008-.816-.672-1.224-1.656-1.224-2.952V22.8c0-1.392-.336-2.376-1.008-2.952-.672-.576-1.92-.864-3.744-.864H117.82c0 .384-.048.768-.144 1.152a3.305 3.305 0 01-.504 1.008 36.936 36.936 0 01-1.584 2.016h8.64c2.208 0 3.96.408 5.256 1.224 1.344.768 2.232 1.776 2.664 3.024.48 1.2.504 2.496.072 3.888s-1.296 2.712-2.592 3.96a81.775 81.775 0 01-5.472 4.608c3.408 1.632 7.032 3 10.872 4.104a90.226 90.226 0 0011.808 2.376 4.45 4.45 0 012.736 1.584c.72.816.96 1.872.72 3.168-.24 1.344-.912 2.304-2.016 2.88-1.056.528-2.28.672-3.672.432a114.609 114.609 0 01-14.616-3.816c-4.752-1.632-9.144-3.648-13.176-6.048-3.984 2.256-8.28 4.2-12.888 5.832-4.608 1.632-9.552 3.072-14.832 4.32zm21.384 17.352c-3.312 0-5.952-.336-7.92-1.008-1.92-.672-3.312-1.8-4.176-3.384-.816-1.536-1.224-3.672-1.224-6.408s.408-4.896 1.224-6.48c.864-1.584 2.256-2.712 4.176-3.384 1.968-.672 4.608-1.008 7.92-1.008h12.744c3.36 0 6 .336 7.92 1.008 1.968.672 3.36 1.8 4.176 3.384.864 1.584 1.296 3.744 1.296 6.48s-.432 4.872-1.296 6.408c-.816 1.584-2.208 2.712-4.176 3.384-1.92.672-4.56 1.008-7.92 1.008h-12.744zm0-7.272h12.744c1.968 0 3.24-.216 3.816-.648.624-.48.936-1.44.936-2.88 0-1.488-.312-2.448-.936-2.88-.576-.48-1.848-.72-3.816-.72h-12.744c-1.92 0-3.192.24-3.816.72-.576.432-.864 1.392-.864 2.88 0 1.44.288 2.4.864 2.88.624.432 1.896.648 3.816.648zm6.624-28.944c.816-.528 1.608-1.056 2.376-1.584a47.992 47.992 0 002.304-1.728c1.104-.864 1.536-1.56 1.296-2.088-.192-.528-.96-.792-2.304-.792h-10.584a28.808 28.808 0 003.168 3.24 48.407 48.407 0 003.744 2.952zM211.06 71.4c-1.152 0-2.136-.336-2.952-1.008-.768-.672-1.2-1.608-1.296-2.808-.096-1.152.216-2.136.936-2.952.72-.864 1.68-1.32 2.88-1.368 1.632-.096 2.856-.264 3.672-.504.816-.288 1.392-.792 1.728-1.512.384-.768.696-1.92.936-3.456.288-1.536.504-3.552.648-6.048.192-2.496.336-5.256.432-8.28.096-3.024.168-6.048.216-9.072.048-1.488-.072-2.592-.36-3.312-.24-.72-.744-1.176-1.512-1.368-.72-.24-1.848-.36-3.384-.36h-.288c-.192 9.888-1.488 18.264-3.888 25.128-2.352 6.816-6.36 12.408-12.024 16.776-.864.672-1.896.936-3.096.792-1.152-.096-2.088-.6-2.808-1.512-.624-.816-.864-1.752-.72-2.808.144-1.008.6-1.824 1.368-2.448 3.264-2.448 5.832-5.352 7.704-8.712 1.92-3.408 3.312-7.344 4.176-11.808.864-4.512 1.344-9.648 1.44-15.408h-5.184c-1.2 0-2.16-.384-2.88-1.152-.672-.768-1.008-1.68-1.008-2.736 0-1.056.36-1.944 1.08-2.664a3.923 3.923 0 01-2.16.648h-29.952c-1.104 0-1.992-.36-2.664-1.08-.672-.72-1.008-1.584-1.008-2.592 0-1.056.336-1.92 1.008-2.592.672-.72 1.56-1.08 2.664-1.08h11.16V9.12c0-1.248.408-2.256 1.224-3.024.816-.768 1.8-1.152 2.952-1.152s2.136.384 2.952 1.152c.816.768 1.224 1.776 1.224 3.024v6.984h10.44c1.104 0 1.992.36 2.664 1.08.672.672 1.008 1.536 1.008 2.592 0 1.008-.336 1.848-1.008 2.52.672-.432 1.44-.648 2.304-.648h5.184V9.192c0-1.2.384-2.16 1.152-2.88.816-.72 1.752-1.08 2.808-1.08 1.104 0 2.016.36 2.736 1.08.768.72 1.152 1.68 1.152 2.88v12.456h1.368c2.832 0 5.112.336 6.84 1.008 1.728.624 3 1.8 3.816 3.528.816 1.68 1.2 4.152 1.152 7.416 0 3.12-.048 6.24-.144 9.36-.096 3.12-.24 6.048-.432 8.784-.144 2.688-.336 4.992-.576 6.912-.432 3.552-1.2 6.24-2.304 8.064-1.056 1.824-2.52 3.048-4.392 3.672-1.824.672-4.152 1.008-6.984 1.008zm-42.552-1.296c-.96.768-2.064 1.104-3.312 1.008-1.2-.048-2.184-.6-2.952-1.656-.624-.912-.864-1.896-.72-2.952.144-1.056.72-1.944 1.728-2.664 2.352-1.68 4.464-3.48 6.336-5.4a50.073 50.073 0 005.112-6.12 57.483 57.483 0 00-3.24-2.736 115.307 115.307 0 00-3.24-2.448c-1.008-.72-1.56-1.584-1.656-2.592-.096-1.056.192-2.04.864-2.952.672-.912 1.56-1.44 2.664-1.584 1.152-.192 2.208.048 3.168.72.96.672 1.92 1.368 2.88 2.088s1.92 1.488 2.88 2.304a69.483 69.483 0 003.024-7.344c.432-1.2 1.128-1.992 2.088-2.376 1.008-.432 2.04-.456 3.096-.072 1.056.336 1.824 1.008 2.304 2.016.528.96.576 2.04.144 3.24a67.136 67.136 0 01-2.088 5.112 54.821 54.821 0 01-2.376 4.752c2.544 2.4 4.776 4.632 6.696 6.696.816.912 1.176 1.944 1.08 3.096-.048 1.104-.528 2.064-1.44 2.88-.912.816-1.92 1.224-3.024 1.224-1.104-.048-2.064-.528-2.88-1.44a97.486 97.486 0 00-4.968-5.184 70.314 70.314 0 01-5.544 6.552 59.913 59.913 0 01-6.624 5.832zm-5.976-30.6c-.768-.768-1.152-1.68-1.152-2.736 0-1.056.408-1.944 1.224-2.664a72.93 72.93 0 004.248-4.32c1.44-1.584 2.664-3.048 3.672-4.392.624-.864 1.464-1.344 2.52-1.44 1.104-.144 2.04.096 2.808.72a3.904 3.904 0 011.512 2.448c.192 1.008-.024 1.944-.648 2.808-1.104 1.488-2.424 3.096-3.96 4.824-1.488 1.728-2.88 3.216-4.176 4.464a5.472 5.472 0 01-3.024 1.368c-1.152.096-2.16-.264-3.024-1.08zm34.848-.648c-.768.72-1.728 1.056-2.88 1.008-1.104-.096-2.016-.528-2.736-1.296-.672-.768-1.536-1.656-2.592-2.664l-3.168-3.024a77.893 77.893 0 00-2.664-2.448c-.768-.72-1.128-1.584-1.08-2.592a3.806 3.806 0 011.152-2.592 4.155 4.155 0 012.736-1.152c1.104-.096 2.088.264 2.952 1.08.72.624 1.608 1.44 2.664 2.448l3.312 3.024c1.104 1.008 1.968 1.872 2.592 2.592.768.816 1.128 1.776 1.08 2.88-.048 1.056-.504 1.968-1.368 2.736zm74.952 33.48c-1.152 0-2.136-.384-2.952-1.152-.816-.768-1.224-1.776-1.224-3.024V52.608c-1.824 1.92-3.984 3.864-6.48 5.832a107.717 107.717 0 01-7.704 5.544c-2.592 1.68-5.016 3.12-7.272 4.32-1.2.624-2.424.792-3.672.504-1.248-.24-2.136-.888-2.664-1.944s-.648-2.112-.36-3.168c.336-1.056 1.032-1.848 2.088-2.376 2.16-1.008 4.44-2.232 6.84-3.672a119.728 119.728 0 007.128-4.536c2.352-1.632 4.44-3.192 6.264-4.68h-19.44c-1.104 0-1.992-.336-2.664-1.008-.624-.72-.936-1.584-.936-2.592 0-.96.312-1.776.936-2.448.672-.72 1.56-1.08 2.664-1.08h25.272V36.84h-3.888c-4.128 0-7.392-.36-9.792-1.08-2.352-.768-4.032-2.064-5.04-3.888-1.008-1.824-1.512-4.344-1.512-7.56v-4.464c0-3.264.504-5.784 1.512-7.56 1.008-1.824 2.688-3.096 5.04-3.816 2.4-.768 5.664-1.152 9.792-1.152h16.344c4.128 0 7.368.384 9.72 1.152 2.4.72 4.104 1.992 5.112 3.816 1.008 1.776 1.512 4.296 1.512 7.56v4.464c0 3.216-.504 5.736-1.512 7.56-1.008 1.824-2.712 3.12-5.112 3.888-2.352.72-5.592 1.08-9.72 1.08h-4.104v4.464h25.2c1.104 0 1.968.36 2.592 1.08.672.672 1.008 1.488 1.008 2.448 0 1.008-.336 1.872-1.008 2.592-.624.672-1.488 1.008-2.592 1.008h-19.152a142.097 142.097 0 006.264 4.68 161.61 161.61 0 007.128 4.536c2.448 1.44 4.728 2.664 6.84 3.672 1.104.48 1.8 1.272 2.088 2.376.288 1.056.168 2.088-.36 3.096-.528 1.056-1.416 1.704-2.664 1.944-1.2.288-2.424.12-3.672-.504-2.256-1.2-4.728-2.664-7.416-4.392a107.717 107.717 0 01-7.704-5.544c-2.496-2.016-4.68-3.984-6.552-5.904V68.16c0 1.248-.408 2.256-1.224 3.024-.816.768-1.8 1.152-2.952 1.152zm4.176-42.192h4.104c2.016 0 3.552-.12 4.608-.36 1.056-.24 1.776-.696 2.16-1.368.432-.72.672-1.8.72-3.24h-11.592v4.968zm0-11.16H288.1c-.048-1.44-.288-2.52-.72-3.24-.384-.72-1.104-1.176-2.16-1.368-1.056-.24-2.592-.36-4.608-.36h-4.104v4.968zm-12.24 11.16h3.888v-4.968h-11.448c.096 1.44.336 2.52.72 3.24.432.672 1.176 1.128 2.232 1.368 1.056.24 2.592.36 4.608.36zm-7.56-11.16h11.448v-4.968h-3.888c-2.016 0-3.552.12-4.608.36-1.056.192-1.8.648-2.232 1.368-.384.72-.624 1.8-.72 3.24zm74.112 48.168c-.768-.096-1.392-.464-1.872-1.104-.48-.608-.672-1.312-.576-2.112.096-.8.448-1.44 1.056-1.92.64-.48 1.36-.672 2.16-.576.992.128 1.872.16 2.64.096a3.42 3.42 0 002.064-1.008c.576-.576 1.088-1.52 1.536-2.832.448-1.312.832-3.12 1.152-5.424.288-2.016.304-3.584.048-4.704-.224-1.152-.816-1.936-1.776-2.352-.96-.448-2.384-.608-4.272-.48a77.081 77.081 0 01-2.784 7.872 73.212 73.212 0 01-3.504 7.488c-1.28 2.336-2.672 4.448-4.176 6.336-.512.608-1.152.96-1.92 1.056-.768.128-1.472-.048-2.112-.528a3.109 3.109 0 01-1.104-1.92c-.096-.8.112-1.504.624-2.112 1.888-2.304 3.6-5.008 5.136-8.112a69.267 69.267 0 003.888-9.6c-.992.128-2.016.256-3.072.384-1.024.096-2.032.192-3.024.288-.8.064-1.504-.144-2.112-.624-.608-.48-.96-1.12-1.056-1.92-.064-.8.144-1.504.624-2.112.48-.64 1.12-.992 1.92-1.056a87.95 87.95 0 014.176-.384 96.102 96.102 0 014.128-.288c.352-1.44.624-2.848.816-4.224a47.42 47.42 0 00.384-4.032c.064-.8.384-1.456.96-1.968.608-.544 1.312-.784 2.112-.72.8.032 1.456.352 1.968.96.544.576.784 1.264.72 2.064a90.576 90.576 0 01-.48 3.696 64.365 64.365 0 01-.72 3.936c4.352.064 7.296 1.232 8.832 3.504 1.568 2.272 2.032 5.712 1.392 10.32-.512 3.968-1.344 7.04-2.496 9.216-1.12 2.176-2.608 3.616-4.464 4.32-1.856.736-4.128.928-6.816.576zm26.784-14.112a2.804 2.804 0 01-2.208.24 2.785 2.785 0 01-1.728-1.392c-.544-1.024-1.232-2.096-2.064-3.216a53.83 53.83 0 00-2.592-3.312c-.864-1.088-1.696-2.016-2.496-2.784-.576-.544-.88-1.2-.912-1.968-.032-.8.224-1.488.768-2.064.544-.576 1.2-.864 1.968-.864.8-.032 1.488.224 2.064.768a34.725 34.725 0 013.072 3.312 45.539 45.539 0 012.928 3.744c.928 1.28 1.696 2.496 2.304 3.648.384.704.464 1.44.24 2.208-.192.736-.64 1.296-1.344 1.68zm-4.032-14.448a42.466 42.466 0 00-1.584-1.488 24.475 24.475 0 00-1.728-1.584c-.32-.288-.512-.688-.576-1.2-.032-.512.128-.976.48-1.392.352-.416.768-.64 1.248-.672.512-.032.976.08 1.392.336.544.32 1.168.784 1.872 1.392a20.286 20.286 0 011.824 1.584c.416.416.624.912.624 1.488 0 .544-.192 1.04-.576 1.488-.384.416-.88.64-1.488.672a2.031 2.031 0 01-1.488-.624zm4.032-4.512a45.134 45.134 0 00-1.728-1.392 84.83 84.83 0 00-1.824-1.44c-.32-.288-.528-.688-.624-1.2a1.83 1.83 0 01.384-1.392c.288-.416.672-.656 1.152-.72a2.053 2.053 0 011.44.24c.544.288 1.2.704 1.968 1.248.768.512 1.408.992 1.92 1.44.448.384.688.864.72 1.44a2.209 2.209 0 01-.48 1.536c-.32.448-.784.704-1.392.768-.576.064-1.088-.112-1.536-.528z" fill="#fff"/><path d="M36.172 71.472l-2.741 2.913.084.077 2.657-2.99zM34.948 58.08h4a4 4 0 00-6.424-3.182l2.424 3.182zm-7.128 4.68l2.004 3.462-2.004-3.462zm-8.424 4.392l-1.692-3.625a1.688 1.688 0 00-.023.011l1.715 3.614zm-7.848 3.312L10.193 66.7a4.192 4.192 0 00-.05.019l1.405 3.745zm-3.168.144l-1.383 3.753.062.022 1.321-3.775zM6.292 68.52l-3.714 1.486c.023.057.047.113.073.17l3.641-1.656zm-.072-2.736l-3.655-1.625a3.8 3.8 0 00-.073.175l3.728 1.45zm2.088-1.8l-1.209-3.813a3.72 3.72 0 00-.056.018l1.265 3.795zm6.264-2.304l1.527 3.697.04-.016-1.567-3.681zm6.696-3.024l1.726 3.608.032-.015-1.758-3.593zm6.264-3.24l1.928 3.505a4 4 0 00-1.928-7.505v4zm-20.52-.864l-2.94 2.713c.037.04.074.078.112.115l2.828-2.828zm0-4.248l-2.828-2.828 2.828 2.828zm27.936-.864v4a4 4 0 004-4h-4zm0-3.456h4a4 4 0 00-4-4v4zm-16.56-2.16l-2.647 3 .044.037 2.603-3.037zm-2.448-19.08h4a4 4 0 00-6.913-2.741l2.913 2.741zm-2.232 2.448l2.918 2.736.081-.09-2.999-2.646zm-2.16 2.16l-2.73-2.924a3.894 3.894 0 00-.098.096l2.828 2.828zm-2.88 1.296l-.332-3.986-.015.001.347 3.985zM5.716 29.64l-2.73 2.924.073.066 2.657-2.99zm-1.152-2.52l-3.996.182v.008l3.996-.19zm1.008-2.52l2.62 3.023a4.36 4.36 0 00.124-.113L5.572 24.6zm5.112-5.4l-3.001-2.644a3.568 3.568 0 00-.036.04l3.037 2.604zm5.04-6.264l3.226 2.366.024-.034-3.25-2.332zm3.96-6.264l-3.505-1.928a4.711 4.711 0 00-.02.037l3.525 1.891zm2.304-1.944L20.775.916a3.89 3.89 0 00-.052.017l1.265 3.795zm3.096.288l-1.856 3.543c.092.048.185.093.28.134l1.576-3.677zm1.944 2.16l3.846-1.099-3.846 1.099zm-.36 2.952l3.43 2.058c.026-.043.05-.086.075-.13l-3.505-1.928zm-.936 1.512l-3.375-2.148a3.954 3.954 0 00-.137.233l3.512 1.915zm-1.008 1.584l-3.235-2.353a4 4 0 003.235 6.353v-4zm11.016 0v4a4 4 0 003.699-2.477l-3.699-1.523zm1.152-2.88L33.2 8.806a3.925 3.925 0 00-.033.08l3.725 1.458zm1.152-2.808L34.36 5.977l-.03.073 3.714 1.486zm2.448-2.448l1.314 3.778c.048-.017.096-.034.144-.053l-1.458-3.725zm3.312-.072l1.314-3.778-1.314 3.778zm2.304 1.944l-3.615 1.712c.037.078.076.155.118.23l3.497-1.942zm0 2.88l3.578 1.789a3.27 3.27 0 00.063-.134L46.108 9.84zm-.792 1.656l3.578 1.789.054-.113-3.632-1.676zm-.864 1.728l-3.578-1.789a4 4 0 003.578 5.789v-4zm21.312.864l-2.828 2.828c.04.041.082.081.125.12l2.703-2.948zm0 4.464l-2.828-2.828 2.828 2.828zm-22.392.864v-4a4 4 0 00-4 4h4zm0 3.024h-4a4 4 0 004 4v-4zm18.648.864l-3.2 2.4a3.3 3.3 0 00.127.16l3.073-2.56zm0 4.032l-3.073-2.56-.023.027 3.096 2.533zm-18.648.792v-4a4 4 0 00-4 4h4zm0 3.024h-4a4 4 0 004 4v-4zm18.648.864l-3.2 2.4a3.3 3.3 0 00.127.16l3.073-2.56zm0 4.032l-3.073-2.56-.023.027 3.096 2.533zm-18.648.792v-4a4 4 0 00-4 4h4zm0 3.024h-4a4 4 0 004 4v-4zm23.256.792l2.703-2.949-2.703 2.949zm0 4.464l2.828 2.828c.038-.037.075-.076.111-.115l-2.939-2.713zm-23.256.864v-4a4 4 0 00-4 4h4zm0 3.456h-4a4 4 0 004 4v-4zm27.648.864l2.828-2.828-2.828 2.828zm0 4.248l2.828 2.828c.038-.037.075-.076.111-.115l-2.939-2.713zm-20.304.864v-4a4 4 0 00-1.903 7.518l1.903-3.518zm9.576 4.608l1.582-3.674-1.582 3.674zm9.576 3.672l1.265-3.795a1.363 1.363 0 00-.019-.006l-1.246 3.801zm2.016 1.944l-3.775 1.321.022.062 3.753-1.383zm-.072 2.808l3.677 1.576.037-.09-3.714-1.486zm-2.088 2.016l-1.321-3.775c-.056.019-.11.04-.165.061l1.486 3.714zm-3.168 0l-1.38 3.755.115.04 1.265-3.795zm-7.776-3.312l1.715-3.614-.027-.012-1.688 3.626zm-8.28-4.32l-2.03 3.446.026.016 2.004-3.462zm-7.128-4.608l2.34-3.245a4 4 0 00-6.34 3.245h4zM24.004 31.152h-4a4 4 0 004 4v-4zm10.944 0v4a4 4 0 004-4h-4zm0-3.024h4a4 4 0 00-4-4v4zm-10.944 0v-4a4 4 0 00-4 4h4zm0-5.688h-4a4 4 0 004 4v-4zm10.944 0v4a4 4 0 004-4h-4zm0-3.024h4a4 4 0 00-4-4v4zm-10.944 0v-4a4 4 0 00-4 4h4zm10.944 20.448v4a4 4 0 004-4h-4zm0-3.024h4a4 4 0 00-4-4v4zm-10.872 0v-4a4 4 0 00-3.987 4.319l3.987-.319zm1.152 2.448l-2.163 3.365c.058.037.118.073.178.108l1.985-3.473zm13.968 29.336a.54.54 0 01-.196-.026.567.567 0 01-.17-.116l-5.316 5.98a8.407 8.407 0 005.682 2.162v-8zm-.282-.065c-.006-.005.002.002.016.022a.32.32 0 01.032.058c.006.016.003.015-.001-.012a1.04 1.04 0 01-.013-.179h-8c0 2.212.768 4.323 2.483 5.937l5.483-5.826zm.034-.111V58.08h-8v10.368h8zm-6.424-13.55c-1.854 1.413-4.084 2.881-6.708 4.4l4.008 6.924c2.848-1.649 5.37-3.3 7.548-4.96l-4.848-6.364zm-6.708 4.4a103.766 103.766 0 01-8.111 4.23l3.383 7.249a111.7 111.7 0 008.736-4.555l-4.008-6.924zm-8.135 4.24c-2.74 1.3-5.234 2.351-7.488 3.162l2.71 7.528c2.546-.917 5.284-2.075 8.208-3.462l-3.43-7.228zm-7.538 3.18a1.497 1.497 0 01-.433.11c-.038.002-.03-.003-.009.005l-2.642 7.55c2.019.707 4.056.516 5.894-.174l-2.81-7.49zm-.38.137a.705.705 0 01.24.15c.045.046.007.027-.07-.14l-7.282 3.31c.83 1.827 2.24 3.41 4.346 4.186l2.766-7.506zm.243.18c-.04-.099-.023-.1-.021-.024a.622.622 0 01-.037.223l-7.456-2.9c-.747 1.92-.627 3.888.086 5.672l7.428-2.972zm-.13.374a.957.957 0 01-.233.307c-.105.089-.156.091-.07.063l-2.53-7.59c-1.928.643-3.579 1.946-4.478 3.97l7.31 3.25zm-.359.388a83.108 83.108 0 006.582-2.42l-3.054-7.394c-2.12.875-4.1 1.603-5.946 2.188l2.418 7.626zm6.621-2.436c2.31-.983 4.595-2.015 6.856-3.097l-3.452-7.217A164.006 164.006 0 0113.006 58l3.132 7.362zm6.888-3.112a152.368 152.368 0 006.434-3.328l-3.856-7.01a144.145 144.145 0 01-6.094 3.152l3.516 7.186zm4.506-10.833H9.1v8h18.432v-8zm-18.432 0c.073 0 .22.015.395.088.177.073.292.166.345.22L4.184 57.38A6.842 6.842 0 009.1 59.416v-8zm.851.423a.936.936 0 01.197.553h-8c0 1.866.697 3.543 1.925 4.873L9.95 51.84zm.197.553c0 .073-.015.22-.088.395a1.089 1.089 0 01-.22.345l-5.656-5.656a6.842 6.842 0 00-2.036 4.916h8zm-.308.74a1.087 1.087 0 01-.345.22 1.082 1.082 0 01-.395.088v-8a6.842 6.842 0 00-4.916 2.036l5.656 5.656zm-.74.308h25.848v-8H9.1v8zm29.848-4v-3.456h-8v3.456h8zm-4-7.456h-7.704v8h7.704v-8zm-7.704 0c-4.024 0-5.716-.737-6.253-1.197l-5.206 6.074c2.823 2.42 7.035 3.123 11.459 3.123v-8zm-6.21-1.16c-.336-.297-1.094-1.385-1.094-4.632h-8c0 4.05.875 8.049 3.802 10.631l5.293-5.998zm-1.094-4.632V24.744h-8v11.448h8zm-6.913-14.19c-.796.847-1.57 1.695-2.318 2.544l5.998 5.293a99.138 99.138 0 012.146-2.354l-5.826-5.482zm-2.237 2.454a41.777 41.777 0 01-1.971 1.972l5.458 5.848c.79-.737 1.572-1.52 2.35-2.348l-5.837-5.472zm-2.07 2.068c-.054.053-.11.115-.384.138L9 34.634c2.03-.169 3.894-.971 5.376-2.454L8.72 26.524zm-.399.139c-.023.002-.022 0-.002.002a.31.31 0 01.076.018.318.318 0 01.031.012l.012.006s-.022-.013-.065-.05L3.06 32.63c1.646 1.463 3.704 2.199 5.956 2.003l-.694-7.97zm.124.053c-.005-.005.006.005.024.03a.567.567 0 01.089.188c.005.02.003.02.001-.004l-7.99.38c.096 2.021.915 3.851 2.418 5.254l5.458-5.848zm.115.222c-.003-.053.01.055-.066.246a1.177 1.177 0 01-.302.439l-5.24-6.046c-1.754 1.52-2.48 3.599-2.384 5.725l7.992-.364zm-.244.572c1.797-1.694 3.598-3.599 5.405-5.707l-6.074-5.206c-1.65 1.924-3.256 3.619-4.82 5.093l5.49 5.82zm5.37-5.666a93.871 93.871 0 005.264-6.543l-6.452-4.73a85.877 85.877 0 01-4.815 5.985l6.002 5.288zm5.288-6.576c1.664-2.32 3.081-4.556 4.235-6.705l-7.05-3.782c-.958 1.787-2.181 3.727-3.685 5.823l6.5 4.664zM23.19 8.6a.552.552 0 01.05-.08c.006-.007.005-.004-.004.003a.135.135 0 01-.02.014c-.002.002.008-.004.038-.014l-2.53-7.59c-1.995.665-3.547 2-4.544 3.811L23.19 8.6zm.012-.06c.031-.01.04-.01.031-.01a.204.204 0 01-.049 0 .236.236 0 01-.023-.003h-.006c.002 0 .027.008.074.032l3.712-7.086C25.014.464 22.88.247 20.775.916l2.426 7.624zm.307.153c.042.017-.043-.013-.155-.137a.931.931 0 01-.126-.177.564.564 0 01-.045-.104l7.692-2.198c-.636-2.225-2.16-3.857-4.214-4.738l-3.152 7.354zm-.326-.418c.004.015.002.01 0-.011a.392.392 0 01.01-.125.284.284 0 01-.029.061l7.01 3.856c1.01-1.838 1.293-3.907.701-5.979l-7.692 2.198zm.056-.205c-.268.447-.561.92-.88 1.422l6.749 4.295a74.6 74.6 0 00.991-1.601l-6.86-4.116zM22.22 9.725c-.198.364-.44.746-.73 1.146l6.469 4.706a18.51 18.51 0 001.285-2.022l-7.024-3.83zm2.504 7.499H35.74v-8H24.724v8zm14.715-2.477a182.8 182.8 0 001.178-2.945l-7.45-2.916a175.1 175.1 0 01-1.126 2.815l7.398 3.046zm1.145-2.864a222.53 222.53 0 001.174-2.861L34.33 6.05c-.278.695-.654 1.612-1.13 2.756l7.384 3.077zm1.144-2.788c.098-.231.166-.292.152-.279a.257.257 0 01-.042.033c-.022.013-.035.018-.032.017L39.178 1.31c-2.346.816-3.926 2.56-4.818 4.667l7.368 3.118zm.222-.282c.23-.09.35-.085.54-.019l2.628-7.556c-2.019-.702-4.105-.649-6.084.125l2.916 7.45zm.54-.019c.164.057.184.092.139.053a.545.545 0 01-.136-.175l7.23-3.424c-.964-2.036-2.662-3.334-4.605-4.01L42.49 8.794zm.121.109a1.254 1.254 0 01-.143-.575c0-.197.05-.258-.001-.143l7.282 3.31c.902-1.983 1.063-4.303-.144-6.478L42.61 8.903zm-.08-.852a63.494 63.494 0 00-.847 1.769l7.264 3.352c.275-.596.52-1.109.738-1.543L42.53 8.05zm-.793 1.656l-.864 1.728 7.156 3.578.864-1.728-7.156-3.578zm2.714 7.517h19.224v-8H44.452v8zm19.224 0c-.073 0-.22-.015-.395-.088a1.086 1.086 0 01-.345-.22l5.656-5.656a6.842 6.842 0 00-4.916-2.036v8zm-.615-.187a1.504 1.504 0 01-.38-.551c-.066-.172-.053-.25-.053-.166h8c0-1.805-.575-3.727-2.161-5.18l-5.406 5.897zm-.433-.717c0 .032-.004-.052.054-.202.061-.158.156-.297.254-.394l5.656 5.656c1.42-1.418 2.036-3.226 2.036-5.06h-8zm.308-.596c.053-.054.168-.147.345-.22.176-.073.322-.088.395-.088v8a6.842 6.842 0 004.916-2.036l-5.656-5.656zm.74-.308H43.372v8h20.304v-8zm-24.304 4v3.024h8v-3.024h-8zm4 7.024h16.632v-8H43.372v8zm16.632 0c.044 0-.119.008-.388-.107a2 2 0 01-.796-.629l6.4-4.8c-1.385-1.847-3.416-2.464-5.216-2.464v8zm-1.057-.575a.943.943 0 01-.154-.28.836.836 0 01-.053-.265h8a7.052 7.052 0 00-1.647-4.577l-6.146 5.122zm-.207-.545c0-.04.008-.138.053-.265a.943.943 0 01.154-.28l6.146 5.122a7.052 7.052 0 001.647-4.577h-8zm.184-.517a2.02 2.02 0 01.805-.596c.235-.092.357-.079.275-.079v8c1.68 0 3.684-.514 5.112-2.259l-6.192-5.066zm1.08-.675H43.372v8h16.632v-8zm-20.632 4v3.024h8v-3.024h-8zm4 7.024h16.632v-8H43.372v8zm16.632 0c.044 0-.119.008-.388-.107a2 2 0 01-.796-.629l6.4-4.8c-1.385-1.847-3.416-2.464-5.216-2.464v8zm-1.057-.575a.943.943 0 01-.154-.28.836.836 0 01-.053-.265h8a7.052 7.052 0 00-1.647-4.577l-6.146 5.122zm-.207-.545c0-.04.008-.138.053-.265a.943.943 0 01.154-.28l6.146 5.122a7.052 7.052 0 001.647-4.577h-8zm.184-.517a2.02 2.02 0 01.805-.596c.235-.092.357-.079.275-.079v8c1.68 0 3.684-.514 5.112-2.259l-6.192-5.066zm1.08-.675H43.372v8h16.632v-8zm-20.632 4v3.024h8V36.84h-8zm4 7.024H64.54v-8H43.372v8zm21.168 0a1.052 1.052 0 01-.615-.26l5.406-5.897c-1.349-1.236-3.023-1.843-4.791-1.843v8zm-.615-.26a1.472 1.472 0 01-.363-.526c-.075-.188-.07-.297-.07-.262h8c0-1.828-.618-3.695-2.161-5.109l-5.406 5.898zm-.433-.788c0 .03-.003-.032.039-.145a.837.837 0 01.158-.264l5.878 5.426c1.311-1.42 1.925-3.18 1.925-5.017h-8zm.308-.524c.053-.054.168-.147.345-.22.176-.073.322-.088.395-.088v8a6.842 6.842 0 004.916-2.036L63.8 42.292zm.74-.308H43.372v8H64.54v-8zm-25.168 4v3.456h8v-3.456h-8zm4 7.456h25.56v-8h-25.56v8zm25.56 0c-.073 0-.22-.015-.395-.088a1.086 1.086 0 01-.345-.22l5.656-5.656a6.842 6.842 0 00-4.916-2.036v8zm-.74-.308a1.086 1.086 0 01-.22-.345 1.082 1.082 0 01-.088-.395h8a6.842 6.842 0 00-2.036-4.916l-5.656 5.656zm-.308-.74a.936.936 0 01.197-.553l5.878 5.426c1.228-1.33 1.925-3.007 1.925-4.873h-8zm.308-.668c.053-.054.168-.147.345-.22.176-.073.322-.088.395-.088v8a6.842 6.842 0 004.916-2.036l-5.656-5.656zm.74-.308H50.716v8h18.216v-8zm-20.12 7.518c3.046 1.648 6.347 3.235 9.898 4.764l3.164-7.348c-3.36-1.447-6.444-2.932-9.255-4.452l-3.806 7.036zm9.898 4.764c3.543 1.525 6.848 2.795 9.912 3.799l2.492-7.602c-2.793-.916-5.871-2.094-9.24-3.545l-3.164 7.348zm9.893 3.793c.017.005-.102-.034-.251-.178a.987.987 0 01-.243-.352l7.55-2.642c-.765-2.188-2.405-3.71-4.526-4.418l-2.53 7.59zm-.472-.468c.001.004-.003-.006-.007-.029a.379.379 0 01-.005-.07c0-.024.004-.036.003-.033a.477.477 0 01-.024.071l7.428 2.972c.726-1.815.812-3.774.111-5.677l-7.506 2.766zm.004-.15c-.034.079-.03.037.053-.043a.742.742 0 01.215-.141l2.642 7.55c2.109-.737 3.608-2.267 4.444-4.215l-7.354-3.152zm.103-.123c-.003.001-.002.001 0 0a.09.09 0 01-.026.002c-.04 0-.163-.007-.391-.083l-2.53 7.59c1.885.628 3.931.714 5.919-.081l-2.972-7.428zm-.303-.04c-2.214-.814-4.692-1.867-7.44-3.172l-3.43 7.228c2.916 1.383 5.622 2.538 8.112 3.453l2.758-7.51zm-7.467-3.184a100.819 100.819 0 01-7.964-4.156l-4.008 6.924a108.784 108.784 0 008.596 4.484l3.376-7.252zm-7.937-4.14c-2.605-1.535-4.875-3.004-6.82-4.407l-4.678 6.49c2.183 1.573 4.665 3.176 7.436 4.81l4.062-6.893zm-13.159-1.162v10.224h8V58.224h-8zm0 10.224c0 .094-.008.152-.013.18-.004.026-.007.027 0 .011a.32.32 0 01.03-.058c.015-.02.023-.027.017-.022l5.483 5.826c1.715-1.614 2.483-3.725 2.483-5.937h-8zm.035.111a.418.418 0 01-.059.048l-.004.003c.002-.001-.004.002-.023.005a.717.717 0 01-.125.009v8c2.14 0 4.113-.751 5.694-2.24l-5.483-5.825zM24.004 35.152h10.944v-8H24.004v8zm14.944-4v-3.024h-8v3.024h8zm-4-7.024H24.004v8h10.944v-8zm-14.944 4v3.024h8v-3.024h-8zm4-1.688h10.944v-8H24.004v8zm14.944-4v-3.024h-8v3.024h8zm-4-7.024H24.004v8h10.944v-8zm-14.944 4v3.024h8v-3.024h-8zm8.68 24.448h6.264v-8h-6.264v8zm10.264-4V36.84h-8v3.024h8zm-4-7.024H24.076v8h10.872v-8zm-14.86 4.319c.144 1.794.806 4.098 2.977 5.494l4.326-6.73c.174.112.322.245.44.385.117.138.186.26.224.34.07.147.03.144.008-.127l-7.974.638zm3.155 5.602c1.648.941 3.726 1.103 5.441 1.103v-8c-.675 0-1.138-.04-1.43-.09-.323-.053-.27-.09-.041.041l-3.97 6.946zm65.849 11.935l-.92-3.893-.019.005.939 3.888zm-3.456-.288l2.004-3.462-2.004 3.462zm-1.872-2.376l-3.87 1.01c.017.068.037.136.058.203l3.812-1.213zm.432-3.024l3.382 2.136a3.88 3.88 0 00.048-.078l-3.43-2.058zm2.88-1.8l.703 3.938-.703-3.938zm11.88-3.024l-1.251-3.8-.014.005 1.265 3.795zm11.088-4.464l1.749 3.598a3.999 3.999 0 00.865-6.625l-2.614 3.027zm-3.024-2.736l-2.9 2.755c.047.05.095.098.145.145l2.755-2.9zm-2.592-3.024l3.165-2.446a4 4 0 00-5.583-.74l2.418 3.186zm-4.32 3.096l2.169 3.361a1.2 1.2 0 00.074-.05l-2.243-3.311zm-4.536 2.664l-1.877-3.532a5.03 5.03 0 00-.05.027l1.927 3.505zm-3.096.72l-.347 3.985c.058.005.116.009.173.011l.174-3.996zm-2.664-1.728l3.375-2.148a3.593 3.593 0 00-.021-.032l-3.354 2.18zm-.432-2.88l3.775 1.321.02-.056-3.795-1.265zm1.944-2.232l1.789 3.578-1.789-3.578zm10.08-6.624l2.561 3.073.027-.023-2.588-3.05zm8.064-7.992l3.068 2.566a4 4 0 00-3.068-6.566v4zm-17.064 9.504l-2.456-3.157c-.03.022-.058.046-.087.07l2.543 3.087zm-5.976-.072l-2.742 2.913.095.086 2.647-2.999zm1.512-13.968l-2.584-3.053a2.993 2.993 0 00-.039.033l2.623 3.02zm23.976-2.376v4a4 4 0 004-4h-4zm1.296-6.552l2.561 3.073.016-.013-2.577-3.06zm6.552 0l-2.577 3.06.098.08 2.479-3.14zm1.368 6.552h-4a4 4 0 004 4v-4zm25.848 16.344l2.646 3 .095-.087-2.741-2.913zm-5.976.072l-2.543 3.088 2.543-3.088zm-23.184-9.504v-4a4 4 0 00-4 4h4zm-.144 1.152l3.846 1.099.035-.129-3.881-.97zm-.504 1.008l3.226 2.366.029-.041-3.255-2.325zm-1.584 2.016l-3.054-2.584a4 4 0 003.054 6.584v-4zm13.896 1.224l-2.131 3.385c.048.03.097.06.146.088l1.985-3.473zm2.664 3.024l-3.78 1.308c.021.06.043.12.066.178l3.714-1.486zm-2.52 7.848l2.707 2.945.068-.064-2.775-2.881zm-5.472 4.608l-2.439-3.17a4.001 4.001 0 00.711 6.778l1.728-3.608zm10.872 4.104l-1.105 3.844.057.016 1.048-3.86zm11.808 2.376l.685-3.94a3.968 3.968 0 00-.159-.025l-.526 3.965zm2.736 1.584l-3.073 2.56c.024.03.049.058.074.087l2.999-2.647zm.72 3.168l-3.933-.728-.005.025 3.938.703zm-2.016 2.88l1.789 3.578.061-.032-1.85-3.546zm-3.672.432l-.755 3.928.075.014.68-3.942zm-14.616-3.816l-1.299 3.783.034.012 1.265-3.795zm-13.176-6.048l2.046-3.437a4 4 0 00-4.017-.044l1.971 3.481zm-12.888 5.832l1.335 3.77-1.335-3.77zm-1.368 20.664l-1.321 3.775.028.01 1.293-3.785zm-4.176-3.384l-3.532 1.877.02.038 3.512-1.915zm0-12.888l-3.512-1.915-.044.083 3.556 1.832zm4.176-3.384l-1.293-3.785-.028.01 1.321 3.775zm28.584 0l-1.321 3.775.028.01 1.293-3.785zm4.176 3.384L131.76 56.6l.044.083 3.512-1.915zm0 12.888l-3.486-1.961a5.503 5.503 0 00-.07.13l3.556 1.831zm-4.176 3.384l-1.293-3.785-.028.01 1.321 3.775zm-4.104-6.912l2.4 3.2.039-.03-2.439-3.17zm0-5.76l-2.561 3.073c.092.076.186.148.284.216l2.277-3.289zm-20.376 0l2.4 3.2.039-.03-2.439-3.17zm0 5.76l-2.561 3.073c.092.076.186.148.284.216l2.277-3.289zm10.44-28.296l-2.325 3.255a4 4 0 004.498.103l-2.173-3.358zm2.376-1.584l2.266 3.296.041-.028-2.307-3.268zm2.304-1.728l-2.465-3.15-.034.026 2.499 3.124zm1.296-2.088l-3.759 1.367c.035.098.075.194.118.288l3.641-1.655zm-12.888-.792v-4a4 4 0 00-3.073 6.56l3.073-2.56zm3.168 3.24l-2.634 3.01 2.634-3.01zM88.153 50.808c-.375.09-.575.087-.637.082-.044-.004.02-.004.124.056l-4.008 6.924c2.08 1.205 4.373 1.203 6.399.714l-1.878-7.776zm-.513.138c-.023-.013-.03-.02-.027-.017a.113.113 0 01.013.014c.004.005.002.003-.006-.012a.719.719 0 01-.044-.112l-7.624 2.426c.621 1.95 1.859 3.57 3.68 4.625l4.008-6.924zm-.005.076a.378.378 0 01-.015-.072.491.491 0 01-.03.165c-.01.028-.018.038-.012.029l-6.764-4.272c-1.204 1.907-1.47 4.064-.92 6.17l7.74-2.02zm-.009.044a.53.53 0 01-.158.164c-.032.02.04-.036.311-.084l-1.406-7.876c-2.21.395-4.308 1.514-5.607 3.68l6.86 4.116zm.153.08a88.476 88.476 0 0012.442-3.167l-2.53-7.59a80.494 80.494 0 01-11.318 2.881l1.406 7.876zm12.428-3.163c4.093-1.347 7.957-2.901 11.586-4.665l-3.498-7.195c-3.283 1.595-6.811 3.017-10.59 4.262l2.502 7.598zm12.451-11.29a82.892 82.892 0 01-2.883-2.609l-5.51 5.8a89.253 89.253 0 003.165 2.863l5.228-6.054zm-2.738-2.464a35.097 35.097 0 01-2.327-2.715l-6.33 4.892a43.078 43.078 0 002.857 3.333l5.8-5.51zm-7.91-3.456a94.85 94.85 0 01-4.145 2.971l4.486 6.624a103.246 103.246 0 004.495-3.221l-4.836-6.374zm-4.07 2.922c-1.395.9-2.81 1.73-4.245 2.492l3.754 7.066a66.33 66.33 0 004.828-2.836l-4.338-6.722zm-4.296 2.52a1.789 1.789 0 01-.994.229l-.348 7.992c1.83.08 3.59-.327 5.198-1.211l-3.856-7.01zm-.822.24a.86.86 0 01.336.125c.118.076.112.116.029-.015l-6.75 4.294c1.242 1.952 3.176 3.347 5.692 3.566l.694-7.97zm.344.077c-.056-.085-.001-.032.026.147.013.086.015.179.006.271a.897.897 0 01-.043.203l-7.55-2.642c-.801 2.287-.35 4.531.853 6.381l6.708-4.36zm.009.565c.008-.025.011-.027.003-.013a.378.378 0 01-.093.108c-.01.008-.003.001.028-.014l-3.578-7.156c-1.898.95-3.274 2.52-3.95 4.545l7.59 2.53zm-.062.08c3.838-1.918 7.456-4.298 10.852-7.128l-5.122-6.146c-2.94 2.45-6.042 4.486-9.308 6.12l3.578 7.155zm10.879-7.151c3.307-2.806 6.164-5.63 8.544-8.476l-6.136-5.132c-2.036 2.434-4.555 4.938-7.584 7.508l5.176 6.1zm5.476-15.042H98.38v8h11.088v-8zm-11.088 0c-1.915 0-4.436.25-6.275 1.827l5.206 6.074c-.31.266-.5.264-.265.209.217-.051.639-.11 1.334-.11v-8zm-6.275 1.827C90.143 18.493 89.7 20.905 89.7 22.8h8c0-.19.012-.323.024-.407.012-.085.022-.108.013-.082-.009.026-.04.107-.11.216a1.674 1.674 0 01-.316.358l-5.206-6.074zM89.7 22.8v2.736h8V22.8h-8zm0 2.736c0 .206-.034.21.013.102a.85.85 0 01.235-.307l4.912 6.314c2.023-1.573 2.84-3.833 2.84-6.109h-8zm.161-.136c-.034.028-.096.096-.409.096v8c1.99 0 3.897-.604 5.495-1.92L89.86 25.4zm-.409.096a.952.952 0 01-.31-.037.18.18 0 01-.067-.042l-5.294 5.998c1.624 1.433 3.604 2.081 5.671 2.081v-8zm-.282.007c-.006-.005.002.002.016.022a.32.32 0 01.032.058c.006.016.003.015-.001-.012a1.04 1.04 0 01-.013-.179h-8c0 2.212.768 4.323 2.483 5.937l5.483-5.826zm.034-.111v-2.808h-8v2.808h8zm0-2.808c0-3.355.815-4.643 1.359-5.116l-5.246-6.04c-3.104 2.695-4.113 6.831-4.113 11.156h8zm1.32-5.082c.762-.646 2.702-1.43 6.848-1.43v-8c-4.686 0-9.034.8-12.016 3.323l5.168 6.107zm6.848-1.43h14.544v-8H97.372v8zm18.544-4V8.688h-8v3.384h8zm0-3.384c0-.288.045-.367.026-.321a.65.65 0 01-.169.226l-5.122-6.146c-1.989 1.657-2.735 3.97-2.735 6.241h8zm-.127-.108c.126-.107.294-.212.735-.212v-8c-2.151 0-4.191.663-5.889 2.092l5.154 6.12zm.735-.212c.353 0 .508.081.663.212l5.154-6.12c-1.669-1.405-3.674-2.092-5.817-2.092v8zm.761.292a.599.599 0 01-.167-.222c-.029-.067.014-.013.014.25h8c0-2.346-.823-4.676-2.889-6.308l-4.958 6.28zm-.153.028v3.384h8V8.688h-8zm4 7.384h14.904v-8h-14.904v8zm14.904 0c4.223 0 6.118.796 6.809 1.396l5.246-6.04c-2.957-2.567-7.35-3.356-12.055-3.356v8zm6.809 1.396c.544.473 1.359 1.76 1.359 5.116h8c0-4.325-1.009-8.46-4.113-11.156l-5.246 6.04zm1.359 5.116v2.808h8v-2.808h-8zm0 2.808c0 .094-.008.152-.013.18-.004.026-.007.027-.001.011a.352.352 0 01.032-.058c.014-.02.022-.027.017-.022l5.482 5.826c1.715-1.614 2.483-3.725 2.483-5.937h-8zm.13.025a.186.186 0 01-.067.042.957.957 0 01-.311.037v8c2.067 0 4.047-.648 5.67-2.08l-5.292-6zm-.378.079c-.313 0-.375-.068-.409-.096l-5.086 6.176c1.598 1.316 3.504 1.92 5.495 1.92v-8zm-.409-.096a.85.85 0 01.234.314c.036.087-.001.055-.001-.178h-8c0 2.195.736 4.438 2.681 6.04l5.086-6.176zm.233.136V22.8h-8v2.736h8zm0-2.736c0-1.895-.443-4.307-2.405-5.989l-5.206 6.074a1.675 1.675 0 01-.316-.358 1.007 1.007 0 01-.11-.216c-.009-.026.001-.003.013.082.012.084.024.217.024.407h8zm-2.405-5.989c-1.851-1.587-4.416-1.827-6.347-1.827v8c.726 0 1.171.06 1.405.114.256.059.06.065-.264-.213l5.206-6.074zm-6.347-1.827H117.82v8h17.208v-8zm-21.208 4a.702.702 0 01-.025.182l7.762 1.94a8.777 8.777 0 00.263-2.122h-8zm.01.053c.05-.175.109-.248.087-.218l6.51 4.65a7.306 7.306 0 001.095-2.234l-7.692-2.198zm.116-.258c-.478.651-.949 1.25-1.412 1.797l6.108 5.168a41.088 41.088 0 001.756-2.235l-6.452-4.73zm1.642 8.381h8.64v-8h-8.64v8zm8.64 0c1.769 0 2.69.335 3.125.609l4.262-6.77c-2.157-1.358-4.74-1.839-7.387-1.839v8zm3.271.697c.657.375.807.68.869.86l7.56-2.617c-.802-2.317-2.428-4.028-4.459-5.189l-3.97 6.946zm.935 1.037c.096.24.163.582-.034 1.216l7.64 2.372c.667-2.15.686-4.4-.178-6.56l-7.428 2.972zm-.034 1.216c-.191.614-.624 1.376-1.547 2.265l5.55 5.762c1.669-1.607 2.964-3.485 3.637-5.655l-7.64-2.372zm-1.478 2.2a77.72 77.72 0 01-5.205 4.383l4.878 6.342a86.099 86.099 0 005.74-4.834l-5.413-5.89zm-4.494 11.162c3.62 1.733 7.453 3.178 11.495 4.34l2.21-7.688c-3.638-1.046-7.053-2.337-10.249-3.868l-3.456 7.216zm11.552 4.356a94.23 94.23 0 0012.33 2.481l1.052-7.93a86.223 86.223 0 01-11.286-2.271l-2.096 7.72zm12.171 2.457a.472.472 0 01.348.204l6.146-5.122a8.45 8.45 0 00-5.124-2.964l-1.37 7.882zm.422.29a.847.847 0 01-.182-.356c-.023-.105.01-.078-.032.149l7.866 1.456c.411-2.22.053-4.608-1.654-6.542l-5.998 5.293zm-.219-.182a.886.886 0 01-.042.167c-.006.014-.002 0 .019-.03a.44.44 0 01.075-.084c.027-.022.038-.026.02-.016l3.7 7.092c2.319-1.21 3.67-3.294 4.104-5.723l-7.876-1.406zm.133.005c-.152.076-.482.192-1.203.068l-1.36 7.884c2.063.355 4.181.184 6.141-.796l-3.578-7.156zm-1.128.082a110.61 110.61 0 01-14.106-3.683l-2.53 7.59a118.608 118.608 0 0015.126 3.949l1.51-7.856zm-14.072-3.671c-4.51-1.549-8.649-3.452-12.429-5.702l-4.092 6.874c4.284 2.55 8.929 4.679 13.923 6.394l2.598-7.566zm-16.446-5.746c-3.768 2.134-7.85 3.983-12.252 5.542l2.67 7.542c4.814-1.705 9.324-3.744 13.524-6.122l-3.942-6.962zm-12.252 5.542c-4.458 1.58-9.263 2.98-14.417 4.198l1.84 7.786c5.406-1.278 10.489-2.757 15.247-4.442l-2.67-7.541zm7.887 21.443c-3.101 0-5.247-.322-6.627-.793l-2.586 7.57c2.556.873 5.69 1.223 9.213 1.223v-8zm-6.599-.783c-1.112-.39-1.657-.922-1.985-1.524l-7.024 3.83c1.4 2.566 3.64 4.29 6.367 5.244l2.642-7.55zm-1.965-1.486c-.382-.719-.756-2.111-.756-4.531h-8c0 3.052.442 5.932 1.691 8.285l7.065-3.754zm-.756-4.531c0-2.409.371-3.854.78-4.648l-7.112-3.664c-1.223 2.374-1.668 5.249-1.668 8.312h8zm.736-4.565c.328-.602.873-1.134 1.985-1.524l-2.642-7.55c-2.728.954-4.967 2.678-6.367 5.244l7.024 3.83zm1.957-1.514c1.38-.47 3.526-.793 6.627-.793v-8c-3.523 0-6.657.35-9.213 1.223l2.586 7.57zm6.627-.793h12.744v-8h-12.744v8zm12.744 0c3.164 0 5.29.326 6.599.783l2.642-7.55c-2.531-.887-5.685-1.233-9.241-1.233v8zm6.627.793c1.165.398 1.649.919 1.913 1.43l7.112-3.663c-1.368-2.656-3.668-4.391-6.439-5.337l-2.586 7.57zm1.957 1.514c.42.77.808 2.181.808 4.565h8c0-3.088-.476-5.997-1.784-8.395l-7.024 3.83zm.808 4.565c0 2.395-.392 3.752-.782 4.447l6.972 3.922c1.338-2.377 1.81-5.292 1.81-8.369h-8zm-.852 4.576c-.264.512-.748 1.033-1.913 1.43l2.586 7.571c2.771-.946 5.071-2.681 6.439-5.337l-7.112-3.664zm-1.941 1.44c-1.309.459-3.435.784-6.599.784v8c3.556 0 6.71-.347 9.241-1.233l-2.642-7.55zm-6.599.784h-12.744v8h12.744v-8zm-12.744.728h12.744v-8h-12.744v8zm12.744 0c1.105 0 2.16-.059 3.1-.218.84-.143 2.06-.438 3.116-1.23l-4.8-6.4c.277-.208.488-.282.514-.291.036-.013-.009.006-.17.033-.332.057-.897.106-1.76.106v8zm6.255-1.477c2.183-1.68 2.497-4.342 2.497-6.051h-8c0 .219-.012.374-.025.474-.013.102-.025.125-.013.09.023-.072.176-.48.663-.854l4.878 6.34zm2.497-6.051c0-1.629-.26-4.508-2.659-6.169l-4.554 6.578c-.613-.425-.799-.93-.825-1.009-.014-.043-.002-.022.012.089.013.108.026.275.026.511h8zm-2.375-5.953c-1.065-.887-2.323-1.231-3.205-1.398-.972-.183-2.053-.249-3.172-.249v8c.849 0 1.388.054 1.688.11.145.028.17.044.113.022-.049-.02-.27-.11-.546-.34l5.122-6.145zm-6.377-1.647h-12.744v8h12.744v-8zm-12.744 0c-1.102 0-2.169.067-3.136.25-.902.17-2.087.506-3.119 1.3l4.878 6.34a1.75 1.75 0 01-.429.254c-.034.013.007-.006.154-.033.305-.058.834-.111 1.652-.111v-8zm-6.216 1.52c-1.194.896-1.784 2.109-2.079 3.095-.296.986-.385 2.021-.385 2.985h8c0-.247.012-.427.027-.55.014-.125.028-.163.02-.137-.007.026-.165.543-.783 1.007l-4.8-6.4zm-2.464 6.08c0 1.632.258 4.249 2.303 5.953l5.122-6.146c.487.406.615.82.622.844.006.019-.007-.02-.021-.138a4.336 4.336 0 01-.026-.513h-8zm2.587 6.169c1.018.705 2.166.994 3.029 1.14.936.16 1.977.219 3.064.219v-8c-.833 0-1.388-.049-1.724-.106-.163-.027-.223-.049-.209-.044.008.003.168.057.394.213l-4.554 6.578zm14.89-28.227c.846-.547 1.669-1.096 2.469-1.646l-4.532-6.592a98.13 98.13 0 01-2.283 1.522l4.346 6.716zm2.51-1.674a52.405 52.405 0 002.496-1.872l-4.998-6.247a43.586 43.586 0 01-2.112 1.583l4.614 6.536zm2.462-1.846c.698-.546 1.507-1.278 2.086-2.21.605-.976 1.268-2.744.386-4.683l-7.282 3.31a3.27 3.27 0 01-.257-1.847 2.71 2.71 0 01.355-1c.147-.236.188-.188-.218.13l4.93 6.3zm2.59-6.605c-.668-1.837-2.181-2.667-3.179-3.01-.987-.339-2.02-.415-2.884-.415v8c.48 0 .503.056.284-.02-.23-.078-1.263-.512-1.739-1.821l7.518-2.734zm-6.063-3.425h-10.584v8h10.584v-8zm-13.657 6.56a32.76 32.76 0 003.607 3.69l5.268-6.02a24.856 24.856 0 01-2.729-2.79l-6.146 5.12zm3.607 3.69a52.29 52.29 0 004.053 3.197l4.65-6.51a44.55 44.55 0 01-3.435-2.707l-5.268 6.02zm97.386 34.502l-2.634 3.01.091.078 2.543-3.088zm-1.296-2.808l3.987-.319-.001-.013-3.986.332zm.936-2.952l2.999 2.646.074-.085-3.073-2.561zm2.88-1.368l.16 3.997.075-.004-.235-3.993zm3.672-.504l1.129 3.837a3.65 3.65 0 00.202-.065L214.3 62.76zm1.728-1.512l-3.578-1.789-.047.097 3.625 1.692zm.936-3.456l-3.931-.737-.021.12 3.952.617zm.648-6.048l-3.988-.307-.005.077 3.993.23zm.432-8.28l-3.998-.127 3.998.127zm.216-9.072l-3.998-.129-.001.066 3.999.063zm-.36-3.312l-3.795 1.265c.025.074.052.148.081.22l3.714-1.485zm-1.512-1.368l-1.265 3.795c.097.032.196.06.295.086l.97-3.881zm-3.672-.36v-4a4 4 0 00-3.999 3.922l3.999.078zm-3.888 25.128l-3.776-1.32-.005.015 3.781 1.305zm-12.024 16.776l-2.443-3.168a.147.147 0 01-.013.01l2.456 3.158zm-3.096.792l.477-3.972a3.954 3.954 0 00-.145-.014l-.332 3.986zm-2.808-1.512l-3.177 2.43.037.049 3.14-2.479zm-.72-2.808l-3.96-.566-.003.025 3.963.541zm1.368-2.448l-2.4-3.2a4.452 4.452 0 00-.122.096l2.522 3.104zm7.704-8.712l-3.485-1.963-.009.016 3.494 1.947zm4.176-11.808l3.927.76.002-.008-3.929-.752zm1.44-15.408l3.999.067a3.999 3.999 0 00-3.999-4.067v4zm-8.064-1.152l-3.01 2.634c.03.035.061.068.092.102l2.918-2.736zm.072-5.4l2.828 2.828a4 4 0 00-4.991-6.193l2.163 3.365zm-34.776-.432l-2.924 2.73 2.924-2.73zm0-5.184l2.828 2.828c.033-.032.065-.065.096-.099l-2.924-2.729zm13.824-1.08v4a4 4 0 004-4h-4zm1.224-10.008l2.741 2.913-2.741-2.913zm5.904 0l-2.741 2.913 2.741-2.913zm1.224 10.008h-4a4 4 0 004 4v-4zm13.104 1.08l-2.924 2.73c.031.033.063.066.096.098l2.828-2.828zm0 5.112l-2.828-2.828a4 4 0 004.991 6.193l-2.163-3.365zm7.488-.648v4a4 4 0 004-4h-4zm1.152-15.336l-2.646-3-.09.082 2.736 2.918zm5.544 0l-2.828 2.828.092.09 2.736-2.918zm1.152 15.336h-4a4 4 0 004 4v-4zm8.208 1.008l-1.45 3.728.091.034 1.359-3.762zm3.816 3.528l-3.617 1.708.019.04 3.598-1.748zm1.152 7.416l-4-.059v.059h4zm-.144 9.36l-3.998-.123 3.998.123zm-.432 8.784l-3.99-.28-.004.066 3.994.214zm-.576 6.912l-3.969-.496-.002.013 3.971.483zm-2.304 8.064l-3.422-2.071-.04.067 3.462 2.004zm-4.392 3.672l-1.265-3.795a4.246 4.246 0 00-.118.042l1.383 3.753zm-49.536-.288l-2.42-3.185c-.027.02-.053.04-.079.062l2.499 3.123zm-3.312 1.008l.307-3.988a4.023 4.023 0 00-.147-.009l-.16 3.997zm-2.952-1.656l-3.301 2.259.066.094 3.235-2.353zm-.72-2.952l3.963.54-3.963-.54zm1.728-2.664l-2.325-3.255 2.325 3.255zm6.336-5.4l-2.863-2.793h-.001l2.864 2.793zm5.112-6.12l3.27 2.304a4 4 0 00-.579-5.264l-2.691 2.96zm-3.24-2.736l2.465-3.15-2.465 3.15zm-3.24-2.448l2.353-3.235-.028-.02-2.325 3.255zm-1.656-2.592l-3.984.362.002.017 3.982-.379zm.864-2.952l-3.22-2.373 3.22 2.373zm2.664-1.584l.517 3.966.141-.02-.658-3.946zm3.168.72l2.294-3.277-2.294 3.277zm2.88 2.088l2.4-3.2-2.4 3.2zm2.88 2.304l-2.591 3.048a4 4 0 006.197-1.317l-3.606-1.731zm3.024-7.344l-3.764-1.355-.016.047 3.78 1.308zm2.088-2.376l1.486 3.714.09-.037-1.576-3.677zm3.096-.072l-1.367 3.76.154.052 1.213-3.812zm2.304 2.016l-3.611 1.72c.033.07.069.14.106.208l3.505-1.928zm.144 3.24l3.762 1.359.002-.004-3.764-1.355zm-2.088 5.112l-3.638-1.663-.022.048 3.66 1.615zm-2.376 4.752l-3.486-1.961a4 4 0 00.741 4.87l2.745-2.909zm6.696 6.696l2.981-2.667-.052-.057-2.929 2.724zm1.08 3.096l-3.986-.332a2.805 2.805 0 00-.01.158l3.996.174zm-4.464 4.104l-.174 3.996c.058.003.116.004.174.004v-4zm-2.88-1.44l-2.994 2.652.013.015 2.981-2.667zm-4.968-5.184l2.79-2.866a3.998 3.998 0 00-5.998.477l3.208 2.389zm-5.544 6.552l2.861 2.795a.896.896 0 00.032-.033l-2.893-2.762zm-12.6-24.768l-2.828 2.828c.026.027.054.054.082.08l2.746-2.908zm.072-5.4l2.646 3a3.24 3.24 0 00.08-.072l-2.726-2.928zm4.248-4.32l-2.96-2.69 2.96 2.69zm3.672-4.392l3.2 2.4.043-.058-3.243-2.342zm2.52-1.44l.362 3.984c.052-.005.104-.01.155-.018l-.517-3.966zm2.808.72l-2.522 3.104c.03.025.061.05.092.073l2.43-3.177zm1.512 2.448l3.929-.748-3.929.748zm-.648 2.808l3.212 2.383.031-.041-3.243-2.342zm-3.96 4.824l-2.99-2.658-.041.048 3.031 2.61zm-4.176 4.464l2.657 2.99a4.61 4.61 0 00.118-.109l-2.775-2.881zm-3.024 1.368l.332 3.986c.055-.004.11-.01.164-.017l-.496-3.969zm31.824-1.728l-2.657-2.99a2.994 2.994 0 00-.079.072l2.736 2.918zm-2.88 1.008l-.347 3.985.18.012.167-3.997zm-2.736-1.296l-3.01 2.634c.03.035.061.068.092.102l2.918-2.736zm-2.592-2.664l2.762-2.893-2.762 2.893zm-3.168-3.024l-2.762 2.893 2.762-2.893zm-2.664-2.448l-2.736 2.918c.038.036.077.07.116.105l2.62-3.023zm-1.08-2.592l-3.995-.19 3.995.19zm1.152-2.592l-2.736-2.918-.092.09 2.828 2.828zm2.736-1.152l.182 3.996c.055-.003.11-.006.165-.011l-.347-3.985zm2.952 1.08l-2.746 2.908c.041.04.083.077.126.115l2.62-3.023zm2.664 2.448l-2.762 2.893.065.06 2.697-2.953zm5.904 5.616l-3.023 2.62c.036.041.073.082.11.121l2.913-2.741zm1.08 2.88l3.996.182v-.008l-3.996-.174zM211.06 67.4c-.313 0-.375-.068-.409-.096l-5.086 6.176c1.598 1.316 3.504 1.92 5.495 1.92v-8zm-.318-.018a.422.422 0 01.098.128c.011.025-.024-.038-.041-.245l-7.974.638c.163 2.04.957 4.02 2.649 5.5l5.268-6.021zm.056-.13c-.005-.062-.002-.093-.002-.098a.373.373 0 01-.041.111c-.012.02-.018.025-.008.013l-5.998-5.293c-1.49 1.689-2.103 3.769-1.923 5.931l7.972-.664zm.023-.06c.01-.011.005-.003-.017.014a.416.416 0 01-.08.05c-.029.013-.046.017-.042.016.005-.001.038-.009.106-.011l-.32-7.994c-2.244.09-4.295 1.007-5.793 2.804l6.146 5.122zm.042.065c1.711-.1 3.302-.288 4.566-.66l-2.258-7.674c-.368.108-1.225.257-2.778.348l.47 7.986zm4.768-.725c1.729-.61 3.189-1.807 4.022-3.592l-7.25-3.383c.058-.125.161-.273.307-.401a.9.9 0 01.259-.168l2.662 7.544zm3.975-3.495c.661-1.322 1.049-2.957 1.31-4.627l-7.904-1.235c-.219 1.402-.455 2.07-.562 2.284l7.156 3.578zm1.289-4.508c.333-1.772.562-3.976.71-6.555l-7.986-.46c-.14 2.413-.343 4.24-.586 5.54l7.862 1.475zm.705-6.478c.198-2.567.344-5.388.442-8.46l-7.996-.254a181.527 181.527 0 01-.422 8.1l7.976.614zm.442-8.46c.097-3.045.169-6.09.218-9.136l-7.999-.127c-.048 3.003-.12 6.006-.215 9.01l7.996.253zm.216-9.07c.052-1.625-.039-3.413-.644-4.927l-7.428 2.972c-.035-.089.007-.018.043.314.035.315.053.768.033 1.383l7.996.258zm-.563-4.706c-.695-2.083-2.311-3.477-4.337-3.984l-1.94 7.762a1.846 1.846 0 01-.76-.429 1.988 1.988 0 01-.553-.82l7.59-2.529zm-4.042-3.898c-1.362-.454-3.03-.565-4.649-.565v8c.672 0 1.191.027 1.575.068.403.042.556.09.544.087l2.53-7.59zm-4.649-.565h-.288v8h.288v-8zm-4.287 3.922c-.187 9.607-1.445 17.536-3.665 23.886l7.552 2.64c2.58-7.378 3.914-16.2 4.111-26.37l-7.998-.156zm-3.67 23.901c-2.1 6.084-5.645 11.026-10.686 14.913l4.886 6.336c6.287-4.85 10.758-11.091 13.362-18.64l-7.562-2.609zM194.348 68.1c-.01.008-.008.004.006-.002a.204.204 0 01.037-.014c.008-.002 0 0-.029.002a1.047 1.047 0 01-.177-.008l-.954 7.942c2.127.256 4.242-.216 6.029-1.606l-4.912-6.314zm-.308-.037a.473.473 0 01-.044-.006c-.008-.001-.01-.002-.007 0a.251.251 0 01.077.038.096.096 0 01.014.01l-.008-.009a.332.332 0 01-.032-.038l-6.28 4.958c1.403 1.776 3.353 2.83 5.616 3.02l.664-7.973zm.037.044c-.006-.008.002 0 .014.026.013.027.026.06.036.096a.362.362 0 01.012.077c.001.012-.001.001.004-.037l-7.926-1.08c-.282 2.066.208 4.081 1.506 5.778l6.354-4.86zm.063.188c.005-.034.009-.044.006-.036a.345.345 0 01-.068.117c-.013.015-.018.018-.008.01l-5.044-6.21c-1.575 1.28-2.524 3.014-2.806 4.987l7.92 1.132zm-.192.186c3.685-2.764 6.637-6.086 8.798-9.965l-6.988-3.894c-1.583 2.841-3.767 5.327-6.61 7.459l4.8 6.4zm8.789-9.949c2.162-3.838 3.685-8.192 4.618-13.01L199.501 44c-.795 4.109-2.056 7.627-3.734 10.605l6.97 3.926zm4.62-13.019c.916-4.786 1.412-10.158 1.51-16.093l-7.998-.134c-.094 5.585-.558 10.485-1.37 14.723l7.858 1.504zm-2.489-20.16h-5.184v8h5.184v-8zm-5.184 0a.923.923 0 01-.155-.01c-.017-.003-.008-.003.021.008a.527.527 0 01.172.114l-5.836 5.472c1.585 1.69 3.662 2.416 5.798 2.416v-8zm.13.214c-.017-.02-.022-.03-.021-.027l.008.018c.003.009.003.01.001-.001a.548.548 0 01-.006-.092h-8c0 1.988.664 3.846 1.998 5.37l6.02-5.268zm-.018-.102c0-.036.003-.045.001-.032a.517.517 0 01-.073.17c-.016.024-.026.033-.02.026l-5.656-5.656c-1.501 1.5-2.252 3.42-2.252 5.492h8zm-5.083-6.029c-.022.014-.035.02-.038.022-.003.002-.001 0 .008-.002l.012-.004a.187.187 0 01.013-.002l.008-.001v8a7.922 7.922 0 004.323-1.283l-4.326-6.73zm.003.013h-29.952v8h29.952v-8zm-29.952 0c-.114 0-.092-.018.009.023a.764.764 0 01.251.168l-5.848 5.458c1.524 1.633 3.523 2.351 5.588 2.351v-8zm.26.19c-.008-.008-.003-.004.01.015a.502.502 0 01.058.145c.002.013 0 .007 0-.022h-8c0 1.995.703 3.841 2.084 5.321l5.848-5.458zm.068.138c0-.1.015-.08-.02.01a.758.758 0 01-.144.226l-5.656-5.656c-1.509 1.508-2.18 3.432-2.18 5.42h8zm-.068.137a.764.764 0 01-.251.168c-.101.04-.123.023-.009.023v-8c-2.065 0-4.064.718-5.588 2.35l5.848 5.46zm-.26.191h11.16v-8h-11.16v8zm15.16-4V9.12h-8v6.984h8zm0-6.984c0-.094.008-.152.013-.18.004-.026.007-.027.001-.011a.349.349 0 01-.032.058c-.014.02-.022.027-.017.022l-5.482-5.826c-1.715 1.614-2.483 3.725-2.483 5.937h8zm-.035-.111a.41.41 0 01.059-.048c.006-.004.006-.003.004-.003-.002.001.004-.002.023-.005a.727.727 0 01.125-.009v-8c-2.139 0-4.113.751-5.693 2.24l5.482 5.825zm.211-.065c.065 0 .105.005.125.009.019.003.025.006.023.005-.002 0-.002 0 .004.003a.41.41 0 01.059.048l5.482-5.826c-1.58-1.488-3.554-2.239-5.693-2.239v8zm.211.065c.005.005-.003-.002-.017-.022a.349.349 0 01-.032-.058c-.006-.016-.003-.015.001.012.005.027.013.085.013.179h8c0-2.212-.768-4.323-2.483-5.937l-5.482 5.826zm-.035.111v6.984h8V9.12h-8zm4 10.984h10.44v-8h-10.44v8zm10.44 0c.114 0 .092.018-.009-.023a.764.764 0 01-.251-.168l5.848-5.458c-1.524-1.633-3.523-2.351-5.588-2.351v8zm-.164-.092a.758.758 0 01-.144-.227c-.035-.09-.02-.11-.02-.009h8c0-1.988-.671-3.912-2.18-5.42l-5.656 5.656zm-.164-.236c0 .053-.007.004.034-.1a.723.723 0 01.13-.208l5.656 5.656c1.472-1.47 2.18-3.35 2.18-5.348h-8zm5.155 5.885c.003-.003.003-.002 0 0-.002 0-.003 0 0 0 .004-.001.045-.013.141-.013v-8c-1.566 0-3.097.403-4.467 1.283l4.326 6.73zm.141-.013h5.184v-8h-5.184v8zm9.184-4V9.192h-8v12.456h8zm0-12.456c0-.087.007-.136.01-.155.003-.017.003-.008-.008.02a.557.557 0 01-.114.173l-5.472-5.836c-1.69 1.585-2.416 3.662-2.416 5.798h8zm-.202.12a.775.775 0 01.087-.067c.015-.01.02-.01.017-.01-.003.001-.004.001 0 0a.331.331 0 01.058-.003v-8c-2.063 0-3.932.737-5.454 2.08l5.292 6zm.162-.08c.058 0 .086.005.089.005.002 0-.016-.003-.046-.014a.489.489 0 01-.135-.083l5.656-5.656c-1.537-1.538-3.498-2.252-5.564-2.252v8zm0-.002a.557.557 0 01-.114-.173c-.011-.028-.011-.037-.008-.02.003.019.01.068.01.155h8c0-2.136-.726-4.213-2.416-5.798l-5.472 5.836zm-.112-.038v12.456h8V9.192h-8zm4 16.456h1.368v-8h-1.368v8zm1.368 0c2.57 0 4.302.313 5.39.736l2.9-7.456c-2.368-.92-5.196-1.28-8.29-1.28v8zm5.481.77c.69.25 1.173.66 1.558 1.474l7.234-3.416c-1.247-2.642-3.308-4.583-6.074-5.582l-2.718 7.524zm1.577 1.514c.409.842.795 2.568.75 5.61l8 .117c.051-3.487-.331-6.705-1.554-9.223l-7.196 3.496zm.75 5.668a299.5 299.5 0 01-.142 9.237l7.996.246c.097-3.161.146-6.322.146-9.483h-8zm-.142 9.237a221.02 221.02 0 01-.424 8.627l7.98.56c.196-2.795.343-5.776.44-8.941l-7.996-.246zm-.428 8.693c-.141 2.627-.326 4.832-.551 6.63l7.938.992c.255-2.042.454-4.445.601-7.194l-7.988-.428zm-.553 6.643c-.404 3.321-1.078 5.358-1.755 6.476l6.844 4.142c1.531-2.53 2.393-5.87 2.853-9.652l-7.942-.966zm-1.795 6.543c-.603 1.041-1.316 1.588-2.195 1.881l2.53 7.59c2.865-.955 5.08-2.856 6.589-5.463l-6.924-4.008zm-2.313 1.923c-1.228.452-3.045.761-5.601.761v8c3.108 0 5.947-.363 8.367-1.255l-2.766-7.506zm-50.652.342c-.152.122-.249.163-.506.143l-.614 7.976c2.239.172 4.35-.459 6.118-1.872l-4.998-6.247zm-.653.134c-.014 0 .002-.001.04.01a.52.52 0 01.119.048c.037.021.054.037.05.034a.778.778 0 01-.086-.104l-6.47 4.706c1.416 1.946 3.487 3.198 6.027 3.3l.32-7.994zm.189.082a.641.641 0 01-.057-.097c-.007-.015-.007-.019-.006-.014l.002.008s-.001-.016.003-.05l-7.926-1.08c-.284 2.078.22 4.053 1.382 5.75l6.602-4.517zm-.058-.153a.44.44 0 01-.067.178c-.013.02-.014.018.007-.003.021-.022.067-.065.15-.124l-4.65-6.51c-1.746 1.247-3.049 3.051-3.366 5.378l7.926 1.081zm.09.05c2.53-1.806 4.825-3.76 6.875-5.862l-5.728-5.584c-1.694 1.737-3.623 3.384-5.797 4.937l4.65 6.51zm6.874-5.86a54.073 54.073 0 005.519-6.61l-6.54-4.608a46.072 46.072 0 01-4.705 5.63l5.726 5.587zm4.94-11.874a61.654 61.654 0 00-3.466-2.926l-4.93 6.3a52.82 52.82 0 013.014 2.546l5.382-5.92zm-3.466-2.926a119.576 119.576 0 00-3.352-2.533l-4.706 6.47c1.016.738 2.058 1.526 3.128 2.363l4.93-6.3zm-3.38-2.553c-.173-.123-.174-.165-.124-.087a.87.87 0 01.125.37l-7.964.76c.23 2.414 1.592 4.237 3.313 5.467l4.65-6.51zm.003.3c-.003-.026-.002-.04-.002-.04l.001-.003c.001-.002.004-.016.018-.042a.887.887 0 01.083-.131l-6.44-4.746c-1.209 1.641-1.819 3.587-1.628 5.687l7.968-.724zm.1-.216a.314.314 0 01.038-.046l-.015.012a.19.19 0 01-.029.02l-.033.017a.24.24 0 01-.026.01c-.012.004-.006 0 .026-.004l-1.034-7.932c-2.206.287-4.062 1.405-5.367 3.177l6.44 4.746zm.102-.011a.547.547 0 01.101-.01h.011c-.004 0-.001 0 .011.005a.622.622 0 01.093.056l4.588-6.554c-1.815-1.27-3.93-1.754-6.12-1.389l1.316 7.892zm.216.05c.924.647 1.848 1.318 2.774 2.012l4.8-6.4c-.994-.746-1.99-1.467-2.986-2.165l-4.588 6.554zm2.774 2.012a56.266 56.266 0 012.689 2.152l5.182-6.096a64.658 64.658 0 00-3.071-2.456l-4.8 6.4zm8.886.835a73.306 73.306 0 003.198-7.767l-7.56-2.616a65.66 65.66 0 01-2.85 6.921l7.212 3.462zm3.182-7.72c.08-.224.132-.26.087-.209a.77.77 0 01-.277.191l-2.972-7.427c-2.263.905-3.644 2.731-4.366 4.735l7.528 2.71zm-.1-.054a.316.316 0 01.057-.02h-.01c-.008 0-.007 0 .006.001a.61.61 0 01.1.03l2.734-7.52c-1.986-.721-4.071-.688-6.039.155l3.152 7.354zm.307.063c.03.01.032.013.016.004a.423.423 0 01-.124-.108c-.009-.011-.002-.005.014.028l7.222-3.44c-.951-1.998-2.583-3.433-4.702-4.108l-2.426 7.624zm.012.132a.504.504 0 01-.038-.099.498.498 0 01-.021-.121c-.003-.066.015-.019-.056.177l7.528 2.71c.75-2.085.771-4.388-.403-6.523l-7.01 3.856zm-.113-.047a63.181 63.181 0 01-1.964 4.808l7.276 3.326a71.092 71.092 0 002.212-5.416l-7.524-2.718zm-1.986 4.856a50.663 50.663 0 01-2.202 4.406l6.972 3.922a58.994 58.994 0 002.55-5.098l-7.32-3.23zm-1.461 9.277c2.495 2.353 4.664 4.523 6.512 6.51l5.858-5.448c-1.992-2.141-4.287-4.435-6.88-6.882l-5.49 5.82zm6.46 6.453a.78.78 0 01.085.11c.009.014.006.013.001-.002a.323.323 0 01-.01-.04c-.001-.01.001-.002-.001.029l7.972.664c.193-2.317-.584-4.418-2.085-6.095l-5.962 5.334zm.065.255c-.001.01-.001.003.004-.016a.285.285 0 01.018-.05c.006-.013.006-.008-.011.014a1.11 1.11 0 01-.122.125l5.334 5.962c1.62-1.45 2.669-3.386 2.769-5.687l-7.992-.348zm-.111.073a1.01 1.01 0 01-.274.191.187.187 0 01-.083.014v8c2.197 0 4.132-.848 5.691-2.243l-5.334-5.962zm-.183.209c-.011 0-.003-.001.016.004a.27.27 0 01.051.018c.012.006.007.006-.014-.011a.94.94 0 01-.126-.122l-5.962 5.334c1.45 1.62 3.386 2.67 5.687 2.77l.348-7.993zm-.06-.096a101.11 101.11 0 00-5.172-5.398l-5.58 5.732a93.867 93.867 0 014.764 4.97l5.988-5.304zm-11.17-4.921a66.416 66.416 0 01-5.229 6.18l5.786 5.523a74.212 74.212 0 005.859-6.925l-6.416-4.778zm-5.198 6.146a55.878 55.878 0 01-6.182 5.442l4.84 6.37a63.846 63.846 0 007.065-6.222l-5.723-5.59zm-6.91-24.801c-.029-.03-.037-.043-.033-.037.004.006.016.024.028.053a.392.392 0 01.023.075c.004.02.002.021.002.001h-8c0 2.15.829 4.07 2.324 5.564l5.656-5.656zm.02.092c0-.005 0 .017-.009.061a.744.744 0 01-.05.151c-.055.118-.108.156-.071.123l-5.292-5.998c-1.647 1.452-2.578 3.42-2.578 5.663h8zm-.05.264a77.233 77.233 0 004.482-4.557l-5.92-5.382a68.63 68.63 0 01-4.014 4.083l5.452 5.856zm4.482-4.557c1.503-1.654 2.811-3.216 3.912-4.683l-6.4-4.8c-.915 1.22-2.055 2.586-3.432 4.101l5.92 5.382zm3.955-4.741c.012-.017-.037.052-.16.123-.125.07-.213.08-.201.079l-.724-7.968c-2.215.202-4.103 1.285-5.401 3.082l6.486 4.684zm-.206.184c.123-.016.114.005.019-.02a.72.72 0 01-.25-.122l5.044-6.209c-1.73-1.406-3.805-1.848-5.847-1.581l1.034 7.932zm-.139-.069a.33.33 0 01.028.024l.007.006-.007-.008-.011-.017-.01-.018-.005-.01.003.008.008.034 7.858-1.496a7.902 7.902 0 00-3.011-4.877l-4.86 6.354zm.013.02a.617.617 0 01.048-.293c.009-.02.009-.016-.01.01l6.486 4.684c1.24-1.717 1.741-3.764 1.334-5.898l-7.858 1.496zm.069-.324c-1.02 1.373-2.262 2.89-3.738 4.55l5.98 5.315c1.596-1.796 2.994-3.496 4.182-5.099l-6.424-4.766zm-3.779 4.597c-1.427 1.657-2.733 3.05-3.92 4.193l5.55 5.762c1.405-1.353 2.883-2.936 4.432-4.735l-6.062-5.22zm-3.802 4.084a1.48 1.48 0 01-.863.389l.992 7.938a9.468 9.468 0 005.185-2.347l-5.314-5.98zm-.699.372c-.033.002-.037 0-.02.002a.291.291 0 01.077.019c.015.005.027.01.037.015l.017.01c.003.001-.016-.01-.056-.048l-5.493 5.816c1.664 1.572 3.782 2.352 6.102 2.158l-.664-7.972zm29.42-.66s.012-.011.038-.027a.447.447 0 01.081-.038c.025-.01.035-.01.025-.008a.73.73 0 01-.121.002l-.334 7.994c2.113.088 4.153-.559 5.783-2.087l-5.472-5.836zm.203-.059a.768.768 0 01-.126-.02c-.019-.005-.024-.008-.021-.006l.006.003.003.002h-.001l-.005-.005a.564.564 0 01-.021-.02l-5.836 5.47c1.432 1.528 3.278 2.37 5.307 2.546l.694-7.97zm-.073.055c-.776-.887-1.731-1.865-2.84-2.923l-5.524 5.786c1.003.958 1.776 1.756 2.344 2.405l6.02-5.268zm-2.84-2.923l-3.168-3.024-5.524 5.786 3.168 3.024 5.524-5.786zm-3.168-3.024a82.586 82.586 0 00-2.806-2.578l-5.24 6.046a73.21 73.21 0 012.522 2.318l5.524-5.786zm-2.69-2.473c-.023-.021.047.04.11.192a.804.804 0 01.069.324l-7.99-.38c-.107 2.235.759 4.218 2.339 5.7l5.472-5.836zm.179.516l.002-.02a.296.296 0 01-.04.092c-.004.006.001-.003.023-.026l-5.656-5.656a7.797 7.797 0 00-2.319 5.23l7.99.38zm-.107.136a.433.433 0 01.074-.058l.002-.002h.004a.518.518 0 01.102-.013l-.364-7.993a8.154 8.154 0 00-5.29 2.23l5.472 5.836zm.347-.085c.008 0-.008.001-.043-.003a.517.517 0 01-.17-.054l.018.013a.85.85 0 01.054.047l5.492-5.816c-1.626-1.536-3.713-2.36-6.045-2.157l.694 7.97zm-.015.118a73.21 73.21 0 012.522 2.318l5.524-5.786a82.586 82.586 0 00-2.806-2.578l-5.24 6.046zm2.587 2.379l3.312 3.024 5.394-5.908-3.312-3.024-5.394 5.908zm3.312 3.024c1.046.955 1.784 1.702 2.266 2.258l6.046-5.24c-.766-.884-1.756-1.865-2.918-2.926l-5.394 5.908zm2.376 2.38c.03.031.039.046.036.041l-.009-.015-.013-.032c-.005-.011-.008-.023-.011-.034a.335.335 0 01-.006-.025v.03l7.992.347c.096-2.2-.667-4.206-2.163-5.795l-5.826 5.482zm-.003-.044c0 .002.001-.015.009-.045a.43.43 0 01.031-.086c.013-.025.02-.033.014-.025a.674.674 0 01-.083.084l5.314 5.98c1.588-1.411 2.605-3.303 2.707-5.544l-7.992-.364zm74.628 35.246l-2.741 2.913 2.741-2.913zm-1.224-18.576h4a4 4 0 00-6.9-2.755l2.9 2.755zm-6.48 5.832l-2.477-3.141 2.477 3.141zm-7.704 5.544l2.176 3.357.015-.01-2.191-3.347zm-7.272 4.32l1.845 3.549.033-.017-1.878-3.532zm-3.672.504l.899-3.898a3.32 3.32 0 00-.144-.03l-.755 3.928zm-2.664-1.944l3.578-1.789-3.578 1.789zm-.36-3.168l-3.812-1.213a4.455 4.455 0 00-.047.16l3.859 1.053zm2.088-2.376l-1.692-3.625-.097.047 1.789 3.578zm6.84-3.672l-2.028-3.448-.03.018 2.058 3.43zm7.128-4.536l2.266 3.296.014-.01-2.28-3.286zm6.264-4.68l2.529 3.1a4 4 0 00-2.529-7.1v4zm-22.104-1.008l-3.023 2.62c.063.072.127.141.195.208l2.828-2.828zm0-5.04l-2.924-2.73-.007.008 2.931 2.722zm27.936-1.08v4a4 4 0 004-4h-4zm0-4.464h4a4 4 0 00-4-4v4zm-13.68-1.08l-1.242 3.802.093.03 1.149-3.832zm-5.04-3.888l3.501-1.935-3.501 1.935zm0-19.584l3.479 1.974.022-.04-3.501-1.934zm5.04-3.816l1.171 3.825.048-.015-1.219-3.81zm35.856 0l-1.242 3.802.093.03 1.149-3.832zm5.112 3.816l-3.501 1.935.022.04 3.479-1.975zm0 19.584l-3.501-1.935 3.501 1.935zm-5.112 3.888l1.171 3.825.048-.015-1.219-3.81zm-13.824 1.08v-4a4 4 0 00-4 4h4zm0 4.464h-4a4 4 0 004 4v-4zm27.792 1.08l-3.023 2.62c.063.072.127.141.195.208l2.828-2.828zm0 5.04l-2.924-2.73-.007.008 2.931 2.722zm-21.744 1.008v-4a4.001 4.001 0 00-2.489 7.131l2.489-3.131zm6.264 4.68l-2.312 3.264.078.054 2.234-3.318zm7.128 4.536l-2.058 3.43.03.018 2.028-3.448zm6.84 3.672l-1.723 3.61c.042.02.085.04.128.058l1.595-3.668zm2.088 2.376l-3.87 1.01.011.043 3.859-1.053zm-.36 3.096l-3.543-1.856-.035.067 3.578 1.789zm-2.664 1.944l-.755-3.928a3.75 3.75 0 00-.178.038l.933 3.89zm-3.672-.504l-1.878 3.531.089.047 1.789-3.578zm-7.416-4.392l-2.191 3.347.028.018 2.163-3.365zm-7.704-5.544l-2.513 3.112.036.03 2.477-3.142zm-6.552-5.904l2.864-2.792a4 4 0 00-6.864 2.792h4zm-1.224 18.792l2.741 2.913-2.741-2.913zm1.224-41.04h-4a4 4 0 004 4v-4zm8.712-.36l-.886-3.9h-.001l.887 3.9zm2.16-1.368l-3.43-2.058a2.378 2.378 0 00-.043.073l3.473 1.985zm.72-3.24l3.998.133a4 4 0 00-3.998-4.133v4zm-11.592 0v-4a4 4 0 00-4 4h4zm0-6.192h-4a4 4 0 004 4v-4zm11.592 0v4a3.998 3.998 0 003.998-4.133l-3.998.133zm-.72-3.24l-3.529 1.882c.031.06.064.118.099.176l3.43-2.058zm-2.16-1.368l-.887 3.9c.057.013.114.025.171.035l.716-3.935zm-8.712-.36v-4a4 4 0 00-4 4h4zm-8.352 16.128v4a4 4 0 004-4h-4zm0-4.968h4a4 4 0 00-4-4v4zm-11.448 0v-4a4 4 0 00-3.991 4.266l3.991-.266zm.72 3.24l-3.529 1.882c.051.096.106.19.164.281l3.365-2.163zm2.232 1.368l.886-3.9-.886 3.9zm-2.952-10.8l-3.991-.266a4 4 0 003.991 4.266v-4zm11.448 0v4a4 4 0 004-4h-4zm0-4.968h4a4 4 0 00-4-4v4zm-8.496.36l.716 3.935a3.79 3.79 0 00.17-.035l-.886-3.9zm-2.232 1.368l-3.43-2.058a3.173 3.173 0 00-.099.176l3.529 1.882zm14.904 52.592a.728.728 0 01-.125-.009c-.019-.003-.025-.006-.023-.005.002 0 .002 0-.004-.003a.407.407 0 01-.059-.048l-5.482 5.826c1.58 1.488 3.554 2.239 5.693 2.239v-8zm-.211-.065c-.005-.005.003.002.017.022.014.02.025.042.032.058.006.016.003.015-.001-.012a1.014 1.014 0 01-.013-.179h-8c0 2.212.768 4.323 2.483 5.937l5.482-5.826zm.035-.111V52.608h-8V68.16h8zm-6.9-18.307c-1.669 1.757-3.682 3.574-6.057 5.446l4.954 6.282c2.617-2.064 4.924-4.135 6.903-6.218l-5.8-5.51zm-6.057 5.446a103.62 103.62 0 01-7.418 5.338l4.382 6.694a111.814 111.814 0 007.99-5.75l-4.954-6.282zm-7.403 5.328c-2.514 1.63-4.838 3.01-6.974 4.145l3.756 7.063c2.376-1.263 4.9-2.764 7.57-4.494l-4.352-6.714zm-6.941 4.128c-.407.212-.662.217-.928.155l-1.798 7.796c2.23.514 4.423.183 6.416-.853l-3.69-7.098zm-1.072.125c-.07-.014-.096-.025-.088-.022a.694.694 0 01.209.165c.031.038.042.06.038.052l-7.156 3.578c1.132 2.264 3.124 3.629 5.487 4.083l1.51-7.856zm.159.195c-.078-.155-.088-.233-.09-.247a.234.234 0 01.011-.08l-7.718-2.105c-.568 2.084-.289 4.149.641 6.01l7.156-3.578zm-.126-.166c.006-.02.008-.02 0-.005a.279.279 0 01-.033.047c-.013.014-.019.017-.009.01a.751.751 0 01.107-.063l-3.578-7.156c-1.951.976-3.424 2.584-4.111 4.741l7.624 2.426zm-.032.036c2.304-1.076 4.707-2.368 7.206-3.867l-4.116-6.86c-2.301 1.38-4.458 2.537-6.474 3.477l3.384 7.25zm7.176-3.85a123.743 123.743 0 007.366-4.687l-4.532-6.592a115.713 115.713 0 01-6.89 4.384l4.056 6.896zm7.38-4.697c2.42-1.679 4.593-3.3 6.513-4.867l-5.057-6.198c-1.729 1.41-3.732 2.908-6.016 4.493l4.56 6.572zm3.984-11.966h-19.44v8h19.44v-8zm-19.44 0c-.146 0-.154-.022-.078.007a.686.686 0 01.242.157l-5.656 5.656c1.543 1.544 3.513 2.18 5.492 2.18v-8zm.359.372c-.004-.004.001.002.011.018a.33.33 0 01.034.081.417.417 0 01-.004-.071h-8c0 1.91.62 3.72 1.913 5.212l6.046-5.24zm.041.028c0-.04.005.005-.03.097a.636.636 0 01-.103.177l-5.862-5.444c-1.346 1.45-2.005 3.252-2.005 5.17h8zm-.14.281a.764.764 0 01-.251.168c-.101.04-.123.023-.009.023v-8c-2.065 0-4.064.718-5.588 2.35l5.848 5.46zm-.26.191h25.272v-8h-25.272v8zm29.272-4V36.84h-8v4.464h8zm-4-8.464h-3.888v8h3.888v-8zm-3.888 0c-3.956 0-6.778-.352-8.643-.911l-2.298 7.662c2.935.88 6.641 1.249 10.941 1.249v-8zm-8.55-.882c-1.582-.517-2.352-1.245-2.781-2.02l-7.002 3.869c1.587 2.872 4.177 4.736 7.299 5.755l2.484-7.604zm-2.781-2.02c-.55-.996-1.013-2.751-1.013-5.626h-8c0 3.557.545 6.841 2.011 9.495l7.002-3.87zm-1.013-5.626v-4.464h-8v4.464h8zm0-4.464c0-2.945.471-4.67.991-5.586l-6.958-3.948c-1.496 2.635-2.033 5.951-2.033 9.534h8zm1.013-5.625c.417-.754 1.159-1.451 2.71-1.926l-2.342-7.65c-3.153.965-5.771 2.812-7.37 5.706l7.002 3.87zm2.758-1.941c1.835-.588 4.63-.962 8.573-.962v-8c-4.313 0-8.046.394-11.011 1.342l2.438 7.62zm8.573-.962h16.344v-8h-16.344v8zm16.344 0c3.948 0 6.706.376 8.478.954l2.484-7.604c-2.932-.958-6.654-1.35-10.962-1.35v8zm8.571.983c1.614.485 2.357 1.191 2.76 1.92l7.002-3.87c-1.613-2.92-4.278-4.757-7.464-5.712l-2.298 7.662zm2.782 1.96c.52.916.991 2.64.991 5.585h8c0-3.583-.537-6.899-2.033-9.534l-6.958 3.948zm.991 5.585v4.464h8v-4.464h-8zm0 4.464c0 2.875-.463 4.63-1.013 5.625l7.002 3.87c1.466-2.654 2.011-5.938 2.011-9.495h-8zm-1.013 5.625c-.415.751-1.187 1.487-2.83 2.013l2.438 7.62c3.157-1.01 5.793-2.866 7.394-5.763l-7.002-3.87zm-2.782 1.998c-1.802.552-4.588.905-8.549.905v8c4.295 0 7.989-.367 10.891-1.255l-2.342-7.65zm-8.549.905h-4.104v8h4.104v-8zm-8.104 4v4.464h8V36.84h-8zm4 8.464h25.2v-8h-25.2v8zm25.2 0c.117 0 .072.018-.062-.038a1.064 1.064 0 01-.369-.262l6.046-5.24c-1.508-1.74-3.555-2.46-5.615-2.46v8zm-.236-.092a.614.614 0 01-.115-.189c-.048-.116-.049-.195-.049-.191h8c0-2.009-.749-3.846-2.18-5.276l-5.656 5.656zm-.164-.38c0 .03-.002.035 0 .022a.502.502 0 01.058-.145c.013-.019.018-.023.01-.014l5.848 5.458c1.381-1.48 2.084-3.326 2.084-5.321h-8zm.061-.13a1.026 1.026 0 01.365-.25c.11-.042.123-.02-.026-.02v8c1.971 0 3.99-.635 5.523-2.286l-5.862-5.444zm.339-.27h-19.152v8h19.152v-8zm-21.641 7.131a146.024 146.024 0 006.441 4.813l4.624-6.528a138.17 138.17 0 01-6.087-4.547l-4.978 6.262zm6.519 4.867a165.299 165.299 0 007.304 4.648l4.116-6.86a157.924 157.924 0 01-6.952-4.424l-4.468 6.636zm7.334 4.666c2.527 1.486 4.91 2.767 7.145 3.834l3.446-7.22c-1.989-.95-4.166-2.116-6.535-3.51l-4.056 6.896zm7.273 3.892c.048.021.056.03.038.017a.752.752 0 01-.198-.236c-.023-.045-.029-.07-.027-.063l7.74-2.02c-.617-2.366-2.204-4.096-4.363-5.034l-3.19 7.336zm-.176-.24c.01.036.011.053.011.056.001.003 0 0 .001-.004 0-.004 0 .002-.006.02a.755.755 0 01-.05.116l7.086 3.712c.977-1.864 1.241-3.932.676-6.004l-7.718 2.105zm-.079.255c-.004.008.007-.014.038-.052a.694.694 0 01.209-.165c.008-.003-.018.008-.088.022l1.51 7.856c2.363-.454 4.355-1.819 5.487-4.083l-7.156-3.578zm-.019-.156c-.165.039-.428.069-.95-.193l-3.578 7.156c1.974.986 4.159 1.352 6.394.816l-1.866-7.78zm-.861-.146c-2.138-1.138-4.514-2.543-7.131-4.226l-4.326 6.73c2.759 1.773 5.327 3.296 7.701 4.558l3.756-7.063zm-7.103-4.208a103.62 103.62 0 01-7.418-5.338l-4.954 6.282a111.814 111.814 0 007.99 5.75l4.382-6.694zm-7.382-5.309c-2.396-1.935-4.458-3.797-6.201-5.584l-5.728 5.584c2.001 2.053 4.307 4.127 6.903 6.224l5.026-6.224zm-13.065-2.792V68.16h8V52.392h-8zm0 15.768c0 .094-.008.152-.013.18-.004.026-.007.027-.001.011a.352.352 0 01.032-.058c.014-.02.022-.027.017-.022l5.482 5.826c1.715-1.614 2.483-3.725 2.483-5.937h-8zm.035.111a.407.407 0 01-.059.048l-.004.003c.002-.001-.004.002-.023.005a.728.728 0 01-.125.009v8c2.139 0 4.113-.751 5.693-2.24l-5.482-5.825zm3.965-34.127h4.104v-8h-4.104v8zm4.104 0c2.106 0 3.997-.12 5.494-.46l-1.773-7.8c-.615.14-1.795.26-3.721.26v8zm5.494-.46c1.7-.386 3.614-1.3 4.747-3.283l-6.946-3.97a1.59 1.59 0 01.505-.548c.113-.072.12-.045-.078 0l1.772 7.802zm4.704-3.21c.949-1.582 1.231-3.47 1.288-5.165l-7.996-.266c-.018.542-.07.916-.123 1.155-.054.246-.092.265-.029.16l6.86 4.116zm-2.71-9.298h-11.592v8H288.1v-8zm-15.592 4v4.968h8v-4.968h-8zm4-2.192H288.1v-8h-11.592v8zm15.59-4.133c-.057-1.695-.339-3.582-1.288-5.165l-6.86 4.116c-.063-.105-.025-.086.029.16.053.239.105.613.123 1.155l7.996-.266zm-1.189-4.99c-1.129-2.118-3.124-3.084-4.973-3.42l-1.432 7.87c.149.027.079.039-.092-.07a1.667 1.667 0 01-.561-.615l7.058-3.764zm-4.803-3.386c-1.496-.34-3.388-.459-5.494-.459v8c1.926 0 3.106.12 3.721.26l1.773-7.8zm-5.494-.459h-4.104v8h4.104v-8zm-8.104 4v4.968h8v-4.968h-8zm-8.24 20.128h3.888v-8h-3.888v8zm7.888-4v-4.968h-8v4.968h8zm-4-8.968h-11.448v8h11.448v-8zm-15.439 4.266c.109 1.636.399 3.39 1.182 4.856l7.058-3.764c.027.05-.025-.033-.092-.336a8.742 8.742 0 01-.166-1.288l-7.982.532zm1.346 5.137c1.176 1.83 3.005 2.718 4.71 3.105l1.773-7.8c-.201-.046-.223-.08-.146-.032.041.025.106.07.179.14.075.072.149.16.214.261l-6.73 4.326zm4.71 3.105c1.497.34 3.389.46 5.495.46v-8c-1.926 0-3.107-.12-3.722-.26l-1.773 7.8zm-2.065-10.7h11.448v-8h-11.448v8zm15.448-4v-4.968h-8v4.968h8zm-4-8.968h-3.888v8h3.888v-8zm-3.888 0c-2.106 0-3.998.12-5.495.46l1.773 7.8c.615-.14 1.796-.26 3.722-.26v-8zm-5.324.425c-1.851.336-3.765 1.277-4.946 3.245l6.86 4.116a1.413 1.413 0 01-.458.47c-.134.083-.174.067-.024.04l-1.432-7.872zm-5.045 3.42c-.783 1.467-1.073 3.22-1.182 4.857l7.982.532a8.74 8.74 0 01.166-1.288c.067-.303.119-.386.092-.336l-7.058-3.764zm76.921 53.291l.519-3.966-.023-.003-.496 3.969zm-1.872-1.104l3.2-2.4-.06-.079-3.14 2.479zm-.576-2.112l3.972.477-3.972-.477zm1.056-1.92l-2.4-3.2-.079.06 2.479 3.14zm2.16-.576l.512-3.967-.035-.005-.477 3.972zm2.64.096l.332 3.986a3.56 3.56 0 00.145-.015l-.477-3.971zm2.064-1.008l-2.828-2.828 2.828 2.828zm1.536-2.832l-3.785-1.293 3.785 1.293zm1.152-5.424l-3.96-.566-.002.016 3.962.55zm.048-4.704l-3.926.764c.008.042.017.085.027.127l3.899-.891zm-1.776-2.352l-1.692 3.625.102.045 1.59-3.67zm-4.272-.48l-.271-3.99a4 4 0 00-3.568 2.866l3.839 1.124zm-2.784 7.872l-3.695-1.532-.016.039 3.711 1.493zm-3.504 7.488l3.508 1.922.011-.02-3.519-1.902zm-4.176 6.336l3.06 2.576.069-.084-3.129-2.492zm-1.92 1.056l-.496-3.97a4.103 4.103 0 00-.162.024l.658 3.946zm-2.112-.528l-2.577 3.06c.058.048.117.095.177.14l2.4-3.2zm-1.104-1.92l-3.971.477c.007.06.015.12.025.18l3.946-.657zm.624-2.112l3.06 2.576.034-.04-3.094-2.536zm5.136-8.112l3.585 1.774-3.585-1.774zm3.888-9.6l3.809 1.22a3.998 3.998 0 00-4.321-5.187l.512 3.967zm-3.072.384l.373 3.983.108-.012-.481-3.971zm-3.024.288l.319 3.987.066-.006-.385-3.981zm-2.112-.624l-2.479 3.14 2.479-3.14zm-1.056-1.92l-3.987.319c.004.053.009.105.016.158l3.971-.477zm.624-2.112l3.14 2.479.06-.079-3.2-2.4zm1.92-1.056l.319 3.987c.048-.004.095-.008.143-.014l-.462-3.973zm4.176-.384l.272 3.99.09-.006-.362-3.984zm4.128-.288l.19 3.995a4 4 0 003.696-3.045l-3.886-.95zm.816-4.224l3.962.553.001-.012-3.963-.541zm.384-4.032l-3.987-.319-.008.12 3.995.199zm.96-1.968l2.658 2.99.009-.009-2.667-2.981zm2.112-.72l-.319 3.987c.053.005.106.008.159.01l.16-3.997zm1.968.96l-3.06 2.576c.049.059.1.115.152.17l2.908-2.746zm.72 2.064l3.977.43.01-.111-3.987-.319zm-.48 3.696l-3.956-.593 3.956.593zm-.72 3.936l-3.911-.838a4 4 0 003.852 4.838l.059-4zm8.832 3.504l-3.314 2.24.022.032 3.292-2.272zm1.392 10.32l-3.962-.55-.005.038 3.967.512zm-2.496 9.216l-3.535-1.872a.82.82 0 01-.022.041l3.557 1.831zm-4.464 4.32l-1.419-3.74-.055.022 1.474 3.718zm16.032-14.688l-3.532 1.877a.68.68 0 00.02.038l3.512-1.915zm-2.064-3.216l-3.243 2.342.032.043 3.211-2.385zm-2.592-3.312l-3.132 2.487c.026.034.054.068.082.1l3.05-2.587zm-2.496-2.784l2.77-2.886-.023-.022-2.747 2.908zm-.912-1.968l-3.997.16v.007l3.997-.167zm2.736-2.928v4c.053 0 .107-.001.16-.003l-.16-3.997zm2.064.768l-2.746 2.908.01.01 2.736-2.918zm3.072 3.312l-3.092 2.537a2.1 2.1 0 00.072.086l3.02-2.623zm2.928 3.744l-3.277 2.294.039.054 3.238-2.348zm2.304 3.648l-3.538 1.867.026.048 3.512-1.915zm.24 2.208l-3.84-1.12a2.169 2.169 0 00-.03.11l3.87 1.01zm-5.376-12.768l2.828-2.828-2.828 2.828zm-1.584-1.488l-2.828 2.828c.049.05.1.098.152.145l2.676-2.973zm-1.728-1.584l-2.676 2.973c.044.04.088.078.133.115l2.543-3.088zm-.576-1.2l-3.992.25c.005.082.013.164.023.246l3.969-.496zm.48-1.392l-3.054-2.584 3.054 2.584zm1.248-.672l-.249-3.992h-.017l.266 3.992zm1.392.336L350.708 36l.068.04 2.028-3.447zm1.872 1.392l-2.614 3.027c.048.042.098.083.149.123l2.465-3.15zm1.824 1.584l-2.828 2.828 2.828-2.828zm.048 2.976l2.939 2.713c.034-.036.066-.073.098-.11l-3.037-2.603zm-1.488.672v4c.07 0 .14-.002.21-.005l-.21-3.995zm2.544-5.136l2.722-2.931a4.734 4.734 0 00-.119-.106l-2.603 3.037zm-1.728-1.392l-2.517 3.109.071.056 2.446-3.165zm-1.824-1.44l-2.676 2.973c.079.072.162.14.246.204l2.43-3.177zm-.624-1.2l-3.969.496c.01.08.023.161.038.241l3.931-.737zm.384-1.392l3.171 2.439c.04-.053.08-.107.118-.162l-3.289-2.277zm1.152-.72l.529 3.965c.069-.01.139-.02.208-.034l-.737-3.931zm1.44.24l-1.985 3.473.113.062 1.872-3.535zm1.968 1.248l-2.312 3.264.093.064 2.219-3.328zm1.92 1.44l-2.634 3.01.031.027 2.603-3.037zm.24 2.976l-3.145-2.471a4.363 4.363 0 00-.11.146l3.255 2.325zm-1.392.768l-.419-3.978-.023.003.442 3.975zm-27.824 28.575c.121.015.302.063.492.175.188.111.297.232.34.29l-6.4 4.8c1.107 1.475 2.691 2.438 4.576 2.673l.992-7.938zm.772.386c.072.092.161.244.215.442.053.196.048.343.041.402l-7.943-.954c-.218 1.81.239 3.588 1.408 5.068l6.279-4.958zm.256.844a1.259 1.259 0 01-.437.743l-4.958-6.28c-1.474 1.165-2.332 2.78-2.548 4.583l7.943.954zm-.516.803a1.047 1.047 0 01-.349.16 1.02 1.02 0 01-.368.035l.954-7.943a6.896 6.896 0 00-5.037 1.348l4.8 6.4zm-.752.191c1.194.154 2.366.208 3.484.115l-.664-7.972c-.418.035-1.006.025-1.796-.077l-1.024 7.934zm3.629.1a7.417 7.417 0 004.415-2.15l-5.656-5.657a.478.478 0 01.125-.082.563.563 0 01.162-.053l.954 7.942zm4.415-2.15c1.211-1.212 1.968-2.83 2.493-4.368l-7.57-2.586c-.172.502-.327.85-.451 1.078-.127.234-.184.274-.128.219l5.656 5.656zm2.493-4.368c.567-1.661.994-3.755 1.329-6.167l-7.924-1.1c-.305 2.196-.646 3.718-.975 4.681l7.57 2.586zm1.327-6.151c.312-2.186.406-4.329-.013-6.161l-7.798 1.782c.093.408.155 1.401-.109 3.247l7.92 1.132zm.014-6.034c-.44-2.262-1.779-4.247-4.112-5.258l-3.18 7.34a.96.96 0 01-.206-.125 1.247 1.247 0 01-.232-.235c-.136-.18-.141-.288-.122-.195l7.852-1.527zm-4.01-5.213c-1.884-.879-4.127-.989-6.235-.846l.542 7.982c.776-.053 1.354-.038 1.766.008.423.047.568.117.543.106l3.384-7.25zm-9.803 2.021a73.062 73.062 0 01-2.64 7.464l7.39 3.064a81.1 81.1 0 002.928-8.28l-7.678-2.248zm-2.656 7.503a69.059 69.059 0 01-3.312 7.079l7.038 3.804a77.367 77.367 0 003.696-7.897l-7.422-2.986zm-3.301 7.059c-1.181 2.156-2.449 4.074-3.797 5.766l6.258 4.984c1.66-2.084 3.176-4.39 4.555-6.906l-7.016-3.844zm-3.728 5.681a.985.985 0 01.268-.208c.15-.082.288-.117.376-.128l.992 7.938c1.797-.224 3.342-1.093 4.484-2.448l-6.12-5.154zm.482-.313c.118-.02.306-.025.524.03.216.053.359.141.422.188l-4.8 6.4c1.487 1.115 3.29 1.587 5.17 1.274l-1.316-7.892zm1.123.358a.799.799 0 01.159.202c.066.116.096.22.106.28l-7.892 1.316a7.11 7.11 0 002.473 4.322l5.154-6.12zm.291.663c.01.088.013.264-.052.482-.065.22-.166.377-.236.46l-6.12-5.153c-1.236 1.468-1.761 3.282-1.535 5.165l7.943-.954zm-.254.9c2.108-2.572 3.978-5.54 5.627-8.873l-7.17-3.548c-1.423 2.875-2.977 5.315-4.645 7.35l6.188 5.071zm5.627-8.873a73.33 73.33 0 004.112-10.154l-7.618-2.44a65.205 65.205 0 01-3.664 9.046l7.17 3.548zm-.209-15.341c-.981.127-1.995.253-3.041.38l.962 7.942c1.066-.13 2.1-.258 3.103-.388l-1.024-7.934zm-2.933.368c-1.028.097-2.04.193-3.036.29l.77 7.962c.988-.095 1.992-.19 3.012-.286l-.746-7.965zm-2.97.284a.943.943 0 01.324.043c.164.048.288.122.362.18l-4.958 6.28c1.432 1.13 3.144 1.612 4.91 1.471l-.638-7.974zm.686.223a1.259 1.259 0 01.437.743l-7.943.954c.216 1.803 1.074 3.418 2.548 4.583l4.958-6.28zm.452.901a.917.917 0 01-.043.324 1.096 1.096 0 01-.18.362l-6.28-4.958c-1.129 1.432-1.613 3.144-1.471 4.91l7.974-.638zm-.163.607c-.068.09-.209.238-.432.36a1.372 1.372 0 01-.529.171l-.638-7.974a6.55 6.55 0 00-4.801 2.643l6.4 4.8zm-.818.517a84.04 84.04 0 013.986-.366l-.544-7.982c-1.47.1-2.926.234-4.366.402l.924 7.946zm4.076-.373a91.997 91.997 0 013.956-.277l-.38-7.99a97.077 97.077 0 00-4.3.3l.724 7.967zm7.652-3.322c.382-1.563.68-3.103.892-4.621l-7.924-1.106a38.275 38.275 0 01-.74 3.827l7.772 1.9zm.893-4.633a51.22 51.22 0 00.416-4.373l-7.99-.4a43.622 43.622 0 01-.352 3.692l7.926 1.08zm.408-4.254a1.016 1.016 0 01-.104.343 1.163 1.163 0 01-.266.36l-5.314-5.98c-1.382 1.229-2.148 2.858-2.29 4.639l7.974.638zm-.36.694a1.169 1.169 0 01-.392.217 1.24 1.24 0 01-.482.07l.638-7.975c-1.911-.153-3.69.466-5.098 1.726l5.334 5.962zm-.715.296a1.315 1.315 0 01-.502-.138 1.346 1.346 0 01-.43-.322l6.12-5.154a6.6 6.6 0 00-4.868-2.38l-.32 7.994zm-.78-.29a1.378 1.378 0 01-.281-.482 1.311 1.311 0 01-.078-.52l7.974.638c.153-1.912-.466-3.718-1.799-5.13l-5.816 5.494zm-.349-1.113a84.75 84.75 0 01-.459 3.533l7.912 1.186a96.48 96.48 0 00.501-3.86l-7.954-.859zm-.459 3.533a60.904 60.904 0 01-.675 3.69l7.822 1.677c.305-1.42.56-2.814.765-4.18l-7.912-1.187zm3.177 8.529c3.832.056 5.125 1.075 5.577 1.744l6.628-4.48c-2.62-3.875-7.215-5.192-12.087-5.264l-.118 8zm5.599 1.776c.719 1.042 1.312 3.25.722 7.498l7.924 1.1c.69-4.968.355-9.64-2.062-13.142l-6.584 4.544zm.717 7.536c-.484 3.752-1.233 6.286-2.064 7.856l7.07 3.743c1.473-2.781 2.388-6.391 2.928-10.575l-7.934-1.024zm-2.086 7.897c-.777 1.511-1.596 2.134-2.326 2.411l2.838 7.48c2.982-1.131 5.139-3.388 6.602-6.23l-7.114-3.66zm-2.381 2.433c-1.038.41-2.578.622-4.823.328l-1.038 7.932c3.131.41 6.135.237 8.81-.824l-2.949-7.436zm19.527-13.33c.068-.037.209-.096.403-.117.194-.02.346.006.424.029l-2.24 7.68a6.8 6.8 0 005.243-.568l-3.83-7.024zm.827-.088c.081.024.226.084.381.209.155.125.244.253.283.324l-7.024 3.83a6.786 6.786 0 004.12 3.317l2.24-7.68zm.684.571c-.654-1.232-1.456-2.474-2.385-3.724l-6.422 4.77c.735.99 1.309 1.892 1.743 2.708l7.064-3.754zm-2.353-3.681a58.139 58.139 0 00-2.785-3.558l-6.1 5.176a49.525 49.525 0 012.399 3.066l6.486-4.684zm-2.703-3.457c-.949-1.196-1.901-2.264-2.858-3.182l-5.54 5.77c.643.618 1.355 1.406 2.134 2.386l6.264-4.974zm-2.881-3.205c.045.043.141.15.222.326.083.178.111.34.116.447l-7.994.334c.077 1.845.854 3.474 2.163 4.71l5.493-5.817zm.338.78a1.18 1.18 0 01-.08.439 1.204 1.204 0 01-.241.404l-5.816-5.493a6.732 6.732 0 00-1.857 4.97l7.994-.32zm-.321.843c-.057.06-.188.175-.4.268a1.384 1.384 0 01-.54.121v-8c-1.907 0-3.603.77-4.876 2.117l5.816 5.494zm-.78.386a1.176 1.176 0 01-.439-.08 1.21 1.21 0 01-.403-.24l5.493-5.817a6.732 6.732 0 00-4.971-1.857l.32 7.994zm-.832-.31c.88.824 1.786 1.797 2.716 2.93l6.184-5.074a38.677 38.677 0 00-3.428-3.693l-5.472 5.836zm2.788 3.016a41.72 41.72 0 012.671 3.415l6.554-4.588a49.375 49.375 0 00-3.185-4.073l-6.04 5.246zm2.71 3.469c.839 1.158 1.501 2.213 2.004 3.167l7.076-3.734c-.713-1.35-1.587-2.727-2.604-4.129l-6.476 4.696zm2.03 3.215a1.15 1.15 0 01-.117-.403 1.129 1.129 0 01.029-.424l7.68 2.24a6.802 6.802 0 00-.568-5.243l-7.024 3.83zm-.118-.717a1.435 1.435 0 01.611-.822l3.83 7.024c1.614-.88 2.812-2.315 3.299-4.182l-7.74-2.02zm1.322-14.586a45.655 45.655 0 00-1.736-1.633l-5.352 5.946c.61.549 1.082.994 1.432 1.343l5.656-5.656zm-1.584-1.488a28.452 28.452 0 00-2.013-1.844l-5.086 6.176c.426.35.907.788 1.443 1.324l5.656-5.656zm-1.88-1.73c.24.217.423.47.546.727.119.247.158.447.171.55l-7.938.993c.158 1.268.698 2.623 1.869 3.677l5.352-5.946zm.74 1.525c.016.246-.015.532-.114.821a1.975 1.975 0 01-.344.62l-6.108-5.168c-.972 1.15-1.519 2.615-1.418 4.225l7.984-.498zm-.458 1.44c-.099.117-.286.3-.582.459a2.37 2.37 0 01-.958.277l-.532-7.982c-1.709.114-3.085.956-4.036 2.08l6.108 5.167zm-1.556.737c-.114.007-.272 0-.457-.044a1.722 1.722 0 01-.497-.205l4.192-6.814a6.312 6.312 0 00-3.737-.921l.499 7.984zm-.886-.208c.264.155.687.454 1.286.971l5.228-6.054c-.809-.7-1.634-1.328-2.458-1.813l-4.056 6.896zm1.435 1.094c.652.51 1.129.93 1.461 1.262l5.656-5.656a24.036 24.036 0 00-2.187-1.906l-4.93 6.3zm1.461 1.262a1.87 1.87 0 01-.393-.597 1.959 1.959 0 01-.155-.743h8a6.026 6.026 0 00-1.796-4.316l-5.656 5.656zm-.548-1.34c0-.21.039-.44.126-.664a1.56 1.56 0 01.261-.451l6.074 5.206c.949-1.107 1.539-2.508 1.539-4.091h-8zm.485-1.225c.157-.17.372-.335.633-.453.255-.115.474-.15.608-.157l.42 7.99c1.564-.083 3.069-.71 4.217-1.954l-5.878-5.426zm1.451-.615c.205 0 .467.04.743.155.274.115.473.268.597.393l-5.656 5.656a6.028 6.028 0 004.316 1.796v-8zm5.147-4.173a49.367 49.367 0 00-1.885-1.52l-4.892 6.33c.675.521 1.193.94 1.571 1.264l5.206-6.074zm-1.814-1.464a88.983 88.983 0 00-1.911-1.508l-4.86 6.354c.508.39 1.087.846 1.737 1.372l5.034-6.218zm-1.665-1.304c.461.415.601.871.631 1.036l-7.862 1.474c.222 1.189.778 2.445 1.879 3.436l5.352-5.946zm.669 1.277a2.13 2.13 0 01-.065.828c-.085.31-.223.55-.349.715l-6.341-4.878a5.83 5.83 0 00-1.183 4.327l7.938-.992zm-.296 1.38a2.398 2.398 0 01-1.608.968l-1.058-7.929c-1.652.22-3.015 1.113-3.912 2.408l6.578 4.554zm-1.4.936a1.887 1.887 0 01-.651.002 1.92 1.92 0 01-.631-.221l3.97-6.946a6.053 6.053 0 00-4.162-.698l1.474 7.863zm-1.169-.157c.335.177.836.487 1.528.977l4.624-6.528c-.843-.598-1.655-1.12-2.408-1.52l-3.744 7.071zm1.621 1.041c.67.447 1.161.822 1.505 1.122l5.268-6.02a22.55 22.55 0 00-2.335-1.758l-4.438 6.656zm1.536 1.149a1.934 1.934 0 01-.459-.6 2.01 2.01 0 01-.212-.775l7.988-.444a5.969 5.969 0 00-2.111-4.255l-5.206 6.074zm-.671-1.375a1.74 1.74 0 01.08-.6c.074-.235.184-.423.289-.557l6.29 4.942a6.21 6.21 0 001.329-4.229l-7.988.444zm.259-1.011c.174-.243.423-.477.735-.65.302-.166.563-.22.709-.235l.838 7.956c1.606-.169 3.165-.932 4.228-2.421l-6.51-4.65zm1.421-.883a2.15 2.15 0 01.926.11c.337.115.57.284.702.407l-5.444 5.862c1.247 1.158 2.897 1.773 4.7 1.572l-.884-7.95z" fill="#EB537B" mask="url(#a)"/></g><defs><filter id="filter0_d_10944_61299" x=".561" y=".368" width="367.455" height="79.256" filterUnits="userSpaceOnUse" color-interpolation-filters="sRGB"><feFlood flood-opacity="0" result="BackgroundImageFix"/><feColorMatrix in="SourceAlpha" values="0 0 0 0 0 0 0 0 0 0 0 0 0 0 0 0 0 0 127 0" result="hardAlpha"/><feOffset dx="3" dy="3"/><feComposite in2="hardAlpha" operator="out"/><feColorMatrix values="0 0 0 0 0.921569 0 0 0 0 0.32549 0 0 0 0 0.482353 0 0 0 1 0"/><feBlend in2="BackgroundImageFix" result="effect1_dropShadow_10944_61299"/><feBlend in="SourceGraphic" in2="effect1_dropShadow_10944_61299" result="shape"/></filter></defs></svg>