<svg width="136" height="25" fill="none" xmlns="http://www.w3.org/2000/svg"><mask id="a" maskUnits="userSpaceOnUse" x="-.5" y="0" width="136" height="25" fill="#000"><path fill="#fff" d="M-.5 0h136v25H-.5z"/><path d="M12.99 21.924a1.373 1.373 0 01-.946-.418 1.184 1.184 0 01-.352-.924c0-.381.132-.697.396-.946.264-.264.58-.389.946-.374 1.203.015 2.112-.176 2.728-.572.63-.396.946-.997.946-1.804 0-.777-.345-1.371-1.034-1.782-.675-.41-1.643-.616-2.904-.616-.499 0-.975.022-1.43.066-.455.044-.895.103-1.32.176v2.772c0 1.51-.345 2.625-1.034 3.344-.69.704-1.687 1.056-2.992 1.056-1.056 0-1.936-.271-2.64-.814-.704-.543-1.056-1.408-1.056-2.596 0-1.217.455-2.31 1.364-3.278.924-.968 2.178-1.723 3.762-2.266V9.67a42.1 42.1 0 01-1.848.132 75.47 75.47 0 01-1.65.066 1.33 1.33 0 01-.946-.374 1.22 1.22 0 01-.396-.924c0-.367.125-.675.374-.924.264-.25.58-.374.946-.374a83.366 83.366 0 003.52-.176V4.39c0-.381.125-.697.374-.946a1.22 1.22 0 01.924-.396c.367 0 .675.132.924.396.25.25.374.565.374.946v2.486c.337-.03.653-.066.946-.11.293-.044.58-.08.858-.11a1.36 1.36 0 01.99.198c.293.19.47.47.528.836.059.367-.022.682-.242.946-.22.264-.513.425-.88.484-.308.059-.653.11-1.034.154-.367.044-.755.095-1.166.154v2.904c.88-.132 1.811-.198 2.794-.198 1.35 0 2.515.19 3.498.572.983.381 1.738.931 2.266 1.65.543.704.814 1.547.814 2.53 0 1.628-.565 2.89-1.694 3.784-1.13.895-2.699 1.313-4.708 1.254zm4.796-10.692c-.235-.176-.52-.367-.858-.572a18.89 18.89 0 00-1.012-.616 9.62 9.62 0 00-.88-.484 1.46 1.46 0 01-.704-.748 1.224 1.224 0 01.022-.99c.176-.352.433-.58.77-.682.352-.103.69-.073 1.012.088.308.147.66.337 1.056.572.396.235.785.477 1.166.726.396.235.719.447.968.638.293.205.462.484.506.836.044.352-.037.675-.242.968-.22.279-.506.447-.858.506a1.306 1.306 0 01-.946-.242zM5.994 19.394c.44 0 .785-.125 1.034-.374.264-.25.396-.755.396-1.518v-1.98c-.792.367-1.408.807-1.848 1.32-.425.499-.638 1.02-.638 1.562 0 .66.352.99 1.056.99zm33.33 3.388c-.425 0-.763-.117-1.012-.352-.235-.22-.367-.52-.396-.902a1.16 1.16 0 01.264-.924 1.3 1.3 0 01.88-.462c.557-.073.895-.183 1.012-.33.132-.147.198-.425.198-.836v-8.492h-2.618c-.85 0-1.54-.088-2.068-.264-.528-.176-.917-.484-1.166-.924-.235-.455-.352-1.085-.352-1.892V6.282c0-1.217.279-2.068.836-2.552.557-.484 1.474-.726 2.75-.726h1.54c1.276 0 2.193.242 2.75.726.557.484.836 1.335.836 2.552v13.31c0 1.13-.271 1.943-.814 2.442-.543.499-1.423.748-2.64.748zm-14.124.132c-.337 0-.63-.117-.88-.352-.235-.235-.352-.535-.352-.902V6.26c0-1.203.271-2.046.814-2.53.557-.499 1.474-.748 2.75-.748h1.452c1.29 0 2.207.25 2.75.748.557.484.836 1.327.836 2.53v1.144c0 .807-.125 1.437-.374 1.892-.235.44-.616.748-1.144.924-.513.176-1.203.264-2.068.264h-2.53V21.66c0 .367-.125.667-.374.902a1.194 1.194 0 01-.88.352zm8.052-3.652c-1.07 0-1.907-.117-2.508-.352-.601-.25-1.027-.63-1.276-1.144-.25-.528-.374-1.203-.374-2.024 0-.836.125-1.51.374-2.024.25-.513.675-.887 1.276-1.122.601-.235 1.437-.352 2.508-.352 1.07 0 1.9.117 2.486.352.601.235 1.027.609 1.276 1.122.25.513.374 1.188.374 2.024 0 .821-.125 1.496-.374 2.024-.25.513-.675.895-1.276 1.144-.587.235-1.415.352-2.486.352zm0-2.09c.645 0 1.078-.095 1.298-.286.235-.19.352-.572.352-1.144 0-.557-.117-.931-.352-1.122-.22-.19-.653-.286-1.298-.286-.66 0-1.107.095-1.342.286-.22.19-.33.565-.33 1.122 0 .572.11.953.33 1.144.235.19.682.286 1.342.286zm4.664-8.646h2.354v-.99h-3.762c.03.41.14.682.33.814.205.117.565.176 1.078.176zm-11.462 0h2.288c.513 0 .865-.059 1.056-.176.205-.132.323-.403.352-.814h-3.696v.99zm10.054-2.64h3.762c-.044-.381-.161-.63-.352-.748-.19-.132-.543-.198-1.056-.198h-.946c-.499 0-.85.066-1.056.198-.205.117-.323.367-.352.748zm-10.032 0h3.652c-.03-.381-.14-.63-.33-.748-.19-.132-.543-.198-1.056-.198h-.88c-.499 0-.85.066-1.056.198-.19.117-.3.367-.33.748zm25.718 13.376a3.636 3.636 0 01-1.936-.462c-.616-.337-1.159-.88-1.628-1.628-.396-.66-.733-1.496-1.012-2.508a19.74 19.74 0 01-.594-3.278 23.865 23.865 0 01-.088-3.542c.03-.367.169-.667.418-.902.264-.25.58-.36.946-.33.367.015.667.161.902.44.25.264.36.58.33.946a22.908 22.908 0 00.022 3.014c.073.968.213 1.855.418 2.662.205.792.462 1.452.77 1.98.337.601.763.902 1.276.902.63-.015 1.159-.675 1.584-1.98.117-.337.337-.587.66-.748.323-.176.66-.205 1.012-.088.337.103.587.323.748.66.161.323.183.653.066.99-.41 1.29-.96 2.251-1.65 2.882-.69.616-1.437.946-2.244.99zm11.99-3.872a1.27 1.27 0 01-1.034-.044 1.365 1.365 0 01-.682-.748 8.776 8.776 0 00-.902-1.65 11.668 11.668 0 00-1.254-1.584 8.48 8.48 0 00-1.408-1.254 1.322 1.322 0 01-.55-.858 1.153 1.153 0 01.242-.99c.235-.293.52-.455.858-.484.352-.03.682.066.99.286a11.64 11.64 0 011.804 1.562 14.979 14.979 0 011.628 1.98c.484.704.843 1.393 1.078 2.068.117.337.103.682-.044 1.034a1.192 1.192 0 01-.726.682zm12.386 7.062c-1.188 0-2.141-.132-2.86-.396-.704-.264-1.21-.704-1.518-1.32-.308-.616-.462-1.452-.462-2.508 0-1.07.154-1.907.462-2.508.308-.616.814-1.056 1.518-1.32.719-.264 1.672-.396 2.86-.396h3.278c1.203 0 2.156.132 2.86.396.704.264 1.21.704 1.518 1.32.323.601.484 1.437.484 2.508 0 1.056-.161 1.892-.484 2.508-.308.616-.814 1.056-1.518 1.32-.704.264-1.657.396-2.86.396H76.57zm-6.842-10.186c-.367.235-.74.33-1.122.286-.381-.044-.682-.235-.902-.572-.22-.337-.271-.675-.154-1.012a1.45 1.45 0 01.66-.814c.88-.513 1.79-1.122 2.728-1.826a44.976 44.976 0 002.684-2.222 31.974 31.974 0 002.222-2.134c.792-.865 1.562-1.298 2.31-1.298.763 0 1.577.418 2.442 1.254.63.616 1.357 1.269 2.178 1.958.836.69 1.716 1.364 2.64 2.024a33.2 33.2 0 002.816 1.782c.323.19.535.477.638.858.117.381.066.74-.154 1.078-.235.367-.55.58-.946.638-.396.059-.785-.037-1.166-.286a51.851 51.851 0 01-2.772-1.958A46.02 46.02 0 0181.102 7.8a37.546 37.546 0 01-2.288-2.178c-.205-.235-.403-.352-.594-.352-.19-.015-.396.095-.616.33a35.793 35.793 0 01-2.112 2.112 49.417 49.417 0 01-2.464 2.134c.132-.059.3-.088.506-.088h9.328c.367 0 .653.117.858.352.22.235.33.52.33.858 0 .323-.11.601-.33.836-.205.235-.491.352-.858.352h-9.328c-.367 0-.66-.117-.88-.352a1.228 1.228 0 01-.308-.836c0-.293.073-.535.22-.726-.484.367-.968.726-1.452 1.078-.47.337-.931.653-1.386.946zm6.864 7.832h3.256c.821 0 1.379-.117 1.672-.352.308-.25.462-.755.462-1.518s-.154-1.269-.462-1.518c-.293-.25-.85-.374-1.672-.374h-3.256c-.821 0-1.386.125-1.694.374-.293.25-.44.755-.44 1.518s.147 1.269.44 1.518c.308.235.873.352 1.694.352zm20.724 2.618a1.23 1.23 0 01-.902-.374 1.23 1.23 0 01-.374-.902v-5.676l-1.276 1.188-1.276 1.232a1.33 1.33 0 01-.946.374 1.23 1.23 0 01-.902-.374 1.376 1.376 0 01-.352-.946c.015-.367.154-.667.418-.902.69-.645 1.393-1.29 2.112-1.936a42.9 42.9 0 012.222-1.87V9.626c-.25.044-.572.11-.968.198-.396.088-.785.176-1.166.264a33.25 33.25 0 01-.902.198 1.31 1.31 0 01-.99-.176 1.212 1.212 0 01-.572-.814 1.352 1.352 0 01.176-1.012 1.21 1.21 0 01.814-.572c.117-.03.33-.066.638-.11l1.034-.198c.381-.073.748-.14 1.1-.198.352-.059.63-.11.836-.154V3.884c0-.352.125-.653.374-.902.25-.25.55-.374.902-.374s.653.125.902.374c.25.25.374.55.374.902v3.168c.44.147.807.425 1.1.836a1.6 1.6 0 01.264.99c0 .381-.08.8-.242 1.254a11.612 11.612 0 012.112-.858 7.363 7.363 0 012.068-.308c1.877 0 3.315.484 4.312 1.452 1.012.953 1.518 2.23 1.518 3.828a6.048 6.048 0 01-.726 2.882c-.469.91-1.254 1.694-2.354 2.354-1.1.66-2.574 1.13-4.422 1.408a1.303 1.303 0 01-.99-.22 1.44 1.44 0 01-.528-.88 1.19 1.19 0 01.242-.968c.22-.293.506-.47.858-.528 1.951-.308 3.322-.8 4.114-1.474.792-.69 1.188-1.547 1.188-2.574 0-.865-.271-1.533-.814-2.002-.543-.484-1.357-.726-2.442-.726-.895 0-1.775.198-2.64.594-.865.381-1.738.895-2.618 1.54v7.788c0 .352-.125.653-.374.902-.25.25-.55.374-.902.374zm31.636-1.694c-2.009.22-3.762.235-5.258.044-1.481-.19-2.691-.704-3.63-1.54a5.43 5.43 0 01-1.408-2.134c-.308-.85-.462-1.9-.462-3.146v-2.024a54.77 54.77 0 00-2.002.286c-.631.088-1.217.183-1.76.286a1.265 1.265 0 01-.968-.22 1.232 1.232 0 01-.528-.836 1.316 1.316 0 01.198-.968 1.23 1.23 0 01.836-.528 94.4 94.4 0 011.958-.264 73.348 73.348 0 012.266-.286V6.018c0-.367.125-.675.374-.924a1.29 1.29 0 01.946-.396c.367 0 .675.132.924.396.249.25.374.557.374.924v3.41c.763-.073 1.533-.14 2.31-.198a835.25 835.25 0 002.332-.176c.073-.63.125-1.24.154-1.826a36.29 36.29 0 00.088-1.65c.015-.367.147-.675.396-.924.264-.25.579-.367.946-.352.367.015.675.154.924.418.264.25.389.557.374.924a32.62 32.62 0 01-.088 1.584c-.029.543-.073 1.1-.132 1.672a42.781 42.781 0 011.892-.088c.616-.03 1.203-.051 1.76-.066.367 0 .675.132.924.396.249.25.374.55.374.902s-.125.66-.374.924c-.249.25-.557.374-.924.374a51.286 51.286 0 00-3.916.066c-.103.719-.22 1.423-.352 2.112-.117.675-.242 1.29-.374 1.848a1.292 1.292 0 01-.594.814 1.37 1.37 0 01-.99.154 1.299 1.299 0 01-.836-.594 1.371 1.371 0 01-.154-.99 31.799 31.799 0 00.594-3.19c-.719.044-1.445.103-2.178.176-.719.059-1.437.125-2.156.198v2.31c0 .821.088 1.503.264 2.046.176.543.44.975.792 1.298.557.499 1.364.807 2.42.924 1.056.103 2.523.059 4.4-.132.367-.044.689.051.968.286.293.235.455.535.484.902a1.28 1.28 0 01-.286.99c-.22.279-.521.433-.902.462z"/></mask><path d="M12.99 21.924a1.373 1.373 0 01-.946-.418 1.184 1.184 0 01-.352-.924c0-.381.132-.697.396-.946.264-.264.58-.389.946-.374 1.203.015 2.112-.176 2.728-.572.63-.396.946-.997.946-1.804 0-.777-.345-1.371-1.034-1.782-.675-.41-1.643-.616-2.904-.616-.499 0-.975.022-1.43.066-.455.044-.895.103-1.32.176v2.772c0 1.51-.345 2.625-1.034 3.344-.69.704-1.687 1.056-2.992 1.056-1.056 0-1.936-.271-2.64-.814-.704-.543-1.056-1.408-1.056-2.596 0-1.217.455-2.31 1.364-3.278.924-.968 2.178-1.723 3.762-2.266V9.67a42.1 42.1 0 01-1.848.132 75.47 75.47 0 01-1.65.066 1.33 1.33 0 01-.946-.374 1.22 1.22 0 01-.396-.924c0-.367.125-.675.374-.924.264-.25.58-.374.946-.374a83.366 83.366 0 003.52-.176V4.39c0-.381.125-.697.374-.946a1.22 1.22 0 01.924-.396c.367 0 .675.132.924.396.25.25.374.565.374.946v2.486c.337-.03.653-.066.946-.11.293-.044.58-.08.858-.11a1.36 1.36 0 01.99.198c.293.19.47.47.528.836.059.367-.022.682-.242.946-.22.264-.513.425-.88.484-.308.059-.653.11-1.034.154-.367.044-.755.095-1.166.154v2.904c.88-.132 1.811-.198 2.794-.198 1.35 0 2.515.19 3.498.572.983.381 1.738.931 2.266 1.65.543.704.814 1.547.814 2.53 0 1.628-.565 2.89-1.694 3.784-1.13.895-2.699 1.313-4.708 1.254zm4.796-10.692c-.235-.176-.52-.367-.858-.572a18.89 18.89 0 00-1.012-.616 9.62 9.62 0 00-.88-.484 1.46 1.46 0 01-.704-.748 1.224 1.224 0 01.022-.99c.176-.352.433-.58.77-.682.352-.103.69-.073 1.012.088.308.147.66.337 1.056.572.396.235.785.477 1.166.726.396.235.719.447.968.638.293.205.462.484.506.836.044.352-.037.675-.242.968-.22.279-.506.447-.858.506a1.306 1.306 0 01-.946-.242zM5.994 19.394c.44 0 .785-.125 1.034-.374.264-.25.396-.755.396-1.518v-1.98c-.792.367-1.408.807-1.848 1.32-.425.499-.638 1.02-.638 1.562 0 .66.352.99 1.056.99zm33.33 3.388c-.425 0-.763-.117-1.012-.352-.235-.22-.367-.52-.396-.902a1.16 1.16 0 01.264-.924 1.3 1.3 0 01.88-.462c.557-.073.895-.183 1.012-.33.132-.147.198-.425.198-.836v-8.492h-2.618c-.85 0-1.54-.088-2.068-.264-.528-.176-.917-.484-1.166-.924-.235-.455-.352-1.085-.352-1.892V6.282c0-1.217.279-2.068.836-2.552.557-.484 1.474-.726 2.75-.726h1.54c1.276 0 2.193.242 2.75.726.557.484.836 1.335.836 2.552v13.31c0 1.13-.271 1.943-.814 2.442-.543.499-1.423.748-2.64.748zm-14.124.132c-.337 0-.63-.117-.88-.352-.235-.235-.352-.535-.352-.902V6.26c0-1.203.271-2.046.814-2.53.557-.499 1.474-.748 2.75-.748h1.452c1.29 0 2.207.25 2.75.748.557.484.836 1.327.836 2.53v1.144c0 .807-.125 1.437-.374 1.892-.235.44-.616.748-1.144.924-.513.176-1.203.264-2.068.264h-2.53V21.66c0 .367-.125.667-.374.902a1.194 1.194 0 01-.88.352zm8.052-3.652c-1.07 0-1.907-.117-2.508-.352-.601-.25-1.027-.63-1.276-1.144-.25-.528-.374-1.203-.374-2.024 0-.836.125-1.51.374-2.024.25-.513.675-.887 1.276-1.122.601-.235 1.437-.352 2.508-.352 1.07 0 1.9.117 2.486.352.601.235 1.027.609 1.276 1.122.25.513.374 1.188.374 2.024 0 .821-.125 1.496-.374 2.024-.25.513-.675.895-1.276 1.144-.587.235-1.415.352-2.486.352zm0-2.09c.645 0 1.078-.095 1.298-.286.235-.19.352-.572.352-1.144 0-.557-.117-.931-.352-1.122-.22-.19-.653-.286-1.298-.286-.66 0-1.107.095-1.342.286-.22.19-.33.565-.33 1.122 0 .572.11.953.33 1.144.235.19.682.286 1.342.286zm4.664-8.646h2.354v-.99h-3.762c.03.41.14.682.33.814.205.117.565.176 1.078.176zm-11.462 0h2.288c.513 0 .865-.059 1.056-.176.205-.132.323-.403.352-.814h-3.696v.99zm10.054-2.64h3.762c-.044-.381-.161-.63-.352-.748-.19-.132-.543-.198-1.056-.198h-.946c-.499 0-.85.066-1.056.198-.205.117-.323.367-.352.748zm-10.032 0h3.652c-.03-.381-.14-.63-.33-.748-.19-.132-.543-.198-1.056-.198h-.88c-.499 0-.85.066-1.056.198-.19.117-.3.367-.33.748zm25.718 13.376a3.636 3.636 0 01-1.936-.462c-.616-.337-1.159-.88-1.628-1.628-.396-.66-.733-1.496-1.012-2.508a19.74 19.74 0 01-.594-3.278 23.865 23.865 0 01-.088-3.542c.03-.367.169-.667.418-.902.264-.25.58-.36.946-.33.367.015.667.161.902.44.25.264.36.58.33.946a22.908 22.908 0 00.022 3.014c.073.968.213 1.855.418 2.662.205.792.462 1.452.77 1.98.337.601.763.902 1.276.902.63-.015 1.159-.675 1.584-1.98.117-.337.337-.587.66-.748.323-.176.66-.205 1.012-.088.337.103.587.323.748.66.161.323.183.653.066.99-.41 1.29-.96 2.251-1.65 2.882-.69.616-1.437.946-2.244.99zm11.99-3.872a1.27 1.27 0 01-1.034-.044 1.365 1.365 0 01-.682-.748 8.776 8.776 0 00-.902-1.65 11.668 11.668 0 00-1.254-1.584 8.48 8.48 0 00-1.408-1.254 1.322 1.322 0 01-.55-.858 1.153 1.153 0 01.242-.99c.235-.293.52-.455.858-.484.352-.03.682.066.99.286a11.64 11.64 0 011.804 1.562 14.979 14.979 0 011.628 1.98c.484.704.843 1.393 1.078 2.068.117.337.103.682-.044 1.034a1.192 1.192 0 01-.726.682zm12.386 7.062c-1.188 0-2.141-.132-2.86-.396-.704-.264-1.21-.704-1.518-1.32-.308-.616-.462-1.452-.462-2.508 0-1.07.154-1.907.462-2.508.308-.616.814-1.056 1.518-1.32.719-.264 1.672-.396 2.86-.396h3.278c1.203 0 2.156.132 2.86.396.704.264 1.21.704 1.518 1.32.323.601.484 1.437.484 2.508 0 1.056-.161 1.892-.484 2.508-.308.616-.814 1.056-1.518 1.32-.704.264-1.657.396-2.86.396H76.57zm-6.842-10.186c-.367.235-.74.33-1.122.286-.381-.044-.682-.235-.902-.572-.22-.337-.271-.675-.154-1.012a1.45 1.45 0 01.66-.814c.88-.513 1.79-1.122 2.728-1.826a44.976 44.976 0 002.684-2.222 31.974 31.974 0 002.222-2.134c.792-.865 1.562-1.298 2.31-1.298.763 0 1.577.418 2.442 1.254.63.616 1.357 1.269 2.178 1.958.836.69 1.716 1.364 2.64 2.024a33.2 33.2 0 002.816 1.782c.323.19.535.477.638.858.117.381.066.74-.154 1.078-.235.367-.55.58-.946.638-.396.059-.785-.037-1.166-.286a51.851 51.851 0 01-2.772-1.958A46.02 46.02 0 0181.102 7.8a37.546 37.546 0 01-2.288-2.178c-.205-.235-.403-.352-.594-.352-.19-.015-.396.095-.616.33a35.793 35.793 0 01-2.112 2.112 49.417 49.417 0 01-2.464 2.134c.132-.059.3-.088.506-.088h9.328c.367 0 .653.117.858.352.22.235.33.52.33.858 0 .323-.11.601-.33.836-.205.235-.491.352-.858.352h-9.328c-.367 0-.66-.117-.88-.352a1.228 1.228 0 01-.308-.836c0-.293.073-.535.22-.726-.484.367-.968.726-1.452 1.078-.47.337-.931.653-1.386.946zm6.864 7.832h3.256c.821 0 1.379-.117 1.672-.352.308-.25.462-.755.462-1.518s-.154-1.269-.462-1.518c-.293-.25-.85-.374-1.672-.374h-3.256c-.821 0-1.386.125-1.694.374-.293.25-.44.755-.44 1.518s.147 1.269.44 1.518c.308.235.873.352 1.694.352zm20.724 2.618a1.23 1.23 0 01-.902-.374 1.23 1.23 0 01-.374-.902v-5.676l-1.276 1.188-1.276 1.232a1.33 1.33 0 01-.946.374 1.23 1.23 0 01-.902-.374 1.376 1.376 0 01-.352-.946c.015-.367.154-.667.418-.902.69-.645 1.393-1.29 2.112-1.936a42.9 42.9 0 012.222-1.87V9.626c-.25.044-.572.11-.968.198-.396.088-.785.176-1.166.264a33.25 33.25 0 01-.902.198 1.31 1.31 0 01-.99-.176 1.212 1.212 0 01-.572-.814 1.352 1.352 0 01.176-1.012 1.21 1.21 0 01.814-.572c.117-.03.33-.066.638-.11l1.034-.198c.381-.073.748-.14 1.1-.198.352-.059.63-.11.836-.154V3.884c0-.352.125-.653.374-.902.25-.25.55-.374.902-.374s.653.125.902.374c.25.25.374.55.374.902v3.168c.44.147.807.425 1.1.836a1.6 1.6 0 01.264.99c0 .381-.08.8-.242 1.254a11.612 11.612 0 012.112-.858 7.363 7.363 0 012.068-.308c1.877 0 3.315.484 4.312 1.452 1.012.953 1.518 2.23 1.518 3.828a6.048 6.048 0 01-.726 2.882c-.469.91-1.254 1.694-2.354 2.354-1.1.66-2.574 1.13-4.422 1.408a1.303 1.303 0 01-.99-.22 1.44 1.44 0 01-.528-.88 1.19 1.19 0 01.242-.968c.22-.293.506-.47.858-.528 1.951-.308 3.322-.8 4.114-1.474.792-.69 1.188-1.547 1.188-2.574 0-.865-.271-1.533-.814-2.002-.543-.484-1.357-.726-2.442-.726-.895 0-1.775.198-2.64.594-.865.381-1.738.895-2.618 1.54v7.788c0 .352-.125.653-.374.902-.25.25-.55.374-.902.374zm31.636-1.694c-2.009.22-3.762.235-5.258.044-1.481-.19-2.691-.704-3.63-1.54a5.43 5.43 0 01-1.408-2.134c-.308-.85-.462-1.9-.462-3.146v-2.024a54.77 54.77 0 00-2.002.286c-.631.088-1.217.183-1.76.286a1.265 1.265 0 01-.968-.22 1.232 1.232 0 01-.528-.836 1.316 1.316 0 01.198-.968 1.23 1.23 0 01.836-.528 94.4 94.4 0 011.958-.264 73.348 73.348 0 012.266-.286V6.018c0-.367.125-.675.374-.924a1.29 1.29 0 01.946-.396c.367 0 .675.132.924.396.249.25.374.557.374.924v3.41c.763-.073 1.533-.14 2.31-.198a835.25 835.25 0 002.332-.176c.073-.63.125-1.24.154-1.826a36.29 36.29 0 00.088-1.65c.015-.367.147-.675.396-.924.264-.25.579-.367.946-.352.367.015.675.154.924.418.264.25.389.557.374.924a32.62 32.62 0 01-.088 1.584c-.029.543-.073 1.1-.132 1.672a42.781 42.781 0 011.892-.088c.616-.03 1.203-.051 1.76-.066.367 0 .675.132.924.396.249.25.374.55.374.902s-.125.66-.374.924c-.249.25-.557.374-.924.374a51.286 51.286 0 00-3.916.066c-.103.719-.22 1.423-.352 2.112-.117.675-.242 1.29-.374 1.848a1.292 1.292 0 01-.594.814 1.37 1.37 0 01-.99.154 1.299 1.299 0 01-.836-.594 1.371 1.371 0 01-.154-.99 31.799 31.799 0 00.594-3.19c-.719.044-1.445.103-2.178.176-.719.059-1.437.125-2.156.198v2.31c0 .821.088 1.503.264 2.046.176.543.44.975.792 1.298.557.499 1.364.807 2.42.924 1.056.103 2.523.059 4.4-.132.367-.044.689.051.968.286.293.235.455.535.484.902a1.28 1.28 0 01-.286.99c-.22.279-.521.433-.902.462z" fill="#fff"/><path d="M12.99 21.924l-.08 1.998h.01l.012.001.058-1.999zm-.946-.418l1.414-1.414-1.414 1.414zm-.352-.924l1.998.08.002-.04v-.04h-2zm.396-.946l1.373 1.454.021-.02.02-.02-1.414-1.414zm.946-.374l-.08 1.998.028.002h.028l.024-2zm2.728-.572l-1.064-1.694-.009.006-.008.006 1.081 1.682zm-.088-3.586l-1.04 1.708.008.005.008.005 1.024-1.718zm-4.334-.55l.193 1.99-.193-1.99zm-1.32.176l-.34-1.97-1.66.285v1.685h2zm-1.034 6.116l1.429 1.4.007-.008.007-.008-1.443-1.384zm-5.632.242l-1.221 1.584 1.221-1.584zm.308-5.874l-1.447-1.381-.005.006-.006.006 1.458 1.369zm3.762-2.266l.648 1.892 1.352-.463v-1.429h-2zm0-3.278h2V7.475l-2.185.204.185 1.991zm-1.848.132l-.097-1.998h-.003l.1 1.998zm-1.65.066v2h.057l-.057-2zm-.946-.374l-1.373 1.454L2.98 9.494zm-.022-1.848L1.585 6.192l-.021.02-.02.02 1.414 1.414zm.946-.374v2h.057l-.057-2zm1.672-.066l-.097-1.998.097 1.998zm1.848-.11l.14 1.995 1.86-.13V7.096h-2zm.374-3.652l1.414 1.414.02-.02.02-.02-1.454-1.374zm1.848 0L8.192 4.817l.02.021.02.02 1.414-1.414zm.374 3.432h-2v2.181l2.173-.189-.173-1.992zm.946-.11l.297 1.978-.297-1.978zm.858-.11l.21 1.989.053-.006.053-.008-.316-1.975zm.99.198l-1.09 1.677 1.09-1.677zm.528.836l-1.975.316 1.975-.316zM12.22 9.12l-.316-1.975-.03.005-.028.005.374 1.965zm-1.034.154l-.23-1.987-.008.001.238 1.986zm-1.166.154l-.283-1.98-1.717.245v1.735h2zm0 2.904h-2v2.322l2.297-.344-.297-1.978zm6.292.374l-.724 1.864.724-1.864zm2.266 1.65l-1.612 1.184.014.019.014.018 1.584-1.221zm-.88 6.314l-1.242-1.568 1.242 1.568zm.088-9.438l-1.2 1.6.026.02.027.018 1.147-1.638zm-.858-.572l-1.093 1.675.026.017.027.016 1.04-1.708zm-1.012-.616l-1.04 1.708.028.017.028.016.984-1.741zm-.88-.484l-.894 1.789.02.01.022.01.852-1.809zm-.704-.748l-1.863.729.014.034.015.034 1.834-.797zm.022-.99l-1.789-.894-.016.033-.016.033 1.821.828zm.77-.682l-.56-1.92-.011.003-.011.004.582 1.913zm1.012.088l-.894 1.789.017.008.017.009.86-1.806zm1.056.572l-1.02 1.72 1.02-1.72zm1.166.726L17.263 10.2l.037.024.038.023 1.02-1.721zm.968.638l-1.215 1.589.034.025.034.024 1.147-1.638zm.506.836l-1.985.248L19.832 10zm-.242.968l1.57 1.24.035-.046.034-.047-1.639-1.147zm-.858.506l.259 1.983.035-.004.035-.006-.329-1.973zM7.028 19.02l-1.373-1.454-.021.02-.02.02 1.414 1.414zm.396-3.498h2v-3.13l-2.84 1.315.84 1.815zm-1.848 1.32L4.057 15.54l-.003.004 1.522 1.298zm7.494 3.084c.051.002.13.015.217.053a.576.576 0 01.171.113L10.63 22.92a3.372 3.372 0 002.28 1.002l.16-3.996zm.388.166a.819.819 0 01.232.57l-3.996-.16a3.182 3.182 0 00.936 2.418l2.828-2.828zm.234.49a.767.767 0 01-.23.508l-2.747-2.908a3.243 3.243 0 00-1.023 2.4h4zm-.19.468a.73.73 0 01-.244.154.763.763 0 01-.304.056l.16-3.996a3.216 3.216 0 00-2.44.958l2.828 2.828zm-.492.212c1.367.017 2.738-.185 3.833-.89l-2.162-3.364c-.137.087-.584.267-1.623.254l-.048 4zm3.816-.878c1.269-.797 1.882-2.072 1.882-3.498h-4a.61.61 0 01-.01.13c-.004.015-.005.012.002-.003a.166.166 0 01.025-.035c.006-.007 0 .001-.027.018l2.128 3.388zm1.882-3.498c0-1.51-.74-2.743-2.01-3.5l-2.048 3.436a.463.463 0 01.083.059c.004.004-.003-.002-.013-.02a.163.163 0 01-.016-.036c-.001-.003.004.015.004.061h4zm-1.994-3.49c-1.123-.684-2.514-.908-3.944-.908v4c1.093 0 1.638.186 1.864.324l2.08-3.416zm-3.944-.908c-.557 0-1.098.025-1.623.075l.386 3.982a12.85 12.85 0 011.237-.057v-4zm-1.623.075c-.5.049-.99.114-1.467.196l.68 3.942c.374-.064.764-.117 1.173-.156l-.386-3.982zM8.02 14.73v2.772h4V14.73h-4zm0 2.772c0 1.256-.292 1.767-.477 1.96l2.886 2.768c1.194-1.244 1.591-2.962 1.591-4.728h-4zm-.463 1.945c-.203.207-.614.455-1.563.455v4c1.662 0 3.245-.456 4.421-1.657l-2.858-2.798zm-1.563.455c-.7 0-1.127-.173-1.419-.398l-2.442 3.168c1.116.86 2.45 1.23 3.861 1.23v-4zm-1.419-.398c-.058-.045-.277-.22-.277-1.012h-4c0 1.583.485 3.14 1.835 4.18l2.442-3.168zm-.277-1.012c0-.66.226-1.275.822-1.909l-2.916-2.738C.981 15.147.298 16.718.298 18.492h4zm.81-1.897c.655-.685 1.609-1.29 2.964-1.755l-1.296-3.784c-1.813.621-3.367 1.526-4.56 2.777l2.893 2.762zm4.316-3.647V9.67h-4v3.278h4zm-2.185-5.27c-.603.057-1.19.099-1.76.126l.194 3.996a43.111 43.111 0 001.936-.139L7.24 7.68zm-1.763.127c-.574.028-1.11.05-1.607.064l.114 3.998a78.92 78.92 0 001.693-.068l-.2-3.994zm-1.55.063c.048 0 .129.01.224.047a.648.648 0 01.203.125l-2.746 2.908c.639.604 1.447.92 2.319.92v-4zm.427.172c.05.047.118.13.168.248.05.118.063.22.063.282h-4c0 .91.354 1.747 1.023 2.378L4.353 8.04zm.231.53a.75.75 0 01-.212.49L1.544 6.232a3.25 3.25 0 00-.96 2.338h4zm-.253.53a.648.648 0 01-.203.125.628.628 0 01-.224.047v-4a3.33 3.33 0 00-2.32.92L4.332 9.1zm-.37.171c.529-.015 1.1-.037 1.712-.067L5.48 5.208c-.59.03-1.134.05-1.632.065L3.96 9.27zm1.712-.067c.616-.03 1.246-.068 1.89-.113l-.278-3.99c-.618.043-1.22.079-1.806.107l.194 3.996zm3.751-2.108V4.39h-4v2.706h4zm0-2.706c0 .03-.006.109-.047.213a.763.763 0 01-.165.255L6.384 2.03c-.657.657-.96 1.496-.96 2.36h4zm-.172.427a.754.754 0 01-.248.168.735.735 0 01-.282.063v-4c-.91 0-1.747.354-2.378 1.023l2.908 2.746zm-.53.231a.736.736 0 01-.282-.063.755.755 0 01-.248-.168L11.1 2.071a3.219 3.219 0 00-2.378-1.023v4zm-.49-.19a.763.763 0 01-.165-.255.606.606 0 01-.047-.213h4c0-.864-.303-1.703-.96-2.36L8.232 4.858zM8.02 4.39v2.486h4V4.39h-4zm2.173 4.478c.373-.032.73-.073 1.07-.124l-.594-3.956c-.247.037-.52.07-.822.096l.346 3.984zm1.07-.124c.266-.04.523-.073.77-.099l-.418-3.978c-.31.033-.625.073-.946.121l.594 3.956zm.877-.113a.672.672 0 01-.416-.1l2.18-3.354a3.36 3.36 0 00-2.396-.496l.632 3.95zm-.416-.1a.853.853 0 01-.357-.525l3.95-.632a3.167 3.167 0 00-1.413-2.197l-2.18 3.354zm-.357-.525a.763.763 0 01.02-.3.903.903 0 01.177-.35l3.072 2.56c.623-.746.823-1.657.68-2.542l-3.949.632zm.197-.65a.663.663 0 01.187-.153.5.5 0 01.153-.058l.632 3.95a3.386 3.386 0 002.1-1.179l-3.072-2.56zm.282-.2c-.251.047-.546.092-.89.131l.46 3.974c.419-.049.813-.107 1.178-.176l-.748-3.93zm-.898.132c-.383.046-.787.1-1.21.16l.565 3.96a48.83 48.83 0 011.121-.148l-.476-3.972zM8.02 9.428v2.904h4V9.428h-4zm2.297 4.882a16.834 16.834 0 012.497-.176v-4a20.84 20.84 0 00-3.09.22l.593 3.956zm2.497-.176c1.168 0 2.077.166 2.774.436l1.448-3.729c-1.268-.492-2.691-.707-4.222-.707v4zm2.774.436c.694.27 1.114.61 1.378.97l3.224-2.368c-.792-1.078-1.883-1.837-3.154-2.33l-1.448 3.728zm1.406 1.007c.244.317.398.719.398 1.309h4c0-1.375-.389-2.66-1.23-3.751l-3.168 2.442zm.398 1.309c0 1.107-.352 1.754-.936 2.216l2.484 3.136c1.674-1.327 2.452-3.203 2.452-5.352h-4zm-.936 2.216c-.638.506-1.685.873-3.408.823l-.116 3.998c2.295.067 4.387-.401 6.008-1.685l-2.484-3.136zm2.53-9.47c-.3-.225-.643-.452-1.018-.68l-2.08 3.416c.3.183.53.337.698.464l2.4-3.2zm-.966-.647a20.63 20.63 0 00-1.12-.682l-1.968 3.482c.299.17.6.352.903.55l2.185-3.35zm-1.064-.65a11.585 11.585 0 00-1.068-.585l-1.704 3.62c.164.077.392.2.692.382l2.08-3.416zm-1.026-.564a.53.53 0 01.236.244l-3.668 1.594a3.46 3.46 0 001.644 1.74L15.93 7.77zm.265.312a.72.72 0 01.043.273.763.763 0 01-.063.294l-3.642-1.656a3.222 3.222 0 00-.063 2.547l3.725-1.458zm-.052.633c-.01.02-.05.09-.138.169a.818.818 0 01-.299.168l-1.164-3.826c-.926.281-1.587.92-1.977 1.7l3.578 1.79zm-.459.344a.606.606 0 01-.216.017.64.64 0 01-.226-.06l1.788-3.578a3.344 3.344 0 00-2.466-.219l1.12 3.84zm-.408-.026c.239.113.536.273.896.487l2.04-3.442a15.455 15.455 0 00-1.216-.657l-1.72 3.612zm.896.487c.371.22.735.446 1.091.679l2.19-3.348c-.407-.266-.82-.523-1.241-.773l-2.04 3.442zm1.166.726c.357.21.608.38.773.506l2.43-3.178a12.047 12.047 0 00-1.163-.77l-2.04 3.442zm.841.556a.802.802 0 01-.217-.24.82.82 0 01-.115-.315l3.97-.496a3.153 3.153 0 00-1.344-2.226l-2.294 3.277zm-.332-.555a.638.638 0 01.017-.227.617.617 0 01.087-.2l3.277 2.294a3.343 3.343 0 00.589-2.363l-3.97.496zm.173-.52a.639.639 0 01.175-.147.627.627 0 01.208-.08l.658 3.946a3.337 3.337 0 002.099-1.24L18.02 9.73zm.453-.237a.716.716 0 01.46.103l-2.294 3.277a3.305 3.305 0 002.352.586l-.518-3.966zM5.994 21.394c.832 0 1.736-.247 2.448-.96l-2.828-2.828a.805.805 0 01.288-.186c.085-.03.125-.026.092-.026v4zm2.407-.92c.5-.472.738-1.051.86-1.516a5.84 5.84 0 00.163-1.456h-4c0 .134-.006.239-.014.317a.957.957 0 01-.02.13c-.003.01.005-.026.04-.093a1.13 1.13 0 01.225-.29L8.4 20.474zm1.023-2.972v-1.98h-4v1.98h4zm-2.84-3.795c-.98.454-1.854 1.049-2.527 1.833l3.038 2.604c.207-.242.565-.527 1.17-.807l-1.681-3.63zm-2.53 1.837c-.667.782-1.116 1.748-1.116 2.86h4c0-.003 0-.012.011-.041a.872.872 0 01.149-.223l-3.044-2.596zm-1.116 2.86c0 .672.185 1.535.896 2.202.686.643 1.53.788 2.16.788v-4c-.075 0 .242-.02.576.293.359.337.368.704.368.717h-4zm35.374 4.026l1.37-1.456-.002-.003-1.368 1.459zm-.396-.902l1.994-.153-.003-.048-.006-.047-1.985.248zm1.144-1.386l.238 1.986.012-.002.01-.001-.26-1.983zm1.012-.33l-1.487-1.338-.038.043-.037.046 1.562 1.249zm.198-9.328h2v-2h-2v2zm-4.686-.264l-.633 1.897.633-1.897zm-1.166-.924l-1.777.917.018.035.019.034 1.74-.986zm7.546 12.738l1.353 1.473-1.353-1.473zm-17.644.528l-1.414 1.414.021.022.022.02 1.371-1.456zm.462-18.832l1.331 1.493.003-.003-1.334-1.49zm6.952 0l-1.353 1.473.02.019.022.018 1.311-1.51zm.462 5.566l-1.754-.962-.005.01-.006.01 1.765.942zm-1.144.924l-.633-1.897-.008.002-.008.003.649 1.892zm-4.598.264v-2h-2v2h2zm-.374 12.078l-1.37-1.456-.023.02-.021.022 1.414 1.414zm4.664-3.652l-.766 1.848.02.008.019.007.727-1.863zm-1.276-1.144l-1.808.854.004.01.005.01 1.799-.874zm0-4.048l-1.799-.874 1.799.874zm1.276-1.122l.727 1.863-.727-1.863zm4.994 0l-.743 1.857.008.003.008.003.727-1.863zm1.276 1.122l1.799-.874-1.799.874zm0 4.048l1.799.874.005-.01.005-.01-1.809-.854zm-1.276 1.144l.743 1.857.011-.005.012-.005-.766-1.847zm-1.188-2.024l-1.261-1.552-.025.02-.024.02 1.31 1.512zm0-2.266l-1.31 1.511.024.021.025.02 1.261-1.552zm-2.64 0l-1.261-1.552-.025.02-.024.02 1.31 1.512zm0 2.266l-1.31 1.511.024.021.025.02 1.261-1.552zm8.36-8.36v2h2v-2h-2zm0-.99h2v-2h-2v2zm-3.762 0v-2H34.36l.153 2.142 1.995-.142zm.33.814L35.7 9.994l.07.05.076.042.992-1.736zm-10.384.176h-2v2h2v-2zm3.344-.176l1.048 1.703.017-.01.017-.01-1.082-1.683zm.352-.814l1.995.142.153-2.142H30.15v2zm-3.696 0v-2h-2v2h2zm10.054-1.65l-1.994-.153-.166 2.153h2.16v-2zm3.762 0v2h2.244l-.257-2.23-1.987.23zm-.352-.748L38.78 6.782l.044.031.046.028 1.048-1.703zm-3.058 0l.992 1.736.046-.025.043-.029-1.081-1.682zm-10.384.748l-1.994-.153-.166 2.153h2.16v-2zm3.652 0v2h2.16l-.166-2.153-1.994.153zm-.33-.748L28.66 6.782l.044.031.046.028 1.048-1.703zm-2.992 0l1.048 1.703.017-.01.017-.01-1.082-1.683zm12.518 15.644c-.03 0 .007-.004.085.023.085.03.185.085.274.169l-2.742 2.912c.705.664 1.578.896 2.383.896v-4zm.356.189a.822.822 0 01.188.264c.038.087.042.142.042.14l-3.988.306c.06.78.356 1.584 1.022 2.208l2.736-2.918zm.22.309a.838.838 0 01-.184.604l-3.072-2.56a3.158 3.158 0 00-.713 2.452l3.97-.496zm-.184.604a.74.74 0 01-.221.177.594.594 0 01-.197.067l-.476-3.972a3.3 3.3 0 00-2.178 1.168l3.072 2.56zm-.395.24c.339-.044.697-.11 1.03-.218.26-.085.846-.298 1.283-.845l-3.124-2.498c.18-.225.365-.341.45-.39.09-.051.15-.07.151-.07.004-.001-.018.006-.076.018a3.439 3.439 0 01-.236.038l.522 3.966zm2.238-.974c.368-.41.53-.868.608-1.196.08-.34.103-.678.103-.978h-4c0 .111-.01.117.004.056.012-.05.075-.295.311-.558l2.974 2.676zm.711-2.174v-8.492h-4v8.492h4zm-2-10.492h-2.618v4h2.618v-4zm-2.618 0c-.737 0-1.19-.08-1.435-.161l-1.265 3.794c.81.27 1.736.367 2.7.367v-4zm-1.435-.161a.456.456 0 01-.069-.028c-.01-.006-.013-.008-.01-.005a.108.108 0 01.015.013l.005.007-3.48 1.972c.518.915 1.327 1.52 2.274 1.835l1.265-3.794zm-.022.056c-.027-.054-.129-.322-.129-.975h-4c0 .96.133 1.953.575 2.81l3.554-1.835zm-.129-.975V6.282h-4v1.122h4zm0-1.122c0-.468.055-.762.11-.928.05-.155.084-.155.037-.114l-2.622-3.02c-1.21 1.051-1.525 2.63-1.525 4.062h4zm.147-1.042c-.008.007.061-.056.305-.12.246-.066.613-.116 1.134-.116v-4c-1.438 0-2.955.255-4.061 1.216l2.622 3.02zm1.439-.236h1.54v-4h-1.54v4zm1.54 0c.52 0 .888.05 1.134.115.244.065.313.128.305.121l2.622-3.02c-1.106-.96-2.623-1.216-4.061-1.216v4zm1.439.236c-.047-.04-.013-.041.037.114.055.166.11.46.11.928h4c0-1.431-.314-3.01-1.525-4.062l-2.622 3.02zm.147 1.042v13.31h4V6.282h-4zm0 13.31c0 .865-.213 1.012-.167.97l2.706 2.945c1.132-1.04 1.461-2.522 1.461-3.915h-4zm-.167.97c.008-.008-.05.05-.26.109-.214.06-.546.111-1.027.111v4c1.412 0 2.905-.276 3.993-1.275l-2.706-2.946zm-15.411.352c.068 0 .165.013.27.055a.711.711 0 01.22.137l-2.74 2.912a3.24 3.24 0 002.25.896v-4zm.534.234c.073.072.14.17.185.285a.65.65 0 01.049.227h-4c0 .836.287 1.665.938 2.316l2.828-2.828zm.234.512V6.26h-4v15.4h4zm0-15.4c0-.462.054-.755.107-.922.05-.156.085-.157.038-.115l-2.662-2.986c-1.178 1.051-1.483 2.61-1.483 4.023h4zm.148-1.04c-.008.007.06-.057.296-.121.24-.065.603-.117 1.12-.117v-4c-1.448 0-2.976.266-4.084 1.258l2.668 2.98zm1.416-.238h1.452v-4h-1.452v4zm1.452 0c.527 0 .892.052 1.13.117.237.064.29.124.267.104l2.706-2.946C31.983 1.243 30.432.982 28.984.982v4zm1.439.258c-.044-.038-.01-.037.039.113.053.162.108.449.108.907h4c0-1.426-.318-2.993-1.525-4.04l-2.622 3.02zm.147 1.02v1.144h4V6.26h-4zm0 1.144c0 .64-.105.89-.128.93l3.508 1.924c.476-.87.62-1.88.62-2.854h-4zm-.139.95a.208.208 0 01.046-.054.41.41 0 01-.058.022l1.265 3.795c.953-.317 1.772-.934 2.277-1.88l-3.53-1.882zm-.028-.026c-.218.075-.66.156-1.419.156v4c.971 0 1.908-.095 2.717-.372l-1.298-3.784zm-1.419.156h-2.53v4h2.53v-4zm-4.53 2V21.66h4V10.484h-4zm0 11.176a.846.846 0 01.255-.554l2.742 2.912a3.182 3.182 0 001.003-2.358h-4zm.212-.512a.829.829 0 01.534-.234v4c.847 0 1.66-.304 2.294-.938l-2.828-2.828zm8.586-3.886c-.964 0-1.515-.111-1.78-.215l-1.455 3.726c.936.366 2.058.489 3.235.489v-4zm-1.742-.2c-.217-.09-.237-.158-.243-.17l-3.598 1.748c.493 1.015 1.324 1.709 2.309 2.117l1.532-3.695zm-.234-.15c-.082-.175-.182-.532-.182-1.17h-4c0 1.004.15 1.997.566 2.878l3.616-1.708zm-.182-1.17c0-.663.103-1.006.173-1.15l-3.598-1.748c-.428.883-.575 1.889-.575 2.898h4zm.173-1.15a.102.102 0 01.028-.038.596.596 0 01.176-.095l-1.454-3.726c-1.004.392-1.85 1.085-2.348 2.111l3.598 1.748zm.204-.133c.267-.104.817-.215 1.781-.215v-4c-1.177 0-2.299.123-3.235.489l1.454 3.726zm1.781-.215c.968 0 1.502.112 1.743.209l1.486-3.714c-.932-.373-2.056-.495-3.229-.495v4zm1.759.215a.596.596 0 01.176.095.09.09 0 01.028.038l3.598-1.748c-.498-1.026-1.344-1.72-2.348-2.111l-1.454 3.726zm.204.133c.07.144.173.487.173 1.15h4c0-1.009-.146-2.016-.575-2.898l-3.598 1.748zm.173 1.15c0 .638-.1.995-.182 1.17l3.616 1.708c.416-.88.566-1.874.566-2.878h-4zm-.173 1.15c-.006.012-.026.08-.243.17l1.532 3.695c.985-.408 1.816-1.102 2.309-2.117l-3.598-1.748zm-.22.161c-.241.097-.775.209-1.743.209v4c1.173 0 2.297-.122 3.229-.495l-1.486-3.714zm-1.743 2.119c.408 0 .833-.029 1.239-.118.386-.085.91-.258 1.369-.657l-2.62-3.022c.127-.11.24-.168.302-.196.063-.027.098-.034.088-.032a.959.959 0 01-.11.015c-.066.006-.155.01-.268.01v4zm2.56-.734c.983-.8 1.09-2.016 1.09-2.696h-4c0 .165-.019.19 0 .127.022-.07.112-.312.387-.535l2.522 3.104zm1.09-2.696c0-.686-.116-1.882-1.09-2.674l-2.523 3.104a1.164 1.164 0 01-.383-.53c-.022-.07-.004-.054-.004.1h4zm-1.042-2.633c-.46-.399-.983-.572-1.37-.657a5.81 5.81 0 00-1.238-.118v4c.113 0 .202.004.268.01a.92.92 0 01.11.015c.01.002-.025-.005-.088-.032a1.211 1.211 0 01-.302-.196l2.62-3.022zm-2.608-.775c-.414 0-.841.029-1.247.115-.389.083-.9.248-1.356.619l2.522 3.104a1.134 1.134 0 01-.272.167c-.053.023-.078.026-.06.023a.923.923 0 01.13-.017c.071-.007.165-.011.283-.011v-4zm-2.652.775c-.923.8-1.02 1.976-1.02 2.633h4c0-.162.018-.19.001-.134a1.156 1.156 0 01-.361.523L30.6 13.11zm-1.02 2.633c0 .651.089 1.848 1.02 2.655l2.62-3.022c.27.234.35.478.364.528.014.05-.004.012-.004-.161h-4zm1.069 2.696c.456.371.967.536 1.356.619.406.086.833.115 1.247.115v-4c-.118 0-.212-.004-.284-.01a1.129 1.129 0 01-.13-.018c-.017-.003.008 0 .061.023.053.022.154.071.272.167l-2.522 3.104zm7.267-7.912h2.354v-4h-2.354v4zm4.354-2v-.99h-4v.99h4zm-2-2.99h-3.762v4h3.762v-4zm-5.757 2.142c.04.57.22 1.647 1.187 2.316l2.276-3.288c.3.207.437.46.49.59.049.12.042.172.037.098l-3.99.284zm1.333 2.408c.698.4 1.527.44 2.07.44v-4c-.091 0-.164-.003-.222-.006a1.222 1.222 0 01-.11-.012c-.018-.003-.004-.002.032.01.035.01.113.038.214.096l-1.984 3.472zm-9.392.44h2.288v-4h-2.288v4zm2.288 0c.323 0 .657-.018.978-.071.297-.05.719-.151 1.126-.402L28.75 6.647a1.329 1.329 0 01.258-.122c.046-.015.068-.018.054-.016a3.29 3.29 0 01-.32.017v4zm2.137-.494c1.014-.651 1.222-1.74 1.266-2.354l-3.99-.284c-.004.062-.009-.006.05-.14.065-.151.215-.396.512-.586l2.163 3.364zm-.729-4.496h-3.696v4h3.696v-4zm-5.696 2v.99h4v-.99h-4zm12.054.35h3.762v-4h-3.762v4zm5.749-2.23c-.066-.567-.3-1.611-1.29-2.221L38.87 6.84a1.387 1.387 0 01-.53-.576c-.063-.133-.063-.203-.057-.15l3.974-.458zm-1.2-2.162a3.04 3.04 0 00-1.177-.47 5.563 5.563 0 00-1.018-.084v4a2.71 2.71 0 01.28.015c.005.001-.027-.004-.083-.025a1.247 1.247 0 01-.28-.148l2.277-3.288zm-2.195-.554h-.946v4h.946v-4zm-.946 0c-.556 0-1.415.051-2.137.516L37.94 6.82c-.101.066-.184.1-.23.116-.046.016-.07.02-.064.02a2.516 2.516 0 01.27-.015V2.939zm-2.048.462c-1.068.61-1.306 1.705-1.354 2.33l3.988.307c.003-.035.002.063-.074.226a1.408 1.408 0 01-.576.61l-1.984-3.473zm-9.392 4.484h3.652v-4h-3.652v4zm5.646-2.153c-.044-.575-.247-1.665-1.276-2.298L28.75 6.84a1.418 1.418 0 01-.556-.62c-.065-.148-.064-.23-.06-.182l3.988-.306zm-1.186-2.24a3.04 3.04 0 00-1.176-.47 5.563 5.563 0 00-1.018-.083v4a2.71 2.71 0 01.28.015c.005.001-.026-.004-.083-.025a1.247 1.247 0 01-.28-.148l2.277-3.288zm-2.194-.553h-.88v4h.88v-4zm-.88 0c-.556 0-1.415.051-2.137.516l2.162 3.364c-.101.066-.184.1-.23.116-.046.016-.07.02-.064.02a2.516 2.516 0 01.27-.015V2.939zm-2.104.495c-1.029.633-1.232 1.723-1.276 2.298l3.988.306c.004-.048.005.034-.06.181a1.418 1.418 0 01-.556.621l-2.096-3.406zm26.436 15.827l.087 1.998h.01l.012-.001-.109-1.997zm-1.936-.462l-.96 1.754.96-1.754zm-1.628-1.628l-1.715 1.029.01.017.01.017 1.695-1.063zm-1.012-2.508l1.928-.531-1.928.531zm-.594-3.278l-1.99.197v.002l1.99-.199zm-.088-3.542l-1.994-.16-.002.03-.002.03 1.998.1zm.418-.902l1.37 1.456.003-.002-1.373-1.454zm.946-.33l-.16 1.994.04.003.04.001.08-1.998zm.902.44l-1.53 1.288.037.044.039.041 1.454-1.373zm.33.946l-1.994-.16-.001.023-.002.023 1.997.114zm.022 3.014l-1.995.149v.002l1.995-.151zm.418 2.662l-1.938.493.002.009 1.936-.502zm.77 1.98l1.744-.979-.008-.014-.008-.015-1.728 1.008zm1.276.902v2h.047l-.047-2zm1.584-1.98l-1.889-.657-.007.019-.006.018 1.902.62zm.66-.748l.894 1.789.032-.016.032-.017-.958-1.756zm1.012-.088l-.633 1.897.026.009.025.007.582-1.913zm.748.66l-1.804.863.007.016.008.015 1.789-.894zm.066.99l-1.889-.657-.009.025-.008.026 1.906.606zm-1.65 2.882l1.333 1.491.008-.008.009-.007-1.35-1.476zm9.746-2.882l-.657-1.889-.023.008-.022.008.702 1.873zm-1.034-.044l-.894 1.789.015.008.016.007.863-1.804zm-.682-.748l1.862-.729-.004-.011-.004-.011-1.854.751zm-.902-1.65l-1.67 1.1.01.014.01.015 1.65-1.129zm-1.254-1.584l-1.478 1.347.01.012.012.012 1.456-1.371zm-1.408-1.254l-1.147 1.639.003.002 1.144-1.641zm-.55-.858l1.961-.392-1.961.392zm.242-.99l-1.562-1.25 1.562 1.25zm.858-.484l-.166-1.993h-.007l.173 1.993zm.99.286l-1.163 1.627.014.01.013.009 1.136-1.646zm1.804 1.562l-1.448 1.38.008.008.009.01 1.431-1.398zm2.706 4.048l1.889-.657-1.889.657zm-.044 1.034l1.834.797.006-.014.006-.014-1.846-.769zm-12.803 2.556a1.638 1.638 0 01-.888-.218l-1.922 3.508a5.634 5.634 0 002.984.706l-.174-3.996zm-.888-.218c-.25-.136-.561-.405-.895-.937l-3.388 2.126c.605.964 1.378 1.78 2.361 2.32l1.922-3.51zm-.874-.903c-.276-.46-.552-1.114-.799-2.01l-3.856 1.062c.31 1.128.709 2.146 1.225 3.006l3.43-2.058zm-.799-2.01a17.749 17.749 0 01-.532-2.946l-3.98.398c.127 1.272.344 2.477.656 3.61l3.856-1.062zm-.532-2.944a21.879 21.879 0 01-.08-3.245l-3.995-.2a25.864 25.864 0 00.095 3.839l3.98-.394zm-.084-3.186a.556.556 0 01-.053.181.703.703 0 01-.152.214l-2.742-2.912a3.337 3.337 0 00-1.04 2.199l3.987.318zm-.203.393a.794.794 0 01-.28.165.769.769 0 01-.306.045l.319-3.988a3.18 3.18 0 00-2.48.87l2.747 2.908zm-.507.214a.764.764 0 01-.296-.08.778.778 0 01-.252-.19l3.06-2.576a3.191 3.191 0 00-2.352-1.15l-.16 3.996zm-.472-.185a.793.793 0 01-.165-.28.768.768 0 01-.045-.306l3.988.318a3.18 3.18 0 00-.87-2.478l-2.908 2.746zm-.213-.541a24.906 24.906 0 00.025 3.277l3.988-.298a20.91 20.91 0 01-.02-2.75l-3.993-.23zm.025 3.28c.08 1.064.236 2.068.474 3.003l3.876-.986a13.59 13.59 0 01-.362-2.32l-3.988.302zm.476 3.012c.237.913.553 1.756.978 2.486l3.456-2.016c-.191-.326-.388-.803-.562-1.474l-3.872 1.004zm.962 2.457c.552.985 1.538 1.923 3.02 1.923v-4a.803.803 0 01.45.141c.096.068.086.1.018-.021l-3.488 1.957zm3.067 1.922c1.09-.025 1.884-.63 2.384-1.256.478-.598.808-1.347 1.055-2.103l-3.804-1.24c-.085.261-.165.46-.236.605a1.369 1.369 0 01-.139.24c-.016.02.025-.038.14-.105.129-.075.305-.135.506-.14l.094 4zm3.426-3.322a.699.699 0 01-.136.226.68.68 0 01-.199.158l-1.788-3.578a3.276 3.276 0 00-1.655 1.88l3.778 1.314zm-.271.35a.75.75 0 01-.29.083.734.734 0 01-.288-.029l1.264-3.794a3.22 3.22 0 00-2.602.23l1.916 3.51zm-.528.07a.83.83 0 01-.474-.39l3.608-1.726a3.187 3.187 0 00-1.97-1.71l-1.164 3.826zm-.459-.359a.729.729 0 01-.07-.271.748.748 0 01.036-.29l3.778 1.314a3.227 3.227 0 00-.166-2.541l-3.578 1.788zm-.05-.51c-.35 1.097-.754 1.7-1.095 2.012l2.7 2.952c1.038-.95 1.734-2.268 2.206-3.752l-3.812-1.212zm-1.078 1.997c-.402.359-.731.468-1.02.484l.218 3.994c1.325-.072 2.491-.623 3.468-1.496l-2.666-2.982zm10.377-3.264a.688.688 0 01.264-.037.7.7 0 01.267.062l-1.726 3.608a3.27 3.27 0 002.6.113l-1.405-3.746zm.562.04a.61.61 0 01.171.133c.063.07.099.137.115.18l-3.724 1.457a3.364 3.364 0 001.65 1.808l1.788-3.578zm.278.29a10.771 10.771 0 00-1.105-2.028l-3.302 2.258c.313.457.54.881.7 1.272l3.706-1.502zm-1.085-1.998a13.654 13.654 0 00-1.469-1.856l-2.912 2.742a9.75 9.75 0 011.04 1.312l3.34-2.198zm-1.447-1.832a10.473 10.473 0 00-1.742-1.548l-2.288 3.282c.346.241.706.556 1.074.96l2.956-2.694zm-1.74-1.545a.691.691 0 01.265.388l-3.922.784c.17.847.629 1.59 1.364 2.104l2.294-3.276zm.265.388a.815.815 0 01-.013.344.804.804 0 01-.144.307l-3.124-2.498a3.151 3.151 0 00-.641 2.631l3.922-.784zm-.157.651a.66.66 0 01-.189.152.86.86 0 01-.342.107l-.346-3.984c-.945.082-1.712.558-2.247 1.227l3.124 2.498zm-.538.26a.595.595 0 01-.338-.08l2.325-3.254a3.451 3.451 0 00-2.32-.652l.333 3.986zm-.312-.061c.489.337.987.765 1.492 1.295l2.896-2.758a13.634 13.634 0 00-2.116-1.829L59.308 9.71zm1.509 1.313c.522.535.992 1.107 1.41 1.716l3.297-2.266a16.985 16.985 0 00-1.845-2.244l-2.862 2.794zm1.41 1.716c.403.585.672 1.115.838 1.592l3.778-1.314c-.303-.873-.753-1.72-1.319-2.544l-3.296 2.266zm.838 1.592a.633.633 0 01-.001-.392l3.692 1.538a3.404 3.404 0 00.087-2.46l-3.778 1.314zm.01-.42a.745.745 0 01.174-.237.801.801 0 01.278-.173l1.314 3.778a3.19 3.19 0 001.903-1.774l-3.668-1.595zm10.635 8.145l-.702 1.873.012.004.69-1.877zm-1.518-6.336l1.78.912.005-.009.004-.009-1.789-.894zm1.518-1.32l-.69-1.877-.012.004.702 1.873zm8.998 0l.702-1.873-.702 1.873zm1.518 1.32l-1.789.894.013.026.014.026 1.762-.946zm0 5.016l-1.772-.928-.008.017-.009.017 1.789.894zm-1.518 1.32l.702 1.873-.702-1.873zm-12.98-9.79l1.078 1.685.006-.004-1.084-1.681zm-1.122.286l-.23 1.987.23-1.987zm-.902-.572l1.675-1.093-1.675 1.093zm-.154-1.012l1.889.657.004-.012.004-.012-1.897-.633zm.66-.814l-1.008-1.728-.01.006 1.018 1.722zm2.728-1.826l1.2 1.6.008-.006.008-.006-1.216-1.588zm2.684-2.222l-1.322-1.5-.007.005-.006.006 1.335 1.489zm2.222-2.134l1.462 1.365.007-.007.006-.008-1.475-1.35zm4.752-.044l1.397-1.43-.007-.008-1.39 1.438zm2.178 1.958l-1.286 1.532.007.006.007.005 1.272-1.543zm2.64 2.024l-1.163 1.627.007.005.006.004 1.15-1.636zm2.816 1.782l1.017-1.722-.018-.01-.019-.011-.98 1.743zm.638.858l-1.931.52.009.034.01.034 1.912-.588zm-.154 1.078l-1.675-1.092-.005.007-.005.007 1.685 1.078zm-.946.638l-.293-1.978.293 1.978zm-1.166-.286l-1.097 1.672.002.002 1.095-1.674zm-2.772-1.958l-1.204 1.597 1.204-1.597zm-5.016-4.4l-1.505 1.317.03.034.03.032 1.445-1.383zm-.594-.352l-.153 1.994.076.006h.077v-2zm-.616.33l-1.46-1.368-.008.01-.009.01L77.604 5.6zm-2.112 2.112l-1.359-1.468 1.359 1.468zm-2.464 2.134l-1.26-1.554 2.072 3.382-.812-1.828zm10.692.264l-1.505 1.317.022.026.024.025 1.459-1.368zm0 1.694l-1.46-1.368-.023.025-.022.026 1.505 1.317zm-11.066 0l-1.505 1.317.022.026.024.025 1.459-1.368zm-.088-1.562l1.585 1.22-2.793-2.814 1.208 1.594zm-1.452 1.078l1.167 1.624.01-.007-1.177-1.617zm10.406 8.426l1.25 1.562.008-.008-1.258-1.554zm0-3.036l-1.295 1.524.018.015.019.016 1.258-1.555zm-6.622 0l-1.258-1.555-.019.016-.018.015 1.295 1.524zm0 3.036l-1.295 1.524.04.035.043.032 1.212-1.591zm1.672.706c-1.068 0-1.76-.123-2.17-.273l-1.38 3.754c1.027.378 2.242.519 3.55.519v-4zm-2.158-.269c-.278-.104-.37-.22-.431-.341l-3.578 1.788c.555 1.111 1.475 1.875 2.605 2.299l1.404-3.746zm-.431-.341c-.115-.23-.251-.718-.251-1.614h-4c0 1.216.172 2.4.673 3.402l3.578-1.788zm-.251-1.614c0-.92.14-1.395.242-1.596l-3.56-1.824c-.513 1.002-.682 2.199-.682 3.42h4zm.25-1.614c.061-.12.154-.237.432-.341l-1.404-3.746c-1.13.424-2.05 1.188-2.605 2.299l3.578 1.788zm.42-.337c.41-.15 1.102-.273 2.17-.273v-4c-1.308 0-2.523.142-3.55.519l1.38 3.754zm2.17-.273h3.278v-4H76.57v4zm3.278 0c1.09 0 1.772.124 2.158.269l1.404-3.746c-1.022-.383-2.246-.523-3.562-.523v4zm2.158.269c.278.104.37.22.431.341l3.578-1.788c-.555-1.111-1.475-1.875-2.605-2.299l-1.404 3.746zm.458.393c.102.19.246.652.246 1.562h4c0-1.23-.179-2.442-.722-3.454l-3.524 1.892zm.246 1.562c0 .886-.14 1.36-.256 1.58l3.544 1.856c.53-1.013.712-2.21.712-3.436h-4zm-.273 1.614c-.06.12-.153.237-.431.341l1.404 3.746c1.13-.424 2.05-1.188 2.605-2.299l-3.578-1.788zm-.431.341c-.386.145-1.069.269-2.158.269v4c1.316 0 2.54-.14 3.562-.523l-1.404-3.746zm-2.158.269H76.57v4h3.278v-4zm-11.198-9.87c-.026.016-.016.005.028-.007a.446.446 0 01.157-.01l-.458 3.974c.9.104 1.73-.14 2.43-.588l-2.157-3.37zm.185-.017a.807.807 0 01.544.322l-3.35 2.185a3.2 3.2 0 002.348 1.467l.458-3.974zm.544.322a.74.74 0 01.099.286.959.959 0 01-.039.452l-3.778-1.314c-.349 1.002-.141 1.981.368 2.761l3.35-2.184zm.068.713a.53.53 0 01-.09.16.51.51 0 01-.13.116l-2.035-3.444a3.45 3.45 0 00-1.54 1.903l3.795 1.265zm-.23.282c.956-.558 1.93-1.21 2.921-1.954l-2.4-3.2a26.551 26.551 0 01-2.536 1.698l2.016 3.456zm2.937-1.966a46.957 46.957 0 002.803-2.32l-2.67-2.98a42.999 42.999 0 01-2.565 2.124l2.432 3.176zm2.79-2.31a33.934 33.934 0 002.362-2.27l-2.924-2.729A29.993 29.993 0 0172.3 4.606l2.644 3zm2.375-2.284c.625-.683.9-.648.835-.648v-4c-1.56 0-2.826.9-3.785 1.948l2.95 2.7zm.835-.648c.014 0 .353.016 1.052.692l2.78-2.876c-1.031-.996-2.32-1.816-3.832-1.816v4zm1.044.685a41.09 41.09 0 002.29 2.059l2.572-3.064a37.137 37.137 0 01-2.067-1.857L79.2 5.36zm2.304 2.07c.873.72 1.79 1.423 2.75 2.108l2.325-3.254a46.02 46.02 0 01-2.53-1.94l-2.545 3.086zm2.762 2.117c.99.696 1.985 1.326 2.986 1.89l1.96-3.487a31.206 31.206 0 01-2.646-1.675l-2.3 3.272zm2.949 1.868a.655.655 0 01-.276-.344l3.862-1.04a3.365 3.365 0 00-1.552-2.06l-2.034 3.444zm-.257-.276a.745.745 0 01-.018-.315.734.734 0 01.1-.287l3.351 2.184a3.221 3.221 0 00.39-2.758l-3.823 1.176zm.073-.588a.556.556 0 01.154-.146.728.728 0 01.292-.116l.586 3.956c1.022-.151 1.822-.732 2.337-1.538L87.03 10.55zm.446-.262a.486.486 0 01.18.008c.055.013.069.028.041.01l-2.189 3.348c.731.478 1.607.73 2.554.59l-.586-3.956zm.224.02a49.897 49.897 0 01-2.665-1.883l-2.408 3.194c.984.742 1.944 1.42 2.88 2.034l2.193-3.346zm-2.665-1.883a44.036 44.036 0 01-2.61-2.125l-2.644 3c.904.798 1.853 1.57 2.846 2.319l2.408-3.194zM82.424 6.3a35.538 35.538 0 01-2.165-2.061l-2.89 2.766a39.523 39.523 0 002.41 2.295l2.645-3zM80.32 4.305c-.35-.4-1.051-1.035-2.099-1.035v4c-.331 0-.582-.105-.728-.191-.135-.08-.192-.15-.183-.14l3.01-2.634zm-1.946-1.03c-1.107-.084-1.87.574-2.228.957l2.918 2.736c.014-.015-.049.058-.196.136-.16.086-.44.188-.8.16l.306-3.988zm-2.246.976a33.78 33.78 0 01-1.994 1.993l2.718 2.936a37.814 37.814 0 002.23-2.231L76.127 4.25zm-1.994 1.993a47.44 47.44 0 01-2.364 2.048l2.518 3.108a51.43 51.43 0 002.564-2.22l-2.718-2.936zm-.293 5.43a1.05 1.05 0 01-.244.076c-.048.009-.072.008-.062.008v-4c-.376 0-.847.05-1.318.26l1.624 3.656zm-.306.084h9.328v-4h-9.328v4zm9.328 0a.742.742 0 01-.27-.062 1.024 1.024 0 01-.377-.269l3.01-2.634c-.653-.746-1.531-1.035-2.363-1.035v4zm-.601-.28a.807.807 0 01-.211-.51h4a3.21 3.21 0 00-.87-2.226l-2.92 2.736zm-.211-.51a.79.79 0 01.057-.283.793.793 0 01.154-.249l2.918 2.736a3.18 3.18 0 00.871-2.204h-4zm.165-.481c.1-.114.231-.21.377-.27a.742.742 0 01.27-.061v4c.832 0 1.71-.289 2.363-1.035l-3.01-2.634zm.647-.331h-9.328v4h9.328v-4zm-9.328 0c.03 0 .123.005.248.055.13.052.245.133.331.225l-2.918 2.736c.653.696 1.505.984 2.339.984v-4zm.625.331a.778.778 0 01.187.481h-4c0 .789.267 1.54.803 2.153l3.01-2.634zm.187.481c0 .02-.002.084-.031.178a.994.994 0 01-.164.315l-3.17-2.438c-.47.611-.635 1.31-.635 1.945h4zm-2.988-2.32c-.474.359-.947.71-1.42 1.055l2.352 3.235c.495-.36.99-.727 1.484-1.102l-2.416-3.188zm-1.411 1.048c-.444.32-.879.615-1.303.89l2.168 3.36c.485-.312.975-.646 1.47-1.002l-2.335-3.248zm6.645 12.402h3.256v-4h-3.256v4zm3.256 0c.494 0 .987-.034 1.446-.13.44-.094.99-.273 1.475-.66l-2.498-3.124a.912.912 0 01.215-.132c.03-.013.03-.009-.016 0a3.1 3.1 0 01-.622.046v4zm2.93-.797c1.066-.863 1.204-2.217 1.204-3.073h-4c0 .125-.006.218-.014.283-.008.066-.016.091-.015.086.001-.004.064-.207.309-.405l2.516 3.108zm1.204-3.073c0-.856-.138-2.21-1.204-3.073l-2.516 3.11c-.245-.199-.308-.402-.309-.406-.001-.005.007.02.015.086.008.065.014.158.014.283h4zm-1.167-3.042c-.484-.412-1.042-.607-1.496-.708a6.8 6.8 0 00-1.471-.142v4c.322 0 .51.026.597.045.04.01.036.012 0-.004a.924.924 0 01-.22-.143l2.59-3.048zm-2.967-.85h-3.256v4h3.256v-4zm-3.256 0c-.872 0-2.066.102-2.952.82l2.516 3.109a.841.841 0 01-.191.12c-.028.011-.026.007.019-.003a3.01 3.01 0 01.608-.046v-4zm-2.99.85c-1.021.869-1.144 2.207-1.144 3.042h4c0-.128.006-.225.014-.294.008-.07.017-.1.017-.1l-.012.031a.732.732 0 01-.043.087 1.11 1.11 0 01-.24.282l-2.591-3.048zm-1.144 3.042c0 .835.123 2.173 1.145 3.042l2.59-3.048c.121.103.197.207.24.282a.725.725 0 01.056.119s-.009-.03-.017-.1a2.587 2.587 0 01-.014-.295h-4zm1.228 3.109c.877.669 2.046.761 2.906.761v-4c-.326 0-.527-.024-.633-.046-.05-.01-.056-.016-.034-.007a.83.83 0 01.185.11l-2.424 3.182zm22.728 1.005L95 23.756l1.414-1.414zm-.374-6.578h2v-4.586l-3.36 3.12 1.36 1.466zm-1.276 1.188L93.4 15.49l-.012.011-.012.012 1.389 1.439zm-1.276 1.232l1.373 1.454.008-.008.008-.007-1.389-1.439zm-1.848 0l-1.495 1.329.04.044.04.041 1.415-1.414zm-.352-.946l-1.998-.08-.002.04v.04h2zm.418-.902l1.329 1.495.019-.017.019-.018-1.367-1.46zm2.112-1.936l1.336 1.488.002-.001-1.338-1.487zm2.222-1.87l1.234 1.574.766-.6v-.974h-2zm0-2.904h2V7.242l-2.348.414.348 1.97zm-2.134.462l-.45-1.949.45 1.949zm-.902.198l-.392-1.961-.008.001-.008.002.408 1.958zm-.99-.176l1.053-1.7-1.053 1.7zm-.572-.814l-1.961.392.001.008.002.008 1.958-.408zm.176-1.012l1.7 1.053-1.7-1.053zm.814-.572l.408 1.958.039-.008.038-.01-.485-1.94zm.638-.11l.283 1.98.046-.007.045-.008-.374-1.965zm1.034-.198l-.378-1.964.378 1.964zm1.1-.198l-.329-1.973.329 1.973zm.836-.154l.42 1.956 1.58-.34V7.053h-2zm.374-4.07L95 1.568l1.414 1.414zm1.804 0l1.414-1.414-1.414 1.414zm.374 4.07h-2v1.442l1.368.455.632-1.897zm1.1.836l1.651-1.13-.012-.016-.012-.016-1.627 1.162zm.264.99l-1.999-.077-.001.039v.038h2zm-.242 1.254l-1.885-.669-1.7 4.791 4.509-2.348-.924-1.774zm2.112-.858l.56 1.92-.56-1.92zm6.38 1.144l-1.393 1.435.011.01.011.01 1.371-1.455zm.792 6.71l-1.765-.94-.006.012-.006.01 1.777.918zm-2.354 2.354l-1.029-1.715 1.029 1.715zm-4.422 1.408l-.298-1.978-.009.002-.009.001.316 1.975zm-.99-.22l-1.24 1.57.046.035.047.034 1.147-1.639zm-.528-.88l-1.975.316.006.038.008.038 1.961-.392zm.242-.968l1.57 1.24.015-.02.015-.02-1.6-1.2zm.858-.528l-.312-1.976-.008.002-.009.001.329 1.973zm4.114-1.474l1.297 1.523.008-.007.008-.007-1.313-1.509zm.374-4.576l-1.331 1.493.011.01.012.01 1.308-1.513zm-5.082-.132l.807 1.83.012-.005.013-.006-.832-1.819zm-2.618 1.54l-1.183-1.613-.817.6v1.013h2zm-.374 8.69l1.414 1.414-1.414-1.414zm-.902-1.626a.74.74 0 01.276.059c.112.046.19.108.236.153L95 23.756c.624.624 1.433.96 2.316.96v-4zm.512.212a.736.736 0 01.153.235.74.74 0 01.059.277h-4c0 .883.336 1.692.96 2.316l2.828-2.828zm.212.512v-5.676h-4v5.676h4zm-3.36-7.142c-.413.383-.84.78-1.28 1.192l2.729 2.924c.438-.41.863-.804 1.272-1.184l-2.722-2.932zm-1.305 1.215L92.1 16.745l2.778 2.878 1.276-1.232-2.778-2.878zm-1.26 1.217a.645.645 0 01.203-.125.628.628 0 01.224-.047v4a3.33 3.33 0 002.32-.92l-2.747-2.908zm.427-.172a.74.74 0 01.276.059c.112.046.19.107.236.153l-2.828 2.828c.624.624 1.433.96 2.316.96v-4zm.593.297a.634.634 0 01.153.383h-4c0 .836.284 1.63.857 2.275l2.99-2.658zm.151.463a.78.78 0 01-.252.513l-2.657-2.99a3.22 3.22 0 00-1.087 2.317l3.996.16zm-.213.478a135.91 135.91 0 012.081-1.908l-2.672-2.976c-.729.654-1.443 1.309-2.143 1.964l2.734 2.92zm2.083-1.91a40.939 40.939 0 012.118-1.782l-2.468-3.148a44.852 44.852 0 00-2.326 1.957l2.676 2.974zm2.884-3.356V9.626h-4v2.904h4zm-2.348-4.874c-.29.052-.644.125-1.054.216l.868 3.904c.382-.085.673-.144.882-.18l-.696-3.94zm-1.054.216c-.401.089-.795.178-1.182.267l.9 3.898c.376-.087.759-.174 1.15-.26l-.868-3.905zm-1.182.267c-.374.087-.653.147-.844.186l.784 3.922c.248-.05.571-.12.96-.21l-.9-3.898zm-.86.189a.666.666 0 01.247 0 .65.65 0 01.224.081L90.96 11.81c.74.459 1.593.613 2.45.434l-.815-3.916zm.47.081a.747.747 0 01.21.205c.074.105.11.206.124.274l-3.916.816a3.21 3.21 0 001.477 2.106l2.106-3.4zm.337.495a.647.647 0 01-.085.433l-3.4-2.106a3.351 3.351 0 00-.437 2.457l3.922-.784zm-.085.433a.745.745 0 01-.204.21.76.76 0 01-.274.123l-.816-3.916a3.21 3.21 0 00-2.106 1.477l3.4 2.106zm-.4.315l.101-.019c.081-.014.191-.03.334-.051l-.566-3.96c-.303.043-.61.092-.84.15l.97 3.88zm.526-.085l1.038-.199-.756-3.928-1.03.197.748 3.93zm1.038-.199c.366-.07.716-.133 1.05-.19l-.657-3.945c-.37.062-.752.13-1.149.207l.756 3.928zm1.05-.19c.365-.06.678-.117.927-.17l-.838-3.912c-.162.035-.406.08-.746.137l.658 3.946zm2.508-2.126V3.884h-4v3.168h4zm0-3.168a.74.74 0 01-.059.277.736.736 0 01-.153.235L95 1.568a3.228 3.228 0 00-.96 2.316h4zm-.212.512a.735.735 0 01-.236.153.74.74 0 01-.276.059v-4c-.883 0-1.692.336-2.316.96l2.828 2.828zm-.512.212a.74.74 0 01-.276-.059.736.736 0 01-.236-.153l2.828-2.828a3.228 3.228 0 00-2.316-.96v4zm-.512-.212a.736.736 0 01-.153-.235.74.74 0 01-.059-.277h4c0-.883-.336-1.693-.96-2.316l-2.828 2.828zm-.212-.512v3.168h4V3.884h-4zm1.368 5.065a.08.08 0 01.027.014c.009.007.037.03.078.087l3.254-2.324a4.18 4.18 0 00-2.094-1.571L97.96 8.949zm.081.068a.525.525 0 01-.072-.157c-.014-.05-.011-.073-.011-.059l3.997.154c.028-.752-.148-1.518-.612-2.196l-3.302 2.258zm-.085-.139c0 .102-.022.29-.127.585l3.77 1.338a5.768 5.768 0 00.357-1.923h-4zm2.682 3.028a9.624 9.624 0 011.748-.712l-1.12-3.84c-.84.245-1.665.582-2.476 1.004l1.848 3.548zm1.748-.712a5.37 5.37 0 011.508-.228v-4a9.36 9.36 0 00-2.628.388l1.12 3.84zm1.508-.228c1.544 0 2.41.393 2.919.887l2.786-2.87c-1.486-1.442-3.494-2.017-5.705-2.017v4zm2.941.908c.549.517.889 1.234.889 2.372h4c0-2.06-.672-3.895-2.147-5.284l-2.742 2.912zm.889 2.372c0 .678-.159 1.317-.491 1.942l3.53 1.88a8.037 8.037 0 00.961-3.822h-4zm-.503 1.965c-.261.505-.744 1.04-1.606 1.556l2.058 3.43c1.338-.803 2.424-1.838 3.102-3.152l-3.554-1.834zm-1.606 1.556c-.798.479-1.994.89-3.691 1.145l.596 3.956c1.999-.302 3.751-.83 5.153-1.671l-2.058-3.43zm-3.709 1.148a.702.702 0 01.473.116l-2.294 3.277a3.304 3.304 0 002.453.557l-.632-3.95zm.565.185a.572.572 0 01.194.298l-3.922.784a3.442 3.442 0 001.25 2.058l2.478-3.14zm.208.374a.824.824 0 01-.163.587l-3.14-2.478a3.19 3.19 0 00-.647 2.523l3.95-.632zm-.133.548a.69.69 0 01-.413.245l-.658-3.946a3.308 3.308 0 00-2.129 1.301l3.2 2.4zm-.43.248c2.04-.322 3.872-.882 5.099-1.927l-2.594-3.046c-.357.304-1.267.727-3.129 1.021l.624 3.951zm5.115-1.941c1.217-1.06 1.875-2.463 1.875-4.083h-4c0 .433-.134.746-.501 1.065l2.626 3.018zm1.875-4.083c0-1.315-.434-2.588-1.506-3.515l-2.616 3.026c.031.027.049.05.066.093.021.051.056.17.056.396h4zm-1.483-3.495c-1.053-.939-2.432-1.233-3.773-1.233v4c.83 0 1.079.19 1.111.219l2.662-2.986zm-3.773-1.233c-1.2 0-2.363.268-3.472.775l1.664 3.638a4.291 4.291 0 011.808-.413v-4zm-3.447.764a16 16 0 00-2.994 1.757l2.366 3.226a11.999 11.999 0 012.242-1.323l-1.614-3.66zm-3.811 3.37v7.788h4v-7.788h-4zm0 7.788a.74.74 0 01.059-.277.736.736 0 01.153-.235l2.828 2.828c.624-.623.96-1.433.96-2.316h-4zm.212-.512a.737.737 0 01.236-.153.74.74 0 01.276-.059v4c.883 0 1.692-.336 2.316-.96l-2.828-2.828zm32.148.094l-.153-1.994-.033.002-.032.004.218 1.988zm-5.258.044l-.255 1.984h.002l.253-1.984zm-3.63-1.54l-1.362 1.464.016.015.016.015 1.33-1.494zm-1.408-2.134l-1.881.68.004.011 1.877-.691zm-.462-5.17h2V9.956l-2.248.281.248 1.985zm-2.002.286l.276 1.98.023-.002.022-.004-.321-1.974zm-1.76.286l.329 1.973.021-.004.022-.004-.372-1.965zm-1.496-1.056l1.973-.329-1.973.329zm.198-.968l-1.638-1.147-.02.028-.019.029 1.677 1.09zm.836-.528l-.29-1.979-.019.003-.02.003.329 1.973zm1.958-.264l.248 1.985.017-.003.018-.002-.283-1.98zm2.266-.286l.221 1.988 1.779-.198v-1.79h-2zm.374-4.598l-1.414-1.414 1.414 1.414zm1.87 0l-1.454 1.373.02.021.02.02 1.414-1.414zm.374 4.334h-2v2.201l2.191-.21-.191-1.991zm2.31-.198l-.148-1.995h-.003l.151 1.995zm2.332-.176l.153 1.994 1.643-.126.191-1.637-1.987-.231zm.154-1.826l-1.994-.15-.002.025-.002.025 1.998.1zm.088-1.65l-1.998-.08-.001.011v.012l1.999.057zm.396-.924L124.719 3.2l-.021.02-.02.02 1.414 1.414zm.946-.352l.08-1.998-.08 1.998zm.924.418l-1.454 1.373.039.042.042.039 1.373-1.454zm.374.924l-1.998-.08-.001.01v.011l1.999.059zm-.088 1.584l-1.994-.157-.002.024-.001.025 1.997.108zm-.132 1.672l-1.99-.204-.242 2.36 2.368-.16-.136-1.996zm1.892-.088l.048 2 .023-.001.024-.001-.095-1.998zm1.76-.066v-2h-.053l.053 2zm.924.396l-1.454 1.373.02.021.02.02 1.414-1.414zm0 1.826l1.414 1.414.02-.02.02-.02-1.454-1.374zm-.924.374l-.048 2h.048v-2zm-3.916.066l-.105-1.997-1.642.086-.233 1.628 1.98.283zm-.352 2.112l-1.964-.376-.004.017-.002.016 1.97.343zm-.374 1.848l1.94.485.003-.012.003-.012-1.946-.461zm-.594.814l.992 1.737.031-.018.03-.018-1.053-1.701zm-.99.154l-.467 1.945.03.007.029.006.408-1.958zm-.836-.594l-1.736.992.017.03.018.03 1.701-1.052zm-.154-.99l-1.944-.471-.007.031-.007.032 1.958.408zm.33-1.54l1.965.372-1.965-.372zm.264-1.65l1.983.26.316-2.405-2.421.149.122 1.996zm-2.178.176l.163 1.993.018-.001.018-.002-.199-1.99zm-2.156.198l-.203-1.99-1.797.184v1.806h2zm.264 4.356l1.902-.617-1.902.617zm.792 1.298l-1.351 1.474.008.008.009.009 1.334-1.491zm2.42.924l-.221 1.988.014.001.013.002.194-1.991zm4.4-.132l.202 1.99.018-.002.018-.002-.238-1.986zm.968.286l-1.288 1.53.019.016.02.016 1.249-1.562zm.484.902l-1.994.16.004.039.004.04 1.986-.239zm-.286.99l-1.562-1.25-.008.01 1.57 1.24zm-1.12-1.526c-1.902.208-3.49.213-4.787.048l-.506 3.968c1.695.216 3.612.192 5.729-.04l-.436-3.976zm-4.785.048c-1.158-.149-1.97-.529-2.555-1.05l-2.66 2.988c1.292 1.15 2.901 1.797 4.705 2.03l.51-3.968zm-2.523-1.02a3.429 3.429 0 01-.893-1.361l-3.754 1.382a7.433 7.433 0 001.923 2.907l2.724-2.928zm-.889-1.35c-.206-.568-.343-1.37-.343-2.466h-4c0 1.397.171 2.693.581 3.827l3.762-1.362zm-.343-2.466v-2.024h-4v2.024h4zm-2.248-4.009a57.15 57.15 0 00-2.075.297l.642 3.948a52.71 52.71 0 011.929-.275l-.496-3.97zm-2.03.29c-.658.092-1.277.192-1.856.302l.744 3.93a35.026 35.026 0 011.664-.27l-.552-3.962zm-1.813.294a.706.706 0 01.266.012.702.702 0 01.242.102l-2.294 3.277c.721.505 1.573.7 2.444.555l-.658-3.946zm.508.114a.738.738 0 01.192.208.738.738 0 01.106.266l-3.946.658a3.23 3.23 0 001.354 2.146l2.294-3.277zm.298.474a.677.677 0 01-.098.45l-3.354-2.179a3.32 3.32 0 00-.494 2.387l3.946-.658zm-.137.508a.724.724 0 01-.207.192.739.739 0 01-.266.106l-.658-3.946a3.226 3.226 0 00-2.145 1.354l3.276 2.294zm-.512.304a92.118 92.118 0 011.916-.258l-.496-3.97c-.716.09-1.382.18-2 .27l.58 3.958zm1.951-.263a71.07 71.07 0 012.204-.278l-.442-3.976c-.811.09-1.587.188-2.328.294l.566 3.96zm3.983-2.266V6.018h-4v3.674h4zm0-3.674a.747.747 0 01-.212.49l-2.828-2.828a3.253 3.253 0 00-.96 2.338h4zm-.212.49a.661.661 0 01-.207.134.695.695 0 01-.261.056v-4c-.908 0-1.729.35-2.36.982l2.828 2.828zm-.468.19a.737.737 0 01-.282-.063.75.75 0 01-.248-.168l2.908-2.746a3.218 3.218 0 00-2.378-1.023v4zm-.49-.19a.747.747 0 01-.212-.49h4c0-.874-.319-1.697-.96-2.338l-2.828 2.828zm-.212-.49v3.41h4v-3.41h-4zm2.191 5.4c.749-.071 1.506-.136 2.27-.194l-.302-3.988c-.79.06-1.574.127-2.35.201l.382 3.982zm2.267-.193c.794-.06 1.573-.118 2.337-.177l-.306-3.988c-.761.058-1.537.117-2.327.175l.296 3.99zm4.171-1.94c.078-.67.133-1.323.164-1.957l-3.995-.2c-.026.54-.074 1.104-.143 1.695l3.974.462zm.161-1.907c.046-.614.078-1.195.093-1.743l-3.998-.114c-.014.478-.041.997-.083 1.557l3.988.3zm.092-1.72a.663.663 0 01-.188.41l-2.828-2.828a3.327 3.327 0 00-.98 2.258l3.996.16zm-.229.45a.718.718 0 01-.241.145.703.703 0 01-.266.047l.16-3.996a3.25 3.25 0 00-2.399.896l2.746 2.908zm-.507.192a.658.658 0 01-.238-.06.679.679 0 01-.212-.147l2.908-2.746a3.293 3.293 0 00-2.298-1.043l-.16 3.996zm-.369-.126a.81.81 0 01-.189-.286.798.798 0 01-.062-.324l3.996.16a3.147 3.147 0 00-.999-2.458l-2.746 2.908zm-.252-.589c-.014.462-.041.957-.083 1.486l3.988.314c.046-.586.077-1.147.093-1.682l-3.998-.118zm-.086 1.535a32.925 32.925 0 01-.125 1.576l3.98.408a37.58 37.58 0 00.139-1.768l-3.994-.216zm2.001 3.775a41.05 41.05 0 011.804-.084l-.096-3.998c-.647.015-1.307.046-1.98.092l.272 3.99zm1.851-.085c.603-.029 1.176-.05 1.718-.065l-.106-3.998a83.92 83.92 0 00-1.802.067l.19 3.996zm1.665-.064a.737.737 0 01-.282-.063.749.749 0 01-.248-.168l2.908-2.746a3.218 3.218 0 00-2.378-1.023v4zm-.49-.19a.719.719 0 01-.153-.236.746.746 0 01-.059-.276h4c0-.883-.336-1.693-.96-2.316l-2.828 2.828zm-.212-.512a.694.694 0 01.172-.45l2.908 2.747a3.3 3.3 0 00.92-2.297h-4zm.212-.49a.744.744 0 01.49-.212v4c.874 0 1.697-.319 2.338-.96l-2.828-2.828zm.538-.211a53.236 53.236 0 00-4.069.068l.21 3.994a49.3 49.3 0 013.763-.064l.096-3.998zm-5.944 1.782a42.66 42.66 0 01-.336 2.019l3.928.752c.138-.721.261-1.456.368-2.205l-3.96-.566zm-.342 2.052a29.771 29.771 0 01-.35 1.73l3.892.922c.143-.603.275-1.26.398-1.966l-3.94-.686zm-.344 1.706a.659.659 0 01.11-.226.682.682 0 01.183-.175l2.106 3.4a3.292 3.292 0 001.481-2.029l-3.88-.97zm.354-.438a.606.606 0 01.206-.069.586.586 0 01.204.002l-.816 3.916a3.368 3.368 0 002.39-.375l-1.984-3.474zm.469-.054a.72.72 0 01.398.298l-3.402 2.106a3.3 3.3 0 002.07 1.486l.934-3.89zm.433.359a.598.598 0 01.07.206.576.576 0 01-.002.204l-3.916-.816a3.37 3.37 0 00.376 2.39l3.472-1.984zm.054.473c.126-.52.243-1.067.351-1.64l-3.93-.743c-.097.513-.2.993-.309 1.44l3.888.943zm.351-1.64c.11-.58.204-1.166.282-1.76l-3.966-.522a27.933 27.933 0 01-.246 1.54l3.93.743zm-1.823-4.017c-.745.045-1.497.106-2.255.182l.398 3.98c.708-.07 1.409-.127 2.101-.17l-.244-3.992zm-2.219.179c-.732.06-1.464.127-2.196.201l.406 3.98a107.97 107.97 0 012.116-.195l-.326-3.986zm-3.993 2.191v2.31h4v-2.31h-4zm0 2.31c0 .947.099 1.854.362 2.663l3.804-1.234c-.089-.277-.166-.733-.166-1.429h-4zm.362 2.663c.261.807.691 1.558 1.343 2.155l2.702-2.948c-.052-.048-.15-.163-.241-.441l-3.804 1.234zm1.36 2.172c.974.87 2.231 1.276 3.533 1.42l.442-3.975c-.81-.09-1.166-.3-1.307-.427l-2.668 2.982zm3.56 1.424c1.252.121 2.872.062 4.796-.133l-.404-3.98c-1.831.186-3.144.215-4.004.131l-.388 3.982zm4.832-.137a.735.735 0 01-.288-.03.762.762 0 01-.27-.14l2.576-3.06a3.215 3.215 0 00-2.494-.742l.476 3.972zm-.519-.138a.696.696 0 01-.172-.215.753.753 0 01-.089-.285l3.988-.32a3.24 3.24 0 00-1.229-2.304l-2.498 3.124zm-.253-.422a.714.714 0 01.138-.497l3.124 2.498a3.283 3.283 0 00.71-2.477l-3.972.476zm.13-.487a.821.821 0 01.515-.293l.306 3.988c.89-.068 1.724-.463 2.319-1.217l-3.14-2.478z" fill="#EB537B" mask="url(#a)"/></svg>