<svg width="204" height="48" fill="none" xmlns="http://www.w3.org/2000/svg"><mask id="a" fill="#fff"><path d="M0 0h204v48H0V0z"/></mask><path d="M204 36H0v24h204V36z" fill="#83E1E1" mask="url(#a)"/><mask id="b" maskUnits="userSpaceOnUse" x="5" y="-1" width="199" height="45" fill="#000"><path fill="#fff" d="M5-1h199v45H5z"/><path d="M19.72 39.2c-2.24 0-4.093-.147-5.56-.44-1.467-.267-2.627-.773-3.48-1.52-.853-.72-1.467-1.747-1.84-3.08-.347-1.36-.52-3.093-.52-5.2V18.92c0-2.453.24-4.387.72-5.8.507-1.413 1.347-2.453 2.52-3.12 1.2-.667 2.853-1.08 4.96-1.24.24-.613.52-1.347.84-2.2.32-.853.573-1.493.76-1.92.267-.72.707-1.227 1.32-1.52.613-.32 1.333-.36 2.16-.12.693.213 1.187.64 1.48 1.28a2.3 2.3 0 01.04 1.92l-.48 1.16c-.187.453-.387.88-.6 1.28h2.28c2.24 0 4.093.147 5.56.44 1.493.293 2.653.813 3.48 1.56.853.72 1.453 1.76 1.8 3.12.373 1.333.56 3.053.56 5.16v10.04c0 2.107-.187 3.84-.56 5.2-.347 1.333-.947 2.36-1.8 3.08-.827.747-1.987 1.253-3.48 1.52-1.467.293-3.32.44-5.56.44h-4.6zM13.2 26.16h17.64v-4.52H13.2v4.52zm6.52 8.76h4.6c1.733 0 3.053-.093 3.96-.28.907-.213 1.547-.64 1.92-1.28.373-.667.573-1.667.6-3H13.24c.053 1.333.253 2.333.6 3 .373.64 1.013 1.067 1.92 1.28.933.187 2.253.28 3.96.28zM13.24 17.4H30.8c-.053-1.307-.267-2.28-.64-2.92-.347-.64-.987-1.053-1.92-1.24-.907-.213-2.213-.32-3.92-.32h-4.6c-1.707 0-3.027.107-3.96.32-.907.187-1.547.6-1.92 1.24-.347.64-.547 1.613-.6 2.92zm44.88 21.92c-2.933 0-5.28-.307-7.04-.92-1.733-.613-2.987-1.693-3.76-3.24-.773-1.547-1.16-3.733-1.16-6.56v-5.88c0-2.827.387-5 1.16-6.52.773-1.547 2.027-2.627 3.76-3.24 1.76-.613 4.107-.92 7.04-.92h1.36V5.2c0-.773.24-1.387.72-1.84a2.61 2.61 0 011.8-.68c.693 0 1.28.227 1.76.68.48.453.72 1.067.72 1.84v6.84h1.32c2.96 0 5.307.307 7.04.92 1.76.613 3.027 1.693 3.8 3.24.773 1.52 1.16 3.693 1.16 6.52v5.88c0 2.827-.387 5.013-1.16 6.56-.773 1.547-2.04 2.627-3.8 3.24-1.733.613-4.08.92-7.04.92h-7.68zm-.08-4.36h1.44v-7.32h-8.32v1.12c0 1.68.187 2.973.56 3.88.4.88 1.093 1.493 2.08 1.84 1.013.32 2.427.48 4.24.48zm6.44 0h1.44c1.813 0 3.213-.16 4.2-.48.987-.347 1.667-.96 2.04-1.84.4-.907.6-2.2.6-3.88v-1.12h-8.28v7.32zM51.16 23.24h8.32V16.4h-1.44c-1.813 0-3.227.173-4.24.52-.987.32-1.68.92-2.08 1.8-.373.88-.56 2.173-.56 3.88v.64zm13.32 0h8.28v-.64c0-1.707-.2-3-.6-3.88-.373-.88-1.053-1.48-2.04-1.8-.987-.347-2.387-.52-4.2-.52h-1.44v6.84zm26.36 14.4c-.667.107-1.267-.027-1.8-.4a2.385 2.385 0 01-1-1.52c-.24-1.36-.427-2.933-.56-4.72-.133-1.813-.2-3.72-.2-5.72 0-2 .053-4.013.16-6.04.107-2.027.267-3.96.48-5.8.24-1.867.52-3.533.84-5 .133-.64.48-1.133 1.04-1.48.56-.373 1.16-.493 1.8-.36.64.16 1.133.52 1.48 1.08.373.533.493 1.133.36 1.8a55.089 55.089 0 00-1 6.16c-.24 2.213-.4 4.467-.48 6.76a78.017 78.017 0 00.12 6.64c.133 2.133.36 4.08.68 5.84.133.64 0 1.227-.4 1.76-.373.533-.88.867-1.52 1zm16.4-2.16c-3.467 0-6.053-.627-7.76-1.88-1.68-1.253-2.693-3.093-3.04-5.52a2.3 2.3 0 01.4-1.76c.4-.533.933-.853 1.6-.96.64-.08 1.227.08 1.76.48.533.373.853.893.96 1.56.16 1.147.707 2 1.64 2.56.933.56 2.453.84 4.56.84 2 0 4.413-.307 7.24-.92.64-.16 1.24-.053 1.8.32s.907.88 1.04 1.52.013 1.24-.36 1.8a2.55 2.55 0 01-1.52 1.04c-1.44.347-2.88.587-4.32.72-1.413.133-2.747.2-4 .2zm-7.32-19.8a2.38 2.38 0 01-1.8-.32c-.533-.373-.867-.893-1-1.56a2.38 2.38 0 01.32-1.8A2.22 2.22 0 0199 11c1.493-.293 3.16-.48 5-.56 1.84-.107 3.667-.12 5.48-.04 1.813.053 3.413.2 4.8.44a2.22 2.22 0 011.56 1c.373.533.493 1.133.36 1.8a2.222 2.222 0 01-1 1.56 2.397 2.397 0 01-1.76.36 36.9 36.9 0 00-6.72-.52c-2.32 0-4.587.213-6.8.64zm57.52 24.36a47.493 47.493 0 01-9.4-1.24 36.417 36.417 0 01-8.72-3.2c-1.333 1.067-3 1.96-5 2.68-1.973.747-4.333 1.307-7.08 1.68-.8.107-1.467.027-2-.24-.533-.267-.88-.747-1.04-1.44-.16-.693-.04-1.28.36-1.76.427-.507 1.053-.813 1.88-.92 1.92-.24 3.6-.56 5.04-.96 1.467-.4 2.72-.907 3.76-1.52l-1.84-1.36a86.258 86.258 0 01-1.76-1.48 2.357 2.357 0 01-.76-1.56c-.027-.64.187-1.173.64-1.6.107-.107.213-.187.32-.24.133-.08.253-.147.36-.2-1.52-.4-2.587-1.133-3.2-2.2-.613-1.067-.92-2.6-.92-4.6v-1.4c0-1.84.253-3.28.76-4.32.507-1.067 1.373-1.813 2.6-2.24 1.253-.453 2.947-.68 5.08-.68h3.28V8.8h-13.84c-.587 0-1.08-.2-1.48-.6-.4-.4-.6-.88-.6-1.44 0-.587.2-1.08.6-1.48.4-.4.893-.6 1.48-.6h32.08c.587 0 1.08.2 1.48.6.4.4.6.893.6 1.48 0 .56-.2 1.04-.6 1.44-.4.4-.893.6-1.48.6h-13.6v2.44h3.2c2.16 0 3.84.227 5.04.68 1.227.427 2.093 1.173 2.6 2.24.507 1.04.76 2.48.76 4.32v1.4c0 1.84-.253 3.293-.76 4.36-.507 1.04-1.373 1.787-2.6 2.24-1.2.427-2.88.64-5.04.64h-3.6c-.373 1.947-.987 3.667-1.84 5.16a30.155 30.155 0 007.24 2.48c2.56.507 5.413.8 8.56.88.747.027 1.32.24 1.72.64.4.4.573.987.52 1.76-.053.747-.347 1.267-.88 1.56-.507.32-1.147.467-1.92.44zm-24.48-22.56h6.84v-2.36h-3.28c-1.253 0-2.147.16-2.68.48-.507.293-.8.92-.88 1.88zm3.56 5.76h3.24v-.56c.027-.187.04-.373.04-.56v-1.24h-6.84c.08.96.373 1.6.88 1.92.533.293 1.427.44 2.68.44zm7.88 0h3.24c1.253 0 2.133-.147 2.64-.44.533-.32.84-.96.92-1.92h-6.76v1.8c0 .187-.013.373-.04.56zm.04-5.76h6.76c-.08-.96-.387-1.587-.92-1.88-.507-.32-1.387-.48-2.64-.48h-3.2v2.36zm-6.16 12.48c.453-.88.8-1.827 1.04-2.84h-3.84c-.32-.027-.627-.053-.92-.08l.12.12c.613.507 1.213 1 1.8 1.48.613.453 1.213.893 1.8 1.32zm35.24 10.68a2.258 2.258 0 01-1.6-.64c-.427-.4-.64-.933-.64-1.6v-7.84a55.733 55.733 0 01-2.2 2.92c-.773.96-1.467 1.747-2.08 2.36-.427.427-.933.68-1.52.76-.587.08-1.107-.093-1.56-.52-.4-.373-.613-.813-.64-1.32-.027-.533.147-.973.52-1.32a34.197 34.197 0 002.04-2.16 49.384 49.384 0 002.2-2.6 64.39 64.39 0 001.8-2.36h-3.56c-.587 0-1.067-.187-1.44-.56-.373-.373-.56-.84-.56-1.4 0-.533.187-.987.56-1.36.373-.4.853-.6 1.44-.6h5v-2.72h-5.84c-.587 0-1.053-.173-1.4-.52a1.964 1.964 0 01-.48-1.32c0-.533.16-.973.48-1.32.347-.373.813-.56 1.4-.56h2.96l-.56-1.36-.36-1.08c-.187-.533-.173-1.013.04-1.44.213-.453.573-.747 1.08-.88l.12-.04h-2.44c-.56 0-1.013-.173-1.36-.52a1.964 1.964 0 01-.48-1.32c0-.507.16-.933.48-1.28.347-.373.8-.56 1.36-.56h4.88V5.12c0-.613.213-1.12.64-1.52.453-.4 1.013-.6 1.68-.6.693 0 1.253.2 1.68.6.453.4.68.907.68 1.52v2.36h4.8c.587 0 1.04.187 1.36.56.32.347.48.773.48 1.28s-.16.947-.48 1.32c-.32.347-.773.52-1.36.52h-2.24c.533.16.893.467 1.08.92.213.427.227.907.04 1.44-.107.267-.253.627-.44 1.08-.16.453-.347.907-.56 1.36h2.72c.587 0 1.04.187 1.36.56.32.347.48.787.48 1.32 0 .507-.16.947-.48 1.32-.32.347-.773.52-1.36.52h-5.52v2.72h4.52c.613 0 1.093.2 1.44.6.373.373.56.827.56 1.36 0 .56-.187 1.027-.56 1.4-.347.373-.827.56-1.44.56h-4.08c.347.373.8.827 1.36 1.36a92.623 92.623 0 001.76 1.56c.613.48 1.107.853 1.48 1.12.427.347.653.8.68 1.36.053.56-.107 1.04-.48 1.44-.4.427-.867.653-1.4.68-.533 0-1.013-.187-1.44-.56a100.51 100.51 0 01-2.4-2.4v7.52c0 .667-.213 1.2-.64 1.6-.427.427-.947.64-1.56.64zm20.4-.12a2.258 2.258 0 01-1.6-.64c-.453-.427-.68-.987-.68-1.68V20.28h-3.32c-.027 4.187-.453 7.76-1.28 10.72-.827 2.933-2.133 5.587-3.92 7.96a2.578 2.578 0 01-1.68.96 2.36 2.36 0 01-1.84-.36c-.48-.347-.773-.827-.88-1.44-.08-.587.067-1.093.44-1.52a16.72 16.72 0 002.68-4.44c.693-1.653 1.187-3.533 1.48-5.64.293-2.133.44-4.573.44-7.32V13c0-1.493.173-2.68.52-3.56.373-.907.96-1.6 1.76-2.08.827-.507 1.907-.907 3.24-1.2a52.515 52.515 0 003.56-.88c1.36-.4 2.573-.76 3.64-1.08.72-.24 1.36-.227 1.92.04.56.24.933.627 1.12 1.16.213.64.213 1.253 0 1.84-.213.56-.64.933-1.28 1.12-1.147.293-2.32.587-3.52.88-1.2.293-2.387.573-3.56.84-1.093.267-1.84.613-2.24 1.04-.4.427-.6 1.187-.6 2.28v2.52h10.2c.667 0 1.187.213 1.56.64.4.427.6.947.6 1.56 0 .587-.2 1.093-.6 1.52-.373.427-.893.64-1.56.64h-2.28V38.2c0 .693-.227 1.253-.68 1.68-.453.427-1 .64-1.64.64zm-21.48-24.56h2c.213-.533.467-1.173.76-1.92l.72-1.84c.187-.507.507-.853.96-1.04H170c.213.08.413.213.6.4.213.16.373.387.48.68.107.213.24.56.4 1.04.16.453.333.933.52 1.44.187.48.333.893.44 1.24z"/></mask><path d="M19.72 39.2c-2.24 0-4.093-.147-5.56-.44-1.467-.267-2.627-.773-3.48-1.52-.853-.72-1.467-1.747-1.84-3.08-.347-1.36-.52-3.093-.52-5.2V18.92c0-2.453.24-4.387.72-5.8.507-1.413 1.347-2.453 2.52-3.12 1.2-.667 2.853-1.08 4.96-1.24.24-.613.52-1.347.84-2.2.32-.853.573-1.493.76-1.92.267-.72.707-1.227 1.32-1.52.613-.32 1.333-.36 2.16-.12.693.213 1.187.64 1.48 1.28a2.3 2.3 0 01.04 1.92l-.48 1.16c-.187.453-.387.88-.6 1.28h2.28c2.24 0 4.093.147 5.56.44 1.493.293 2.653.813 3.48 1.56.853.72 1.453 1.76 1.8 3.12.373 1.333.56 3.053.56 5.16v10.04c0 2.107-.187 3.84-.56 5.2-.347 1.333-.947 2.36-1.8 3.08-.827.747-1.987 1.253-3.48 1.52-1.467.293-3.32.44-5.56.44h-4.6zM13.2 26.16h17.64v-4.52H13.2v4.52zm6.52 8.76h4.6c1.733 0 3.053-.093 3.96-.28.907-.213 1.547-.64 1.92-1.28.373-.667.573-1.667.6-3H13.24c.053 1.333.253 2.333.6 3 .373.64 1.013 1.067 1.92 1.28.933.187 2.253.28 3.96.28zM13.24 17.4H30.8c-.053-1.307-.267-2.28-.64-2.92-.347-.64-.987-1.053-1.92-1.24-.907-.213-2.213-.32-3.92-.32h-4.6c-1.707 0-3.027.107-3.96.32-.907.187-1.547.6-1.92 1.24-.347.64-.547 1.613-.6 2.92zm44.88 21.92c-2.933 0-5.28-.307-7.04-.92-1.733-.613-2.987-1.693-3.76-3.24-.773-1.547-1.16-3.733-1.16-6.56v-5.88c0-2.827.387-5 1.16-6.52.773-1.547 2.027-2.627 3.76-3.24 1.76-.613 4.107-.92 7.04-.92h1.36V5.2c0-.773.24-1.387.72-1.84a2.61 2.61 0 011.8-.68c.693 0 1.28.227 1.76.68.48.453.72 1.067.72 1.84v6.84h1.32c2.96 0 5.307.307 7.04.92 1.76.613 3.027 1.693 3.8 3.24.773 1.52 1.16 3.693 1.16 6.52v5.88c0 2.827-.387 5.013-1.16 6.56-.773 1.547-2.04 2.627-3.8 3.24-1.733.613-4.08.92-7.04.92h-7.68zm-.08-4.36h1.44v-7.32h-8.32v1.12c0 1.68.187 2.973.56 3.88.4.88 1.093 1.493 2.08 1.84 1.013.32 2.427.48 4.24.48zm6.44 0h1.44c1.813 0 3.213-.16 4.2-.48.987-.347 1.667-.96 2.04-1.84.4-.907.6-2.2.6-3.88v-1.12h-8.28v7.32zM51.16 23.24h8.32V16.4h-1.44c-1.813 0-3.227.173-4.24.52-.987.32-1.68.92-2.08 1.8-.373.88-.56 2.173-.56 3.88v.64zm13.32 0h8.28v-.64c0-1.707-.2-3-.6-3.88-.373-.88-1.053-1.48-2.04-1.8-.987-.347-2.387-.52-4.2-.52h-1.44v6.84zm26.36 14.4c-.667.107-1.267-.027-1.8-.4a2.385 2.385 0 01-1-1.52c-.24-1.36-.427-2.933-.56-4.72-.133-1.813-.2-3.72-.2-5.72 0-2 .053-4.013.16-6.04.107-2.027.267-3.96.48-5.8.24-1.867.52-3.533.84-5 .133-.64.48-1.133 1.04-1.48.56-.373 1.16-.493 1.8-.36.64.16 1.133.52 1.48 1.08.373.533.493 1.133.36 1.8a55.089 55.089 0 00-1 6.16c-.24 2.213-.4 4.467-.48 6.76a78.017 78.017 0 00.12 6.64c.133 2.133.36 4.08.68 5.84.133.64 0 1.227-.4 1.76-.373.533-.88.867-1.52 1zm16.4-2.16c-3.467 0-6.053-.627-7.76-1.88-1.68-1.253-2.693-3.093-3.04-5.52a2.3 2.3 0 01.4-1.76c.4-.533.933-.853 1.6-.96.64-.08 1.227.08 1.76.48.533.373.853.893.96 1.56.16 1.147.707 2 1.64 2.56.933.56 2.453.84 4.56.84 2 0 4.413-.307 7.24-.92.64-.16 1.24-.053 1.8.32s.907.88 1.04 1.52.013 1.24-.36 1.8a2.55 2.55 0 01-1.52 1.04c-1.44.347-2.88.587-4.32.72-1.413.133-2.747.2-4 .2zm-7.32-19.8a2.38 2.38 0 01-1.8-.32c-.533-.373-.867-.893-1-1.56a2.38 2.38 0 01.32-1.8A2.22 2.22 0 0199 11c1.493-.293 3.16-.48 5-.56 1.84-.107 3.667-.12 5.48-.04 1.813.053 3.413.2 4.8.44a2.22 2.22 0 011.56 1c.373.533.493 1.133.36 1.8a2.222 2.222 0 01-1 1.56 2.397 2.397 0 01-1.76.36 36.9 36.9 0 00-6.72-.52c-2.32 0-4.587.213-6.8.64zm57.52 24.36a47.493 47.493 0 01-9.4-1.24 36.417 36.417 0 01-8.72-3.2c-1.333 1.067-3 1.96-5 2.68-1.973.747-4.333 1.307-7.08 1.68-.8.107-1.467.027-2-.24-.533-.267-.88-.747-1.04-1.44-.16-.693-.04-1.28.36-1.76.427-.507 1.053-.813 1.88-.92 1.92-.24 3.6-.56 5.04-.96 1.467-.4 2.72-.907 3.76-1.52l-1.84-1.36a86.258 86.258 0 01-1.76-1.48 2.357 2.357 0 01-.76-1.56c-.027-.64.187-1.173.64-1.6.107-.107.213-.187.32-.24.133-.08.253-.147.36-.2-1.52-.4-2.587-1.133-3.2-2.2-.613-1.067-.92-2.6-.92-4.6v-1.4c0-1.84.253-3.28.76-4.32.507-1.067 1.373-1.813 2.6-2.24 1.253-.453 2.947-.68 5.08-.68h3.28V8.8h-13.84c-.587 0-1.08-.2-1.48-.6-.4-.4-.6-.88-.6-1.44 0-.587.2-1.08.6-1.48.4-.4.893-.6 1.48-.6h32.08c.587 0 1.08.2 1.48.6.4.4.6.893.6 1.48 0 .56-.2 1.04-.6 1.44-.4.4-.893.6-1.48.6h-13.6v2.44h3.2c2.16 0 3.84.227 5.04.68 1.227.427 2.093 1.173 2.6 2.24.507 1.04.76 2.48.76 4.32v1.4c0 1.84-.253 3.293-.76 4.36-.507 1.04-1.373 1.787-2.6 2.24-1.2.427-2.88.64-5.04.64h-3.6c-.373 1.947-.987 3.667-1.84 5.16a30.155 30.155 0 007.24 2.48c2.56.507 5.413.8 8.56.88.747.027 1.32.24 1.72.64.4.4.573.987.52 1.76-.053.747-.347 1.267-.88 1.56-.507.32-1.147.467-1.92.44zm-24.48-22.56h6.84v-2.36h-3.28c-1.253 0-2.147.16-2.68.48-.507.293-.8.92-.88 1.88zm3.56 5.76h3.24v-.56c.027-.187.04-.373.04-.56v-1.24h-6.84c.08.96.373 1.6.88 1.92.533.293 1.427.44 2.68.44zm7.88 0h3.24c1.253 0 2.133-.147 2.64-.44.533-.32.84-.96.92-1.92h-6.76v1.8c0 .187-.013.373-.04.56zm.04-5.76h6.76c-.08-.96-.387-1.587-.92-1.88-.507-.32-1.387-.48-2.64-.48h-3.2v2.36zm-6.16 12.48c.453-.88.8-1.827 1.04-2.84h-3.84c-.32-.027-.627-.053-.92-.08l.12.12c.613.507 1.213 1 1.8 1.48.613.453 1.213.893 1.8 1.32zm35.24 10.68a2.258 2.258 0 01-1.6-.64c-.427-.4-.64-.933-.64-1.6v-7.84a55.733 55.733 0 01-2.2 2.92c-.773.96-1.467 1.747-2.08 2.36-.427.427-.933.68-1.52.76-.587.08-1.107-.093-1.56-.52-.4-.373-.613-.813-.64-1.32-.027-.533.147-.973.52-1.32a34.197 34.197 0 002.04-2.16 49.384 49.384 0 002.2-2.6 64.39 64.39 0 001.8-2.36h-3.56c-.587 0-1.067-.187-1.44-.56-.373-.373-.56-.84-.56-1.4 0-.533.187-.987.56-1.36.373-.4.853-.6 1.44-.6h5v-2.72h-5.84c-.587 0-1.053-.173-1.4-.52a1.964 1.964 0 01-.48-1.32c0-.533.16-.973.48-1.32.347-.373.813-.56 1.4-.56h2.96l-.56-1.36-.36-1.08c-.187-.533-.173-1.013.04-1.44.213-.453.573-.747 1.08-.88l.12-.04h-2.44c-.56 0-1.013-.173-1.36-.52a1.964 1.964 0 01-.48-1.32c0-.507.16-.933.48-1.28.347-.373.8-.56 1.36-.56h4.88V5.12c0-.613.213-1.12.64-1.52.453-.4 1.013-.6 1.68-.6.693 0 1.253.2 1.68.6.453.4.68.907.68 1.52v2.36h4.8c.587 0 1.04.187 1.36.56.32.347.48.773.48 1.28s-.16.947-.48 1.32c-.32.347-.773.52-1.36.52h-2.24c.533.16.893.467 1.08.92.213.427.227.907.04 1.44-.107.267-.253.627-.44 1.08-.16.453-.347.907-.56 1.36h2.72c.587 0 1.04.187 1.36.56.32.347.48.787.48 1.32 0 .507-.16.947-.48 1.32-.32.347-.773.52-1.36.52h-5.52v2.72h4.52c.613 0 1.093.2 1.44.6.373.373.56.827.56 1.36 0 .56-.187 1.027-.56 1.4-.347.373-.827.56-1.44.56h-4.08c.347.373.8.827 1.36 1.36a92.623 92.623 0 001.76 1.56c.613.48 1.107.853 1.48 1.12.427.347.653.8.68 1.36.053.56-.107 1.04-.48 1.44-.4.427-.867.653-1.4.68-.533 0-1.013-.187-1.44-.56a100.51 100.51 0 01-2.4-2.4v7.52c0 .667-.213 1.2-.64 1.6-.427.427-.947.64-1.56.64zm20.4-.12a2.258 2.258 0 01-1.6-.64c-.453-.427-.68-.987-.68-1.68V20.28h-3.32c-.027 4.187-.453 7.76-1.28 10.72-.827 2.933-2.133 5.587-3.92 7.96a2.578 2.578 0 01-1.68.96 2.36 2.36 0 01-1.84-.36c-.48-.347-.773-.827-.88-1.44-.08-.587.067-1.093.44-1.52a16.72 16.72 0 002.68-4.44c.693-1.653 1.187-3.533 1.48-5.64.293-2.133.44-4.573.44-7.32V13c0-1.493.173-2.68.52-3.56.373-.907.96-1.6 1.76-2.08.827-.507 1.907-.907 3.24-1.2a52.515 52.515 0 003.56-.88c1.36-.4 2.573-.76 3.64-1.08.72-.24 1.36-.227 1.92.04.56.24.933.627 1.12 1.16.213.64.213 1.253 0 1.84-.213.56-.64.933-1.28 1.12-1.147.293-2.32.587-3.52.88-1.2.293-2.387.573-3.56.84-1.093.267-1.84.613-2.24 1.04-.4.427-.6 1.187-.6 2.28v2.52h10.2c.667 0 1.187.213 1.56.64.4.427.6.947.6 1.56 0 .587-.2 1.093-.6 1.52-.373.427-.893.64-1.56.64h-2.28V38.2c0 .693-.227 1.253-.68 1.68-.453.427-1 .64-1.64.64zm-21.48-24.56h2c.213-.533.467-1.173.76-1.92l.72-1.84c.187-.507.507-.853.96-1.04H170c.213.08.413.213.6.4.213.16.373.387.48.68.107.213.24.56.4 1.04.16.453.333.933.52 1.44.187.48.333.893.44 1.24z" fill="url(#paint0_linear_10944_61076)"/><path d="M14.16 38.76l.588-2.942a2.343 2.343 0 00-.051-.01l-.537 2.952zm-3.48-1.52l1.976-2.258a2.294 2.294 0 00-.041-.035L10.68 37.24zm-1.84-3.08l-2.907.741.018.068 2.889-.809zm.2-21.04l-2.824-1.012a2.651 2.651 0 00-.017.047l2.841.965zM11.56 10l-1.457-2.622-.025.014L11.56 10zm4.96-1.24l.227 2.991a3 3 0 002.567-1.898L16.52 8.76zm.84-2.2l-2.809-1.053L17.36 6.56zm.76-1.92l2.748 1.202a2.23 2.23 0 00.065-.16L18.12 4.64zm1.32-1.52l1.294 2.706a3.05 3.05 0 00.094-.046L19.44 3.12zM21.6 3l.882-2.867a3.271 3.271 0 00-.046-.014L21.6 3zm1.48 1.28l-2.727 1.25 2.727-1.25zm.04 1.92l-2.77-1.154L23.12 6.2zm-.48 1.16l2.774 1.142L22.64 7.36zm-.6 1.28l-2.647-1.412a3 3 0 002.647 4.412v-3zm7.84.44l-.588 2.942.01.002.578-2.944zm3.48 1.56l-2.01 2.226c.024.023.05.045.075.067l1.935-2.293zm1.8 3.12l-2.907.741.018.068 2.889-.809zm0 20.4l-2.893-.794a2.855 2.855 0 00-.01.04l2.903.754zm-1.8 3.08l-1.935-2.293a3.217 3.217 0 00-.076.067l2.011 2.226zm-3.48 1.52l-.527-2.953-.061.011.588 2.942zM13.2 26.16h-3a3 3 0 003 3v-3zm17.64 0v3a3 3 0 003-3h-3zm0-4.52h3a3 3 0 00-3-3v3zm-17.64 0v-3a3 3 0 00-3 3h3zm15.08 13l.605 2.938c.027-.005.055-.011.082-.018l-.687-2.92zm1.92-1.28l2.591 1.512a2.58 2.58 0 00.027-.046L30.2 33.36zm.6-3l3 .06a3 3 0 00-3-3.06v3zm-17.56 0v-3a3 3 0 00-2.998 3.12l2.998-.12zm.6 3l-2.662 1.384.07.128 2.592-1.512zm1.92 1.28l-.687 2.92.099.022.588-2.942zM13.24 17.4l-2.998-.122A3 3 0 0013.24 20.4v-3zm17.56 0v3a3 3 0 002.997-3.122L30.8 17.4zm-.64-2.92l-2.638 1.429.047.083 2.591-1.512zm-1.92-1.24l-.687 2.92a2.8 2.8 0 00.099.022l.588-2.942zm-12.48 0l.605 2.938.064-.013-.669-2.925zm-1.92 1.24l-2.591-1.512a2.79 2.79 0 00-.047.083l2.638 1.429zm5.88 21.72c-2.13 0-3.769-.141-4.972-.382l-1.176 5.884c1.73.346 3.798.498 6.148.498v-6zm-5.023-.392c-1.097-.199-1.705-.532-2.041-.826l-3.952 4.516c1.371 1.2 3.083 1.88 4.92 2.214l1.073-5.904zm-2.082-.86c-.294-.249-.636-.703-.886-1.597L5.95 34.97c.496 1.772 1.382 3.372 2.794 4.564l3.87-4.586zm-.868-1.529c-.262-1.03-.427-2.49-.427-4.459h-6c0 2.245.182 4.25.613 5.941l5.814-1.482zm-.427-4.459V18.92h-6v10.04h6zm0-10.04c0-2.308.232-3.868.56-4.835l-5.68-1.93c-.632 1.86-.88 4.166-.88 6.765h6zm.544-4.788c.294-.819.7-1.252 1.178-1.524l-2.964-5.216C8.21 8.453 6.936 10.1 6.216 12.108l5.648 2.024zm1.153-1.51c.673-.373 1.846-.727 3.73-.87l-.454-5.983c-2.329.176-4.463.649-6.19 1.609l2.914 5.245zm6.297-2.769c.246-.63.532-1.378.855-2.24l-5.618-2.106a161.57 161.57 0 01-.825 2.16l5.588 2.186zm.855-2.24c.315-.84.546-1.42.7-1.77L15.37 3.437a44.64 44.64 0 00-.82 2.069l5.618 2.106zm.764-1.931c.026-.07.03-.05-.018.005a.595.595 0 01-.18.14L18.144.413c-1.409.674-2.339 1.836-2.838 3.184l5.626 2.084zm-.105.098a.63.63 0 01-.222.065c-.036.002.008-.007.158.036L22.436.119c-1.378-.4-2.927-.419-4.384.341l2.776 5.32zm-.11.087s-.006-.001-.016-.006a.746.746 0 01-.174-.112.7.7 0 01-.175-.219l5.454-2.5C25.145 1.586 23.965.589 22.482.133l-1.764 5.734zm-.365-.337a.625.625 0 01-.042-.228.67.67 0 01.04-.256l5.538 2.308a5.298 5.298 0 00-.082-4.324l-5.454 2.5zm-.002-.484c-.136.325-.297.716-.485 1.172l5.548 2.284.475-1.148-5.538-2.308zm-.485 1.172c-.152.369-.31.705-.473 1.01l5.294 2.824c.264-.495.506-1.012.727-1.55l-5.548-2.284zm2.174 5.422h2.28v-6h-2.28v6zm2.28 0c2.13 0 3.769.141 4.972.382l1.176-5.884c-1.73-.346-3.798-.498-6.148-.498v6zm4.982.384c1.147.225 1.746.57 2.047.842l4.022-4.452c-1.352-1.222-3.074-1.917-4.913-2.278l-1.156 5.888zm2.123.909c.265.223.596.657.828 1.568l5.814-1.482c-.461-1.81-1.33-3.455-2.772-4.672l-3.87 4.586zm.846 1.636c.272.97.449 2.391.449 4.351h6c0-2.254-.196-4.273-.671-5.969L32.27 14.57zm.449 4.351v10.04h6V18.92h-6zm0 10.04c0 1.957-.176 3.398-.453 4.406l5.786 1.588c.47-1.712.667-3.737.667-5.994h-6zm-.463 4.445c-.228.875-.554 1.308-.832 1.542l3.87 4.586c1.428-1.206 2.303-2.827 2.768-4.618l-5.806-1.51zm-.908 1.609c-.285.257-.863.59-1.996.793l1.054 5.906c1.853-.33 3.595-1.01 4.964-2.247l-4.022-4.452zm-2.057.804c-1.203.24-2.842.382-4.972.382v6c2.35 0 4.418-.152 6.148-.498l-1.176-5.884zm-4.972.382h-4.6v6h4.6v-6zM13.2 29.16h17.64v-6H13.2v6zm20.64-3v-4.52h-6v4.52h6zm-3-7.52H13.2v6h17.64v-6zm-20.64 3v4.52h6v-4.52h-6zm9.52 16.28h4.6v-6h-4.6v6zm4.6 0c1.793 0 3.356-.093 4.565-.342l-1.21-5.876c-.604.124-1.682.218-3.355.218v6zm4.647-.36c1.489-.35 2.935-1.164 3.824-2.688l-5.182-3.024a.63.63 0 01.167-.184c.033-.022-.007.014-.183.056l1.374 5.84zm3.85-2.734c.733-1.308.952-2.897.982-4.406l-5.998-.12c-.011.54-.056.94-.113 1.222-.057.288-.114.387-.105.372l5.235 2.932zM30.8 27.36H13.24v6H30.8v-6zm-20.558 3.12c.06 1.483.285 3.01.936 4.264l5.324-2.768s-.005-.008-.013-.028a2.993 2.993 0 01-.118-.427 8.405 8.405 0 01-.133-1.28l-5.996.239zm1.007 4.392c.889 1.524 2.335 2.338 3.824 2.688l1.374-5.84c-.176-.042-.216-.078-.183-.056a.63.63 0 01.167.185l-5.182 3.023zm3.923 2.71c1.222.244 2.773.338 4.548.338v-6c-1.638 0-2.727-.093-3.372-.222l-1.176 5.884zM13.24 20.4H30.8v-6H13.24v6zm20.557-3.122c-.06-1.475-.303-3.036-1.046-4.31l-5.182 3.024c-.015-.026.04.061.1.34.06.273.112.661.133 1.19l5.995-.244zm-1-4.227c-.893-1.65-2.45-2.449-3.969-2.753l-1.176 5.884c.185.037.205.07.14.028a.9.9 0 01-.27-.301l5.276-2.858zm-3.87-2.731c-1.246-.293-2.826-.4-4.607-.4v6c1.633 0 2.665.107 3.233.24l1.374-5.84zm-4.607-.4h-4.6v6h4.6v-6zm-4.6 0c-1.786 0-3.369.107-4.628.395l1.336 5.85c.608-.14 1.665-.245 3.292-.245v-6zm-4.565.382c-1.518.312-3 1.114-3.906 2.666l5.182 3.024a.699.699 0 01-.203.218c-.052.033-.029.002.137-.032l-1.21-5.876zm-3.953 2.75c-.675 1.246-.9 2.77-.96 4.226l5.995.244c.023-.539.073-.94.132-1.228.06-.296.116-.399.109-.385l-5.276-2.858zM51.08 38.4l-1 2.828.013.005.987-2.833zm-3.76-3.24l2.683-1.342-2.683 1.342zm0-18.96l2.674 1.36.01-.018L47.32 16.2zm3.76-3.24l-.987-2.833-.014.005 1.001 2.828zm8.4-.92v3a3 3 0 003-3h-3zm.72-8.68l-2-2.236-.06.055L60.2 3.36zm3.56 0L61.7 5.541l2.06-2.181zm.72 8.68h-3a3 3 0 003 3v-3zm8.36.92l-1 2.828.013.005.987-2.833zm3.8 3.24l-2.683 1.342.01.018 2.673-1.36zm0 18.96l2.683 1.342-2.683-1.342zm-3.8 3.24l-.987-2.833-.014.005L72.84 38.4zm-13.36-3.44v3a3 3 0 003-3h-3zm0-7.32h3a3 3 0 00-3-3v3zm-8.32 0v-3a3 3 0 00-3 3h3zm.56 5l-2.774 1.142.043.1 2.731-1.242zm2.08 1.84l-.994 2.83.09.03.904-2.86zm10.68.48h-3a3 3 0 003 3v-3zm5.64-.48l.925 2.854.07-.024-.995-2.83zm2.04-1.84l-2.745-1.21a2.72 2.72 0 00-.017.038l2.762 1.172zm.6-5h3a3 3 0 00-3-3v3zm-8.28 0v-3a3 3 0 00-3 3h3zm-13.32-4.4h-3a3 3 0 003 3v-3zm8.32 0v3a3 3 0 003-3h-3zm0-6.84h3a3 3 0 00-3-3v3zm-5.68.52l.925 2.854.046-.015-.971-2.839zm-2.08 1.8l-2.731-1.241-.03.07 2.761 1.171zm12.76 4.52h-3a3 3 0 003 3v-3zm8.28 0v3a3 3 0 003-3h-3zm-.6-4.52l-2.762 1.172.03.07 2.732-1.242zm-2.04-1.8l-.995 2.83.07.024.925-2.854zm-5.64-.52v-3a3 3 0 00-3 3h3zm-6.36 19.92c-2.767 0-4.738-.295-6.053-.753l-1.974 5.666c2.205.769 4.928 1.087 8.027 1.087v-6zm-6.04-.748c-1.052-.373-1.674-.949-2.077-1.754l-5.366 2.684c1.144 2.288 3.028 3.872 5.442 4.726l2.002-5.656zm-2.077-1.754c-.473-.946-.843-2.596-.843-5.218h-6c0 3.031.403 5.755 1.477 7.902l5.366-2.684zM49.16 28.6v-5.88h-6v5.88h6zm0-5.88c0-2.627.372-4.251.834-5.16l-5.348-2.72c-1.084 2.131-1.486 4.854-1.486 7.88h6zm.843-5.178c.403-.805 1.025-1.382 2.078-1.754l-2.002-5.656c-2.414.854-4.298 2.438-5.442 4.726l5.366 2.684zm2.064-1.75c1.315-.457 3.286-.752 6.053-.752v-6c-3.1 0-5.822.318-8.027 1.087l1.974 5.666zm6.053-.752h1.36v-6h-1.36v6zm4.36-3V5.2h-6v6.84h6zm0-6.84c0-.077.012-.043-.026.053a.8.8 0 01-.194.288l-4.12-4.362c-1.183 1.118-1.66 2.576-1.66 4.021h6zm-.28.396a.39.39 0 01-.11.06c-.065.025-.104.024-.09.024v-6a5.608 5.608 0 00-3.8 1.444l4 4.472zm-.2.084c.015 0-.036.001-.121-.032a.572.572 0 01-.179-.107l4.12-4.362C64.753.171 63.417-.32 62-.32v6zm-.3-.139a.8.8 0 01-.194-.288c-.038-.096-.026-.13-.026-.053h6c0-1.445-.477-2.903-1.66-4.021L61.7 5.541zm-.22-.341v6.84h6V5.2h-6zm3 9.84h1.32v-6h-1.32v6zm1.32 0c2.8 0 4.763.296 6.04.748l2-5.656c-2.19-.775-4.92-1.092-8.04-1.092v6zm6.053.753c1.085.378 1.709.959 2.104 1.749l5.366-2.684c-1.151-2.303-3.061-3.882-5.496-4.73l-1.974 5.665zm2.113 1.767c.462.909.834 2.533.834 5.16h6c0-3.026-.402-5.749-1.486-7.88l-5.348 2.72zm.834 5.16v5.88h6v-5.88h-6zm0 5.88c0 2.622-.37 4.272-.843 5.218l5.366 2.684C80.397 34.355 80.8 31.63 80.8 28.6h-6zm-.843 5.218c-.395.79-1.019 1.37-2.104 1.75l1.974 5.665c2.435-.849 4.345-2.428 5.496-4.731l-5.366-2.684zm-2.118 1.754c-1.276.451-3.238.748-6.039.748v6c3.12 0 5.85-.317 8.04-1.092l-2-5.656zm-6.039.748h-7.68v6h7.68v-6zm-7.76 1.64h1.44v-6h-1.44v6zm4.44-3v-7.32h-6v7.32h6zm-3-10.32h-8.32v6h8.32v-6zm-11.32 3v1.12h6v-1.12h-6zm0 1.12c0 1.832.193 3.583.786 5.022l5.548-2.284c-.154-.375-.334-1.21-.334-2.738h-6zm.829 5.121c.768 1.69 2.129 2.836 3.817 3.43l1.989-5.661a.799.799 0 01-.267-.137.305.305 0 01-.077-.114L48.99 33.88zm3.908 3.46c1.44.455 3.207.619 5.143.619v-6c-1.69 0-2.75-.156-3.337-.34l-1.806 5.72zm11.583.619h1.44v-6h-1.44v6zm1.44 0c1.93 0 3.697-.163 5.126-.626l-1.852-5.708c-.544.177-1.577.334-3.274.334v6zm5.195-.65c1.699-.597 3.07-1.764 3.807-3.498l-5.524-2.344a.285.285 0 01-.027.053.062.062 0 01-.01.011.712.712 0 01-.236.118l1.99 5.66zm3.79-3.46c.646-1.464.855-3.244.855-5.09h-6c0 1.514-.191 2.32-.345 2.67l5.49 2.42zm.855-5.09v-1.12h-6v1.12h6zm-3-4.12h-8.28v6h8.28v-6zm-11.28 3v7.32h6v-7.32h-6zm-10.32-1.4h8.32v-6h-8.32v6zm11.32-3V16.4h-6v6.84h6zm-3-9.84h-1.44v6h1.44v-6zm-1.44 0c-1.948 0-3.742.179-5.211.681l1.942 5.678c.558-.191 1.59-.359 3.269-.359v-6zm-5.166.666c-1.722.559-3.109 1.705-3.885 3.413l5.462 2.482a.367.367 0 01.037-.066.09.09 0 01.015-.017c.006-.005.06-.052.222-.104l-1.85-5.708zm-3.916 3.482c-.609 1.436-.798 3.21-.798 5.052h6c0-1.57.184-2.384.322-2.708l-5.524-2.344zM48.16 22.6v.64h6v-.64h-6zm16.32 3.64h8.28v-6h-8.28v6zm11.28-3v-.64h-6v.64h6zm0-.64c0-1.856-.204-3.66-.869-5.121L69.43 19.96c.135.298.331 1.082.331 2.639h6zm-.838-5.052c-.744-1.754-2.142-2.92-3.876-3.482l-1.852 5.708c.159.051.2.094.191.085l-.004-.003-.002-.003v-.001.002a.202.202 0 01.02.038l5.523-2.344zm-3.807-3.458c-1.458-.513-3.253-.69-5.195-.69v6c1.685 0 2.69.17 3.206.35l1.989-5.66zm-5.195-.69h-1.44v6h1.44v-6zm-4.44 3v6.84h6V16.4h-6zm29.36 21.24l.474 2.962c.046-.007.092-.015.138-.025l-.612-2.937zm-1.8-.4l1.72-2.458-1.72 2.458zm-1-1.52l-2.954.521c.005.03.01.06.017.09l2.937-.611zM87.48 31l-2.992.22v.003L87.48 31zm-.04-11.76l2.996.158-2.996-.158zm.48-5.8l-2.975-.383a2.345 2.345 0 00-.005.037l2.98.346zm.84-5l2.931.64.006-.028-2.937-.612zm1.04-1.48l1.58 2.55.084-.054L89.8 6.96zm1.8-.36l.728-2.91a3.014 3.014 0 00-.116-.027L91.6 6.6zm1.48 1.08l-2.55 1.58c.029.047.06.094.092.14l2.458-1.72zm.36 1.8l2.927.66a2.81 2.81 0 00.015-.072L93.44 9.48zM91.96 22.4l-2.998-.105-.001.034 2.999.071zm.12 6.64l-2.994.185v.002l2.994-.187zm.68 5.84l-2.952.537.015.075 2.937-.612zm-.4 1.76l-2.4-1.8-.058.08 2.458 1.72zm7.12-3.04l-1.794 2.405.018.013L99.48 33.6zm-3.04-5.52l2.97-.424a3.181 3.181 0 00-.01-.07l-2.96.494zm.4-1.76l-2.4-1.8-.058.08 2.458 1.72zm1.6-.96l-.372-2.977-.102.015.474 2.962zm1.76.48l-1.8 2.4.08.058 1.72-2.458zm.96 1.56l2.971-.415-.009-.059-2.962.474zm1.64 2.56l1.543-2.573-1.543 2.573zm11.8-.08l.636 2.932.092-.022-.728-2.91zm1.8.32l-1.664 2.496L116.4 30.2zm1.04 1.52l-2.937.612 2.937-.612zm-.36 1.8l2.458 1.72.038-.056-2.496-1.664zm-1.52 1.04l.702 2.917.026-.007-.728-2.91zm-4.32.72l-.277-2.987h-.005l.282 2.987zm-11.32-19.6l-.568-2.946-.044.01.612 2.936zm-1.8-.32l-1.72 2.458c.046.032.093.063.14.093l1.58-2.551zm-1-1.56l2.942-.588-.005-.024-2.937.612zm.32-1.8l-2.496-1.664a3.146 3.146 0 00-.055.085L97.44 12zM99 11l.474 2.962a2.84 2.84 0 00.104-.018L99 11zm5-.56l.13 2.997.044-.002L104 10.44zm5.48-.04l-.132 2.997.044.002.088-2.999zm4.8.44l-.512 2.956.038.006.474-2.962zm1.56 1l-2.496 1.664.038.056 2.458-1.72zm.36 1.8l-2.942-.588a4.41 4.41 0 00-.02.114l2.962.474zm-1 1.56l1.635 2.515.029-.019L115.2 15.2zm-1.76.36l-.511 2.956.018.003.493-2.959zm-6.72-.52v3h.034l-.034-3zM90.366 34.678s.017-.003.05-.002a.644.644 0 01.345.107l-3.441 4.915c1.197.838 2.59 1.129 3.994.904l-.948-5.924zm.394.104c.021.015.08.063.136.15a.56.56 0 01.08.176l-5.873 1.224a5.384 5.384 0 002.217 3.366l3.44-4.916zm.234.417c-.218-1.238-.394-2.708-.522-4.422l-5.984.446c.14 1.86.336 3.536.598 5.018l5.908-1.042zm-.522-4.419a75.136 75.136 0 01-.192-5.5h-6c0 2.066.069 4.047.208 5.94l5.984-.44zm-.192-5.5c0-1.947.052-3.907.156-5.882l-5.992-.316a118 118 0 00-.164 6.198h6zm.156-5.882c.103-1.97.259-3.84.464-5.612l-5.96-.691a95.71 95.71 0 00-.496 5.987l5.992.316zm.46-5.575a55.95 55.95 0 01.795-4.744L85.829 7.8a61.813 61.813 0 00-.884 5.257l5.95.766zm.8-4.771a.753.753 0 01-.121.263.731.731 0 01-.196.196l-3.158-5.102a5.201 5.201 0 00-2.398 3.42l5.874 1.223zm-.232.404a.616.616 0 01-.206.076.708.708 0 01-.27.005l1.224-5.874c-1.453-.303-2.87-.004-4.076.8l3.328 4.993zm-.592.054a.599.599 0 01-.19-.097.605.605 0 01-.153-.154l5.102-3.158a5.347 5.347 0 00-3.303-2.411l-1.456 5.82zm-.25-.11a.772.772 0 01-.124-.508l5.884 1.176c.286-1.43.022-2.871-.844-4.108L90.622 9.4zm-.109-.58a58.076 58.076 0 00-1.056 6.497l5.966.646a51.82 51.82 0 01.944-5.823l-5.854-1.32zm-1.056 6.497a95.687 95.687 0 00-.495 6.978l5.996.21c.078-2.223.233-4.403.465-6.542l-5.966-.646zm-.496 7.012a81.015 81.015 0 00.125 6.896l5.988-.37a74.978 74.978 0 01-.115-6.384l-5.998-.142zm.125 6.898c.14 2.229.378 4.294.722 6.19l5.904-1.074c-.296-1.624-.51-3.452-.638-5.49l-5.988.374zm.737 6.265a.872.872 0 01.012-.357c.036-.16.1-.261.125-.295l4.8 3.6c.905-1.207 1.25-2.67.937-4.172l-5.874 1.224zm.08-.572a.577.577 0 01.148-.136.562.562 0 01.177-.08l1.224 5.873a5.384 5.384 0 003.366-2.217l-4.916-3.44zm17.337-2.44c-3.2 0-5.028-.596-5.984-1.298l-3.552 4.836c2.457 1.804 5.803 2.462 9.536 2.462v-6zm-5.966-1.285c-.932-.695-1.61-1.758-1.864-3.54l-5.94.85c.439 3.072 1.788 5.688 4.216 7.5l3.588-4.81zm-1.875-3.608a.655.655 0 01-.014.238.644.644 0 01-.087.215l-4.916-3.44a5.299 5.299 0 00-.901 3.973l5.918-.986zm-.159.533a.572.572 0 01-.156.133.531.531 0 01-.17.07l-.948-5.925a5.4 5.4 0 00-3.526 2.122l4.8 3.6zm-.428.217a.658.658 0 01-.412-.097l3.6-4.8c-1.132-.849-2.492-1.237-3.932-1.057l.744 5.954zm-.332-.04a.748.748 0 01-.195-.215.632.632 0 01-.087-.208l5.924-.948c-.229-1.435-.976-2.685-2.202-3.544l-3.44 4.916zm-.291-.482c.276 1.979 1.301 3.658 3.068 4.717l3.086-5.144c-.099-.06-.121-.098-.127-.106-.009-.014-.056-.09-.085-.297l-5.942.83zm3.068 4.717c1.662.998 3.876 1.268 6.103 1.268v-6c-1.986 0-2.813-.29-3.017-.413l-3.086 5.145zm6.103 1.268c2.285 0 4.924-.348 7.876-.988l-1.272-5.864c-2.702.586-4.889.852-6.604.852v6zm7.968-1.01a.81.81 0 01-.323.004.742.742 0 01-.269-.098l3.328-4.992c-1.247-.832-2.713-1.104-4.192-.734l1.456 5.82zm-.592-.094a.67.67 0 01-.233-.364l5.874-1.224c-.299-1.436-1.119-2.608-2.313-3.404l-3.328 4.992zm-.233-.364a.721.721 0 01.081-.476l4.992 3.328c.805-1.207 1.104-2.623.801-4.076l-5.874 1.224zm.119-.532a.452.452 0 01.104-.096.378.378 0 01.106-.054l1.456 5.82a5.55 5.55 0 003.25-2.23l-4.916-3.44zm.236-.157c-1.304.314-2.601.53-3.895.65l.554 5.974a33.422 33.422 0 004.745-.79l-1.404-5.834zm-3.9.65c-1.331.126-2.57.187-3.718.187v6c1.359 0 2.787-.072 4.282-.213l-.564-5.974zm-11.65-19.55a.583.583 0 01.207.003.56.56 0 01.184.063l-3.158 5.102a5.38 5.38 0 003.991.706l-1.224-5.874zm.532.16a.62.62 0 01.156.168c.054.085.066.144.066.14l-5.884 1.177c.278 1.387 1.025 2.592 2.222 3.43l3.44-4.916zm.217.285a.581.581 0 01-.003.207.576.576 0 01-.063.184l-5.102-3.158a5.38 5.38 0 00-.706 3.99l5.874-1.223zm-.12.476a.726.726 0 01-.208.192.718.718 0 01-.255.106l-.948-5.924a5.219 5.219 0 00-3.582 2.298l4.992 3.328zm-.359.28c1.319-.26 2.833-.432 4.552-.507l-.26-5.994c-1.961.085-3.78.286-5.448.613l1.156 5.888zm4.596-.509a51.09 51.09 0 015.174-.038l.264-5.994a56.726 56.726 0 00-5.786.042l.348 5.99zm5.218-.036c1.709.05 3.163.187 4.376.397l1.024-5.912c-1.56-.27-3.307-.426-5.224-.483l-.176 5.998zm4.414.403a.72.72 0 01-.255-.106.72.72 0 01-.207-.192l4.992-3.328a5.22 5.22 0 00-3.582-2.298l-.948 5.924zm-.424-.242a.796.796 0 01-.124-.508l5.884 1.176c.286-1.43.022-2.871-.844-4.108l-4.916 3.44zm-.144-.394a.7.7 0 01.106-.255.732.732 0 01.192-.207l3.328 4.992a5.217 5.217 0 002.298-3.582l-5.924-.948zm.327-.481a.594.594 0 01.194-.074.523.523 0 01.174-.01l-.986 5.918a5.396 5.396 0 003.888-.804l-3.27-5.03zm.386-.081a39.899 39.899 0 00-7.265-.564l.068 6a33.902 33.902 0 016.175.476l1.022-5.912zm-7.231-.564c-2.505 0-4.962.23-7.368.694l1.136 5.892a32.84 32.84 0 016.232-.586v-6zm50.72 28l.103-2.998h-.004l-.099 2.998zm-9.4-1.24l.691-2.92-.024-.005-.667 2.925zm-8.72-3.2l1.382-2.663a3 3 0 00-3.256.32l1.874 2.343zm-5 2.68l-1.016-2.823-.046.017 1.062 2.806zm-7.08 1.68l.396 2.974.008-.001-.404-2.973zm-2-.24l-1.342 2.683 1.342-2.683zm-1.04-1.44l-2.923.675 2.923-.675zm.36-1.76l-2.295-1.932-.01.011 2.305 1.921zm1.88-.92l-.372-2.977-.012.002.384 2.975zm5.04-.96l-.789-2.894-.014.003.803 2.891zm3.76-1.52l1.524 2.584a3 3 0 00.259-4.997l-1.783 2.413zm-1.84-1.36l-1.9 2.322c.038.031.077.061.117.09l1.783-2.412zm-1.76-1.48l-2.056 2.185.095.085 1.961-2.27zm-.76-1.56l-2.997.125c.001.045.004.09.008.135l2.989-.26zm.64-1.6l2.056 2.185.065-.064-2.121-2.121zm.32-.24l1.342 2.683a2.97 2.97 0 00.201-.11l-1.543-2.573zm.36-.2l1.342 2.683a3 3 0 00-.579-5.584l-.763 2.901zm-3.2-2.2l2.601-1.495L129 24.48zm-.16-10.32l2.697 1.314.013-.027-2.71-1.287zm2.6-2.24l.986 2.834.034-.013-1.02-2.821zm8.36-.68v3a3 3 0 003-3h-3zm0-2.44h3a3 3 0 00-3-3v3zm-15.32-.6l-2.121 2.121L124.48 8.2zm0-2.92l-2.121-2.121 2.121 2.121zm35.04 0l-2.121 2.121 2.121-2.121zm0 2.92l-2.121-2.121L159.52 8.2zm-15.08.6v-3a3 3 0 00-3 3h3zm0 2.44h-3a3 3 0 003 3v-3zm8.24.68l-1.06 2.806c.025.01.049.019.074.027l.986-2.833zm2.6 2.24l-2.71 1.287.013.027 2.697-1.314zm0 10.08l2.697 1.314.013-.027-2.71-1.287zm-2.6 2.24l1.005 2.827.035-.013-1.04-2.814zm-8.64.64v-3a3 3 0 00-2.946 2.435l2.946.565zm-1.84 5.16l-2.605-1.488a2.999 2.999 0 001.276 4.178l1.329-2.69zm7.24 2.48l-.612 2.937.03.006.582-2.943zm8.56.88l.107-2.998-.031-.001L158 35.64zm1.72.64l-2.121 2.121 2.121-2.121zm.52 1.76l2.992.214.001-.008-2.993-.206zm-.88 1.56l-1.446-2.629a2.9 2.9 0 00-.156.093l1.602 2.536zm-26.4-22.12l-2.99-.25a3.003 3.003 0 002.99 3.25v-3zm6.84 0v3a3 3 0 003-3h-3zm0-2.36h3a3 3 0 00-3-3v3zm-5.96.48l1.503 2.596.04-.024-1.543-2.572zm5.92 7.64v3a3 3 0 003-3h-3zm0-.56l-2.97-.424c-.02.14-.03.282-.03.424h3zm.04-1.8h3a3 3 0 00-3-3v3zm-6.84 0v-3a3 3 0 00-2.99 3.25l2.99-.25zm.88 1.92l-1.602 2.537a2.9 2.9 0 00.156.092l1.446-2.629zm10.56.44l-2.97-.424a3 3 0 002.97 3.424v-3zm5.88-.44l1.503 2.596c.014-.008.027-.015.04-.024L150.28 22.8zm.92-1.92l2.99.25a3.003 3.003 0 00-2.99-3.25v3zm-6.76 0v-3a3 3 0 00-3 3h3zm0-3.4h-3a3 3 0 003 3v-3zm6.76 0v3a3 3 0 002.99-3.25l-2.99.25zm-.92-1.88l-1.602 2.537a2.9 2.9 0 00.156.092l1.446-2.629zm-5.84-.48v-3a3 3 0 00-3 3h3zm-6.16 14.84l-1.765 2.426a3.001 3.001 0 004.432-1.052l-2.667-1.374zm1.04-2.84l2.919.691a2.998 2.998 0 00-2.919-3.691v3zm-3.84 0l-.249 2.99c.083.006.166.01.249.01v-3zm-.92-.08l.272-2.988a3.001 3.001 0 00-2.393 5.11l2.121-2.122zm.12.12l-2.121 2.121c.067.068.137.131.21.192l1.911-2.313zm1.8 1.48l-1.9 2.322c.038.031.077.061.117.09l1.783-2.412zm21.059 8.402a44.508 44.508 0 01-8.808-1.161l-1.382 5.838a50.479 50.479 0 009.992 1.32l.198-5.997zm-8.832-1.167a33.428 33.428 0 01-8.005-2.938l-2.764 5.326a39.425 39.425 0 009.435 3.462l1.334-5.85zm-11.261-2.618c-1.022.818-2.38 1.566-4.142 2.2l2.032 5.646c2.238-.806 4.213-1.844 5.858-3.16l-3.748-4.686zm-4.188 2.217c-1.707.646-3.834 1.162-6.422 1.513l.808 5.946c2.906-.395 5.498-1 7.738-1.847l-2.124-5.612zm-6.414 1.512c-.199.027-.308.02-.347.015-.033-.004.006-.003.085.036l-2.684 5.366c1.231.615 2.549.69 3.738.53l-.792-5.947zm-.262.05c.163.082.318.212.43.367.103.143.119.236.111.202l-5.846 1.35c.318 1.378 1.131 2.703 2.621 3.448l2.684-5.366zm.541.57c-.001-.006.027.115-.014.315a1.209 1.209 0 01-.244.52l-4.61-3.842c-1.089 1.308-1.316 2.893-.978 4.356l5.846-1.35zm-.268.846a.681.681 0 01-.186.153c-.032.015.005-.01.155-.03l-.768-5.95c-1.371.177-2.764.744-3.791 1.963l4.59 3.864zm-.043.125c2.026-.253 3.856-.598 5.471-1.046l-1.606-5.782c-1.265.352-2.795.647-4.609.874l.744 5.954zm5.457-1.043c1.661-.453 3.175-1.051 4.495-1.83l-3.048-5.168c-.76.448-1.753.863-3.025 1.21l1.578 5.788zm4.754-6.826l-.23-.17-.23-.17-.23-.17-.23-.17a183.493 183.493 0 00-.92-.68l-3.566 4.825.92.68.057.042.058.042.057.043.058.043.057.042.058.043.057.042.058.043.057.042.058.043.057.042.058.042.057.043.058.042.057.043.058.042 3.566-4.824zm-1.723-1.27a82.036 82.036 0 01-1.699-1.428l-3.922 4.54a93.398 93.398 0 001.821 1.532l3.8-4.644zm-1.604-1.343c.018.017.067.07.111.161a.627.627 0 01.062.204l-5.978.52a5.353 5.353 0 001.693 3.485l4.112-4.37zm.181.5a.899.899 0 01-.072.36.982.982 0 01-.229.35l-4.112-4.37c-1.108 1.043-1.643 2.429-1.581 3.91l5.994-.25zm-.236.646a1.758 1.758 0 01-.459.322l-2.684-5.366c-.459.23-.822.525-1.099.802l4.242 4.242zm-.258.212c.087-.052.138-.08.159-.09l-2.684-5.366a8.319 8.319 0 00-.561.31l3.086 5.146zm-.42-5.674c-.97-.256-1.252-.602-1.362-.794l-5.202 2.99c1.117 1.942 2.968 3.062 5.038 3.606l1.526-5.802zm-1.362-.794c-.237-.411-.521-1.336-.521-3.105h-6c0 2.23.329 4.373 1.319 6.095l5.202-2.99zm-.521-3.105v-1.4h-6v1.4h6zm0-1.4c0-1.625.233-2.547.457-3.006l-5.394-2.628c-.79 1.621-1.063 3.579-1.063 5.634h6zm.47-3.033c.126-.265.324-.502.876-.693l-1.972-5.667c-1.901.661-3.436 1.918-4.324 3.786l5.42 2.574zm.91-.706c.79-.285 2.091-.501 4.06-.501v-6c-2.298 0-4.383.238-6.1.859l2.04 5.642zm4.06-.501h3.28v-6h-3.28v6zm6.28-3V8.8h-6v2.44h6zm-3-5.44h-13.84v6h13.84v-6zm-13.84 0c.053 0 .171.01.317.07.149.06.258.143.324.209l-4.242 4.242c.985.986 2.252 1.479 3.601 1.479v-6zm.641.279a.953.953 0 01.198.307.996.996 0 01.081.374h-6c0 1.365.522 2.605 1.479 3.561l4.242-4.242zm.279.681c0 .054-.01.17-.07.317a.99.99 0 01-.209.324l-4.242-4.242c-.986.985-1.479 2.252-1.479 3.601h6zm-.279.641a.988.988 0 01-.324.21.881.881 0 01-.317.069v-6c-1.349 0-2.616.493-3.601 1.479l4.242 4.242zm-.641.279h32.08v-6h-32.08v6zm32.08 0a.881.881 0 01-.317-.07.988.988 0 01-.324-.209l4.242-4.242c-.985-.986-2.252-1.479-3.601-1.479v6zm-.641-.279a.99.99 0 01-.209-.324.867.867 0 01-.07-.317h6c0-1.35-.493-2.616-1.479-3.601L157.399 7.4zm-.279-.641c0-.085.017-.22.081-.374a.954.954 0 01.198-.307l4.242 4.242a4.959 4.959 0 001.479-3.561h-6zm.279-.681a.988.988 0 01.324-.21.881.881 0 01.317-.069v6c1.349 0 2.616-.493 3.601-1.479l-4.242-4.242zm.641-.279h-13.6v6h13.6v-6zm-16.6 3v2.44h6V8.8h-6zm3 5.44h3.2v-6h-3.2v6zm3.2 0c2.011 0 3.273.22 3.98.486l2.12-5.612c-1.693-.64-3.791-.874-6.1-.874v6zm4.054.514c.552.191.75.428.876.693l5.42-2.574c-.888-1.868-2.423-3.125-4.324-3.786l-1.972 5.667zm.889.72c.224.459.457 1.381.457 3.006h6c0-2.055-.273-4.013-1.063-5.634l-5.394 2.628zm.457 3.006v1.4h6v-1.4h-6zm0 1.4c0 1.618-.231 2.57-.47 3.073l5.42 2.574c.775-1.63 1.05-3.585 1.05-5.647h-6zm-.457 3.046c-.123.253-.339.517-.943.74l2.08 5.628c1.849-.683 3.367-1.913 4.257-3.74l-5.394-2.628zm-.908.727c-.729.26-2.014.467-4.035.467v6c2.299 0 4.374-.22 6.045-.813l-2.01-5.654zm-4.035.467h-3.6v6h3.6v-6zm-6.546 2.435c-.321 1.67-.832 3.07-1.499 4.237l5.21 2.976c1.04-1.82 1.755-3.86 2.181-6.083l-5.892-1.13zm-.223 8.415a33.152 33.152 0 007.957 2.727l1.224-5.874a27.148 27.148 0 01-6.523-2.233l-2.658 5.38zm7.987 2.733c2.756.545 5.783.853 9.066.936l.152-5.998c-3.01-.077-5.69-.356-8.054-.824l-1.164 5.886zm9.035.935c.121.004.123.02.051-.006a1.003 1.003 0 01-.345-.23l4.242-4.243c-1.09-1.09-2.479-1.472-3.734-1.517l-.214 5.996zm-.294-.237a1.286 1.286 0 01-.326-.531c-.038-.127-.018-.158-.026-.036l5.986.412c.09-1.303-.175-2.87-1.392-4.087l-4.242 4.242zm-.351-.575c-.003.04-.001-.098.119-.31.133-.236.335-.428.547-.545l2.892 5.258c1.637-.9 2.32-2.48 2.426-3.975l-5.984-.428zm.51-.763c.059-.037.093-.042.072-.037a1.184 1.184 0 01-.287.016l-.206 5.996c1.201.042 2.479-.178 3.625-.901l-3.204-5.074zM132.96 20.48h6.84v-6h-6.84v6zm9.84-3v-2.36h-6v2.36h6zm-3-5.36h-3.28v6h3.28v-6zm-3.28 0c-1.347 0-2.949.143-4.223.908l3.086 5.144c-.153.093-.182.064.056.021.22-.04.57-.073 1.081-.073v-6zm-4.183.884c-1.79 1.036-2.258 2.926-2.367 4.227l5.98.498c.021-.254.058-.275.007-.167a1.523 1.523 0 01-.614.634l-3.006-5.192zm4.183 13.236h3.24v-6h-3.24v6zm6.24-3v-.56h-6v.56h6zm-.03-.136c.046-.325.07-.654.07-.984h-6a.926.926 0 01-.01.136l5.94.848zm.07-.984v-1.24h-6v1.24h6zm-3-4.24h-6.84v6h6.84v-6zm-9.83 3.25c.111 1.324.581 3.14 2.268 4.207l3.204-5.073c.149.094.271.205.363.315.089.108.139.2.162.251.041.089.004.053-.017-.2l-5.98.5zm2.424 4.299c1.242.682 2.796.811 4.126.811v-6c-.521 0-.886-.031-1.124-.07-.258-.043-.25-.076-.11.001l-2.892 5.258zm12.006.811h3.24v-6h-3.24v6zm3.24 0c1.306 0 2.895-.12 4.143-.844l-3.006-5.192c.178-.103.221-.075-.03-.033a7.014 7.014 0 01-1.107.069v6zm4.183-.867c1.739-1.044 2.252-2.866 2.367-4.244l-5.98-.498c-.019.238-.055.256-.005.153.028-.059.081-.153.175-.26.095-.108.215-.212.357-.297l3.086 5.145zm-.623-7.493h-6.76v6h6.76v-6zm-9.76 3v1.24h6v-1.24h-6zm0 1.24v.56h6v-.56h-6zm0 .56a.926.926 0 01-.01.136l5.94.848c.046-.326.07-.654.07-.984h-6zm3-2.2h6.76v-6h-6.76v6zm9.75-3.25c-.113-1.356-.626-3.248-2.464-4.259l-2.892 5.258a1.612 1.612 0 01-.412-.324 1.292 1.292 0 01-.207-.296c-.06-.123-.025-.12-.005.12l5.98-.498zm-2.308-4.167c-1.281-.809-2.919-.943-4.242-.943v6c.512 0 .855.034 1.063.072.231.041.166.065-.025-.055l3.204-5.074zm-4.242-.943h-3.2v6h3.2v-6zm-6.2 3v2.36h6v-2.36h-6zm-.493 16.214c.57-1.107.999-2.285 1.292-3.523l-5.838-1.382a9.451 9.451 0 01-.788 2.157l5.334 2.748zm-1.627-7.214h-2.8v6h2.8v-6zm-2.8 0h-1.04v6h1.04v-6zm-.791.01c-.313-.026-.612-.052-.897-.078l-.544 5.976.943.082.498-5.98zm-3.29 5.031l.12.12 4.242-4.242-.12-.12-4.242 4.242zm.33.312c.617.51 1.221 1.006 1.811 1.489l3.8-4.644a482.28 482.28 0 01-1.789-1.47l-3.822 4.625zm1.928 1.58a302.8 302.8 0 001.818 1.333l3.53-4.852c-.581-.422-1.174-.857-1.782-1.306l-3.566 4.824zM171.92 40l2.056-2.185-.004-.004L171.92 40zm-.64-9.44h3a3 3 0 00-5.455-1.725l2.455 1.725zm-2.2 2.92l-2.336-1.882 2.336 1.882zM167 35.84l-2.121-2.121L167 35.84zm-1.52.76l-.405-2.973.405 2.973zm-1.56-.52l2.056-2.185-.009-.008-2.047 2.193zm-.64-1.32l-2.996.15v.008l2.996-.158zm.52-1.32l2.041 2.198.033-.03-2.074-2.168zm2.04-2.16l-2.223-2.015-.035.04 2.258 1.975zm2.2-2.6l-2.349-1.866-.007.01 2.356 1.856zm1.8-2.36l2.435 1.753a3.002 3.002 0 00-2.435-4.753v3zm-5-3.32l2.121 2.121a1.79 1.79 0 00.072-.074L164.84 23zm6.44-.6v3a3 3 0 003-3h-3zm0-2.72h3a3 3 0 00-3-3v3zm-7.24-.52l-2.278 1.952c.05.059.102.115.157.17l2.121-2.122zm0-2.64l-2.198-2.041-.006.006 2.204 2.035zm4.36-.56v3a3 3 0 002.774-4.142L168.4 15.96zm-.56-1.36l-2.846.949c.022.065.046.13.072.193l2.774-1.142zm-.36-1.08l2.846-.949-.014-.042-2.832.991zm.04-1.44l2.683 1.342.031-.065-2.714-1.277zm1.08-.88l.763 2.901c.063-.016.125-.035.186-.055L168.6 11.2zm.12-.04l.949 2.846a3 3 0 00-.949-5.846v3zm-3.8-.52l-2.278 1.952c.05.059.102.115.157.17l2.121-2.122zm0-2.6l-2.198-2.041-.006.006 2.204 2.035zm6.24-.56v3a3 3 0 003-3h-3zm.64-3.88l-1.985-2.25-.067.061L171.8 3.6zm3.36 0l-2.052 2.189.067.06L175.16 3.6zm.68 3.88h-3a3 3 0 003 3v-3zm6.16.56l-2.278 1.952.074.083L182 8.04zm0 2.6l2.204 2.035a3.04 3.04 0 00.074-.083L182 10.64zm-3.6.52v-3a3 3 0 00-.862 5.873l.862-2.873zm1.08.92l-2.774 1.142c.028.068.058.134.091.2l2.683-1.342zm.04 1.44l2.785 1.114c.017-.04.032-.082.047-.123l-2.832-.991zm-.44 1.08l-2.774-1.142c-.02.047-.038.095-.055.143l2.829.999zm-.56 1.36l-2.714-1.277a2.999 2.999 0 002.714 4.277v-3zm4.08.56l-2.278 1.952.074.083 2.204-2.035zm0 2.64l2.204 2.035a3.04 3.04 0 00.074-.083L182.6 19.16zm-6.88.52v-3a3 3 0 00-3 3h3zm0 2.72h-3a3 3 0 003 3v-3zm5.96.6l-2.267 1.965c.047.054.095.106.146.156L181.68 23zm0 2.76l-2.121-2.121a3.053 3.053 0 00-.077.08l2.198 2.041zm-5.52.56v-3a3 3 0 00-2.198 5.041l2.198-2.041zm1.36 1.36l-2.069 2.172.051.048 2.018-2.22zm1.76 1.56l-1.961 2.27c.037.032.074.063.112.092l1.849-2.362zm1.48 1.12l1.892-2.328a3.141 3.141 0 00-.148-.113l-1.744 2.441zm.68 1.36l-2.997.143c.003.047.006.094.011.141l2.986-.284zm-.48 1.44l2.189 2.052.004-.005-2.193-2.047zm-1.4.68v3c.05 0 .1-.001.15-.004l-.15-2.996zm-1.44-.56l-2.076 2.166.1.092 1.976-2.258zm-2.4-2.4l2.15-2.092a3 3 0 00-5.15 2.092h3zm-.64 9.12l-2.052-2.189-.069.068L175.08 40zm17.24-.12l-2.056 2.185 2.056-2.185zm-.68-19.6h3a3 3 0 00-3-3v3zm-3.32 0v-3a3 3 0 00-3 2.98l3 .02zM187.04 31l2.888.814.001-.007L187.04 31zm-3.92 7.96l2.343 1.874.054-.07-2.397-1.804zm-1.68.96l-.456-2.965a3.042 3.042 0 00-.132.023l.588 2.942zm-1.84-.36l-1.756 2.432.092.064 1.664-2.496zm-.88-1.44l-2.972.405c.004.037.01.073.016.109l2.956-.514zm.44-1.52l2.258 1.975.039-.045-2.297-1.93zm2.68-4.44L179.073 31l-.009.022 2.776 1.138zm1.48-5.64l2.971.414.001-.005-2.972-.409zm.96-17.08l-2.774-1.142a.734.734 0 00-.017.042l2.791 1.1zm1.76-2.08l1.543 2.572a.494.494 0 00.025-.014L186.04 7.36zm3.24-1.2l-.603-2.939a3.14 3.14 0 00-.042.01l.645 2.929zm3.56-.88l.809 2.889.037-.01-.846-2.879zm3.64-1.08l.862 2.873.087-.027-.949-2.846zm1.92.04l-1.29 2.709.108.048L198.4 4.24zm1.12 1.16l2.846-.949-.014-.042-2.832.991zm0 1.84l2.803 1.068a.72.72 0 00.016-.043L199.52 7.24zm-1.28 1.12l.744 2.906.096-.026-.84-2.88zm-3.52.88l.712 2.914-.712-2.914zm-3.56.84l-.665-2.925-.046.01.711 2.915zm-2.24 1.04l2.189 2.052-2.189-2.052zm-.6 4.8h-3a3 3 0 003 3v-3zm11.76.64l-2.258 1.976.069.076 2.189-2.052zm0 3.08l-2.189-2.052-.069.076 2.258 1.976zm-3.84.64v-3a3 3 0 00-3 3h3zm-23.8-4.32l-2.867.882a3 3 0 002.867 2.118v-3zm2 0v3c1.227 0 2.33-.747 2.785-1.886l-2.785-1.114zm.76-1.92l2.792 1.097-2.792-1.097zm.72-1.84l2.796 1.087.019-.05-2.815-1.037zm.96-1.04l1.142 2.774a3 3 0 00-1.142-5.774v3zm-6.88 0v-3a3 3 0 00-1.053 5.809L170 11.16zm.6.4l-2.121 2.121c.1.1.207.194.321.279l1.8-2.4zm.48.68l-2.819 1.025c.039.108.084.214.136.317l2.683-1.342zm.4 1.04l-2.846.949a.975.975 0 00.017.05l2.829-.999zm.52 1.44l-2.815 1.037.019.05L172 14.72zm1.52 22.92c.049 0 .143.01.254.055a.66.66 0 01.202.12l-4.112 4.37a5.255 5.255 0 003.656 1.455v-6zm.452.171c.101.095.194.226.253.375.056.14.055.226.055.214h-6c0 1.368.469 2.74 1.588 3.789l4.104-4.378zm.308.589v-7.84h-6v7.84h6zm-5.455-9.565a52.334 52.334 0 01-2.081 2.763l4.672 3.764a58.62 58.62 0 002.319-3.077l-4.91-3.45zm-2.081 2.763c-.732.908-1.352 1.607-1.865 2.12l4.242 4.243c.714-.713 1.48-1.587 2.295-2.599l-4.672-3.764zm-1.865 2.12a.405.405 0 01.196-.091l.81 5.945a5.59 5.59 0 003.236-1.61l-4.242-4.243zm.196-.09a1.19 1.19 0 01.524.056c.205.068.33.167.377.211l-4.112 4.37c1.074 1.01 2.485 1.517 4.021 1.307l-.81-5.945zm.892.259a.94.94 0 01.192.274c.075.154.11.31.117.441l-5.992.316c.071 1.346.67 2.497 1.589 3.355l4.094-4.386zm.309.723a1.28 1.28 0 01-.095.52c-.09.229-.223.4-.34.508l-4.082-4.396c-1.058.982-1.544 2.298-1.475 3.668l5.992-.3zm-.402.998a37.097 37.097 0 002.224-2.352l-4.516-3.951a30.991 30.991 0 01-1.856 1.967l4.148 4.336zm2.189-2.313a52.487 52.487 0 002.333-2.758l-4.712-3.714a46.808 46.808 0 01-2.067 2.442l4.446 4.03zm2.326-2.75a67.827 67.827 0 001.886-2.472l-4.87-3.506a60.936 60.936 0 01-1.714 2.247l4.698 3.732zm-.549-7.225h-3.56v6h3.56v-6zm-3.56 0a.84.84 0 01.287.064c.158.061.294.155.394.255l-4.242 4.242c1.001 1.001 2.276 1.439 3.561 1.439v-6zm.681.319a1.133 1.133 0 01.319.721h-6c0 1.302.466 2.549 1.439 3.521l4.242-4.242zm.319.721c0 .09-.017.236-.086.402a1.111 1.111 0 01-.233.36l-4.242-4.243a4.847 4.847 0 00-1.439 3.481h6zm-.247.687c-.089.095-.225.2-.399.272a.964.964 0 01-.354.081v-6c-1.351 0-2.648.498-3.633 1.553l4.386 4.094zm-.753.353h5v-6h-5v6zm8-3v-2.72h-6v2.72h6zm-3-5.72h-5.84v6h5.84v-6zm-5.84 0c.001 0 .1 0 .255.058.164.06.33.164.466.3l-4.242 4.243c1.017 1.018 2.306 1.399 3.521 1.399v-6zm.878.528c.063.073.132.18.181.317a.949.949 0 01.061.315h-6c0 1.199.401 2.337 1.202 3.272l4.556-3.904zm.242.632a.908.908 0 01-.061.295 1.258 1.258 0 01-.255.42l-4.408-4.07c-.9.974-1.276 2.173-1.276 3.355h6zm-.322.721c-.124.134-.289.25-.474.324a.93.93 0 01-.324.075v-6c-1.282 0-2.596.44-3.598 1.519l4.396 4.082zm-.798.399h2.96v-6h-2.96v6zm5.734-4.142l-.56-1.36-5.548 2.284.56 1.36 5.548-2.284zm-.488-1.167l-.36-1.08-5.692 1.898.36 1.08 5.692-1.898zm-.374-1.122a.94.94 0 01.037.314 1.399 1.399 0 01-.146.579l-5.366-2.684c-.643 1.285-.59 2.627-.189 3.773l5.664-1.982zm-.078.828a1.43 1.43 0 01-.389.489 1.311 1.311 0 01-.482.255L167.837 8.3c-1.321.347-2.421 1.206-3.031 2.504l5.428 2.554zm-.685.69l.12-.04-1.898-5.693-.12.04 1.898 5.692zm-.829-5.887h-2.44v6h2.44v-6zm-2.44 0c.031 0 .148.005.311.068.172.065.329.169.45.29l-4.242 4.243c.99.991 2.248 1.399 3.481 1.399v-6zm.918.528c.063.073.132.18.181.317a.949.949 0 01.061.315h-6c0 1.199.401 2.338 1.202 3.272l4.556-3.904zm.242.632c0 .066-.011.194-.071.353a1.24 1.24 0 01-.245.402l-4.408-4.07c-.872.944-1.276 2.115-1.276 3.315h6zm-.322.761a1.303 1.303 0 01-.456.313 1.04 1.04 0 01-.382.086v-6c-1.302 0-2.584.47-3.558 1.519l4.396 4.082zm-.838.399h4.88v-6h-4.88v6zm7.88-3V5.12h-6v2.36h6zm0-2.36a1.037 1.037 0 01-.308.669l-4.104-4.378c-1.064.998-1.588 2.312-1.588 3.709h6zm-.375.73a.682.682 0 01-.216.125c-.081.029-.12.025-.089.025V0c-1.317 0-2.606.416-3.665 1.35l3.97 4.5zm-.305.15c.059 0 .024.008-.069-.025a.896.896 0 01-.303-.186l4.104-4.378C176.128.396 174.785 0 173.48 0v6zm-.305-.15a1.01 1.01 0 01-.243-.345.974.974 0 01-.092-.385h6a4.94 4.94 0 00-1.695-3.77l-3.97 4.5zm-.335-.73v2.36h6V5.12h-6zm3 5.36h4.8v-6h-4.8v6zm4.8 0c-.023 0-.163-.004-.362-.086a1.493 1.493 0 01-.556-.402l4.556-3.904c-1.001-1.168-2.362-1.608-3.638-1.608v6zm-.844-.405a1.234 1.234 0 01-.245-.402 1.027 1.027 0 01-.071-.353h6c0-1.2-.404-2.37-1.276-3.315l-4.408 4.07zm-.316-.755c0-.068.012-.18.061-.315.049-.136.118-.244.181-.317l4.556 3.904a4.964 4.964 0 001.202-3.272h-6zm.316-.715c.162-.176.36-.304.553-.377.089-.034.162-.051.213-.06.05-.008.078-.008.078-.008v6c1.205 0 2.544-.38 3.564-1.485l-4.408-4.07zm.844-.445h-2.24v6h2.24v-6zm-3.102 5.873a1.193 1.193 0 01-.413-.24 1.52 1.52 0 01-.419-.57l5.548-2.285c-.58-1.41-1.726-2.272-2.992-2.651l-1.724 5.746zm-.741-.611a1.399 1.399 0 01-.146-.579.949.949 0 01.037-.314l5.664 1.982c.401-1.146.454-2.488-.189-3.773l-5.366 2.684zm-.062-1.016c-.102.253-.244.602-.429 1.052l5.548 2.284c.188-.457.339-.828.451-1.108l-5.57-2.228zm-.484 1.195a11.66 11.66 0 01-.445 1.082l5.428 2.554c.255-.54.48-1.086.675-1.638l-5.658-1.998zm2.269 5.359h2.72v-6h-2.72v6zm2.72 0c-.023 0-.163-.004-.362-.086a1.494 1.494 0 01-.556-.402l4.556-3.904c-1.001-1.168-2.362-1.608-3.638-1.608v6zm-.844-.405a1.258 1.258 0 01-.255-.42.908.908 0 01-.061-.295h6c0-1.182-.376-2.38-1.276-3.355l-4.408 4.07zm-.316-.715c0-.067.012-.18.061-.315.049-.136.118-.244.181-.317l4.556 3.904a4.964 4.964 0 001.202-3.272h-6zm.316-.715c.162-.176.36-.304.553-.377.089-.034.162-.051.213-.06.05-.008.078-.008.078-.008v6c1.205 0 2.544-.38 3.564-1.485l-4.408-4.07zm.844-.445h-5.52v6h5.52v-6zm-8.52 3v2.72h6v-2.72h-6zm3 5.72h4.52v-6h-4.52v6zm4.52 0a.937.937 0 01-.334-.08 1.35 1.35 0 01-.493-.355l4.534-3.93c-1.009-1.165-2.377-1.635-3.707-1.635v6zm-.681-.279a1.11 1.11 0 01-.233-.359 1.075 1.075 0 01-.086-.402h6c0-1.32-.496-2.539-1.439-3.481l-4.242 4.242zm-.319-.761a1.133 1.133 0 01.319-.721l4.242 4.242c.973-.972 1.439-2.219 1.439-3.521h-6zm.242-.641c.138-.15.313-.266.491-.335.166-.065.271-.064.267-.064v6c1.264 0 2.61-.411 3.638-1.519l-4.396-4.082zm.758-.399h-4.08v6h4.08v-6zm-6.278 5.041c.404.435.905.935 1.489 1.491l4.138-4.344c-.536-.51-.941-.918-1.231-1.23l-4.396 4.083zm1.54 1.539a96.25 96.25 0 001.817 1.61l3.922-4.54a88.321 88.321 0 01-1.703-1.51l-4.036 4.44zm1.929 1.703c.628.49 1.16.895 1.585 1.198l3.488-4.882c-.322-.23-.776-.573-1.375-1.041l-3.698 4.724zm1.437 1.085a1.19 1.19 0 01-.301-.386 1.135 1.135 0 01-.124-.44l5.994-.285a4.785 4.785 0 00-1.785-3.545l-3.784 4.656zm-.414-.684a1.13 1.13 0 01.06-.453c.067-.2.17-.349.253-.438l4.386 4.094a4.765 4.765 0 001.273-3.771l-5.972.568zm.317-.896a.813.813 0 01.228-.157 1.09 1.09 0 01.411-.107l.3 5.992c1.387-.07 2.562-.69 3.439-1.624l-4.378-4.104zm.789-.268a.921.921 0 01.536.182l-3.952 4.516c.937.819 2.108 1.302 3.416 1.302v-6zm.636.274a98.84 98.84 0 01-2.326-2.326l-4.3 4.184c.972 1 1.799 1.827 2.474 2.474l4.152-4.332zm-7.476-.234v7.52h6v-7.52h-6zm0 7.52c0 .012-.001-.074.055-.214a1.06 1.06 0 01.253-.375l4.104 4.378c1.119-1.05 1.588-2.42 1.588-3.789h-6zm.239-.521a.837.837 0 01.272-.174.8.8 0 01.289-.065v6a5.12 5.12 0 003.681-1.519l-4.242-4.242zm20.961-.359c.049 0 .143.01.254.055a.66.66 0 01.202.12l-4.112 4.37a5.255 5.255 0 003.656 1.455v-6zm.456.175a.92.92 0 01.215.32c.051.126.049.202.049.185h-6c0 1.416.496 2.803 1.624 3.865l4.112-4.37zm.264.505V20.28h-6V38.2h6zm-3-20.92h-3.32v6h3.32v-6zm-6.32 2.98c-.025 4.01-.435 7.303-1.169 9.933l5.778 1.614c.919-3.29 1.363-7.144 1.391-11.508l-6-.038zm-1.168 9.926c-.728 2.585-1.871 4.901-3.429 6.97l4.794 3.608c2.016-2.678 3.486-5.669 4.411-8.95l-5.776-1.628zm-3.375 6.9a.432.432 0 01.115-.09c.066-.038.107-.044.092-.041l.912 5.93a5.576 5.576 0 003.567-2.05l-4.686-3.75zm.075-.108a.573.573 0 01.204.008.608.608 0 01.208.078l-3.328 4.992a5.357 5.357 0 004.092.806l-1.176-5.884zm.504.15a.867.867 0 01.32.478l-5.912 1.028c.234 1.34.93 2.527 2.08 3.358l3.512-4.864zm.336.587a1.187 1.187 0 01-.274.86l-4.516-3.95c-.973 1.111-1.346 2.498-1.154 3.9l5.944-.81zm-.235.815a19.697 19.697 0 003.159-5.232l-5.552-2.276a13.721 13.721 0 01-2.201 3.648l4.594 3.86zm3.15-5.21c.81-1.932 1.362-4.07 1.684-6.386l-5.942-.828c-.264 1.896-.699 3.519-1.276 4.894l5.534 2.32zm1.685-6.391c.316-2.3.468-4.88.468-7.729h-6c0 2.645-.142 4.944-.412 6.911l5.944.818zm.468-7.729V13h-6v6.2h6zm0-6.2c0-1.31.159-2.074.311-2.46l-5.582-2.2c-.541 1.374-.729 2.983-.729 4.66h6zm.294-2.418c.141-.342.312-.52.529-.65l-3.086-5.144c-1.383.83-2.385 2.039-2.991 3.51l5.548 2.284zm.554-.664c.451-.277 1.187-.58 2.317-.828l-1.29-5.86c-1.537.338-2.961.836-4.163 1.572l3.136 5.116zm2.275-.82a55.546 55.546 0 003.766-.93l-1.618-5.777c-1.284.36-2.4.635-3.354.83l1.206 5.878zm3.803-.94c1.364-.401 2.583-.763 3.656-1.085l-1.724-5.746c-1.06.318-2.268.676-3.625 1.075l1.693 5.756zm3.743-1.112c.093-.031.089-.015.009-.017a.86.86 0 01-.328-.08l2.58-5.418c-1.41-.671-2.877-.604-4.159-.177l1.898 5.692zm-.211-.049a.909.909 0 01-.276-.203 1.142 1.142 0 01-.254-.403l5.664-1.982c-.488-1.395-1.505-2.384-2.77-2.926l-2.364 5.514zm-.544-.648c.015.044.006.037.006-.009a.441.441 0 01.021-.125l5.638 2.05c.464-1.275.436-2.587.027-3.814l-5.692 1.898zm.043-.177a1.27 1.27 0 01.347-.49.976.976 0 01.336-.202l1.68 5.76c1.426-.416 2.655-1.386 3.243-2.932l-5.606-2.136zm.78-.718a386.5 386.5 0 01-3.489.872l1.424 5.828a346.34 346.34 0 003.552-.888l-1.487-5.812zm-3.489.872c-1.185.29-2.356.566-3.513.829l1.33 5.85c1.189-.27 2.392-.554 3.607-.85l-1.424-5.83zm-3.559.84c-1.22.297-2.694.81-3.718 1.902l4.378 4.104c-.147.156-.222.162-.066.089a4.67 4.67 0 01.828-.266l-1.422-5.83zm-3.718 1.902c-1.218 1.3-1.411 3.066-1.411 4.332h6c0-.184.008-.327.02-.436.012-.109.026-.17.031-.19.015-.057-.025.144-.262.398l-4.378-4.104zM185.32 13.4v2.52h6V13.4h-6zm3 5.52h10.2v-6h-10.2v6zm10.2 0c.014 0-.087.002-.249-.065a1.236 1.236 0 01-.449-.32l4.516-3.95c-1.045-1.195-2.454-1.665-3.818-1.665v6zm-.629-.308a.843.843 0 01-.211-.492h6c0-1.335-.463-2.6-1.411-3.612l-4.378 4.104zm-.211-.492c0-.055.011-.158.06-.282a.802.802 0 01.151-.25l4.378 4.104a5.145 5.145 0 001.411-3.572h-6zm.142-.456c.117-.133.276-.248.449-.32.162-.066.263-.064.249-.064v6c1.364 0 2.773-.47 3.818-1.665l-4.516-3.95zm.698-.384h-2.28v6h2.28v-6zm-5.28 3V38.2h6V20.28h-6zm0 17.92c0 .017-.002-.06.049-.186a.92.92 0 01.215-.319l4.112 4.37c1.128-1.061 1.624-2.448 1.624-3.865h-6zm.264-.505a.686.686 0 01.215-.13.605.605 0 01.201-.045v6c1.38 0 2.669-.489 3.696-1.455l-4.112-4.37zM172.44 18.96h2v-6h-2v6zm4.785-1.886c.217-.54.472-1.187.767-1.937l-5.584-2.194c-.292.743-.543 1.377-.753 1.903l5.57 2.228zm.767-1.937c.294-.748.536-1.365.724-1.85l-5.592-2.174a867.86 867.86 0 01-.716 1.83l5.584 2.194zm.743-1.9a1.12 1.12 0 01-.231.358c-.147.16-.321.273-.482.339l-2.284-5.548c-1.313.54-2.189 1.572-2.633 2.777l5.63 2.074zM176.88 8.16H170v6h6.88v-6zm-7.933 5.809c-.247-.092-.4-.22-.468-.288l4.242-4.242a4.681 4.681 0 00-1.668-1.088l-2.106 5.618zm-.147-.009a1.57 1.57 0 01-.539-.695l5.638-2.05A4.432 4.432 0 00172.4 9.16l-3.6 4.8zm-.403-.378c-.007-.014.014.028.063.155.046.119.104.28.174.492l5.692-1.898c-.167-.5-.355-1.017-.563-1.433l-5.366 2.684zm.254.696c.165.468.343.961.534 1.48l5.63-2.075c-.182-.495-.351-.963-.506-1.402l-5.658 1.997zm.553 1.53c.17.437.29.779.369 1.034l5.734-1.764a21.129 21.129 0 00-.511-1.445l-5.592 2.174z" fill="#EB537B" mask="url(#b)"/><defs><linearGradient id="paint0_linear_10944_61076" x1="2" y1="0" x2="197.714" y2="55.197" gradientUnits="userSpaceOnUse"><stop stop-color="#FFF9EC"/><stop offset=".507" stop-color="#FFE9B8"/><stop offset="1" stop-color="#FFF9EA"/></linearGradient></defs></svg>