<svg width="200" height="49" fill="none" xmlns="http://www.w3.org/2000/svg"><mask id="a" fill="#fff"><path d="M0 .5h200v48H0V.5z"/></mask><path d="M200 36.5H0v24h200v-24z" fill="#83E1E1" mask="url(#a)"/><mask id="b" maskUnits="userSpaceOnUse" x="7" y="1.5" width="189" height="43" fill="#000"><path fill="#fff" d="M7 1.5h189v43H7z"/><path d="M20 38.06c-2.187 0-4.013-.48-5.48-1.44-1.467-.96-2.573-2.507-3.32-4.64-.72-2.133-1.08-4.96-1.08-8.48 0-3.573.36-6.427 1.08-8.56.747-2.133 1.853-3.68 3.32-4.64 1.467-.96 3.293-1.44 5.48-1.44 2.187 0 4.013.48 5.48 1.44 1.467.96 2.56 2.507 3.28 4.64.747 2.133 1.12 4.987 1.12 8.56 0 3.52-.373 6.347-1.12 8.48-.72 2.133-1.813 3.68-3.28 4.64-1.467.96-3.293 1.44-5.48 1.44zm0-4.24c1.173 0 2.133-.267 2.88-.8.773-.56 1.347-1.587 1.72-3.08.4-1.493.6-3.64.6-6.44 0-2.853-.2-5.027-.6-6.52-.373-1.493-.947-2.507-1.72-3.04-.747-.56-1.707-.84-2.88-.84-1.173 0-2.147.28-2.92.84-.773.533-1.36 1.547-1.76 3.04-.373 1.493-.56 3.667-.56 6.52 0 2.8.187 4.947.56 6.44.4 1.493.987 2.52 1.76 3.08.773.533 1.747.8 2.92.8zm26.44 6.96c-.693 0-1.267-.24-1.72-.72-.453-.453-.68-1.053-.68-1.8V15.5c0-2.107.173-3.827.52-5.16.347-1.333.933-2.36 1.76-3.08.853-.747 2-1.253 3.44-1.52 1.467-.293 3.32-.44 5.56-.44h9.32c2.24 0 4.08.147 5.52.44 1.467.267 2.613.773 3.44 1.52.853.72 1.453 1.747 1.8 3.08s.52 3.053.52 5.16v17.24c0 2.027-.253 3.613-.76 4.76-.48 1.12-1.253 1.907-2.32 2.36-1.067.48-2.467.76-4.2.84-.827.027-1.52-.16-2.08-.56-.533-.373-.84-.947-.92-1.72-.053-.773.133-1.413.56-1.92.453-.533 1.053-.813 1.8-.84.88-.053 1.547-.173 2-.36.453-.187.76-.533.92-1.04.16-.507.24-1.213.24-2.12V24.5H48.8v13.76c0 .747-.227 1.347-.68 1.8-.427.48-.987.72-1.68.72zM62.32 20.1h8.84v-4.6c0-1.68-.173-2.92-.52-3.72-.32-.827-.947-1.36-1.88-1.6-.933-.267-2.32-.4-4.16-.4h-2.28V20.1zm-13.52 0h8.8V9.78h-2.24c-1.813 0-3.2.133-4.16.4-.933.24-1.573.773-1.92 1.6-.32.8-.48 2.04-.48 3.72v4.6zm55.48 17.28a2.444 2.444 0 01-1.88-.28c-.587-.347-.96-.84-1.12-1.48-.16-.64-.067-1.24.28-1.8.347-.587.84-.96 1.48-1.12 2.96-.773 5.133-2.027 6.52-3.76 1.413-1.733 2.12-3.933 2.12-6.6 0-1.68-.373-3.187-1.12-4.52-.747-1.333-1.813-2.413-3.2-3.24-1.36-.827-3-1.333-4.92-1.52-.48 4.48-1.293 8.36-2.44 11.64-1.12 3.253-2.453 5.773-4 7.56-1.52 1.76-3.12 2.64-4.8 2.64a6.588 6.588 0 01-3.88-1.24c-1.173-.827-2.107-2.013-2.8-3.56-.667-1.547-1-3.4-1-5.56 0-2.213.413-4.28 1.24-6.2a15.643 15.643 0 013.6-5.12c1.547-1.467 3.36-2.613 5.44-3.44 2.107-.827 4.413-1.24 6.92-1.24 3.04 0 5.733.587 8.08 1.76 2.373 1.147 4.24 2.76 5.6 4.84 1.36 2.053 2.04 4.453 2.04 7.2 0 3.867-1.04 7.093-3.12 9.68-2.053 2.56-5.067 4.347-9.04 5.36zm-13.04-7.4c.48 0 1.027-.4 1.64-1.2.64-.827 1.28-1.987 1.92-3.48.64-1.493 1.227-3.253 1.76-5.28.533-2.053.933-4.32 1.2-6.8-2.08.4-3.827 1.173-5.24 2.32-1.413 1.12-2.48 2.467-3.2 4.04a11.878 11.878 0 00-1.12 4.88c0 1.813.28 3.187.84 4.12.587.933 1.32 1.4 2.2 1.4zm44.4 9.92c-2.187 0-3.947-.52-5.28-1.56-1.333-1.013-2-2.533-2-4.56 0-1.813.667-3.267 2-4.36 1.36-1.093 3.173-1.64 5.44-1.64.8 0 1.6.04 2.4.12l-.12-4.52c-2.773.08-5.227.08-7.36 0-.667-.053-1.213-.32-1.64-.8a2.522 2.522 0 01-.56-1.72c.053-.64.32-1.173.8-1.6.507-.427 1.08-.613 1.72-.56 1.013.053 2.107.093 3.28.12 1.2 0 2.413-.013 3.64-.04-.027-.64-.04-1.28-.04-1.92 0-.64-.013-1.267-.04-1.88a184 184 0 01-3.8.04 737.516 737.516 0 01-3.36-.08c-.667-.027-1.213-.28-1.64-.76a2.582 2.582 0 01-.56-1.76c.053-.64.32-1.173.8-1.6.507-.427 1.08-.613 1.72-.56 1.973.133 4.227.173 6.76.12V6.94c0-.667.227-1.227.68-1.68a2.218 2.218 0 011.68-.72c.667 0 1.227.24 1.68.72.48.453.72 1.013.72 1.68V8.5c0 .533.013 1.107.04 1.72 1.093-.08 2.147-.16 3.16-.24 1.013-.107 1.933-.213 2.76-.32.64-.08 1.213.08 1.72.48.533.373.84.88.92 1.52.08.667-.08 1.267-.48 1.8-.373.507-.88.8-1.52.88-.933.107-1.96.2-3.08.28-1.093.08-2.227.147-3.4.2v1.88l.08 1.92c1.067-.053 2.08-.12 3.04-.2.987-.107 1.893-.213 2.72-.32.64-.107 1.213.04 1.72.44.533.4.84.92.92 1.56.08.64-.08 1.227-.48 1.76-.373.507-.88.8-1.52.88-.907.107-1.893.2-2.96.28-1.067.08-2.187.147-3.36.2.053 1.067.08 2.08.08 3.04.027.96.053 1.853.08 2.68a28.879 28.879 0 014.4 1.68c1.387.667 2.613 1.373 3.68 2.12.533.347.853.853.96 1.52.133.667.013 1.267-.36 1.8-.373.533-.893.867-1.56 1a2.3 2.3 0 01-1.76-.4 21.86 21.86 0 00-2.48-1.52 25.294 25.294 0 00-2.84-1.36c-.107 2.107-.8 3.653-2.08 4.64-1.28.987-3.053 1.48-5.32 1.48zm-.04-4.52c1.093 0 1.813-.187 2.16-.56.347-.4.52-.96.52-1.68v-.76c-.907-.16-1.8-.24-2.68-.24-.853 0-1.48.147-1.88.44-.4.293-.6.693-.6 1.2 0 1.067.827 1.6 2.48 1.6zm40.04 4.52c-2.187 0-3.947-.52-5.28-1.56-1.333-1.013-2-2.533-2-4.56 0-1.813.667-3.267 2-4.36 1.36-1.093 3.173-1.64 5.44-1.64.8 0 1.6.04 2.4.12l-.12-4.52c-2.773.08-5.227.08-7.36 0-.667-.053-1.213-.32-1.64-.8a2.522 2.522 0 01-.56-1.72c.053-.64.32-1.173.8-1.6.507-.427 1.08-.613 1.72-.56 1.013.053 2.107.093 3.28.12 1.2 0 2.413-.013 3.64-.04-.027-.64-.04-1.28-.04-1.92 0-.64-.013-1.267-.04-1.88a184 184 0 01-3.8.04 737.516 737.516 0 01-3.36-.08c-.667-.027-1.213-.28-1.64-.76a2.582 2.582 0 01-.56-1.76c.053-.64.32-1.173.8-1.6.507-.427 1.08-.613 1.72-.56 1.973.133 4.227.173 6.76.12V6.94c0-.667.227-1.227.68-1.68a2.218 2.218 0 011.68-.72c.667 0 1.227.24 1.68.72.48.453.72 1.013.72 1.68V8.5c0 .533.013 1.107.04 1.72 1.093-.08 2.147-.16 3.16-.24 1.013-.107 1.933-.213 2.76-.32.64-.08 1.213.08 1.72.48.533.373.84.88.92 1.52.08.667-.08 1.267-.48 1.8-.373.507-.88.8-1.52.88-.933.107-1.96.2-3.08.28-1.093.08-2.227.147-3.4.2v1.88l.08 1.92c1.067-.053 2.08-.12 3.04-.2.987-.107 1.893-.213 2.72-.32.64-.107 1.213.04 1.72.44.533.4.84.92.92 1.56.08.64-.08 1.227-.48 1.76-.373.507-.88.8-1.52.88-.907.107-1.893.2-2.96.28-1.067.08-2.187.147-3.36.2.053 1.067.08 2.08.08 3.04.027.96.053 1.853.08 2.68a28.879 28.879 0 014.4 1.68c1.387.667 2.613 1.373 3.68 2.12.533.347.853.853.96 1.52.133.667.013 1.267-.36 1.8-.373.533-.893.867-1.56 1a2.3 2.3 0 01-1.76-.4 21.86 21.86 0 00-2.48-1.52 25.294 25.294 0 00-2.84-1.36c-.107 2.107-.8 3.653-2.08 4.64-1.28.987-3.053 1.48-5.32 1.48zm-.04-4.52c1.093 0 1.813-.187 2.16-.56.347-.4.52-.96.52-1.68v-.76c-.907-.16-1.8-.24-2.68-.24-.853 0-1.48.147-1.88.44-.4.293-.6.693-.6 1.2 0 1.067.827 1.6 2.48 1.6z"/></mask><path d="M20 38.06c-2.187 0-4.013-.48-5.48-1.44-1.467-.96-2.573-2.507-3.32-4.64-.72-2.133-1.08-4.96-1.08-8.48 0-3.573.36-6.427 1.08-8.56.747-2.133 1.853-3.68 3.32-4.64 1.467-.96 3.293-1.44 5.48-1.44 2.187 0 4.013.48 5.48 1.44 1.467.96 2.56 2.507 3.28 4.64.747 2.133 1.12 4.987 1.12 8.56 0 3.52-.373 6.347-1.12 8.48-.72 2.133-1.813 3.68-3.28 4.64-1.467.96-3.293 1.44-5.48 1.44zm0-4.24c1.173 0 2.133-.267 2.88-.8.773-.56 1.347-1.587 1.72-3.08.4-1.493.6-3.64.6-6.44 0-2.853-.2-5.027-.6-6.52-.373-1.493-.947-2.507-1.72-3.04-.747-.56-1.707-.84-2.88-.84-1.173 0-2.147.28-2.92.84-.773.533-1.36 1.547-1.76 3.04-.373 1.493-.56 3.667-.56 6.52 0 2.8.187 4.947.56 6.44.4 1.493.987 2.52 1.76 3.08.773.533 1.747.8 2.92.8zm26.44 6.96c-.693 0-1.267-.24-1.72-.72-.453-.453-.68-1.053-.68-1.8V15.5c0-2.107.173-3.827.52-5.16.347-1.333.933-2.36 1.76-3.08.853-.747 2-1.253 3.44-1.52 1.467-.293 3.32-.44 5.56-.44h9.32c2.24 0 4.08.147 5.52.44 1.467.267 2.613.773 3.44 1.52.853.72 1.453 1.747 1.8 3.08s.52 3.053.52 5.16v17.24c0 2.027-.253 3.613-.76 4.76-.48 1.12-1.253 1.907-2.32 2.36-1.067.48-2.467.76-4.2.84-.827.027-1.52-.16-2.08-.56-.533-.373-.84-.947-.92-1.72-.053-.773.133-1.413.56-1.92.453-.533 1.053-.813 1.8-.84.88-.053 1.547-.173 2-.36.453-.187.76-.533.92-1.04.16-.507.24-1.213.24-2.12V24.5H48.8v13.76c0 .747-.227 1.347-.68 1.8-.427.48-.987.72-1.68.72zM62.32 20.1h8.84v-4.6c0-1.68-.173-2.92-.52-3.72-.32-.827-.947-1.36-1.88-1.6-.933-.267-2.32-.4-4.16-.4h-2.28V20.1zm-13.52 0h8.8V9.78h-2.24c-1.813 0-3.2.133-4.16.4-.933.24-1.573.773-1.92 1.6-.32.8-.48 2.04-.48 3.72v4.6zm55.48 17.28a2.444 2.444 0 01-1.88-.28c-.587-.347-.96-.84-1.12-1.48-.16-.64-.067-1.24.28-1.8.347-.587.84-.96 1.48-1.12 2.96-.773 5.133-2.027 6.52-3.76 1.413-1.733 2.12-3.933 2.12-6.6 0-1.68-.373-3.187-1.12-4.52-.747-1.333-1.813-2.413-3.2-3.24-1.36-.827-3-1.333-4.92-1.52-.48 4.48-1.293 8.36-2.44 11.64-1.12 3.253-2.453 5.773-4 7.56-1.52 1.76-3.12 2.64-4.8 2.64a6.588 6.588 0 01-3.88-1.24c-1.173-.827-2.107-2.013-2.8-3.56-.667-1.547-1-3.4-1-5.56 0-2.213.413-4.28 1.24-6.2a15.643 15.643 0 013.6-5.12c1.547-1.467 3.36-2.613 5.44-3.44 2.107-.827 4.413-1.24 6.92-1.24 3.04 0 5.733.587 8.08 1.76 2.373 1.147 4.24 2.76 5.6 4.84 1.36 2.053 2.04 4.453 2.04 7.2 0 3.867-1.04 7.093-3.12 9.68-2.053 2.56-5.067 4.347-9.04 5.36zm-13.04-7.4c.48 0 1.027-.4 1.64-1.2.64-.827 1.28-1.987 1.92-3.48.64-1.493 1.227-3.253 1.76-5.28.533-2.053.933-4.32 1.2-6.8-2.08.4-3.827 1.173-5.24 2.32-1.413 1.12-2.48 2.467-3.2 4.04a11.878 11.878 0 00-1.12 4.88c0 1.813.28 3.187.84 4.12.587.933 1.32 1.4 2.2 1.4zm44.4 9.92c-2.187 0-3.947-.52-5.28-1.56-1.333-1.013-2-2.533-2-4.56 0-1.813.667-3.267 2-4.36 1.36-1.093 3.173-1.64 5.44-1.64.8 0 1.6.04 2.4.12l-.12-4.52c-2.773.08-5.227.08-7.36 0-.667-.053-1.213-.32-1.64-.8a2.522 2.522 0 01-.56-1.72c.053-.64.32-1.173.8-1.6.507-.427 1.08-.613 1.72-.56 1.013.053 2.107.093 3.28.12 1.2 0 2.413-.013 3.64-.04-.027-.64-.04-1.28-.04-1.92 0-.64-.013-1.267-.04-1.88a184 184 0 01-3.8.04 737.516 737.516 0 01-3.36-.08c-.667-.027-1.213-.28-1.64-.76a2.582 2.582 0 01-.56-1.76c.053-.64.32-1.173.8-1.6.507-.427 1.08-.613 1.72-.56 1.973.133 4.227.173 6.76.12V6.94c0-.667.227-1.227.68-1.68a2.218 2.218 0 011.68-.72c.667 0 1.227.24 1.68.72.48.453.72 1.013.72 1.68V8.5c0 .533.013 1.107.04 1.72 1.093-.08 2.147-.16 3.16-.24 1.013-.107 1.933-.213 2.76-.32.64-.08 1.213.08 1.72.48.533.373.84.88.92 1.52.08.667-.08 1.267-.48 1.8-.373.507-.88.8-1.52.88-.933.107-1.96.2-3.08.28-1.093.08-2.227.147-3.4.2v1.88l.08 1.92c1.067-.053 2.08-.12 3.04-.2.987-.107 1.893-.213 2.72-.32.64-.107 1.213.04 1.72.44.533.4.84.92.92 1.56.08.64-.08 1.227-.48 1.76-.373.507-.88.8-1.52.88-.907.107-1.893.2-2.96.28-1.067.08-2.187.147-3.36.2.053 1.067.08 2.08.08 3.04.027.96.053 1.853.08 2.68a28.879 28.879 0 014.4 1.68c1.387.667 2.613 1.373 3.68 2.12.533.347.853.853.96 1.52.133.667.013 1.267-.36 1.8-.373.533-.893.867-1.56 1a2.3 2.3 0 01-1.76-.4 21.86 21.86 0 00-2.48-1.52 25.294 25.294 0 00-2.84-1.36c-.107 2.107-.8 3.653-2.08 4.64-1.28.987-3.053 1.48-5.32 1.48zm-.04-4.52c1.093 0 1.813-.187 2.16-.56.347-.4.52-.96.52-1.68v-.76c-.907-.16-1.8-.24-2.68-.24-.853 0-1.48.147-1.88.44-.4.293-.6.693-.6 1.2 0 1.067.827 1.6 2.48 1.6zm40.04 4.52c-2.187 0-3.947-.52-5.28-1.56-1.333-1.013-2-2.533-2-4.56 0-1.813.667-3.267 2-4.36 1.36-1.093 3.173-1.64 5.44-1.64.8 0 1.6.04 2.4.12l-.12-4.52c-2.773.08-5.227.08-7.36 0-.667-.053-1.213-.32-1.64-.8a2.522 2.522 0 01-.56-1.72c.053-.64.32-1.173.8-1.6.507-.427 1.08-.613 1.72-.56 1.013.053 2.107.093 3.28.12 1.2 0 2.413-.013 3.64-.04-.027-.64-.04-1.28-.04-1.92 0-.64-.013-1.267-.04-1.88a184 184 0 01-3.8.04 737.516 737.516 0 01-3.36-.08c-.667-.027-1.213-.28-1.64-.76a2.582 2.582 0 01-.56-1.76c.053-.64.32-1.173.8-1.6.507-.427 1.08-.613 1.72-.56 1.973.133 4.227.173 6.76.12V6.94c0-.667.227-1.227.68-1.68a2.218 2.218 0 011.68-.72c.667 0 1.227.24 1.68.72.48.453.72 1.013.72 1.68V8.5c0 .533.013 1.107.04 1.72 1.093-.08 2.147-.16 3.16-.24 1.013-.107 1.933-.213 2.76-.32.64-.08 1.213.08 1.72.48.533.373.84.88.92 1.52.08.667-.08 1.267-.48 1.8-.373.507-.88.8-1.52.88-.933.107-1.96.2-3.08.28-1.093.08-2.227.147-3.4.2v1.88l.08 1.92c1.067-.053 2.08-.12 3.04-.2.987-.107 1.893-.213 2.72-.32.64-.107 1.213.04 1.72.44.533.4.84.92.92 1.56.08.64-.08 1.227-.48 1.76-.373.507-.88.8-1.52.88-.907.107-1.893.2-2.96.28-1.067.08-2.187.147-3.36.2.053 1.067.08 2.08.08 3.04.027.96.053 1.853.08 2.68a28.879 28.879 0 014.4 1.68c1.387.667 2.613 1.373 3.68 2.12.533.347.853.853.96 1.52.133.667.013 1.267-.36 1.8-.373.533-.893.867-1.56 1a2.3 2.3 0 01-1.76-.4 21.86 21.86 0 00-2.48-1.52 25.294 25.294 0 00-2.84-1.36c-.107 2.107-.8 3.653-2.08 4.64-1.28.987-3.053 1.48-5.32 1.48zm-.04-4.52c1.093 0 1.813-.187 2.16-.56.347-.4.52-.96.52-1.68v-.76c-.907-.16-1.8-.24-2.68-.24-.853 0-1.48.147-1.88.44-.4.293-.6.693-.6 1.2 0 1.067.827 1.6 2.48 1.6z" fill="url(#paint0_linear_10944_61219)"/><path d="M14.52 36.62l-1.643 2.51 1.643-2.51zm-3.32-4.64l-2.842.96.01.031 2.832-.991zm0-17.04l-2.832-.991a3.32 3.32 0 00-.01.032l2.842.959zm3.32-4.64l1.643 2.51-1.643-2.51zm10.96 0l-1.643 2.51 1.643-2.51zm3.28 4.64l-2.843.96.011.031 2.832-.991zm0 17.04l-2.832-.991-.01.032 2.842.959zm-3.28 4.64l-1.643-2.51 1.643 2.51zm-2.6-3.6l1.744 2.441.016-.011-1.76-2.43zm1.72-3.08l-2.898-.776a2.17 2.17 0 00-.012.048l2.91.728zm0-12.96l-2.91.728.012.048 2.898-.776zm-1.72-3.04l-1.8 2.4.097.07 1.703-2.47zm-5.8 0l1.703 2.47c.02-.013.038-.027.056-.04l-1.759-2.43zm-1.76 3.04l-2.898-.776a2.17 2.17 0 00-.012.048l2.91.728zm0 12.96l-2.91.728.012.048 2.898-.776zm1.76 3.08l-1.76 2.43.057.04 1.703-2.47zM20 35.06c-1.747 0-2.967-.38-3.837-.95l-3.286 5.02c2.063 1.35 4.497 1.93 7.123 1.93v-6zm-3.837-.95c-.772-.505-1.54-1.43-2.131-3.121L8.368 32.97c.902 2.575 2.348 4.745 4.509 6.16l3.286-5.021zm-2.12-3.09c-.575-1.7-.923-4.164-.923-7.52h-6c0 3.684.372 6.874 1.238 9.44l5.684-1.92zm-.923-7.52c0-3.415.35-5.903.923-7.6l-5.685-1.92C7.49 16.55 7.12 19.769 7.12 23.5h6zm.912-7.569c.592-1.692 1.359-2.615 2.131-3.12L12.877 7.79c-2.161 1.415-3.607 3.584-4.509 6.159l5.664 1.982zm2.131-3.12c.87-.57 2.09-.951 3.837-.951v-6c-2.626 0-5.06.58-7.123 1.93l3.286 5.02zM20 11.86c1.747 0 2.967.38 3.837.95l3.286-5.02C25.06 6.44 22.626 5.86 20 5.86v6zm3.837.95c.762.499 1.514 1.41 2.08 3.09l5.685-1.92c-.873-2.586-2.307-4.769-4.479-6.19l-3.286 5.02zm2.091 3.121c.59 1.685.952 4.16.952 7.569h6c0-3.738-.385-6.97-1.288-9.551l-5.664 1.982zm.952 7.569c0 3.35-.36 5.8-.952 7.489l5.664 1.982c.902-2.578 1.288-5.78 1.288-9.471h-6zm-.962 7.52c-.567 1.68-1.32 2.591-2.081 3.09l3.286 5.02c2.172-1.421 3.606-3.604 4.48-6.19l-5.686-1.92zm-2.081 3.09c-.87.57-2.09.95-3.837.95v6c2.626 0 5.06-.58 7.123-1.93l-3.286-5.02zM20 36.82c1.624 0 3.243-.372 4.624-1.359l-3.488-4.882c-.112.08-.413.241-1.136.241v6zm4.64-1.37c1.604-1.162 2.424-2.997 2.87-4.782l-5.82-1.456c-.142.565-.294.932-.42 1.155-.121.219-.189.251-.15.223l3.52 4.86zm2.858-4.734c.502-1.873.702-4.33.702-7.216h-6c0 2.713-.2 4.55-.498 5.664l5.796 1.552zM28.2 23.5c0-2.934-.2-5.42-.702-7.296l-5.796 1.552c.298 1.11.498 2.972.498 5.744h6zm-.69-7.248c-.444-1.778-1.27-3.64-2.927-4.782l-3.406 4.94c-.066-.046-.013-.037.102.167.119.21.27.567.41 1.13l5.821-1.455zm-2.83-4.712C23.293 10.5 21.653 10.1 20 10.1v6c.693 0 .973.16 1.08.24l3.6-4.8zM20 10.1c-1.658 0-3.287.402-4.68 1.41l3.52 4.86c.154-.112.472-.27 1.16-.27v-6zm-4.623 1.37c-1.636 1.128-2.481 2.965-2.955 4.734l5.796 1.552c.152-.568.311-.934.438-1.153.125-.215.185-.233.127-.193l-3.406-4.94zm-2.967 4.782c-.464 1.854-.65 4.32-.65 7.248h6c0-2.779.187-4.66.47-5.792l-5.82-1.456zm-.65 7.248c0 2.88.187 5.317.65 7.168l5.82-1.456c-.284-1.136-.47-2.992-.47-5.712h-6zm.662 7.216c.476 1.776 1.313 3.586 2.898 4.734l3.52-4.86c.03.023-.044-.02-.175-.248-.133-.234-.295-.609-.447-1.178l-5.796 1.552zm2.955 4.774c1.386.956 2.994 1.33 4.623 1.33v-6c-.717 0-1.056-.16-1.217-.27l-3.406 4.94zm29.343 4.57L46.901 38a3.14 3.14 0 00-.06-.061L44.72 40.06zm-.16-29.72l2.904.755-2.904-.755zm1.76-3.08l1.97 2.262.005-.004L46.32 7.26zm3.44-1.52l.546 2.95.042-.008-.588-2.942zm20.4 0l-.599 2.94.062.012.537-2.952zm3.44 1.52l-2.01 2.226c.024.023.05.045.075.067L73.6 7.26zm1.56 30.24l-2.744-1.212-.013.03L75.16 37.5zm-2.32 2.36l-1.173-2.761-.058.025 1.231 2.736zm-4.2.84l.097 2.998.041-.001-.138-2.997zm-2.08-.56l1.744-2.441-.024-.017-1.72 2.458zm-.92-1.72l-2.993.206c.003.035.005.069.009.103l2.984-.309zm.56-1.92l-2.286-1.943-.009.01L66.2 36.5zm1.8-.84l.107 2.998c.025 0 .05-.002.075-.004L68 35.66zm2-.36l1.142 2.774L70 35.3zm.92-1.04l2.86.903-2.86-.903zm.24-9.76h3a3 3 0 00-3-3v3zm-22.36 0v-3a3 3 0 00-3 3h3zm-.68 15.56l-2.121-2.121a2.926 2.926 0 00-.121.128l2.242 1.993zm14.2-19.96h-3a3 3 0 003 3v-3zm8.84 0v3a3 3 0 003-3h-3zm-.52-8.32l-2.798 1.083.045.11 2.753-1.193zm-1.88-1.6l-.824 2.885.077.02.747-2.905zm-6.44-.4v-3a3 3 0 00-3 3h3zM48.8 20.1h-3a3 3 0 003 3v-3zm8.8 0v3a3 3 0 003-3h-3zm0-10.32h3a3 3 0 00-3-3v3zm-6.4.4l.747 2.905.056-.014-.803-2.891zm-1.92 1.6l-2.767-1.16-.018.046 2.785 1.114zm-2.84 26h.016l.045.007a.77.77 0 01.147.046c.124.051.21.122.253.167l-4.362 4.12c1.051 1.113 2.429 1.66 3.901 1.66v-6zm.401.159a.792.792 0 01.175.27c.034.09.024.12.024.051h-6c0 1.4.45 2.813 1.559 3.921l4.242-4.242zm.199.321V15.5h-6v22.76h6zm0-22.76c0-1.971.165-3.412.424-4.405l-5.807-1.51c-.435 1.673-.617 3.673-.617 5.915h6zm.424-4.405c.233-.899.56-1.34.826-1.573l-3.94-4.524c-1.388 1.208-2.234 2.82-2.694 4.587l5.808 1.51zm.831-1.577c.346-.303.95-.632 2.011-.828l-1.092-5.9c-1.819.337-3.509 1.021-4.87 2.212l3.951 4.516zm2.053-.836c1.203-.24 2.842-.382 4.972-.382v-6c-2.35 0-4.418.152-6.148.498l1.176 5.884zM55.32 8.3h9.32v-6h-9.32v6zm9.32 0c2.132 0 3.752.141 4.921.38L70.76 2.8c-1.711-.348-3.77-.5-6.119-.5v6zm4.983.392c1.098.2 1.672.528 1.966.794l4.022-4.452c-1.359-1.228-3.079-1.912-4.914-2.246l-1.074 5.904zm2.042.86c.278.235.604.668.831 1.543l5.808-1.51c-.466-1.792-1.34-3.412-2.77-4.618l-3.869 4.586zm.831 1.543c.259.993.424 2.434.424 4.405h6c0-2.242-.181-4.242-.617-5.915l-5.806 1.51zm.424 4.405v17.24h6V15.5h-6zm0 17.24c0 1.836-.239 2.947-.504 3.547l5.488 2.425c.748-1.692 1.016-3.755 1.016-5.972h-6zm-.517 3.578c-.193.45-.421.647-.736.781l2.346 5.522c1.818-.773 3.137-2.149 3.904-3.94l-5.514-2.363zm-.794.806c-.598.27-1.586.509-3.107.58l.276 5.993c1.946-.09 3.758-.41 5.293-1.101l-2.462-5.472zm-3.066.578a.955.955 0 01-.263-.019c-.016-.004 0-.001.024.016l-3.488 4.882c1.198.855 2.573 1.16 3.92 1.117l-.193-5.996zm-.263-.02a.987.987 0 01.295.333c.063.117.057.17.05.096l-5.97.618c.151 1.454.8 2.899 2.185 3.869l3.44-4.916zm.353.532c-.006-.09.007-.084-.013-.014a.642.642 0 01-.125.232l-4.59-3.864c-1.013 1.202-1.355 2.65-1.258 4.058l5.986-.412zm-.147.229a.693.693 0 01-.227.166c-.109.05-.175.05-.152.05l-.214-5.997c-1.525.054-2.94.672-3.979 1.895l4.572 3.886zm-.305.212c.991-.06 2.05-.206 2.961-.581l-2.284-5.548c.028-.012-.032.016-.23.051a6.946 6.946 0 01-.81.089l.364 5.989zm2.961-.581c1.35-.556 2.237-1.637 2.639-2.91l-5.722-1.807c.028-.088.1-.26.264-.445a1.48 1.48 0 01.535-.386l2.284 5.548zm2.639-2.91c.295-.934.379-1.995.379-3.024h-6c0 .784-.076 1.137-.1 1.217l5.72 1.806zm.379-3.024V24.5h-6v7.64h6zm-3-10.64H48.8v6h22.36v-6zm-25.36 3v13.76h6V24.5h-6zm0 13.76c0 .07-.01.04.024-.05a.792.792 0 01.175-.271l4.242 4.242c1.109-1.108 1.559-2.52 1.559-3.921h-6zm.078-.193a.926.926 0 01.493-.279c.044-.008.07-.008.069-.008v6c1.474 0 2.877-.551 3.922-1.727l-4.484-3.986zM62.32 23.1h8.84v-6h-8.84v6zm11.84-3v-4.6h-6v4.6h6zm0-4.6c0-1.78-.168-3.53-.767-4.913l-5.506 2.386c.094.217.273.947.273 2.527h6zm-.722-4.803c-.704-1.818-2.156-2.966-3.93-3.422l-1.495 5.81c.1.026.06.034-.027-.04a.62.62 0 01-.144-.182l5.596-2.166zm-3.854-3.402c-1.343-.383-3.067-.515-4.984-.515v6c1.763 0 2.813.135 3.336.285l1.648-5.77zM64.6 6.78h-2.28v6h2.28v-6zm-5.28 3V20.1h6V9.78h-6zM48.8 23.1h8.8v-6h-8.8v6zm11.8-3V9.78h-6V20.1h6zm-3-13.32h-2.24v6h2.24v-6zm-2.24 0c-1.902 0-3.61.134-4.963.51l1.606 5.78c.567-.157 1.632-.29 3.357-.29v-6zm-4.907.495c-1.764.453-3.2 1.58-3.94 3.345l5.534 2.32c.003-.008-.003.008-.024.037a.5.5 0 01-.145.13c-.004.003.015-.008.07-.021l-1.495-5.811zm-3.958 3.39c-.54 1.352-.695 3.066-.695 4.835h6c0-1.591.166-2.357.265-2.606l-5.57-2.228zM45.8 15.5v4.6h6v-4.6h-6zm58.48 21.88l.7 2.917.041-.01-.741-2.907zm-1.88-.28l-1.526 2.583L102.4 37.1zm-1.12-1.48l-2.91.728 2.91-.728zm.28-1.8l2.551 1.58.032-.054-2.583-1.526zm1.48-1.12l.728 2.91.03-.007-.758-2.903zm6.52-3.76l-2.325-1.896-.018.022 2.343 1.874zm1-11.12l-2.618 1.466 2.618-1.466zm-3.2-3.24l-1.558 2.564a.426.426 0 00.022.013l1.536-2.577zm-4.92-1.52l.29-2.986a3 3 0 00-3.273 2.666l2.983.32zM100 24.7l-2.832-.99a.721.721 0 00-.005.014L100 24.7zm-4 7.56l-2.268-1.963-.002.002L96 32.26zm-8.68 1.4l-1.728 2.452 1.728-2.452zm-2.8-3.56l-2.755 1.188.017.04L84.52 30.1zm.24-11.76l-2.748-1.204-.008.018 2.756 1.186zm3.6-5.12l-2.064-2.177 2.064 2.177zm5.44-3.44l-1.096-2.793-.012.005L93.8 9.78zm15 .52l-1.342 2.683.037.018L108.8 10.3zm5.6 4.84l-2.511 1.642.01.015 2.501-1.657zm-1.08 16.88l-2.338-1.88-.002.003 2.34 1.877zm-20.44-3.24l-2.372-1.837-.009.012 2.381 1.825zm1.92-3.48l-2.757-1.182L94.8 25.3zm1.76-5.28l2.901.764.003-.01-2.904-.754zm1.2-6.8l2.983.32a2.998 2.998 0 00-3.55-3.266l.567 2.946zm-5.24 2.32l1.863 2.351.027-.021-1.89-2.33zm-3.2 4.04l2.72 1.266.008-.018-2.728-1.248zm-1.12 4.88l-3-.047v.047h3zm.84 4.12l-2.573 1.544.033.053 2.54-1.597zm14.54 5.883a.505.505 0 01.172 0c.098.014.16.046.174.054l-3.052 5.166a5.441 5.441 0 004.106.614l-1.4-5.834zm.346.054a.582.582 0 01.146.143.677.677 0 01.118.232l-5.82 1.456c.361 1.447 1.252 2.595 2.504 3.335l3.052-5.166zm.264.375c.009.035.024.13.004.26a.696.696 0 01-.083.247l-5.102-3.158a5.25 5.25 0 00-.64 4.107l5.821-1.456zm-.047.454a.59.59 0 01-.143.146.685.685 0 01-.232.118l-1.456-5.82c-1.447.361-2.595 1.252-3.335 2.504l5.166 3.052zm-.345.257c3.354-.877 6.187-2.392 8.105-4.789l-4.686-3.748c-.855 1.07-2.369 2.06-4.935 2.731l1.516 5.806zm8.087-4.767c1.93-2.367 2.795-5.277 2.795-8.496h-6c0 2.114-.548 3.605-1.445 4.704l4.65 3.792zm2.795-8.496c0-2.141-.481-4.161-1.502-5.986l-5.236 2.932c.472.842.738 1.835.738 3.054h6zm-1.502-5.986c-1.019-1.818-2.47-3.27-4.282-4.35l-3.072 5.153c.961.573 1.643 1.28 2.118 2.129l5.236-2.932zm-4.26-4.338c-1.818-1.105-3.912-1.72-6.188-1.942l-.58 5.972c1.564.152 2.75.55 3.652 1.098l3.116-5.128zm-9.46.724c-.463 4.315-1.238 7.96-2.29 10.97l5.664 1.98c1.241-3.55 2.093-7.665 2.591-12.31l-5.966-.64zm-2.295 10.984c-1.047 3.041-2.222 5.176-3.431 6.573l4.536 3.927c1.884-2.177 3.376-5.083 4.569-8.547l-5.674-1.953zm-3.433 6.575c-1.18 1.365-2.02 1.601-2.53 1.601v6c2.85 0 5.21-1.524 7.07-3.68l-4.54-3.92zM91.2 31.9c-.785 0-1.476-.216-2.152-.692l-3.456 4.904A9.587 9.587 0 0091.2 37.9v-6zm-2.152-.692c-.659-.465-1.277-1.19-1.79-2.335l-5.475 2.454c.873 1.949 2.121 3.596 3.81 4.785l3.455-4.904zm-1.773-2.295c-.466-1.082-.755-2.51-.755-4.373h-6c0 2.458.378 4.736 1.245 6.748l5.51-2.375zm-.755-4.373c0-1.83.34-3.49.995-5.014l-5.51-2.372c-.998 2.316-1.485 4.79-1.485 7.386h6zm.988-4.996a12.643 12.643 0 012.916-4.147l-4.128-4.354a18.644 18.644 0 00-4.284 6.093l5.496 2.408zm2.916-4.147c1.256-1.191 2.74-2.136 4.484-2.83l-2.216-5.575c-2.417.96-4.559 2.309-6.396 4.051l4.128 4.354zm4.472-2.824c1.722-.676 3.652-1.033 5.824-1.033v-6c-2.841 0-5.524.47-8.016 1.447l2.192 5.586zm5.824-1.033c2.648 0 4.87.509 6.738 1.443l2.684-5.366c-2.825-1.413-5.99-2.077-9.422-2.077v6zm6.775 1.461c1.914.925 3.351 2.185 4.394 3.78l5.022-3.283c-1.677-2.564-3.973-4.53-6.806-5.9l-2.61 5.403zm4.404 3.796c.998 1.506 1.541 3.315 1.541 5.543h6c0-3.265-.817-6.256-2.539-8.857l-5.002 3.314zm1.541 5.543c0 3.3-.875 5.832-2.458 7.8l4.676 3.76c2.577-3.205 3.782-7.128 3.782-11.56h-6zm-2.46 7.803c-1.554 1.937-3.939 3.437-7.441 4.33l1.482 5.814c4.444-1.133 8.086-3.207 10.639-6.39l-4.68-3.754zM91.24 32.98c1.091 0 1.96-.453 2.541-.879.587-.43 1.075-.968 1.48-1.496l-4.762-3.65a3.096 3.096 0 01-.224.265c-.052.054-.065.06-.037.039.036-.026.39-.279 1.002-.279v6zm4.012-2.363c.857-1.107 1.614-2.522 2.305-4.135l-5.514-2.364c-.589 1.374-1.112 2.279-1.535 2.826l4.744 3.672zm2.305-4.135c.712-1.662 1.343-3.568 1.904-5.698l-5.802-1.527c-.506 1.922-1.048 3.536-1.616 4.861l5.514 2.364zm1.907-5.708c.576-2.218.999-4.632 1.279-7.233l-5.966-.642c-.253 2.359-.63 4.478-1.12 6.367l5.807 1.508zm-2.27-10.5c-2.486.478-4.709 1.43-6.564 2.936l3.78 4.66c.971-.788 2.242-1.382 3.916-1.704l-1.132-5.892zm-6.537 2.915c-1.769 1.401-3.14 3.12-4.065 5.143l5.456 2.496c.514-1.124 1.277-2.098 2.335-2.937l-3.726-4.702zM86.6 18.314a14.875 14.875 0 00-1.4 6.1l6 .093a8.879 8.879 0 01.84-3.66l-5.44-2.533zm-1.4 6.146c0 2.035.299 4.049 1.267 5.663l5.145-3.087c-.15-.252-.412-.984-.412-2.576h-6zm1.3 5.716c.977 1.555 2.561 2.804 4.74 2.804v-6a.779.779 0 01.4.119c.096.06.058.073-.06-.116l-5.08 3.194zm43.86 8.164l1.845-2.366-.03-.022-1.815 2.388zm0-8.92l-1.88-2.338-.022.018 1.902 2.32zm7.84-1.52l-.299 2.985a3 3 0 003.298-3.065l-2.999.08zm-.12-4.52l2.999-.08a2.998 2.998 0 00-3.086-2.919l.087 2.999zm-7.36 0l-.239 2.99c.042.004.084.006.127.008l.112-2.998zm-1.64-.8l-2.355 1.859c.037.046.074.09.113.134l2.242-1.993zm-.56-1.72l-2.99-.25a2.57 2.57 0 00-.007.125l2.997.125zm.8-1.6l-1.932-2.295a1.95 1.95 0 00-.061.053l1.993 2.242zm1.72-.56l-.249 2.99.091.006.158-2.996zm3.28.12l-.068 3h.068v-3zm3.64-.04l.065 3a2.998 2.998 0 002.932-3.125l-2.997.125zm-.08-3.8l2.997-.13a3 3 0 00-3.058-2.87l.061 3zm-3.8.04l-.065 3h.065v-3zm-3.36-.08l-.12 2.998.041.001.079-2.999zm-1.64-.76l-2.355 1.859c.037.046.074.09.113.134l2.242-1.993zm-.56-1.76l-2.99-.25a5.562 5.562 0 00-.008.13l2.998.12zm.8-1.6l-1.932-2.295a2.034 2.034 0 00-.061.053l1.993 2.242zm1.72-.56l-.249 2.99.047.003.202-2.993zm6.76.12l.063 3a3 3 0 002.937-3h-3zm.68-5.12l2.121 2.121.06-.061-2.181-2.06zm3.36 0l-2.181 2.06c.039.041.08.082.121.121l2.06-2.181zm.76 4.96l-2.997.13a2.999 2.999 0 003.216 2.862l-.219-2.992zm3.16-.24l.236 2.99c.026-.001.052-.004.078-.007l-.314-2.983zm2.76-.32l-.372-2.977-.012.002.384 2.975zm1.72.48l-1.859 2.355c.045.035.091.07.139.103l1.72-2.458zm.92 1.52l2.979-.357a.074.074 0 01-.002-.015l-2.977.372zm-.48 1.8l-2.4-1.8-.015.02 2.415 1.78zm-1.52.88l.341 2.98.031-.003-.372-2.977zm-3.08.28l-.214-2.992h-.005l.219 2.992zm-3.4.2l-.136-2.997a3 3 0 00-2.864 2.997h3zm0 1.88h-3c0 .042.001.083.003.125l2.997-.125zm.08 1.92l-2.997.125a2.998 2.998 0 003.147 2.871l-.15-2.996zm3.04-.2l.249 2.99.073-.007-.322-2.983zm2.72-.32l.384 2.975c.036-.004.073-.01.109-.016l-.493-2.959zm1.72.44l-1.859 2.355.059.045 1.8-2.4zm.92 1.56l2.977-.372-2.977.372zm-.48 1.76l-2.4-1.8-.015.02 2.415 1.78zm-1.52.88l.351 2.98.021-.003-.372-2.977zm-6.32.48l-.136-2.997a3.001 3.001 0 00-2.86 3.147l2.996-.15zm.08 3.04h-3l.001.083 2.999-.083zm.08 2.68l-2.998.097a2.998 2.998 0 002.154 2.782L143 28.94zm4.4 1.68l1.3-2.704-1.3 2.704zm3.68 2.12l-1.72 2.458c.028.02.056.039.085.057l1.635-2.515zm.96 1.52l-2.962.474.02.114 2.942-.588zm-.36 1.8l-2.458-1.72 2.458 1.72zm-1.56 1l.493 2.96.095-.018-.588-2.942zm-1.76-.4l-1.744 2.441.024.017 1.72-2.458zm-2.48-1.52l-1.463 2.619.059.032 1.404-2.651zm-2.84-1.36l1.127-2.78a3 3 0 00-4.123 2.628l2.996.152zm-2.08 4.64l1.832 2.376-1.832-2.376zm-3.2-3.6l2.198 2.041c.024-.025.047-.05.069-.076l-2.267-1.965zm.52-2.44h3a3 3 0 00-2.479-2.954l-.521 2.954zm-4.56.2l1.774 2.42-1.774-2.42zm1.92 4.32c-1.716 0-2.766-.404-3.435-.925l-3.69 4.73c1.998 1.559 4.467 2.195 7.125 2.195v-6zm-3.465-.948c-.427-.325-.815-.862-.815-2.172h-6c0 2.744.945 5.247 3.185 6.948l3.63-4.776zm-.815-2.172c0-.968.304-1.55.902-2.04l-3.804-4.64c-2.069 1.696-3.098 4.021-3.098 6.68h6zm.88-2.022c.685-.551 1.77-.978 3.56-.978v-6c-2.744 0-5.285.666-7.32 2.302l3.76 4.676zm3.56-.978c.7 0 1.4.035 2.101.105l.598-5.97a27.113 27.113 0 00-2.699-.135v6zm5.399-2.96l-.12-4.52-5.998.16.12 4.52 5.998-.16zm-3.206-7.439c-2.725.079-5.11.078-7.161.001l-.224 5.996c2.215.083 4.737.082 7.559 0l-.174-5.997zm-7.034.009a.64.64 0 01.166.054.657.657 0 01.197.143l-4.484 3.986c.964 1.084 2.24 1.685 3.643 1.797l.478-5.98zm.476.331a.43.43 0 01.058.12c.024.074.025.13.024.144l-5.994-.25a5.525 5.525 0 001.202 3.704l4.71-3.718zm.075.388a.645.645 0 01-.067.213c-.05.1-.107.16-.13.18l-3.986-4.484a5.326 5.326 0 00-1.797 3.593l5.98.498zm-.258.446a.613.613 0 01-.193.098.716.716 0 01-.268.037l.498-5.98c-1.458-.121-2.809.336-3.901 1.255l3.864 4.59zm-.37.14c1.048.056 2.171.097 3.37.124l.136-5.998a107.117 107.117 0 01-3.19-.117l-.316 5.992zm3.438.125c1.222 0 2.457-.014 3.705-.04l-.13-6c-1.206.027-2.397.04-3.575.04v6zm6.637-3.165a43 43 0 01-.037-1.795h-6c0 .682.014 1.363.043 2.045l5.994-.25zm-.037-1.795c0-.682-.014-1.352-.043-2.01l-5.994.26c.025.568.037 1.152.037 1.75h6zm-3.101-4.88c-1.288.027-2.534.04-3.739.04v6a189.8 189.8 0 003.861-.04l-.122-6zm-3.674.04a727.648 727.648 0 01-3.346-.079l-.158 5.998c1.019.027 2.143.053 3.374.08l.13-5.998zm-3.305-.078a.69.69 0 01.231.066.782.782 0 01.251.179l-4.484 3.986c.991 1.116 2.316 1.707 3.762 1.765l.24-5.996zm.595.38a.473.473 0 01.064.128c.021.066.018.104.019.09l-5.996-.24a5.586 5.586 0 001.203 3.739l4.71-3.718zm.075.347a.645.645 0 01-.067.213c-.05.1-.107.16-.13.18l-3.986-4.484a5.326 5.326 0 00-1.797 3.593l5.98.498zm-.258.446a.613.613 0 01-.193.098.716.716 0 01-.268.037l.498-5.98c-1.458-.121-2.809.336-3.901 1.255l3.864 4.59zm-.414.138c2.082.14 4.426.181 7.025.126l-.126-5.998c-2.468.052-4.63.012-6.495-.114l-.404 5.986zm9.962-2.873V6.94h-6v3.44h6zm0-3.44a.737.737 0 01-.199.441l-4.242-4.242c-1.041 1.04-1.559 2.374-1.559 3.801h6zm-.139.38a.735.735 0 01-.239.157.716.716 0 01-.262.063v-6a5.216 5.216 0 00-3.861 1.66l4.362 4.12zm-.501.22a.716.716 0 01-.262-.063.735.735 0 01-.239-.157l4.362-4.12a5.216 5.216 0 00-3.861-1.66v6zm-.38-.099a.733.733 0 01-.157-.24.706.706 0 01-.063-.261h6a5.215 5.215 0 00-1.66-3.861l-4.12 4.362zm-.22-.501V8.5h6V6.941h-6zm0 1.56c0 .583.015 1.2.043 1.85l5.994-.26a36.825 36.825 0 01-.037-1.59h-6zm3.259 4.712c1.099-.08 2.158-.16 3.177-.241l-.472-5.982c-1.007.08-2.055.16-3.143.239l.438 5.984zm3.255-.248c1.032-.11 1.976-.218 2.83-.329l-.768-5.95c-.799.103-1.695.207-2.69.311l.628 5.967zm2.818-.327a.718.718 0 01-.268-.027.716.716 0 01-.243-.115l3.718-4.71a5.225 5.225 0 00-3.951-1.102l.744 5.954zm-.372-.04a.837.837 0 01-.217-.244.876.876 0 01-.12-.32l5.954-.745a5.096 5.096 0 00-2.177-3.606l-3.44 4.916zm-.339-.58c-.001-.014-.006-.083.02-.18a.554.554 0 01.079-.177l4.8 3.6a5.416 5.416 0 001.059-3.957l-5.958.714zm.084-.337a.836.836 0 01.252-.216.764.764 0 01.271-.1l.744 5.953c1.434-.18 2.688-.89 3.563-2.077l-4.83-3.56zm.554-.32c-.884.1-1.867.19-2.953.268l.428 5.984a76.413 76.413 0 003.207-.291l-.682-5.962zm-2.958.268c-1.064.078-2.17.143-3.317.195l.272 5.994c1.199-.055 2.36-.123 3.483-.205l-.438-5.984zm-6.181 3.192v1.88h6v-1.88h-6zm.003 2.005l.08 1.92 5.994-.25-.08-1.92-5.994.25zm3.227 4.791a94.99 94.99 0 003.139-.206l-.498-5.98c-.924.077-1.904.142-2.941.194l.3 5.992zm3.212-.213c1.004-.109 1.931-.218 2.782-.328l-.768-5.95c-.803.103-1.689.207-2.658.312l.644 5.966zm2.891-.344a.827.827 0 01-.326-.023.846.846 0 01-.306-.141l3.718-4.71a5.101 5.101 0 00-4.072-1.044l.986 5.918zm-.573-.119a.667.667 0 01-.154-.186.765.765 0 01-.103-.282l5.954-.744c-.185-1.478-.937-2.718-2.097-3.588l-3.6 4.8zm-.257-.468a.656.656 0 01.023-.241.539.539 0 01.074-.171l4.8 3.6c.849-1.132 1.237-2.492 1.057-3.932l-5.954.744zm.082-.392a.836.836 0 01.252-.216.764.764 0 01.271-.1l.744 5.953c1.434-.18 2.688-.89 3.563-2.077l-4.83-3.56zm.544-.32a67.04 67.04 0 01-2.833.268l.448 5.984a73.74 73.74 0 003.087-.293l-.702-5.959zm-2.833.268c-1.035.078-2.125.143-3.272.195l.272 5.994c1.2-.055 2.35-.123 3.448-.205l-.448-5.984zm-6.132 3.342c.051 1.022.076 1.985.076 2.89h6a63.47 63.47 0 00-.084-3.19l-5.992.3zm.077 2.973c.027.964.054 1.862.081 2.694l5.996-.194c-.026-.821-.053-1.71-.079-2.666l-5.998.166zm2.235 5.476c1.398.41 2.711.912 3.944 1.505l2.6-5.408a31.904 31.904 0 00-4.856-1.855l-1.688 5.758zm3.944 1.505c1.266.608 2.348 1.235 3.26 1.874l3.44-4.916c-1.221-.855-2.592-1.64-4.1-2.366l-2.6 5.408zm3.345 1.931a.916.916 0 01-.367-.521l5.924-.948c-.231-1.446-.995-2.721-2.287-3.561l-3.27 5.03zm-.347-.407a.796.796 0 01.124-.509l4.916 3.441c.866-1.237 1.13-2.678.844-4.108l-5.884 1.176zm.124-.508a.633.633 0 01.169-.156c.085-.054.144-.066.141-.066l1.176 5.884c1.387-.278 2.592-1.025 3.43-2.222l-4.916-3.44zm.405-.24a.654.654 0 01.238.015c.115.026.19.07.215.087l-3.44 4.916a5.297 5.297 0 003.973.901l-.986-5.918zm.477.119a24.857 24.857 0 00-2.82-1.73l-2.808 5.302c.803.425 1.514.863 2.14 1.31l3.488-4.882zm-2.761-1.698A28.304 28.304 0 00144.167 31l-2.254 5.56c.874.355 1.708.754 2.504 1.199l2.926-5.238zm-7.299 1.107c-.077 1.516-.529 2.118-.916 2.416l3.664 4.752c2.173-1.675 3.108-4.167 3.244-6.864l-5.992-.304zm-.916 2.416c-.58.447-1.623.856-3.488.856v6c2.668 0 5.172-.578 7.152-2.104l-3.664-4.752zM135.6 38.38c.694 0 1.421-.057 2.113-.236.673-.175 1.542-.525 2.245-1.283l-4.396-4.082c.182-.197.36-.31.474-.37.111-.059.178-.075.171-.073a1.257 1.257 0 01-.164.025 4.41 4.41 0 01-.443.019v6zm4.427-1.595c.966-1.115 1.253-2.464 1.253-3.645h-6c0 .125-.016.137.004.073.023-.074.082-.212.209-.358l4.534 3.93zm1.253-3.645v-.76h-6v.76h6zm-2.479-3.714a18.401 18.401 0 00-3.201-.286v6c.697 0 1.416.063 2.159.194l1.042-5.908zm-3.201-.286c-1.08 0-2.485.164-3.654 1.02l3.548 4.84a1.263 1.263 0 01-.25.145c-.054.023-.082.029-.07.026a1 1 0 01.124-.018c.074-.007.173-.013.302-.013v-6zm-3.654 1.02c-1.19.873-1.826 2.182-1.826 3.62h6c0 .15-.032.393-.167.662a1.553 1.553 0 01-.459.557l-3.548-4.838zm-1.826 3.62c0 1.45.641 2.849 1.994 3.72 1.126.728 2.433.88 3.486.88v-6c-.261 0-.403-.022-.454-.033-.054-.011.049.002.22.112.192.124.415.336.574.644.154.298.18.553.18.677h-6zm40.24 4.56l1.845-2.366-.03-.022-1.815 2.388zm0-8.92l-1.88-2.338-.022.018 1.902 2.32zm7.84-1.52l-.299 2.985a3 3 0 003.298-3.065l-2.999.08zm-.12-4.52l2.999-.08a2.998 2.998 0 00-3.086-2.919l.087 2.999zm-7.36 0l-.239 2.99c.042.004.084.006.127.008l.112-2.998zm-1.64-.8l-2.355 1.859c.037.046.074.09.113.134l2.242-1.993zm-.56-1.72l-2.99-.25a2.57 2.57 0 00-.007.125l2.997.125zm.8-1.6l-1.932-2.295a1.95 1.95 0 00-.061.053l1.993 2.242zm1.72-.56l-.249 2.99.091.006.158-2.996zm3.28.12l-.068 3h.068v-3zm3.64-.04l.065 3a2.998 2.998 0 002.932-3.125l-2.997.125zm-.08-3.8l2.997-.13a3 3 0 00-3.058-2.87l.061 3zm-3.8.04l-.065 3h.065v-3zm-3.36-.08l-.12 2.998.041.001.079-2.999zm-1.64-.76l-2.355 1.859c.037.046.074.09.113.134l2.242-1.993zm-.56-1.76l-2.99-.25a5.562 5.562 0 00-.008.13l2.998.12zm.8-1.6l-1.932-2.295a2.034 2.034 0 00-.061.053l1.993 2.242zm1.72-.56l-.249 2.99.047.003.202-2.993zm6.76.12l.063 3a3 3 0 002.937-3h-3zm.68-5.12l2.121 2.121.06-.061-2.181-2.06zm3.36 0l-2.181 2.06c.039.041.08.082.121.121l2.06-2.181zm.76 4.96l-2.997.13a2.999 2.999 0 003.216 2.862l-.219-2.992zm3.16-.24l.236 2.99c.026-.001.052-.004.078-.007l-.314-2.983zm2.76-.32l-.372-2.977-.012.002.384 2.975zm1.72.48l-1.859 2.355c.045.035.091.07.139.103l1.72-2.458zm.92 1.52l2.979-.357a.074.074 0 01-.002-.015l-2.977.372zm-.48 1.8l-2.4-1.8-.015.02 2.415 1.78zm-1.52.88l.341 2.98.031-.003-.372-2.977zm-3.08.28l-.214-2.992h-.005l.219 2.992zm-3.4.2l-.136-2.997a3 3 0 00-2.864 2.997h3zm0 1.88h-3c0 .042.001.083.003.125l2.997-.125zm.08 1.92l-2.997.125a2.998 2.998 0 003.147 2.871l-.15-2.996zm3.04-.2l.249 2.99.073-.007-.322-2.983zm2.72-.32l.384 2.975c.036-.004.073-.01.109-.016l-.493-2.959zm1.72.44l-1.859 2.355.059.045 1.8-2.4zm.92 1.56l2.977-.372-2.977.372zm-.48 1.76l-2.4-1.8-.015.02 2.415 1.78zm-1.52.88l.351 2.98.021-.003-.372-2.977zm-6.32.48l-.136-2.997a3.001 3.001 0 00-2.86 3.147l2.996-.15zm.08 3.04h-3l.001.083 2.999-.083zm.08 2.68l-2.998.097a2.998 2.998 0 002.154 2.782L183 28.94zm4.4 1.68l1.3-2.704-1.3 2.704zm3.68 2.12l-1.72 2.458c.028.02.056.039.085.057l1.635-2.515zm.96 1.52l-2.962.474.02.114 2.942-.588zm-.36 1.8l-2.458-1.72 2.458 1.72zm-1.56 1l.493 2.96.095-.018-.588-2.942zm-1.76-.4l-1.744 2.441.024.017 1.72-2.458zm-2.48-1.52l-1.463 2.619.059.032 1.404-2.651zm-2.84-1.36l1.127-2.78a3 3 0 00-4.123 2.628l2.996.152zm-2.08 4.64l1.832 2.376-1.832-2.376zm-3.2-3.6l2.198 2.041c.024-.025.047-.05.069-.076l-2.267-1.965zm.52-2.44h3a3 3 0 00-2.479-2.954l-.521 2.954zm-4.56.2l1.774 2.42-1.774-2.42zm1.92 4.32c-1.716 0-2.766-.404-3.435-.925l-3.69 4.73c1.998 1.559 4.467 2.195 7.125 2.195v-6zm-3.465-.948c-.427-.325-.815-.862-.815-2.172h-6c0 2.744.945 5.247 3.185 6.948l3.63-4.776zm-.815-2.172c0-.968.304-1.55.902-2.04l-3.804-4.64c-2.069 1.696-3.098 4.021-3.098 6.68h6zm.88-2.022c.685-.551 1.77-.978 3.56-.978v-6c-2.744 0-5.285.666-7.32 2.302l3.76 4.676zm3.56-.978c.7 0 1.4.035 2.101.105l.598-5.97a27.113 27.113 0 00-2.699-.135v6zm5.399-2.96l-.12-4.52-5.998.16.12 4.52 5.998-.16zm-3.206-7.439c-2.725.079-5.11.078-7.161.001l-.224 5.996c2.215.083 4.737.082 7.559 0l-.174-5.997zm-7.034.009a.64.64 0 01.166.054.657.657 0 01.197.143l-4.484 3.986c.964 1.084 2.24 1.685 3.643 1.797l.478-5.98zm.476.331a.43.43 0 01.058.12c.024.074.025.13.024.144l-5.994-.25a5.525 5.525 0 001.202 3.704l4.71-3.718zm.075.388a.645.645 0 01-.067.213c-.05.1-.107.16-.13.18l-3.986-4.484a5.326 5.326 0 00-1.797 3.593l5.98.498zm-.258.446a.613.613 0 01-.193.098.716.716 0 01-.268.037l.498-5.98c-1.458-.121-2.809.336-3.901 1.255l3.864 4.59zm-.37.14c1.048.056 2.171.097 3.37.124l.136-5.998a107.117 107.117 0 01-3.19-.117l-.316 5.992zm3.438.125c1.222 0 2.457-.014 3.705-.04l-.13-6c-1.206.027-2.397.04-3.575.04v6zm6.637-3.165a43 43 0 01-.037-1.795h-6c0 .682.014 1.363.043 2.045l5.994-.25zm-.037-1.795c0-.682-.014-1.352-.043-2.01l-5.994.26c.025.568.037 1.152.037 1.75h6zm-3.101-4.88c-1.288.027-2.534.04-3.739.04v6a189.8 189.8 0 003.861-.04l-.122-6zm-3.674.04a727.648 727.648 0 01-3.346-.079l-.158 5.998c1.019.027 2.143.053 3.374.08l.13-5.998zm-3.305-.078a.69.69 0 01.231.066.782.782 0 01.251.179l-4.484 3.986c.991 1.116 2.316 1.707 3.762 1.765l.24-5.996zm.595.38a.473.473 0 01.064.128c.021.066.018.104.019.09l-5.996-.24a5.586 5.586 0 001.203 3.739l4.71-3.718zm.075.347a.645.645 0 01-.067.213c-.05.1-.107.16-.13.18l-3.986-4.484a5.326 5.326 0 00-1.797 3.593l5.98.498zm-.258.446a.613.613 0 01-.193.098.716.716 0 01-.268.037l.498-5.98c-1.458-.121-2.809.336-3.901 1.255l3.864 4.59zm-.414.138c2.082.14 4.426.181 7.025.126l-.126-5.998c-2.468.052-4.63.012-6.495-.114l-.404 5.986zm9.962-2.873V6.94h-6v3.44h6zm0-3.44a.737.737 0 01-.199.441l-4.242-4.242c-1.041 1.04-1.559 2.374-1.559 3.801h6zm-.139.38a.735.735 0 01-.239.157.716.716 0 01-.262.063v-6a5.216 5.216 0 00-3.861 1.66l4.362 4.12zm-.501.22a.716.716 0 01-.262-.063.735.735 0 01-.239-.157l4.362-4.12a5.216 5.216 0 00-3.861-1.66v6zm-.38-.099a.733.733 0 01-.157-.24.706.706 0 01-.063-.261h6a5.215 5.215 0 00-1.66-3.861l-4.12 4.362zm-.22-.501V8.5h6V6.941h-6zm0 1.56c0 .583.015 1.2.043 1.85l5.994-.26a36.825 36.825 0 01-.037-1.59h-6zm3.259 4.712c1.099-.08 2.158-.16 3.177-.241l-.472-5.982c-1.007.08-2.055.16-3.143.239l.438 5.984zm3.255-.248c1.032-.11 1.976-.218 2.83-.329l-.768-5.95c-.799.103-1.695.207-2.69.311l.628 5.967zm2.818-.327a.718.718 0 01-.268-.027.716.716 0 01-.243-.115l3.718-4.71a5.225 5.225 0 00-3.951-1.102l.744 5.954zm-.372-.04a.837.837 0 01-.217-.244.876.876 0 01-.12-.32l5.954-.745a5.096 5.096 0 00-2.177-3.606l-3.44 4.916zm-.339-.58c-.001-.014-.006-.083.02-.18a.554.554 0 01.079-.177l4.8 3.6a5.416 5.416 0 001.059-3.957l-5.958.714zm.084-.337a.836.836 0 01.252-.216.764.764 0 01.271-.1l.744 5.953c1.434-.18 2.688-.89 3.563-2.077l-4.83-3.56zm.554-.32c-.884.1-1.867.19-2.953.268l.428 5.984a76.413 76.413 0 003.207-.291l-.682-5.962zm-2.958.268c-1.064.078-2.17.143-3.317.195l.272 5.994c1.199-.055 2.36-.123 3.483-.205l-.438-5.984zm-6.181 3.192v1.88h6v-1.88h-6zm.003 2.005l.08 1.92 5.994-.25-.08-1.92-5.994.25zm3.227 4.791a94.99 94.99 0 003.139-.206l-.498-5.98c-.924.077-1.904.142-2.941.194l.3 5.992zm3.212-.213c1.004-.109 1.931-.218 2.782-.328l-.768-5.95c-.803.103-1.689.207-2.658.312l.644 5.966zm2.891-.344a.827.827 0 01-.326-.023.846.846 0 01-.306-.141l3.718-4.71a5.101 5.101 0 00-4.072-1.044l.986 5.918zm-.573-.119a.667.667 0 01-.154-.186.765.765 0 01-.103-.282l5.954-.744c-.185-1.478-.937-2.718-2.097-3.588l-3.6 4.8zm-.257-.468a.656.656 0 01.023-.241.539.539 0 01.074-.171l4.8 3.6c.849-1.132 1.237-2.492 1.057-3.932l-5.954.744zm.082-.392a.836.836 0 01.252-.216.764.764 0 01.271-.1l.744 5.953c1.434-.18 2.688-.89 3.563-2.077l-4.83-3.56zm.544-.32a67.04 67.04 0 01-2.833.268l.448 5.984a73.74 73.74 0 003.087-.293l-.702-5.959zm-2.833.268c-1.035.078-2.125.143-3.272.195l.272 5.994c1.2-.055 2.35-.123 3.448-.205l-.448-5.984zm-6.132 3.342c.051 1.022.076 1.985.076 2.89h6a63.47 63.47 0 00-.084-3.19l-5.992.3zm.077 2.973c.027.964.054 1.862.081 2.694l5.996-.194c-.026-.821-.053-1.71-.079-2.666l-5.998.166zm2.235 5.476c1.398.41 2.711.912 3.944 1.505l2.6-5.408a31.904 31.904 0 00-4.856-1.855l-1.688 5.758zm3.944 1.505c1.266.608 2.348 1.235 3.26 1.874l3.44-4.916c-1.221-.855-2.592-1.64-4.1-2.366l-2.6 5.408zm3.345 1.931a.916.916 0 01-.367-.521l5.924-.948c-.231-1.446-.995-2.721-2.287-3.561l-3.27 5.03zm-.347-.407a.796.796 0 01.124-.509l4.916 3.441c.866-1.237 1.13-2.678.844-4.108l-5.884 1.176zm.124-.508a.633.633 0 01.169-.156c.085-.054.144-.066.141-.066l1.176 5.884c1.387-.278 2.592-1.025 3.43-2.222l-4.916-3.44zm.405-.24a.654.654 0 01.238.015c.115.026.19.07.215.087l-3.44 4.916a5.297 5.297 0 003.973.901l-.986-5.918zm.477.119a24.857 24.857 0 00-2.82-1.73l-2.808 5.302c.803.425 1.514.863 2.14 1.31l3.488-4.882zm-2.761-1.698A28.304 28.304 0 00184.167 31l-2.254 5.56c.874.355 1.708.754 2.504 1.199l2.926-5.238zm-7.299 1.107c-.077 1.516-.529 2.118-.916 2.416l3.664 4.752c2.173-1.675 3.108-4.167 3.244-6.864l-5.992-.304zm-.916 2.416c-.58.447-1.623.856-3.488.856v6c2.668 0 5.172-.578 7.152-2.104l-3.664-4.752zM175.6 38.38c.694 0 1.421-.057 2.113-.236.673-.175 1.542-.525 2.245-1.283l-4.396-4.082c.182-.197.36-.31.474-.37.111-.059.178-.075.171-.073a1.257 1.257 0 01-.164.025 4.41 4.41 0 01-.443.019v6zm4.427-1.595c.966-1.115 1.253-2.464 1.253-3.645h-6c0 .125-.016.137.004.073.023-.074.082-.212.209-.358l4.534 3.93zm1.253-3.645v-.76h-6v.76h6zm-2.479-3.714a18.401 18.401 0 00-3.201-.286v6c.697 0 1.416.063 2.159.194l1.042-5.908zm-3.201-.286c-1.08 0-2.485.164-3.654 1.02l3.548 4.84a1.263 1.263 0 01-.25.145c-.054.023-.082.029-.07.026a1 1 0 01.124-.018c.074-.007.173-.013.302-.013v-6zm-3.654 1.02c-1.19.873-1.826 2.182-1.826 3.62h6c0 .15-.032.393-.167.662a1.553 1.553 0 01-.459.557l-3.548-4.838zm-1.826 3.62c0 1.45.641 2.849 1.994 3.72 1.126.728 2.433.88 3.486.88v-6c-.261 0-.403-.022-.454-.033-.054-.011.049.002.22.112.192.124.415.336.574.644.154.298.18.553.18.677h-6z" fill="#EB537B" mask="url(#b)"/><defs><linearGradient id="paint0_linear_10944_61219" x1="0" y1=".5" x2="195.714" y2="55.697" gradientUnits="userSpaceOnUse"><stop stop-color="#FFF9EC"/><stop offset=".507" stop-color="#FFE9B8"/><stop offset="1" stop-color="#FFF9EA"/></linearGradient></defs></svg>