<svg width="429" height="83" fill="none" xmlns="http://www.w3.org/2000/svg"><path d="M427.193 80.99a3307.783 3307.783 0 00-20.338-26.482 4635.221 4635.221 0 0120.338-18.663 1028.17 1028.17 0 00-38.609-7.059v32.248c.036 8.427-27.866.89-27.902 8.74 22.372 3.038 44.577 6.774 66.511 11.226v-.01zM68.32 56.86v12.906c-.035-7.84-27.925-.303-27.902-8.74 9.266-1.514 18.566-2.9 27.902-4.167z" fill="#EB537B" stroke="#EB537B" stroke-width="2.754" stroke-linejoin="round"/><path d="M1.81 80.988a3492.91 3492.91 0 0120.338-26.492A4634.746 4634.746 0 001.809 35.834a1028.619 1028.619 0 0138.61-7.06v32.249c-.036 8.426 27.866.89 27.901 8.739C45.95 72.8 23.743 76.536 1.81 80.988zM360.684 56.86v12.906c.024-7.84 27.937-.303 27.902-8.74-9.265-1.514-18.566-2.9-27.902-4.167z" fill="#EB537B" stroke="#EB537B" stroke-width="2.754" stroke-linejoin="round"/><path d="M68.32 56.86v12.906c-.035-7.84-27.925-.303-27.902-8.74 9.266-1.514 18.566-2.9 27.902-4.167zm292.364 0v12.906c.024-7.84 27.937-.303 27.902-8.74-9.265-1.514-18.566-2.9-27.902-4.167z" fill="#fff"/><path d="M388.311 15.843V60.98c-114.09-18.588-233.829-18.57-347.907.046V15.89c114.078-18.616 233.817-18.625 347.907-.046z" fill="#EB537B" stroke="#EB537B" stroke-width="2.754" stroke-linejoin="round"/><path d="M66.963 44.492c-.367.053-.678-.022-.931-.225a1.24 1.24 0 01-.427-.793c-.048-.338.015-.632.189-.881.187-.267.464-.427.83-.48l6.74-.97-.341-2.402-4.36.628c-.368.053-.678-.022-.931-.225a1.27 1.27 0 01-.453-.812c-.048-.337.022-.64.209-.906.187-.267.463-.427.83-.48l4.36-.628-.29-2.049-4.25.613c-.367.053-.685-.021-.953-.223a1.3 1.3 0 01-.417-1.356c-.26.278-.523.54-.787.788-.267.233-.527.458-.78.675-.335.287-.694.444-1.08.47a1.16 1.16 0 01-.978-.399c-.268-.306-.375-.635-.32-.988.07-.354.251-.658.545-.91a28.335 28.335 0 002.446-2.24 46.652 46.652 0 002.415-2.619 33.2 33.2 0 001.94-2.482c.646-.933 1.343-1.46 2.09-1.583.761-.125 1.651.182 2.67.92a56.16 56.16 0 002.458 1.646c.935.57 1.912 1.125 2.933 1.667 1.034.526 2.042.98 3.025 1.363.348.13.6.378.757.745.17.35.175.701.015 1.054-.183.401-.475.66-.878.779-.39.1-.793.061-1.208-.119a54.337 54.337 0 01-3.072-1.535 51.115 51.115 0 01-3.024-1.835 32.522 32.522 0 01-2.559-1.879c-.457-.369-.858-.296-1.205.219a37.422 37.422 0 01-2.053 2.634 62.84 62.84 0 01-2.522 2.813.672.672 0 01.195-.05l11.143-1.606c.367-.053.677.022.93.225.254.204.405.474.453.812.048.338-.02.647-.205.929-.187.266-.464.426-.831.479l-4.14.597.29 2.048 4.273-.615c.367-.053.67.023.909.228.253.203.404.474.452.812.046.323-.024.625-.209.907-.172.264-.441.423-.808.476l-4.273.615.341 2.401 6.695-.964c.367-.053.67.023.909.228.251.189.4.452.449.79.046.323-.025.618-.212.885-.172.264-.442.423-.809.476l-16.185 2.332zm29.112-4.098c-1.617.221-2.94.23-3.97.026-1.014-.205-1.792-.712-2.334-1.522-.54-.809-.916-2-1.125-3.574l-1.01-7.609c-.212-1.587-.162-2.844.15-3.77.31-.926.928-1.624 1.853-2.095.94-.473 2.218-.82 3.835-1.04l5.643-.773c1.631-.223 2.954-.231 3.969-.026 1.015.206 1.793.713 2.334 1.522.542.81.918 2.008 1.129 3.596l1.011 7.61c.209 1.573.158 2.822-.153 3.748-.311.926-.929 1.624-1.854 2.095-.925.47-2.203.818-3.835 1.04l-5.643.772zm-.308-2.316l5.644-.771c.999-.137 1.78-.341 2.342-.613.563-.271.934-.689 1.113-1.252.194-.566.225-1.348.092-2.348l-1.01-7.61c-.133-.999-.367-1.746-.702-2.239-.32-.495-.787-.798-1.4-.909-.613-.11-1.419-.097-2.419.04l-5.643.771c-1 .137-1.78.34-2.343.612-.562.272-.94.69-1.135 1.256-.18.563-.203 1.345-.07 2.345l1.011 7.609c.133 1 .36 1.747.68 2.242.334.494.808.796 1.422.906.613.111 1.42.098 2.418-.039zm-2.385-1.403c-.339.047-.618-.027-.838-.222a1.148 1.148 0 01-.39-.733 1.157 1.157 0 01.185-.81c.162-.247.412-.394.75-.44l3.659-.5-.401-3.022-2.778.38a1.043 1.043 0 01-.838-.223 1.148 1.148 0 01-.389-.732 1.076 1.076 0 01.187-.79 1.05 1.05 0 01.75-.439l2.778-.38-.273-2.05-3.35.458a1.043 1.043 0 01-.838-.223 1.148 1.148 0 01-.39-.733 1.157 1.157 0 01.185-.81 1.05 1.05 0 01.75-.44l9.302-1.272c.338-.046.617.028.837.222.221.195.35.439.39.733a1.16 1.16 0 01-.184.811c-.162.247-.412.393-.75.44l-3.395.464.273 2.05 2.799-.382c.338-.046.617.028.838.222.218.18.347.417.386.711.039.294-.022.565-.184.811-.162.247-.412.393-.75.44l-.485.066c.109.03.213.083.313.16.081.048.214.142.397.282.181.125.363.257.546.397.196.123.328.217.397.282a.981.981 0 01.389.733 1.08 1.08 0 01-.494 1.01l.308-.041c.338-.047.618.027.838.222.22.194.35.439.389.733.039.294-.022.564-.184.81-.162.247-.412.394-.75.44l-9.986 1.365zm5.923-3.055l2.579-.353a.916.916 0 01-.313-.159 3.158 3.158 0 00-.421-.302c-.2-.152-.399-.297-.597-.435l-.424-.323a.862.862 0 01-.38-.667 1.038 1.038 0 01.433-.957l-1.278.174.401 3.022zm23.877 2.52a1.357 1.357 0 01-1.055-.058 1.282 1.282 0 01-.695-.761c-.121-.346-.1-.684.064-1.012.162-.343.416-.575.762-.697 1.601-.583 2.741-1.39 3.421-2.423.695-1.034.975-2.29.84-3.766-.085-.93-.368-1.746-.849-2.446a4.804 4.804 0 00-1.937-1.628c-.795-.387-1.728-.582-2.801-.585-.039 2.506-.293 4.698-.762 6.575-.456 1.86-1.066 3.325-1.832 4.396-.753 1.054-1.595 1.625-2.525 1.712a3.653 3.653 0 01-2.211-.485c-.692-.396-1.269-1.005-1.731-1.826-.448-.822-.726-1.83-.835-3.027a8.634 8.634 0 01.372-3.5 8.724 8.724 0 011.735-3.023 9.413 9.413 0 012.838-2.189c1.125-.567 2.381-.917 3.769-1.047 1.684-.159 3.205.026 4.564.554 1.372.511 2.488 1.308 3.346 2.389.857 1.066 1.356 2.36 1.495 3.882.195 2.142-.217 3.983-1.238 5.524-1.008 1.525-2.586 2.672-4.735 3.44zm-7.596-3.42c.266-.025.548-.275.848-.75.312-.492.608-1.168.887-2.028.278-.86.514-1.866.707-3.017a26.31 26.31 0 00.32-3.829c-1.131.33-2.059.85-2.784 1.558a6.078 6.078 0 00-1.568 2.405 6.634 6.634 0 00-.373 2.761c.092 1.005.317 1.751.674 2.239.372.486.802.707 1.289.66zm19.271.26a1.376 1.376 0 01-1.003-.332 1.375 1.375 0 01-.466-.949 1.26 1.26 0 01.335-.982c.263-.286.579-.442.949-.468l7.746-.54c.903-.063 1.579-.177 2.029-.342.448-.18.731-.505.848-.974.132-.47.166-1.179.101-2.126-.065-.962-.194-1.659-.387-2.092a1.28 1.28 0 00-.97-.824c-.454-.117-1.132-.144-2.035-.081l-7.524.524a1.301 1.301 0 01-.981-.333 1.33 1.33 0 01-.466-.948 1.263 1.263 0 01.335-.983c.248-.285.557-.44.927-.466l7.525-.525c1.154-.08 2.114-.058 2.881.067.781.124 1.409.392 1.883.805.474.413.826.999 1.055 1.756.245.756.407 1.726.487 2.91.081 1.184.051 2.167-.09 2.95-.125.782-.395 1.41-.809 1.885-.413.475-.999.828-1.756 1.06-.758.23-1.714.387-2.868.467l-7.746.54zm21.768.095a1.34 1.34 0 01-1.069.012 1.362 1.362 0 01-.751-.74 1.29 1.29 0 01-.009-1.047c.145-.364.392-.622.74-.774a29.628 29.628 0 003.499-1.722 35.788 35.788 0 003.365-2.16 32.058 32.058 0 002.908-2.382c.879-.818 1.589-1.598 2.13-2.34.237-.31.539-.496.907-.56.383-.065.721.021 1.016.258.308.222.494.524.558.906a1.26 1.26 0 01-.259 1.017c-.57.773-1.336 1.608-2.3 2.505a38.67 38.67 0 01-3.251 2.644 47.728 47.728 0 01-3.728 2.47 29.67 29.67 0 01-3.756 1.913zm1.462-8.855a32.24 32.24 0 00-1.963-1.367 19.985 19.985 0 00-1.954-1.167 1.367 1.367 0 01-.665-.812 1.376 1.376 0 01.914-1.72 1.25 1.25 0 011.053.101c.413.231.88.518 1.403.862.536.328 1.051.658 1.543.988.507.33.923.613 1.246.848.309.221.495.524.559.906.078.368.007.706-.215 1.014a1.436 1.436 0 01-.906.583 1.297 1.297 0 01-1.015-.236zm17.263 9.543a1.277 1.277 0 01-.48-.917 1.372 1.372 0 01.318-1.014 19.372 19.372 0 002.799-4.317 22.856 22.856 0 001.742-5.167c-.829.077-1.605.152-2.33.225-.71.057-1.176.097-1.398.12-.37.03-.7-.076-.992-.317a1.352 1.352 0 01-.48-.939c-.03-.385.076-.723.318-1.014a1.3 1.3 0 01.939-.482c.162-.021.473-.048.932-.08.459-.033.992-.069 1.599-.107l1.864-.162c.136-1.118.204-2.271.204-3.459 0-.386.136-.71.408-.973a1.23 1.23 0 01.965-.394c.386 0 .71.136.973.407.276.257.407.578.392.965a19.06 19.06 0 01-.05 1.627 70.57 70.57 0 01-.138 1.631l.643-.07c1.613-.122 2.866.03 3.757.456.892.425 1.484 1.166 1.776 2.224.293 1.057.332 2.488.118 4.293-.18 1.52-.475 2.764-.883 3.73-.394.965-.893 1.705-1.497 2.218a4.224 4.224 0 01-2.035.948c-.766.148-1.604.166-2.514.053a1.307 1.307 0 01-.91-.521 1.333 1.333 0 01-.284-1.014c.06-.388.241-.692.545-.912a1.266 1.266 0 011.014-.262c.493.07.938.075 1.337.015.398-.06.755-.237 1.07-.531.331-.295.61-.766.838-1.413.242-.663.438-1.561.588-2.695.163-1.18.19-2.056.079-2.63-.111-.59-.393-.972-.845-1.148-.437-.176-1.092-.232-1.966-.168a20.87 20.87 0 00-1.264.116 29.179 29.179 0 01-2.03 6.38c-.905 1.994-1.968 3.713-3.19 5.156a1.23 1.23 0 01-.94.46 1.339 1.339 0 01-.992-.318zm23.813-.209c-.337.157-.693.167-1.068.029a1.361 1.361 0 01-.797-.69 1.343 1.343 0 01-.05-1.045c.123-.374.353-.64.691-.798 2.299-1.117 4.223-2.423 5.771-3.92 1.548-1.496 2.67-3.108 3.366-4.833.292-.735.321-1.292.089-1.672-.233-.38-.787-.557-1.662-.533l-8.407.23c-.37.01-.7-.114-.989-.373a1.305 1.305 0 01-.426-.945c-.01-.386.115-.716.375-.99a1.38 1.38 0 01.967-.427l8.541-.234c1.349-.037 2.401.186 3.156.67.769.468 1.232 1.146 1.39 2.032.171.87.02 1.898-.453 3.084-.819 2.114-2.124 4.064-3.917 5.85-1.777 1.784-3.97 3.306-6.577 4.565zm17.737-1.951a1.154 1.154 0 01-.851-.342 1.23 1.23 0 01-.37-.861 1.107 1.107 0 01.342-.852c.233-.241.513-.364.839-.37l5.028-.085-.061-3.715-3.048.051a1.154 1.154 0 01-.851-.341 1.23 1.23 0 01-.371-.862 1.114 1.114 0 01.342-.851c.234-.241.514-.365.84-.37l8.453-.144c.341-.006.633.108.874.34.241.22.364.5.37.84.005.326-.109.618-.342.874a1.182 1.182 0 01-.862.37l-3.003.052.062 3.715 5.072-.087a1.11 1.11 0 01.851.342c.241.218.364.498.37.84.005.326-.109.617-.342.873a1.108 1.108 0 01-.839.37l-12.503.213zm30.889 2.73c-1.986.296-3.661.413-5.026.348-1.365-.05-2.464-.241-3.297-.576-.819-.336-1.415-.784-1.79-1.345a3.547 3.547 0 01-.57-1.953c-.008-1.113.43-2.154 1.313-3.125.898-.97 2.197-1.826 3.898-2.565a1.747 1.747 0 00-.872-.594c-.743-.217-1.477-.13-2.201.26-.709.391-1.402.96-2.079 1.707-.251.269-.583.42-.999.452-.4.018-.727-.106-.981-.371a1.386 1.386 0 01-.341-.977c.027-.37.181-.676.461-.915a12.965 12.965 0 001.899-2.039 13.532 13.532 0 001.408-2.257c-.638.02-1.238.038-1.802.057-.549.004-1.023 0-1.424-.012a1.269 1.269 0 01-.937-.371 1.346 1.346 0 01-.385-.954c.012-.37.151-.676.416-.915a1.31 1.31 0 01.955-.34 66.58 66.58 0 001.869.008l2.313-.062c.072-.282.137-.557.195-.824.057-.268.107-.535.15-.802.056-.371.217-.67.483-.894.265-.24.583-.338.955-.296.371.042.668.203.893.483.224.28.316.606.274.977a4.621 4.621 0 01-.085.601 9.444 9.444 0 01-.151.624c.563-.033 1.089-.067 1.579-.1.489-.048.926-.103 1.311-.165.371-.048.698.04.981.26.298.205.471.493.518.863.047.37-.047.698-.282.982a1.19 1.19 0 01-.865.473c-.548.063-1.178.12-1.89.17-.711.05-1.453.092-2.224.127-.321.73-.672 1.414-1.053 2.055a3.465 3.465 0 011.023-.075c.326.013.638.063.935.15.446.115.878.32 1.295.613.432.279.813.676 1.143 1.193a37.63 37.63 0 012.31-.595 39.778 39.778 0 012.622-.487 1.24 1.24 0 01.981.238c.298.206.47.494.518.864a1.21 1.21 0 01-.238.98 1.368 1.368 0 01-.887.519c-.859.11-1.652.242-2.378.395a28.04 28.04 0 00-2.021.46c.077.4.139.837.187 1.312.048.474.074.985.078 1.534.003.371-.129.69-.394.96a1.27 1.27 0 01-.932.385 1.27 1.27 0 01-.937-.372 1.346 1.346 0 01-.385-.954 13.746 13.746 0 00-.147-2.023c-1.213.513-2.092 1.06-2.637 1.643-.53.568-.793 1.118-.789 1.652.003.4.243.726.719.974.476.249 1.271.384 2.384.406 1.112.021 2.632-.101 4.558-.367.356-.047.683.04.981.26.298.205.471.493.518.863a1.24 1.24 0 01-.26.96 1.355 1.355 0 01-.864.517zm8.609-.926c-.371-.018-.661-.152-.872-.4a1.242 1.242 0 01-.27-.86c.017-.341.134-.617.352-.83.234-.225.536-.329.907-.31l6.799.341.118-2.422-4.399-.22c-.371-.02-.661-.153-.872-.401a1.274 1.274 0 01-.291-.883 1.22 1.22 0 01.376-.85c.233-.226.535-.33.906-.311l4.4.22.1-2.066-4.288-.215c-.371-.019-.669-.153-.894-.402a1.302 1.302 0 01-.154-1.41c-.308.221-.615.429-.921.621-.306.178-.604.349-.894.512-.382.219-.765.303-1.149.255a1.168 1.168 0 01-.885-.58c-.205-.352-.248-.695-.128-1.03a1.57 1.57 0 01.707-.79c.9-.474 1.841-1.05 2.824-1.73a46.064 46.064 0 002.865-2.105 33.11 33.11 0 002.373-2.064c.811-.791 1.594-1.175 2.351-1.152.771.024 1.587.495 2.448 1.415.607.64 1.308 1.335 2.103 2.088a57.86 57.86 0 002.566 2.2 33.54 33.54 0 002.713 1.919c.317.194.518.486.603.877.101.376.039.722-.184 1.038-.255.358-.591.557-1.009.595-.402.024-.79-.092-1.164-.348a54.839 54.839 0 01-2.726-2.097 51.085 51.085 0 01-2.624-2.382 32.595 32.595 0 01-2.158-2.336c-.379-.45-.788-.455-1.225-.017a37.352 37.352 0 01-2.512 2.19 63.01 63.01 0 01-3.007 2.278.675.675 0 01.201-.012l11.244.564c.37.019.661.152.871.4.211.249.308.543.291.884a1.3 1.3 0 01-.376.872c-.234.226-.536.33-.907.31l-4.177-.209-.101 2.067 4.311.216c.37.019.653.152.849.4.211.248.308.542.291.883-.016.326-.141.61-.375.85-.219.226-.514.33-.884.312l-4.311-.216-.118 2.422 6.755.339c.37.018.654.151.849.399.212.233.309.52.292.861-.015.326-.14.602-.374.828-.219.226-.514.33-.884.312l-16.332-.82zm34.219 2.417c-.549-.024-.951-.175-1.206-.453-.256-.279-.389-.648-.399-1.109-.011-.446.137-.803.445-1.072.309-.268.7-.393 1.174-.372.711.03 1.262-.005 1.652-.107.391-.102.689-.32.896-.652.222-.347.414-.843.574-1.49.162-.66.296-1.383.403-2.165.122-.796.231-1.794.325-2.992.067-.873-.064-1.48-.391-1.82-.313-.34-.913-.53-1.802-.568l-2.912-.126c-.25 2.068-.705 3.882-1.364 5.442a11.498 11.498 0 01-2.75 4.002c-1.19 1.106-2.706 2.036-4.548 2.788-.468.188-.885.214-1.251.08-.366-.12-.63-.369-.792-.747a1.285 1.285 0 01-.001-1.047c.149-.364.419-.62.811-.766 1.479-.56 2.695-1.25 3.65-2.07.955-.835 1.704-1.88 2.246-3.133.558-1.267.943-2.825 1.153-4.671l-5.735-.247c-.385-.017-.691-.156-.917-.418a1.283 1.283 0 01-.318-.927 1.28 1.28 0 01.394-.896c.248-.242.564-.354.949-.338l5.846.252.133-3.179c.018-.43.166-.765.443-1.005a1.48 1.48 0 011.039-.334c.385.016.713.157.984.42.271.265.398.612.38 1.042l-.133 3.178 2.934.127c1.215.052 2.186.25 2.914.593.728.343 1.24.877 1.537 1.603.311.726.411 1.695.301 2.908a64.564 64.564 0 01-.361 3.302 43.47 43.47 0 01-.415 2.477c-.26 1.25-.627 2.214-1.101 2.892a3.262 3.262 0 01-1.837 1.324c-.766.234-1.75.325-2.95.274zm11.226 2.553c-.498.068-.895.012-1.19-.168-.282-.163-.472-.428-.569-.796-.094-.398-.036-.757.175-1.078.21-.306.57-.486 1.082-.537a26.713 26.713 0 003.854-.744c1.195-.324 2.3-.717 3.315-1.18a16.437 16.437 0 01-1.693-2.522 16.558 16.558 0 01-1.223-2.967l-1.638-.169c-.369-.038-.66-.187-.872-.447a1.224 1.224 0 01-.246-.898 1.22 1.22 0 01.419-.83c.261-.226.576-.32.945-.282l5.688.586.217-2.17-7.591-.782c-.355-.036-.631-.176-.83-.42a1.247 1.247 0 01-.226-.874c.034-.34.165-.609.394-.81.244-.198.542-.279.896-.242l7.592.782.208-2.081c.041-.414.207-.725.496-.933.29-.224.628-.316 1.011-.276.384.04.696.198.936.476.242.264.343.602.301 1.015l-.208 2.081 7.569.78c.354.037.624.176.808.419.199.244.282.536.248.876a1.196 1.196 0 01-.416.806c-.229.2-.521.282-.875.246l-7.569-.78-.217 2.17 1.239.127c1.107.114 1.926.422 2.457.925.531.502.768 1.115.71 1.84-.056.71-.434 1.431-1.133 2.164a20.183 20.183 0 01-3.112 2.722c.903.66 1.887 1.253 2.952 1.78 1.082.514 2.239.939 3.472 1.275.436.12.748.345.939.678.192.318.214.685.068 1.103-.146.417-.404.689-.774.815-.358.142-.768.144-1.231.007a24.421 24.421 0 01-4.207-1.753 19.836 19.836 0 01-3.601-2.45c-2.421 1.256-5.278 2.095-8.57 2.516zm8.96-5.742a15.233 15.233 0 002.579-2.083c.413-.405.572-.724.476-.958-.095-.248-.481-.407-1.16-.477l-4.404-.454c.556 1.444 1.392 2.768 2.509 3.972zm13.186 8.201c-.97-.132-1.425-.598-1.364-1.398.038-.4.183-.701.435-.907.251-.205.585-.294 1-.267.432.014.722-.03.87-.129.15-.114.248-.348.295-.7l.511-3.86c-.218.06-.427.113-.628.16-.186.05-.356.095-.511.133-.387.097-.734.065-1.042-.097-.306-.176-.507-.466-.603-.868a1.242 1.242 0 01.172-.964c.188-.29.473-.467.856-.535.277-.052.6-.12.97-.205.37-.084.749-.175 1.136-.272l.54-4.08-1.72-.234a1.125 1.125 0 01-.772-.442 1.123 1.123 0 01-.222-.861c.043-.324.189-.58.439-.771.251-.206.539-.286.862-.242l1.719.234.383-2.89c.049-.367.205-.645.469-.834a1.27 1.27 0 01.904-.213c.338.046.61.195.816.448.206.252.285.563.236.93l-.383 2.89 1.147.156c.323.044.579.198.769.464.206.252.287.54.244.864-.042.323-.196.58-.46.768-.25.19-.536.264-.86.22l-1.146-.157-.415 3.133a6.56 6.56 0 01.396-.104 8.02 8.02 0 00.348-.087c.343-.103.638-.078.887.076s.417.356.504.607c.114-.074.234-.132.359-.175.14-.04.284-.051.431-.031l2.337.318.152-.473c.053-.173.098-.346.136-.52l-1.94-.265a1.007 1.007 0 01-.686-.408 1.007 1.007 0 01-.213-.77.955.955 0 01.405-.686 1.01 1.01 0 01.769-.21l.683.094a1.232 1.232 0 01-.157-.336c-.063-.203-.15-.454-.26-.754a22.218 22.218 0 00-.269-.845.982.982 0 01.03-.737c.121-.238.308-.407.561-.507l-.309-.042c-.34-.031-.608-.15-.805-.357-.198-.206-.279-.494-.245-.864.032-.355.17-.606.414-.752.26-.16.567-.215.919-.167a73.96 73.96 0 002.194.21 195.7 195.7 0 002.606.152c.894.032 1.75.06 2.57.081.837.01 1.556.003 2.158-.02.435-.016.761.066.977.245a.98.98 0 01.353.722c.033.768-.348 1.165-1.145 1.191-.69.011-1.468.017-2.336.019a67.204 67.204 0 01-2.615-.087c.205.148.343.353.412.617.059.233.132.535.217.906.102.358.171.63.207.814a.972.972 0 01-.075.73.865.865 0 01-.53.445l1.345.183a14.6 14.6 0 00.531-.96c.216-.39.416-.767.599-1.131.197-.363.337-.628.419-.797.163-.322.398-.522.708-.6.309-.077.633-.033.97.133.253.124.42.334.5.63.095.297.065.585-.092.863-.119.223-.32.555-.603.995-.266.428-.512.821-.739 1.18l.705.096c.294.04.523.176.687.408.18.219.251.475.212.77a1 1 0 01-.405.685.954.954 0 01-.768.21l-5.468-.745a6.424 6.424 0 01-.136.52l-.152.473 6.371.869c.294.04.53.177.709.41.18.22.251.476.212.77-.037.28-.173.516-.408.708a1.025 1.025 0 01-.79.207l-6.834-.931-.191.423c-.064.141-.128.29-.194.445l3.131.427c.867.118 1.508.362 1.923.733.429.373.624.819.586 1.337-.039.52-.32 1.057-.842 1.615-.177.2-.366.392-.57.573-.202.167-.419.34-.652.518.43.253.877.493 1.341.721.465.213.949.4 1.452.557.444.15.719.39.825.72.121.33.1.657-.062.979-.166.351-.425.555-.777.612a1.944 1.944 0 01-1.08-.147c-1.434-.584-2.691-1.317-3.771-2.198-.637.288-1.312.525-2.025.712-.7.204-1.431.36-2.193.465-.35.042-.682.005-.995-.113-.299-.116-.491-.359-.577-.73-.073-.354-.01-.66.189-.917.215-.27.535-.429.96-.476a24.34 24.34 0 001.517-.265c.493-.112.96-.243 1.398-.393a11.14 11.14 0 01-1.361-2.094 14.236 14.236 0 01-1.947 2.16 13.65 13.65 0 01-2.412 1.782 1.4 1.4 0 01-.989.18 1.077 1.077 0 01-.782-.534c-.197-.326-.244-.647-.142-.962.116-.314.336-.56.659-.741 1.184-.692 2.191-1.52 3.022-2.485a12.67 12.67 0 002.067-3.244l-1.873-.255c-.368-.05-.64-.252-.818-.605a1.82 1.82 0 01-.51.29c-.202.062-.452.14-.749.234-.28.082-.583.168-.909.258l-.707 5.338c-.142 1.073-.517 1.816-1.125 2.227-.608.41-1.434.545-2.477.403zm10.802-12.944l2.161.295a1.009 1.009 0 01-.374-.568 10.25 10.25 0 00-.206-.814 24.887 24.887 0 00-.239-.908.9.9 0 01.018-.649.918.918 0 01.445-.478c-.399-.04-.798-.071-1.199-.096l-1.158-.068c.194.116.333.307.418.573.088.237.178.519.269.846.109.314.18.563.216.747.145.484.028.858-.351 1.12zm2.283 10.056l.374-.285c.131-.087.255-.175.372-.264.303-.258.422-.474.355-.648-.052-.172-.262-.282-.629-.332l-1.874-.256c.211.328.431.643.66.943.247.288.494.57.742.842zm15.6.605a1.239 1.239 0 01-.739-.572 1.331 1.331 0 01-.171-.95c.121-.617.266-1.322.436-2.114.185-.787.367-1.593.546-2.416.183-.84.363-1.638.539-2.393.177-.756.337-1.422.481-1.998.144-.576.253-1 .328-1.27l.659-2.358c.128-.46.395-.805.801-1.031.421-.222.878-.263 1.369-.121.507.145.875.423 1.103.831.245.413.302.85.174 1.311l-.658 2.359c-.076.27-.209.686-.4 1.249a162.34 162.34 0 01-1.401 4.281 112.698 112.698 0 01-1.505 4.38c-.108.33-.313.57-.613.725a1.25 1.25 0 01-.949.087zm-1.622 5.814a2.038 2.038 0 01-1.26-1.006 2.034 2.034 0 01-.195-1.6c.155-.556.486-.976.993-1.259a2.007 2.007 0 011.592-.186c.555.16.975.495 1.261 1.006.285.51.35 1.044.195 1.6a2.008 2.008 0 01-.993 1.259 2.01 2.01 0 01-1.593.186z" fill="#fff"/></svg>