<svg width="1440" height="444" fill="none" xmlns="http://www.w3.org/2000/svg"><path d="M74.427 426.591c-15 2.645-28.525 2.235-40.574-1.23-12.07-3.59-21.957-9.905-29.66-18.945-7.703-9.04-12.732-20.24-15.088-33.602-3.268-18.53-2.702-35.592 1.697-51.185 4.526-15.615 12.087-28.386 22.684-38.313 10.575-10.053 23.174-16.369 37.796-18.947 13.614-2.4 24.573-.693 32.877 5.121 8.281 5.688 13.433 14.268 15.456 25.739 1.356 7.689 1.058 14.111-.892 19.264-1.825 5.131-5.259 8.14-10.3 9.03-3.53.622-6.448.292-8.754-.992-2.306-1.283-3.737-3.5-4.292-6.651-.2-1.135-.315-3.259-.344-6.373.09-3.915-.066-7.007-.466-9.276-2.023-11.471-9.148-16.129-21.375-13.973-8.32 1.467-15.783 5.578-22.39 12.332-6.608 6.754-11.31 15.836-14.108 27.247-2.819 11.285-2.95 24.176-.394 38.672 2.667 15.127 8.957 26.105 18.87 32.936 9.89 6.704 23.092 8.601 39.605 5.689 8.194-1.445 16.272-3.909 24.237-7.393 8.067-3.632 16.829-8.491 26.284-14.578 1.757-1.09 3.266-1.746 4.527-1.968 2.016-.355 3.662.134 4.938 1.469 1.275 1.335 2.124 3.2 2.546 5.595 1.356 7.689-1.804 14.095-9.479 19.218a135.55 135.55 0 01-26.451 13.632c-9.269 3.454-18.252 5.948-26.95 7.482zm137.23-85.026c1.639-.289 3.044.308 4.215 1.791 1.172 1.483 1.98 3.486 2.424 6.007 1.067 6.05-.127 9.965-3.583 11.744-7.096 3.981-15.149 6.961-24.159 8.939-.527 11.011-3.754 20.353-9.68 28.027-5.948 7.547-13.396 12.11-22.346 13.688-7.564 1.334-14.378.651-20.443-2.049-5.939-2.722-10.828-6.864-14.668-12.426-3.84-5.561-6.383-11.872-7.628-18.931-1.689-9.58-1.361-18.411.983-26.493 2.322-8.208 6.331-14.958 12.026-20.252 5.673-5.419 12.417-8.818 20.233-10.196 9.58-1.689 17.858.295 24.835 5.954 7.08 5.51 11.98 13.029 14.7 22.558 5.858-1.423 12.695-3.928 20.511-7.516.964-.43 1.824-.712 2.58-.845zm-55.151 49.887c4.034-.711 7.212-2.961 9.533-6.75 2.447-3.811 3.631-8.894 3.55-15.248-4.374-1.958-8.011-4.891-10.91-8.799-2.772-3.931-4.581-8.291-5.425-13.081a33.201 33.201 0 01-.5-6.151l-.946.167c-5.042.889-8.831 4.092-11.368 9.608-2.433 5.368-2.871 12.464-1.315 21.288 1.222 6.933 3.479 11.994 6.771 15.183 3.418 3.166 6.955 4.427 10.61 3.783zm67.855 8.701c-4.79.845-8.638-1.076-11.544-5.763-2.78-4.709-5.148-12.609-7.104-23.702-2.889-16.387-3.302-32.367-1.239-47.937.49-3.856 1.851-6.826 4.083-8.909 2.336-2.231 5.836-3.758 10.5-4.581 2.521-.444 4.342-.44 5.461.012 1.12.453 1.835 1.561 2.146 3.326.356 2.017.211 6.722-.435 14.114-.372 5.265-.602 9.854-.692 13.769-.089 3.915.103 8.691.577 14.326 2.248-11.574 5.356-21.221 9.324-28.939s8.155-13.46 12.56-17.227c4.531-3.788 8.876-6.049 13.036-6.782 8.193-1.445 13.013 1.929 14.457 10.123.867 4.916 1.048 14.048.541 27.394-.461 11.389-.38 18.849.242 22.378.889 5.042 3.161 7.241 6.817 6.597 2.521-.445 5.217-2.48 8.087-6.105 2.974-3.774 6.749-9.639 11.325-17.594 1.201-2.032 2.747-3.214 4.638-3.548 1.639-.288 3.033.246 4.182 1.603 1.275 1.335 2.146 3.326 2.613 5.973.889 5.042.38 9.161-1.526 12.356-4.242 7.637-9.137 14.154-14.684 19.551-5.421 5.375-12.102 8.763-20.043 10.163-6.429 1.134-11.605.162-15.527-2.916-3.944-3.204-6.538-8.335-7.783-15.394-.623-3.53-.851-9.988-.687-19.375.238-8.231.091-13.859-.443-16.884-.355-2.017-1.226-2.903-2.613-2.659-1.639.289-3.593 2.843-5.862 7.663-2.166 4.671-4.214 10.751-6.142 18.239-1.803 7.467-2.972 15.212-3.507 23.234-.342 6.169-1.27 10.492-2.783 12.969-1.409 2.328-4.067 3.836-7.975 4.525zm116.493-20.541c-12.353 2.179-22.608.412-30.763-5.298-8.052-5.859-13.089-14.524-15.112-25.995-1.8-10.21-1.362-19.516 1.316-27.917 2.678-8.4 6.865-15.247 12.56-20.541 5.696-5.293 12.073-8.562 19.132-9.807 6.933-1.222 12.657-.087 17.172 3.406 4.619 3.345 7.495 8.231 8.629 14.66.934 5.295.525 9.981-1.225 14.059-1.625 4.055-4.328 6.417-8.109 7.083-2.396.423-4.449.2-6.162-.668-1.587-.89-2.558-2.343-2.914-4.36-.155-.883-.207-1.913-.155-3.092.052-1.179.097-2.032.134-2.558.297-2.002.301-3.823.012-5.461-.289-1.639-.953-2.822-1.991-3.549-.911-.749-2.124-.99-3.636-.723-2.9.511-5.376 2.313-7.431 5.404-2.076 2.966-3.482 6.788-4.217 11.467-.734 4.678-.635 9.665.298 14.959 2.579 14.623 10.234 20.811 22.965 18.567 5.169-.912 10.415-3.591 15.739-8.04 5.429-4.596 10.431-10.872 15.007-18.828 1.202-2.031 2.748-3.214 4.639-3.547 1.638-.289 3.032.245 4.181 1.602 1.275 1.335 2.146 3.326 2.613 5.973.845 4.79.336 8.909-1.525 12.357-4.636 8.356-10.758 15.284-18.366 20.785-7.505 5.352-15.102 8.706-22.791 10.062zm119.529-81.904c1.639-.289 3.044.308 4.215 1.791 1.171 1.483 1.979 3.486 2.424 6.007 1.067 6.05-.128 9.965-3.583 11.744-7.097 3.981-15.15 6.961-24.159 8.939-.528 11.011-3.755 20.353-9.68 28.027-5.948 7.547-13.397 12.11-22.347 13.688-7.563 1.334-14.377.651-20.442-2.049-5.939-2.722-10.829-6.864-14.669-12.426-3.84-5.561-6.382-11.872-7.627-18.931-1.689-9.58-1.362-18.411.982-26.493 2.322-8.208 6.331-14.958 12.026-20.252 5.674-5.419 12.418-8.818 20.233-10.196 9.58-1.689 17.859.295 24.835 5.954 7.081 5.51 11.981 13.029 14.701 22.558 5.858-1.423 12.695-3.928 20.51-7.516.964-.43 1.825-.712 2.581-.845zm-55.151 49.887c4.034-.711 7.211-2.961 9.533-6.75 2.447-3.811 3.63-8.894 3.55-15.248-4.375-1.958-8.011-4.891-10.91-8.799-2.773-3.931-4.581-8.291-5.426-13.081a33.288 33.288 0 01-.5-6.151l-.945.167c-5.042.889-8.832 4.092-11.368 9.608-2.433 5.368-2.872 12.464-1.316 21.288 1.223 6.933 3.48 11.994 6.772 15.183 3.417 3.166 6.954 4.427 10.61 3.783zm118.491-44.679c1.638-.289 3.032.245 4.181 1.603 1.276 1.334 2.146 3.325 2.613 5.973.889 5.042.381 9.161-1.525 12.356-4.243 7.637-9.2 14.165-14.873 19.584-5.547 5.398-12.355 8.808-20.422 10.23-11.093 1.956-20.239-1.63-27.437-10.759-7.073-9.151-12.021-21.731-14.843-37.74-2.712-15.379-3.848-33.245-3.407-53.599.566-20.375 3.449-38.3 8.649-53.774 5.326-15.497 13.346-24.19 24.061-26.079 6.051-1.067 11.278.936 15.682 6.008 4.507 4.924 7.683 12.618 9.528 23.08 2.645 15.001 1.553 33.13-3.277 54.388-4.83 21.257-12.656 42.848-23.477 64.773 1.793 5.012 3.899 8.475 6.316 10.389 2.394 1.787 5.231 2.392 8.508 1.814 5.168-.912 9.451-3.161 12.847-6.75 3.374-3.714 7.453-9.697 12.237-17.949 1.202-2.032 2.748-3.214 4.639-3.548zm-43.862-112.752c-2.899.511-5.254 6.32-7.065 17.427-1.811 11.108-2.736 24.658-2.775 40.652-.039 15.994 1.071 31.135 3.33 45.424 6.35-16.327 10.871-32.331 13.565-48.013 2.671-15.808 2.929-29.826.773-42.053-1.689-9.581-4.298-14.059-7.828-13.437zm105.535 101.878c1.639-.289 3.033.245 4.182 1.602 1.275 1.335 2.146 3.326 2.613 5.973.889 5.042.38 9.161-1.526 12.356-4.242 7.637-9.2 14.165-14.873 19.585-5.547 5.397-12.354 8.807-20.422 10.229-11.093 1.956-20.238-1.63-27.437-10.759-7.072-9.151-12.02-21.731-14.843-37.74-2.712-15.378-3.847-33.245-3.407-53.598.566-20.376 3.45-38.301 8.65-53.775 5.326-15.496 13.346-24.189 24.061-26.079 6.05-1.066 11.278.936 15.681 6.009 4.508 4.924 7.684 12.617 9.529 23.08 2.645 15 1.552 33.129-3.278 54.387-4.83 21.258-12.655 42.849-23.477 64.773 1.794 5.013 3.899 8.476 6.316 10.389 2.395 1.787 5.231 2.392 8.509 1.814 5.168-.911 9.45-3.161 12.847-6.749 3.374-3.715 7.453-9.698 12.237-17.95 1.201-2.032 2.747-3.214 4.638-3.547zm-43.861-112.753c-2.9.511-5.255 6.321-7.066 17.428-1.81 11.107-2.735 24.657-2.775 40.651-.039 15.994 1.071 31.135 3.331 45.424 6.349-16.327 10.871-32.331 13.564-48.013 2.672-15.808 2.93-29.826.774-42.053-1.689-9.58-4.299-14.059-7.828-13.437zM644.099 287.54c1.639-.289 3.033.245 4.182 1.602 1.275 1.335 2.146 3.326 2.613 5.973.8 4.538.418 8.634-1.147 12.29-2.574 6.042-6.494 11.088-11.759 15.135-5.139 4.026-11.679 6.739-19.621 8.139-12.101 2.134-22.125.197-30.073-5.81-7.97-6.133-13.045-15.376-15.223-27.73-1.534-8.698-1.128-17.087 1.216-25.169 2.322-8.208 6.308-15.085 11.959-20.63 5.777-5.568 12.762-9.074 20.956-10.519 7.311-1.289 13.562-.117 18.752 3.517 5.167 3.508 8.407 8.981 9.718 16.418 1.534 8.698-.295 16.754-5.486 24.168-5.088 7.266-14.81 14.049-29.166 20.35 4.048 5.265 9.664 7.264 16.85 5.997 5.168-.911 9.18-2.854 12.035-5.827 2.981-2.995 6.177-7.718 9.589-14.168 1.179-2.158 2.714-3.403 4.605-3.736zm-36.844-27.622c-4.664.822-8.157 4.233-10.479 10.231-2.195 5.976-2.615 12.809-1.259 20.498l.066.378c7.127-3.076 12.521-6.757 16.185-11.042 3.663-4.285 5.084-8.76 4.262-13.424-.423-2.395-1.449-4.164-3.081-5.306-1.527-1.29-3.425-1.735-5.694-1.335zm49.13-52.919c-2.773.489-5.09.247-6.951-.724-1.861-.972-3.036-2.844-3.525-5.618-.2-1.134-.245-2.491-.133-4.07.364-6.043.428-11.579.191-16.606-.11-5.049-.699-10.6-1.766-16.65-1.111-6.303-.517-11.412 1.782-15.326 2.425-3.937 5.97-6.317 10.634-7.139 4.538-.801 8.164-.14 10.877 1.981 2.817 1.973 4.593 5.039 5.326 9.199.778 4.412.488 10.507-.87 18.285a156.434 156.434 0 01-5.876 23.066c-1.698 5.109-3.171 8.553-4.417 10.332-1.119 1.757-2.877 2.847-5.272 3.27zm79.227 107.296c-6.555 1.156-11.864.532-15.927-1.871-3.937-2.425-6.239-5.528-6.906-9.31-.578-3.277.12-6.325 2.092-9.142 1.973-2.818 5.292-4.637 9.956-5.46 1.638-.289 3.562-.433 5.772-.433l5.205-.333c-.704-3.255-2.005-6.21-3.902-8.865-1.772-2.677-3.9-5.161-6.383-7.453-2.506-2.417-4.819-4.479-6.94-6.184-2.596 8.126-5.415 14.992-8.456 20.597a132.368 132.368 0 01-10.012 16.192c-1.869 2.669-4.064 4.226-6.585 4.671-2.017.355-3.778-.049-5.283-1.213-1.527-1.291-2.48-3.007-2.858-5.15-.444-2.521.027-5.009 1.414-7.463l1.925-3.459c5.421-9.794 9.408-17.776 11.959-23.944 1.625-4.056 3.127-8.805 4.507-14.247 1.506-5.465 3.383-12.879 5.631-22.244 1.417-5.969 5.907-9.62 13.47-10.954 3.53-.622 6.044-.74 7.541-.355 1.498.386 2.369 1.272 2.614 2.659.133.756.092 1.998-.123 3.726a27.749 27.749 0 01-1.213 5.283c-1.469 4.938-1.926 8.983-1.37 12.134.333 1.891 1.33 3.86 2.991 5.906 1.787 2.025 4.367 4.494 7.74 7.409 4.967 4.583 8.793 8.588 11.477 12.014 2.787 3.277 4.57 7.122 5.348 11.534.933 5.294.562 10.559-1.115 15.794-1.572 5.086-4.309 9.468-8.21 13.145-3.9 3.677-8.687 6.016-14.359 7.016zm123.343-26.038c-4.664.823-8.182.403-10.555-1.258-2.395-1.787-4.103-5.58-5.126-11.379-.689-3.908-1.188-8.954-1.499-15.138-.207-6.332-.309-15.022-.308-26.07-.212-20.369-.651-37.968-1.316-52.798-.466-9.276-1.232-16.939-2.299-22.99-1-5.672-3.58-8.142-7.74-7.408-3.278.578-6.948 2.98-11.012 7.205-3.96 4.078-8.069 10.261-12.326 18.551-1.343 2.706-3.085 4.248-5.228 4.626-1.765.311-3.485-.231-5.161-1.625-1.572-1.542-2.546-3.385-2.924-5.528-.356-2.017-.333-4.1.067-6.251.505-2.298 1.469-4.938 2.893-7.918 4.562-9.513 10.161-17.194 16.798-23.043 6.615-5.976 13.641-9.619 21.078-10.931 6.933-1.222 12.617.05 17.05 3.818 4.56 3.745 7.584 9.84 9.073 18.286.601 3.404.997 7.493 1.189 12.268.17 4.649.258 8.468.265 11.456.007 2.988-.015 5.072-.068 6.251 3.563-21.814 9.107-37.544 16.635-47.19 7.505-9.771 16.615-15.602 27.33-17.491 8.193-1.445 15.133.321 20.82 5.297 5.812 4.954 9.652 12.725 11.519 23.314.734 4.16 1.078 9.428 1.032 15.805 3.236-18.507 8.41-32.287 15.522-41.34 7.112-9.052 16.151-14.545 27.118-16.479 8.824-1.556 16.068.091 21.728 4.941 5.79 4.828 9.59 12.347 11.39 22.558.98 5.546 1.35 12.435 1.11 20.665l-2 56.112c-.15 6.525.18 12.056.98 16.594.93 5.294 2.83 9.054 5.69 11.279 2.99 2.203 6.69 2.915 11.1 2.137 4.16-.734 7.95-2.831 11.37-6.294 3.54-3.484 7.46-8.919 11.75-16.303 1.2-2.032 2.74-3.214 4.63-3.548 1.64-.289 3.04.245 4.19 1.603 1.27 1.334 2.14 3.325 2.61 5.973.87 4.916.36 9.035-1.53 12.356-5.15 9.097-10.62 16.041-16.41 20.83-5.78 4.789-12.2 7.806-19.26 9.051-10.71 1.889-19.65.216-26.82-5.02-7.18-5.362-11.716-13.4-13.606-24.115-1.311-7.437-1.699-18.482-1.163-33.133l1.462-35.936c.052-1.179.138-3.274.257-6.284.119-3.011.145-5.81.079-8.398a55.634 55.634 0 00-.8-7.852c-.778-4.412-2.238-7.534-4.381-9.366-2.038-1.98-4.634-2.692-7.785-2.136-5.925 1.044-11.486 5.989-16.685 14.835-5.096 8.696-9.05 22.391-11.862 41.084-2.687 18.67-3.369 42.445-2.046 71.326.451 7.719-.224 13.102-2.026 16.15-1.699 2.899-5.006 4.781-9.922 5.648-4.286.756-7.615.303-9.988-1.358-2.246-1.683-3.858-5.298-4.836-10.845-.912-5.168-1.408-12.034-1.488-20.598-.102-8.691-.083-18.897.06-30.62.42-31.528-.149-51.704-1.704-60.528-.845-4.79-2.413-8.153-4.704-10.088-2.165-1.958-5.075-2.615-8.73-1.97-6.177 1.089-11.921 5.741-17.231 13.956-5.332 8.089-9.572 21.639-12.718 40.65-3.043 18.863-3.966 43.851-2.769 74.964.251 6.584-.283 11.293-1.603 14.125-1.195 2.81-4.25 4.648-9.166 5.515zm205.105-140.86c-5.29.934-9.48.436-12.55-1.492-3.09-2.054-5.02-5.288-5.8-9.699-.78-4.412.28-8.368 3.17-11.867 3-3.648 7.08-5.928 12.25-6.839 4.66-.822 8.64-.355 11.94 1.403 3.3 1.758 5.32 4.717 6.05 8.877.89 5.042-.04 9.364-2.78 12.968-2.77 3.477-6.86 5.693-12.28 6.649zm16.39 101.804c-8.19 1.445-14.69-.398-19.5-5.53-4.67-5.154-7.86-12.521-9.55-22.101-1-5.673-1.58-13.043-1.75-22.112-.07-9.216.36-17.869 1.27-25.959.42-4.234 1.45-7.274 3.07-9.12 1.63-1.846 4.52-3.135 8.68-3.869 6.43-1.134 10.02.443 10.77 4.728.56 3.152.65 10.674.28 22.568-.58 14.399-.44 24.057.43 28.973.67 3.782 1.68 6.592 3.05 8.431 1.36 1.839 3.24 2.548 5.63 2.125 2.27-.4 4.83-2.475 7.68-6.227 2.85-3.752 6.51-9.531 10.98-17.338 1.2-2.032 2.75-3.214 4.64-3.547 1.64-.289 3.03.245 4.18 1.602 1.27 1.335 2.15 3.326 2.61 5.973.89 5.042.38 9.161-1.52 12.356-9.79 17.454-20.11 27.136-30.95 29.047zm59.18-6.145c-6.56 1.156-11.86.532-15.93-1.871-3.93-2.425-6.24-5.528-6.9-9.31-.58-3.278.12-6.325 2.09-9.142 1.97-2.818 5.29-4.638 9.95-5.46 1.64-.289 3.57-.433 5.78-.433l5.2-.333c-.7-3.255-2-6.21-3.9-8.865-1.77-2.677-3.9-5.161-6.38-7.453-2.51-2.417-4.82-4.479-6.94-6.185-2.6 8.127-5.42 14.992-8.46 20.598a131.74 131.74 0 01-10.01 16.192c-1.87 2.669-4.07 4.226-6.59 4.671-2.01.355-3.77-.049-5.28-1.213-1.53-1.291-2.48-3.007-2.86-5.15-.44-2.521.03-5.009 1.42-7.463l1.92-3.459c5.42-9.794 9.41-17.776 11.96-23.945 1.5-4.033 3.16-9.331 5-15.893a554.74 554.74 0 005.14-20.597c1.42-5.969 5.91-9.62 13.47-10.954 3.53-.622 6.04-.74 7.54-.355 1.5.386 2.37 1.272 2.61 2.659.14.756.1 1.998-.12 3.726a28.394 28.394 0 01-1.21 5.283c-1.47 4.938-1.93 8.983-1.37 12.134.33 1.891 1.33 3.86 2.99 5.906 1.79 2.025 4.37 4.494 7.74 7.409 4.97 4.583 8.79 8.587 11.48 12.013 2.78 3.278 4.57 7.123 5.34 11.535.23 1.261.41 3.048.56 5.361 5.75-3.484 11.88-11.128 18.38-22.932 1.2-2.031 2.74-3.214 4.63-3.547 1.64-.289 3.04.245 4.19 1.602 1.27 1.335 2.14 3.326 2.61 5.973.84 4.79.34 8.909-1.53 12.357-4.92 8.927-10.03 15.351-15.31 19.273-5.19 3.773-11.98 6.53-20.38 8.272-4.29 5.175-9.9 8.373-16.83 9.596zm80.69-14.228c-6.55 1.155-11.86.532-15.93-1.871-3.93-2.425-6.23-5.529-6.9-9.31-.58-3.278.12-6.325 2.09-9.143 1.97-2.817 5.29-4.637 9.96-5.459 1.64-.289 3.56-.434 5.77-.433l5.2-.333c-.7-3.255-2-6.21-3.9-8.865-1.77-2.677-3.9-5.161-6.38-7.453-2.51-2.418-4.82-4.479-6.94-6.185-2.6 8.126-5.42 14.992-8.46 20.597a131.751 131.751 0 01-10.01 16.193c-1.87 2.669-4.06 4.226-6.58 4.67-2.02.356-3.78-.048-5.29-1.213-1.52-1.29-2.48-3.007-2.85-5.15-.45-2.521.02-5.008 1.41-7.463l1.92-3.458c5.43-9.795 9.41-17.776 11.96-23.945 1.5-4.033 3.17-9.331 5-15.893a555.295 555.295 0 005.14-20.598c1.42-5.968 5.91-9.62 13.47-10.953 3.53-.622 6.04-.741 7.54-.355s2.37 1.272 2.62 2.659c.13.756.09 1.998-.13 3.726-.21 1.727-.62 3.488-1.21 5.282-1.47 4.939-1.93 8.983-1.37 12.135.33 1.89 1.33 3.859 2.99 5.906 1.79 2.024 4.37 4.494 7.74 7.408 4.97 4.584 8.79 8.588 11.48 12.014 2.79 3.278 4.57 7.123 5.35 11.535.22 1.26.4 3.047.55 5.361 5.76-3.485 11.88-11.128 18.38-22.932 1.2-2.031 2.75-3.214 4.64-3.547 1.64-.289 3.03.245 4.18 1.602 1.27 1.335 2.14 3.326 2.61 5.973.85 4.79.34 8.909-1.52 12.357-4.93 8.926-10.03 15.351-15.32 19.272-5.19 3.774-11.98 6.531-20.38 8.272-4.29 5.175-9.9 8.374-16.83 9.597zm51.66-118.092c-5.3.933-9.48.436-12.55-1.493-3.09-2.054-5.02-5.287-5.8-9.699-.78-4.412.28-8.368 3.17-11.867 2.99-3.648 7.08-5.927 12.25-6.838 4.66-.823 8.64-.355 11.94 1.403 3.3 1.757 5.32 4.716 6.05 8.876.89 5.042-.04 9.365-2.78 12.968-2.77 3.477-6.86 5.694-12.28 6.65zm16.39 101.804c-8.19 1.445-14.69-.399-19.5-5.531-4.68-5.153-7.86-12.521-9.55-22.101-1-5.672-1.58-13.043-1.75-22.111-.07-9.217.36-17.87 1.27-25.959.42-4.234 1.45-7.274 3.07-9.12 1.62-1.846 4.52-3.136 8.68-3.869 6.42-1.134 10.02.442 10.77 4.728.56 3.151.65 10.674.28 22.567-.58 14.4-.44 24.058.43 28.974.66 3.781 1.68 6.592 3.04 8.431 1.37 1.839 3.25 2.547 5.64 2.125 2.27-.4 4.83-2.476 7.68-6.227 2.84-3.752 6.5-9.531 10.98-17.339 1.2-2.031 2.74-3.214 4.64-3.547 1.63-.289 3.03.245 4.18 1.602 1.27 1.335 2.14 3.326 2.61 5.973.89 5.043.38 9.161-1.53 12.357-9.79 17.453-20.1 27.135-30.94 29.047zm109.3-80.102c1.64-.289 3.05.309 4.22 1.792s1.98 3.485 2.42 6.006c1.07 6.051-.12 9.966-3.58 11.745-7.1 3.98-15.15 6.96-24.16 8.939-.53 11.011-3.75 20.353-9.68 28.026-5.95 7.548-13.4 12.111-22.35 13.689-7.56 1.333-14.37.65-20.44-2.05-5.94-2.722-10.83-6.864-14.67-12.425-3.84-5.562-6.38-11.872-7.62-18.931-1.69-9.581-1.37-18.412.98-26.493 2.32-8.208 6.33-14.959 12.02-20.252 5.68-5.42 12.42-8.819 20.24-10.197 9.58-1.689 17.86.296 24.83 5.954 7.08 5.51 11.98 13.03 14.7 22.558 5.86-1.423 12.7-3.928 20.51-7.516.97-.43 1.83-.711 2.58-.845zm-55.15 49.887c4.04-.711 7.21-2.961 9.54-6.75 2.44-3.811 3.63-8.893 3.55-15.248-4.38-1.958-8.02-4.891-10.91-8.799-2.78-3.93-4.59-8.29-5.43-13.081a33.105 33.105 0 01-.5-6.15l-.95.166c-5.04.889-8.83 4.092-11.36 9.608-2.44 5.368-2.87 12.464-1.32 21.288 1.22 6.933 3.48 11.994 6.77 15.183 3.42 3.167 6.96 4.428 10.61 3.783zm67.86 8.702c-4.79.844-8.64-1.077-11.55-5.763-2.78-4.709-5.14-12.61-7.1-23.703-2.89-16.387-3.3-32.366-1.24-47.937.49-3.856 1.85-6.825 4.08-8.908 2.34-2.232 5.84-3.759 10.5-4.581 2.52-.445 4.35-.44 5.46.012 1.12.452 1.84 1.561 2.15 3.325.36 2.017.21 6.722-.43 14.114-.38 5.265-.61 9.855-.7 13.77-.09 3.915.11 8.69.58 14.325 2.25-11.574 5.36-21.22 9.32-28.939 3.97-7.718 8.16-13.46 12.56-17.226 4.53-3.788 8.88-6.05 13.04-6.783 4.03-.711 7.25-.173 9.64 1.614 2.5 1.64 4.11 4.476 4.82 8.509.58 3.278.97 9.577 1.19 18.897.09 7.912.37 15.401.84 22.467.44 6.941 1.41 14.634 2.9 23.079.84 4.791.44 8.435-1.19 10.933-1.54 2.351-4.51 3.915-8.93 4.693-4.16.733-7.37.195-9.64-1.614-2.27-1.81-3.78-4.858-4.53-9.143-.89-5.043-1.48-13.518-1.76-25.426-.26-10.351-.64-16.914-1.13-19.687-.36-2.017-1.23-2.903-2.61-2.658-1.64.289-3.6 2.843-5.87 7.662-2.16 4.671-4.21 10.751-6.14 18.24-1.8 7.466-2.97 15.211-3.5 23.234-.35 6.169-1.27 10.492-2.79 12.968-1.41 2.328-4.06 3.836-7.97 4.526z" fill="#F090A9" fill-opacity=".09"/></svg>