<svg width="215" height="86" fill="none" xmlns="http://www.w3.org/2000/svg"><g filter="url(#filter0_d_10944_61303)"><mask id="a" maskUnits="userSpaceOnUse" x="-.5" y="0" width="213" height="83" fill="#000"><path fill="#fff" d="M-.5 0h213v83H-.5z"/><path d="M30 43.84c-1.227 0-2.213-.4-2.96-1.2-.747-.8-1.12-1.76-1.12-2.88 0-1.173.373-2.16 1.12-2.96.747-.8 1.733-1.2 2.96-1.2h10.72c-.427-.427-.72-.88-.88-1.36a114.19 114.19 0 00-.96-2.08 60.309 60.309 0 00-1.2-2.72 32.953 32.953 0 00-.88-2c-.533-1.173-.613-2.24-.24-3.2.427-1.013 1.147-1.787 2.16-2.32h-6.16c-1.173 0-2.133-.373-2.88-1.12a4.143 4.143 0 01-1.04-2.8c0-1.067.347-1.973 1.04-2.72.747-.8 1.707-1.2 2.88-1.2h15.36V8.8c0-1.387.427-2.48 1.28-3.28.907-.853 2.053-1.28 3.44-1.28s2.507.427 3.36 1.28c.853.8 1.28 1.893 1.28 3.28v5.28h16.48c1.227 0 2.187.4 2.88 1.2.693.747 1.04 1.653 1.04 2.72 0 1.067-.347 2-1.04 2.8-.693.747-1.653 1.12-2.88 1.12h-6.72c1.067.533 1.76 1.333 2.08 2.4.32 1.013.24 2.053-.24 3.12-.373.8-.933 2.027-1.68 3.68-.747 1.6-1.467 3.093-2.16 4.48h10.88c1.28 0 2.293.4 3.04 1.2.747.8 1.12 1.787 1.12 2.96 0 1.12-.373 2.08-1.12 2.88-.747.8-1.76 1.2-3.04 1.2H30zm22.88 33.44c-4.853 0-8.613-.427-11.28-1.28-2.613-.853-4.453-2.32-5.52-4.4-1.013-2.08-1.52-4.987-1.52-8.72 0-3.787.507-6.72 1.52-8.8 1.067-2.133 2.907-3.627 5.52-4.48 2.667-.853 6.427-1.28 11.28-1.28s8.587.427 11.2 1.28c2.667.853 4.507 2.347 5.52 4.48 1.067 2.08 1.6 5.013 1.6 8.8 0 3.733-.533 6.64-1.6 8.72-1.013 2.08-2.853 3.547-5.52 4.4-2.613.853-6.347 1.28-11.2 1.28zm-32.8 1.68c-1.227 0-2.293-.4-3.2-1.2-.853-.8-1.28-1.867-1.28-3.2V38.72a26.37 26.37 0 01-1.52 2.4l-1.44 2.08c-.747 1.067-1.787 1.733-3.12 2-1.333.213-2.533-.027-3.6-.72-.96-.693-1.547-1.653-1.76-2.88-.213-1.227.08-2.347.88-3.36 2.027-2.667 4-5.733 5.92-9.2a98.988 98.988 0 005.2-10.72c1.547-3.627 2.72-6.933 3.52-9.92.427-1.547 1.2-2.64 2.32-3.28 1.12-.64 2.347-.773 3.68-.4 1.227.373 2.107 1.147 2.64 2.32.587 1.12.667 2.427.24 3.92-1.013 3.307-2.347 6.853-4 10.64v52.96c0 1.333-.453 2.4-1.36 3.2-.853.8-1.893 1.2-3.12 1.2zm32.8-10c2.56 0 4.48-.133 5.76-.4 1.28-.32 2.133-.907 2.56-1.76.48-.907.72-2.24.72-4 0-1.707-.24-2.987-.72-3.84-.427-.907-1.28-1.52-2.56-1.84-1.28-.32-3.2-.48-5.76-.48-2.56 0-4.507.187-5.84.56-1.28.32-2.133.933-2.56 1.84-.427.853-.64 2.08-.64 3.68 0 1.76.213 3.093.64 4 .427.853 1.28 1.44 2.56 1.76 1.333.32 3.28.48 5.84.48zM47.44 35.6h7.92c.427-.907.96-2.107 1.6-3.6.693-1.547 1.36-3.04 2-4.48.64-1.493 1.093-2.613 1.36-3.36.427-.96 1.067-1.707 1.92-2.24H43.52c.587.373 1.093.933 1.52 1.68.267.533.613 1.307 1.04 2.32.48 1.013.933 2 1.36 2.96.427.96.72 1.653.88 2.08.373.853.453 1.707.24 2.56a3.99 3.99 0 01-1.12 2.08zM130.96 46c-3.147 0-5.627-.347-7.44-1.04-1.813-.747-3.093-1.973-3.84-3.68-.747-1.707-1.12-4.027-1.12-6.96v-4.8c0-4.107.773-7.013 2.32-8.72 1.547-1.76 4.32-2.747 8.32-2.96l-.32-.48-.32-.48c-.213-.427-.56-1.013-1.04-1.76-.427-.8-.88-1.6-1.36-2.4-.427-.853-.8-1.52-1.12-2-.587-1.013-.667-2.053-.24-3.12.427-1.067 1.173-1.867 2.24-2.4 1.227-.533 2.4-.613 3.52-.24s1.973 1.067 2.56 2.08c.267.48.64 1.147 1.12 2 .48.8.933 1.6 1.36 2.4.48.747.827 1.307 1.04 1.68.427.853.533 1.707.32 2.56-.213.8-.613 1.52-1.2 2.16h7.04c.373-.747.88-1.787 1.52-3.12.64-1.387 1.253-2.747 1.84-4.08.64-1.387 1.093-2.453 1.36-3.2.587-1.387 1.467-2.32 2.64-2.8 1.227-.48 2.507-.427 3.84.16 1.387.533 2.24 1.387 2.56 2.56.32 1.173.187 2.347-.4 3.52-.267.533-.8 1.52-1.6 2.96a127.81 127.81 0 01-2.16 4c4.267.107 7.2 1.013 8.8 2.72 1.653 1.707 2.48 4.693 2.48 8.96v4.8c0 2.933-.373 5.253-1.12 6.96-.747 1.707-2.027 2.933-3.84 3.68-1.813.693-4.293 1.04-7.44 1.04h-20.32zm4.4 32.16c-4.8 0-8.187-.827-10.16-2.48-1.92-1.6-2.88-4.48-2.88-8.64v-6.56c0-4.213.96-7.12 2.88-8.72 1.973-1.6 5.36-2.4 10.16-2.4h11.84c4.8 0 8.16.8 10.08 2.4 1.973 1.6 2.96 4.507 2.96 8.72v6.56c0 4.16-.987 7.04-2.96 8.64-1.92 1.653-5.28 2.48-10.08 2.48h-11.84zM97.68 64.8c-1.387.373-2.667.32-3.84-.16-1.12-.533-1.867-1.467-2.24-2.8-.373-1.387-.24-2.587.4-3.6.693-1.067 1.707-1.76 3.04-2.08a110.02 110.02 0 002.88-.72c1.067-.267 2.16-.56 3.28-.88V32.72h-5.6c-1.227 0-2.213-.373-2.96-1.12-.747-.8-1.12-1.76-1.12-2.88 0-1.12.373-2.053 1.12-2.8.747-.8 1.733-1.2 2.96-1.2h5.6V10.88c0-1.387.4-2.453 1.2-3.2.853-.8 1.893-1.2 3.12-1.2s2.267.4 3.12 1.2c.853.747 1.28 1.813 1.28 3.2v13.84h3.52c1.227 0 2.213.4 2.96 1.2.747.747 1.12 1.68 1.12 2.8 0 1.12-.373 2.08-1.12 2.88-.747.747-1.733 1.12-2.96 1.12h-3.52v19.04c.8-.267 1.573-.533 2.32-.8a26.89 26.89 0 012.08-.8c1.227-.48 2.347-.507 3.36-.08s1.68 1.227 2 2.4c.267 1.067.213 2.08-.16 3.04s-1.173 1.707-2.4 2.24c-1.547.693-3.52 1.493-5.92 2.4a292.81 292.81 0 01-7.28 2.64c-2.4.8-4.48 1.467-6.24 2zm38.56 6.72h10.08c1.973 0 3.28-.267 3.92-.8.64-.587.987-1.787 1.04-3.6h-20c.053 1.813.4 3.013 1.04 3.6.64.533 1.947.8 3.92.8zm-4.96-11.2h20c-.053-1.813-.4-2.987-1.04-3.52-.64-.533-1.947-.8-3.92-.8h-10.08c-1.973 0-3.28.267-3.92.8-.64.533-.987 1.707-1.04 3.52zm13.92-20.88h4.56c1.973 0 3.28-.293 3.92-.88.64-.587.96-1.813.96-3.68h-9.44v4.56zm-12.72 0h4.48v-4.56h-9.36c0 1.867.32 3.093.96 3.68.64.587 1.947.88 3.92.88zm12.72-10.56h9.44c0-1.867-.32-3.067-.96-3.6-.64-.587-1.947-.88-3.92-.88h-4.56v4.48zm-17.6 0h9.36V24.4h-4.48c-1.973 0-3.28.293-3.92.88-.64.533-.96 1.733-.96 3.6zm73.6 28.48c-1.067 0-2-.373-2.8-1.12-.8-.747-1.253-1.68-1.36-2.8-.16-2.027-.32-4.347-.48-6.96a449.21 449.21 0 00-.4-8c-.16-2.773-.293-5.413-.4-7.92-.107-2.507-.187-4.72-.24-6.64-.053-1.92-.08-3.333-.08-4.24v-7.92c0-1.547.533-2.853 1.6-3.92 1.12-1.067 2.507-1.6 4.16-1.6 1.707 0 3.093.533 4.16 1.6 1.12 1.067 1.68 2.373 1.68 3.92v7.92c0 .907-.053 2.32-.16 4.24-.053 1.92-.133 4.133-.24 6.64-.107 2.507-.24 5.147-.4 7.92a400.406 400.406 0 01-.88 14.96c-.053 1.12-.48 2.053-1.28 2.8-.8.747-1.76 1.12-2.88 1.12zm0 19.52c-1.867 0-3.467-.667-4.8-2-1.333-1.333-2-2.933-2-4.8s.667-3.467 2-4.8c1.333-1.333 2.933-2 4.8-2s3.467.667 4.8 2c1.333 1.333 2 2.933 2 4.8s-.667 3.467-2 4.8c-1.333 1.333-2.933 2-4.8 2z"/></mask><path d="M30 43.84c-1.227 0-2.213-.4-2.96-1.2-.747-.8-1.12-1.76-1.12-2.88 0-1.173.373-2.16 1.12-2.96.747-.8 1.733-1.2 2.96-1.2h10.72c-.427-.427-.72-.88-.88-1.36a114.19 114.19 0 00-.96-2.08 60.309 60.309 0 00-1.2-2.72 32.953 32.953 0 00-.88-2c-.533-1.173-.613-2.24-.24-3.2.427-1.013 1.147-1.787 2.16-2.32h-6.16c-1.173 0-2.133-.373-2.88-1.12a4.143 4.143 0 01-1.04-2.8c0-1.067.347-1.973 1.04-2.72.747-.8 1.707-1.2 2.88-1.2h15.36V8.8c0-1.387.427-2.48 1.28-3.28.907-.853 2.053-1.28 3.44-1.28s2.507.427 3.36 1.28c.853.8 1.28 1.893 1.28 3.28v5.28h16.48c1.227 0 2.187.4 2.88 1.2.693.747 1.04 1.653 1.04 2.72 0 1.067-.347 2-1.04 2.8-.693.747-1.653 1.12-2.88 1.12h-6.72c1.067.533 1.76 1.333 2.08 2.4.32 1.013.24 2.053-.24 3.12-.373.8-.933 2.027-1.68 3.68-.747 1.6-1.467 3.093-2.16 4.48h10.88c1.28 0 2.293.4 3.04 1.2.747.8 1.12 1.787 1.12 2.96 0 1.12-.373 2.08-1.12 2.88-.747.8-1.76 1.2-3.04 1.2H30zm22.88 33.44c-4.853 0-8.613-.427-11.28-1.28-2.613-.853-4.453-2.32-5.52-4.4-1.013-2.08-1.52-4.987-1.52-8.72 0-3.787.507-6.72 1.52-8.8 1.067-2.133 2.907-3.627 5.52-4.48 2.667-.853 6.427-1.28 11.28-1.28s8.587.427 11.2 1.28c2.667.853 4.507 2.347 5.52 4.48 1.067 2.08 1.6 5.013 1.6 8.8 0 3.733-.533 6.64-1.6 8.72-1.013 2.08-2.853 3.547-5.52 4.4-2.613.853-6.347 1.28-11.2 1.28zm-32.8 1.68c-1.227 0-2.293-.4-3.2-1.2-.853-.8-1.28-1.867-1.28-3.2V38.72a26.37 26.37 0 01-1.52 2.4l-1.44 2.08c-.747 1.067-1.787 1.733-3.12 2-1.333.213-2.533-.027-3.6-.72-.96-.693-1.547-1.653-1.76-2.88-.213-1.227.08-2.347.88-3.36 2.027-2.667 4-5.733 5.92-9.2a98.988 98.988 0 005.2-10.72c1.547-3.627 2.72-6.933 3.52-9.92.427-1.547 1.2-2.64 2.32-3.28 1.12-.64 2.347-.773 3.68-.4 1.227.373 2.107 1.147 2.64 2.32.587 1.12.667 2.427.24 3.92-1.013 3.307-2.347 6.853-4 10.64v52.96c0 1.333-.453 2.4-1.36 3.2-.853.8-1.893 1.2-3.12 1.2zm32.8-10c2.56 0 4.48-.133 5.76-.4 1.28-.32 2.133-.907 2.56-1.76.48-.907.72-2.24.72-4 0-1.707-.24-2.987-.72-3.84-.427-.907-1.28-1.52-2.56-1.84-1.28-.32-3.2-.48-5.76-.48-2.56 0-4.507.187-5.84.56-1.28.32-2.133.933-2.56 1.84-.427.853-.64 2.08-.64 3.68 0 1.76.213 3.093.64 4 .427.853 1.28 1.44 2.56 1.76 1.333.32 3.28.48 5.84.48zM47.44 35.6h7.92c.427-.907.96-2.107 1.6-3.6.693-1.547 1.36-3.04 2-4.48.64-1.493 1.093-2.613 1.36-3.36.427-.96 1.067-1.707 1.92-2.24H43.52c.587.373 1.093.933 1.52 1.68.267.533.613 1.307 1.04 2.32.48 1.013.933 2 1.36 2.96.427.96.72 1.653.88 2.08.373.853.453 1.707.24 2.56a3.99 3.99 0 01-1.12 2.08zM130.96 46c-3.147 0-5.627-.347-7.44-1.04-1.813-.747-3.093-1.973-3.84-3.68-.747-1.707-1.12-4.027-1.12-6.96v-4.8c0-4.107.773-7.013 2.32-8.72 1.547-1.76 4.32-2.747 8.32-2.96l-.32-.48-.32-.48c-.213-.427-.56-1.013-1.04-1.76-.427-.8-.88-1.6-1.36-2.4-.427-.853-.8-1.52-1.12-2-.587-1.013-.667-2.053-.24-3.12.427-1.067 1.173-1.867 2.24-2.4 1.227-.533 2.4-.613 3.52-.24s1.973 1.067 2.56 2.08c.267.48.64 1.147 1.12 2 .48.8.933 1.6 1.36 2.4.48.747.827 1.307 1.04 1.68.427.853.533 1.707.32 2.56-.213.8-.613 1.52-1.2 2.16h7.04c.373-.747.88-1.787 1.52-3.12.64-1.387 1.253-2.747 1.84-4.08.64-1.387 1.093-2.453 1.36-3.2.587-1.387 1.467-2.32 2.64-2.8 1.227-.48 2.507-.427 3.84.16 1.387.533 2.24 1.387 2.56 2.56.32 1.173.187 2.347-.4 3.52-.267.533-.8 1.52-1.6 2.96a127.81 127.81 0 01-2.16 4c4.267.107 7.2 1.013 8.8 2.72 1.653 1.707 2.48 4.693 2.48 8.96v4.8c0 2.933-.373 5.253-1.12 6.96-.747 1.707-2.027 2.933-3.84 3.68-1.813.693-4.293 1.04-7.44 1.04h-20.32zm4.4 32.16c-4.8 0-8.187-.827-10.16-2.48-1.92-1.6-2.88-4.48-2.88-8.64v-6.56c0-4.213.96-7.12 2.88-8.72 1.973-1.6 5.36-2.4 10.16-2.4h11.84c4.8 0 8.16.8 10.08 2.4 1.973 1.6 2.96 4.507 2.96 8.72v6.56c0 4.16-.987 7.04-2.96 8.64-1.92 1.653-5.28 2.48-10.08 2.48h-11.84zM97.68 64.8c-1.387.373-2.667.32-3.84-.16-1.12-.533-1.867-1.467-2.24-2.8-.373-1.387-.24-2.587.4-3.6.693-1.067 1.707-1.76 3.04-2.08a110.02 110.02 0 002.88-.72c1.067-.267 2.16-.56 3.28-.88V32.72h-5.6c-1.227 0-2.213-.373-2.96-1.12-.747-.8-1.12-1.76-1.12-2.88 0-1.12.373-2.053 1.12-2.8.747-.8 1.733-1.2 2.96-1.2h5.6V10.88c0-1.387.4-2.453 1.2-3.2.853-.8 1.893-1.2 3.12-1.2s2.267.4 3.12 1.2c.853.747 1.28 1.813 1.28 3.2v13.84h3.52c1.227 0 2.213.4 2.96 1.2.747.747 1.12 1.68 1.12 2.8 0 1.12-.373 2.08-1.12 2.88-.747.747-1.733 1.12-2.96 1.12h-3.52v19.04c.8-.267 1.573-.533 2.32-.8a26.89 26.89 0 012.08-.8c1.227-.48 2.347-.507 3.36-.08s1.68 1.227 2 2.4c.267 1.067.213 2.08-.16 3.04s-1.173 1.707-2.4 2.24c-1.547.693-3.52 1.493-5.92 2.4a292.81 292.81 0 01-7.28 2.64c-2.4.8-4.48 1.467-6.24 2zm38.56 6.72h10.08c1.973 0 3.28-.267 3.92-.8.64-.587.987-1.787 1.04-3.6h-20c.053 1.813.4 3.013 1.04 3.6.64.533 1.947.8 3.92.8zm-4.96-11.2h20c-.053-1.813-.4-2.987-1.04-3.52-.64-.533-1.947-.8-3.92-.8h-10.08c-1.973 0-3.28.267-3.92.8-.64.533-.987 1.707-1.04 3.52zm13.92-20.88h4.56c1.973 0 3.28-.293 3.92-.88.64-.587.96-1.813.96-3.68h-9.44v4.56zm-12.72 0h4.48v-4.56h-9.36c0 1.867.32 3.093.96 3.68.64.587 1.947.88 3.92.88zm12.72-10.56h9.44c0-1.867-.32-3.067-.96-3.6-.64-.587-1.947-.88-3.92-.88h-4.56v4.48zm-17.6 0h9.36V24.4h-4.48c-1.973 0-3.28.293-3.92.88-.64.533-.96 1.733-.96 3.6zm73.6 28.48c-1.067 0-2-.373-2.8-1.12-.8-.747-1.253-1.68-1.36-2.8-.16-2.027-.32-4.347-.48-6.96a449.21 449.21 0 00-.4-8c-.16-2.773-.293-5.413-.4-7.92-.107-2.507-.187-4.72-.24-6.64-.053-1.92-.08-3.333-.08-4.24v-7.92c0-1.547.533-2.853 1.6-3.92 1.12-1.067 2.507-1.6 4.16-1.6 1.707 0 3.093.533 4.16 1.6 1.12 1.067 1.68 2.373 1.68 3.92v7.92c0 .907-.053 2.32-.16 4.24-.053 1.92-.133 4.133-.24 6.64-.107 2.507-.24 5.147-.4 7.92a400.406 400.406 0 01-.88 14.96c-.053 1.12-.48 2.053-1.28 2.8-.8.747-1.76 1.12-2.88 1.12zm0 19.52c-1.867 0-3.467-.667-4.8-2-1.333-1.333-2-2.933-2-4.8s.667-3.467 2-4.8c1.333-1.333 2.933-2 4.8-2s3.467.667 4.8 2c1.333 1.333 2 2.933 2 4.8s-.667 3.467-2 4.8c-1.333 1.333-2.933 2-4.8 2z" fill="url(#paint0_linear_10944_61303)"/><path d="M30 43.84c-1.227 0-2.213-.4-2.96-1.2-.747-.8-1.12-1.76-1.12-2.88 0-1.173.373-2.16 1.12-2.96.747-.8 1.733-1.2 2.96-1.2h10.72c-.427-.427-.72-.88-.88-1.36a114.19 114.19 0 00-.96-2.08 60.309 60.309 0 00-1.2-2.72 32.953 32.953 0 00-.88-2c-.533-1.173-.613-2.24-.24-3.2.427-1.013 1.147-1.787 2.16-2.32h-6.16c-1.173 0-2.133-.373-2.88-1.12a4.143 4.143 0 01-1.04-2.8c0-1.067.347-1.973 1.04-2.72.747-.8 1.707-1.2 2.88-1.2h15.36V8.8c0-1.387.427-2.48 1.28-3.28.907-.853 2.053-1.28 3.44-1.28s2.507.427 3.36 1.28c.853.8 1.28 1.893 1.28 3.28v5.28h16.48c1.227 0 2.187.4 2.88 1.2.693.747 1.04 1.653 1.04 2.72 0 1.067-.347 2-1.04 2.8-.693.747-1.653 1.12-2.88 1.12h-6.72c1.067.533 1.76 1.333 2.08 2.4.32 1.013.24 2.053-.24 3.12-.373.8-.933 2.027-1.68 3.68-.747 1.6-1.467 3.093-2.16 4.48h10.88c1.28 0 2.293.4 3.04 1.2.747.8 1.12 1.787 1.12 2.96 0 1.12-.373 2.08-1.12 2.88-.747.8-1.76 1.2-3.04 1.2H30zm22.88 33.44c-4.853 0-8.613-.427-11.28-1.28-2.613-.853-4.453-2.32-5.52-4.4-1.013-2.08-1.52-4.987-1.52-8.72 0-3.787.507-6.72 1.52-8.8 1.067-2.133 2.907-3.627 5.52-4.48 2.667-.853 6.427-1.28 11.28-1.28s8.587.427 11.2 1.28c2.667.853 4.507 2.347 5.52 4.48 1.067 2.08 1.6 5.013 1.6 8.8 0 3.733-.533 6.64-1.6 8.72-1.013 2.08-2.853 3.547-5.52 4.4-2.613.853-6.347 1.28-11.2 1.28zm-32.8 1.68c-1.227 0-2.293-.4-3.2-1.2-.853-.8-1.28-1.867-1.28-3.2V38.72a26.37 26.37 0 01-1.52 2.4l-1.44 2.08c-.747 1.067-1.787 1.733-3.12 2-1.333.213-2.533-.027-3.6-.72-.96-.693-1.547-1.653-1.76-2.88-.213-1.227.08-2.347.88-3.36 2.027-2.667 4-5.733 5.92-9.2a98.988 98.988 0 005.2-10.72c1.547-3.627 2.72-6.933 3.52-9.92.427-1.547 1.2-2.64 2.32-3.28 1.12-.64 2.347-.773 3.68-.4 1.227.373 2.107 1.147 2.64 2.32.587 1.12.667 2.427.24 3.92-1.013 3.307-2.347 6.853-4 10.64v52.96c0 1.333-.453 2.4-1.36 3.2-.853.8-1.893 1.2-3.12 1.2zm32.8-10c2.56 0 4.48-.133 5.76-.4 1.28-.32 2.133-.907 2.56-1.76.48-.907.72-2.24.72-4 0-1.707-.24-2.987-.72-3.84-.427-.907-1.28-1.52-2.56-1.84-1.28-.32-3.2-.48-5.76-.48-2.56 0-4.507.187-5.84.56-1.28.32-2.133.933-2.56 1.84-.427.853-.64 2.08-.64 3.68 0 1.76.213 3.093.64 4 .427.853 1.28 1.44 2.56 1.76 1.333.32 3.28.48 5.84.48zM47.44 35.6h7.92c.427-.907.96-2.107 1.6-3.6.693-1.547 1.36-3.04 2-4.48.64-1.493 1.093-2.613 1.36-3.36.427-.96 1.067-1.707 1.92-2.24H43.52c.587.373 1.093.933 1.52 1.68.267.533.613 1.307 1.04 2.32.48 1.013.933 2 1.36 2.96.427.96.72 1.653.88 2.08.373.853.453 1.707.24 2.56a3.99 3.99 0 01-1.12 2.08zM130.96 46c-3.147 0-5.627-.347-7.44-1.04-1.813-.747-3.093-1.973-3.84-3.68-.747-1.707-1.12-4.027-1.12-6.96v-4.8c0-4.107.773-7.013 2.32-8.72 1.547-1.76 4.32-2.747 8.32-2.96l-.32-.48-.32-.48c-.213-.427-.56-1.013-1.04-1.76-.427-.8-.88-1.6-1.36-2.4-.427-.853-.8-1.52-1.12-2-.587-1.013-.667-2.053-.24-3.12.427-1.067 1.173-1.867 2.24-2.4 1.227-.533 2.4-.613 3.52-.24s1.973 1.067 2.56 2.08c.267.48.64 1.147 1.12 2 .48.8.933 1.6 1.36 2.4.48.747.827 1.307 1.04 1.68.427.853.533 1.707.32 2.56-.213.8-.613 1.52-1.2 2.16h7.04c.373-.747.88-1.787 1.52-3.12.64-1.387 1.253-2.747 1.84-4.08.64-1.387 1.093-2.453 1.36-3.2.587-1.387 1.467-2.32 2.64-2.8 1.227-.48 2.507-.427 3.84.16 1.387.533 2.24 1.387 2.56 2.56.32 1.173.187 2.347-.4 3.52-.267.533-.8 1.52-1.6 2.96a127.81 127.81 0 01-2.16 4c4.267.107 7.2 1.013 8.8 2.72 1.653 1.707 2.48 4.693 2.48 8.96v4.8c0 2.933-.373 5.253-1.12 6.96-.747 1.707-2.027 2.933-3.84 3.68-1.813.693-4.293 1.04-7.44 1.04h-20.32zm4.4 32.16c-4.8 0-8.187-.827-10.16-2.48-1.92-1.6-2.88-4.48-2.88-8.64v-6.56c0-4.213.96-7.12 2.88-8.72 1.973-1.6 5.36-2.4 10.16-2.4h11.84c4.8 0 8.16.8 10.08 2.4 1.973 1.6 2.96 4.507 2.96 8.72v6.56c0 4.16-.987 7.04-2.96 8.64-1.92 1.653-5.28 2.48-10.08 2.48h-11.84zM97.68 64.8c-1.387.373-2.667.32-3.84-.16-1.12-.533-1.867-1.467-2.24-2.8-.373-1.387-.24-2.587.4-3.6.693-1.067 1.707-1.76 3.04-2.08a110.02 110.02 0 002.88-.72c1.067-.267 2.16-.56 3.28-.88V32.72h-5.6c-1.227 0-2.213-.373-2.96-1.12-.747-.8-1.12-1.76-1.12-2.88 0-1.12.373-2.053 1.12-2.8.747-.8 1.733-1.2 2.96-1.2h5.6V10.88c0-1.387.4-2.453 1.2-3.2.853-.8 1.893-1.2 3.12-1.2s2.267.4 3.12 1.2c.853.747 1.28 1.813 1.28 3.2v13.84h3.52c1.227 0 2.213.4 2.96 1.2.747.747 1.12 1.68 1.12 2.8 0 1.12-.373 2.08-1.12 2.88-.747.747-1.733 1.12-2.96 1.12h-3.52v19.04c.8-.267 1.573-.533 2.32-.8a26.89 26.89 0 012.08-.8c1.227-.48 2.347-.507 3.36-.08s1.68 1.227 2 2.4c.267 1.067.213 2.08-.16 3.04s-1.173 1.707-2.4 2.24c-1.547.693-3.52 1.493-5.92 2.4a292.81 292.81 0 01-7.28 2.64c-2.4.8-4.48 1.467-6.24 2zm38.56 6.72h10.08c1.973 0 3.28-.267 3.92-.8.64-.587.987-1.787 1.04-3.6h-20c.053 1.813.4 3.013 1.04 3.6.64.533 1.947.8 3.92.8zm-4.96-11.2h20c-.053-1.813-.4-2.987-1.04-3.52-.64-.533-1.947-.8-3.92-.8h-10.08c-1.973 0-3.28.267-3.92.8-.64.533-.987 1.707-1.04 3.52zm13.92-20.88h4.56c1.973 0 3.28-.293 3.92-.88.64-.587.96-1.813.96-3.68h-9.44v4.56zm-12.72 0h4.48v-4.56h-9.36c0 1.867.32 3.093.96 3.68.64.587 1.947.88 3.92.88zm12.72-10.56h9.44c0-1.867-.32-3.067-.96-3.6-.64-.587-1.947-.88-3.92-.88h-4.56v4.48zm-17.6 0h9.36V24.4h-4.48c-1.973 0-3.28.293-3.92.88-.64.533-.96 1.733-.96 3.6zm73.6 28.48c-1.067 0-2-.373-2.8-1.12-.8-.747-1.253-1.68-1.36-2.8-.16-2.027-.32-4.347-.48-6.96a449.21 449.21 0 00-.4-8c-.16-2.773-.293-5.413-.4-7.92-.107-2.507-.187-4.72-.24-6.64-.053-1.92-.08-3.333-.08-4.24v-7.92c0-1.547.533-2.853 1.6-3.92 1.12-1.067 2.507-1.6 4.16-1.6 1.707 0 3.093.533 4.16 1.6 1.12 1.067 1.68 2.373 1.68 3.92v7.92c0 .907-.053 2.32-.16 4.24-.053 1.92-.133 4.133-.24 6.64-.107 2.507-.24 5.147-.4 7.92a400.406 400.406 0 01-.88 14.96c-.053 1.12-.48 2.053-1.28 2.8-.8.747-1.76 1.12-2.88 1.12zm0 19.52c-1.867 0-3.467-.667-4.8-2-1.333-1.333-2-2.933-2-4.8s.667-3.467 2-4.8c1.333-1.333 2.933-2 4.8-2s3.467.667 4.8 2c1.333 1.333 2 2.933 2 4.8s-.667 3.467-2 4.8c-1.333 1.333-2.933 2-4.8 2z" fill="url(#paint1_linear_10944_61303)"/><path d="M27.04 42.64l-2.924 2.73 2.924-2.73zm0-5.84l-2.924-2.73 2.924 2.73zm13.68-1.2v4a4 4 0 002.828-6.828L40.72 35.6zm-.88-1.36l3.795-1.265a3.99 3.99 0 00-.14-.36L39.84 34.24zm-.96-2.08l-3.699 1.523c.025.06.052.12.08.18l3.619-1.703zm-1.2-2.72l-3.699 1.523c.025.06.052.12.08.18l3.619-1.703zm-.88-2l-3.642 1.655.064.134L36.8 27.44zm-.24-3.2l-3.687-1.552a3.779 3.779 0 00-.041.102l3.728 1.45zm2.16-2.32l1.863 3.54a4 4 0 00-1.863-7.54v4zm-9.04-1.12l-3.023 2.62c.063.072.127.141.195.208L29.68 20.8zm0-5.52l-2.924-2.73-.007.008 2.931 2.722zm18.24-1.2v4a4 4 0 004-4h-4zm1.28-8.56l2.736 2.918.005-.005L49.2 5.52zm6.8 0l-2.828 2.828.092.09L56 5.52zm1.28 8.56h-4a4 4 0 004 4v-4zm19.36 1.2l-3.023 2.62.092.102 2.931-2.722zm0 5.52l2.931 2.722.092-.102-3.023-2.62zm-9.6 1.12v-4a4 4 0 00-1.789 7.578l1.789-3.578zm2.08 2.4l-3.831 1.15c.005.018.01.036.017.055l3.814-1.205zm-.24 3.12l3.625 1.691.023-.05-3.648-1.641zm-1.68 3.68l3.625 1.692.02-.046L67.2 31.12zm-2.16 4.48l-3.578-1.789A4 4 0 0065.04 39.6v-4zm13.92 1.2l2.924-2.73-2.924 2.73zm0 5.84l2.924 2.73-2.924-2.73zM41.6 76l-1.242 3.802.023.008L41.6 76zm-5.52-4.4l-3.596 1.752.037.073L36.08 71.6zm0-17.52l-3.578-1.789-.018.037 3.596 1.752zm5.52-4.48l-1.22-3.81-.022.008L41.6 49.6zm22.48 0l-1.242 3.802.023.008 1.219-3.81zm5.52 4.48l-3.613 1.716c.017.037.035.073.054.11L69.6 54.08zm0 17.52l-3.56-1.825a5.02 5.02 0 00-.036.073L69.6 71.6zM64.08 76l-1.22-3.81-.022.008L64.08 76zm-47.2 1.76l-2.736 2.918.09.081 2.646-2.999zM15.6 38.72h4a4 4 0 00-7.486-1.961L15.6 38.72zm-1.52 2.4l-3.255-2.325a4.154 4.154 0 00-.034.048l3.289 2.277zm-1.44 2.08l3.277 2.294.012-.017L12.64 43.2zm-3.12 2l.632 3.95a3.96 3.96 0 00.153-.028L9.52 45.2zm-3.6-.72l-2.342 3.243c.053.038.107.075.162.11l2.18-3.353zm-.88-6.24l3.14 2.479.045-.059-3.185-2.42zm5.92-9.2l-3.49-1.956a5.405 5.405 0 00-.01.018l3.5 1.938zm5.2-10.72l-3.68-1.57-.019.047 3.699 1.523zm3.52-9.92l-3.856-1.064-.008.029L19.68 8.4zM22 5.12l1.985 3.473L22 5.12zm3.68-.4L26.845.893a3.984 3.984 0 00-.086-.025L25.68 4.72zm2.64 2.32l-3.642 1.655c.031.068.064.135.099.201L28.32 7.04zm.24 3.92l3.825 1.172.021-.073-3.846-1.099zm-4 10.64L20.894 20a4 4 0 00-.334 1.6h4zM23.2 77.76l-2.646-3a4.01 4.01 0 00-.09.082L23.2 77.76zm35.44-9.2l.816 3.916a3.87 3.87 0 00.154-.035l-.97-3.881zm2.56-1.76l-3.535-1.871a3.389 3.389 0 00-.043.082L61.2 66.8zm0-7.84l-3.62 1.703c.042.088.086.174.134.258L61.2 58.96zm-2.56-1.84L57.67 61l.97-3.88zm-11.6.08l.97 3.88c.036-.008.073-.018.108-.028L47.04 57.2zm-2.56 1.84l3.578 1.789.041-.086-3.619-1.703zm0 7.68l-3.62 1.703.042.086 3.578-1.789zm2.56 1.76l-.97 3.88.036.01.934-3.89zm.4-32.88l-2.828-2.828A4 4 0 0047.44 39.6v-4zm7.92 0v4a4 4 0 003.62-2.297L55.36 35.6zm1.6-3.6l-3.65-1.636-.027.06L56.96 32zm2-4.48l3.655 1.625.022-.05-3.677-1.575zm1.36-3.36l-3.655-1.625a3.983 3.983 0 00-.112.28l3.767 1.345zm1.92-2.24l2.12 3.392a4 4 0 00-2.12-7.392v4zm-18.72 0v-4a4 4 0 00-2.148 7.375l2.148-3.375zm1.52 1.68l3.578-1.789a4.035 4.035 0 00-.105-.196L45.04 23.6zm1.04 2.32l-3.686 1.552c.022.054.046.107.071.16l3.615-1.712zm2.24 5.04l-3.745 1.404c.025.068.052.134.08.2l3.665-1.604zm.24 2.56l-3.88-.97c-.016.061-.03.123-.042.186l3.922.784zM30 39.84a.956.956 0 01-.164-.011c-.02-.004-.016-.005.007.004a.421.421 0 01.118.075l.003.003-5.848 5.458c1.598 1.713 3.697 2.471 5.884 2.471v-8zm-.036.07a.352.352 0 01-.04-.047c0-.003.001 0 .004.007s.001.006 0-.007a.597.597 0 01-.008-.103h-8c0 2.107.74 4.05 2.196 5.61l5.848-5.46zm-.044-.15a.968.968 0 01.018-.195l.003-.01v.002l-.002.002.005-.007a.34.34 0 01.02-.023l-5.848-5.458c-1.491 1.597-2.196 3.583-2.196 5.689h8zm.044-.23l-.003.002a.234.234 0 01-.04.032.421.421 0 01-.078.043c-.023.01-.027.008-.007.004A.956.956 0 0130 39.6v-8c-2.187 0-4.286.758-5.884 2.47l5.848 5.46zm.036.07h10.72v-8H30v8zm13.548-6.828c-.037-.038-.033-.04-.01-.005a.934.934 0 01.097.208l-7.59 2.53c.391 1.172 1.065 2.142 1.847 2.923l5.656-5.656zm-.053-.157c-.231-.52-.566-1.244-.996-2.158l-7.238 3.406c.423.9.728 1.562.924 2.002l7.31-3.25zm-.916-1.978a64.435 64.435 0 00-1.28-2.9l-7.238 3.406c.4.849.773 1.695 1.12 2.54l7.398-3.046zm-1.2-2.72c-.38-.924-.72-1.702-1.001-2.266l-7.156 3.578c.145.29.393.844.76 1.734l7.397-3.046zm-.938-2.132c-.11-.244-.114-.345-.112-.324 0 .011.002.044-.005.092a.64.64 0 01-.036.137l-7.456-2.9c-.857 2.204-.534 4.412.326 6.305l7.283-3.31zm-.195.007c.052-.122.106-.211.337-.332l-3.726-7.08c-1.796.946-3.182 2.403-3.983 4.308l7.372 3.104zM38.72 17.92h-6.16v8h6.16v-8zm-6.16 0a.909.909 0 01-.15-.01c-.02-.004-.018-.005 0 .002a.354.354 0 01.098.06l-5.656 5.656c1.583 1.584 3.603 2.292 5.708 2.292v-8zm.143.26a.466.466 0 01-.048-.063l-.005-.009v-.001l-.001-.002-.003-.013A.55.55 0 0132.64 18h-8a8.14 8.14 0 002.017 5.42l6.046-5.24zM32.64 18c0-.05.004-.074.005-.078l-.002.005a.214.214 0 01-.019.05.277.277 0 01-.013.023l-.007.01.007-.008-5.862-5.444C25.334 14.082 24.64 15.976 24.64 18h8zm-.036.01c.008-.009 0 0-.023.017a.443.443 0 01-.083.045c-.029.012-.045.015-.04.015a.6.6 0 01.102-.007v-8c-2.193 0-4.242.797-5.804 2.47l5.848 5.46zm-.044.07h15.36v-8H32.56v8zm19.36-4V8.8h-8v5.28h8zm0-5.28c0-.284.044-.399.046-.406l-.012.021c-.011.016-.02.024-.018.023l-5.472-5.836C44.655 4.298 43.92 6.53 43.92 8.8h8zm.021-.367c.078-.074.206-.193.699-.193v-8c-2.28 0-4.446.734-6.181 2.367l5.482 5.826zm.699-.193c.282 0 .416.043.456.058a.18.18 0 01.076.05l5.656-5.656C57.112.975 54.916.24 52.64.24v8zm.624.198c.001.001-.007-.007-.018-.023l-.012-.02c.002.006.046.12.046.405h8c0-2.27-.735-4.502-2.544-6.198l-5.472 5.836zm.016.362v5.28h8V8.8h-8zm4 9.28h16.48v-8H57.28v8zm16.48 0c.178 0 .188.029.102-.008a.715.715 0 01-.245-.172l6.046-5.24c-1.578-1.82-3.72-2.58-5.903-2.58v8zm-.051-.078l.007.008a.277.277 0 01-.04-.083v-.005c0 .004.004.029.004.078h8c0-2.024-.694-3.918-2.109-5.442l-5.862 5.444zM73.68 18a.55.55 0 01-.006.092l-.003.013v.002l-.001.002a.466.466 0 01-.053.072l6.046 5.239A8.14 8.14 0 0081.68 18h-8zm.029.078a.694.694 0 01.241-.166c.061-.024.02.008-.19.008v8c2.094 0 4.209-.673 5.811-2.398l-5.862-5.444zm.051-.158h-6.72v8h6.72v-8zm-8.509 7.578a.69.69 0 01.104.06c.004.004.004.004 0 0a.283.283 0 01-.041-.049.352.352 0 01-.02-.03c-.01-.02-.01-.026-.005-.01l7.662-2.298c-.66-2.204-2.147-3.841-4.122-4.829l-3.578 7.156zm.055.026a.27.27 0 01.006.024v.005a.801.801 0 01-.08.245l7.296 3.284c.839-1.866 1.053-3.92.406-5.966l-7.628 2.409zm-.05.224c-.385.824-.954 2.07-1.702 3.726l7.291 3.292c.746-1.65 1.297-2.858 1.66-3.634l-7.25-3.384zm-1.68 3.68a180.45 180.45 0 01-2.114 4.383l7.156 3.578a188.178 188.178 0 002.207-4.578l-7.25-3.383zM65.04 39.6h10.88v-8H65.04v8zm10.88 0c.224 0 .287.035.251.02a.393.393 0 01-.135-.09l5.848-5.46c-1.633-1.749-3.78-2.47-5.964-2.47v8zm.116-.07a.34.34 0 01.02.022l.005.008a.02.02 0 01-.002-.004l.003.009a.968.968 0 01.018.195h8c0-2.106-.705-4.092-2.196-5.69l-5.848 5.46zm.044.23c0 .057-.005.09-.007.103l-.001.007c.003-.006.005-.01.003-.008a.368.368 0 01-.04.049l5.85 5.458c1.455-1.56 2.195-3.502 2.195-5.609h-8zm-.044.15a.393.393 0 01.136-.091c.035-.014-.028.021-.252.021v8c2.183 0 4.331-.721 5.964-2.47l-5.848-5.46zm-.116-.07H30v8h45.92v-8zM52.88 73.28c-4.696 0-7.975-.422-10.06-1.09l-2.44 7.62c3.248 1.039 7.49 1.47 12.5 1.47v-8zm-10.038-1.082c-1.8-.588-2.702-1.446-3.203-2.423l-7.118 3.65c1.632 3.183 4.41 5.259 7.837 6.377l2.484-7.604zm-3.166-2.35c-.633-1.3-1.116-3.511-1.116-6.968h-8c0 4.01.53 7.611 1.924 10.472l7.192-3.504zM38.56 62.88c0-3.52.486-5.754 1.116-7.048l-7.192-3.504c-1.396 2.866-1.924 6.5-1.924 10.552h8zm1.098-7.011c.514-1.03 1.418-1.89 3.184-2.467l-2.484-7.604c-3.461 1.13-6.237 3.256-7.856 6.493l7.156 3.578zm3.161-2.46c2.086-.667 5.365-1.089 10.061-1.089v-8c-5.01 0-9.252.431-12.5 1.47l2.44 7.62zM52.88 52.32c4.702 0 7.94.423 9.958 1.082l2.484-7.604c-3.21-1.048-7.438-1.478-12.442-1.478v8zm9.98 1.09c1.827.584 2.676 1.436 3.127 2.386l7.226-3.432c-1.575-3.317-4.406-5.451-7.914-6.574l-2.438 7.62zm3.18 2.495c.652 1.27 1.16 3.473 1.16 6.975h8c0-4.072-.559-7.735-2.04-10.625l-7.12 3.65zm1.16 6.975c0 3.438-.505 5.62-1.16 6.895l7.12 3.65c1.478-2.884 2.04-6.516 2.04-10.545h-8zm-1.196 6.968c-.437.897-1.282 1.747-3.143 2.342l2.438 7.62c3.472-1.111 6.307-3.195 7.897-6.458l-7.192-3.504zm-3.166 2.35c-2.017.659-5.256 1.082-9.958 1.082v8c5.005 0 9.233-.43 12.442-1.478l-2.484-7.604zM20.08 74.96c-.268 0-.39-.054-.553-.2l-5.294 6c1.65 1.454 3.661 2.2 5.847 2.2v-8zm-.464-.118c-.01-.01-.006-.007.003.006a.16.16 0 01.015.026c.003.01-.034-.076-.034-.314h-8c0 2.269.768 4.453 2.544 6.118l5.472-5.836zm-.016-.282V38.72h-8v35.84h8zm-7.486-37.801a22.365 22.365 0 01-1.289 2.036l6.51 4.65a30.36 30.36 0 001.751-2.764l-6.972-3.922zm-1.323 2.084l-1.44 2.08 6.578 4.554 1.44-2.08-6.578-4.554zm-1.428 2.063c-.128.183-.254.297-.627.372l1.569 7.844c2.293-.458 4.247-1.678 5.612-3.628l-6.554-4.588zm-.475.344c-.42.068-.607-.006-.788-.124l-4.36 6.708c1.952 1.268 4.166 1.675 6.412 1.316l-1.264-7.9zm-.626-.013a.489.489 0 01-.07-.06.137.137 0 01-.019-.023c-.004-.007-.043-.069-.072-.24L.219 42.286c.382 2.197 1.506 4.1 3.359 5.438l4.684-6.486zm-.161-.322a.412.412 0 01-.008-.079c0-.001 0 .007-.004.017-.002.01-.003.009.006-.009a.798.798 0 01.085-.125L1.9 35.76C.425 37.63-.197 39.891.22 42.285l7.88-1.37zm.124-.255c2.161-2.844 4.237-6.077 6.234-9.682l-6.998-3.876c-1.843 3.328-3.714 6.229-5.606 8.718l6.37 4.84zm6.224-9.664a102.989 102.989 0 005.41-11.153l-7.398-3.046a94.997 94.997 0 01-4.99 10.287l6.978 3.912zm5.39-11.107c1.602-3.755 2.845-7.244 3.705-10.454l-7.728-2.07c-.74 2.763-1.844 5.888-3.335 9.386l7.358 3.138zm3.697-10.425c.114-.413.237-.632.31-.734a.41.41 0 01.139-.137l-3.97-6.946c-2.25 1.286-3.556 3.386-4.191 5.69l7.712 2.127zm.449-.871c.117-.067.23-.13.617-.021L26.759.868c-2.28-.638-4.621-.434-6.744.779l3.97 6.946zm.53-.046a.59.59 0 01.108.041l-.004-.003c-.008-.008-.008-.01 0 0 .007.011.03.044.06.11l7.283-3.31c-1.006-2.213-2.785-3.782-5.117-4.492l-2.33 7.654zm.262.349c.006.013.15.221-.063.965l7.692 2.198c.64-2.243.624-4.648-.543-6.875l-7.086 3.712zm-.041.892c-.962 3.136-2.238 6.538-3.842 10.211l7.332 3.202c1.703-3.9 3.093-7.592 4.159-11.069l-7.65-2.344zM20.56 21.6v52.96h8V21.6h-8zm0 52.96c0 .107-.01.174-.015.208-.007.032-.011.039-.006.027a.217.217 0 01.023-.04c.01-.013.01-.01-.009.006l5.293 5.998c1.862-1.642 2.714-3.85 2.714-6.199h-8zm-.096.282a.361.361 0 01-.12.085.746.746 0 01-.264.033v8c2.188 0 4.222-.75 5.856-2.282l-5.472-5.836zM52.88 72.96c2.626 0 4.88-.13 6.576-.484l-1.632-7.832c-.865.18-2.45.316-4.944.316v8zm6.73-.52c1.96-.49 4.04-1.597 5.168-3.851l-7.156-3.578c.052-.104.117-.199.188-.278a.94.94 0 01.164-.15c.058-.04-.006.022-.304.096l1.94 7.762zm5.125-3.768c.931-1.76 1.185-3.866 1.185-5.872h-8c0 .709-.05 1.236-.117 1.611-.069.383-.142.524-.138.517l7.07 3.744zM65.92 62.8c0-1.95-.252-4.055-1.234-5.801l-6.972 3.922c-.032-.056.03.033.095.376.062.336.111.826.111 1.503h8zm-1.1-5.543c-1.09-2.316-3.16-3.505-5.21-4.018l-1.94 7.762c.27.067.31.12.236.067a.94.94 0 01-.166-.157 1.148 1.148 0 01-.16-.248l7.24-3.406zm-5.21-4.018c-1.77-.442-4.088-.599-6.73-.599v8c2.478 0 4 .163 4.79.36l1.94-7.76zm-6.73-.599c-2.672 0-5.054.186-6.919.708l2.157 7.704c.802-.225 2.314-.412 4.762-.412v-8zm-6.81.68c-2.05.512-4.12 1.701-5.21 4.017l7.24 3.406c-.04.085-.095.17-.16.248a.946.946 0 01-.165.157c-.075.053-.035 0 .235-.067l-1.94-7.762zm-5.168 3.931c-.832 1.664-1.062 3.616-1.062 5.469h8c0-.631.043-1.1.1-1.435.06-.34.122-.465.118-.456l-7.156-3.578zM39.84 62.72c0 1.968.22 4.002 1.02 5.703l7.24-3.406c-.054-.113-.26-.745-.26-2.297h-8zm1.062 5.789c1.127 2.254 3.209 3.362 5.168 3.852l1.94-7.762c-.298-.074-.362-.135-.304-.095a.94.94 0 01.164.148c.07.08.136.175.188.28l-7.156 3.577zm5.204 3.86c1.798.432 4.12.591 6.774.591v-8c-2.467 0-4.037-.161-4.907-.37l-1.867 7.78zM47.44 39.6h7.92v-8h-7.92v8zm11.54-2.297c.454-.966 1.008-2.214 1.657-3.727l-7.354-3.152a113.892 113.892 0 01-1.542 3.473l7.238 3.406zm1.63-3.667c.695-1.55 1.363-3.047 2.005-4.492l-7.31-3.249c-.638 1.436-1.303 2.926-1.995 4.469l7.3 3.272zm2.027-4.54c.646-1.508 1.14-2.722 1.45-3.59l-7.534-2.691c-.223.624-.636 1.65-1.27 3.13l7.354 3.15zm1.338-3.311c.118-.265.239-.382.385-.473l-4.24-6.784c-1.56.975-2.72 2.352-3.455 4.007l7.31 3.25zM62.24 17.92H43.52v8h18.72v-8zm-20.867 7.375c-.077-.049.015-.024.194.29l6.946-3.97c-.674-1.179-1.596-2.274-2.846-3.07l-4.294 6.75zm.09.094c.207.416.514 1.095.93 2.083l7.373-3.104a45.446 45.446 0 00-1.148-2.557l-7.156 3.578zm1.002 2.243c.467.986.907 1.944 1.32 2.873l7.31-3.25c-.44-.99-.907-2.007-1.4-3.047l-7.23 3.424zm1.32 2.873c.425.956.675 1.554.79 1.86l7.49-2.81a46.535 46.535 0 00-.97-2.3l-7.31 3.25zm.87 2.058a.472.472 0 01.024.064c.002.005 0 0-.002-.014a.244.244 0 010-.045l.002-.018 7.762 1.94c.44-1.764.25-3.52-.456-5.133l-7.33 3.206zm-.017.172l-.005.02.005-.011.002-.004a.318.318 0 01-.028.032l5.656 5.656a7.99 7.99 0 002.214-4.123l-7.844-1.57zM123.52 44.96l-1.523 3.699.094.037 1.429-3.736zm-3.84-3.68l-3.665 1.603 3.665-1.603zm1.2-20.48l2.964 2.686.041-.046-3.005-2.64zm8.32-2.96l.213 3.994a4 4 0 003.115-6.213L129.2 17.84zm-.64-.96l-3.578 1.789c.074.148.158.292.25.43l3.328-2.219zm-1.04-1.76l-3.529 1.882c.051.096.106.19.164.281l3.365-2.163zm-1.36-2.4l-3.578 1.789c.046.091.095.181.148.269l3.43-2.058zm-1.12-2l-3.462 2.004c.043.073.087.145.134.215l3.328-2.219zm-.24-3.12l3.714 1.486L124.8 7.6zm2.24-2.4l-1.595-3.668c-.065.028-.13.058-.194.09L127.04 5.2zm3.52-.24l1.265-3.795-1.265 3.795zm2.56 2.08l3.497-1.943-.035-.061-3.462 2.004zm1.12 2l-3.486 1.961.056.097 3.43-2.058zm1.36 2.4l-3.529 1.882c.051.096.106.19.164.281l3.365-2.163zm1.04 1.68l3.578-1.789a3.72 3.72 0 00-.105-.196l-3.473 1.985zm.32 2.56l3.865 1.03.016-.06-3.881-.97zm-1.2 2.16l-2.949-2.703a4 4 0 002.949 6.703v-4zm7.04 0v4c1.515 0 2.9-.856 3.578-2.211L142.8 17.84zm1.52-3.12l3.606 1.73.026-.054-3.632-1.676zm1.84-4.08l-3.632-1.676-.029.065 3.661 1.611zm1.36-3.2l-3.684-1.559c-.03.07-.057.142-.083.214l3.767 1.345zm2.64-2.8L148.702.915a4.649 4.649 0 00-.057.023l1.515 3.702zm3.84.16l-1.611 3.661c.058.026.116.05.175.072L154 4.8zm2.56 2.56l3.859-1.052-3.859 1.052zm-.4 3.52l-3.578-1.789 3.578 1.789zm-1.6 2.96l-3.497-1.943-.054.102 3.551 1.841zm-2.16 4l-3.482-1.968a4 4 0 003.382 5.967l.1-3.999zm8.8 2.72l-2.918 2.736.045.047 2.873-2.783zm1.36 20.72l3.665 1.603-3.665-1.603zm-3.84 3.68l1.429 3.736.094-.037-1.523-3.699zM125.2 75.68l2.569-3.066-.008-.007-2.561 3.073zm0-23.92l-2.519-3.107a6.283 6.283 0 00-.042.034l2.561 3.073zm32.08 0l-2.561 3.073.042.034 2.519-3.107zm0 23.92l-2.519-3.107-.091.076 2.61 3.031zM97.68 64.8l1.04 3.862c.04-.01.08-.022.12-.034L97.68 64.8zm-3.84-.16l-1.72 3.611c.068.033.136.063.206.091l1.514-3.702zm-2.24-2.8l-3.862 1.04.01.038L91.6 61.84zm.4-3.6l-3.354-2.18-.028.044L92 58.24zm3.04-2.08l-.916-3.894a4.478 4.478 0 01-.017.005l.933 3.889zm2.88-.72l-.97-3.88a3.73 3.73 0 00-.048.012l1.018 3.868zm3.28-.88l1.099 3.846a4 4 0 002.901-3.846h-4zm0-21.84h4a4 4 0 00-4-4v4zm-8.56-1.12l-2.924 2.73c.031.033.063.066.096.098L92.64 31.6zm0-5.68l2.828 2.828c.033-.032.065-.065.096-.099L92.64 25.92zm8.56-1.2v4a4 4 0 004-4h-4zm1.2-17.04l2.729 2.924.007-.006L102.4 7.68zm6.24 0l-2.736 2.918.102.092 2.634-3.01zm1.28 17.04h-4a4 4 0 004 4v-4zm6.48 1.2l-2.924 2.73c.031.033.063.066.096.098l2.828-2.828zm0 5.68l2.828 2.828c.033-.032.065-.065.096-.099L116.4 31.6zm-6.48 1.12v-4a4 4 0 00-4 4h4zm0 19.04h-4a4 4 0 005.265 3.795l-1.265-3.795zm2.32-.8l1.345 3.767c.078-.028.155-.058.231-.09l-1.576-3.677zm2.08-.8l1.265 3.795c.065-.022.129-.045.193-.07l-1.458-3.725zm3.36-.08l1.552-3.686-1.552 3.686zm2 2.4l3.881-.97a2.382 2.382 0 00-.022-.082l-3.859 1.052zm-.16 3.04l-3.728-1.45 3.728 1.45zm-2.4 2.24l-1.595-3.668-.041.018 1.636 3.65zm-5.92 2.4l1.414 3.742-1.414-3.742zm-7.28 2.64l1.265 3.795.049-.017-1.314-3.778zm46.32 7.92l2.561 3.073a4.97 4.97 0 00.142-.124l-2.703-2.949zm1.04-3.6l3.998.118a4 4 0 00-3.998-4.118v4zm-20 0v-4a4.002 4.002 0 00-3.998 4.118l3.998-.118zm1.04 3.6l-2.703 2.949c.047.042.094.084.142.124l2.561-3.073zm-1.04-10.4l-3.998-.118a4 4 0 003.998 4.118v-4zm20 0v4a4.002 4.002 0 003.998-4.118l-3.998.118zm-1.04-3.52l-2.561 3.073 2.561-3.073zm-17.92 0l2.561 3.073-2.561-3.073zm12.88-17.36h-4a4 4 0 004 4v-4zm8.48-.88l2.703 2.949-2.703-2.949zm.96-3.68h4a4 4 0 00-4-4v4zm-9.44 0v-4a4 4 0 00-4 4h4zm-8.24 4.56v4a4 4 0 004-4h-4zm0-4.56h4a4 4 0 00-4-4v4zm-9.36 0v-4a4 4 0 00-4 4h4zm.96 3.68l2.703-2.949-2.703 2.949zm16.64-9.68h-4a4 4 0 004 4v-4zm9.44 0v4a4 4 0 004-4h-4zm-.96-3.6l-2.703 2.949c.047.042.094.084.142.124l2.561-3.073zm-8.48-.88v-4a4 4 0 00-4 4h4zm-17.6 4.48h-4a4 4 0 004 4v-4zm9.36 0v4a4 4 0 004-4h-4zm0-4.48h4a4 4 0 00-4-4v4zm-8.4.88l2.561 3.073c.048-.04.096-.082.142-.124l-2.703-2.949zm2.4 16.72c-2.923 0-4.849-.332-6.011-.776l-2.858 7.472c2.465.943 5.499 1.304 8.869 1.304v-8zm-5.917-.739c-.911-.375-1.391-.881-1.698-1.584l-7.33 3.206c1.186 2.71 3.266 4.657 5.982 5.776l3.046-7.398zm-1.698-1.584c-.435-.995-.785-2.693-.785-5.357h-8c0 3.203.397 6.144 1.455 8.563l7.33-3.206zm-.785-5.357v-4.8h-8v4.8h8zm0-4.8c0-3.817.76-5.456 1.284-6.034l-5.928-5.372c-2.569 2.835-3.356 7.01-3.356 11.406h8zm1.325-6.08c.472-.537 1.887-1.412 5.528-1.606l-.426-7.988c-4.359.232-8.491 1.331-11.112 4.314l6.01 5.28zm8.643-7.819l-.32-.48-6.656 4.438.32.48 6.656-4.438zm-.32-.48l-.32-.48-6.656 4.438.32.48 6.656-4.438zm-.07-.05c-.311-.62-.749-1.35-1.253-2.134l-6.73 4.326c.457.71.711 1.153.827 1.386l7.156-3.578zm-1.089-1.853a58.11 58.11 0 00-1.459-2.576l-6.86 4.116c.446.744.866 1.485 1.261 2.224l7.058-3.764zm-1.311-2.307c-.46-.92-.918-1.752-1.37-2.43l-6.656 4.438c.188.282.477.783.87 1.57l7.156-3.578zm-1.236-2.215c-.018-.03-.013-.029-.002.004a.764.764 0 01.022.325c-.007.043-.015.058-.008.04l-7.428-2.97c-.893 2.232-.696 4.557.492 6.61l6.924-4.01zm.012.37c.048-.12.088-.195.315-.308l-3.578-7.156c-1.906.953-3.359 2.479-4.165 4.492l7.428 2.972zm.121-.218c.451-.196.602-.133.66-.113l2.53-7.59c-2.182-.727-4.377-.504-6.38.367l3.19 7.336zm.66-.113c.202.067.27.128.363.29l6.924-4.01a8.51 8.51 0 00-4.757-3.87l-2.53 7.59zm.328.228c.272.489.649 1.162 1.131 2.018l6.972-3.922c-.478-.851-.848-1.51-1.109-1.982l-6.994 3.886zm1.187 2.115c.446.744.866 1.485 1.261 2.224l7.058-3.764a58.042 58.042 0 00-1.459-2.576l-6.86 4.116zm1.425 2.505c.473.736.773 1.223.932 1.502l6.946-3.97a45.506 45.506 0 00-1.148-1.858l-6.73 4.326zm.827 1.306c.033.065.018.057.009-.013a.523.523 0 01.008-.186l7.762 1.94c.465-1.86.191-3.69-.623-5.319l-7.156 3.578zm.033-.26a1.12 1.12 0 01-.284.488l5.898 5.406a9.12 9.12 0 002.116-3.832l-7.73-2.062zm2.665 7.191h7.04v-8h-7.04v8zm10.618-2.211c.387-.775.905-1.838 1.548-3.178l-7.212-3.462a230.546 230.546 0 01-1.492 3.062l7.156 3.578zm1.574-3.233a252.314 252.314 0 001.869-4.145l-7.322-3.222c-.577 1.31-1.18 2.649-1.811 4.015l7.264 3.352zm1.84-4.08c.653-1.415 1.167-2.612 1.495-3.53l-7.534-2.691c-.205.574-.598 1.51-1.225 2.869l7.264 3.352zM151.204 9c.258-.61.456-.65.471-.657l-3.03-7.404c-2.331.954-3.893 2.78-4.809 4.943L151.204 9zm.414-.634c.126-.05.298-.112.771.096l3.222-7.322c-2.194-.966-4.582-1.134-6.909-.224l2.916 7.45zm.946.168c.289.111.337.185.288.135a.585.585 0 01-.151-.256l7.718-2.104c-.73-2.679-2.704-4.365-4.983-5.241l-2.872 7.466zm.137-.12c.04.145.065.31-.119.678l7.156 3.578c.989-1.979 1.281-4.16.681-6.361l-7.718 2.104zm-.119.678c-.222.444-.714 1.359-1.519 2.806l6.994 3.886c.795-1.432 1.37-2.492 1.681-3.114l-7.156-3.578zM151.009 12a123.897 123.897 0 01-2.091 3.873l6.964 3.936c.72-1.274 1.463-2.65 2.229-4.127L151.009 12zm1.291 9.84c3.999.1 5.524.968 5.982 1.457l5.836-5.472c-2.742-2.925-7.083-3.87-11.618-3.983l-.2 7.998zm6.027 1.504c.537.555 1.353 2.197 1.353 6.177h8c0-4.553-.838-8.884-3.607-11.743l-5.746 5.566zm1.353 6.177v4.8h8v-4.8h-8zm0 4.8c0 2.664-.35 4.362-.785 5.357l7.33 3.206c1.058-2.419 1.455-5.36 1.455-8.563h-8zm-.785 5.357c-.307.703-.787 1.21-1.698 1.584l3.046 7.398c2.716-1.119 4.796-3.066 5.982-5.776l-7.33-3.206zm-1.604 1.547c-1.162.444-3.088.776-6.011.776v8c3.37 0 6.404-.361 8.869-1.304l-2.858-7.472zM151.28 42h-20.32v8h20.32v-8zm-15.92 32.16c-4.573 0-6.741-.834-7.591-1.546l-5.138 6.132c3.097 2.594 7.702 3.414 12.729 3.414v-8zm-7.599-1.553c-.549-.457-1.441-1.826-1.441-5.567h-8c0 4.579 1.028 8.97 4.319 11.713l5.122-6.146zm-1.441-5.567v-6.56h-8v6.56h8zm0-6.56c0-3.815.902-5.198 1.441-5.647l-5.122-6.146c-3.301 2.75-4.319 7.18-4.319 11.793h8zm1.399-5.613c.857-.695 3.05-1.507 7.641-1.507v-8c-5.009 0-9.59.788-12.679 3.293l5.038 6.214zm7.641-1.507h11.84v-8h-11.84v8zm11.84 0c4.608 0 6.735.819 7.519 1.473l5.122-6.146c-3.056-2.546-7.649-3.327-12.641-3.327v8zm7.561 1.507c.565.458 1.479 1.828 1.479 5.613h8c0-4.641-1.059-9.085-4.441-11.827l-5.038 6.214zm1.479 5.613v6.56h8v-6.56h-8zm0 6.56c0 3.712-.904 5.067-1.479 5.533l5.038 6.214c3.372-2.734 4.441-7.139 4.441-11.747h-8zm-1.57 5.609c-.779.67-2.88 1.511-7.47 1.511v8c5.01 0 9.629-.813 12.69-3.449l-5.22-6.062zm-7.47 1.511h-11.84v8h11.84v-8zM96.64 60.938c-.658.177-1.03.105-1.285 0l-3.03 7.404c2.09.855 4.28.89 6.395.32l-2.08-7.725zm-1.08.09c-.025-.011-.028-.016-.019-.008a.16.16 0 01.023.021c.01.014-.048-.05-.112-.28l-7.704 2.157c.644 2.302 2.08 4.242 4.372 5.333l3.44-7.222zm-.097-.228c-.081-.3-.07-.44-.067-.458 0-.01 0-.003-.005.012-.005.016-.01.025-.009.022l-6.764-4.272c-1.354 2.144-1.482 4.542-.88 6.776l7.725-2.08zm-.11-.38c.09-.138.198-.27.62-.37l-1.867-7.78c-2.244.54-4.162 1.794-5.46 3.79l6.708 4.36zm.603-.366c.945-.223 1.939-.471 2.982-.746l-2.036-7.736c-.984.258-1.91.49-2.778.694l1.832 7.788zm2.934-.733a106.15 106.15 0 003.409-.915l-2.198-7.692c-1.08.308-2.13.59-3.151.845l1.94 7.762zm6.31-4.761V32.72h-8v21.84h8zm-4-25.84h-5.6v8h5.6v-8zm-5.6 0c-.207 0-.27-.031-.244-.021a.337.337 0 01.112.073l-5.656 5.656c1.618 1.619 3.686 2.292 5.788 2.292v-8zm-.036.15a.352.352 0 01-.04-.047c0-.003.001 0 .004.007s.001.006 0-.007a.597.597 0 01-.008-.103h-8c0 2.107.74 4.05 2.196 5.61l5.848-5.46zm-.044-.15a.53.53 0 01.005-.09.383.383 0 01-.047.103c-.012.02-.018.024-.01.015l-5.656-5.656c-1.546 1.545-2.292 3.519-2.292 5.628h8zm.044-.07l-.003.002a.234.234 0 01-.04.032.421.421 0 01-.078.043c-.023.01-.027.008-.007.004a.956.956 0 01.164-.011v-8c-2.187 0-4.285.758-5.884 2.47l5.848 5.46zm.036.07h5.6v-8h-5.6v8zm9.6-4V10.88h-8v13.84h8zm0-13.84c0-.315.046-.437.045-.436 0 .003-.01.027-.034.063a.583.583 0 01-.082.097l-5.458-5.848C97.856 6.45 97.2 8.7 97.2 10.88h8zm-.064-.282a.355.355 0 01.12-.085.746.746 0 01.264-.033v-8c-2.188 0-4.222.75-5.856 2.282l5.472 5.836zm.384-.118c.172 0 .246.027.264.033.014.006.051.02.12.085l5.472-5.836c-1.634-1.532-3.668-2.282-5.856-2.282v8zm.486.21a.498.498 0 01-.12-.164c-.01-.026.034.067.034.354h8c0-2.26-.734-4.538-2.646-6.21l-5.268 6.02zm-.086.19v13.84h8V10.88h-8zm4 17.84h3.52v-8h-3.52v8zm3.52 0c.089 0 .142.007.164.011.02.004.016.005-.007-.004a.44.44 0 01-.079-.043l-.031-.024-.008-.008-.003-.003 5.848-5.458c-1.598-1.713-3.697-2.471-5.884-2.471v8zm.132.028c.009.01.002.005-.01-.014a.384.384 0 01-.036-.068c-.01-.025-.012-.039-.011-.035 0 .004.005.032.005.089h8c0-2.11-.746-4.083-2.292-5.628l-5.656 5.656zm-.052-.028c0 .057-.005.09-.007.103-.002.013-.004.014-.001.007l.003-.007a.281.281 0 01-.039.048l5.848 5.458c1.456-1.56 2.196-3.502 2.196-5.609h-8zm.052.052a.363.363 0 01.112-.073c.027-.01-.037.021-.244.021v8c2.102 0 4.17-.673 5.788-2.292l-5.656-5.656zm-.132-.052h-3.52v8h3.52v-8zm-7.52 4v19.04h8V32.72h-8zm5.265 22.835c.825-.275 1.625-.551 2.4-.828l-2.69-7.534c-.719.257-1.465.514-2.24.772l2.53 7.59zm2.631-.918a22.85 22.85 0 011.769-.682l-2.53-7.59c-.764.255-1.562.563-2.391.918l3.152 7.354zm1.962-.752c.253-.1.378-.106.397-.106.01 0 .004 0-.012-.003a.165.165 0 01-.035-.01l3.104-7.372c-2.158-.91-4.378-.738-6.37.041l2.916 7.45zm.35-.118a.58.58 0 01-.112-.067.849.849 0 01-.149-.14c-.09-.108-.08-.153-.046-.028l7.718-2.104c-.604-2.216-2.03-4.076-4.307-5.034l-3.104 7.373zm-.329-.317c.081.321.046.485-.007.62l7.456 2.9c.694-1.785.766-3.648.313-5.46l-7.762 1.94zm-.007.62a.639.639 0 01.119-.194c-.003.002-.101.092-.386.216l3.19 7.336c1.9-.826 3.667-2.232 4.533-4.458l-7.456-2.9zm-.308.04c-1.447.648-3.339 1.417-5.698 2.308l2.828 7.484c2.441-.922 4.495-1.754 6.142-2.492l-3.272-7.3zm-5.698 2.308c-2.366.894-4.76 1.762-7.18 2.604l2.628 7.556a297.884 297.884 0 007.38-2.676l-2.828-7.484zm-7.131 2.587c-2.377.793-4.42 1.447-6.135 1.967l2.32 7.656a247.044 247.044 0 006.345-2.033l-2.53-7.59zM136.24 75.52h10.08v-8h-10.08v8zm10.08 0c1.14 0 2.251-.075 3.26-.28.952-.195 2.176-.576 3.221-1.447l-5.122-6.146c.223-.185.397-.26.436-.277.041-.017.007.002-.135.03-.297.061-.827.12-1.66.12v8zm6.623-1.851c1.049-.962 1.587-2.166 1.88-3.179.298-1.032.423-2.147.455-3.252l-7.996-.236c-.021.708-.096 1.1-.145 1.268-.021.075-.022.05.026-.039.051-.09.164-.267.374-.46l5.406 5.898zM151.28 63.12h-20v8h20v-8zm-23.998 4.118c.032 1.105.157 2.22.455 3.252.293 1.013.831 2.217 1.88 3.179l5.406-5.898c.21.193.323.37.374.46.048.088.047.114.026.039-.049-.168-.124-.56-.145-1.268l-7.996.236zm2.477 6.555c1.045.87 2.269 1.252 3.221 1.446 1.009.206 2.12.281 3.26.281v-8c-.833 0-1.363-.058-1.66-.12-.142-.028-.176-.047-.135-.03.039.016.213.092.436.277l-5.122 6.146zm1.521-9.473h20v-8h-20v8zm23.998-4.118c-.032-1.102-.156-2.221-.462-3.255-.298-1.01-.865-2.261-2.015-3.22l-5.122 6.146a2.104 2.104 0 01-.477-.551c-.067-.117-.076-.168-.058-.109.017.058.048.184.076.398.029.212.052.485.062.827l7.996-.236zm-2.477-6.475c-1.045-.87-2.269-1.252-3.221-1.446-1.009-.206-2.12-.281-3.26-.281v8c.833 0 1.363.059 1.66.12.142.028.176.047.135.03a1.763 1.763 0 01-.436-.277l5.122-6.146zM146.32 52h-10.08v8h10.08v-8zm-10.08 0c-1.14 0-2.251.075-3.26.28-.952.195-2.176.576-3.221 1.447l5.122 6.146c-.223.185-.397.26-.436.277-.041.017-.007-.002.135-.03.297-.061.827-.12 1.66-.12v-8zm-6.481 1.727c-1.15.959-1.717 2.21-2.015 3.22-.306 1.034-.43 2.153-.462 3.255l7.996.236c.01-.342.033-.615.062-.827.028-.214.059-.34.076-.398.018-.06.009-.008-.058.109-.07.121-.216.334-.477.55l-5.122-6.145zM145.2 43.44h4.56v-8h-4.56v8zm4.56 0c1.157 0 2.295-.083 3.336-.317.997-.224 2.245-.66 3.287-1.614l-5.406-5.898c.215-.197.393-.285.45-.31.058-.027.042-.012-.083.016-.265.06-.767.123-1.584.123v8zm6.623-1.931c1.092-1.002 1.618-2.265 1.887-3.3.277-1.058.37-2.2.37-3.329h-8c0 .355-.015.642-.039.868-.023.229-.053.37-.071.442-.02.075-.019.04.035-.061.056-.106.18-.305.412-.518l5.406 5.898zM154.64 30.88h-9.44v8h9.44v-8zm-13.44 4v4.56h8v-4.56h-8zm-8.72 8.56h4.48v-8h-4.48v8zm8.48-4v-4.56h-8v4.56h8zm-4-8.56h-9.36v8h9.36v-8zm-13.36 4c0 1.13.093 2.271.37 3.33.269 1.034.795 2.297 1.887 3.299l5.406-5.898c.232.213.356.412.412.517.054.102.055.137.035.062a3.148 3.148 0 01-.071-.442 8.361 8.361 0 01-.039-.868h-8zm2.257 6.629c1.042.954 2.29 1.39 3.287 1.614 1.041.234 2.179.317 3.336.317v-8c-.817 0-1.319-.063-1.584-.123-.125-.028-.141-.043-.083-.017.057.026.235.114.45.311l-5.406 5.898zM145.2 32.88h9.44v-8h-9.44v8zm13.44-4c0-1.125-.093-2.271-.375-3.33-.274-1.029-.827-2.345-2.024-3.343l-5.122 6.146a2.185 2.185 0 01-.518-.61c-.073-.131-.082-.192-.066-.132.015.056.043.186.067.41.023.22.038.503.038.859h8zm-2.257-6.549c-1.042-.954-2.29-1.39-3.287-1.614-1.041-.234-2.179-.317-3.336-.317v8c.817 0 1.319.063 1.584.123.125.028.141.043.083.017a1.785 1.785 0 01-.45-.311l5.406-5.898zM149.76 20.4h-4.56v8h4.56v-8zm-8.56 4v4.48h8V24.4h-8zm-13.6 8.48h9.36v-8h-9.36v8zm13.36-4V24.4h-8v4.48h8zm-4-8.48h-4.48v8h4.48v-8zm-4.48 0c-1.157 0-2.295.083-3.336.317-.997.224-2.245.66-3.287 1.614l5.406 5.898a1.785 1.785 0 01-.45.31c-.058.027-.042.012.083-.016.265-.06.767-.123 1.584-.123v-8zm-6.481 1.807c-1.197.998-1.75 2.314-2.024 3.342-.282 1.06-.375 2.206-.375 3.331h8c0-.356.015-.64.038-.86.024-.223.052-.353.067-.41.016-.06.007.002-.066.133a2.185 2.185 0 01-.518.61l-5.122-6.146zM198.4 56.24l2.729-2.924-2.729 2.924zm-1.36-2.8l-3.988.315.006.064 3.982-.379zm-.48-6.96l-3.997.163.004.081 3.993-.244zm-.4-8l-3.993.23v.005l3.993-.235zm.88-30.64l-2.759-2.897a7.865 7.865 0 00-.069.069l2.828 2.828zm8.32 0l-2.828 2.828.069.069 2.759-2.897zm1.52 16.08l-3.994-.222-.004.11 3.998.112zm-.24 6.64l-3.996-.17 3.996.17zm-.4 7.92l-3.993-.23-.004.073 3.997.157zm-.4 8l3.993.244-3.993-.244zm-.48 6.96l-3.988-.315a5.191 5.191 0 00-.007.125l3.995.19zm-8.96 21.44l2.828-2.828-2.828 2.828zm0-9.6l-2.828-2.828 2.828 2.828zm9.6 0l-2.828 2.828L206 65.28zm0 9.6l-2.828-2.828L206 74.88zm-4.8-21.52c-.032 0-.044-.003-.041-.002a.11.11 0 01.027.008c.012.005.016.008.01.004a.493.493 0 01-.067-.054l-5.458 5.848c1.519 1.418 3.42 2.196 5.529 2.196v-8zm-.071-.044a.506.506 0 01-.071-.084c-.001-.002-.024-.046-.036-.171l-7.964.758c.196 2.063 1.077 3.911 2.613 5.345l5.458-5.848zm-.101-.19a384.63 384.63 0 01-.475-6.89l-7.986.488c.162 2.631.323 4.975.485 7.03l7.976-.629zm-.471-6.81a456.36 456.36 0 00-.404-8.07l-7.986.469c.159 2.697.291 5.34.396 7.928l7.994-.326zm-.404-8.066a525.26 525.26 0 01-.397-7.86l-7.992.34c.107 2.529.242 5.189.403 7.98l7.986-.46zm-.397-7.86a458.388 458.388 0 01-.238-6.581l-7.996.222c.054 1.945.134 4.178.242 6.7l7.992-.341zm-.238-6.581a166.57 166.57 0 01-.078-4.129h-8c0 .965.028 2.425.082 4.351l7.996-.222zm-.078-4.129v-7.92h-8v7.92h8zm0-7.92c0-.516.133-.796.428-1.092l-5.656-5.656c-1.838 1.837-2.772 4.17-2.772 6.748h8zm.359-1.024c.321-.306.697-.496 1.401-.496v-8c-2.603 0-5 .876-6.919 2.703l5.518 5.793zm1.401-.496c.798 0 1.116.213 1.332.428l5.656-5.656c-1.917-1.918-4.372-2.772-6.988-2.772v8zm1.401.496c.328.312.439.572.439 1.024h8c0-2.641-1.009-4.995-2.921-6.817l-5.518 5.793zm.439 1.024v7.92h8v-7.92h-8zm0 7.92c0 .789-.048 2.11-.154 4.018l7.988.444c.107-1.931.166-3.438.166-4.462h-8zm-.158 4.129a458.388 458.388 0 01-.238 6.58l7.992.341c.108-2.52.188-4.754.242-6.699l-7.996-.222zm-.238 6.58a525.26 525.26 0 01-.397 7.86l7.986.461c.161-2.791.296-5.451.403-7.98l-7.992-.34zm-.401 7.934a352.35 352.35 0 01-.396 7.913l7.986.488c.161-2.643.296-5.34.404-8.087l-7.994-.314zm-.396 7.913a384.63 384.63 0 01-.475 6.89l7.976.629c.162-2.056.323-4.4.485-7.03l-7.986-.49zm-.482 7.014c-.003.052-.009.079-.01.084l.007-.017a.152.152 0 01.018-.03c.003-.005-.004.005-.029.029l5.458 5.848c1.583-1.477 2.445-3.4 2.546-5.534l-7.99-.38zm-.014.066a.324.324 0 01-.049.04l.008-.004c.007-.003.006-.001-.007 0a.59.59 0 01-.103.008v8c2.107 0 4.05-.74 5.609-2.196l-5.458-5.848zM201.2 72.88c-.794 0-1.38-.237-1.972-.828l-5.656 5.656c2.074 2.075 4.688 3.172 7.628 3.172v-8zm-1.972-.828c-.591-.592-.828-1.178-.828-1.972h-8c0 2.94 1.097 5.553 3.172 7.628l5.656-5.656zm-.828-1.972c0-.794.237-1.38.828-1.972l-5.656-5.656c-2.075 2.075-3.172 4.688-3.172 7.628h8zm.828-1.972c.592-.591 1.178-.828 1.972-.828v-8c-2.94 0-5.554 1.097-7.628 3.172l5.656 5.656zm1.972-.828c.794 0 1.38.237 1.972.828l5.656-5.656c-2.074-2.075-4.688-3.172-7.628-3.172v8zm1.972.828c.591.592.828 1.178.828 1.972h8c0-2.94-1.097-5.553-3.172-7.628l-5.656 5.656zM204 70.08c0 .794-.237 1.38-.828 1.972l5.656 5.656C210.903 75.633 212 73.02 212 70.08h-8zm-.828 1.972c-.592.591-1.178.828-1.972.828v8c2.94 0 5.554-1.097 7.628-3.172l-5.656-5.656z" fill="#EB537B" mask="url(#a)"/></g><defs><linearGradient id="paint0_linear_10944_61303" x1="2.5" y1="-3" x2="248.009" y2="38.372" gradientUnits="userSpaceOnUse"><stop stop-color="#FFD8E8"/><stop offset=".5" stop-color="#FFCABA"/><stop offset="1" stop-color="#FFEF9B"/></linearGradient><linearGradient id="paint1_linear_10944_61303" x1="2.5" y1="-3" x2="248.009" y2="38.372" gradientUnits="userSpaceOnUse"><stop stop-color="#FFF9EC"/><stop offset=".507" stop-color="#FFE9B8"/><stop offset="1" stop-color="#FFF9EA"/></linearGradient><filter id="filter0_d_10944_61303" x=".092" y=".24" width="214.908" height="85.72" filterUnits="userSpaceOnUse" color-interpolation-filters="sRGB"><feFlood flood-opacity="0" result="BackgroundImageFix"/><feColorMatrix in="SourceAlpha" values="0 0 0 0 0 0 0 0 0 0 0 0 0 0 0 0 0 0 127 0" result="hardAlpha"/><feOffset dx="3" dy="3"/><feComposite in2="hardAlpha" operator="out"/><feColorMatrix values="0 0 0 0 0.921569 0 0 0 0 0.32549 0 0 0 0 0.482353 0 0 0 1 0"/><feBlend in2="BackgroundImageFix" result="effect1_dropShadow_10944_61303"/><feBlend in="SourceGraphic" in2="effect1_dropShadow_10944_61303" result="shape"/></filter></defs></svg>