<svg width="375" height="691" viewBox="0 0 375 691" fill="none" xmlns="http://www.w3.org/2000/svg">
<g clip-path="url(#clip0_11089_246007)">
<rect x="0.5" y="49" width="375" height="938" fill="url(#paint0_linear_11089_246007)"/>
<g opacity="0.3">
<path d="M-14.7383 41.6247C-6.40761 41.6247 0.345716 34.8664 0.345716 26.5296C0.345716 18.1929 -6.40761 11.4346 -14.7383 11.4346C-23.0689 11.4346 -29.8223 18.1929 -29.8223 26.5296C-29.8223 34.8664 -23.0689 41.6247 -14.7383 41.6247Z" fill="#EB537B"/>
<path d="M360.282 52.7731C368.613 52.7731 375.366 46.0148 375.366 37.6781C375.366 29.3413 368.613 22.583 360.282 22.583C351.952 22.583 345.198 29.3413 345.198 37.6781C345.198 46.0148 351.952 52.7731 360.282 52.7731Z" fill="#FFCFDC"/>
<path d="M353.933 51.7931C362.263 51.7931 369.017 45.0348 369.017 36.6981C369.017 28.3613 362.263 21.603 353.933 21.603C345.602 21.603 338.849 28.3613 338.849 36.6981C338.849 45.0348 345.602 51.7931 353.933 51.7931Z" stroke="#FF2A62" stroke-width="1.4813" stroke-miterlimit="10"/>
<path d="M363.515 286.639C371.845 286.639 378.599 279.881 378.599 271.544C378.599 263.208 371.845 256.449 363.515 256.449C355.184 256.449 348.431 263.208 348.431 271.544C348.431 279.881 355.184 286.639 363.515 286.639Z" fill="#EB537B"/>
<path d="M357.165 281.472C365.496 281.472 372.249 274.714 372.249 266.377C372.249 258.04 365.496 251.282 357.165 251.282C348.834 251.282 342.081 258.04 342.081 266.377C342.081 274.714 348.834 281.472 357.165 281.472Z" stroke="#FF2A62" stroke-width="1.4813" stroke-miterlimit="10"/>
<path d="M46.1804 33.7579L18.0723 26.0902L38.7631 5.56445L46.1804 33.7579Z" fill="#F090A9"/>
<path d="M30.1025 142.9H9.31934V163.698H30.1025V142.9Z" fill="#F090A9"/>
<path d="M34.9531 148.214H14.1699V169.013H34.9531V148.214Z" stroke="#FF2A62" stroke-width="1.4813" stroke-miterlimit="10"/>
<path d="M374.78 123.593L346.604 133.962L356.965 162.158L385.141 151.79L374.78 123.593Z" stroke="#F090A9" stroke-width="1.4813" stroke-miterlimit="10"/>
<path d="M14.1689 281.324C17.995 281.324 21.0967 278.22 21.0967 274.391C21.0967 270.562 17.995 267.458 14.1689 267.458C10.3429 267.458 7.24121 270.562 7.24121 274.391C7.24121 278.22 10.3429 281.324 14.1689 281.324Z" stroke="#EB537B" stroke-width="1.4813" stroke-miterlimit="10"/>
<path d="M295.105 16.0355C298.932 16.0355 302.033 12.9316 302.033 9.10273C302.033 5.27385 298.932 2.16992 295.105 2.16992C291.279 2.16992 288.178 5.27385 288.178 9.10273C288.178 12.9316 291.279 16.0355 295.105 16.0355Z" stroke="#FFCFDC" stroke-width="1.4813" stroke-miterlimit="10"/>
<path d="M256.178 265.609C260.004 265.609 263.105 262.505 263.105 258.676C263.105 254.848 260.004 251.744 256.178 251.744C252.352 251.744 249.25 254.848 249.25 258.676C249.25 262.505 252.352 265.609 256.178 265.609Z" stroke="#FFCFDC" stroke-width="1.4813" stroke-miterlimit="10"/>
<path d="M72.3623 87.2055C76.1884 87.2055 79.29 84.1015 79.29 80.2727C79.29 76.4438 76.1884 73.3398 72.3623 73.3398C68.5362 73.3398 65.4346 76.4438 65.4346 80.2727C65.4346 84.1015 68.5362 87.2055 72.3623 87.2055Z" stroke="#F090A9" stroke-width="1.4813" stroke-miterlimit="10"/>
<path d="M-14.7383 642.03C-6.40761 642.03 0.345716 635.272 0.345716 626.935C0.345716 618.598 -6.40761 611.84 -14.7383 611.84C-23.0689 611.84 -29.8223 618.598 -29.8223 626.935C-29.8223 635.272 -23.0689 642.03 -14.7383 642.03Z" fill="#EB537B"/>
<path d="M360.282 653.178C368.613 653.178 375.366 646.42 375.366 638.083C375.366 629.747 368.613 622.988 360.282 622.988C351.952 622.988 345.198 629.747 345.198 638.083C345.198 646.42 351.952 653.178 360.282 653.178Z" fill="#FFCFDC"/>
<path d="M353.934 660.199C362.264 660.199 369.018 653.441 369.018 645.104C369.018 636.767 362.264 630.009 353.934 630.009C345.603 630.009 338.85 636.767 338.85 645.104C338.85 653.441 345.603 660.199 353.934 660.199Z" stroke="#FF2A62" stroke-width="1.4813" stroke-miterlimit="10"/>
<path d="M166.181 634.164L138.073 626.496L158.764 605.97L166.181 634.164Z" fill="#F090A9"/>
<path opacity="0.4" d="M363.352 381.991H345.709C344.842 381.991 344.139 382.694 344.139 383.562V401.219C344.139 402.087 344.842 402.79 345.709 402.79H363.352C364.219 402.79 364.922 402.087 364.922 401.219V383.561C364.922 382.694 364.219 381.991 363.352 381.991Z" fill="#EB537B"/>
<path opacity="0.4" d="M368.201 387.308H350.559C349.691 387.308 348.988 388.011 348.988 388.878V406.536C348.988 407.403 349.691 408.106 350.559 408.106H368.201C369.068 408.106 369.771 407.403 369.771 406.536V388.878C369.771 388.011 369.068 387.308 368.201 387.308Z" stroke="#FF2A62" stroke-width="1.4813" stroke-miterlimit="10"/>
<path opacity="0.4" d="M7.52347 498.835H-10.1192C-10.9864 498.835 -11.6895 499.538 -11.6895 500.405V518.063C-11.6895 518.93 -10.9864 519.633 -10.1192 519.633H7.52347C8.39072 519.633 9.09376 518.93 9.09376 518.063V500.405C9.09376 499.538 8.39071 498.835 7.52347 498.835Z" fill="#EB537B"/>
<path opacity="0.4" d="M11.375 504.149H-6.2676C-7.13485 504.149 -7.83789 504.852 -7.83789 505.72V523.378C-7.83789 524.245 -7.13485 524.948 -6.2676 524.948H11.375C12.2423 524.948 12.9453 524.245 12.9453 523.378V505.72C12.9453 504.852 12.2423 504.149 11.375 504.149Z" stroke="#FF2A62" stroke-width="1.4813" stroke-miterlimit="10"/>
<path opacity="0.4" d="M273.179 661.555L248.934 670.477C247.848 670.876 247.292 672.08 247.691 673.165L256.608 697.431C257.006 698.517 258.209 699.073 259.295 698.673L283.54 689.751C284.626 689.352 285.182 688.148 284.783 687.063L275.866 662.797C275.468 661.711 274.265 661.155 273.179 661.555Z" stroke="#EB537B" stroke-width="1.4813" stroke-miterlimit="10"/>
<path d="M280.904 665.688L256.482 674.675C255.446 675.057 254.914 676.207 255.295 677.243L264.277 701.685C264.658 702.722 265.807 703.253 266.843 702.872L291.265 693.885C292.302 693.503 292.833 692.353 292.452 691.317L283.471 666.875C283.09 665.838 281.941 665.307 280.904 665.688Z" fill="#F090A9"/>
<path d="M263.105 622.441C266.932 622.441 270.033 619.337 270.033 615.508C270.033 611.68 266.932 608.576 263.105 608.576C259.279 608.576 256.178 611.68 256.178 615.508C256.178 619.337 259.279 622.441 263.105 622.441Z" stroke="#FFCFDC" stroke-width="1.4813" stroke-miterlimit="10"/>
<path d="M-6.39257 613.38C-2.56649 613.38 0.535164 610.276 0.535164 606.447C0.535164 602.619 -2.56649 599.515 -6.39257 599.515C-10.2187 599.515 -13.3203 602.619 -13.3203 606.447C-13.3203 610.276 -10.2187 613.38 -6.39257 613.38Z" stroke="#F090A9" stroke-width="1.4813" stroke-miterlimit="10"/>
<path d="M72.3633 679.611C76.1894 679.611 79.291 676.507 79.291 672.678C79.291 668.849 76.1894 665.745 72.3633 665.745C68.5372 665.745 65.4355 668.849 65.4355 672.678C65.4355 676.507 68.5372 679.611 72.3633 679.611Z" stroke="#F090A9" stroke-width="1.4813" stroke-miterlimit="10"/>
</g>
</g>
<defs>
<linearGradient id="paint0_linear_11089_246007" x1="188" y1="125.644" x2="187.999" y2="987" gradientUnits="userSpaceOnUse">
<stop stop-color="#FBE8E6" stop-opacity="0"/>
<stop offset="0.285" stop-color="#FFFAEC"/>
<stop offset="1" stop-color="#F090A9"/>
</linearGradient>
<clipPath id="clip0_11089_246007">
<rect width="375" height="691" fill="white"/>
</clipPath>
</defs>
</svg>
