<svg width="1440" height="949" viewBox="0 0 1440 949" fill="none" xmlns="http://www.w3.org/2000/svg">
<g clip-path="url(#clip0_10944_61236)">
<rect y="-37" width="1440" height="987" fill="url(#paint0_linear_10944_61236)"/>
<g opacity="0.3">
<path opacity="0.4" d="M64.802 142.566C80.7176 142.566 93.6197 129.655 93.6197 113.727C93.6197 97.8002 80.7176 84.8887 64.802 84.8887C48.8865 84.8887 35.9844 97.8002 35.9844 113.727C35.9844 129.655 48.8865 142.566 64.802 142.566Z" fill="#F090A9"/>
<path opacity="0.4" d="M52.6712 132.693C68.5867 132.693 81.4888 119.782 81.4888 103.854C81.4888 87.9272 68.5867 75.0156 52.6712 75.0156C36.7556 75.0156 23.8535 87.9272 23.8535 103.854C23.8535 119.782 36.7556 132.693 52.6712 132.693Z" stroke="#FF2A62" stroke-width="2.83" stroke-miterlimit="10"/>
<path d="M327.685 544.224C343.6 544.224 356.502 531.313 356.502 515.386C356.502 499.458 343.6 486.547 327.685 486.547C311.769 486.547 298.867 499.458 298.867 515.386C298.867 531.313 311.769 544.224 327.685 544.224Z" fill="#EB537B"/>
<path d="M315.552 534.351C331.468 534.351 344.37 521.44 344.37 505.513C344.37 489.585 331.468 476.674 315.552 476.674C299.636 476.674 286.734 489.585 286.734 505.513C286.734 521.44 299.636 534.351 315.552 534.351Z" stroke="#FF2A62" stroke-width="2.83" stroke-miterlimit="10"/>
<path d="M1312.82 868.678C1328.73 868.678 1341.64 855.766 1341.64 839.839C1341.64 823.912 1328.73 811 1312.82 811C1296.9 811 1284 823.912 1284 839.839C1284 855.766 1296.9 868.678 1312.82 868.678Z" fill="#FFCFDC"/>
<path opacity="0.4" d="M87.8177 710.103C103.733 710.103 116.635 697.192 116.635 681.265C116.635 665.337 103.733 652.426 87.8177 652.426C71.9021 652.426 59 665.337 59 681.265C59 697.192 71.9021 710.103 87.8177 710.103Z" fill="#EB537B" stroke="#FF2A62" stroke-width="2.83" stroke-miterlimit="10"/>
<path opacity="0.4" d="M77.8176 698.103C93.7331 698.103 106.635 685.192 106.635 669.265C106.635 653.337 93.7331 640.426 77.8176 640.426C61.902 640.426 49 653.337 49 669.265C49 685.192 61.902 698.103 77.8176 698.103Z" stroke="#FF2A62" stroke-width="2.83" stroke-miterlimit="10"/>
<path d="M1044.15 565.521C1060.07 565.521 1072.97 552.61 1072.97 536.683C1072.97 520.755 1060.07 507.844 1044.15 507.844C1028.24 507.844 1015.34 520.755 1015.34 536.683C1015.34 552.61 1028.24 565.521 1044.15 565.521Z" fill="#FFCFDC"/>
<path d="M1032.02 563.65C1047.94 563.65 1060.84 550.739 1060.84 534.811C1060.84 518.884 1047.94 505.973 1032.02 505.973C1016.11 505.973 1003.21 518.884 1003.21 534.811C1003.21 550.739 1016.11 563.65 1032.02 563.65Z" stroke="#FF2A62" stroke-width="2.83" stroke-miterlimit="10"/>
<path d="M1038.2 1002.45C1054.11 1002.45 1067.02 989.535 1067.02 973.608C1067.02 957.681 1054.11 944.77 1038.2 944.77C1022.28 944.77 1009.38 957.681 1009.38 973.608C1009.38 989.535 1022.28 1002.45 1038.2 1002.45Z" stroke="#FF2A62" stroke-width="2.83" stroke-miterlimit="10"/>
<path opacity="0.4" d="M1385.63 276.781C1401.54 276.781 1414.44 263.869 1414.44 247.942C1414.44 232.015 1401.54 219.104 1385.63 219.104C1369.71 219.104 1356.81 232.015 1356.81 247.942C1356.81 263.869 1369.71 276.781 1385.63 276.781Z" fill="#EB537B"/>
<path opacity="0.4" d="M1373.49 266.909C1389.41 266.909 1402.31 253.997 1402.31 238.07C1402.31 222.143 1389.41 209.231 1373.49 209.231C1357.58 209.231 1344.68 222.143 1344.68 238.07C1344.68 253.997 1357.58 266.909 1373.49 266.909Z" stroke="#FF2A62" stroke-width="2.83" stroke-miterlimit="10"/>
<path opacity="0.4" d="M274.007 371.889C274.594 374.122 272.544 376.154 270.316 375.546L226.639 363.631C224.412 363.024 223.677 360.233 225.316 358.607L257.467 326.713C259.107 325.086 261.893 325.845 262.481 328.079L274.007 371.889Z" fill="#EB537B"/>
<path d="M1236.27 794.977L1182.57 780.328L1222.1 741.114L1236.27 794.977Z" fill="#EB537B"/>
<path d="M673.327 529.195L619.627 514.546L659.156 475.332L673.327 529.195Z" fill="#F090A9"/>
<path d="M161.287 656.522C163.286 657.677 163.286 660.562 161.287 661.717L122.081 684.369C120.081 685.524 117.58 684.081 117.58 681.771V636.468C117.58 634.158 120.081 632.714 122.081 633.87L161.287 656.522Z" fill="#FFCFDC"/>
<path opacity="0.7" d="M1377.34 657.085C1376.77 659.322 1373.99 660.107 1372.34 658.498L1300.26 588.463C1298.6 586.853 1299.31 584.053 1301.54 583.424L1398.34 556.05C1400.56 555.421 1402.63 557.435 1402.06 559.675L1377.34 657.085Z" fill="#F090A9"/>
<path d="M413.352 737.706H373.646V777.441H413.352V737.706Z" fill="#F090A9"/>
<path d="M422.618 747.86H382.912V787.595H422.618V747.86Z" stroke="#FF2A62" stroke-width="2.83" stroke-miterlimit="10"/>
<path opacity="0.4" d="M1248.71 47.4263H1215C1213.34 47.4263 1212 48.7694 1212 50.4263V84.1612C1212 85.8181 1213.34 87.1612 1215 87.1612H1248.71C1250.36 87.1612 1251.71 85.8181 1251.71 84.1612V50.4263C1251.71 48.7694 1250.36 47.4263 1248.71 47.4263Z" fill="#EB537B"/>
<path opacity="0.4" d="M1257.97 57.5806H1224.27C1222.61 57.5806 1221.27 58.9237 1221.27 60.5806V94.3155C1221.27 95.9724 1222.61 97.3155 1224.27 97.3155H1257.97C1259.63 97.3155 1260.97 95.9724 1260.97 94.3155V60.5806C1260.97 58.9237 1259.63 57.5806 1257.97 57.5806Z" stroke="#FF2A62" stroke-width="2.83" stroke-miterlimit="10"/>
<path d="M1368.47 948.744H1336.77C1334.56 948.744 1332.77 950.535 1332.77 952.744V984.479C1332.77 986.688 1334.56 988.479 1336.77 988.479H1368.47C1370.68 988.479 1372.47 986.688 1372.47 984.479V952.744C1372.47 950.535 1370.68 948.744 1368.47 948.744Z" fill="#FFCFDC"/>
<path opacity="0.4" d="M123.764 270.652H90.0586C88.4017 270.652 87.0586 271.995 87.0586 273.652V307.387C87.0586 309.044 88.4017 310.387 90.0586 310.387H123.764C125.421 310.387 126.764 309.044 126.764 307.387V273.652C126.764 271.995 125.421 270.652 123.764 270.652Z" fill="#EB537B"/>
<path opacity="0.4" d="M133.03 280.807H99.3242C97.6674 280.807 96.3242 282.15 96.3242 283.807V317.542C96.3242 319.198 97.6674 320.542 99.3242 320.542H133.03C134.687 320.542 136.03 319.198 136.03 317.542V283.807C136.03 282.15 134.687 280.807 133.03 280.807Z" stroke="#FF2A62" stroke-width="2.83" stroke-miterlimit="10"/>
<path opacity="0.4" d="M1244.56 367.548L1198.24 384.594C1196.17 385.357 1195.1 387.657 1195.86 389.73L1212.9 436.089C1213.66 438.163 1215.96 439.225 1218.03 438.462L1264.35 421.416C1266.43 420.653 1267.49 418.354 1266.73 416.28L1249.69 369.921C1248.93 367.848 1246.63 366.785 1244.56 367.548Z" stroke="#EB537B" stroke-width="2.83" stroke-miterlimit="10"/>
<path d="M1071.85 700.822L1018.02 720.631L1037.82 774.5L1091.65 754.691L1071.85 700.822Z" stroke="#F090A9" stroke-width="2.83" stroke-miterlimit="10"/>
<path opacity="0.4" d="M1386.15 108.57C1393.46 108.57 1399.38 102.64 1399.38 95.3246C1399.38 88.0096 1393.46 82.0796 1386.15 82.0796C1378.84 82.0796 1372.91 88.0096 1372.91 95.3246C1372.91 102.64 1378.84 108.57 1386.15 108.57Z" stroke="#EB537B" stroke-width="2.83" stroke-miterlimit="10"/>
<path d="M858.499 506.801C865.809 506.801 871.734 500.872 871.734 493.557C871.734 486.242 865.809 480.312 858.499 480.312C851.189 480.312 845.264 486.242 845.264 493.557C845.264 500.872 851.189 506.801 858.499 506.801Z" stroke="#FFCFDC" stroke-width="2.83" stroke-miterlimit="10"/>
<path d="M53.2353 489.49C60.5449 489.49 66.4706 483.56 66.4706 476.245C66.4706 468.93 60.5449 463 53.2353 463C45.9256 463 40 468.93 40 476.245C40 483.56 45.9256 489.49 53.2353 489.49Z" stroke="#F090A9" stroke-width="2.83" stroke-miterlimit="10"/>
<path d="M845.263 972.142C852.572 972.142 858.498 966.212 858.498 958.897C858.498 951.582 852.572 945.652 845.263 945.652C837.953 945.652 832.027 951.582 832.027 958.897C832.027 966.212 837.953 972.142 845.263 972.142Z" stroke="#FFCFDC" stroke-width="2.83" stroke-miterlimit="10"/>
<path d="M494.089 631.304C501.398 631.304 507.324 625.374 507.324 618.059C507.324 610.744 501.398 604.814 494.089 604.814C486.779 604.814 480.854 610.744 480.854 618.059C480.854 625.374 486.779 631.304 494.089 631.304Z" stroke="#F090A9" stroke-width="2.83" stroke-miterlimit="10"/>
<path opacity="0.7" d="M1332.32 475.897C1339.63 475.897 1345.56 469.967 1345.56 462.652C1345.56 455.337 1339.63 449.407 1332.32 449.407C1325.01 449.407 1319.09 455.337 1319.09 462.652C1319.09 469.967 1325.01 475.897 1332.32 475.897Z" stroke="#F090A9" stroke-width="2.83" stroke-miterlimit="10"/>
<path opacity="0.4" d="M1170.24 37.9162C1177.54 37.9162 1183.47 31.9863 1183.47 24.6713C1183.47 17.3563 1177.54 11.4263 1170.24 11.4263C1162.93 11.4263 1157 17.3563 1157 24.6713C1157 31.9863 1162.93 37.9162 1170.24 37.9162Z" stroke="#EB537B" stroke-width="2.83" stroke-miterlimit="10"/>
<path opacity="0.4" d="M250.818 88.7148C250.454 90.0469 249.08 90.8324 247.748 90.4692L182.021 72.5519C180.689 72.1887 179.903 70.8145 180.266 69.4824L198.184 3.75529C198.547 2.42318 199.921 1.63768 201.253 2.00081L266.98 19.9182C268.312 20.2813 269.098 21.6556 268.735 22.9877L250.818 88.7148Z" stroke="#FF2A62" stroke-width="3"/>
</g>
</g>
<defs>
<linearGradient id="paint0_linear_10944_61236" x1="720" y1="43.6482" x2="720" y2="950" gradientUnits="userSpaceOnUse">
<stop stop-color="#FBE8E6" stop-opacity="0"/>
<stop offset="0.285" stop-color="#FFFAEC"/>
<stop offset="1" stop-color="#F090A9"/>
</linearGradient>
<clipPath id="clip0_10944_61236">
<rect width="1440" height="949" fill="white"/>
</clipPath>
</defs>
</svg>
