<svg width="1440" height="1282" viewBox="0 0 1440 1282" fill="none" xmlns="http://www.w3.org/2000/svg">
<g clip-path="url(#clip0_10944_62943)">
<g opacity="0.3">
<path d="M176.802 160.61C192.718 160.61 205.62 147.698 205.62 131.771C205.62 115.844 192.718 102.932 176.802 102.932C160.886 102.932 147.984 115.844 147.984 131.771C147.984 147.698 160.886 160.61 176.802 160.61Z" fill="#F090A9"/>
<path d="M164.671 150.738C180.587 150.738 193.489 137.827 193.489 121.9C193.489 105.972 180.587 93.0608 164.671 93.0608C148.756 93.0608 135.854 105.972 135.854 121.9C135.854 137.827 148.756 150.738 164.671 150.738Z" stroke="#FF2A62" stroke-width="2.83" stroke-miterlimit="10"/>
<path d="M327.685 578.269C343.6 578.269 356.502 565.357 356.502 549.43C356.502 533.503 343.6 520.591 327.685 520.591C311.769 520.591 298.867 533.503 298.867 549.43C298.867 565.357 311.769 578.269 327.685 578.269Z" fill="#EB537B"/>
<path d="M315.552 568.397C331.468 568.397 344.37 555.485 344.37 539.558C344.37 523.631 331.468 510.719 315.552 510.719C299.636 510.719 286.734 523.631 286.734 539.558C286.734 555.485 299.636 568.397 315.552 568.397Z" stroke="#FF2A62" stroke-width="2.83" stroke-miterlimit="10"/>
<path d="M170.626 972.969C186.542 972.969 199.444 960.057 199.444 944.13C199.444 928.203 186.542 915.291 170.626 915.291C154.711 915.291 141.809 928.203 141.809 944.13C141.809 960.057 154.711 972.969 170.626 972.969Z" fill="#FFCFDC"/>
<path d="M158.493 963.097C174.409 963.097 187.311 950.185 187.311 934.258C187.311 918.331 174.409 905.42 158.493 905.42C142.578 905.42 129.676 918.331 129.676 934.258C129.676 950.185 142.578 963.097 158.493 963.097Z" stroke="#FF2A62" stroke-width="2.83" stroke-miterlimit="10"/>
<path d="M111.818 569.149C127.733 569.149 140.635 556.237 140.635 540.31C140.635 524.383 127.733 511.471 111.818 511.471C95.9021 511.471 83 524.383 83 540.31C83 556.237 95.9021 569.149 111.818 569.149Z" stroke="#FF2A62" stroke-width="2.83" stroke-miterlimit="10"/>
<path d="M85.8176 548.149C101.733 548.149 114.635 535.237 114.635 519.31C114.635 503.383 101.733 490.471 85.8176 490.471C69.902 490.471 57 503.383 57 519.31C57 535.237 69.902 548.149 85.8176 548.149Z" stroke="#FF2A62" stroke-width="2.83" stroke-miterlimit="10"/>
<path d="M1044.16 583.566C1060.07 583.566 1072.97 570.655 1072.97 554.727C1072.97 538.8 1060.07 525.889 1044.16 525.889C1028.24 525.889 1015.34 538.8 1015.34 554.727C1015.34 570.655 1028.24 583.566 1044.16 583.566Z" fill="#FFCFDC"/>
<path d="M1032.02 573.694C1047.94 573.694 1060.84 560.783 1060.84 544.856C1060.84 528.928 1047.94 516.017 1032.02 516.017C1016.11 516.017 1003.21 528.928 1003.21 544.856C1003.21 560.783 1016.11 573.694 1032.02 573.694Z" stroke="#FF2A62" stroke-width="2.83" stroke-miterlimit="10"/>
<path d="M640.038 844.051C655.954 844.051 668.856 831.139 668.856 815.212C668.856 799.285 655.954 786.373 640.038 786.373C624.123 786.373 611.221 799.285 611.221 815.212C611.221 831.139 624.123 844.051 640.038 844.051Z" fill="#F090A9"/>
<path d="M627.906 834.179C643.821 834.179 656.723 821.268 656.723 805.34C656.723 789.413 643.821 776.502 627.906 776.502C611.99 776.502 599.088 789.413 599.088 805.34C599.088 821.268 611.99 834.179 627.906 834.179Z" stroke="#FF2A62" stroke-width="2.83" stroke-miterlimit="10"/>
<path d="M1050.33 1030.36C1066.25 1030.36 1079.15 1017.45 1079.15 1001.53C1079.15 985.598 1066.25 972.686 1050.33 972.686C1034.42 972.686 1021.52 985.598 1021.52 1001.53C1021.52 1017.45 1034.42 1030.36 1050.33 1030.36Z" fill="#EB537B"/>
<path d="M1038.2 1020.49C1054.12 1020.49 1067.02 1007.58 1067.02 991.653C1067.02 975.726 1054.12 962.815 1038.2 962.815C1022.28 962.815 1009.38 975.726 1009.38 991.653C1009.38 1007.58 1022.28 1020.49 1038.2 1020.49Z" stroke="#FF2A62" stroke-width="2.83" stroke-miterlimit="10"/>
<path d="M1385.63 294.825C1401.54 294.825 1414.44 281.914 1414.44 265.987C1414.44 250.059 1401.54 237.148 1385.63 237.148C1369.71 237.148 1356.81 250.059 1356.81 265.987C1356.81 281.914 1369.71 294.825 1385.63 294.825Z" fill="#EB537B"/>
<path d="M1373.49 284.954C1389.41 284.954 1402.31 272.042 1402.31 256.115C1402.31 240.188 1389.41 227.276 1373.49 227.276C1357.58 227.276 1344.68 240.188 1344.68 256.115C1344.68 272.042 1357.58 284.954 1373.49 284.954Z" stroke="#FF2A62" stroke-width="2.83" stroke-miterlimit="10"/>
<path d="M1391.8 838.753C1407.72 838.753 1420.62 825.842 1420.62 809.915C1420.62 793.987 1407.72 781.076 1391.8 781.076C1375.89 781.076 1362.98 793.987 1362.98 809.915C1362.98 825.842 1375.89 838.753 1391.8 838.753Z" fill="#F090A9"/>
<path d="M1379.67 828.881C1395.59 828.881 1408.49 815.97 1408.49 800.043C1408.49 784.116 1395.59 771.204 1379.67 771.204C1363.76 771.204 1350.85 784.116 1350.85 800.043C1350.85 815.97 1363.76 828.881 1379.67 828.881Z" stroke="#FF2A62" stroke-width="2.83" stroke-miterlimit="10"/>
<path d="M282.007 317.933C282.594 320.167 280.544 322.199 278.316 321.591L234.639 309.676C232.412 309.069 231.677 306.278 233.316 304.652L265.467 272.757C267.107 271.13 269.893 271.89 270.481 274.124L282.007 317.933Z" fill="#EB537B"/>
<path d="M1236.27 685.022L1182.57 670.373L1222.1 631.159L1236.27 685.022Z" fill="#EB537B"/>
<path d="M673.329 547.24L619.629 532.591L659.158 493.377L673.329 547.24Z" fill="#F090A9"/>
<path d="M161.287 674.566C163.286 675.721 163.286 678.607 161.287 679.762L122.081 702.413C120.081 703.569 117.58 702.126 117.58 699.816V654.512C117.58 652.202 120.081 650.759 122.081 651.915L161.287 674.566Z" fill="#FFCFDC"/>
<path d="M1377.34 587.13C1376.77 589.367 1373.99 590.152 1372.34 588.544L1300.26 518.508C1298.6 516.898 1299.31 514.098 1301.54 513.47L1398.34 486.095C1400.56 485.466 1402.63 487.481 1402.06 489.72L1377.34 587.13Z" fill="#F090A9"/>
<path d="M958.136 877.605L909.934 905.455V849.755L958.136 877.605Z" fill="#FFCFDC"/>
<path d="M413.352 755.751H373.646V795.486H413.352V755.751Z" fill="#F090A9"/>
<path d="M422.618 765.905H382.912V805.64H422.618V765.905Z" stroke="#FF2A62" stroke-width="2.83" stroke-miterlimit="10"/>
<path d="M1248.71 65.4712H1215C1213.34 65.4712 1212 66.8143 1212 68.4712V102.206C1212 103.863 1213.34 105.206 1215 105.206H1248.71C1250.36 105.206 1251.71 103.863 1251.71 102.206V68.4712C1251.71 66.8143 1250.36 65.4712 1248.71 65.4712Z" fill="#EB537B"/>
<path d="M1257.97 75.6255H1224.27C1222.61 75.6255 1221.27 76.9686 1221.27 78.6255V112.36C1221.27 114.017 1222.61 115.36 1224.27 115.36H1257.97C1259.63 115.36 1260.97 114.017 1260.97 112.36V78.6255C1260.97 76.9686 1259.63 75.6255 1257.97 75.6255Z" stroke="#FF2A62" stroke-width="2.83" stroke-miterlimit="10"/>
<path d="M1368.47 1054.79H1336.77C1334.56 1054.79 1332.77 1056.58 1332.77 1058.79V1090.52C1332.77 1092.73 1334.56 1094.52 1336.77 1094.52H1368.47C1370.68 1094.52 1372.47 1092.73 1372.47 1090.52V1058.79C1372.47 1056.58 1370.68 1054.79 1368.47 1054.79Z" fill="#FFCFDC"/>
<path d="M1377.74 1064.94H1346.03C1343.82 1064.94 1342.03 1066.73 1342.03 1068.94V1100.68C1342.03 1102.89 1343.82 1104.68 1346.03 1104.68H1377.74C1379.95 1104.68 1381.74 1102.89 1381.74 1100.68V1068.94C1381.74 1066.73 1379.95 1064.94 1377.74 1064.94Z" stroke="#EB537B" stroke-width="2.83" stroke-miterlimit="10"/>
<path d="M99.7645 280.698H66.0586C64.4017 280.698 63.0586 282.041 63.0586 283.698V317.433C63.0586 319.089 64.4017 320.433 66.0586 320.433H99.7645C101.421 320.433 102.764 319.089 102.764 317.433V283.698C102.764 282.041 101.421 280.698 99.7645 280.698Z" fill="#EB537B"/>
<path d="M109.03 290.852H75.3242C73.6674 290.852 72.3242 292.195 72.3242 293.852V327.587C72.3242 329.244 73.6674 330.587 75.3242 330.587H109.03C110.687 330.587 112.03 329.244 112.03 327.587V293.852C112.03 292.195 110.687 290.852 109.03 290.852Z" stroke="#FF2A62" stroke-width="2.83" stroke-miterlimit="10"/>
<path d="M440.967 347.151L387.139 366.96L406.933 420.828L460.762 401.019L440.967 347.151Z" stroke="#EB537B" stroke-width="2.83" stroke-miterlimit="10"/>
<path d="M1248.31 384.212L1194.48 404.021L1214.28 457.889L1268.11 438.08L1248.31 384.212Z" stroke="#EB537B" stroke-width="2.83" stroke-miterlimit="10"/>
<path d="M707.198 -6.43255L660.877 10.6136C658.804 11.3765 657.741 13.676 658.503 15.7495L675.538 62.1087C676.3 64.1822 678.598 65.2447 680.671 64.4818L726.992 47.4357C729.066 46.6727 730.129 44.3733 729.367 42.2997L712.331 -4.05943C711.57 -6.13301 709.271 -7.19549 707.198 -6.43255Z" stroke="#FFCFDC" stroke-width="2.83" stroke-miterlimit="10"/>
<path d="M1071.85 718.867L1018.03 738.676L1037.82 792.544L1091.65 772.736L1071.85 718.867Z" stroke="#F090A9" stroke-width="2.83" stroke-miterlimit="10"/>
<path d="M61.3483 808.578L15.0273 825.624C12.9541 826.387 11.8911 828.687 12.6531 830.76L29.6883 877.119C30.4502 879.193 32.7486 880.255 34.8218 879.493L81.1428 862.446C83.216 861.683 84.279 859.384 83.5171 857.31L66.4819 810.951C65.7199 808.878 63.4216 807.815 61.3483 808.578Z" stroke="#F090A9" stroke-width="2.83" stroke-miterlimit="10"/>
<path d="M511.565 817.779L457.736 837.588L477.531 891.456L531.36 871.647L511.565 817.779Z" stroke="#EB537B" stroke-width="2.83" stroke-miterlimit="10"/>
<path d="M1386.15 126.614C1393.46 126.614 1399.38 120.684 1399.38 113.369C1399.38 106.054 1393.46 100.124 1386.15 100.124C1378.84 100.124 1372.91 106.054 1372.91 113.369C1372.91 120.684 1378.84 126.614 1386.15 126.614Z" stroke="#EB537B" stroke-width="2.83" stroke-miterlimit="10"/>
<path d="M382.913 1020.21C390.223 1020.21 396.148 1014.28 396.148 1006.96C396.148 999.649 390.223 993.719 382.913 993.719C375.603 993.719 369.678 999.649 369.678 1006.96C369.678 1014.28 375.603 1020.21 382.913 1020.21Z" stroke="#EB537B" stroke-width="2.83" stroke-miterlimit="10"/>
<path d="M858.501 524.847C865.811 524.847 871.736 518.917 871.736 511.602C871.736 504.287 865.811 498.357 858.501 498.357C851.191 498.357 845.266 504.287 845.266 511.602C845.266 518.917 851.191 524.847 858.501 524.847Z" stroke="#FFCFDC" stroke-width="2.83" stroke-miterlimit="10"/>
<path d="M171.147 480.697C178.457 480.697 184.383 474.767 184.383 467.452C184.383 460.137 178.457 454.207 171.147 454.207C163.838 454.207 157.912 460.137 157.912 467.452C157.912 474.767 163.838 480.697 171.147 480.697Z" stroke="#FFCFDC" stroke-width="2.83" stroke-miterlimit="10"/>
<path d="M845.265 990.187C852.574 990.187 858.5 984.257 858.5 976.942C858.5 969.627 852.574 963.697 845.265 963.697C837.955 963.697 832.029 969.627 832.029 976.942C832.029 984.257 837.955 990.187 845.265 990.187Z" stroke="#FFCFDC" stroke-width="2.83" stroke-miterlimit="10"/>
<path d="M494.089 649.349C501.398 649.349 507.324 643.419 507.324 636.104C507.324 628.789 501.398 622.859 494.089 622.859C486.779 622.859 480.854 628.789 480.854 636.104C480.854 643.419 486.779 649.349 494.089 649.349Z" stroke="#F090A9" stroke-width="2.83" stroke-miterlimit="10"/>
<path d="M1332.32 493.942C1339.63 493.942 1345.56 488.012 1345.56 480.697C1345.56 473.382 1339.63 467.452 1332.32 467.452C1325.01 467.452 1319.09 473.382 1319.09 480.697C1319.09 488.012 1325.01 493.942 1332.32 493.942Z" stroke="#F090A9" stroke-width="2.83" stroke-miterlimit="10"/>
<path d="M1170.24 55.9612C1177.54 55.9612 1183.47 50.0312 1183.47 42.7162C1183.47 35.4012 1177.54 29.4712 1170.24 29.4712C1162.93 29.4712 1157 35.4012 1157 42.7162C1157 50.0312 1162.93 55.9612 1170.24 55.9612Z" stroke="#EB537B" stroke-width="2.83" stroke-miterlimit="10"/>
<path d="M373.735 86.1315C374.086 87.4664 373.289 88.8334 371.954 89.1851L298.628 108.506C297.293 108.858 295.925 108.061 295.573 106.725L276.265 33.3406C275.914 32.0057 276.711 30.6387 278.046 30.287L351.371 10.9657C352.707 10.6138 354.075 11.4114 354.426 12.747L373.735 86.1315Z" stroke="#FF2A62" stroke-width="3"/>
<path d="M1282.03 956.192C1310.05 956.192 1332.76 933.461 1332.76 905.42C1332.76 877.379 1310.05 854.647 1282.03 854.647C1254.01 854.647 1231.29 877.379 1231.29 905.42C1231.29 933.461 1254.01 956.192 1282.03 956.192Z" fill="#EB537B"/>
<path d="M112.802 1292.25C128.718 1292.25 141.62 1279.34 141.62 1263.41C141.62 1247.49 128.718 1234.58 112.802 1234.58C96.8865 1234.58 83.9844 1247.49 83.9844 1263.41C83.9844 1279.34 96.8865 1292.25 112.802 1292.25Z" fill="#EB537B"/>
<path d="M124.671 1282.38C140.587 1282.38 153.489 1269.47 153.489 1253.54C153.489 1237.62 140.587 1224.7 124.671 1224.7C108.756 1224.7 95.8535 1237.62 95.8535 1253.54C95.8535 1269.47 108.756 1282.38 124.671 1282.38Z" stroke="#FF2A62" stroke-width="2.83" stroke-miterlimit="10"/>
<path d="M1037.98 1310.95C1053.9 1310.95 1066.8 1298.04 1066.8 1282.12C1066.8 1266.19 1053.9 1253.28 1037.98 1253.28C1022.06 1253.28 1009.16 1266.19 1009.16 1282.12C1009.16 1298.04 1022.06 1310.95 1037.98 1310.95Z" fill="#EB537B"/>
<path d="M1025.85 1301.08C1041.76 1301.08 1054.66 1288.17 1054.66 1272.24C1054.66 1256.32 1041.76 1243.41 1025.85 1243.41C1009.93 1243.41 997.029 1256.32 997.029 1272.24C997.029 1288.17 1009.93 1301.08 1025.85 1301.08Z" stroke="#FF2A62" stroke-width="2.83" stroke-miterlimit="10"/>
<path d="M707.198 1149.21L660.877 1166.26C658.804 1167.02 657.741 1169.32 658.503 1171.39L675.538 1217.75C676.3 1219.83 678.598 1220.89 680.671 1220.12L726.992 1203.08C729.066 1202.32 730.129 1200.02 729.367 1197.94L712.331 1151.58C711.57 1149.51 709.271 1148.45 707.198 1149.21Z" stroke="#FFCFDC" stroke-width="2.83" stroke-miterlimit="10"/>
<path d="M1386.15 1282.26C1393.46 1282.26 1399.38 1276.33 1399.38 1269.01C1399.38 1261.7 1393.46 1255.77 1386.15 1255.77C1378.84 1255.77 1372.91 1261.7 1372.91 1269.01C1372.91 1276.33 1378.84 1282.26 1386.15 1282.26Z" stroke="#EB537B" stroke-width="2.83" stroke-miterlimit="10"/>
<path d="M815.265 1295.5C822.574 1295.5 828.5 1289.57 828.5 1282.26C828.5 1274.94 822.574 1269.01 815.265 1269.01C807.955 1269.01 802.029 1274.94 802.029 1282.26C802.029 1289.57 807.955 1295.5 815.265 1295.5Z" stroke="#EB537B" stroke-width="2.83" stroke-miterlimit="10"/>
<path d="M1291.1 1282.48C1291.52 1284.08 1290.57 1285.72 1288.96 1286.14L1215.64 1305.46C1214.04 1305.88 1212.39 1304.93 1211.97 1303.33L1192.66 1229.94C1192.24 1228.34 1193.2 1226.7 1194.8 1226.28L1268.13 1206.95C1269.73 1206.53 1271.37 1207.49 1271.79 1209.09L1291.1 1282.48Z" stroke="#FF2A62" stroke-width="2"/>
</g>
</g>
<defs>
<clipPath id="clip0_10944_62943">
<rect width="1440" height="1281" fill="white" transform="translate(0 0.471191)"/>
</clipPath>
</defs>
</svg>
