<svg width="292" height="247" viewBox="0 0 292 247" fill="none" xmlns="http://www.w3.org/2000/svg">
<g clip-path="url(#clip0_10944_61405)">
<path d="M290.702 147.042C290.435 164.074 280.004 178.568 265.266 184.85C268.137 201.108 261.15 218.229 246.284 227.532C233.427 235.578 217.888 235.794 205.259 229.448C197.534 239.893 185.057 246.607 171.056 246.442C157.5 246.277 145.531 239.678 138.022 229.601C125.457 235.984 109.956 235.87 97.0732 227.925C82.1444 218.737 75.0422 201.692 77.7611 185.421C62.375 179.024 51.6771 163.731 52.0074 146.077V146.001C52.2107 128.981 62.6418 114.31 77.5451 108.015C74.7245 91.7441 81.7506 74.6612 96.6412 65.3837C109.499 57.3752 125.025 57.1975 137.641 63.5434C145.264 53.2504 157.5 46.6127 171.272 46.6127H171.653C185.286 46.727 197.343 53.3393 204.89 63.4926C217.481 57.1341 232.995 57.2737 245.865 65.244C260.768 74.4836 267.845 91.5538 265.063 107.812C280.347 114.221 290.994 129.438 290.702 147.016V147.042Z" fill="#221A15"/>
<path d="M54.2492 73.7521C49.7388 68.8531 42.7636 69.145 37.6306 74.4247C32.4087 79.6156 32.1927 86.5833 37.1478 91.0381C42.0012 95.569 49.0019 95.3024 53.7918 90.3908C58.6579 85.5553 58.8485 78.5622 54.2619 73.7648L54.2492 73.7521Z" fill="#221A15"/>
<path d="M19.7569 77.8497C17.2286 75.1083 13.328 75.2733 10.4439 78.2178C7.5217 81.1242 7.40735 85.0205 10.1644 87.5208C12.8833 90.0591 16.7966 89.9068 19.4774 87.1527C22.1963 84.4494 22.3107 80.5277 19.7442 77.837L19.7569 77.8497Z" fill="#221A15"/>
<path d="M284.286 142.297C284.019 159.33 273.588 173.823 258.85 180.106C261.721 196.364 254.734 213.485 239.868 222.788C227.011 230.834 211.472 231.05 198.843 224.704C191.118 235.149 178.641 241.863 164.64 241.698C151.084 241.533 139.115 234.934 131.606 224.856C119.041 231.24 103.54 231.126 90.6572 223.181C75.7284 213.992 68.6262 196.948 71.3451 180.677C55.959 174.28 45.2611 158.987 45.5914 141.333V141.257C45.7947 124.237 56.2258 109.566 71.1291 103.271C68.3085 87 75.3346 69.9171 90.2252 60.6395C103.083 52.6311 118.609 52.4534 131.225 58.7992C138.848 48.5063 151.084 41.8686 164.856 41.8686H165.237C178.87 41.9828 190.927 48.5952 198.474 58.7485C211.065 52.39 226.579 52.5296 239.449 60.4999C254.352 69.7394 261.429 86.8096 258.647 103.068C273.931 109.477 284.578 124.694 284.286 142.272V142.297Z" fill="white"/>
<path d="M47.8331 69.0079C43.3228 64.109 36.3475 64.4009 31.2146 69.6806C25.9927 74.8715 25.7767 81.8392 30.7318 86.2939C35.5852 90.8248 42.5859 90.5583 47.3758 85.6466C52.2419 80.8111 52.4325 73.8181 47.8459 69.0206L47.8331 69.0079Z" fill="white"/>
<path d="M13.3409 73.1056C10.8125 70.3642 6.91201 70.5292 4.02791 73.4737C1.10568 76.38 0.991337 80.2764 3.74839 82.7766C6.46733 85.3149 10.3806 85.1626 13.0614 82.4085C15.7803 79.7052 15.8947 75.7835 13.3282 73.0929L13.3409 73.1056Z" fill="white"/>
<path d="M284.286 142.297C284.019 159.33 273.588 173.823 258.85 180.106C261.721 196.364 254.734 213.485 239.868 222.788C227.011 230.834 211.472 231.05 198.843 224.704C191.118 235.149 178.641 241.863 164.64 241.698C151.084 241.533 139.115 234.934 131.606 224.856C119.041 231.24 103.54 231.126 90.6572 223.181C75.7284 213.992 68.6262 196.948 71.3451 180.677C55.959 174.28 45.2611 158.987 45.5914 141.333V141.257C45.7947 124.237 56.2258 109.566 71.1291 103.271C68.3085 87 75.3346 69.9171 90.2252 60.6395C103.083 52.6311 118.609 52.4534 131.225 58.7992C138.848 48.5063 151.084 41.8686 164.856 41.8686H165.237C178.87 41.9828 190.927 48.5952 198.474 58.7485C211.065 52.39 226.579 52.5296 239.449 60.4999C254.352 69.7394 261.429 86.8096 258.647 103.068C273.931 109.477 284.578 124.694 284.286 142.272V142.297Z" fill="white" stroke="#221A15" stroke-width="1.29084" stroke-miterlimit="10"/>
<path d="M47.8331 69.0079C43.3228 64.109 36.3475 64.4009 31.2146 69.6806C25.9927 74.8715 25.7767 81.8392 30.7318 86.2939C35.5852 90.8248 42.5859 90.5583 47.3758 85.6466C52.2419 80.8111 52.4325 73.8181 47.8459 69.0206L47.8331 69.0079Z" fill="white" stroke="#221A15" stroke-width="1.29084" stroke-miterlimit="10"/>
<path d="M13.3409 73.1056C10.8125 70.3642 6.91201 70.5292 4.02791 73.4737C1.10568 76.38 0.991337 80.2764 3.74839 82.7766C6.46733 85.3149 10.3806 85.1626 13.0614 82.4085C15.7803 79.7052 15.8947 75.7835 13.3282 73.0929L13.3409 73.1056Z" fill="white" stroke="#221A15" stroke-width="1.29084" stroke-miterlimit="10"/>
<path d="M284.286 142.297C284.019 159.33 273.588 173.823 258.85 180.106C261.721 196.364 254.734 213.485 239.868 222.788C227.011 230.834 211.472 231.05 198.843 224.704C191.118 235.149 178.641 241.863 164.64 241.698C151.084 241.533 139.115 234.934 131.606 224.856C119.041 231.24 103.54 231.126 90.6572 223.181C75.7284 213.992 68.6262 196.948 71.3451 180.677C55.959 174.28 45.2611 158.987 45.5914 141.333V141.257C45.7947 124.237 56.2258 109.566 71.1291 103.271C68.3085 87 75.3346 69.9171 90.2252 60.6395C103.083 52.6311 118.609 52.4534 131.225 58.7992C138.848 48.5063 151.084 41.8686 164.856 41.8686H165.237C178.87 41.9828 190.927 48.5952 198.474 58.7485C211.065 52.3899 226.579 52.5296 239.449 60.4999C254.352 69.7394 261.429 86.8096 258.647 103.068C273.931 109.477 284.578 124.694 284.286 142.272V142.297Z" stroke="#221A15" stroke-width="2" stroke-linecap="round" stroke-linejoin="round"/>
<path d="M47.8331 69.0079C43.3228 64.109 36.3475 64.4009 31.2146 69.6806C25.9927 74.8715 25.7767 81.8392 30.7318 86.2939C35.5852 90.8248 42.5859 90.5583 47.3758 85.6466C52.2419 80.8111 52.4325 73.8181 47.8459 69.0206L47.8331 69.0079Z" stroke="#221A15" stroke-width="2" stroke-linecap="round" stroke-linejoin="round"/>
<path d="M13.3409 73.1056C10.8125 70.3642 6.91201 70.5292 4.02791 73.4737C1.10568 76.38 0.991337 80.2764 3.74839 82.7766C6.46733 85.3149 10.3806 85.1626 13.0614 82.4085C15.7803 79.7052 15.8947 75.7835 13.3282 73.0929L13.3409 73.1056Z" stroke="#221A15" stroke-width="2" stroke-linecap="round" stroke-linejoin="round"/>
</g>
<g clip-path="url(#clip1_10944_61405)">
<path d="M211.953 47C211.695 46.9997 211.444 46.912 211.242 46.7512C211.04 46.5904 210.9 46.3661 210.843 46.1152C210.024 42.5048 211.94 41.019 213.207 40.0359C213.426 39.8661 213.633 39.706 213.807 39.5507C214.794 38.6715 215.517 37.9249 216.045 37.2955C214.798 37.2296 213.574 36.9367 212.432 36.4314C210.286 35.4884 209.963 33.953 210.339 32.9244C210.883 31.4354 213.117 30.3101 216.739 31.3551C218.779 31.9443 219.443 33.0995 219.641 33.9648C219.682 34.143 219.707 34.3245 219.715 34.507C220.076 34.3868 220.442 34.2465 220.813 34.0861C221.643 33.7273 222.998 32.3726 223.935 31.1402C220.581 31.0689 216.301 30.2409 210.301 28.5991C209.485 28.3761 207.781 27.5808 207.168 26.1679C206.845 25.4229 206.88 24.6417 207.27 23.9087C208.586 21.4321 215.726 21.3454 219.895 22.4946C224.406 23.7384 226.526 25.5179 227.191 28.6269C227.946 28.4803 228.682 28.2532 229.388 27.9496C231.412 27.0763 233.05 25.764 233.882 24.3488C234.544 23.2237 234.62 22.1004 234.079 20.811C233.759 20.8346 233.44 20.8565 233.121 20.8786C232.639 20.9117 232.156 20.9449 231.674 20.9836L230.41 21.0858C223.795 21.6244 221.566 21.8059 211.035 20.1055C208.854 19.7535 205.971 18.313 204.923 16.3369C204.394 15.3393 204.361 14.2898 204.826 13.3016C206.561 9.61879 219.428 9.10621 227.397 12.4022C229.441 13.2475 233.013 15.3217 234.557 17.2865C234.761 17.5472 235.065 17.9339 235.381 18.422C238.154 18.1367 240.58 17.5415 241.875 15.5099C242.97 13.7924 241.278 10.4742 239.076 8.57028C233.137 3.43706 228.575 2.81102 224.55 2.25848C224.401 2.23833 224.258 2.18925 224.129 2.11405C224 2.03884 223.887 1.93899 223.796 1.8202C223.706 1.7014 223.639 1.56601 223.601 1.42175C223.564 1.27749 223.555 1.12719 223.575 0.97947C223.595 0.831747 223.645 0.689489 223.721 0.560834C223.796 0.432179 223.897 0.319652 224.016 0.22969C224.136 0.139728 224.272 0.0740958 224.417 0.0365488C224.562 -0.000998185 224.713 -0.00972375 224.861 0.0108714C228.986 0.576991 234.119 1.28144 240.57 6.85695C243.119 9.0602 245.806 13.5782 243.8 16.7256C242.129 19.346 239.388 20.2034 236.417 20.5865C236.853 21.996 236.904 23.6995 235.849 25.4952C234.777 27.3171 232.753 28.9707 230.294 30.0315C229.152 30.5219 227.946 30.8491 226.713 31.0035C225.6 33.2106 223.032 35.6003 221.72 36.1675C220.842 36.5517 219.928 36.8479 218.991 37.0517C218.287 38.2988 217.069 39.6889 215.327 41.2414C215.095 41.4482 214.847 41.64 214.608 41.8257C213.422 42.7455 212.565 43.4099 213.066 45.6158C213.103 45.7819 213.102 45.9542 213.064 46.12C213.025 46.2859 212.95 46.441 212.843 46.5739C212.736 46.7068 212.601 46.8141 212.447 46.8878C212.293 46.9616 212.124 46.9999 211.953 47ZM214.113 33.2197C213.059 33.2197 212.532 33.5505 212.48 33.7C212.489 33.7453 212.667 34.0547 213.352 34.3558C214.62 34.919 216.014 35.1442 217.396 35.0092C217.457 34.7413 217.441 34.5661 217.419 34.4683C217.307 33.9778 216.642 33.6896 216.104 33.5343C215.303 33.3031 214.642 33.2198 214.113 33.2198V33.2197ZM214.212 24.0515C213.765 24.0515 213.322 24.0656 212.888 24.0945C210.554 24.2493 209.445 24.763 209.273 24.9875C209.212 25.1051 209.219 25.1736 209.26 25.2681C209.452 25.7113 210.302 26.2467 210.904 26.4114C217.37 28.1807 221.679 28.9715 224.912 28.873C224.557 27.4051 223.677 25.8916 219.287 24.6813C217.809 24.2735 215.985 24.0515 214.212 24.0515ZM215.475 12.461C210.878 12.461 207.288 13.4179 206.889 14.265C206.731 14.6021 206.746 14.9143 206.938 15.2776C207.577 16.4817 209.802 17.608 211.4 17.8659C221.657 19.522 223.816 19.3463 230.224 18.8246L231.491 18.722C231.901 18.6894 232.311 18.6602 232.72 18.6319C231.571 17.2148 228.608 15.3594 226.523 14.4973C222.886 12.9927 218.901 12.461 215.475 12.461Z" fill="#414141"/>
</g>
<defs>
<clipPath id="clip0_10944_61405">
<rect width="291" height="207" fill="white" transform="matrix(-1 0 0 -1 291.5 247)"/>
</clipPath>
<clipPath id="clip1_10944_61405">
<rect width="40" height="47" fill="white" transform="translate(204.5)"/>
</clipPath>
</defs>
</svg>
