<svg width="248" height="297" viewBox="0 0 248 297" fill="none" xmlns="http://www.w3.org/2000/svg">
<path d="M8.7979 146.958C9.0647 129.926 19.4958 115.432 34.2339 109.15C31.3625 92.8921 38.3504 75.7711 53.2157 66.4682C66.0734 58.4217 81.612 58.2059 94.2411 64.5517C101.966 54.1065 114.443 47.3927 128.444 47.5577C142 47.7227 153.969 54.3223 161.478 64.3994C174.043 58.0156 189.544 58.1298 202.427 66.0747C217.356 75.2635 224.458 92.3083 221.739 108.579C237.125 114.976 247.823 130.269 247.493 147.923V147.999C247.289 165.019 236.858 179.69 221.955 185.985C224.775 202.256 217.749 219.339 202.859 228.616C190.001 236.625 174.475 236.802 161.859 230.457C154.236 240.75 142 247.387 128.228 247.387H127.847C114.214 247.273 102.157 240.661 94.6096 230.507C82.0186 236.866 66.5054 236.726 53.6349 228.756C38.7316 219.516 31.6547 202.446 34.4372 186.188C19.1527 179.779 8.50568 164.562 8.7979 146.984V146.958Z" fill="#221A15"/>
<path d="M170.253 269.248C174.763 274.147 181.738 273.855 186.871 268.575C192.093 263.384 192.309 256.417 187.354 251.962C182.501 247.431 175.5 247.698 170.71 252.609C165.844 257.445 165.653 264.438 170.24 269.235L170.253 269.248Z" fill="#221A15"/>
<path d="M168.743 294.15C171.271 296.892 175.172 296.727 178.056 293.782C180.978 290.876 181.093 286.979 178.336 284.479C175.617 281.941 171.703 282.093 169.023 284.847C166.304 287.551 166.189 291.472 168.756 294.163L168.743 294.15Z" fill="#221A15"/>
<path d="M3.21391 142.703C3.48071 125.67 13.9118 111.177 28.6499 104.894C25.7785 88.6363 32.7664 71.5153 47.6317 62.2123C60.4894 54.1658 76.028 53.9501 88.6571 60.2959C96.3819 49.8507 108.859 43.1368 122.86 43.3018C136.416 43.4668 148.385 50.0664 155.894 60.1436C168.459 53.7597 183.96 53.8739 196.843 61.8189C211.772 71.0076 218.874 88.0525 216.155 104.323C231.541 110.72 242.239 126.013 241.909 143.667V143.743C241.705 160.763 231.274 175.434 216.371 181.729C219.191 198 212.165 215.083 197.275 224.36C184.417 232.369 168.891 232.547 156.275 226.201C148.652 236.494 136.416 243.131 122.644 243.131H122.263C108.63 243.017 96.5725 236.405 89.0256 226.252C76.4346 232.61 60.9214 232.47 48.0509 224.5C33.1476 215.261 26.0708 198.19 28.8532 181.932C13.5687 175.523 2.92169 160.306 3.21391 142.728V142.703Z" fill="white"/>
<path d="M164.667 264.992C169.177 269.891 176.152 269.599 181.285 264.319C186.507 259.129 186.723 252.161 181.768 247.706C176.915 243.175 169.914 243.442 165.124 248.353C160.258 253.189 160.068 260.182 164.654 264.979L164.667 264.992Z" fill="white"/>
<path d="M163.161 289.894C165.689 292.636 169.59 292.471 172.474 289.526C175.396 286.62 175.511 282.724 172.754 280.223C170.035 277.685 166.121 277.837 163.441 280.591C160.722 283.295 160.607 287.216 163.174 289.907L163.161 289.894Z" fill="white"/>
<path d="M3.21196 142.703C3.47876 125.67 13.9098 111.177 28.648 104.894C25.7766 88.6363 32.7645 71.5153 47.6297 62.2123C60.4875 54.1658 76.0261 53.9501 88.6552 60.2959C96.38 49.8507 108.857 43.1368 122.858 43.3018C136.414 43.4668 148.383 50.0664 155.892 60.1436C168.457 53.7597 183.958 53.8739 196.841 61.8189C211.77 71.0076 218.872 88.0525 216.153 104.323C231.539 110.72 242.237 126.013 241.907 143.667V143.743C241.703 160.763 231.272 175.434 216.369 181.729C219.19 198 212.163 215.083 197.273 224.36C184.415 232.369 168.889 232.547 156.273 226.201C148.65 236.494 136.414 243.131 122.642 243.131H122.261C108.628 243.017 96.5706 236.405 89.0236 226.252C76.4327 232.61 60.9195 232.47 48.049 224.5C33.1457 215.261 26.0688 198.19 28.8513 181.932C13.5668 175.523 2.91974 160.306 3.21196 142.728V142.703Z" fill="white" stroke="#221A15" stroke-miterlimit="10"/>
<path d="M164.667 264.992C169.177 269.891 176.152 269.599 181.285 264.319C186.507 259.129 186.723 252.161 181.768 247.706C176.915 243.175 169.914 243.442 165.124 248.353C160.258 253.189 160.068 260.182 164.654 264.979L164.667 264.992Z" fill="white" stroke="#221A15" stroke-width="1.29084" stroke-miterlimit="10"/>
<path d="M163.157 289.894C165.686 292.636 169.586 292.471 172.47 289.526C175.392 286.62 175.507 282.724 172.75 280.223C170.031 277.685 166.117 277.837 163.437 280.591C160.718 283.295 160.603 287.216 163.17 289.907L163.157 289.894Z" fill="white" stroke="#221A15" stroke-width="1.29084" stroke-miterlimit="10"/>
<path d="M3.21391 142.703C3.48072 125.67 13.9118 111.177 28.6499 104.894C25.7785 88.6363 32.7664 71.5153 47.6317 62.2123C60.4894 54.1658 76.028 53.9501 88.6571 60.2959C96.3819 49.8507 108.859 43.1368 122.86 43.3018C136.416 43.4668 148.385 50.0664 155.894 60.1436C168.459 53.7597 183.96 53.8739 196.843 61.8189C211.772 71.0076 218.874 88.0525 216.155 104.323C231.541 110.72 242.239 126.013 241.909 143.667V143.743C241.705 160.763 231.274 175.434 216.371 181.729C219.191 198 212.165 215.083 197.275 224.36C184.417 232.369 168.891 232.547 156.275 226.201C148.652 236.494 136.416 243.131 122.644 243.131H122.263C108.63 243.017 96.5725 236.405 89.0256 226.252C76.4346 232.61 60.9214 232.47 48.0509 224.5C33.1476 215.261 26.0708 198.19 28.8532 181.932C13.5687 175.523 2.92169 160.306 3.21391 142.728V142.703Z" stroke="#221A15" stroke-width="2" stroke-linecap="round" stroke-linejoin="round"/>
<path d="M164.667 264.992C169.177 269.891 176.152 269.599 181.285 264.319C186.507 259.129 186.723 252.161 181.768 247.706C176.915 243.175 169.914 243.442 165.124 248.353C160.258 253.189 160.068 260.182 164.654 264.979L164.667 264.992Z" stroke="#221A15" stroke-width="2" stroke-linecap="round" stroke-linejoin="round"/>
<path d="M163.161 289.894C165.689 292.636 169.59 292.471 172.474 289.526C175.396 286.62 175.511 282.724 172.754 280.223C170.035 277.685 166.121 277.837 163.441 280.591C160.722 283.295 160.607 287.216 163.174 289.907L163.161 289.894Z" stroke="#221A15" stroke-width="2" stroke-linecap="round" stroke-linejoin="round"/>
<g clip-path="url(#clip0_10944_61357)">
<path d="M171.953 47C171.695 46.9997 171.444 46.912 171.242 46.7512C171.04 46.5904 170.9 46.3661 170.843 46.1152C170.024 42.5048 171.94 41.019 173.207 40.0359C173.426 39.8661 173.633 39.706 173.807 39.5507C174.794 38.6715 175.517 37.9249 176.045 37.2955C174.798 37.2296 173.574 36.9367 172.432 36.4314C170.286 35.4884 169.963 33.953 170.339 32.9244C170.883 31.4354 173.117 30.3101 176.739 31.3551C178.779 31.9443 179.443 33.0995 179.641 33.9648C179.682 34.143 179.707 34.3245 179.715 34.507C180.076 34.3868 180.442 34.2465 180.813 34.0861C181.643 33.7273 182.998 32.3726 183.935 31.1402C180.581 31.0689 176.301 30.2409 170.301 28.5991C169.485 28.3761 167.781 27.5808 167.168 26.1679C166.845 25.4229 166.88 24.6417 167.27 23.9087C168.586 21.4321 175.726 21.3454 179.895 22.4946C184.406 23.7384 186.526 25.5179 187.191 28.6269C187.946 28.4803 188.682 28.2532 189.388 27.9496C191.412 27.0763 193.05 25.764 193.882 24.3488C194.544 23.2237 194.62 22.1004 194.079 20.811C193.759 20.8346 193.44 20.8565 193.121 20.8786C192.639 20.9117 192.156 20.9449 191.674 20.9836L190.41 21.0858C183.795 21.6244 181.566 21.8059 171.035 20.1055C168.854 19.7535 165.971 18.313 164.923 16.3369C164.394 15.3393 164.361 14.2898 164.826 13.3016C166.561 9.61879 179.428 9.10621 187.397 12.4022C189.441 13.2475 193.013 15.3217 194.557 17.2865C194.761 17.5472 195.065 17.9339 195.381 18.422C198.154 18.1367 200.58 17.5415 201.875 15.5099C202.97 13.7924 201.278 10.4742 199.076 8.57028C193.137 3.43706 188.575 2.81102 184.55 2.25848C184.401 2.23833 184.258 2.18925 184.129 2.11405C184 2.03884 183.887 1.93899 183.796 1.8202C183.706 1.7014 183.639 1.56601 183.601 1.42175C183.564 1.27749 183.555 1.12719 183.575 0.97947C183.595 0.831747 183.645 0.689489 183.721 0.560834C183.796 0.432179 183.897 0.319652 184.016 0.22969C184.136 0.139728 184.272 0.0740958 184.417 0.0365488C184.562 -0.000998185 184.713 -0.00972375 184.861 0.0108714C188.986 0.576991 194.119 1.28144 200.57 6.85695C203.119 9.0602 205.806 13.5782 203.8 16.7256C202.129 19.346 199.388 20.2034 196.417 20.5865C196.853 21.996 196.904 23.6995 195.849 25.4952C194.777 27.3171 192.753 28.9707 190.294 30.0315C189.152 30.5219 187.946 30.8491 186.713 31.0035C185.6 33.2106 183.032 35.6003 181.72 36.1675C180.842 36.5517 179.928 36.8479 178.991 37.0517C178.287 38.2988 177.069 39.6889 175.327 41.2414C175.095 41.4482 174.847 41.64 174.608 41.8257C173.422 42.7455 172.565 43.4099 173.066 45.6158C173.103 45.7819 173.102 45.9542 173.064 46.12C173.025 46.2859 172.95 46.441 172.843 46.5739C172.736 46.7068 172.601 46.8141 172.447 46.8878C172.293 46.9616 172.124 46.9999 171.953 47ZM174.113 33.2197C173.059 33.2197 172.532 33.5505 172.48 33.7C172.489 33.7453 172.667 34.0547 173.352 34.3558C174.62 34.919 176.014 35.1442 177.396 35.0092C177.457 34.7413 177.441 34.5661 177.419 34.4683C177.307 33.9778 176.642 33.6896 176.104 33.5343C175.303 33.3031 174.642 33.2198 174.113 33.2198V33.2197ZM174.212 24.0515C173.765 24.0515 173.322 24.0656 172.888 24.0945C170.554 24.2493 169.445 24.763 169.273 24.9875C169.212 25.1051 169.219 25.1736 169.26 25.2681C169.452 25.7113 170.302 26.2467 170.904 26.4114C177.37 28.1807 181.679 28.9715 184.912 28.873C184.557 27.4051 183.677 25.8916 179.287 24.6813C177.809 24.2735 175.985 24.0515 174.212 24.0515ZM175.475 12.461C170.878 12.461 167.288 13.4179 166.889 14.265C166.731 14.6021 166.746 14.9143 166.938 15.2776C167.577 16.4817 169.802 17.608 171.4 17.8659C181.657 19.522 183.816 19.3463 190.224 18.8246L191.491 18.722C191.901 18.6894 192.311 18.6602 192.72 18.6319C191.571 17.2148 188.608 15.3594 186.523 14.4973C182.886 12.9927 178.901 12.461 175.475 12.461Z" fill="#414141"/>
</g>
<defs>
<clipPath id="clip0_10944_61357">
<rect width="40" height="47" fill="white" transform="translate(164.5)"/>
</clipPath>
</defs>
</svg>
