<svg width="293" height="247" viewBox="0 0 293 247" fill="none" xmlns="http://www.w3.org/2000/svg">
<g clip-path="url(#clip0_10944_61333)">
<path d="M10.2979 147.04C10.5647 164.072 20.9958 178.566 35.7339 184.848C32.8625 201.106 39.8504 218.227 54.7157 227.53C67.5734 235.576 83.112 235.792 95.7411 229.446C103.466 239.892 115.943 246.605 129.944 246.44C143.5 246.275 155.469 239.676 162.978 229.599C175.543 235.982 191.044 235.868 203.927 227.923C218.856 218.735 225.958 201.69 223.239 185.419C238.625 179.022 249.323 163.729 248.993 146.075V145.999C248.789 128.979 238.358 114.308 223.455 108.013C226.275 91.7422 219.249 74.6593 204.359 65.3817C191.501 57.3733 175.975 57.1956 163.359 63.5414C155.736 53.2485 143.5 46.6108 129.728 46.6108H129.347C115.714 46.725 103.657 53.3373 96.1096 63.4906C83.5186 57.1321 68.0054 57.2717 55.1349 65.2421C40.2316 74.4816 33.1548 91.5518 35.9372 107.81C20.6527 114.219 10.0057 129.436 10.2979 147.014V147.04Z" fill="#221A15"/>
<path d="M246.751 73.7501C251.261 68.8511 258.236 69.143 263.369 74.4228C268.591 79.6136 268.807 86.5814 263.852 91.0361C258.999 95.567 251.998 95.3005 247.208 90.3888C242.342 85.5533 242.152 78.5602 246.738 73.7628L246.751 73.7501Z" fill="#221A15"/>
<path d="M281.243 77.8478C283.771 75.1064 287.672 75.2714 290.556 78.2158C293.478 81.1222 293.593 85.0186 290.836 87.5188C288.117 90.0571 284.203 89.9048 281.523 87.1507C278.804 84.4474 278.689 80.5257 281.256 77.8351L281.243 77.8478Z" fill="#221A15"/>
<path d="M2.71198 141.295C2.97879 158.328 13.4099 172.821 28.148 179.104C25.2766 195.362 32.2645 212.483 47.1297 221.786C59.9875 229.832 75.5261 230.048 88.1552 223.702C95.88 234.147 108.357 240.861 122.358 240.696C135.914 240.531 147.883 233.932 155.392 223.854C167.957 230.238 183.458 230.124 196.341 222.179C211.27 212.99 218.372 195.946 215.653 179.675C231.039 173.278 241.737 157.985 241.407 140.331V140.255C241.203 123.235 230.772 108.564 215.869 102.269C218.69 85.998 211.663 68.9151 196.773 59.6376C183.915 51.6292 168.389 51.4514 155.773 57.7973C148.15 47.5043 135.914 40.8666 122.142 40.8666H121.761C108.128 40.9809 96.0706 47.5932 88.5236 57.7465C75.9327 51.388 60.4195 51.5276 47.549 59.498C32.6457 68.7375 25.5688 85.8077 28.3513 102.066C13.0668 108.475 2.41975 123.692 2.71198 141.27V141.295Z" fill="white"/>
<path d="M239.165 68.006C243.675 63.107 250.651 63.3989 255.783 68.6786C261.005 73.8695 261.221 80.8372 256.266 85.292C251.413 89.8229 244.412 89.5563 239.622 84.6447C234.756 79.8092 234.566 72.8161 239.152 68.0187L239.165 68.006Z" fill="white"/>
<path d="M273.657 72.1036C276.186 69.3622 280.086 69.5272 282.97 72.4717C285.892 75.3781 286.007 79.2744 283.25 81.7747C280.531 84.313 276.617 84.1607 273.937 81.4066C271.218 78.7033 271.103 74.7816 273.67 72.0909L273.657 72.1036Z" fill="white"/>
<path d="M2.71198 141.295C2.97879 158.328 13.4099 172.821 28.148 179.104C25.2766 195.362 32.2645 212.483 47.1297 221.786C59.9875 229.832 75.5261 230.048 88.1552 223.702C95.88 234.147 108.357 240.861 122.358 240.696C135.914 240.531 147.883 233.932 155.392 223.854C167.957 230.238 183.458 230.124 196.341 222.179C211.27 212.99 218.372 195.946 215.653 179.675C231.039 173.278 241.737 157.985 241.407 140.331V140.255C241.203 123.235 230.772 108.564 215.869 102.269C218.69 85.998 211.663 68.9151 196.773 59.6376C183.915 51.6292 168.389 51.4514 155.773 57.7973C148.15 47.5043 135.914 40.8666 122.142 40.8666H121.761C108.128 40.9809 96.0706 47.5932 88.5236 57.7465C75.9327 51.388 60.4195 51.5276 47.549 59.498C32.6457 68.7375 25.5688 85.8077 28.3513 102.066C13.0668 108.475 2.41975 123.692 2.71198 141.27V141.295Z" fill="white" stroke="#221A15" stroke-width="1.29084" stroke-miterlimit="10"/>
<path d="M239.165 68.006C243.675 63.107 250.651 63.3989 255.783 68.6786C261.005 73.8695 261.221 80.8372 256.266 85.292C251.413 89.8229 244.412 89.5563 239.622 84.6447C234.756 79.8092 234.566 72.8161 239.152 68.0187L239.165 68.006Z" fill="white" stroke="#221A15" stroke-width="1.29084" stroke-miterlimit="10"/>
<path d="M273.657 72.1036C276.186 69.3622 280.086 69.5272 282.97 72.4717C285.892 75.3781 286.007 79.2744 283.25 81.7747C280.531 84.313 276.617 84.1607 273.937 81.4066C271.218 78.7033 271.103 74.7816 273.67 72.0909L273.657 72.1036Z" fill="white" stroke="#221A15" stroke-width="1.29084" stroke-miterlimit="10"/>
<path d="M2.71198 141.295C2.97879 158.328 13.4099 172.821 28.148 179.104C25.2766 195.362 32.2645 212.483 47.1297 221.786C59.9875 229.832 75.5261 230.048 88.1552 223.702C95.88 234.147 108.357 240.861 122.358 240.696C135.914 240.531 147.883 233.932 155.392 223.854C167.957 230.238 183.458 230.124 196.341 222.179C211.27 212.99 218.372 195.946 215.653 179.675C231.039 173.278 241.737 157.985 241.407 140.331V140.255C241.203 123.235 230.772 108.564 215.869 102.269C218.69 85.9981 211.663 68.9151 196.773 59.6376C183.915 51.6291 168.389 51.4514 155.773 57.7973C148.15 47.5044 135.914 40.8666 122.142 40.8666H121.761C108.128 40.9809 96.0706 47.5932 88.5236 57.7465C75.9327 51.388 60.4195 51.5276 47.549 59.4979C32.6457 68.7375 25.5688 85.8077 28.3513 102.066C13.0668 108.475 2.41975 123.692 2.71198 141.27V141.295Z" stroke="#221A15" stroke-width="2" stroke-linecap="round" stroke-linejoin="round"/>
<path d="M239.165 68.006C243.675 63.107 250.651 63.3989 255.783 68.6786C261.005 73.8695 261.221 80.8372 256.266 85.292C251.413 89.8229 244.412 89.5563 239.622 84.6447C234.756 79.8092 234.566 72.8161 239.152 68.0187L239.165 68.006Z" stroke="#221A15" stroke-width="2" stroke-linecap="round" stroke-linejoin="round"/>
<path d="M273.657 72.1036C276.186 69.3622 280.086 69.5272 282.97 72.4717C285.892 75.3781 286.007 79.2744 283.25 81.7747C280.531 84.313 276.617 84.1607 273.937 81.4066C271.218 78.7033 271.103 74.7816 273.67 72.0909L273.657 72.1036Z" stroke="#221A15" stroke-width="2" stroke-linecap="round" stroke-linejoin="round"/>
</g>
<g clip-path="url(#clip1_10944_61333)">
<path d="M195.953 46.9995C195.695 46.9992 195.444 46.9115 195.242 46.7507C195.04 46.5899 194.9 46.3657 194.843 46.1147C194.024 42.5043 195.94 41.0185 197.207 40.0354C197.426 39.8656 197.633 39.7055 197.807 39.5502C198.794 38.671 199.517 37.9244 200.045 37.295C198.798 37.2291 197.574 36.9362 196.432 36.4309C194.286 35.4879 193.963 33.9525 194.339 32.924C194.883 31.4349 197.117 30.3096 200.739 31.3546C202.779 31.9438 203.443 33.099 203.641 33.9643C203.682 34.1425 203.707 34.324 203.715 34.5065C204.076 34.3863 204.442 34.246 204.813 34.0856C205.643 33.7269 206.998 32.3721 207.935 31.1397C204.581 31.0684 200.301 30.2404 194.301 28.5986C193.485 28.3756 191.781 27.5804 191.168 26.1674C190.845 25.4224 190.88 24.6412 191.27 23.9083C192.586 21.4317 199.726 21.3449 203.895 22.4941C208.406 23.7379 210.526 25.5174 211.191 28.6264C211.946 28.4798 212.682 28.2527 213.388 27.9491C215.412 27.0758 217.05 25.7635 217.882 24.3483C218.544 23.2232 218.62 22.0999 218.079 20.8105C217.759 20.8341 217.44 20.856 217.121 20.8781C216.639 20.9112 216.156 20.9444 215.674 20.9831L214.41 21.0853C207.795 21.6239 205.566 21.8054 195.035 20.105C192.854 19.753 189.971 18.3125 188.923 16.3364C188.394 15.3388 188.361 14.2893 188.826 13.3011C190.561 9.6183 203.428 9.10572 211.397 12.4017C213.441 13.247 217.013 15.3212 218.557 17.286C218.761 17.5467 219.065 17.9334 219.381 18.4215C222.154 18.1362 224.58 17.541 225.875 15.5094C226.97 13.7919 225.278 10.4738 223.076 8.56979C217.137 3.43657 212.575 2.81053 208.55 2.25799C208.401 2.23784 208.258 2.18876 208.129 2.11356C208 2.03835 207.887 1.9385 207.796 1.81971C207.706 1.70092 207.639 1.56552 207.601 1.42126C207.564 1.277 207.555 1.12671 207.575 0.978982C207.595 0.831258 207.645 0.689001 207.721 0.560346C207.796 0.431691 207.897 0.319164 208.016 0.229202C208.136 0.13924 208.272 0.0736075 208.417 0.0360605C208.562 -0.00148647 208.713 -0.010212 208.861 0.0103831C212.986 0.576502 218.119 1.28095 224.57 6.85647C227.119 9.05971 229.806 13.5777 227.8 16.7251C226.129 19.3455 223.388 20.203 220.417 20.5861C220.853 21.9955 220.904 23.6991 219.849 25.4947C218.777 27.3166 216.753 28.9702 214.294 30.031C213.152 30.5214 211.946 30.8486 210.713 31.003C209.6 33.2101 207.032 35.5998 205.72 36.167C204.842 36.5512 203.928 36.8474 202.991 37.0512C202.287 38.2983 201.069 39.6884 199.327 41.2409C199.095 41.4477 198.847 41.6395 198.608 41.8252C197.422 42.745 196.565 43.4094 197.066 45.6153C197.103 45.7814 197.102 45.9537 197.064 46.1196C197.025 46.2854 196.95 46.4405 196.843 46.5734C196.736 46.7063 196.601 46.8136 196.447 46.8873C196.293 46.9611 196.124 46.9994 195.953 46.9995ZM198.113 33.2192C197.059 33.2192 196.532 33.55 196.48 33.6995C196.489 33.7448 196.667 34.0542 197.352 34.3553C198.62 34.9185 200.014 35.1437 201.396 35.0088C201.457 34.7409 201.441 34.5656 201.419 34.4678C201.307 33.9773 200.642 33.6891 200.104 33.5338C199.303 33.3026 198.642 33.2193 198.113 33.2193V33.2192ZM198.212 24.051C197.765 24.051 197.322 24.0651 196.888 24.094C194.554 24.2488 193.445 24.7625 193.273 24.987C193.212 25.1046 193.219 25.1731 193.26 25.2676C193.452 25.7108 194.302 26.2462 194.904 26.4109C201.37 28.1802 205.679 28.971 208.912 28.8725C208.557 27.4046 207.677 25.8911 203.287 24.6808C201.809 24.273 199.985 24.051 198.212 24.051ZM199.475 12.4605C194.878 12.4605 191.288 13.4174 190.889 14.2645C190.731 14.6016 190.746 14.9138 190.938 15.2771C191.577 16.4812 193.802 17.6075 195.4 17.8654C205.657 19.5215 207.816 19.3459 214.224 18.8241L215.491 18.7215C215.901 18.6889 216.311 18.6598 216.72 18.6314C215.571 17.2143 212.608 15.359 210.523 14.4968C206.886 12.9922 202.901 12.4605 199.475 12.4605Z" fill="#414141"/>
</g>
<defs>
<clipPath id="clip0_10944_61333">
<rect width="293.001" height="209.001" fill="white" transform="matrix(1 0 0 -1 -0.00195312 246.998)"/>
</clipPath>
<clipPath id="clip1_10944_61333">
<rect width="40" height="47" fill="white" transform="translate(188.5 -0.000488281)"/>
</clipPath>
</defs>
</svg>
