<svg width="248" height="253" viewBox="0 0 248 253" fill="none" xmlns="http://www.w3.org/2000/svg">
<g clip-path="url(#clip0_10944_61309)">
<path d="M7.2979 128.958C7.5647 111.926 17.9958 97.4325 32.7339 91.1501C29.8625 74.8921 36.8504 57.7711 51.7157 48.4682C64.5734 40.4217 80.112 40.2059 92.7411 46.5517C100.466 36.1065 112.943 29.3927 126.944 29.5577C140.5 29.7227 152.469 36.3223 159.978 46.3994C172.543 40.0156 188.044 40.1298 200.927 48.0747C215.856 57.2635 222.958 74.3083 220.239 90.579C235.625 96.9756 246.323 112.269 245.993 129.923V129.999C245.789 147.019 235.358 161.69 220.455 167.985C223.275 184.256 216.249 201.339 201.359 210.616C188.501 218.625 172.975 218.802 160.359 212.457C152.736 222.75 140.5 229.387 126.728 229.387H126.347C112.714 229.273 100.657 222.661 93.1096 212.507C80.5186 218.866 65.0054 218.726 52.1349 210.756C37.2316 201.516 30.1547 184.446 32.9372 168.188C17.6527 161.779 7.00568 146.562 7.2979 128.984V128.958Z" fill="#221A15"/>
<path d="M211.751 234.248C216.261 239.147 223.236 238.855 228.369 233.575C233.591 228.384 233.807 221.417 228.852 216.962C223.999 212.431 216.998 212.698 212.208 217.609C207.342 222.445 207.152 229.438 211.738 234.235L211.751 234.248Z" fill="#221A15"/>
<path d="M235.243 250.15C237.771 252.892 241.672 252.727 244.556 249.782C247.478 246.876 247.593 242.979 244.836 240.479C242.117 237.941 238.203 238.093 235.523 240.847C232.804 243.551 232.689 247.472 235.256 250.163L235.243 250.15Z" fill="#221A15"/>
<path d="M1.71391 124.703C1.98071 107.67 12.4118 93.1766 27.1499 86.8942C24.2785 70.6363 31.2664 53.5153 46.1317 44.2123C58.9894 36.1658 74.528 35.9501 87.1571 42.2959C94.8819 31.8507 107.359 25.1368 121.36 25.3018C134.916 25.4668 146.885 32.0664 154.394 42.1436C166.959 35.7597 182.46 35.8739 195.343 43.8189C210.272 53.0076 217.374 70.0525 214.655 86.3231C230.041 92.7197 240.739 108.013 240.409 125.667V125.743C240.205 142.763 229.774 157.434 214.871 163.729C217.691 180 210.665 197.083 195.775 206.36C182.917 214.369 167.391 214.547 154.775 208.201C147.152 218.494 134.916 225.131 121.144 225.131H120.763C107.13 225.017 95.0725 218.405 87.5256 208.252C74.9346 214.61 59.4214 214.47 46.5509 206.5C31.6476 197.261 24.5708 180.19 27.3532 163.932C12.0687 157.523 1.42169 142.306 1.71391 124.728V124.703Z" fill="white"/>
<path d="M206.167 229.992C210.677 234.891 217.652 234.599 222.785 229.319C228.007 224.129 228.223 217.161 223.268 212.706C218.415 208.175 211.414 208.442 206.624 213.353C201.758 218.189 201.568 225.182 206.154 229.979L206.167 229.992Z" fill="white"/>
<path d="M229.659 245.894C232.187 248.636 236.088 248.471 238.972 245.526C241.894 242.62 242.009 238.724 239.252 236.223C236.533 233.685 232.619 233.837 229.939 236.591C227.22 239.295 227.105 243.216 229.672 245.907L229.659 245.894Z" fill="white"/>
<path d="M1.71391 124.703C1.98071 107.67 12.4118 93.1766 27.1499 86.8942C24.2785 70.6363 31.2664 53.5153 46.1317 44.2123C58.9894 36.1658 74.528 35.9501 87.1571 42.2959C94.8819 31.8507 107.359 25.1368 121.36 25.3018C134.916 25.4668 146.885 32.0664 154.394 42.1436C166.959 35.7597 182.46 35.8739 195.343 43.8189C210.272 53.0076 217.374 70.0525 214.655 86.3231C230.041 92.7197 240.739 108.013 240.409 125.667V125.743C240.205 142.763 229.774 157.434 214.871 163.729C217.691 180 210.665 197.083 195.775 206.36C182.917 214.369 167.391 214.547 154.775 208.201C147.152 218.494 134.916 225.131 121.144 225.131H120.763C107.13 225.017 95.0725 218.405 87.5256 208.252C74.9346 214.61 59.4214 214.47 46.5509 206.5C31.6476 197.261 24.5708 180.19 27.3532 163.932C12.0687 157.523 1.42169 142.306 1.71391 124.728V124.703Z" fill="white" stroke="#221A15" stroke-miterlimit="10"/>
<path d="M206.167 229.992C210.677 234.891 217.652 234.599 222.785 229.319C228.007 224.129 228.223 217.161 223.268 212.706C218.415 208.175 211.414 208.442 206.624 213.353C201.758 218.189 201.568 225.182 206.154 229.979L206.167 229.992Z" fill="white" stroke="#221A15" stroke-width="1.29084" stroke-miterlimit="10"/>
<path d="M229.659 245.894C232.187 248.636 236.088 248.471 238.972 245.526C241.894 242.62 242.009 238.724 239.252 236.223C236.533 233.685 232.619 233.837 229.939 236.591C227.22 239.295 227.105 243.216 229.672 245.907L229.659 245.894Z" fill="white" stroke="#221A15" stroke-width="1.29084" stroke-miterlimit="10"/>
<path d="M1.71391 124.703C1.98072 107.67 12.4118 93.1766 27.1499 86.8943C24.2785 70.6363 31.2664 53.5153 46.1317 44.2123C58.9894 36.1658 74.528 35.9501 87.1571 42.2959C94.8819 31.8507 107.359 25.1368 121.36 25.3018C134.916 25.4668 146.885 32.0664 154.394 42.1436C166.959 35.7597 182.46 35.8739 195.343 43.8189C210.272 53.0076 217.374 70.0525 214.655 86.3231C230.041 92.7197 240.739 108.013 240.409 125.667V125.743C240.205 142.763 229.774 157.434 214.871 163.729C217.691 180 210.665 197.083 195.775 206.36C182.917 214.369 167.391 214.547 154.775 208.201C147.152 218.494 134.916 225.131 121.144 225.131H120.763C107.13 225.017 95.0725 218.405 87.5256 208.252C74.9346 214.61 59.4214 214.47 46.5509 206.5C31.6476 197.261 24.5708 180.19 27.3532 163.932C12.0687 157.523 1.42169 142.306 1.71391 124.728V124.703Z" stroke="#221A15" stroke-width="2" stroke-linecap="round" stroke-linejoin="round"/>
<path d="M206.167 229.992C210.677 234.891 217.652 234.599 222.785 229.319C228.007 224.129 228.223 217.161 223.268 212.706C218.415 208.175 211.414 208.442 206.624 213.353C201.758 218.189 201.568 225.182 206.154 229.979L206.167 229.992Z" stroke="#221A15" stroke-width="2" stroke-linecap="round" stroke-linejoin="round"/>
<path d="M229.659 245.894C232.187 248.636 236.088 248.471 238.972 245.526C241.894 242.62 242.009 238.724 239.252 236.223C236.533 233.685 232.619 233.837 229.939 236.591C227.22 239.295 227.105 243.216 229.672 245.907L229.659 245.894Z" stroke="#221A15" stroke-width="2" stroke-linecap="round" stroke-linejoin="round"/>
</g>
<g clip-path="url(#clip1_10944_61309)">
<path d="M211.953 47C211.695 46.9997 211.444 46.912 211.242 46.7512C211.04 46.5904 210.9 46.3661 210.843 46.1152C210.024 42.5048 211.94 41.019 213.207 40.0359C213.426 39.8661 213.633 39.706 213.807 39.5507C214.794 38.6715 215.517 37.9249 216.045 37.2955C214.798 37.2296 213.574 36.9367 212.432 36.4314C210.286 35.4884 209.963 33.953 210.339 32.9244C210.883 31.4354 213.117 30.3101 216.739 31.3551C218.779 31.9443 219.443 33.0995 219.641 33.9648C219.682 34.143 219.707 34.3245 219.715 34.507C220.076 34.3868 220.442 34.2465 220.813 34.0861C221.643 33.7273 222.998 32.3726 223.935 31.1402C220.581 31.0689 216.301 30.2409 210.301 28.5991C209.485 28.3761 207.781 27.5808 207.168 26.1679C206.845 25.4229 206.88 24.6417 207.27 23.9087C208.586 21.4321 215.726 21.3454 219.895 22.4946C224.406 23.7384 226.526 25.5179 227.191 28.6269C227.946 28.4803 228.682 28.2532 229.388 27.9496C231.412 27.0763 233.05 25.764 233.882 24.3488C234.544 23.2237 234.62 22.1004 234.079 20.811C233.759 20.8346 233.44 20.8565 233.121 20.8786C232.639 20.9117 232.156 20.9449 231.674 20.9836L230.41 21.0858C223.795 21.6244 221.566 21.8059 211.035 20.1055C208.854 19.7535 205.971 18.313 204.923 16.3369C204.394 15.3393 204.361 14.2898 204.826 13.3016C206.561 9.61879 219.428 9.10621 227.397 12.4022C229.441 13.2475 233.013 15.3217 234.557 17.2865C234.761 17.5472 235.065 17.9339 235.381 18.422C238.154 18.1367 240.58 17.5415 241.875 15.5099C242.97 13.7924 241.278 10.4742 239.076 8.57028C233.137 3.43706 228.575 2.81102 224.55 2.25848C224.401 2.23833 224.258 2.18925 224.129 2.11405C224 2.03884 223.887 1.93899 223.796 1.8202C223.706 1.7014 223.639 1.56601 223.601 1.42175C223.564 1.27749 223.555 1.12719 223.575 0.97947C223.595 0.831747 223.645 0.689489 223.721 0.560834C223.796 0.432179 223.897 0.319652 224.016 0.22969C224.136 0.139728 224.272 0.0740958 224.417 0.0365488C224.562 -0.000998185 224.713 -0.00972375 224.861 0.0108714C228.986 0.576991 234.119 1.28144 240.57 6.85695C243.119 9.0602 245.806 13.5782 243.8 16.7256C242.129 19.346 239.388 20.2034 236.417 20.5865C236.853 21.996 236.904 23.6995 235.849 25.4952C234.777 27.3171 232.753 28.9707 230.294 30.0315C229.152 30.5219 227.946 30.8491 226.713 31.0035C225.6 33.2106 223.032 35.6003 221.72 36.1675C220.842 36.5517 219.928 36.8479 218.991 37.0517C218.287 38.2988 217.069 39.6889 215.327 41.2414C215.095 41.4482 214.847 41.64 214.608 41.8257C213.422 42.7455 212.565 43.4099 213.066 45.6158C213.103 45.7819 213.102 45.9542 213.064 46.12C213.025 46.2859 212.95 46.441 212.843 46.5739C212.736 46.7068 212.601 46.8141 212.447 46.8878C212.293 46.9616 212.124 46.9999 211.953 47ZM214.113 33.2197C213.059 33.2197 212.532 33.5505 212.48 33.7C212.489 33.7453 212.667 34.0547 213.352 34.3558C214.62 34.919 216.014 35.1442 217.396 35.0092C217.457 34.7413 217.441 34.5661 217.419 34.4683C217.307 33.9778 216.642 33.6896 216.104 33.5343C215.303 33.3031 214.642 33.2198 214.113 33.2198V33.2197ZM214.212 24.0515C213.765 24.0515 213.322 24.0656 212.888 24.0945C210.554 24.2493 209.445 24.763 209.273 24.9875C209.212 25.1051 209.219 25.1736 209.26 25.2681C209.452 25.7113 210.302 26.2467 210.904 26.4114C217.37 28.1807 221.679 28.9715 224.912 28.873C224.557 27.4051 223.677 25.8916 219.287 24.6813C217.809 24.2735 215.985 24.0515 214.212 24.0515ZM215.475 12.461C210.878 12.461 207.288 13.4179 206.889 14.265C206.731 14.6021 206.746 14.9143 206.938 15.2776C207.577 16.4817 209.802 17.608 211.4 17.8659C221.657 19.522 223.816 19.3463 230.224 18.8246L231.491 18.722C231.901 18.6894 232.311 18.6602 232.72 18.6319C231.571 17.2148 228.608 15.3594 226.523 14.4973C222.886 12.9927 218.901 12.461 215.475 12.461Z" fill="#414141"/>
</g>
<defs>
<clipPath id="clip0_10944_61309">
<rect width="247" height="229" fill="white" transform="translate(0.5 24)"/>
</clipPath>
<clipPath id="clip1_10944_61309">
<rect width="40" height="47" fill="white" transform="translate(204.5)"/>
</clipPath>
</defs>
</svg>
