<svg width="250" height="252" viewBox="0 0 250 252" fill="none" xmlns="http://www.w3.org/2000/svg">
<g clip-path="url(#clip0_10944_61381)">
<path d="M248.621 128.861C248.355 111.863 237.933 97.3981 223.209 91.1283C226.078 74.9029 219.096 57.8162 204.245 48.5319C191.399 40.5015 175.875 40.2862 163.257 46.6193C155.54 36.195 143.075 29.4946 129.086 29.6592C115.542 29.8239 103.585 36.4103 96.0832 46.4673C83.5293 40.0962 68.0432 40.2102 55.172 48.1392C40.2571 57.3096 33.1614 74.3203 35.8778 90.5584C20.506 96.9421 9.81803 112.205 10.1481 129.824V129.9C10.3512 146.885 20.7725 161.527 35.662 167.81C32.8441 184.048 39.8636 201.096 54.7404 210.355C67.5863 218.348 83.0977 218.525 95.7024 212.192C103.319 222.464 115.542 229.089 129.302 229.089H129.683C143.303 228.975 155.349 222.376 162.889 212.243C175.469 218.588 190.967 218.449 203.826 210.495C218.715 201.274 225.786 184.238 223.006 168.012C238.276 161.616 248.913 146.429 248.621 128.886V128.861Z" fill="#221A15"/>
<path d="M44.3569 233.939C39.8507 238.828 32.882 238.537 27.7538 233.268C22.5368 228.088 22.321 221.134 27.2714 216.688C32.1204 212.166 39.1145 212.432 43.9 217.334C48.7616 222.16 48.952 229.139 44.3696 233.927L44.3569 233.939Z" fill="#221A15"/>
<path d="M20.8868 249.811C18.3608 252.547 14.4639 252.382 11.5824 249.444C8.66293 246.543 8.54869 242.654 11.3032 240.159C14.0196 237.626 17.9292 237.778 20.6075 240.527C23.3239 243.224 23.4382 247.138 20.8741 249.824L20.8868 249.811Z" fill="#221A15"/>
<path d="M241.213 124.613C240.947 107.615 230.525 93.1501 215.801 86.8803C218.669 70.6549 211.688 53.5682 196.837 44.2838C183.991 36.2534 168.467 36.0381 155.849 42.3712C148.132 31.9469 135.666 25.2465 121.678 25.4112C108.134 25.5758 96.1769 32.1623 88.675 42.2192C76.1211 35.8481 60.635 35.9621 47.7638 43.8912C32.8489 53.0615 25.7532 70.0722 28.4696 86.3103C13.0978 92.6941 2.40983 107.957 2.73986 125.576V125.652C2.94295 142.637 13.3643 157.279 28.2538 163.562C25.4359 179.8 32.4554 196.848 47.3322 206.107C60.1781 214.1 75.6895 214.277 88.2942 207.944C95.9103 218.216 108.134 224.841 121.894 224.841H122.275C135.895 224.727 147.941 218.128 155.481 207.995C168.06 214.34 183.559 214.201 196.418 206.247C211.307 197.026 218.377 179.99 215.598 163.764C230.868 157.368 241.505 142.181 241.213 124.638V124.613Z" fill="white"/>
<path d="M36.9487 229.691C32.4425 234.58 25.4738 234.289 20.3456 229.02C15.1286 223.839 14.9128 216.886 19.8632 212.44C24.7122 207.918 31.7063 208.184 36.4918 213.086C41.3534 217.912 41.5438 224.891 36.9614 229.679L36.9487 229.691Z" fill="white"/>
<path d="M13.4786 245.563C10.9526 248.299 7.05567 248.134 4.17424 245.196C1.25473 242.295 1.14048 238.406 3.89498 235.911C6.61139 233.378 10.521 233.53 13.1993 236.279C15.9157 238.976 16.03 242.89 13.4659 245.575L13.4786 245.563Z" fill="white"/>
<path d="M241.213 124.613C240.947 107.615 230.525 93.1501 215.801 86.8803C218.669 70.6549 211.688 53.5682 196.837 44.2838C183.991 36.2534 168.467 36.0381 155.849 42.3712C148.132 31.9469 135.666 25.2465 121.678 25.4112C108.134 25.5758 96.1769 32.1623 88.675 42.2192C76.1211 35.8481 60.635 35.9621 47.7638 43.8912C32.8489 53.0615 25.7532 70.0722 28.4696 86.3103C13.0978 92.6941 2.40983 107.957 2.73986 125.576V125.652C2.94295 142.637 13.3643 157.279 28.2538 163.562C25.4359 179.8 32.4554 196.848 47.3322 206.107C60.1781 214.1 75.6895 214.277 88.2942 207.944C95.9103 218.216 108.134 224.841 121.894 224.841H122.275C135.895 224.727 147.941 218.128 155.481 207.995C168.06 214.34 183.559 214.201 196.418 206.247C211.307 197.026 218.377 179.99 215.598 163.764C230.868 157.368 241.505 142.181 241.213 124.638V124.613Z" fill="white" stroke="#221A15" stroke-width="1.29084" stroke-miterlimit="10"/>
<path d="M36.9487 229.691C32.4425 234.58 25.4738 234.289 20.3456 229.02C15.1286 223.839 14.9128 216.886 19.8632 212.44C24.7122 207.918 31.7063 208.184 36.4918 213.086C41.3534 217.912 41.5438 224.891 36.9614 229.679L36.9487 229.691Z" fill="white" stroke="#221A15" stroke-width="1.29084" stroke-miterlimit="10"/>
<path d="M13.4786 245.563C10.9526 248.299 7.05567 248.134 4.17424 245.196C1.25473 242.295 1.14048 238.406 3.89498 235.911C6.61139 233.378 10.521 233.53 13.1993 236.279C15.9157 238.976 16.03 242.89 13.4659 245.575L13.4786 245.563Z" fill="white" stroke="#221A15" stroke-width="1.29084" stroke-miterlimit="10"/>
<path d="M241.213 124.613C240.947 107.615 230.525 93.1501 215.801 86.8803C218.669 70.6549 211.688 53.5682 196.837 44.2838C183.991 36.2534 168.467 36.0381 155.849 42.3712C148.131 31.9469 135.666 25.2465 121.678 25.4112C108.134 25.5758 96.1769 32.1623 88.675 42.2192C76.1211 35.8481 60.635 35.9621 47.7638 43.8912C32.8489 53.0615 25.7532 70.0722 28.4696 86.3103C13.0978 92.6941 2.40983 107.957 2.73986 125.576V125.652C2.94295 142.637 13.3643 157.279 28.2538 163.562C25.4359 179.8 32.4554 196.848 47.3322 206.107C60.1781 214.1 75.6895 214.277 88.2942 207.944C95.9103 218.216 108.134 224.841 121.894 224.841H122.275C135.895 224.727 147.941 218.128 155.481 207.995C168.06 214.34 183.559 214.201 196.418 206.247C211.307 197.026 218.377 179.99 215.598 163.764C230.868 157.368 241.505 142.181 241.213 124.638V124.613Z" stroke="#221A15" stroke-width="2" stroke-linecap="round" stroke-linejoin="round"/>
<path d="M36.9487 229.691C32.4425 234.58 25.4738 234.289 20.3456 229.02C15.1286 223.839 14.9128 216.886 19.8632 212.44C24.7122 207.918 31.7063 208.184 36.4918 213.086C41.3534 217.912 41.5438 224.891 36.9614 229.679L36.9487 229.691Z" stroke="#221A15" stroke-width="2" stroke-linecap="round" stroke-linejoin="round"/>
<path d="M13.4786 245.563C10.9526 248.299 7.05567 248.134 4.17424 245.196C1.25473 242.295 1.14048 238.406 3.89498 235.911C6.61139 233.378 10.521 233.53 13.1993 236.279C15.9157 238.976 16.03 242.89 13.4659 245.575L13.4786 245.563Z" stroke="#221A15" stroke-width="2" stroke-linecap="round" stroke-linejoin="round"/>
</g>
<g clip-path="url(#clip1_10944_61381)">
<path d="M211.953 47C211.695 46.9997 211.444 46.912 211.242 46.7512C211.04 46.5904 210.9 46.3661 210.843 46.1152C210.024 42.5048 211.94 41.019 213.207 40.0359C213.426 39.8661 213.633 39.706 213.807 39.5507C214.794 38.6715 215.517 37.9249 216.045 37.2955C214.798 37.2296 213.574 36.9367 212.432 36.4314C210.286 35.4884 209.963 33.953 210.339 32.9244C210.883 31.4354 213.117 30.3101 216.739 31.3551C218.779 31.9443 219.443 33.0995 219.641 33.9648C219.682 34.143 219.707 34.3245 219.715 34.507C220.076 34.3868 220.442 34.2465 220.813 34.0861C221.643 33.7273 222.998 32.3726 223.935 31.1402C220.581 31.0689 216.301 30.2409 210.301 28.5991C209.485 28.3761 207.781 27.5808 207.168 26.1679C206.845 25.4229 206.88 24.6417 207.27 23.9087C208.586 21.4321 215.726 21.3454 219.895 22.4946C224.406 23.7384 226.526 25.5179 227.191 28.6269C227.946 28.4803 228.682 28.2532 229.388 27.9496C231.412 27.0763 233.05 25.764 233.882 24.3488C234.544 23.2237 234.62 22.1004 234.079 20.811C233.759 20.8346 233.44 20.8565 233.121 20.8786C232.639 20.9117 232.156 20.9449 231.674 20.9836L230.41 21.0858C223.795 21.6244 221.566 21.8059 211.035 20.1055C208.854 19.7535 205.971 18.313 204.923 16.3369C204.394 15.3393 204.361 14.2898 204.826 13.3016C206.561 9.61879 219.428 9.10621 227.397 12.4022C229.441 13.2475 233.013 15.3217 234.557 17.2865C234.761 17.5472 235.065 17.9339 235.381 18.422C238.154 18.1367 240.58 17.5415 241.875 15.5099C242.97 13.7924 241.278 10.4742 239.076 8.57028C233.137 3.43706 228.575 2.81102 224.55 2.25848C224.401 2.23833 224.258 2.18925 224.129 2.11405C224 2.03884 223.887 1.93899 223.796 1.8202C223.706 1.7014 223.639 1.56601 223.601 1.42175C223.564 1.27749 223.555 1.12719 223.575 0.97947C223.595 0.831747 223.645 0.689489 223.721 0.560834C223.796 0.432179 223.897 0.319652 224.016 0.22969C224.136 0.139728 224.272 0.0740958 224.417 0.0365488C224.562 -0.000998185 224.713 -0.00972375 224.861 0.0108714C228.986 0.576991 234.119 1.28144 240.57 6.85695C243.119 9.0602 245.806 13.5782 243.8 16.7256C242.129 19.346 239.388 20.2034 236.417 20.5865C236.853 21.996 236.904 23.6995 235.849 25.4952C234.777 27.3171 232.753 28.9707 230.294 30.0315C229.152 30.5219 227.946 30.8491 226.713 31.0035C225.6 33.2106 223.032 35.6003 221.72 36.1675C220.842 36.5517 219.928 36.8479 218.991 37.0517C218.287 38.2988 217.069 39.6889 215.327 41.2414C215.095 41.4482 214.847 41.64 214.608 41.8257C213.422 42.7455 212.565 43.4099 213.066 45.6158C213.103 45.7819 213.102 45.9542 213.064 46.12C213.025 46.2859 212.95 46.441 212.843 46.5739C212.736 46.7068 212.601 46.8141 212.447 46.8878C212.293 46.9616 212.124 46.9999 211.953 47ZM214.113 33.2197C213.059 33.2197 212.532 33.5505 212.48 33.7C212.489 33.7453 212.667 34.0547 213.352 34.3558C214.62 34.919 216.014 35.1442 217.396 35.0092C217.457 34.7413 217.441 34.5661 217.419 34.4683C217.307 33.9778 216.642 33.6896 216.104 33.5343C215.303 33.3031 214.642 33.2198 214.113 33.2198V33.2197ZM214.212 24.0515C213.765 24.0515 213.322 24.0656 212.888 24.0945C210.554 24.2493 209.445 24.763 209.273 24.9875C209.212 25.1051 209.219 25.1736 209.26 25.2681C209.452 25.7113 210.302 26.2467 210.904 26.4114C217.37 28.1807 221.679 28.9715 224.912 28.873C224.557 27.4051 223.677 25.8916 219.287 24.6813C217.809 24.2735 215.985 24.0515 214.212 24.0515ZM215.475 12.461C210.878 12.461 207.288 13.4179 206.889 14.265C206.731 14.6021 206.746 14.9143 206.938 15.2776C207.577 16.4817 209.802 17.608 211.4 17.8659C221.657 19.522 223.816 19.3463 230.224 18.8246L231.491 18.722C231.901 18.6894 232.311 18.6602 232.72 18.6319C231.571 17.2148 228.608 15.3594 226.523 14.4973C222.886 12.9927 218.901 12.461 215.475 12.461Z" fill="#414141"/>
</g>
<defs>
<clipPath id="clip0_10944_61381">
<rect width="249" height="228" fill="white" transform="matrix(-1 0 0 1 249.5 24)"/>
</clipPath>
<clipPath id="clip1_10944_61381">
<rect width="40" height="47" fill="white" transform="translate(204.5)"/>
</clipPath>
</defs>
</svg>
