<svg width="248" height="229" viewBox="0 0 248 229" fill="none" xmlns="http://www.w3.org/2000/svg">
<g clip-path="url(#clip0_10944_61310)">
<path d="M7.2979 104.958C7.5647 87.9263 17.9958 73.4325 32.7339 67.1501C29.8625 50.8921 36.8504 33.7711 51.7157 24.4682C64.5734 16.4217 80.112 16.2059 92.7411 22.5517C100.466 12.1065 112.943 5.39267 126.944 5.55766C140.5 5.72265 152.469 12.3223 159.978 22.3994C172.543 16.0156 188.044 16.1298 200.927 24.0747C215.856 33.2635 222.958 50.3083 220.239 66.579C235.625 72.9756 246.323 88.269 245.993 105.923V105.999C245.789 123.019 235.358 137.69 220.455 143.985C223.275 160.256 216.249 177.339 201.359 186.616C188.501 194.625 172.975 194.802 160.359 188.457C152.736 198.75 140.5 205.387 126.728 205.387H126.347C112.714 205.273 100.657 198.661 93.1096 188.507C80.5186 194.866 65.0054 194.726 52.1349 186.756C37.2316 177.516 30.1547 160.446 32.9372 144.188C17.6527 137.779 7.00568 122.562 7.2979 104.984V104.958Z" fill="#221A15"/>
<path d="M1.71391 100.703C1.98071 83.6704 12.4118 69.1766 27.1499 62.8942C24.2785 46.6363 31.2664 29.5153 46.1317 20.2123C58.9894 12.1658 74.528 11.9501 87.1571 18.2959C94.8819 7.85068 107.359 1.13681 121.36 1.3018C134.916 1.46679 146.885 8.06644 154.394 18.1436C166.959 11.7597 182.46 11.8739 195.343 19.8189C210.272 29.0076 217.374 46.0525 214.655 62.3231C230.041 68.7197 240.739 84.0131 240.409 101.667V101.743C240.205 118.763 229.774 133.434 214.871 139.729C217.691 156 210.665 173.083 195.775 182.36C182.917 190.369 167.391 190.547 154.775 184.201C147.152 194.494 134.916 201.131 121.144 201.131H120.763C107.13 201.017 95.0725 194.405 87.5256 184.252C74.9346 190.61 59.4214 190.47 46.5509 182.5C31.6476 173.261 24.5708 156.19 27.3532 139.932C12.0687 133.523 1.42169 118.306 1.71391 100.728V100.703Z" fill="white"/>
<path d="M206.167 205.992C210.677 210.891 217.652 210.599 222.785 205.319C228.007 200.129 228.223 193.161 223.268 188.706C218.415 184.175 211.414 184.442 206.624 189.353C201.758 194.189 201.568 201.182 206.154 205.979L206.167 205.992Z" fill="white"/>
<path d="M1.71391 100.703C1.98071 83.6704 12.4118 69.1766 27.1499 62.8942C24.2785 46.6363 31.2664 29.5153 46.1317 20.2123C58.9894 12.1658 74.528 11.9501 87.1571 18.2959C94.8819 7.85068 107.359 1.13681 121.36 1.3018C134.916 1.46679 146.885 8.06644 154.394 18.1436C166.959 11.7597 182.46 11.8739 195.343 19.8189C210.272 29.0076 217.374 46.0525 214.655 62.3231C230.041 68.7197 240.739 84.0131 240.409 101.667V101.743C240.205 118.763 229.774 133.434 214.871 139.729C217.691 156 210.665 173.083 195.775 182.36C182.917 190.369 167.391 190.547 154.775 184.201C147.152 194.494 134.916 201.131 121.144 201.131H120.763C107.13 201.017 95.0725 194.405 87.5256 184.252C74.9346 190.61 59.4214 190.47 46.5509 182.5C31.6476 173.261 24.5708 156.19 27.3532 139.932C12.0687 133.523 1.42169 118.306 1.71391 100.728V100.703Z" fill="white" stroke="#221A15" stroke-miterlimit="10"/>
<path d="M1.71391 100.703C1.98072 83.6704 12.4118 69.1766 27.1499 62.8943C24.2785 46.6363 31.2664 29.5153 46.1317 20.2123C58.9894 12.1658 74.528 11.9501 87.1571 18.2959C94.8819 7.85068 107.359 1.13681 121.36 1.3018C134.916 1.46679 146.885 8.06644 154.394 18.1436C166.959 11.7597 182.46 11.8739 195.343 19.8189C210.272 29.0076 217.374 46.0525 214.655 62.3231C230.041 68.7197 240.739 84.0131 240.409 101.667V101.743C240.205 118.763 229.774 133.434 214.871 139.729C217.691 156 210.665 173.083 195.775 182.36C182.917 190.369 167.391 190.547 154.775 184.201C147.152 194.494 134.916 201.131 121.144 201.131H120.763C107.13 201.017 95.0725 194.405 87.5256 184.252C74.9346 190.61 59.4214 190.47 46.5509 182.5C31.6476 173.261 24.5708 156.19 27.3532 139.932C12.0687 133.523 1.42169 118.306 1.71391 100.728V100.703Z" stroke="#221A15" stroke-width="2" stroke-linecap="round" stroke-linejoin="round"/>
</g>
<defs>
<clipPath id="clip0_10944_61310">
<rect width="247" height="229" fill="white" transform="translate(0.5)"/>
</clipPath>
</defs>
</svg>
