<svg width="175" height="152" viewBox="0 0 175 152" fill="none" xmlns="http://www.w3.org/2000/svg">
<g clip-path="url(#clip0_10944_60715)">
<path d="M134.903 37.375C142.394 45.1298 149.184 53.6086 154.23 63.0492C156.736 67.7639 158.834 72.6887 160.33 77.7794C161.832 82.87 162.726 88.1209 162.886 93.3994C163.057 98.678 162.494 103.962 161.219 109.086C159.949 114.21 157.978 119.157 155.433 123.799C150.338 133.102 143.001 141.144 134.527 147.628" stroke="#56C7C7" stroke-width="0.8" stroke-miterlimit="10"/>
<path d="M125.231 28.2659C125.231 28.2659 125.209 29.3437 125.479 30.6868C125.755 32.0355 126.324 33.6439 127.555 34.7604C129.393 36.4905 132.247 36.6784 133.534 36.6729C132.75 35.9488 131.933 35.1805 131.105 34.2795C130.685 33.8318 130.282 33.3344 129.846 32.8259C129.41 32.3174 128.968 31.7646 128.527 31.1566C129.084 31.6817 129.603 32.1737 130.094 32.6435C130.58 33.1188 131.044 33.5665 131.491 33.9921C132.391 34.8433 133.258 35.584 134.18 36.2583C134.196 35.175 134.047 31.947 131.994 30.007C130.713 28.8462 129.012 28.4041 127.643 28.2603C126.274 28.1166 125.231 28.2714 125.231 28.2714V28.2659Z" fill="#56C7C7"/>
<path d="M137.647 133.295C137.647 133.295 138.475 133.892 139.32 134.865C140.148 135.832 141.042 137.23 140.982 138.778C140.943 139.966 140.402 141.116 139.734 142.061C139.038 142.973 138.238 143.692 137.73 144.106C138.001 142.094 138.21 139.928 137.614 137.225C137.68 140.033 137.476 142.111 136.935 144.244C136.179 143.509 134.214 141.221 134.357 138.728C134.401 137.965 134.639 137.258 134.964 136.622C135.268 135.965 135.671 135.379 136.068 134.892C136.466 134.4 136.88 134.019 137.161 133.737C137.449 133.455 137.636 133.295 137.636 133.295H137.647Z" fill="#56C7C7"/>
<path d="M130.216 42.1011C130.216 42.1011 130.675 41.482 131.42 40.8796C132.165 40.2771 133.203 39.6801 134.384 39.752C136.19 39.857 137.807 41.4654 138.459 42.2116C136.935 42.0458 135.262 41.9187 133.231 42.2945C135.345 42.3388 136.985 42.4217 138.574 42.8141C138.033 43.4055 136.416 44.92 134.484 44.815C133.302 44.7486 132.237 44.0743 131.464 43.4166C130.691 42.7588 130.211 42.1066 130.211 42.1066L130.216 42.1011Z" fill="#56C7C7"/>
<path d="M136.785 49.3692C136.785 49.3692 137.282 48.7888 138.077 48.2416C138.866 47.6944 139.954 47.1694 141.146 47.3075C142.957 47.5286 144.387 49.2918 144.972 50.0822C143.476 49.7893 141.836 49.5295 139.805 49.7451C141.886 49.9496 143.487 50.1762 145.049 50.6847C144.47 51.2208 142.703 52.6192 140.81 52.3539C139.65 52.1936 138.662 51.4419 137.967 50.7289C137.243 50.0325 136.785 49.3747 136.785 49.3747V49.3692Z" fill="#56C7C7"/>
<path d="M142.691 57.0362C142.691 57.0362 143.238 56.5056 144.077 56.0247C144.911 55.5438 146.037 55.1237 147.202 55.3614C147.649 55.4554 148.068 55.6378 148.46 55.8699C148.841 56.1076 149.167 56.4116 149.471 56.7211C150.067 57.3457 150.503 58.0256 150.751 58.4512C149.294 58.02 147.71 57.6 145.661 57.6442C147.715 58.02 149.261 58.4014 150.762 59.0536C150.133 59.529 148.24 60.745 146.396 60.3139C145.253 60.0596 144.403 59.2084 143.735 58.4677C143.072 57.7216 142.697 57.0307 142.697 57.0307L142.691 57.0362Z" fill="#56C7C7"/>
<path d="M147.841 65.6026C147.841 65.6026 148.471 65.1162 149.393 64.7183C150.315 64.3148 151.524 63.9997 152.705 64.3811C154.51 64.9615 155.559 67.0673 155.984 67.9904C154.527 67.3658 152.915 66.7523 150.811 66.5588C152.871 67.1834 154.444 67.7527 155.923 68.6095C155.211 69.0185 153.091 70.0244 151.231 69.3667C150.094 68.9687 149.271 68.0291 148.736 67.1779C148.145 66.3488 147.836 65.6026 147.836 65.6026H147.841Z" fill="#56C7C7"/>
<path d="M152.027 74.6613C152.027 74.6613 152.723 74.2633 153.706 73.9814C154.688 73.6995 155.963 73.5392 157.051 74.0864C158.724 74.9266 159.629 77.143 159.811 78.1545C158.514 77.2978 156.93 76.4742 154.826 76.0044C155.831 76.4466 156.714 76.8666 157.52 77.3088C158.31 77.751 158.978 78.2263 159.64 78.7735C158.862 79.0831 156.576 79.7574 154.865 78.8399C153.827 78.2761 153.065 77.2591 152.646 76.3471C152.43 75.8938 152.281 75.4738 152.187 75.1642C152.088 74.8547 152.027 74.6668 152.027 74.6668V74.6613Z" fill="#56C7C7"/>
<path d="M154.986 83.7213C154.986 83.7213 155.698 83.4505 156.654 83.3289C157.609 83.2073 158.801 83.2404 159.773 83.8982C161.318 84.8986 161.639 87.1095 161.754 88.0658C160.595 87.0874 159.348 86.0815 157.443 85.3463C159.182 86.4518 160.407 87.4135 161.517 88.6074C160.75 88.7788 158.514 89.0607 157.018 87.9663C156.56 87.6291 156.212 87.2035 155.952 86.7447C155.82 86.5126 155.715 86.2804 155.621 86.0428C155.511 85.8106 155.422 85.5785 155.345 85.3519C155.042 84.462 154.986 83.7213 154.986 83.7213Z" fill="#56C7C7"/>
<path d="M155.506 92.946C155.506 92.946 156.339 92.7857 157.421 92.8244C158.509 92.8686 159.823 93.1229 160.739 94.0293C161.446 94.7258 161.821 95.7041 162.02 96.6382C162.169 97.5723 162.119 98.4622 162.07 98.9983C161.551 98.3406 160.988 97.6718 160.331 97.0251C159.668 96.3784 158.829 95.7428 157.857 95.1624C159.613 96.7045 160.739 98.0034 161.689 99.5511C160.805 99.5732 158.288 99.4018 156.88 97.915C156.444 97.4618 156.179 96.9256 155.969 96.3784C155.743 95.8312 155.622 95.273 155.555 94.7645C155.489 94.2559 155.484 93.8027 155.495 93.4766C155.506 93.1505 155.511 92.946 155.511 92.946H155.506Z" fill="#56C7C7"/>
<path d="M154.407 102.568C154.407 102.568 155.334 102.568 156.482 102.845C157.625 103.116 159.016 103.668 159.789 104.829C160.391 105.719 160.595 106.846 160.595 107.886C160.54 108.914 160.308 109.853 160.143 110.417C159.309 108.775 158.354 107.073 156.471 105.409C157.228 106.41 157.879 107.333 158.365 108.217C158.867 109.107 159.287 109.986 159.624 110.915C158.68 110.749 156.03 110.003 154.837 108.112C154.473 107.532 154.285 106.907 154.197 106.288C154.07 105.664 154.059 105.045 154.092 104.497C154.131 103.95 154.219 103.469 154.296 103.127C154.357 102.778 154.407 102.568 154.407 102.568Z" fill="#56C7C7"/>
<path d="M150.851 114.801C150.851 114.801 151.762 115.038 152.817 115.591C153.866 116.144 155.097 117.039 155.566 118.382C155.93 119.411 155.853 120.571 155.588 121.599C155.284 122.605 154.821 123.479 154.523 123.993C154.103 122.169 153.584 120.245 152.16 118.134C152.403 118.72 152.623 119.283 152.828 119.825C153.032 120.367 153.17 120.875 153.314 121.384C153.59 122.39 153.783 123.357 153.888 124.363C152.999 123.971 150.564 122.6 149.869 120.428C149.653 119.764 149.626 119.09 149.698 118.449C149.736 117.797 149.88 117.178 150.056 116.641C150.233 116.105 150.443 115.652 150.608 115.326C150.752 114.994 150.857 114.801 150.857 114.801H150.851Z" fill="#56C7C7"/>
<path d="M145.385 124.324C145.385 124.324 146.268 124.744 147.229 125.517C148.19 126.291 149.216 127.419 149.459 128.906C149.553 129.475 149.526 130.055 149.415 130.614C149.288 131.161 149.078 131.691 148.835 132.183C148.344 133.162 147.748 134.002 147.306 134.444C147.301 133.499 147.201 132.465 147.019 131.398C146.832 130.326 146.544 129.204 146.059 128.01C146.296 129.293 146.467 130.448 146.567 131.548C146.616 132.095 146.649 132.631 146.655 133.151C146.649 133.665 146.616 134.173 146.567 134.687C145.727 134.112 143.519 132.277 143.254 129.928C143.044 128.463 143.635 127.109 144.198 126.059C144.75 125.009 145.385 124.312 145.385 124.312V124.324Z" fill="#56C7C7"/>
<path d="M154.307 147.566C154.307 147.566 153.766 146.251 152.651 144.913C151.541 143.575 149.846 142.221 147.704 141.984C146.887 141.89 146.065 141.967 145.264 142.144C144.447 142.299 143.658 142.558 142.929 142.868C141.488 143.498 140.213 144.233 139.457 144.725C140.776 144.974 142.2 145.261 143.696 145.621C145.192 145.98 146.804 146.45 148.56 147.152C146.628 146.826 144.939 146.544 143.376 146.284C141.803 146.013 140.357 145.82 138.91 145.726C139.192 146.389 139.777 147.649 140.71 148.843C141.648 150.037 142.935 151.159 144.69 151.485C145.767 151.684 146.92 151.562 148.047 151.264C149.156 150.943 150.222 150.418 151.16 149.888C151.629 149.617 152.066 149.346 152.446 149.081C152.822 148.804 153.153 148.545 153.429 148.323C153.976 147.876 154.296 147.572 154.296 147.572L154.307 147.566Z" fill="#56C7C7"/>
<path d="M163.36 134.915C163.36 134.915 162.62 133.759 161.339 132.693C160.058 131.62 158.253 130.653 156.216 130.802C154.626 130.896 153.13 131.604 151.888 132.427C150.591 133.218 149.547 134.135 148.935 134.732C150.204 134.749 151.557 134.76 153.036 134.865C154.521 134.97 156.128 135.158 157.872 135.501C156.017 135.556 154.345 135.506 152.843 135.534C151.325 135.545 149.978 135.628 148.57 135.738C148.94 136.313 149.685 137.396 150.756 138.369C151.827 139.336 153.224 140.193 154.952 140.232C156.012 140.254 157.05 139.922 158.055 139.447C159.048 138.961 160.014 138.331 160.782 137.634C161.56 136.954 162.211 136.274 162.664 135.771C162.891 135.517 163.073 135.307 163.189 135.158C163.299 135.003 163.365 134.92 163.365 134.92L163.36 134.915Z" fill="#56C7C7"/>
<path d="M170.156 121.092C170.156 121.092 169.24 120.13 167.816 119.362C166.391 118.588 164.459 118.013 162.527 118.549C161.787 118.754 161.103 119.102 160.479 119.527C159.827 119.942 159.226 120.428 158.696 120.937C158.16 121.44 157.708 121.97 157.31 122.451C156.89 122.921 156.554 123.352 156.305 123.684C158.812 123.292 161.5 122.733 165.033 122.744C163.245 123.12 161.682 123.446 160.241 123.75C158.778 124.038 157.448 124.336 156.156 124.718C156.62 125.204 157.536 126.11 158.74 126.846C159.943 127.581 161.428 128.144 163.079 127.846C164.084 127.658 165.072 127.172 165.95 126.519C166.8 125.851 167.567 125.027 168.213 124.226C168.87 123.435 169.339 122.639 169.665 122.053C169.991 121.468 170.167 121.086 170.167 121.086L170.156 121.092Z" fill="#56C7C7"/>
<path d="M173.684 106.002C173.684 106.002 172.591 105.278 171.062 104.852C169.527 104.415 167.6 104.288 165.872 105.206C164.525 105.902 163.493 107.085 162.737 108.268C161.898 109.44 161.335 110.623 161.025 111.358C162.141 110.905 163.327 110.413 164.663 109.948C165.331 109.716 166.038 109.484 166.783 109.268C167.517 109.047 168.29 108.843 169.118 108.655C167.534 109.423 166.049 110.015 164.741 110.601C164.084 110.893 163.46 111.175 162.858 111.468C162.256 111.772 161.671 112.065 161.086 112.364C161.622 112.728 162.676 113.397 163.968 113.856C165.265 114.309 166.805 114.547 168.346 113.933C169.256 113.547 170.062 112.861 170.764 112.054C171.459 111.242 172.072 110.308 172.464 109.401C172.883 108.5 173.193 107.643 173.391 107.019C173.491 106.709 173.568 106.45 173.618 106.273C173.673 106.096 173.684 105.996 173.684 105.996V106.002Z" fill="#56C7C7"/>
<path d="M174.618 92.094C174.618 92.094 173.436 91.6186 171.896 91.5081C170.35 91.392 168.468 91.6407 167.016 92.8567C165.862 93.7908 165.1 95.1284 164.609 96.4218C164.079 97.7152 163.726 98.9644 163.582 99.7327C165.531 98.4172 167.794 96.8972 170.786 95.5264C170.091 96.0404 169.439 96.5213 168.821 96.9801C168.181 97.4278 167.579 97.8534 166.999 98.2624C165.851 99.086 164.83 99.8598 163.875 100.689C164.454 100.932 165.586 101.363 166.916 101.546C167.579 101.634 168.291 101.656 169.009 101.546C169.732 101.435 170.444 101.192 171.084 100.739C171.879 100.186 172.52 99.3679 173.033 98.4559C173.287 97.9971 173.513 97.5162 173.707 97.0298C173.872 96.5434 174.01 96.0515 174.126 95.5817C174.353 94.6365 174.485 93.7632 174.557 93.122C174.59 92.8015 174.618 92.5472 174.629 92.3648C174.629 92.1879 174.629 92.0884 174.629 92.0884L174.618 92.094Z" fill="#56C7C7"/>
<path d="M172.448 78.7404C172.448 78.7404 171.261 78.4972 169.765 78.6686C168.264 78.8344 166.514 79.4037 165.294 80.8353C164.366 81.9297 163.897 83.3446 163.671 84.6712C163.362 86.0143 163.301 87.269 163.301 88.0373C164.112 87.2248 164.968 86.3459 165.967 85.445C166.464 84.9918 167 84.533 167.579 84.0687C168.148 83.6044 168.744 83.1456 169.406 82.6814C168.297 83.925 167.209 84.9918 166.276 85.9922C165.338 86.9926 164.515 87.9212 163.753 88.8995C164.355 89.0211 165.52 89.2146 166.823 89.1317C168.109 89.0488 169.589 88.6729 170.654 87.5675C171.306 86.8931 171.764 86.0033 172.078 85.036C172.388 84.0742 172.592 83.0406 172.603 82.1121C172.68 80.2494 172.443 78.7349 172.443 78.7349L172.448 78.7404Z" fill="#56C7C7"/>
<path d="M168.533 67.3317C168.533 67.3317 167.335 67.2875 165.927 67.6633C164.514 68.0392 162.885 68.8351 161.958 70.3662C161.279 71.5269 160.964 72.9861 160.926 74.3071C160.904 74.9704 160.931 75.6005 160.986 76.1588C161.036 76.717 161.069 77.22 161.124 77.5903C161.461 77.1316 161.809 76.6562 162.173 76.1643C162.532 75.6779 162.891 75.186 163.288 74.6774C164.089 73.666 165.016 72.6047 166.165 71.5158C165.232 72.8866 164.409 74.0529 163.686 75.1417C162.963 76.2361 162.256 77.2808 161.671 78.3476C162.863 78.3641 166.33 78.3973 168.097 75.9653C168.621 75.2191 168.991 74.274 169.112 73.3288C169.245 72.3781 169.234 71.3887 169.157 70.4933C169.074 69.6034 168.958 68.7854 168.798 68.2271C168.649 67.6633 168.527 67.3262 168.527 67.3262L168.533 67.3317Z" fill="#56C7C7"/>
<path d="M163.19 56.7754C163.19 56.7754 162.037 56.8859 160.728 57.4221C159.414 57.9582 157.935 58.9255 157.217 60.5174C156.185 62.9328 156.925 66.1883 157.388 67.5702C158.376 65.6301 159.486 63.4523 161.446 61.059C159.955 63.9332 158.868 66.0004 158.034 68.2279C159.177 68.0787 162.5 67.6144 163.891 65.0276C164.692 63.4634 164.548 61.3741 164.201 59.6827C164.035 58.826 163.748 58.1296 163.555 57.6045C163.35 57.0849 163.201 56.7754 163.201 56.7754H163.19Z" fill="#56C7C7"/>
<path d="M156.769 47.0853C156.769 47.0853 155.671 47.3174 154.462 47.9696C153.247 48.6219 151.917 49.7052 151.387 51.3192C151.182 51.9382 151.111 52.5849 151.127 53.2316C151.133 53.5522 151.166 53.8728 151.21 54.1933C151.243 54.5195 151.293 54.8345 151.354 55.144C151.597 56.3821 152.027 57.4655 152.32 58.1177C153.054 56.1224 153.893 53.8893 155.527 51.3689C154.401 54.2873 153.54 56.4319 153.032 58.6649C154.136 58.383 157.294 57.4987 158.287 54.8953C158.889 53.2924 158.541 51.3136 158.033 49.7328C157.476 48.1963 156.775 47.0742 156.775 47.0742L156.769 47.0853Z" fill="#56C7C7"/>
<path d="M149.533 38.209C149.533 38.209 148.495 38.5351 147.38 39.2757C146.259 40.0164 145.066 41.1716 144.697 42.7745C144.178 45.1955 145.519 48.0696 146.226 49.258C146.739 47.2516 147.335 45.0186 148.688 42.4484C147.865 45.3558 147.242 47.5059 146.971 49.7223C148.009 49.3409 150.962 48.1636 151.675 45.5603C152.105 43.9573 151.592 42.1002 150.962 40.6465C150.659 39.9059 150.278 39.3255 150.007 38.8888C149.731 38.4632 149.538 38.209 149.538 38.209H149.533Z" fill="#56C7C7"/>
<path d="M141.699 30.041C141.699 30.041 140.716 30.439 139.689 31.2404C138.663 32.0419 137.586 33.2413 137.354 34.8111C136.962 37.2486 138.552 39.874 139.325 40.974C139.645 38.9952 140.037 36.8009 141.147 34.2252C140.573 37.0828 140.164 39.1887 140.076 41.3664C141.036 40.9242 143.774 39.5424 144.282 36.9446C144.569 35.3693 143.924 33.6393 143.211 32.3017C142.853 31.6329 142.477 31.0636 142.19 30.6601C142.047 30.4556 141.925 30.3008 141.837 30.2013C141.748 30.0963 141.699 30.041 141.699 30.041Z" fill="#56C7C7"/>
<path d="M40.0681 37.375C32.5768 45.1298 25.7865 53.6086 20.7408 63.0492C18.2345 67.7639 16.1367 72.6887 14.6406 77.7794C13.1391 82.87 12.2447 88.1209 12.0846 93.3994C11.9135 98.678 12.4766 103.962 13.7518 109.086C15.0215 114.21 16.9924 119.157 19.5373 123.799C24.6327 133.102 31.9695 141.144 40.4435 147.628" stroke="#56C7C7" stroke-width="0.8" stroke-miterlimit="10"/>
<path d="M49.7389 28.2659C49.7389 28.2659 49.761 29.3437 49.4905 30.6868C49.2144 32.0355 48.6458 33.6439 47.4148 34.7604C45.5764 36.4905 42.7223 36.6784 41.436 36.6729C42.22 35.9488 43.037 35.1805 43.8651 34.2795C44.2846 33.8318 44.6876 33.3344 45.1237 32.8259C45.5599 32.3174 46.0015 31.7646 46.4431 31.1566C45.8856 31.6817 45.3666 32.1737 44.8753 32.6435C44.3895 33.1188 43.9258 33.5665 43.4786 33.9921C42.5788 34.8433 41.7121 35.584 40.7901 36.2583C40.7736 35.175 40.9226 31.947 42.9763 30.007C44.257 28.8462 45.9573 28.4041 47.3264 28.2603C48.6955 28.1166 49.7389 28.2714 49.7389 28.2714V28.2659Z" fill="#56C7C7"/>
<path d="M37.3236 133.295C37.3236 133.295 36.4956 133.892 35.6509 134.865C34.8229 135.832 33.9285 137.23 33.9893 138.778C34.0279 139.966 34.5689 141.116 35.2369 142.061C35.9325 142.973 36.7329 143.692 37.2408 144.106C36.9703 142.094 36.7606 139.928 37.3568 137.225C37.2905 140.033 37.4948 142.111 38.0358 144.244C38.7921 143.509 40.7574 141.221 40.6139 138.728C40.5697 137.965 40.3323 137.258 40.0066 136.622C39.703 135.965 39.3 135.379 38.9025 134.892C38.505 134.4 38.091 134.019 37.8094 133.737C37.5224 133.455 37.3347 133.295 37.3347 133.295H37.3236Z" fill="#56C7C7"/>
<path d="M44.7545 42.1011C44.7545 42.1011 44.2963 41.482 43.5511 40.8796C42.8058 40.2771 41.7679 39.6801 40.5865 39.752C38.7813 39.857 37.1638 41.4654 36.5124 42.2116C38.0361 42.0458 39.7088 41.9187 41.7403 42.2945C39.626 42.3388 37.9864 42.4217 36.3965 42.8141C36.9375 43.4055 38.555 44.92 40.4872 44.815C41.6686 44.7486 42.734 44.0743 43.5069 43.4166C44.2798 42.7588 44.76 42.1066 44.76 42.1066L44.7545 42.1011Z" fill="#56C7C7"/>
<path d="M38.1841 49.3692C38.1841 49.3692 37.6873 48.7888 36.8923 48.2416C36.1029 47.6944 35.0153 47.1694 33.8229 47.3075C32.0122 47.5286 30.5824 49.2918 29.9972 50.0822C31.4933 49.7893 33.1329 49.5295 35.1644 49.7451C33.0832 49.9496 31.4822 50.1762 29.9199 50.6847C30.4996 51.2208 32.2661 52.6192 34.1597 52.3539C35.319 52.1936 36.3071 51.4419 37.0027 50.7289C37.7259 50.0325 38.1841 49.3747 38.1841 49.3747V49.3692Z" fill="#56C7C7"/>
<path d="M32.278 57.0362C32.278 57.0362 31.7315 56.5056 30.8924 56.0247C30.0588 55.5438 28.9326 55.1237 27.7678 55.3614C27.3206 55.4554 26.901 55.6378 26.5091 55.8699C26.1282 56.1076 25.8025 56.4116 25.4988 56.7211C24.9026 57.3457 24.4665 58.0256 24.2181 58.4512C25.6755 58.02 27.2599 57.6 29.308 57.6442C27.2543 58.02 25.7086 58.4014 24.207 59.0536C24.8364 59.529 26.7299 60.745 28.5738 60.3139C29.7165 60.0596 30.5667 59.2084 31.2346 58.4677C31.8971 57.7216 32.2725 57.0307 32.2725 57.0307L32.278 57.0362Z" fill="#56C7C7"/>
<path d="M27.1271 65.6026C27.1271 65.6026 26.4978 65.1162 25.5759 64.7183C24.6539 64.3148 23.4449 63.9997 22.2636 64.3811C20.4584 64.9615 19.4095 67.0673 18.9844 67.9904C20.4418 67.3658 22.0538 66.7523 24.1571 66.5588C22.0979 67.1834 20.5246 67.7527 19.0451 68.6095C19.7572 69.0185 21.8771 70.0244 23.7375 69.3667C24.8748 68.9687 25.6973 68.0291 26.2328 67.1779C26.8235 66.3488 27.1326 65.6026 27.1326 65.6026H27.1271Z" fill="#56C7C7"/>
<path d="M22.9441 74.6613C22.9441 74.6613 22.2485 74.2633 21.2658 73.9814C20.2832 73.6995 19.0079 73.5392 17.9204 74.0864C16.2477 74.9266 15.3423 77.143 15.1602 78.1545C16.4575 77.2978 18.0419 76.4742 20.1452 76.0044C19.1404 76.4466 18.2572 76.8666 17.4512 77.3088C16.6617 77.751 15.9938 78.2263 15.3313 78.7735C16.1097 79.0831 18.3952 79.7574 20.1065 78.8399C21.1444 78.2761 21.9062 77.2591 22.3258 76.3471C22.5411 75.8938 22.6901 75.4738 22.784 75.1642C22.8833 74.8547 22.9441 74.6668 22.9441 74.6668V74.6613Z" fill="#56C7C7"/>
<path d="M19.983 83.7213C19.983 83.7213 19.2708 83.4505 18.3158 83.3289C17.3607 83.2073 16.1683 83.2404 15.1967 83.8982C13.651 84.8986 13.3308 87.1095 13.2148 88.0658C14.3741 87.0874 15.6218 86.0815 17.5264 85.3463C15.7874 86.4518 14.5618 87.4135 13.4522 88.6074C14.2196 88.7788 16.4554 89.0607 17.9514 87.9663C18.4096 87.6291 18.7574 87.2035 19.0169 86.7447C19.1494 86.5126 19.2543 86.2804 19.3481 86.0428C19.4585 85.8106 19.5469 85.5785 19.6242 85.3519C19.9278 84.462 19.983 83.7213 19.983 83.7213Z" fill="#56C7C7"/>
<path d="M19.4651 92.946C19.4651 92.946 18.6315 92.7857 17.5495 92.8244C16.462 92.8686 15.1481 93.1229 14.2317 94.0293C13.5251 94.7258 13.1497 95.7041 12.9509 96.6382C12.8019 97.5723 12.8516 98.4622 12.9012 98.9983C13.4202 98.3406 13.9833 97.6718 14.6402 97.0251C15.3027 96.3784 16.1418 95.7428 17.1134 95.1624C15.3579 96.7045 14.2317 98.0034 13.2822 99.5511C14.1654 99.5732 16.6828 99.4018 18.0905 97.915C18.5266 97.4618 18.7916 96.9256 19.0014 96.3784C19.2277 95.8312 19.3492 95.273 19.4154 94.7645C19.4817 94.2559 19.4872 93.8027 19.4762 93.4766C19.4651 93.1505 19.4596 92.946 19.4596 92.946H19.4651Z" fill="#56C7C7"/>
<path d="M20.5635 102.568C20.5635 102.568 19.636 102.568 18.4878 102.845C17.345 103.116 15.9539 103.668 15.181 104.829C14.5793 105.719 14.375 106.846 14.375 107.886C14.4302 108.914 14.6621 109.853 14.8277 110.417C15.6613 108.775 16.6163 107.073 18.4988 105.409C17.7425 106.41 17.0911 107.333 16.6053 108.217C16.1029 109.107 15.6834 109.986 15.3466 110.915C16.2906 110.749 18.9405 110.003 20.1329 108.112C20.4972 107.532 20.6849 106.907 20.7733 106.288C20.9002 105.664 20.9113 105.045 20.8782 104.497C20.8395 103.95 20.7512 103.469 20.6739 103.127C20.6132 102.778 20.5635 102.568 20.5635 102.568Z" fill="#56C7C7"/>
<path d="M24.1183 114.801C24.1183 114.801 23.2074 115.038 22.153 115.591C21.1041 116.144 19.873 117.039 19.4037 118.382C19.0394 119.411 19.1167 120.571 19.3817 121.599C19.6853 122.605 20.149 123.479 20.4471 123.993C20.8667 122.169 21.3856 120.245 22.8099 118.134C22.567 118.72 22.3462 119.283 22.1419 119.825C21.9377 120.367 21.7996 120.875 21.6561 121.384C21.3801 122.39 21.1869 123.357 21.082 124.363C21.9708 123.971 24.4053 122.6 25.1009 120.428C25.3162 119.764 25.3438 119.09 25.272 118.449C25.2334 117.797 25.0899 117.178 24.9132 116.641C24.7365 116.105 24.5268 115.652 24.3612 115.326C24.2176 114.994 24.1127 114.801 24.1127 114.801H24.1183Z" fill="#56C7C7"/>
<path d="M29.5841 124.324C29.5841 124.324 28.7008 124.744 27.7403 125.517C26.7797 126.291 25.7529 127.419 25.51 128.906C25.4161 129.475 25.4437 130.055 25.5541 130.614C25.6811 131.161 25.8909 131.691 26.1338 132.183C26.6251 133.162 27.2213 134.002 27.663 134.444C27.6685 133.499 27.7679 132.465 27.95 131.398C28.1377 130.326 28.4248 129.204 28.9106 128.01C28.6732 129.293 28.5021 130.448 28.4027 131.548C28.353 132.095 28.3199 132.631 28.3144 133.151C28.3199 133.665 28.353 134.173 28.4027 134.687C29.2418 134.112 31.45 132.277 31.715 129.928C31.9248 128.463 31.3341 127.109 30.771 126.059C30.219 125.009 29.5841 124.312 29.5841 124.312V124.324Z" fill="#56C7C7"/>
<path d="M20.6641 147.566C20.6641 147.566 21.2051 146.251 22.3202 144.913C23.4298 143.575 25.1246 142.221 27.2666 141.984C28.0836 141.89 28.9062 141.967 29.7066 142.144C30.5237 142.299 31.3131 142.558 32.0418 142.868C33.4827 143.498 34.7579 144.233 35.5142 144.725C34.1948 144.974 32.7705 145.261 31.2745 145.621C29.7784 145.98 28.1664 146.45 26.4109 147.152C28.3431 146.826 30.0324 146.544 31.5947 146.284C33.168 146.013 34.6144 145.82 36.0608 145.726C35.7792 146.389 35.194 147.649 34.2611 148.843C33.3226 150.037 32.0363 151.159 30.2808 151.485C29.2043 151.684 28.0505 151.562 26.9243 151.264C25.8147 150.943 24.7492 150.418 23.8107 149.888C23.3415 149.617 22.9054 149.346 22.5245 149.081C22.1491 148.804 21.8178 148.545 21.5418 148.323C20.9953 147.876 20.6751 147.572 20.6751 147.572L20.6641 147.566Z" fill="#56C7C7"/>
<path d="M11.609 134.915C11.609 134.915 12.3488 133.759 13.6295 132.693C14.9103 131.62 16.7155 130.653 18.7526 130.802C20.3425 130.896 21.8385 131.604 23.0806 132.427C24.378 133.218 25.4213 134.135 26.0341 134.732C24.7644 134.749 23.4119 134.76 21.9324 134.865C20.4474 134.97 18.8409 135.158 17.0964 135.501C18.9513 135.556 20.624 135.506 22.1256 135.534C23.6437 135.545 24.9907 135.628 26.3985 135.738C26.0286 136.313 25.2833 137.396 24.2123 138.369C23.1414 139.336 21.7447 140.193 20.0168 140.232C18.9568 140.254 17.919 139.922 16.9142 139.447C15.9205 138.961 14.9545 138.331 14.1871 137.634C13.4087 136.954 12.7573 136.274 12.3046 135.771C12.0783 135.517 11.8961 135.307 11.7802 135.158C11.6698 135.003 11.6035 134.92 11.6035 134.92L11.609 134.915Z" fill="#56C7C7"/>
<path d="M4.81377 121.092C4.81377 121.092 5.73018 120.13 7.15447 119.362C8.57876 118.588 10.5109 118.013 12.4431 118.549C13.1829 118.754 13.8674 119.102 14.4912 119.527C15.1426 119.942 15.7444 120.428 16.2743 120.937C16.8098 121.44 17.2625 121.97 17.66 122.451C18.0795 122.921 18.4163 123.352 18.6647 123.684C16.1584 123.292 13.4699 122.733 9.9368 122.744C11.7254 123.12 13.2878 123.446 14.7286 123.75C16.1915 124.038 17.522 124.336 18.8138 124.718C18.3501 125.204 17.4337 126.11 16.2302 126.846C15.0267 127.581 13.5417 128.144 11.8911 127.846C10.8863 127.658 9.89816 127.172 9.0204 126.519C8.17024 125.851 7.40289 125.027 6.75699 124.226C6.10005 123.435 5.63081 122.639 5.3051 122.053C4.97939 121.468 4.80273 121.086 4.80273 121.086L4.81377 121.092Z" fill="#56C7C7"/>
<path d="M1.28516 106.002C1.28516 106.002 2.37822 105.278 3.9074 104.852C5.4421 104.415 7.36875 104.288 9.09667 105.206C10.4437 105.902 11.476 107.085 12.2323 108.268C13.0714 109.44 13.6345 110.623 13.9437 111.358C12.8285 110.905 11.6416 110.413 10.3057 109.948C9.63768 109.716 8.93106 109.484 8.18579 109.268C7.45156 109.047 6.67869 108.843 5.85061 108.655C7.435 109.423 8.92001 110.015 10.2284 110.601C10.8853 110.893 11.5091 111.175 12.1109 111.468C12.7126 111.772 13.2978 112.065 13.8829 112.364C13.3475 112.728 12.293 113.397 11.0012 113.856C9.70393 114.309 8.16371 114.547 6.62348 113.933C5.7126 113.547 4.90661 112.861 4.2055 112.054C3.50992 111.242 2.89714 110.308 2.50519 109.401C2.08563 108.5 1.77648 107.643 1.57774 107.019C1.47837 106.709 1.40109 106.45 1.3514 106.273C1.2962 106.096 1.28516 105.996 1.28516 105.996V106.002Z" fill="#56C7C7"/>
<path d="M0.352837 92.094C0.352837 92.094 1.53423 91.6186 3.07445 91.5081C4.62019 91.392 6.50268 91.6407 7.95457 92.8567C9.10836 93.7908 9.87019 95.1284 10.3615 96.4218C10.8915 97.7152 11.2448 98.9644 11.3883 99.7327C9.43959 98.4172 7.17618 96.8972 4.18407 95.5264C4.87965 96.0404 5.53107 96.5213 6.14937 96.9801C6.78975 97.4278 7.39148 97.8534 7.97113 98.2624C9.1194 99.086 10.1407 99.8598 11.0957 100.689C10.5161 100.932 9.38438 101.363 8.05394 101.546C7.39148 101.634 6.67934 101.656 5.96167 101.546C5.23848 101.435 4.52634 101.192 3.88596 100.739C3.09101 100.186 2.45063 99.3679 1.93722 98.4559C1.68328 97.9971 1.45694 97.5162 1.26372 97.0298C1.09811 96.5434 0.960093 96.0515 0.844163 95.5817C0.617822 94.6365 0.48533 93.7632 0.413563 93.122C0.38044 92.8015 0.352838 92.5472 0.341797 92.3648C0.341797 92.1879 0.341797 92.0884 0.341797 92.0884L0.352837 92.094Z" fill="#56C7C7"/>
<path d="M2.52161 78.7404C2.52161 78.7404 3.70852 78.4972 5.20457 78.6686C6.70615 78.8344 8.45615 79.4037 9.67618 80.8353C10.6036 81.9297 11.0729 83.3446 11.2992 84.6712C11.6084 86.0143 11.6691 87.269 11.6691 88.0373C10.8576 87.2248 10.0019 86.3459 9.00268 85.445C8.50584 84.9918 7.97035 84.533 7.39069 84.0687C6.82208 83.6044 6.22587 83.1456 5.56341 82.6814C6.67303 83.925 7.76057 84.9918 8.69353 85.9922C9.63202 86.9926 10.4546 87.9212 11.2164 88.8995C10.6147 89.0211 9.44984 89.2146 8.147 89.1317C6.86072 89.0488 5.38123 88.6729 4.31577 87.5675C3.66435 86.8931 3.20615 86.0033 2.89148 85.036C2.58233 84.0742 2.37808 83.0406 2.36704 82.1121C2.28975 80.2494 2.52713 78.7349 2.52713 78.7349L2.52161 78.7404Z" fill="#56C7C7"/>
<path d="M6.43676 67.3317C6.43676 67.3317 7.63471 67.2875 9.04244 67.6633C10.4557 68.0392 12.0842 68.8351 13.0117 70.3662C13.6907 71.5269 14.0054 72.9861 14.044 74.3071C14.0661 74.9704 14.0385 75.6005 13.9833 76.1588C13.9336 76.717 13.9005 77.22 13.8453 77.5903C13.5085 77.1316 13.1607 76.6562 12.7964 76.1643C12.4375 75.6779 12.0787 75.186 11.6812 74.6774C10.8808 73.666 9.95332 72.6047 8.80505 71.5158C9.73802 72.8866 10.5606 74.0529 11.2838 75.1417C12.0069 76.2361 12.7136 77.2808 13.2987 78.3476C12.1063 78.3641 8.63944 78.3973 6.87288 75.9653C6.34843 75.2191 5.97856 74.274 5.8571 73.3288C5.72461 72.3781 5.73565 71.3887 5.81294 70.4933C5.89575 69.6034 6.01168 68.7854 6.17177 68.2271C6.32083 67.6633 6.44228 67.3262 6.44228 67.3262L6.43676 67.3317Z" fill="#56C7C7"/>
<path d="M11.7807 56.7754C11.7807 56.7754 12.9345 56.8859 14.2429 57.4221C15.5568 57.9582 17.0363 58.9255 17.7539 60.5174C18.7863 62.9328 18.0465 66.1883 17.5828 67.5702C16.5946 65.6301 15.485 63.4523 13.5252 61.059C15.0158 63.9332 16.1033 66.0004 16.9369 68.2279C15.7941 68.0787 12.4708 67.6144 11.0796 65.0276C10.2792 63.4634 10.4227 61.3741 10.7705 59.6827C10.9361 58.826 11.2232 58.1296 11.4164 57.6045C11.6206 57.0849 11.7697 56.7754 11.7697 56.7754H11.7807Z" fill="#56C7C7"/>
<path d="M18.1994 47.0853C18.1994 47.0853 19.298 47.3174 20.507 47.9696C21.7215 48.6219 23.0519 49.7052 23.5819 51.3192C23.7862 51.9382 23.8579 52.5849 23.8414 53.2316C23.8359 53.5522 23.8027 53.8728 23.7586 54.1933C23.7254 54.5195 23.6758 54.8345 23.615 55.144C23.3721 56.3821 22.9415 57.4655 22.6489 58.1177C21.9147 56.1224 21.0756 53.8893 19.4415 51.3689C20.5677 54.2873 21.4289 56.4319 21.9368 58.6649C20.8327 58.383 17.675 57.4987 16.6813 54.8953C16.0795 53.2924 16.4273 51.3136 16.9352 49.7328C17.4928 48.1963 18.1939 47.0742 18.1939 47.0742L18.1994 47.0853Z" fill="#56C7C7"/>
<path d="M25.4377 38.209C25.4377 38.209 26.4755 38.5351 27.5907 39.2757C28.7113 40.0164 29.9038 41.1716 30.2736 42.7745C30.7926 45.1955 29.4511 48.0696 28.7445 49.258C28.231 47.2516 27.6348 45.0186 26.2823 42.4484C27.1049 45.3558 27.7287 47.5059 27.9992 49.7223C26.9613 49.3409 24.0079 48.1636 23.2957 45.5603C22.8651 43.9573 23.3785 42.1002 24.0079 40.6465C24.3115 39.9059 24.6924 39.3255 24.9629 38.8888C25.2389 38.4632 25.4322 38.209 25.4322 38.209H25.4377Z" fill="#56C7C7"/>
<path d="M33.2706 30.041C33.2706 30.041 34.2532 30.439 35.2801 31.2404C36.3069 32.0419 37.3834 33.2413 37.6152 34.8111C38.0072 37.2486 36.4173 39.874 35.6444 40.974C35.3242 38.9952 34.9323 36.8009 33.8226 34.2252C34.3968 37.0828 34.8053 39.1887 34.8936 41.3664C33.933 40.9242 31.1949 39.5424 30.687 36.9446C30.3999 35.3693 31.0458 33.6393 31.758 32.3017C32.1168 31.6329 32.4922 31.0636 32.7793 30.6601C32.9228 30.4556 33.0442 30.3008 33.1326 30.2013C33.2209 30.0963 33.2706 30.041 33.2706 30.041Z" fill="#56C7C7"/>
<path d="M100.788 35.5129C101.732 28.6756 104.172 20.1028 107.495 13.0058C106.198 15.8358 99.9874 20.0863 95.9629 19.1908C91.3147 18.1572 87.9858 9.26385 87.489 1.80756C86.9866 9.26385 83.6633 18.1572 79.015 19.1908C74.985 20.0863 68.7745 15.8302 67.4827 13.0058C70.806 20.1084 73.2516 28.6812 74.1901 35.5129H100.793H100.788Z" fill="#BAA869"/>
<path d="M100.788 35.5129C101.732 28.6756 104.172 20.1028 107.495 13.0058C106.198 15.8358 99.9874 20.0863 95.9629 19.1908C91.3147 18.1572 87.9858 9.26385 87.489 1.80756C86.9866 9.26385 83.6633 18.1572 79.015 19.1908C74.985 20.0863 68.7745 15.8302 67.4827 13.0058C70.806 20.1084 73.2516 28.6812 74.1901 35.5129H100.793H100.788Z" fill="url(#paint0_linear_10944_60715)"/>
<path d="M80.6435 16.9136C79.3904 15.775 78.1096 13.6967 77.541 11.5411C77.6294 13.7686 77.0055 16.2669 76.1443 17.7261C77.6514 18.4944 79.28 18.3175 80.6435 16.9136Z" fill="#BAA869"/>
<path d="M80.6435 16.9136C79.3904 15.775 78.1096 13.6967 77.541 11.5411C77.6294 13.7686 77.0055 16.2669 76.1443 17.7261C77.6514 18.4944 79.28 18.3175 80.6435 16.9136Z" fill="url(#paint1_linear_10944_60715)"/>
<path d="M94.3289 16.9136C95.582 15.775 96.8628 13.6967 97.4314 11.5411C97.3431 13.7686 97.9669 16.2669 98.8281 17.7261C97.321 18.4944 95.6924 18.3175 94.3289 16.9136Z" fill="#BAA869"/>
<path d="M94.3289 16.9136C95.582 15.775 96.8628 13.6967 97.4314 11.5411C97.3431 13.7686 97.9669 16.2669 98.8281 17.7261C97.321 18.4944 95.6924 18.3175 94.3289 16.9136Z" fill="url(#paint2_linear_10944_60715)"/>
<path d="M89.9014 2.808C89.9014 4.14007 88.8194 5.22342 87.489 5.22342C86.1585 5.22342 85.0765 4.14007 85.0765 2.808C85.0765 1.47592 86.1585 0.392578 87.489 0.392578C88.8194 0.392578 89.9014 1.47592 89.9014 2.808Z" fill="#BAA869"/>
<path d="M89.9014 2.808C89.9014 4.14007 88.8194 5.22342 87.489 5.22342C86.1585 5.22342 85.0765 4.14007 85.0765 2.808C85.0765 1.47592 86.1585 0.392578 87.489 0.392578C88.8194 0.392578 89.9014 1.47592 89.9014 2.808Z" fill="url(#paint3_linear_10944_60715)"/>
<path d="M107.081 15.3715C108.218 15.3715 109.14 14.4484 109.14 13.3098C109.14 12.1712 108.218 11.2481 107.081 11.2481C105.944 11.2481 105.022 12.1712 105.022 13.3098C105.022 14.4484 105.944 15.3715 107.081 15.3715Z" fill="#BAA869"/>
<path d="M107.081 15.3715C108.218 15.3715 109.14 14.4484 109.14 13.3098C109.14 12.1712 108.218 11.2481 107.081 11.2481C105.944 11.2481 105.022 12.1712 105.022 13.3098C105.022 14.4484 105.944 15.3715 107.081 15.3715Z" fill="url(#paint4_linear_10944_60715)"/>
<path d="M99.198 11.5411C99.198 12.5194 98.4085 13.3098 97.4314 13.3098C96.4543 13.3098 95.6648 12.5194 95.6648 11.5411C95.6648 10.5628 96.4543 9.77236 97.4314 9.77236C98.4085 9.77236 99.198 10.5628 99.198 11.5411Z" fill="#BAA869"/>
<path d="M99.198 11.5411C99.198 12.5194 98.4085 13.3098 97.4314 13.3098C96.4543 13.3098 95.6648 12.5194 95.6648 11.5411C95.6648 10.5628 96.4543 9.77236 97.4314 9.77236C98.4085 9.77236 99.198 10.5628 99.198 11.5411Z" fill="url(#paint5_linear_10944_60715)"/>
<path d="M67.8912 15.3715C69.0284 15.3715 69.9503 14.4484 69.9503 13.3098C69.9503 12.1712 69.0284 11.2481 67.8912 11.2481C66.7539 11.2481 65.832 12.1712 65.832 13.3098C65.832 14.4484 66.7539 15.3715 67.8912 15.3715Z" fill="#BAA869"/>
<path d="M67.8912 15.3715C69.0284 15.3715 69.9503 14.4484 69.9503 13.3098C69.9503 12.1712 69.0284 11.2481 67.8912 11.2481C66.7539 11.2481 65.832 12.1712 65.832 13.3098C65.832 14.4484 66.7539 15.3715 67.8912 15.3715Z" fill="url(#paint6_linear_10944_60715)"/>
<path d="M75.7745 11.5411C75.7745 12.5194 76.5639 13.3098 77.541 13.3098C78.5182 13.3098 79.3076 12.5194 79.3076 11.5411C79.3076 10.5628 78.5182 9.77236 77.541 9.77236C76.5639 9.77236 75.7745 10.5628 75.7745 11.5411Z" fill="#BAA869"/>
<path d="M75.7745 11.5411C75.7745 12.5194 76.5639 13.3098 77.541 13.3098C78.5182 13.3098 79.3076 12.5194 79.3076 11.5411C79.3076 10.5628 78.5182 9.77236 77.541 9.77236C76.5639 9.77236 75.7745 10.5628 75.7745 11.5411Z" fill="url(#paint7_linear_10944_60715)"/>
<path d="M59.2268 145.255L55.6071 147.165L56.298 143.122L53.3691 140.262L57.4169 139.673L59.2268 136L61.0366 139.673L65.0893 140.262L62.1605 143.122L62.8513 147.165L59.2268 145.255Z" fill="#BAA869"/>
<path d="M73.7248 145.255L70.1052 147.165L70.796 143.122L67.8672 140.262L71.915 139.673L73.7248 136L75.5395 139.673L79.5873 140.262L76.6585 143.122L77.3494 147.165L73.7248 145.255Z" fill="#BAA869"/>
<path d="M88.2209 145.255L84.6012 147.165L85.2921 143.122L82.3633 140.262L86.4111 139.673L88.2209 136L90.0356 139.673L94.0834 140.262L91.1546 143.122L91.8455 147.165L88.2209 145.255Z" fill="#BAA869"/>
<path d="M102.726 145.255L99.1012 147.165L99.7921 143.122L96.8633 140.262L100.911 139.673L102.726 136L104.536 139.673L108.583 140.262L105.655 143.122L106.345 147.165L102.726 145.255Z" fill="#BAA869"/>
<path d="M117.226 145.255L113.601 147.165L114.292 143.122L111.363 140.262L115.411 139.673L117.226 136L119.036 139.673L123.083 140.262L120.155 143.122L120.845 147.165L117.226 145.255Z" fill="#BAA869"/>
<path d="M53.18 54.08V53.696C53.18 53.232 53.148 52.864 53.084 52.528H55.052C54.988 52.832 54.972 53.216 54.972 53.696V54.08H59.404C60.22 54.08 60.636 54.064 61.18 54.016C61.132 54.368 61.116 54.672 61.116 55.232V56.544C61.116 57.056 61.132 57.424 61.18 57.776H59.452V55.648H49.036V57.776H47.292C47.34 57.408 47.372 57.056 47.372 56.528V55.232C47.372 54.704 47.356 54.384 47.308 54.016C47.82 54.064 48.268 54.08 49.052 54.08H53.18ZM51.26 61.248H49.004C48.22 61.248 47.74 61.28 47.292 61.344V59.6C47.724 59.68 48.188 59.696 49.004 59.696H59.484C60.284 59.696 60.732 59.68 61.18 59.6V61.344C60.7 61.28 60.236 61.248 59.484 61.248H56.54V64.896C56.54 65.28 56.748 65.344 58.076 65.344C59.26 65.344 59.628 65.248 59.74 64.912C59.82 64.704 59.884 64.096 59.884 63.552C59.884 63.504 59.884 63.392 59.884 63.28C60.572 63.584 60.86 63.664 61.532 63.776C61.468 65.376 61.276 66.08 60.796 66.48C60.348 66.864 59.676 66.96 57.628 66.96C55.228 66.96 54.764 66.736 54.764 65.584V61.248H53.004C52.876 62.736 52.7 63.392 52.188 64.288C51.404 65.664 50.38 66.368 47.804 67.36C47.532 66.752 47.244 66.256 46.828 65.712C48.172 65.312 48.652 65.12 49.26 64.784C50.3 64.208 50.956 63.28 51.148 62.112C51.196 61.856 51.212 61.696 51.26 61.248ZM49.58 58.512V56.8C50.012 56.864 50.38 56.88 51.1 56.88H57.372C58.092 56.88 58.46 56.864 58.908 56.8V58.512C58.46 58.448 58.076 58.432 57.372 58.432H51.1C50.396 58.432 50.012 58.448 49.58 58.512ZM69.868 59.504H67.788C67.02 59.504 66.476 59.536 66.044 59.584V58.448C65.276 58.896 64.988 59.056 64.3 59.36C63.82 58.464 63.82 58.464 63.244 57.664C64.764 57.072 66.06 56.368 67.116 55.552C67.644 55.136 68.38 54.448 68.876 53.872C69.212 53.504 69.388 53.28 69.74 52.72H71.772C72.668 53.936 73.436 54.704 74.62 55.552C75.948 56.496 77.004 57.04 78.54 57.584C77.964 58.416 77.772 58.768 77.516 59.424C76.796 59.088 76.332 58.832 75.612 58.416V59.584C75.148 59.536 74.652 59.504 73.916 59.504H71.66V61.312H74.252C75.084 61.312 75.596 61.28 76.012 61.232V63.024C75.58 62.976 75.036 62.944 74.252 62.944H71.66V65.104H75.82C76.668 65.104 77.356 65.072 77.852 65.008V66.88C77.324 66.8 76.652 66.768 75.836 66.768H65.852C65.036 66.768 64.38 66.8 63.852 66.88V65.008C64.316 65.072 65.004 65.104 65.9 65.104H69.868V62.944H67.516C66.716 62.944 66.172 62.976 65.74 63.024V61.232C66.236 61.296 66.716 61.312 67.516 61.312H69.868V59.504ZM67.66 57.888H73.996C74.332 57.888 74.444 57.888 74.748 57.872C72.988 56.704 71.98 55.776 70.812 54.24C69.884 55.616 68.732 56.704 66.956 57.872C67.276 57.888 67.42 57.888 67.66 57.888ZM82.54 57.664V56.176C82.092 56.608 81.852 56.8 81.228 57.296C80.732 56.688 80.524 56.464 80.06 56.08C81.564 54.992 82.444 54.096 83.036 52.992C83.18 52.72 83.308 52.448 83.372 52.208L85.228 52.56C85.1 52.752 85.1 52.752 84.892 53.136C84.732 53.408 84.604 53.616 84.38 53.952H92.14C93.116 53.952 93.66 53.92 94.156 53.856V55.616C93.628 55.568 93.404 55.552 92.588 55.536V57.664H93.212C93.964 57.664 94.316 57.648 94.78 57.568V59.36C94.316 59.28 93.948 59.264 93.212 59.264H92.588V61.408H92.908C93.66 61.408 94.012 61.392 94.428 61.328V63.088C94.012 63.008 93.628 62.992 92.94 62.992H82.028C81.404 62.992 81.052 63.008 80.604 63.088V61.328C81.036 61.392 81.452 61.408 82.172 61.408H82.54V59.264H81.852C81.132 59.264 80.764 59.28 80.284 59.36V57.568C80.748 57.648 81.1 57.664 81.852 57.664H82.54ZM84.124 55.536V57.664H85.42V55.536H84.124ZM84.124 59.264V61.408H85.42V59.264H84.124ZM86.876 61.408H88.204V59.264H86.876V61.408ZM86.876 57.664H88.204V55.536H86.876V57.664ZM89.644 61.408H91.004V59.264H89.644V61.408ZM89.644 57.664H91.004V55.536H89.644V57.664ZM94.684 66.208L93.148 67.168C92.572 65.84 92.172 65.168 91.228 63.824L92.604 63.136C93.532 64.272 94.012 64.992 94.684 66.208ZM90.332 66.768L88.588 67.152C88.348 65.6 88.252 65.152 87.836 63.792L89.388 63.44C89.836 64.704 90.044 65.408 90.332 66.768ZM86.62 67.04L84.876 67.2C84.876 66.944 84.876 66.72 84.876 66.544C84.876 65.936 84.748 64.496 84.636 63.712L86.188 63.536C86.46 64.992 86.556 65.696 86.62 67.04ZM81.66 67.264L80.268 66.16C81.244 65.2 81.708 64.512 82.252 63.168L83.724 63.904C83.068 65.456 82.652 66.112 81.66 67.264ZM103.372 64.672L103.004 62.96C102.924 63.168 102.908 63.248 102.828 63.504C102.156 62.752 101.708 62.128 101.212 61.248C101.292 62.336 101.308 62.56 101.308 63.072V65.712C101.308 66.48 101.324 66.896 101.404 67.376H99.548C99.628 66.864 99.66 66.384 99.66 65.68V63.616C99.66 62.976 99.692 62.224 99.724 61.696C99.004 63.456 98.492 64.352 97.644 65.296C97.468 64.672 97.18 64.096 96.828 63.648C97.5 62.96 98.012 62.256 98.556 61.28C98.892 60.688 98.956 60.528 99.404 59.472H98.572C97.868 59.472 97.516 59.488 97.132 59.552V57.856C97.5 57.92 97.836 57.936 98.572 57.936H99.644V54.144C99.644 53.424 99.628 52.96 99.564 52.576H101.388C101.324 52.992 101.308 53.36 101.308 54.128V57.936H102.06C102.668 57.936 102.94 57.92 103.292 57.872V59.536C102.908 59.488 102.588 59.472 102.028 59.472H101.452C102.044 60.48 102.636 61.2 103.516 61.92C103.292 62.32 103.228 62.464 103.068 62.816C103.436 62.8 103.996 62.704 104.54 62.592L108.284 61.76V54.448C108.284 53.52 108.268 53.088 108.188 52.592H110.124C110.044 53.12 110.028 53.552 110.028 54.432V61.376C110.684 61.216 110.972 61.136 111.388 60.976L111.724 62.8C111.292 62.848 110.844 62.928 110.188 63.088L110.028 63.12V65.456C110.028 66.352 110.044 66.832 110.124 67.344H108.188C108.268 66.8 108.284 66.416 108.284 65.44V63.504L104.892 64.272C104.188 64.432 103.724 64.56 103.372 64.672ZM97.02 54.064L98.38 53.456C98.892 54.88 99.132 55.696 99.356 56.912L98.012 57.488C97.756 56.016 97.468 55.024 97.02 54.064ZM102.524 53.424L103.868 54.016C103.452 55.488 103.244 56.048 102.588 57.488L101.42 56.88C101.932 55.808 102.204 54.976 102.524 53.424ZM104.044 54.88L105.164 53.648C106.54 54.608 107.052 55.056 107.964 56L106.876 57.344C105.692 56.08 105.612 56.016 104.044 54.88ZM103.548 58.832L104.668 57.648C105.932 58.512 106.62 59.104 107.452 60L106.364 61.296C105.244 60.096 104.7 59.616 103.548 58.832ZM114.076 56.928L113.964 54.832C114.316 54.848 114.492 54.848 114.572 54.848C114.86 54.848 114.86 54.848 117.212 54.688C118.38 54.624 121.116 54.48 125.388 54.272C126.7 54.208 126.78 54.208 127.036 54.144L127.148 56.176C126.972 56.16 126.972 56.16 126.812 56.16C125.852 56.16 124.668 56.48 123.644 57.024C121.612 58.08 120.412 59.68 120.412 61.296C120.412 62.544 121.196 63.504 122.54 63.904C123.324 64.144 124.348 64.32 124.924 64.32C124.94 64.32 125.084 64.32 125.244 64.304L124.956 66.48C124.748 66.432 124.716 66.432 124.412 66.384C122.652 66.16 121.644 65.872 120.668 65.328C119.196 64.496 118.38 63.136 118.38 61.472C118.38 60.112 118.924 58.768 119.9 57.712C120.508 57.056 121.084 56.624 122.124 56.096C120.828 56.288 119.836 56.384 116.732 56.608C115.308 56.72 114.572 56.816 114.076 56.928ZM123.868 58.464L124.988 57.904C125.692 58.656 126.124 59.264 126.668 60.256L125.548 60.848C125.02 59.872 124.572 59.232 123.868 58.464ZM128.572 59.216L127.468 59.84C126.988 58.96 126.46 58.208 125.836 57.52L126.908 56.96C127.628 57.696 128.076 58.304 128.572 59.216ZM51.572 85.256H48.452C47.3 85.256 46.484 85.304 45.836 85.376V83.672C44.684 84.344 44.252 84.584 43.22 85.04C42.5 83.696 42.5 83.696 41.636 82.496C43.916 81.608 45.86 80.552 47.444 79.328C48.236 78.704 49.34 77.672 50.084 76.808C50.588 76.256 50.852 75.92 51.38 75.08H54.428C55.772 76.904 56.924 78.056 58.7 79.328C60.692 80.744 62.276 81.56 64.58 82.376C63.716 83.624 63.428 84.152 63.044 85.136C61.964 84.632 61.268 84.248 60.188 83.624V85.376C59.492 85.304 58.748 85.256 57.644 85.256H54.26V87.968H58.148C59.396 87.968 60.164 87.92 60.788 87.848V90.536C60.14 90.464 59.324 90.416 58.148 90.416H54.26V93.656H60.5C61.772 93.656 62.804 93.608 63.548 93.512V96.32C62.756 96.2 61.748 96.152 60.524 96.152H45.548C44.324 96.152 43.34 96.2 42.548 96.32V93.512C43.244 93.608 44.276 93.656 45.62 93.656H51.572V90.416H48.044C46.844 90.416 46.028 90.464 45.38 90.536V87.848C46.124 87.944 46.844 87.968 48.044 87.968H51.572V85.256ZM48.26 82.832H57.764C58.268 82.832 58.436 82.832 58.892 82.808C56.252 81.056 54.74 79.664 52.988 77.36C51.596 79.424 49.868 81.056 47.204 82.808C47.684 82.832 47.9 82.832 48.26 82.832ZM84.956 74.888L86.924 75.968C86.156 77.24 85.82 77.744 84.884 78.92C85.172 79.232 85.22 79.304 85.532 79.664C86.036 78.968 86.252 78.608 87.02 77.36L88.772 78.632C88.268 79.256 88.268 79.256 87.092 80.792C86.444 81.608 85.916 82.208 85.172 82.952C85.892 82.904 86.156 82.88 86.9 82.808C86.756 82.424 86.684 82.28 86.468 81.872L87.98 81.32C88.58 82.568 88.844 83.216 89.396 85.088L87.716 85.64C87.596 85.112 87.548 84.944 87.452 84.488C86.972 84.56 86.396 84.632 85.7 84.704C86.252 85.064 86.3 85.088 86.948 85.688L86.036 86.552H86.564C88.004 86.552 88.436 86.528 89.084 86.408V88.928C88.364 88.832 87.5 88.784 86.564 88.784H85.748L87.596 89.96C86.66 91.184 85.988 91.928 84.98 92.84C85.676 93.8 86.3 94.328 86.66 94.328C87.092 94.328 87.308 93.656 87.548 91.424C88.124 92.024 88.7 92.432 89.372 92.744C89.108 94.496 88.844 95.432 88.388 96.128C88.052 96.656 87.572 96.896 86.828 96.896C85.628 96.896 84.524 96.104 83.156 94.304C81.428 95.528 80.06 96.248 77.9 96.992C77.492 96.08 77.252 95.672 76.532 94.856C78.692 94.328 80.228 93.68 82.052 92.48C81.5 91.352 81.212 90.488 80.828 88.784H77.636C77.612 89.168 77.612 89.264 77.564 89.552C78.356 90.44 78.98 90.896 80.228 91.568C79.916 92 79.772 92.24 79.58 92.624C79.244 93.224 79.244 93.224 79.076 93.536C78.284 93.056 77.66 92.528 77.084 91.856C76.46 93.944 75.668 95.24 74.108 96.848C73.436 96.08 73.148 95.816 72.188 95.12C74.084 93.704 75.068 91.736 75.308 88.784C74.42 88.808 73.988 88.832 73.508 88.88V86.456C74.084 86.528 74.468 86.552 75.476 86.552H80.42C80.324 85.856 80.3 85.664 80.252 85.208L78.908 85.688C78.86 85.28 78.836 85.136 78.812 84.872C78.188 84.968 77.78 85.04 77.132 85.136C75.284 85.376 74.036 85.544 73.7 85.616L73.604 84.872C73.244 85.568 73.1 85.928 72.908 86.552C72.452 85.832 72.116 85.184 71.78 84.344C71.828 85.016 71.876 86.432 71.876 87.272V94.184C71.876 95.672 71.9 96.512 71.996 97.136H69.38C69.476 96.464 69.524 95.432 69.524 94.184V89.96C69.524 88.88 69.572 88.016 69.716 86C68.996 88.52 68.372 90.104 67.628 91.376C67.34 90.272 66.98 89.408 66.476 88.736C67.124 87.704 67.508 86.936 68.276 84.92C68.516 84.296 68.708 83.72 69.26 81.68H68.684C68.084 81.68 67.484 81.728 67.052 81.776V79.208C67.46 79.304 67.82 79.328 68.684 79.328H69.5V77.336C69.5 76.184 69.476 75.44 69.38 74.816H71.972C71.9 75.392 71.876 76.04 71.876 77.312V79.328H72.308C72.812 79.328 73.244 79.304 73.532 79.28C73.364 79.112 73.268 79.04 73.004 78.8L74.396 77.144L74.924 77.648C75.668 76.592 76.076 75.824 76.46 74.792L78.428 75.776C77.66 77.216 77.204 77.96 76.34 79.136C76.58 79.424 76.676 79.544 76.916 79.88C77.564 78.896 77.732 78.632 78.164 77.624L79.868 78.776C79.868 78.296 79.868 77.888 79.868 77.648C79.844 75.992 79.82 75.632 79.7 74.912H82.34C82.22 75.368 82.196 75.776 82.196 76.52C82.196 76.592 82.196 76.904 82.22 77.288C82.22 77.456 82.22 77.72 82.22 78.032L82.964 77C83.252 77.264 83.42 77.432 83.492 77.504C84.14 76.64 84.572 75.848 84.956 74.888ZM84.212 81.296C83.588 80.456 83.012 79.832 82.22 79.136C82.244 81.32 82.244 81.32 82.34 83.024C82.484 83.024 82.532 83.024 82.676 83.024C83.612 82.04 83.612 82.04 84.212 81.296ZM83.9 85.52L84.62 84.824C84.404 84.848 84.26 84.872 84.164 84.872C83.756 84.944 83.756 84.944 83.132 84.992C83.108 84.992 82.868 85.016 82.532 85.04C82.58 85.592 82.604 85.664 82.724 86.552H85.412C84.884 86.024 84.572 85.832 83.9 85.52ZM73.724 79.448V81.776C73.124 81.704 72.86 81.68 72.356 81.68H72.02C72.38 82.568 72.764 83.168 73.484 84.032L73.412 83.504C73.58 83.528 73.676 83.528 73.772 83.528C73.892 83.528 74.012 83.528 74.204 83.528C75.02 82.592 75.284 82.256 75.716 81.68C74.996 80.744 74.492 80.168 73.724 79.448ZM85.724 88.784H83.132C83.324 89.672 83.492 90.152 83.9 91.04C85.028 89.984 85.364 89.576 85.724 88.784ZM77.948 82.16L79.46 81.68C79.796 82.424 79.916 82.712 80.084 83.264C79.94 81.248 79.892 80.144 79.892 79.064C79.604 79.472 79.532 79.592 79.364 79.832C78.476 81.176 77.42 82.52 76.628 83.36C77.564 83.288 77.564 83.288 78.38 83.168C78.212 82.784 78.164 82.64 77.948 82.16ZM92.18 81.872L91.892 79.208C92.204 79.256 92.828 79.28 93.044 79.28C93.092 79.28 93.188 79.28 93.332 79.256C93.404 79.256 93.548 79.256 93.692 79.256C94.772 77.408 95.372 76.016 95.708 74.6L98.492 75.104C98.3 75.416 98.204 75.632 98.036 75.992C97.748 76.616 96.884 78.224 96.332 79.136C97.868 79.04 98.444 78.992 99.932 78.8C99.5 77.96 99.356 77.744 98.828 76.88L100.748 75.944C101.852 77.48 102.572 78.728 103.724 80.96L101.564 82.232C101.3 81.608 101.18 81.32 101.012 80.936C99.476 81.176 95.396 81.608 93.74 81.704C93.14 81.728 92.54 81.8 92.18 81.872ZM106.436 76.904V78.008C107.684 77.624 108.284 77.408 109.1 77C110.444 76.352 111.14 75.944 111.884 75.32L113.66 77.528C113.156 77.744 113.156 77.744 111.98 78.32C110.444 79.088 108.572 79.808 106.436 80.432V81.944C106.436 82.52 106.652 82.616 108.164 82.616C110.108 82.616 110.66 82.544 110.972 82.304C111.236 82.064 111.332 81.584 111.38 79.808C112.196 80.192 112.94 80.408 113.78 80.552C113.588 82.808 113.372 83.624 112.82 84.176C112.196 84.776 111.284 84.92 108.14 84.92C106.22 84.92 105.476 84.848 104.852 84.584C104.18 84.32 103.916 83.864 103.916 83V77.024C103.916 76.112 103.892 75.512 103.796 74.96H106.556C106.46 75.488 106.436 75.968 106.436 76.904ZM106.46 87.992V88.784C108.764 88.136 110.492 87.344 112.004 86.192L113.828 88.304C113.132 88.688 110.78 89.744 110.036 90.032C108.86 90.464 108.62 90.536 106.46 91.136V93.392C106.46 93.8 106.604 93.944 107.06 94.04C107.444 94.136 107.9 94.16 108.764 94.16C110.348 94.16 110.948 94.04 111.164 93.68C111.38 93.368 111.524 92.312 111.548 90.92C112.268 91.28 113.132 91.568 113.996 91.736C113.828 93.992 113.564 94.904 112.94 95.6C112.292 96.32 111.452 96.488 108.428 96.488C106.076 96.488 105.308 96.392 104.684 96.008C104.132 95.672 103.94 95.24 103.94 94.448V88.136C103.94 87.032 103.916 86.576 103.82 86H106.58C106.484 86.504 106.46 86.936 106.46 87.992ZM93.26 94.352V84.752C93.26 83.912 93.236 83.264 93.164 82.544C93.692 82.592 94.124 82.616 94.892 82.616H100.172C101.156 82.616 101.708 82.592 102.332 82.52C102.284 83.192 102.26 83.576 102.26 84.776V94.328C102.26 95.36 102.068 95.912 101.588 96.2C101.084 96.512 100.316 96.656 99.068 96.656C98.852 96.656 98.492 96.656 98.06 96.632C97.988 95.792 97.844 95.12 97.532 94.184C97.988 94.28 98.612 94.352 99.14 94.352C99.644 94.352 99.74 94.28 99.788 93.92V91.928H95.756V94.304C95.756 95.432 95.78 96.2 95.876 96.968H93.14C93.236 96.152 93.26 95.528 93.26 94.352ZM95.732 84.8V86.288H99.788V84.8H95.732ZM95.732 88.352V89.84H99.788V88.352H95.732ZM128.774 85.1L130.592 84.2C131.834 85.91 132.77 87.854 133.292 89.924L131.24 90.95C130.88 89.06 129.764 86.414 128.774 85.1ZM123.482 81.14L123.446 81.374C123.356 81.896 123.23 82.634 123.05 83.606C122.996 83.912 122.996 83.912 122.942 84.146C123.482 84.128 123.734 84.11 124.058 84.11C125.246 84.11 126.128 84.434 126.722 85.064C127.334 85.748 127.568 86.612 127.568 88.25C127.568 91.346 127.046 93.812 126.182 94.802C125.678 95.396 125.138 95.612 124.184 95.612C123.356 95.612 122.618 95.468 121.412 95.072C121.43 94.73 121.448 94.46 121.448 94.28C121.448 93.812 121.412 93.452 121.268 92.75C122.24 93.182 123.266 93.47 123.896 93.47C124.418 93.47 124.706 93.128 124.976 92.246C125.264 91.31 125.444 89.672 125.444 88.142C125.444 86.486 125.03 86 123.644 86C123.266 86 122.978 86.018 122.564 86.054C121.682 89.744 120.872 91.922 118.892 95.846L116.804 94.694C118.19 92.804 119.576 89.564 120.422 86.216C120.152 86.252 120.152 86.252 119.576 86.36L117.938 86.63C117.65 86.684 117.452 86.738 117.2 86.81L116.984 84.686C117.794 84.668 118.73 84.578 120.818 84.308C121.16 82.31 121.286 81.284 121.286 80.672C121.286 80.6 121.286 80.492 121.286 80.348L123.626 80.582C123.572 80.726 123.518 80.96 123.482 81.14ZM127.658 81.266L128.918 80.636C129.71 81.482 130.196 82.166 130.808 83.282L129.548 83.948C128.954 82.85 128.45 82.13 127.658 81.266ZM132.95 82.112L131.708 82.814C131.168 81.824 130.574 80.978 129.872 80.204L131.078 79.574C131.888 80.402 132.392 81.086 132.95 82.112ZM74.8284 115.032H71.8764C71.6784 116.166 71.3904 116.922 70.8684 117.786C72.7764 118.83 74.6124 119.244 77.6184 119.37C77.2944 120.018 77.0064 120.702 76.8444 121.368C73.8024 121.044 71.7324 120.396 69.7524 119.136C68.7084 120.144 67.5744 120.792 65.7384 121.44C65.4144 120.792 65.0364 120.234 64.6224 119.748C66.2784 119.298 67.3404 118.794 68.2764 118.02C67.8084 117.588 67.5744 117.318 67.1604 116.778C66.9264 116.472 66.7824 116.31 66.6024 116.112L68.1684 115.284C68.3844 115.716 68.7444 116.166 69.3564 116.724C69.6804 116.13 69.8424 115.698 69.9864 115.032H67.3404C66.7644 115.032 66.3324 115.05 65.8824 115.104C65.9364 114.582 65.9544 114.24 65.9544 113.592V111.09C65.9544 110.316 65.9364 110.01 65.8824 109.578C66.4224 109.614 66.6924 109.632 67.5564 109.632H70.3464L70.3284 108.336H67.3584C66.6384 108.336 66.1704 108.354 65.6304 108.426V106.482C66.1704 106.554 66.8544 106.59 67.5744 106.59H70.3284C70.3104 105.654 70.2924 105.33 70.2204 104.772H72.2904C72.2364 105.276 72.2364 105.276 72.2364 106.59H75.3684C76.1964 106.59 76.7904 106.554 77.4024 106.482V108.426C76.8624 108.354 76.3224 108.336 75.6024 108.336H72.2364C72.2364 108.588 72.2364 108.768 72.2364 108.876V109.632H74.8824C75.6924 109.632 76.0704 109.614 76.5744 109.578C76.5384 110.028 76.5204 110.478 76.5204 111.144V113.466C76.5204 114.33 76.5384 114.672 76.5744 115.104C76.0524 115.05 75.6384 115.032 74.8284 115.032ZM70.3284 111.36H67.8264V113.322H70.2204C70.2924 112.512 70.2924 112.368 70.3284 111.36ZM74.6304 111.36H72.2004C72.1644 112.296 72.1464 112.638 72.0744 113.322H74.6304V111.36ZM62.5164 119.406V114.114C62.5164 113.556 62.5164 113.268 62.5704 112.116C62.1744 112.818 61.8864 113.25 61.3104 114.006C61.0584 113.142 60.8604 112.62 60.4824 111.864C62.1384 110.064 63.5244 107.094 63.8484 104.7L65.9004 105.186C65.1804 107.418 65.0724 107.742 64.4244 109.182V119.424C64.4244 120.198 64.4424 120.792 64.5144 121.512H62.4084C62.4804 120.828 62.5164 120.288 62.5164 119.406ZM83.4324 107.238L84.0804 105.276C86.1144 105.906 88.4544 106.23 91.2444 106.284L90.9024 108.3C87.3204 108.084 85.9164 107.868 83.4324 107.238ZM81.9744 112.098L81.8484 109.938C82.3344 109.992 82.5144 109.992 82.9104 109.992C84.6564 109.992 87.0504 109.848 89.3004 109.596C90.1104 109.506 90.4344 109.452 90.7404 109.308L91.9464 110.856C91.6044 111.09 91.2264 111.414 90.4164 112.206C89.4444 113.142 87.8964 114.528 87.3384 114.96C87.7884 114.798 88.0224 114.744 88.4364 114.744C89.1204 114.744 89.5884 114.978 89.9304 115.5C90.1824 115.896 90.2544 116.148 90.3264 117.156C90.4524 118.578 90.6864 118.83 91.8744 118.83C93.0804 118.83 94.4844 118.56 95.4204 118.146L95.6904 120.378C95.3844 120.396 95.2764 120.414 94.1064 120.594C93.0084 120.756 92.3604 120.81 91.5864 120.81C90.3084 120.81 89.5884 120.612 89.0664 120.126C88.5624 119.658 88.4184 119.226 88.3284 117.804C88.2924 117.12 88.2564 116.868 88.1484 116.652C88.0224 116.418 87.7344 116.274 87.3924 116.274C86.5464 116.274 85.7364 116.778 84.2784 118.182C83.3604 119.064 82.3884 120.108 81.7404 120.864L80.0844 118.992C80.8764 118.452 80.8764 118.452 84.2604 115.392C84.6744 115.014 84.9984 114.708 86.3484 113.412C86.8344 112.944 87.5364 112.278 88.4544 111.414C87.4284 111.576 86.9604 111.648 86.1144 111.72C85.8624 111.738 85.8624 111.738 84.2964 111.864C83.9544 111.9 83.9544 111.9 83.3604 111.954C82.6944 112.008 82.5684 112.026 81.9744 112.098ZM103.952 112.53L103.988 112.566C105.626 111.918 106.418 111.738 107.768 111.738C110.846 111.738 112.826 113.322 112.826 115.788C112.826 117.498 111.98 118.866 110.378 119.766C109.208 120.432 107.678 120.792 106.022 120.792C104.51 120.792 103.25 120.504 102.53 119.964C101.846 119.46 101.45 118.704 101.45 117.894C101.45 116.4 102.746 115.32 104.546 115.32C105.806 115.32 106.904 115.842 107.66 116.796C108.02 117.246 108.218 117.642 108.488 118.416C109.982 117.858 110.63 117.084 110.63 115.806C110.63 114.402 109.244 113.484 107.066 113.484C104.438 113.484 101.81 114.546 99.6496 116.508L98.4256 114.564C99.0556 114.258 99.7756 113.772 100.964 112.872C102.638 111.594 104.978 109.578 106.346 108.192C106.382 108.156 106.562 107.976 106.67 107.868L106.652 107.85C105.968 107.94 104.816 108.012 101.558 108.156C101.162 108.174 101.036 108.192 100.694 108.246L100.604 106.086C101.216 106.158 101.738 106.194 102.728 106.194C104.258 106.194 106.454 106.104 108.2 105.978C108.83 105.924 109.028 105.888 109.316 105.744L110.432 107.328C110.126 107.49 110 107.598 109.496 108.066C108.596 108.894 107.282 110.064 106.67 110.586C106.346 110.856 105.05 111.828 104.69 112.062C104.24 112.368 104.24 112.368 103.952 112.53ZM106.544 118.938C106.22 117.696 105.536 117.048 104.528 117.048C103.88 117.048 103.466 117.372 103.466 117.876C103.466 118.596 104.276 119.01 105.608 119.01C105.95 119.01 106.04 119.01 106.544 118.938Z" fill="#221A15"/>
</g>
<defs>
<linearGradient id="paint0_linear_10944_60715" x1="70" y1="10.5" x2="109.421" y2="28.5134" gradientUnits="userSpaceOnUse">
<stop stop-color="#BAA869"/>
<stop offset="0.49" stop-color="#F0E5BE"/>
<stop offset="1" stop-color="#BAA869"/>
</linearGradient>
<linearGradient id="paint1_linear_10944_60715" x1="70" y1="10.5" x2="109.421" y2="28.5134" gradientUnits="userSpaceOnUse">
<stop stop-color="#BAA869"/>
<stop offset="0.49" stop-color="#F0E5BE"/>
<stop offset="1" stop-color="#BAA869"/>
</linearGradient>
<linearGradient id="paint2_linear_10944_60715" x1="70" y1="10.5" x2="109.421" y2="28.5134" gradientUnits="userSpaceOnUse">
<stop stop-color="#BAA869"/>
<stop offset="0.49" stop-color="#F0E5BE"/>
<stop offset="1" stop-color="#BAA869"/>
</linearGradient>
<linearGradient id="paint3_linear_10944_60715" x1="70" y1="10.5" x2="109.421" y2="28.5134" gradientUnits="userSpaceOnUse">
<stop stop-color="#BAA869"/>
<stop offset="0.49" stop-color="#F0E5BE"/>
<stop offset="1" stop-color="#BAA869"/>
</linearGradient>
<linearGradient id="paint4_linear_10944_60715" x1="70" y1="10.5" x2="109.421" y2="28.5134" gradientUnits="userSpaceOnUse">
<stop stop-color="#BAA869"/>
<stop offset="0.49" stop-color="#F0E5BE"/>
<stop offset="1" stop-color="#BAA869"/>
</linearGradient>
<linearGradient id="paint5_linear_10944_60715" x1="70" y1="10.5" x2="109.421" y2="28.5134" gradientUnits="userSpaceOnUse">
<stop stop-color="#BAA869"/>
<stop offset="0.49" stop-color="#F0E5BE"/>
<stop offset="1" stop-color="#BAA869"/>
</linearGradient>
<linearGradient id="paint6_linear_10944_60715" x1="70" y1="10.5" x2="109.421" y2="28.5134" gradientUnits="userSpaceOnUse">
<stop stop-color="#BAA869"/>
<stop offset="0.49" stop-color="#F0E5BE"/>
<stop offset="1" stop-color="#BAA869"/>
</linearGradient>
<linearGradient id="paint7_linear_10944_60715" x1="70" y1="10.5" x2="109.421" y2="28.5134" gradientUnits="userSpaceOnUse">
<stop stop-color="#BAA869"/>
<stop offset="0.49" stop-color="#F0E5BE"/>
<stop offset="1" stop-color="#BAA869"/>
</linearGradient>
<clipPath id="clip0_10944_60715">
<rect width="175" height="152" fill="white"/>
</clipPath>
</defs>
</svg>
