<svg width="41" height="47" viewBox="0 0 41 47" fill="none" xmlns="http://www.w3.org/2000/svg">
<g clip-path="url(#clip0_10944_61330)">
<path d="M7.95309 47C7.69466 46.9997 7.44399 46.912 7.24222 46.7512C7.04045 46.5904 6.89955 46.3661 6.84263 46.1152C6.02402 42.5048 7.93975 41.019 9.20724 40.0359C9.42607 39.8661 9.63275 39.706 9.80702 39.5507C10.7939 38.6715 11.5169 37.9249 12.0454 37.2955C10.7981 37.2296 9.57351 36.9367 8.43221 36.4314C6.28583 35.4884 5.96315 33.953 6.33901 32.9244C6.88269 31.4354 9.11736 30.3101 12.7388 31.3551C14.7792 31.9443 15.4432 33.0995 15.6411 33.9648C15.6817 34.143 15.7065 34.3245 15.7152 34.507C16.0758 34.3868 16.4416 34.2465 16.8125 34.0861C17.6431 33.7273 18.9978 32.3726 19.9352 31.1402C16.581 31.0689 12.3014 30.2409 6.30053 28.5991C5.48527 28.3761 3.78127 27.5808 3.16794 26.1679C2.84471 25.4229 2.87983 24.6417 3.26962 23.9087C4.58634 21.4321 11.7255 21.3454 15.8952 22.4946C20.406 23.7384 22.5264 25.5179 23.1912 28.6269C23.9458 28.4803 24.6823 28.2532 25.388 27.9496C27.4121 27.0763 29.0501 25.764 29.8821 24.3488C30.5437 23.2237 30.6203 22.1004 30.0787 20.811C29.7593 20.8346 29.4395 20.8565 29.1206 20.8786C28.6392 20.9117 28.156 20.9449 27.6741 20.9836L26.4102 21.0858C19.795 21.6244 17.5656 21.8059 7.03496 20.1055C4.85405 19.7535 1.97092 18.313 0.922854 16.3369C0.394087 15.3393 0.360532 14.2898 0.826097 13.3016C2.56089 9.61879 15.4285 9.10621 23.3971 12.4022C25.4408 13.2475 29.0133 15.3217 30.5567 17.2865C30.7614 17.5472 31.0653 17.9339 31.3807 18.422C34.154 18.1367 36.5802 17.5415 37.8751 15.5099C38.9699 13.7924 37.2782 10.4742 35.0756 8.57028C29.1371 3.43706 24.5749 2.81102 20.5498 2.25848C20.4014 2.23833 20.2585 2.18925 20.1291 2.11405C19.9998 2.03884 19.8866 1.93899 19.7961 1.8202C19.7056 1.7014 19.6394 1.56601 19.6015 1.42175C19.5636 1.27749 19.5546 1.12719 19.575 0.97947C19.5955 0.831747 19.645 0.689489 19.7207 0.560834C19.7965 0.432179 19.8969 0.319652 20.0164 0.22969C20.1358 0.139728 20.2719 0.0740958 20.4169 0.0365488C20.5618 -0.000998185 20.7128 -0.00972375 20.8611 0.0108714C24.9859 0.576991 30.1194 1.28144 36.5699 6.85695C39.1186 9.0602 41.8057 13.5782 39.7996 16.7256C38.1292 19.346 35.3883 20.2034 32.4171 20.5865C32.853 21.996 32.9044 23.6995 31.8487 25.4952C30.7775 27.3171 28.7528 28.9707 26.294 30.0315C25.1522 30.5219 23.9465 30.8491 22.7127 31.0035C21.5999 33.2106 19.0321 35.6003 17.7199 36.1675C16.8421 36.5517 15.928 36.8479 14.9912 37.0517C14.287 38.2988 13.0694 39.6889 11.3265 41.2414C11.0946 41.4482 10.8471 41.64 10.6078 41.8257C9.42195 42.7455 8.56528 43.4099 9.06555 45.6158C9.10297 45.7819 9.10241 45.9542 9.06392 46.12C9.02544 46.2859 8.95 46.441 8.84319 46.5739C8.73638 46.7068 8.60093 46.8141 8.44686 46.8878C8.29279 46.9616 8.12404 46.9999 7.95309 47ZM10.113 33.2197C9.05867 33.2197 8.53189 33.5505 8.48046 33.7C8.48929 33.7453 8.66675 34.0547 9.35191 34.3558C10.6201 34.919 12.0137 35.1442 13.3958 35.0092C13.4568 34.7413 13.4415 34.5661 13.4191 34.4683C13.3071 33.9778 12.6421 33.6896 12.1041 33.5343C11.3034 33.3031 10.6417 33.2198 10.113 33.2198V33.2197ZM10.2121 24.0515C9.76502 24.0515 9.32167 24.0656 8.88753 24.0945C6.55372 24.2493 5.44462 24.763 5.27294 24.9875C5.2119 25.1051 5.21874 25.1736 5.25956 25.2681C5.4521 25.7113 6.30155 26.2467 6.9041 26.4114C13.3701 28.1807 17.6795 28.9715 20.9116 28.873C20.5572 27.4051 19.6775 25.8916 15.287 24.6813C13.8085 24.2735 11.9846 24.0515 10.2121 24.0515ZM11.4751 12.461C6.87836 12.461 3.28844 13.4179 2.88943 14.265C2.73066 14.6021 2.74578 14.9143 2.93832 15.2776C3.57676 16.4817 5.80183 17.608 7.39965 17.8659C17.6569 19.522 19.8158 19.3463 26.2244 18.8246L27.4915 18.722C27.9007 18.6894 28.3109 18.6602 28.7203 18.6319C27.5706 17.2148 24.6076 15.3594 22.5233 14.4973C18.8855 12.9927 14.9005 12.461 11.4751 12.461Z" fill="#414141"/>
</g>
<defs>
<clipPath id="clip0_10944_61330">
<rect width="40" height="47" fill="white" transform="translate(0.5)"/>
</clipPath>
</defs>
</svg>
