<svg width="122" height="109" viewBox="0 0 122 109" fill="none" xmlns="http://www.w3.org/2000/svg">
<g clip-path="url(#clip0_10944_62664)">
<path d="M44.3155 12.4712H89.3919C92.1339 12.4712 94.6663 13.9382 96.0396 16.3209L118.576 55.5C119.949 57.8827 119.949 60.8214 118.576 63.2041L96.0396 102.383C94.6663 104.766 92.1339 106.233 89.3919 106.233H44.3155C41.5736 106.233 39.0411 104.766 37.6678 102.383L15.1319 63.2041C13.7587 60.8214 13.7587 57.8827 15.1319 55.5L37.6678 16.3209C39.0411 13.9382 41.5736 12.4712 44.3155 12.4712Z" fill="#FFCFDC"/>
<path d="M44.3155 12.4712H89.3919C92.1339 12.4712 94.6663 13.9382 96.0396 16.3209L118.576 55.5C119.949 57.8827 119.949 60.8214 118.576 63.2041L96.0396 102.383C94.6663 104.766 92.1339 106.233 89.3919 106.233H44.3155C41.5736 106.233 39.0411 104.766 37.6678 102.383L15.1319 63.2041C13.7587 60.8214 13.7587 57.8827 15.1319 55.5L37.6678 16.3209C39.0411 13.9382 41.5736 12.4712 44.3155 12.4712Z" fill="url(#paint0_linear_10944_62664)"/>
<path d="M40.6012 105.887C41.5043 106.411 42.5377 106.7 43.6177 106.7H90.5935C92.7489 106.7 94.7367 105.546 95.8167 103.673L106.096 85.3931" stroke="#221A15" stroke-width="2" stroke-linecap="round" stroke-linejoin="round"/>
<path d="M40.8945 13.5903C39.8657 14.1136 38.9905 14.9265 38.3947 15.9637L14.9045 56.792C13.8291 58.6655 13.8291 60.9688 14.9045 62.8422L34.1072 96.2234" stroke="#221A15" stroke-width="2" stroke-linecap="round" stroke-linejoin="round"/>
<path d="M113.049 73.7129L119.301 62.8459C120.376 60.9724 120.376 58.6692 119.301 56.7957L95.8107 15.9674C94.7353 14.0939 92.7429 12.9399 90.5875 12.9399H54.1931" stroke="#221A15" stroke-width="2" stroke-linecap="round" stroke-linejoin="round"/>
<path d="M48.2746 34.9712C48.7946 34.9712 49.2796 35.1212 49.7296 35.4212C50.1896 35.7212 50.5596 36.1262 50.8396 36.6362C51.1196 37.1462 51.2596 37.7162 51.2596 38.3462C51.2596 38.9662 51.1196 39.5312 50.8396 40.0412C50.5596 40.5512 50.1896 40.9612 49.7296 41.2712C49.2796 41.5712 48.7946 41.7212 48.2746 41.7212H45.5146L45.6646 41.4512V44.5562C45.6646 44.8162 45.5846 45.0362 45.4246 45.2162C45.2646 45.3862 45.0546 45.4712 44.7946 45.4712C44.5446 45.4712 44.3396 45.3862 44.1796 45.2162C44.0196 45.0362 43.9396 44.8162 43.9396 44.5562V35.8862C43.9396 35.6262 44.0246 35.4112 44.1946 35.2412C44.3746 35.0612 44.5946 34.9712 44.8546 34.9712H48.2746ZM48.2746 40.0112C48.4646 40.0112 48.6496 39.9312 48.8296 39.7712C49.0096 39.6112 49.1596 39.4062 49.2796 39.1562C49.3996 38.8962 49.4596 38.6262 49.4596 38.3462C49.4596 38.0562 49.3996 37.7862 49.2796 37.5362C49.1596 37.2862 49.0096 37.0862 48.8296 36.9362C48.6496 36.7762 48.4646 36.6962 48.2746 36.6962H45.4846L45.6646 36.4262V40.2512L45.4996 40.0112H48.2746ZM63.2377 40.2212C63.2377 40.9712 63.1127 41.6712 62.8627 42.3212C62.6127 42.9712 62.2577 43.5462 61.7977 44.0462C61.3477 44.5362 60.8077 44.9212 60.1777 45.2012C59.5577 45.4812 58.8777 45.6212 58.1377 45.6212C57.3977 45.6212 56.7177 45.4812 56.0977 45.2012C55.4777 44.9212 54.9377 44.5362 54.4777 44.0462C54.0277 43.5462 53.6777 42.9712 53.4277 42.3212C53.1777 41.6712 53.0527 40.9712 53.0527 40.2212C53.0527 39.4712 53.1777 38.7712 53.4277 38.1212C53.6777 37.4712 54.0277 36.9012 54.4777 36.4112C54.9377 35.9112 55.4777 35.5212 56.0977 35.2412C56.7177 34.9612 57.3977 34.8212 58.1377 34.8212C58.8777 34.8212 59.5577 34.9612 60.1777 35.2412C60.8077 35.5212 61.3477 35.9112 61.7977 36.4112C62.2577 36.9012 62.6127 37.4712 62.8627 38.1212C63.1127 38.7712 63.2377 39.4712 63.2377 40.2212ZM61.2877 40.2212C61.2877 39.5512 61.1527 38.9462 60.8827 38.4062C60.6127 37.8562 60.2427 37.4212 59.7727 37.1012C59.3027 36.7812 58.7577 36.6212 58.1377 36.6212C57.5177 36.6212 56.9727 36.7812 56.5027 37.1012C56.0327 37.4212 55.6627 37.8512 55.3927 38.3912C55.1327 38.9312 55.0027 39.5412 55.0027 40.2212C55.0027 40.8912 55.1327 41.5012 55.3927 42.0512C55.6627 42.5912 56.0327 43.0212 56.5027 43.3412C56.9727 43.6612 57.5177 43.8212 58.1377 43.8212C58.7577 43.8212 59.3027 43.6612 59.7727 43.3412C60.2427 43.0212 60.6127 42.5912 60.8827 42.0512C61.1527 41.5012 61.2877 40.8912 61.2877 40.2212ZM67.4346 44.5562C67.4346 44.8162 67.3396 45.0362 67.1496 45.2162C66.9596 45.3862 66.7396 45.4712 66.4896 45.4712C66.2096 45.4712 65.9846 45.3862 65.8146 45.2162C65.6446 45.0362 65.5596 44.8162 65.5596 44.5562V35.8862C65.5596 35.6262 65.6496 35.4112 65.8296 35.2412C66.0096 35.0612 66.2396 34.9712 66.5196 34.9712C66.7596 34.9712 66.9696 35.0612 67.1496 35.2412C67.3396 35.4112 67.4346 35.6262 67.4346 35.8862V44.5562ZM78.2554 34.9712C78.4954 34.9712 78.6904 35.0512 78.8404 35.2112C78.9904 35.3712 79.0654 35.5712 79.0654 35.8112V44.5562C79.0654 44.8162 78.9754 45.0362 78.7954 45.2162C78.6254 45.3862 78.4104 45.4712 78.1504 45.4712C78.0204 45.4712 77.8854 45.4512 77.7454 45.4112C77.6154 45.3612 77.5154 45.2962 77.4454 45.2162L71.5504 37.7312L71.9404 37.4912V44.6312C71.9404 44.8712 71.8604 45.0712 71.7004 45.2312C71.5504 45.3912 71.3504 45.4712 71.1004 45.4712C70.8604 45.4712 70.6654 45.3912 70.5154 45.2312C70.3654 45.0712 70.2904 44.8712 70.2904 44.6312V35.8862C70.2904 35.6262 70.3754 35.4112 70.5454 35.2412C70.7254 35.0612 70.9454 34.9712 71.2054 34.9712C71.3454 34.9712 71.4904 35.0012 71.6404 35.0612C71.7904 35.1112 71.9004 35.1912 71.9704 35.3012L77.6854 42.5912L77.4304 42.7712V35.8112C77.4304 35.5712 77.5054 35.3712 77.6554 35.2112C77.8054 35.0512 78.0054 34.9712 78.2554 34.9712ZM85.4757 45.4712C85.1957 45.4712 84.9657 45.3862 84.7857 45.2162C84.6057 45.0362 84.5157 44.8162 84.5157 44.5562V35.8562H86.4657V44.5562C86.4657 44.8162 86.3707 45.0362 86.1807 45.2162C86.0007 45.3862 85.7657 45.4712 85.4757 45.4712ZM82.1607 36.6962C81.9007 36.6962 81.6807 36.6162 81.5007 36.4562C81.3307 36.2962 81.2457 36.0862 81.2457 35.8262C81.2457 35.5662 81.3307 35.3612 81.5007 35.2112C81.6807 35.0512 81.9007 34.9712 82.1607 34.9712H88.8207C89.0807 34.9712 89.2957 35.0512 89.4657 35.2112C89.6457 35.3712 89.7357 35.5812 89.7357 35.8412C89.7357 36.1012 89.6457 36.3112 89.4657 36.4712C89.2957 36.6212 89.0807 36.6962 88.8207 36.6962H82.1607Z" fill="#EB537B"/>
<path d="M57.9435 82.9112C55.4209 82.9112 53.2795 82.2512 51.5195 80.9312C49.7889 79.5819 48.4689 77.7192 47.5595 75.3432C46.6502 72.9379 46.1955 70.1805 46.1955 67.0712C46.1955 63.9325 46.6502 61.1752 47.5595 58.7992C48.4689 56.4232 49.7889 54.5752 51.5195 53.2552C53.2795 51.9059 55.4209 51.2312 57.9435 51.2312C60.4662 51.2312 62.5929 51.9059 64.3235 53.2552C66.0835 54.5752 67.4182 56.4232 68.3275 58.7992C69.2369 61.1752 69.6915 63.9325 69.6915 67.0712C69.6915 70.1805 69.2369 72.9379 68.3275 75.3432C67.4182 77.7192 66.0835 79.5819 64.3235 80.9312C62.5929 82.2512 60.4662 82.9112 57.9435 82.9112ZM57.9435 77.6312C59.1755 77.6312 60.2315 77.2499 61.1115 76.4872C62.0209 75.6952 62.7249 74.5219 63.2235 72.9672C63.7222 71.3832 63.9715 69.4179 63.9715 67.0712C63.9715 64.6952 63.7222 62.7299 63.2235 61.1752C62.7249 59.6205 62.0209 58.4619 61.1115 57.6992C60.2315 56.9072 59.1755 56.5112 57.9435 56.5112C56.7409 56.5112 55.6849 56.9072 54.7755 57.6992C53.8662 58.4619 53.1622 59.6205 52.6635 61.1752C52.1649 62.7299 51.9155 64.6952 51.9155 67.0712C51.9155 69.4179 52.1649 71.3832 52.6635 72.9672C53.1622 74.5219 53.8662 75.6952 54.7755 76.4872C55.6849 77.2499 56.7409 77.6312 57.9435 77.6312ZM81.9349 82.4712C81.1136 82.4712 80.4389 82.2219 79.9109 81.7232C79.3829 81.1952 79.1189 80.5499 79.1189 79.7872V57.6112L79.7349 58.5792L76.5229 60.9552C76.1122 61.2779 75.5989 61.4392 74.9829 61.4392C74.2789 61.4392 73.6629 61.1752 73.1349 60.6472C72.6069 60.1192 72.3429 59.4885 72.3429 58.7552C72.3429 57.8165 72.7976 57.0539 73.7069 56.4672L80.0429 52.2432C80.3362 52.0379 80.6589 51.8912 81.0109 51.8032C81.3922 51.7152 81.7442 51.6712 82.0669 51.6712C82.9176 51.6712 83.5922 51.9352 84.0909 52.4632C84.5896 52.9619 84.8389 53.5925 84.8389 54.3552V79.7872C84.8389 80.5499 84.5602 81.1952 84.0029 81.7232C83.4749 82.2219 82.7856 82.4712 81.9349 82.4712Z" fill="#EB537B"/>
<g clip-path="url(#clip1_10944_62664)">
<path d="M1 11.9712C7.3346 13.9032 8.752 15.4725 10.5 22.4712C12.248 15.4725 13.6654 13.9032 20 11.9712C13.6654 10.0392 12.248 8.46992 10.5 1.47119C8.752 8.46992 7.3346 10.0392 1 11.9712Z" fill="#FFE236" stroke="black" stroke-linecap="round" stroke-linejoin="round"/>
<path d="M13 28.4712C16.6685 29.573 17.488 30.473 18.5 34.4712C19.512 30.473 20.3315 29.573 24 28.4712C20.3315 27.3639 19.512 26.4694 18.5 22.4712C17.488 26.4694 16.6685 27.3639 13 28.4712Z" fill="#FFE236" stroke="black" stroke-linecap="round" stroke-linejoin="round"/>
</g>
</g>
<defs>
<linearGradient id="paint0_linear_10944_62664" x1="25.5" y1="4.97119" x2="47.1726" y2="117.401" gradientUnits="userSpaceOnUse">
<stop stop-color="#FFD8E8"/>
<stop offset="0.5" stop-color="#FFCABA"/>
<stop offset="1" stop-color="#FFEF9B"/>
</linearGradient>
<clipPath id="clip0_10944_62664">
<rect width="122" height="108" fill="white" transform="translate(0 0.471191)"/>
</clipPath>
<clipPath id="clip1_10944_62664">
<rect width="25" height="35" fill="white" transform="matrix(-1 0 0 1 25 0.471191)"/>
</clipPath>
</defs>
</svg>
