<svg width="45" height="45" viewBox="0 0 45 45" fill="none" xmlns="http://www.w3.org/2000/svg">
<path d="M9.327 26.5116C13.8374 31.4106 20.8126 31.1187 25.9456 25.839C31.1674 20.6481 31.3834 13.6804 26.4284 9.22561C21.5749 4.6947 14.5743 4.96124 9.7844 9.87289C4.91826 14.7084 4.72768 21.7015 9.3143 26.4989L9.327 26.5116Z" fill="#221A15"/>
<path d="M32.8193 42.4139C35.3476 45.1553 39.2481 44.9903 42.1323 42.0459C45.0545 39.1395 45.1688 35.2432 42.4118 32.7429C39.6928 30.2046 35.7796 30.3569 33.0988 33.111C30.3798 35.8143 30.2655 39.736 32.832 42.4266L32.8193 42.4139Z" fill="#221A15"/>
<path d="M4.32701 21.5116C8.83739 26.4106 15.8126 26.1187 20.9456 20.839C26.1674 15.6481 26.3834 8.68037 21.4284 4.22561C16.5749 -0.3053 9.5743 -0.0387635 4.7844 4.87289C-0.0817351 9.7084 -0.272315 16.7015 4.3143 21.4989L4.32701 21.5116Z" fill="white"/>
<path d="M27.8193 37.4139C30.3476 40.1553 34.2481 39.9903 37.1323 37.0459C40.0545 34.1395 40.1688 30.2432 37.4118 27.7429C34.6928 25.2046 30.7796 25.3569 28.0988 28.111C25.3798 30.8143 25.2655 34.736 27.832 37.4266L27.8193 37.4139Z" fill="white"/>
<path d="M4.32701 21.5116C8.83739 26.4106 15.8126 26.1187 20.9456 20.839C26.1674 15.6481 26.3834 8.68037 21.4284 4.22561C16.5749 -0.3053 9.5743 -0.0387635 4.7844 4.87289C-0.0817347 9.7084 -0.272315 16.7015 4.3143 21.4989L4.32701 21.5116Z" stroke="#221A15" stroke-width="2" stroke-linecap="round" stroke-linejoin="round"/>
<path d="M27.8193 37.4139C30.3476 40.1553 34.2481 39.9903 37.1323 37.0459C40.0545 34.1395 40.1688 30.2432 37.4118 27.7429C34.6928 25.2046 30.7796 25.3569 28.0988 28.111C25.3798 30.8143 25.2655 34.736 27.832 37.4266L27.8193 37.4139Z" stroke="#221A15" stroke-width="2" stroke-linecap="round" stroke-linejoin="round"/>
</svg>
