<svg width="254" height="97" viewBox="0 0 254 97" fill="none" xmlns="http://www.w3.org/2000/svg">
<path d="M122.396 91.8891L143.002 70.7366H219.009C235.424 70.7366 248.744 57.4322 248.744 41.0011C248.744 24.57 235.44 11.2656 219.009 11.2656H47.4366C31.0212 11.2656 17.7012 24.57 17.7012 41.0011C17.7012 57.4322 31.0212 70.7366 47.4366 70.7366H121.786L122.412 91.8891H122.396Z" fill="white"/>
<path d="M67.3875 50.2738C67.3875 51.1743 67.1623 51.9997 66.7121 52.7502C66.2618 53.5006 65.6615 54.1009 64.9111 54.5512C64.1857 55.0014 63.3602 55.2266 62.4347 55.2266H54.7053C54.2301 55.2266 53.8298 55.064 53.5047 54.7388C53.1795 54.3886 53.0169 53.9759 53.0169 53.5006V52.4875C53.0169 52.0123 53.1795 51.612 53.5047 51.2868C53.8298 50.9367 54.2301 50.7616 54.7053 50.7616H62.4347C62.7599 50.7616 62.9224 50.599 62.9224 50.2738V35.8657C62.9224 35.5155 62.7599 35.3404 62.4347 35.3404H54.7053C54.2301 35.3404 53.8298 35.1778 53.5047 34.8526C53.1795 34.5274 53.0169 34.1272 53.0169 33.6519V32.6013C53.0169 32.1261 53.1795 31.7258 53.5047 31.4007C53.8298 31.0505 54.2301 30.8754 54.7053 30.8754H62.4347C63.3602 30.8754 64.1857 31.1005 64.9111 31.5507C65.6615 32.001 66.2618 32.6013 66.7121 33.3518C67.1623 34.1022 67.3875 34.9402 67.3875 35.8657V50.2738ZM87.4554 50.2738C87.4554 51.1743 87.2303 51.9997 86.78 52.7502C86.3298 53.5006 85.7294 54.1009 84.979 54.5512C84.2536 55.0014 83.4281 55.2266 82.5026 55.2266H74.7733C74.298 55.2266 73.8978 55.064 73.5726 54.7388C73.2474 54.3886 73.0848 53.9759 73.0848 53.5006V52.4875C73.0848 52.0123 73.2474 51.612 73.5726 51.2868C73.8978 50.9367 74.298 50.7616 74.7733 50.7616H82.5026C82.8278 50.7616 82.9904 50.599 82.9904 50.2738V35.8657C82.9904 35.5155 82.8278 35.3404 82.5026 35.3404H74.7733C74.298 35.3404 73.8978 35.1778 73.5726 34.8526C73.2474 34.5274 73.0848 34.1272 73.0848 33.6519V32.6013C73.0848 32.1261 73.2474 31.7258 73.5726 31.4007C73.8978 31.0505 74.298 30.8754 74.7733 30.8754H82.5026C83.4281 30.8754 84.2536 31.1005 84.979 31.5507C85.7294 32.001 86.3298 32.6013 86.78 33.3518C87.2303 34.1022 87.4554 34.9402 87.4554 35.8657V50.2738ZM113.714 33.9896C113.714 34.2398 113.627 34.4524 113.452 34.6275C113.302 34.7776 113.101 34.8526 112.851 34.8526H111.838C111.588 34.8526 111.375 34.7776 111.2 34.6275C111.05 34.4524 110.975 34.2398 110.975 33.9896V30.7253C110.975 30.5002 111.05 30.3126 111.2 30.1625C111.375 29.9874 111.588 29.8998 111.838 29.8998H112.851C113.101 29.8998 113.302 29.9874 113.452 30.1625C113.627 30.3126 113.714 30.5002 113.714 30.7253V33.9896ZM110.3 33.9896C110.3 34.2398 110.212 34.4524 110.037 34.6275C109.862 34.7776 109.662 34.8526 109.437 34.8526H108.386C108.161 34.8526 107.961 34.7776 107.786 34.6275C107.611 34.4524 107.523 34.2398 107.523 33.9896V30.7253C107.523 30.5002 107.611 30.3126 107.786 30.1625C107.961 29.9874 108.161 29.8998 108.386 29.8998H109.437C109.662 29.8998 109.862 29.9874 110.037 30.1625C110.212 30.3126 110.3 30.5002 110.3 30.7253V33.9896ZM107.486 50.2738C107.486 51.1743 107.261 51.9997 106.81 52.7502C106.36 53.5006 105.76 54.1009 105.009 54.5512C104.284 55.0014 103.459 55.2266 102.533 55.2266H101.783C101.307 55.2266 100.895 55.064 100.544 54.7388C100.219 54.3886 100.057 53.9759 100.057 53.5006V52.4875C100.057 52.0123 100.219 51.612 100.544 51.2868C100.895 50.9367 101.307 50.7616 101.783 50.7616H102.533C102.883 50.7616 103.058 50.599 103.058 50.2738V37.0664C103.058 36.7412 102.896 36.5786 102.571 36.5786H101.482C101.182 36.5786 100.995 36.7412 100.92 37.0664L97.9554 53.8008C97.9054 54.201 97.7178 54.5387 97.3926 54.8138C97.0674 55.089 96.6922 55.2266 96.267 55.2266H95.2539C94.7036 55.2266 94.2659 55.0264 93.9407 54.6262C93.5905 54.176 93.4654 53.7132 93.5655 53.2379L96.4171 37.0664C96.4671 36.7412 96.3295 36.5786 96.0043 36.5786H94.8412C94.3659 36.5786 93.9532 36.416 93.603 36.0908C93.2778 35.7406 93.1152 35.3279 93.1152 34.8526V33.8395C93.1152 33.3643 93.2778 32.964 93.603 32.6389C93.9532 32.2887 94.3659 32.1136 94.8412 32.1136H96.7923C97.1175 32.1136 97.3051 31.951 97.3551 31.6258L97.4301 31.2881C97.5052 30.8879 97.7053 30.5627 98.0305 30.3126C98.3557 30.0374 98.7184 29.8998 99.1186 29.8998H100.169C100.694 29.8998 101.12 30.0999 101.445 30.5002C101.77 30.8504 101.908 31.2381 101.858 31.6633C101.858 31.9635 102.008 32.1136 102.308 32.1136H103.321C104.096 32.1136 104.797 32.3012 105.422 32.6764C106.047 33.0516 106.548 33.5519 106.923 34.1772C107.298 34.8026 107.486 35.503 107.486 36.2784V50.2738ZM113.677 41.7565C113.777 42.2818 113.652 42.7445 113.302 43.1448C113.001 43.545 112.564 43.7451 111.988 43.7451H110.938C110.538 43.7451 110.175 43.6075 109.85 43.3324C109.524 43.0572 109.324 42.7195 109.249 42.3193L108.424 37.254C108.349 36.7287 108.474 36.2659 108.799 35.8657C109.149 35.4655 109.587 35.2653 110.112 35.2653H111.163C111.588 35.2653 111.951 35.4029 112.251 35.6781C112.576 35.9282 112.776 36.2659 112.851 36.6911L113.677 41.7565ZM136.036 34.8526C136.036 35.3279 135.873 35.7281 135.548 36.0533C135.223 36.3785 134.81 36.5411 134.31 36.5411H133.672C133.347 36.5411 133.184 36.7036 133.184 37.0288V53.5006C133.184 53.9759 133.022 54.3886 132.696 54.7388C132.371 55.064 131.971 55.2266 131.496 55.2266H130.445C129.97 55.2266 129.57 55.064 129.245 54.7388C128.919 54.3886 128.757 53.9759 128.757 53.5006V37.0288C128.757 36.7036 128.594 36.5411 128.269 36.5411H127.744C127.418 36.5411 127.256 36.7036 127.256 37.0288V45.5836C127.256 46.7843 127.043 47.9475 126.618 49.0731C126.193 50.1737 125.567 51.1618 124.742 52.0373L122.341 54.6637C122.015 55.039 121.59 55.2266 121.065 55.2266C120.865 55.2266 120.665 55.189 120.465 55.114C119.739 54.8388 119.376 54.301 119.376 53.5006V51.9997C119.376 51.5245 119.527 51.1368 119.827 50.8366L121.478 49.0356C122.378 48.06 122.828 46.9094 122.828 45.5836V37.0288C122.828 36.7036 122.666 36.5411 122.341 36.5411H121.065C120.59 36.5411 120.189 36.3785 119.864 36.0533C119.539 35.7281 119.376 35.3279 119.376 34.8526V33.802C119.376 33.3267 119.539 32.9265 119.864 32.6013C120.189 32.2762 120.59 32.1136 121.065 32.1136H128.269C128.394 32.1136 128.507 32.0635 128.607 31.9635C128.707 31.8384 128.757 31.7133 128.757 31.5883C128.757 31.113 128.919 30.7128 129.245 30.3876C129.57 30.0374 129.97 29.8623 130.445 29.8623H131.496C131.971 29.8623 132.371 30.0374 132.696 30.3876C133.022 30.7128 133.184 31.113 133.184 31.5883C133.184 31.7133 133.234 31.8384 133.334 31.9635C133.434 32.0635 133.547 32.1136 133.672 32.1136H134.31C134.81 32.1136 135.223 32.2762 135.548 32.6013C135.873 32.9265 136.036 33.3267 136.036 33.802V34.8526ZM158.412 38.0044C158.412 39.8054 157.824 41.3688 156.649 42.6945L153.384 46.4091C153.159 46.6342 153.159 46.8719 153.384 47.122L157.999 52.375C158.475 52.9503 158.575 53.5631 158.3 54.2135C157.974 54.8889 157.449 55.2266 156.724 55.2266H155.335C154.835 55.2266 154.41 55.039 154.06 54.6637L150.383 50.4989C150.183 50.2738 149.97 50.2738 149.745 50.4989L146.068 54.6637C145.768 55.039 145.342 55.2266 144.792 55.2266H143.441C143.116 55.2266 142.803 55.139 142.503 54.9639C142.203 54.7888 141.99 54.5387 141.865 54.2135C141.59 53.5631 141.678 52.9503 142.128 52.375L153.309 39.7679C153.735 39.2676 153.947 38.6798 153.947 38.0044V36.0533C153.947 35.8532 153.885 35.6906 153.76 35.5655C153.634 35.4154 153.472 35.3404 153.272 35.3404H143.441C142.966 35.3404 142.553 35.1778 142.203 34.8526C141.878 34.5274 141.715 34.1272 141.715 33.6519V32.6013C141.715 32.1261 141.878 31.7258 142.203 31.4007C142.553 31.0755 142.966 30.9129 143.441 30.9129H153.272C154.222 30.9129 155.085 31.1505 155.861 31.6258C156.636 32.076 157.249 32.6889 157.699 33.4643C158.175 34.2398 158.412 35.1027 158.412 36.0533V38.0044ZM180.789 38.0044C180.789 39.8054 180.201 41.3688 179.025 42.6945L175.761 46.4091C175.536 46.6342 175.536 46.8719 175.761 47.122L180.376 52.375C180.851 52.9503 180.951 53.5631 180.676 54.2135C180.351 54.8889 179.825 55.2266 179.1 55.2266H177.712C177.212 55.2266 176.786 55.039 176.436 54.6637L172.759 50.4989C172.559 50.2738 172.346 50.2738 172.121 50.4989L168.444 54.6637C168.144 55.039 167.719 55.2266 167.168 55.2266H165.818C165.492 55.2266 165.18 55.139 164.88 54.9639C164.579 54.7888 164.367 54.5387 164.242 54.2135C163.967 53.5631 164.054 52.9503 164.504 52.375L175.686 39.7679C176.111 39.2676 176.324 38.6798 176.324 38.0044V36.0533C176.324 35.8532 176.261 35.6906 176.136 35.5655C176.011 35.4154 175.848 35.3404 175.648 35.3404H165.818C165.342 35.3404 164.93 35.1778 164.579 34.8526C164.254 34.5274 164.092 34.1272 164.092 33.6519V32.6013C164.092 32.1261 164.254 31.7258 164.579 31.4007C164.93 31.0755 165.342 30.9129 165.818 30.9129H175.648C176.599 30.9129 177.462 31.1505 178.237 31.6258C179.013 32.076 179.625 32.6889 180.076 33.4643C180.551 34.2398 180.789 35.1027 180.789 36.0533V38.0044ZM203.165 49.5609C203.165 50.3113 202.815 50.8366 202.114 51.1368C201.889 51.2118 201.664 51.2493 201.439 51.2493C200.964 51.2493 200.563 51.0867 200.238 50.7616L196.861 47.4222C196.786 47.3471 196.686 47.3221 196.561 47.3471C196.461 47.3471 196.386 47.4097 196.336 47.5347L194.91 51.1368C194.41 52.3625 193.597 53.3505 192.471 54.1009C191.371 54.8514 190.158 55.2266 188.832 55.2266H188.194C187.719 55.2266 187.318 55.064 186.993 54.7388C186.668 54.3886 186.506 53.9759 186.506 53.5006V52.4875C186.506 52.0123 186.668 51.612 186.993 51.2868C187.318 50.9367 187.719 50.7616 188.194 50.7616H188.832C189.782 50.7616 190.433 50.3238 190.783 49.4483L192.922 44.1203C193.047 43.8201 192.997 43.5575 192.772 43.3324L186.993 37.5916C186.668 37.2164 186.506 36.8162 186.506 36.391V34.9276C186.506 34.1772 186.856 33.6519 187.556 33.3518C188.231 33.0766 188.857 33.2017 189.432 33.727L194.573 38.8298C194.648 38.9299 194.748 38.9674 194.873 38.9424C194.998 38.8924 195.073 38.8173 195.098 38.7173L198.25 30.9504C198.525 30.225 199.05 29.8623 199.826 29.8623H200.951C201.551 29.8623 202.014 30.1124 202.339 30.6127C202.69 31.138 202.752 31.6758 202.527 32.2261L198.512 42.1317C198.387 42.4569 198.45 42.7195 198.7 42.9196L202.677 46.8969C203.002 47.2221 203.165 47.6223 203.165 48.0976V49.5609ZM213.91 46.5967C213.91 47.072 213.735 47.4722 213.384 47.7974C213.059 48.1226 212.659 48.2852 212.184 48.2852H211.171C210.695 48.2852 210.283 48.1226 209.932 47.7974C209.607 47.4722 209.445 47.072 209.445 46.5967V31.5883C209.445 31.088 209.607 30.6753 209.932 30.3501C210.283 30.0249 210.695 29.8623 211.171 29.8623H212.184C212.659 29.8623 213.059 30.0249 213.384 30.3501C213.735 30.6753 213.91 31.088 213.91 31.5883V46.5967ZM214.51 52.4125C214.51 53.1879 214.222 53.8508 213.647 54.4011C213.097 54.9514 212.446 55.2266 211.696 55.2266C210.921 55.2266 210.245 54.9514 209.67 54.4011C209.119 53.8508 208.844 53.1879 208.844 52.4125C208.844 51.637 209.119 50.9742 209.67 50.4239C210.245 49.8736 210.921 49.5984 211.696 49.5984C212.446 49.5984 213.097 49.8736 213.647 50.4239C214.222 50.9742 214.51 51.637 214.51 52.4125Z" fill="url(#paint0_linear_10944_61225)"/>
<path d="M122.174 91.6684L142.779 70.5159H218.786C235.201 70.5159 248.521 57.2115 248.521 40.7804C248.521 24.3493 235.217 11.0449 218.786 11.0449H47.1984C30.7829 11.0449 17.4629 24.3493 17.4629 40.7804C17.4629 57.2115 30.7672 70.5159 47.1984 70.5159H121.548" stroke="#414141" stroke-width="2" stroke-linecap="round" stroke-linejoin="round"/>
<path d="M10.4292 26.9092L1.44922 26.9199" stroke="#414141" stroke-width="1.56338" stroke-linecap="round" stroke-linejoin="round"/>
<path d="M12.2929 21.0261L1.32617 17.0254" stroke="#414141" stroke-width="1.56338" stroke-linecap="round" stroke-linejoin="round"/>
<path d="M14.7756 15.2841L7.41211 10.1406" stroke="#414141" stroke-width="1.56338" stroke-linecap="round" stroke-linejoin="round"/>
<path d="M19.0472 11.67L11.9922 2.36914" stroke="#414141" stroke-width="1.56338" stroke-linecap="round" stroke-linejoin="round"/>
<path d="M24.3843 9.83709L21.3027 1.4043" stroke="#414141" stroke-width="1.56338" stroke-linecap="round" stroke-linejoin="round"/>
<defs>
<linearGradient id="paint0_linear_10944_61225" x1="51.4785" y1="12.2266" x2="220.757" y2="41.4021" gradientUnits="userSpaceOnUse">
<stop stop-color="#FF87B2"/>
<stop offset="0.5" stop-color="#FE7E6C"/>
<stop offset="1" stop-color="#FFC075"/>
</linearGradient>
</defs>
</svg>
