<svg width="178" height="162" viewBox="0 0 178 162" fill="none" xmlns="http://www.w3.org/2000/svg">
<path d="M176.448 84.7158C177.192 84.9154 177.873 84.2331 177.672 83.4889L155.368 1.00281C155.168 0.261559 154.241 0.0132584 153.697 0.55495L93.153 60.8341C92.6068 61.3779 92.8553 62.3092 93.5998 62.5088L117.739 68.9792C118.322 69.1353 118.648 69.7351 118.415 70.2912C108.05 95.0357 74.64 157.009 1.53992 151.642C0.31323 151.552 -0.190362 153.615 0.985678 153.975C46.2253 167.84 100.681 172.52 151.136 78.7509C151.356 78.3417 151.838 78.1192 152.287 78.2395L176.448 84.7158Z" fill="url(#paint0_linear_10944_61296)"/>
<defs>
<linearGradient id="paint0_linear_10944_61296" x1="118.01" y1="-10.5538" x2="68.9784" y2="172.369" gradientUnits="userSpaceOnUse">
<stop stop-color="#FF7575"/>
<stop offset="1" stop-color="#FFE99B"/>
</linearGradient>
</defs>
</svg>
