<svg width="175" height="152" viewBox="0 0 175 152" fill="none" xmlns="http://www.w3.org/2000/svg">
<g clip-path="url(#clip0_10944_60776)">
<path d="M134.903 37.375C142.394 45.1298 149.184 53.6086 154.23 63.0492C156.736 67.7639 158.834 72.6887 160.33 77.7794C161.832 82.87 162.726 88.1209 162.886 93.3994C163.057 98.678 162.494 103.962 161.219 109.086C159.949 114.21 157.978 119.157 155.433 123.799C150.338 133.102 143.001 141.144 134.527 147.628" stroke="#56C7C7" stroke-width="0.8" stroke-miterlimit="10"/>
<path d="M125.231 28.2659C125.231 28.2659 125.209 29.3437 125.479 30.6868C125.755 32.0355 126.324 33.6439 127.555 34.7604C129.393 36.4905 132.247 36.6784 133.534 36.6729C132.75 35.9488 131.933 35.1805 131.105 34.2795C130.685 33.8318 130.282 33.3344 129.846 32.8259C129.41 32.3174 128.968 31.7646 128.527 31.1566C129.084 31.6817 129.603 32.1737 130.094 32.6435C130.58 33.1188 131.044 33.5665 131.491 33.9921C132.391 34.8433 133.258 35.584 134.18 36.2583C134.196 35.175 134.047 31.947 131.994 30.007C130.713 28.8462 129.012 28.4041 127.643 28.2603C126.274 28.1166 125.231 28.2714 125.231 28.2714V28.2659Z" fill="#56C7C7"/>
<path d="M137.647 133.295C137.647 133.295 138.475 133.892 139.32 134.865C140.148 135.832 141.042 137.23 140.982 138.778C140.943 139.966 140.402 141.116 139.734 142.061C139.038 142.973 138.238 143.692 137.73 144.106C138.001 142.094 138.21 139.928 137.614 137.225C137.68 140.033 137.476 142.111 136.935 144.244C136.179 143.509 134.214 141.221 134.357 138.728C134.401 137.965 134.639 137.258 134.964 136.622C135.268 135.965 135.671 135.379 136.068 134.892C136.466 134.4 136.88 134.019 137.161 133.737C137.449 133.455 137.636 133.295 137.636 133.295H137.647Z" fill="#56C7C7"/>
<path d="M130.216 42.1011C130.216 42.1011 130.675 41.482 131.42 40.8796C132.165 40.2771 133.203 39.6801 134.384 39.752C136.19 39.857 137.807 41.4654 138.459 42.2116C136.935 42.0458 135.262 41.9187 133.231 42.2945C135.345 42.3388 136.985 42.4217 138.574 42.8141C138.033 43.4055 136.416 44.92 134.484 44.815C133.302 44.7486 132.237 44.0743 131.464 43.4166C130.691 42.7588 130.211 42.1066 130.211 42.1066L130.216 42.1011Z" fill="#56C7C7"/>
<path d="M136.785 49.3692C136.785 49.3692 137.282 48.7888 138.077 48.2416C138.866 47.6944 139.954 47.1694 141.146 47.3075C142.957 47.5286 144.387 49.2918 144.972 50.0822C143.476 49.7893 141.836 49.5295 139.805 49.7451C141.886 49.9496 143.487 50.1762 145.049 50.6847C144.47 51.2208 142.703 52.6192 140.81 52.3539C139.65 52.1936 138.662 51.4419 137.967 50.7289C137.243 50.0325 136.785 49.3747 136.785 49.3747V49.3692Z" fill="#56C7C7"/>
<path d="M142.691 57.0362C142.691 57.0362 143.238 56.5056 144.077 56.0247C144.911 55.5438 146.037 55.1237 147.202 55.3614C147.649 55.4554 148.068 55.6378 148.46 55.8699C148.841 56.1076 149.167 56.4116 149.471 56.7211C150.067 57.3457 150.503 58.0256 150.751 58.4512C149.294 58.02 147.71 57.6 145.661 57.6442C147.715 58.02 149.261 58.4014 150.762 59.0536C150.133 59.529 148.24 60.745 146.396 60.3139C145.253 60.0596 144.403 59.2084 143.735 58.4677C143.072 57.7216 142.697 57.0307 142.697 57.0307L142.691 57.0362Z" fill="#56C7C7"/>
<path d="M147.841 65.6026C147.841 65.6026 148.471 65.1162 149.393 64.7183C150.315 64.3148 151.524 63.9997 152.705 64.3811C154.51 64.9615 155.559 67.0673 155.984 67.9904C154.527 67.3658 152.915 66.7523 150.811 66.5588C152.871 67.1834 154.444 67.7527 155.923 68.6095C155.211 69.0185 153.091 70.0244 151.231 69.3667C150.094 68.9687 149.271 68.0291 148.736 67.1779C148.145 66.3488 147.836 65.6026 147.836 65.6026H147.841Z" fill="#56C7C7"/>
<path d="M152.027 74.6613C152.027 74.6613 152.723 74.2633 153.706 73.9814C154.688 73.6995 155.963 73.5392 157.051 74.0864C158.724 74.9266 159.629 77.143 159.811 78.1545C158.514 77.2978 156.93 76.4742 154.826 76.0044C155.831 76.4466 156.714 76.8666 157.52 77.3088C158.31 77.751 158.978 78.2263 159.64 78.7735C158.862 79.0831 156.576 79.7574 154.865 78.8399C153.827 78.2761 153.065 77.2591 152.646 76.3471C152.43 75.8938 152.281 75.4738 152.187 75.1642C152.088 74.8547 152.027 74.6668 152.027 74.6668V74.6613Z" fill="#56C7C7"/>
<path d="M154.986 83.7213C154.986 83.7213 155.698 83.4505 156.654 83.3289C157.609 83.2073 158.801 83.2404 159.773 83.8982C161.318 84.8986 161.639 87.1095 161.754 88.0658C160.595 87.0874 159.348 86.0815 157.443 85.3463C159.182 86.4518 160.407 87.4135 161.517 88.6074C160.75 88.7788 158.514 89.0607 157.018 87.9663C156.56 87.6291 156.212 87.2035 155.952 86.7447C155.82 86.5126 155.715 86.2804 155.621 86.0428C155.511 85.8106 155.422 85.5785 155.345 85.3519C155.042 84.462 154.986 83.7213 154.986 83.7213Z" fill="#56C7C7"/>
<path d="M155.506 92.946C155.506 92.946 156.339 92.7857 157.421 92.8244C158.509 92.8686 159.823 93.1229 160.739 94.0293C161.446 94.7258 161.821 95.7041 162.02 96.6382C162.169 97.5723 162.119 98.4622 162.07 98.9983C161.551 98.3406 160.988 97.6718 160.331 97.0251C159.668 96.3784 158.829 95.7428 157.857 95.1624C159.613 96.7045 160.739 98.0034 161.689 99.5511C160.805 99.5732 158.288 99.4018 156.88 97.915C156.444 97.4618 156.179 96.9256 155.969 96.3784C155.743 95.8312 155.622 95.273 155.555 94.7645C155.489 94.2559 155.484 93.8027 155.495 93.4766C155.506 93.1505 155.511 92.946 155.511 92.946H155.506Z" fill="#56C7C7"/>
<path d="M154.407 102.568C154.407 102.568 155.334 102.568 156.482 102.845C157.625 103.116 159.016 103.668 159.789 104.829C160.391 105.719 160.595 106.846 160.595 107.886C160.54 108.914 160.308 109.853 160.143 110.417C159.309 108.775 158.354 107.073 156.471 105.409C157.228 106.41 157.879 107.333 158.365 108.217C158.867 109.107 159.287 109.986 159.624 110.915C158.68 110.749 156.03 110.003 154.837 108.112C154.473 107.532 154.285 106.907 154.197 106.288C154.07 105.664 154.059 105.045 154.092 104.497C154.131 103.95 154.219 103.469 154.296 103.127C154.357 102.778 154.407 102.568 154.407 102.568Z" fill="#56C7C7"/>
<path d="M150.851 114.801C150.851 114.801 151.762 115.038 152.817 115.591C153.866 116.144 155.097 117.039 155.566 118.382C155.93 119.411 155.853 120.571 155.588 121.599C155.284 122.605 154.821 123.479 154.523 123.993C154.103 122.169 153.584 120.245 152.16 118.134C152.403 118.72 152.623 119.283 152.828 119.825C153.032 120.367 153.17 120.875 153.314 121.384C153.59 122.39 153.783 123.357 153.888 124.363C152.999 123.971 150.564 122.6 149.869 120.428C149.653 119.764 149.626 119.09 149.698 118.449C149.736 117.797 149.88 117.178 150.056 116.641C150.233 116.105 150.443 115.652 150.608 115.326C150.752 114.994 150.857 114.801 150.857 114.801H150.851Z" fill="#56C7C7"/>
<path d="M145.385 124.324C145.385 124.324 146.268 124.744 147.229 125.517C148.19 126.291 149.216 127.419 149.459 128.906C149.553 129.475 149.526 130.055 149.415 130.614C149.288 131.161 149.078 131.691 148.835 132.183C148.344 133.162 147.748 134.002 147.306 134.444C147.301 133.499 147.201 132.465 147.019 131.398C146.832 130.326 146.544 129.204 146.059 128.01C146.296 129.293 146.467 130.448 146.567 131.548C146.616 132.095 146.649 132.631 146.655 133.151C146.649 133.665 146.616 134.173 146.567 134.687C145.727 134.112 143.519 132.277 143.254 129.928C143.044 128.463 143.635 127.109 144.198 126.059C144.75 125.009 145.385 124.312 145.385 124.312V124.324Z" fill="#56C7C7"/>
<path d="M154.307 147.566C154.307 147.566 153.766 146.251 152.651 144.913C151.541 143.575 149.846 142.221 147.704 141.984C146.887 141.89 146.065 141.967 145.264 142.144C144.447 142.299 143.658 142.558 142.929 142.868C141.488 143.498 140.213 144.233 139.457 144.725C140.776 144.974 142.2 145.261 143.696 145.621C145.192 145.98 146.804 146.45 148.56 147.152C146.628 146.826 144.939 146.544 143.376 146.284C141.803 146.013 140.357 145.82 138.91 145.726C139.192 146.389 139.777 147.649 140.71 148.843C141.648 150.037 142.935 151.159 144.69 151.485C145.767 151.684 146.92 151.562 148.047 151.264C149.156 150.943 150.222 150.418 151.16 149.888C151.629 149.617 152.066 149.346 152.446 149.081C152.822 148.804 153.153 148.545 153.429 148.323C153.976 147.876 154.296 147.572 154.296 147.572L154.307 147.566Z" fill="#56C7C7"/>
<path d="M163.36 134.915C163.36 134.915 162.62 133.759 161.339 132.693C160.058 131.62 158.253 130.653 156.216 130.802C154.626 130.896 153.13 131.604 151.888 132.427C150.591 133.218 149.547 134.135 148.935 134.732C150.204 134.749 151.557 134.76 153.036 134.865C154.521 134.97 156.128 135.158 157.872 135.501C156.017 135.556 154.345 135.506 152.843 135.534C151.325 135.545 149.978 135.628 148.57 135.738C148.94 136.313 149.685 137.396 150.756 138.369C151.827 139.336 153.224 140.193 154.952 140.232C156.012 140.254 157.05 139.922 158.055 139.447C159.048 138.961 160.014 138.331 160.782 137.634C161.56 136.954 162.211 136.274 162.664 135.771C162.891 135.517 163.073 135.307 163.189 135.158C163.299 135.003 163.365 134.92 163.365 134.92L163.36 134.915Z" fill="#56C7C7"/>
<path d="M170.156 121.092C170.156 121.092 169.24 120.13 167.816 119.362C166.391 118.588 164.459 118.013 162.527 118.549C161.787 118.754 161.103 119.102 160.479 119.527C159.827 119.942 159.226 120.428 158.696 120.937C158.16 121.44 157.708 121.97 157.31 122.451C156.89 122.921 156.554 123.352 156.305 123.684C158.812 123.292 161.5 122.733 165.033 122.744C163.245 123.12 161.682 123.446 160.241 123.75C158.778 124.038 157.448 124.336 156.156 124.718C156.62 125.204 157.536 126.11 158.74 126.846C159.943 127.581 161.428 128.144 163.079 127.846C164.084 127.658 165.072 127.172 165.95 126.519C166.8 125.851 167.567 125.027 168.213 124.226C168.87 123.435 169.339 122.639 169.665 122.053C169.991 121.468 170.167 121.086 170.167 121.086L170.156 121.092Z" fill="#56C7C7"/>
<path d="M173.684 106.002C173.684 106.002 172.591 105.278 171.062 104.852C169.527 104.415 167.6 104.288 165.872 105.206C164.525 105.902 163.493 107.085 162.737 108.268C161.898 109.44 161.335 110.623 161.025 111.358C162.141 110.905 163.327 110.413 164.663 109.948C165.331 109.716 166.038 109.484 166.783 109.268C167.517 109.047 168.29 108.843 169.118 108.655C167.534 109.423 166.049 110.015 164.741 110.601C164.084 110.893 163.46 111.175 162.858 111.468C162.256 111.772 161.671 112.065 161.086 112.364C161.622 112.728 162.676 113.397 163.968 113.856C165.265 114.309 166.805 114.547 168.346 113.933C169.256 113.547 170.062 112.861 170.764 112.054C171.459 111.242 172.072 110.308 172.464 109.401C172.883 108.5 173.193 107.643 173.391 107.019C173.491 106.709 173.568 106.45 173.618 106.273C173.673 106.096 173.684 105.996 173.684 105.996V106.002Z" fill="#56C7C7"/>
<path d="M174.618 92.094C174.618 92.094 173.436 91.6186 171.896 91.5081C170.35 91.392 168.468 91.6407 167.016 92.8567C165.862 93.7908 165.1 95.1284 164.609 96.4218C164.079 97.7152 163.726 98.9644 163.582 99.7327C165.531 98.4172 167.794 96.8972 170.786 95.5264C170.091 96.0404 169.439 96.5213 168.821 96.9801C168.181 97.4278 167.579 97.8534 166.999 98.2624C165.851 99.086 164.83 99.8598 163.875 100.689C164.454 100.932 165.586 101.363 166.916 101.546C167.579 101.634 168.291 101.656 169.009 101.546C169.732 101.435 170.444 101.192 171.084 100.739C171.879 100.186 172.52 99.3679 173.033 98.4559C173.287 97.9971 173.513 97.5162 173.707 97.0298C173.872 96.5434 174.01 96.0515 174.126 95.5817C174.353 94.6365 174.485 93.7632 174.557 93.122C174.59 92.8015 174.618 92.5472 174.629 92.3648C174.629 92.1879 174.629 92.0884 174.629 92.0884L174.618 92.094Z" fill="#56C7C7"/>
<path d="M172.448 78.7404C172.448 78.7404 171.261 78.4972 169.765 78.6686C168.264 78.8344 166.514 79.4037 165.294 80.8353C164.366 81.9297 163.897 83.3446 163.671 84.6712C163.362 86.0143 163.301 87.269 163.301 88.0373C164.112 87.2248 164.968 86.3459 165.967 85.445C166.464 84.9918 167 84.533 167.579 84.0687C168.148 83.6044 168.744 83.1456 169.406 82.6814C168.297 83.925 167.209 84.9918 166.276 85.9922C165.338 86.9926 164.515 87.9212 163.753 88.8995C164.355 89.0211 165.52 89.2146 166.823 89.1317C168.109 89.0488 169.589 88.6729 170.654 87.5675C171.306 86.8931 171.764 86.0033 172.078 85.036C172.388 84.0742 172.592 83.0406 172.603 82.1121C172.68 80.2494 172.443 78.7349 172.443 78.7349L172.448 78.7404Z" fill="#56C7C7"/>
<path d="M168.533 67.3317C168.533 67.3317 167.335 67.2875 165.927 67.6633C164.514 68.0392 162.885 68.8351 161.958 70.3662C161.279 71.5269 160.964 72.9861 160.926 74.3071C160.904 74.9704 160.931 75.6005 160.986 76.1588C161.036 76.717 161.069 77.22 161.124 77.5903C161.461 77.1316 161.809 76.6562 162.173 76.1643C162.532 75.6779 162.891 75.186 163.288 74.6774C164.089 73.666 165.016 72.6047 166.165 71.5158C165.232 72.8866 164.409 74.0529 163.686 75.1417C162.963 76.2361 162.256 77.2808 161.671 78.3476C162.863 78.3641 166.33 78.3973 168.097 75.9653C168.621 75.2191 168.991 74.274 169.112 73.3288C169.245 72.3781 169.234 71.3887 169.157 70.4933C169.074 69.6034 168.958 68.7854 168.798 68.2271C168.649 67.6633 168.527 67.3262 168.527 67.3262L168.533 67.3317Z" fill="#56C7C7"/>
<path d="M163.19 56.7754C163.19 56.7754 162.037 56.8859 160.728 57.4221C159.414 57.9582 157.935 58.9255 157.217 60.5174C156.185 62.9328 156.925 66.1883 157.388 67.5702C158.376 65.6301 159.486 63.4523 161.446 61.059C159.955 63.9332 158.868 66.0004 158.034 68.2279C159.177 68.0787 162.5 67.6144 163.891 65.0276C164.692 63.4634 164.548 61.3741 164.201 59.6827C164.035 58.826 163.748 58.1296 163.555 57.6045C163.35 57.0849 163.201 56.7754 163.201 56.7754H163.19Z" fill="#56C7C7"/>
<path d="M156.769 47.0853C156.769 47.0853 155.671 47.3174 154.462 47.9696C153.247 48.6219 151.917 49.7052 151.387 51.3192C151.182 51.9382 151.111 52.5849 151.127 53.2316C151.133 53.5522 151.166 53.8728 151.21 54.1933C151.243 54.5195 151.293 54.8345 151.354 55.144C151.597 56.3821 152.027 57.4655 152.32 58.1177C153.054 56.1224 153.893 53.8893 155.527 51.3689C154.401 54.2873 153.54 56.4319 153.032 58.6649C154.136 58.383 157.294 57.4987 158.287 54.8953C158.889 53.2924 158.541 51.3136 158.033 49.7328C157.476 48.1963 156.775 47.0742 156.775 47.0742L156.769 47.0853Z" fill="#56C7C7"/>
<path d="M149.533 38.209C149.533 38.209 148.495 38.5351 147.38 39.2757C146.259 40.0164 145.066 41.1716 144.697 42.7745C144.178 45.1955 145.519 48.0696 146.226 49.258C146.739 47.2516 147.335 45.0186 148.688 42.4484C147.865 45.3558 147.242 47.5059 146.971 49.7223C148.009 49.3409 150.962 48.1636 151.675 45.5603C152.105 43.9573 151.592 42.1002 150.962 40.6465C150.659 39.9059 150.278 39.3255 150.007 38.8888C149.731 38.4632 149.538 38.209 149.538 38.209H149.533Z" fill="#56C7C7"/>
<path d="M141.699 30.041C141.699 30.041 140.716 30.439 139.689 31.2404C138.663 32.0419 137.586 33.2413 137.354 34.8111C136.962 37.2486 138.552 39.874 139.325 40.974C139.645 38.9952 140.037 36.8009 141.147 34.2252C140.573 37.0828 140.164 39.1887 140.076 41.3664C141.036 40.9242 143.774 39.5424 144.282 36.9446C144.569 35.3693 143.924 33.6393 143.211 32.3017C142.853 31.6329 142.477 31.0636 142.19 30.6601C142.047 30.4556 141.925 30.3008 141.837 30.2013C141.748 30.0963 141.699 30.041 141.699 30.041Z" fill="#56C7C7"/>
<path d="M40.0681 37.375C32.5768 45.1298 25.7865 53.6086 20.7408 63.0492C18.2345 67.7639 16.1367 72.6887 14.6406 77.7794C13.1391 82.87 12.2447 88.1209 12.0846 93.3994C11.9135 98.678 12.4766 103.962 13.7518 109.086C15.0215 114.21 16.9924 119.157 19.5373 123.799C24.6327 133.102 31.9695 141.144 40.4435 147.628" stroke="#56C7C7" stroke-width="0.8" stroke-miterlimit="10"/>
<path d="M49.7389 28.2659C49.7389 28.2659 49.761 29.3437 49.4905 30.6868C49.2144 32.0355 48.6458 33.6439 47.4148 34.7604C45.5764 36.4905 42.7223 36.6784 41.436 36.6729C42.22 35.9488 43.037 35.1805 43.8651 34.2795C44.2846 33.8318 44.6876 33.3344 45.1237 32.8259C45.5599 32.3174 46.0015 31.7646 46.4431 31.1566C45.8856 31.6817 45.3666 32.1737 44.8753 32.6435C44.3895 33.1188 43.9258 33.5665 43.4786 33.9921C42.5788 34.8433 41.7121 35.584 40.7901 36.2583C40.7736 35.175 40.9226 31.947 42.9763 30.007C44.257 28.8462 45.9573 28.4041 47.3264 28.2603C48.6955 28.1166 49.7389 28.2714 49.7389 28.2714V28.2659Z" fill="#56C7C7"/>
<path d="M37.3236 133.295C37.3236 133.295 36.4956 133.892 35.6509 134.865C34.8229 135.832 33.9285 137.23 33.9893 138.778C34.0279 139.966 34.5689 141.116 35.2369 142.061C35.9325 142.973 36.7329 143.692 37.2408 144.106C36.9703 142.094 36.7606 139.928 37.3568 137.225C37.2905 140.033 37.4948 142.111 38.0358 144.244C38.7921 143.509 40.7574 141.221 40.6139 138.728C40.5697 137.965 40.3323 137.258 40.0066 136.622C39.703 135.965 39.3 135.379 38.9025 134.892C38.505 134.4 38.091 134.019 37.8094 133.737C37.5224 133.455 37.3347 133.295 37.3347 133.295H37.3236Z" fill="#56C7C7"/>
<path d="M44.7545 42.1011C44.7545 42.1011 44.2963 41.482 43.5511 40.8796C42.8058 40.2771 41.7679 39.6801 40.5865 39.752C38.7813 39.857 37.1638 41.4654 36.5124 42.2116C38.0361 42.0458 39.7088 41.9187 41.7403 42.2945C39.626 42.3388 37.9864 42.4217 36.3965 42.8141C36.9375 43.4055 38.555 44.92 40.4872 44.815C41.6686 44.7486 42.734 44.0743 43.5069 43.4166C44.2798 42.7588 44.76 42.1066 44.76 42.1066L44.7545 42.1011Z" fill="#56C7C7"/>
<path d="M38.1841 49.3692C38.1841 49.3692 37.6873 48.7888 36.8923 48.2416C36.1029 47.6944 35.0153 47.1694 33.8229 47.3075C32.0122 47.5286 30.5824 49.2918 29.9972 50.0822C31.4933 49.7893 33.1329 49.5295 35.1644 49.7451C33.0832 49.9496 31.4822 50.1762 29.9199 50.6847C30.4996 51.2208 32.2661 52.6192 34.1597 52.3539C35.319 52.1936 36.3071 51.4419 37.0027 50.7289C37.7259 50.0325 38.1841 49.3747 38.1841 49.3747V49.3692Z" fill="#56C7C7"/>
<path d="M32.278 57.0362C32.278 57.0362 31.7315 56.5056 30.8924 56.0247C30.0588 55.5438 28.9326 55.1237 27.7678 55.3614C27.3206 55.4554 26.901 55.6378 26.5091 55.8699C26.1282 56.1076 25.8025 56.4116 25.4988 56.7211C24.9026 57.3457 24.4665 58.0256 24.2181 58.4512C25.6755 58.02 27.2599 57.6 29.308 57.6442C27.2543 58.02 25.7086 58.4014 24.207 59.0536C24.8364 59.529 26.7299 60.745 28.5738 60.3139C29.7165 60.0596 30.5667 59.2084 31.2346 58.4677C31.8971 57.7216 32.2725 57.0307 32.2725 57.0307L32.278 57.0362Z" fill="#56C7C7"/>
<path d="M27.1271 65.6026C27.1271 65.6026 26.4978 65.1162 25.5759 64.7183C24.6539 64.3148 23.4449 63.9997 22.2636 64.3811C20.4584 64.9615 19.4095 67.0673 18.9844 67.9904C20.4418 67.3658 22.0538 66.7523 24.1571 66.5588C22.0979 67.1834 20.5246 67.7527 19.0451 68.6095C19.7572 69.0185 21.8771 70.0244 23.7375 69.3667C24.8748 68.9687 25.6973 68.0291 26.2328 67.1779C26.8235 66.3488 27.1326 65.6026 27.1326 65.6026H27.1271Z" fill="#56C7C7"/>
<path d="M22.9441 74.6613C22.9441 74.6613 22.2485 74.2633 21.2658 73.9814C20.2832 73.6995 19.0079 73.5392 17.9204 74.0864C16.2477 74.9266 15.3423 77.143 15.1602 78.1545C16.4575 77.2978 18.0419 76.4742 20.1452 76.0044C19.1404 76.4466 18.2572 76.8666 17.4512 77.3088C16.6617 77.751 15.9938 78.2263 15.3313 78.7735C16.1097 79.0831 18.3952 79.7574 20.1065 78.8399C21.1444 78.2761 21.9062 77.2591 22.3258 76.3471C22.5411 75.8938 22.6901 75.4738 22.784 75.1642C22.8833 74.8547 22.9441 74.6668 22.9441 74.6668V74.6613Z" fill="#56C7C7"/>
<path d="M19.983 83.7213C19.983 83.7213 19.2708 83.4505 18.3158 83.3289C17.3607 83.2073 16.1683 83.2404 15.1967 83.8982C13.651 84.8986 13.3308 87.1095 13.2148 88.0658C14.3741 87.0874 15.6218 86.0815 17.5264 85.3463C15.7874 86.4518 14.5618 87.4135 13.4522 88.6074C14.2196 88.7788 16.4554 89.0607 17.9514 87.9663C18.4096 87.6291 18.7574 87.2035 19.0169 86.7447C19.1494 86.5126 19.2543 86.2804 19.3481 86.0428C19.4585 85.8106 19.5469 85.5785 19.6242 85.3519C19.9278 84.462 19.983 83.7213 19.983 83.7213Z" fill="#56C7C7"/>
<path d="M19.4651 92.946C19.4651 92.946 18.6315 92.7857 17.5495 92.8244C16.462 92.8686 15.1481 93.1229 14.2317 94.0293C13.5251 94.7258 13.1497 95.7041 12.9509 96.6382C12.8019 97.5723 12.8516 98.4622 12.9012 98.9983C13.4202 98.3406 13.9833 97.6718 14.6402 97.0251C15.3027 96.3784 16.1418 95.7428 17.1134 95.1624C15.3579 96.7045 14.2317 98.0034 13.2822 99.5511C14.1654 99.5732 16.6828 99.4018 18.0905 97.915C18.5266 97.4618 18.7916 96.9256 19.0014 96.3784C19.2277 95.8312 19.3492 95.273 19.4154 94.7645C19.4817 94.2559 19.4872 93.8027 19.4762 93.4766C19.4651 93.1505 19.4596 92.946 19.4596 92.946H19.4651Z" fill="#56C7C7"/>
<path d="M20.5635 102.568C20.5635 102.568 19.636 102.568 18.4878 102.845C17.345 103.116 15.9539 103.668 15.181 104.829C14.5793 105.719 14.375 106.846 14.375 107.886C14.4302 108.914 14.6621 109.853 14.8277 110.417C15.6613 108.775 16.6163 107.073 18.4988 105.409C17.7425 106.41 17.0911 107.333 16.6053 108.217C16.1029 109.107 15.6834 109.986 15.3466 110.915C16.2906 110.749 18.9405 110.003 20.1329 108.112C20.4972 107.532 20.6849 106.907 20.7733 106.288C20.9002 105.664 20.9113 105.045 20.8782 104.497C20.8395 103.95 20.7512 103.469 20.6739 103.127C20.6132 102.778 20.5635 102.568 20.5635 102.568Z" fill="#56C7C7"/>
<path d="M24.1183 114.801C24.1183 114.801 23.2074 115.038 22.153 115.591C21.1041 116.144 19.873 117.039 19.4037 118.382C19.0394 119.411 19.1167 120.571 19.3817 121.599C19.6853 122.605 20.149 123.479 20.4471 123.993C20.8667 122.169 21.3856 120.245 22.8099 118.134C22.567 118.72 22.3462 119.283 22.1419 119.825C21.9377 120.367 21.7996 120.875 21.6561 121.384C21.3801 122.39 21.1869 123.357 21.082 124.363C21.9708 123.971 24.4053 122.6 25.1009 120.428C25.3162 119.764 25.3438 119.09 25.272 118.449C25.2334 117.797 25.0899 117.178 24.9132 116.641C24.7365 116.105 24.5268 115.652 24.3612 115.326C24.2176 114.994 24.1127 114.801 24.1127 114.801H24.1183Z" fill="#56C7C7"/>
<path d="M29.5841 124.324C29.5841 124.324 28.7008 124.744 27.7403 125.517C26.7797 126.291 25.7529 127.419 25.51 128.906C25.4161 129.475 25.4437 130.055 25.5541 130.614C25.6811 131.161 25.8909 131.691 26.1338 132.183C26.6251 133.162 27.2213 134.002 27.663 134.444C27.6685 133.499 27.7679 132.465 27.95 131.398C28.1377 130.326 28.4248 129.204 28.9106 128.01C28.6732 129.293 28.5021 130.448 28.4027 131.548C28.353 132.095 28.3199 132.631 28.3144 133.151C28.3199 133.665 28.353 134.173 28.4027 134.687C29.2418 134.112 31.45 132.277 31.715 129.928C31.9248 128.463 31.3341 127.109 30.771 126.059C30.219 125.009 29.5841 124.312 29.5841 124.312V124.324Z" fill="#56C7C7"/>
<path d="M20.6641 147.566C20.6641 147.566 21.2051 146.251 22.3202 144.913C23.4298 143.575 25.1246 142.221 27.2666 141.984C28.0836 141.89 28.9062 141.967 29.7066 142.144C30.5237 142.299 31.3131 142.558 32.0418 142.868C33.4827 143.498 34.7579 144.233 35.5142 144.725C34.1948 144.974 32.7705 145.261 31.2745 145.621C29.7784 145.98 28.1664 146.45 26.4109 147.152C28.3431 146.826 30.0324 146.544 31.5947 146.284C33.168 146.013 34.6144 145.82 36.0608 145.726C35.7792 146.389 35.194 147.649 34.2611 148.843C33.3226 150.037 32.0363 151.159 30.2808 151.485C29.2043 151.684 28.0505 151.562 26.9243 151.264C25.8147 150.943 24.7492 150.418 23.8107 149.888C23.3415 149.617 22.9054 149.346 22.5245 149.081C22.1491 148.804 21.8178 148.545 21.5418 148.323C20.9953 147.876 20.6751 147.572 20.6751 147.572L20.6641 147.566Z" fill="#56C7C7"/>
<path d="M11.609 134.915C11.609 134.915 12.3488 133.759 13.6295 132.693C14.9103 131.62 16.7155 130.653 18.7526 130.802C20.3425 130.896 21.8385 131.604 23.0806 132.427C24.378 133.218 25.4213 134.135 26.0341 134.732C24.7644 134.749 23.4119 134.76 21.9324 134.865C20.4474 134.97 18.8409 135.158 17.0964 135.501C18.9513 135.556 20.624 135.506 22.1256 135.534C23.6437 135.545 24.9907 135.628 26.3985 135.738C26.0286 136.313 25.2833 137.396 24.2123 138.369C23.1414 139.336 21.7447 140.193 20.0168 140.232C18.9568 140.254 17.919 139.922 16.9142 139.447C15.9205 138.961 14.9545 138.331 14.1871 137.634C13.4087 136.954 12.7573 136.274 12.3046 135.771C12.0783 135.517 11.8961 135.307 11.7802 135.158C11.6698 135.003 11.6035 134.92 11.6035 134.92L11.609 134.915Z" fill="#56C7C7"/>
<path d="M4.81377 121.092C4.81377 121.092 5.73018 120.13 7.15447 119.362C8.57876 118.588 10.5109 118.013 12.4431 118.549C13.1829 118.754 13.8674 119.102 14.4912 119.527C15.1426 119.942 15.7444 120.428 16.2743 120.937C16.8098 121.44 17.2625 121.97 17.66 122.451C18.0795 122.921 18.4163 123.352 18.6647 123.684C16.1584 123.292 13.4699 122.733 9.9368 122.744C11.7254 123.12 13.2878 123.446 14.7286 123.75C16.1915 124.038 17.522 124.336 18.8138 124.718C18.3501 125.204 17.4337 126.11 16.2302 126.846C15.0267 127.581 13.5417 128.144 11.8911 127.846C10.8863 127.658 9.89816 127.172 9.0204 126.519C8.17024 125.851 7.40289 125.027 6.75699 124.226C6.10005 123.435 5.63081 122.639 5.3051 122.053C4.97939 121.468 4.80273 121.086 4.80273 121.086L4.81377 121.092Z" fill="#56C7C7"/>
<path d="M1.28516 106.002C1.28516 106.002 2.37822 105.278 3.9074 104.852C5.4421 104.415 7.36875 104.288 9.09667 105.206C10.4437 105.902 11.476 107.085 12.2323 108.268C13.0714 109.44 13.6345 110.623 13.9437 111.358C12.8285 110.905 11.6416 110.413 10.3057 109.948C9.63768 109.716 8.93106 109.484 8.18579 109.268C7.45156 109.047 6.67869 108.843 5.85061 108.655C7.435 109.423 8.92001 110.015 10.2284 110.601C10.8853 110.893 11.5091 111.175 12.1109 111.468C12.7126 111.772 13.2978 112.065 13.8829 112.364C13.3475 112.728 12.293 113.397 11.0012 113.856C9.70393 114.309 8.16371 114.547 6.62348 113.933C5.7126 113.547 4.90661 112.861 4.2055 112.054C3.50992 111.242 2.89714 110.308 2.50519 109.401C2.08563 108.5 1.77648 107.643 1.57774 107.019C1.47837 106.709 1.40109 106.45 1.3514 106.273C1.2962 106.096 1.28516 105.996 1.28516 105.996V106.002Z" fill="#56C7C7"/>
<path d="M0.352837 92.094C0.352837 92.094 1.53423 91.6186 3.07445 91.5081C4.62019 91.392 6.50268 91.6407 7.95457 92.8567C9.10836 93.7908 9.87019 95.1284 10.3615 96.4218C10.8915 97.7152 11.2448 98.9644 11.3883 99.7327C9.43959 98.4172 7.17618 96.8972 4.18407 95.5264C4.87965 96.0404 5.53107 96.5213 6.14937 96.9801C6.78975 97.4278 7.39148 97.8534 7.97113 98.2624C9.1194 99.086 10.1407 99.8598 11.0957 100.689C10.5161 100.932 9.38438 101.363 8.05394 101.546C7.39148 101.634 6.67934 101.656 5.96167 101.546C5.23848 101.435 4.52634 101.192 3.88596 100.739C3.09101 100.186 2.45063 99.3679 1.93722 98.4559C1.68328 97.9971 1.45694 97.5162 1.26372 97.0298C1.09811 96.5434 0.960093 96.0515 0.844163 95.5817C0.617822 94.6365 0.48533 93.7632 0.413563 93.122C0.38044 92.8015 0.352838 92.5472 0.341797 92.3648C0.341797 92.1879 0.341797 92.0884 0.341797 92.0884L0.352837 92.094Z" fill="#56C7C7"/>
<path d="M2.52161 78.7404C2.52161 78.7404 3.70852 78.4972 5.20457 78.6686C6.70615 78.8344 8.45615 79.4037 9.67618 80.8353C10.6036 81.9297 11.0729 83.3446 11.2992 84.6712C11.6084 86.0143 11.6691 87.269 11.6691 88.0373C10.8576 87.2248 10.0019 86.3459 9.00268 85.445C8.50584 84.9918 7.97035 84.533 7.39069 84.0687C6.82208 83.6044 6.22587 83.1456 5.56341 82.6814C6.67303 83.925 7.76057 84.9918 8.69353 85.9922C9.63202 86.9926 10.4546 87.9212 11.2164 88.8995C10.6147 89.0211 9.44984 89.2146 8.147 89.1317C6.86072 89.0488 5.38123 88.6729 4.31577 87.5675C3.66435 86.8931 3.20615 86.0033 2.89148 85.036C2.58233 84.0742 2.37808 83.0406 2.36704 82.1121C2.28975 80.2494 2.52713 78.7349 2.52713 78.7349L2.52161 78.7404Z" fill="#56C7C7"/>
<path d="M6.43676 67.3317C6.43676 67.3317 7.63471 67.2875 9.04244 67.6633C10.4557 68.0392 12.0842 68.8351 13.0117 70.3662C13.6907 71.5269 14.0054 72.9861 14.044 74.3071C14.0661 74.9704 14.0385 75.6005 13.9833 76.1588C13.9336 76.717 13.9005 77.22 13.8453 77.5903C13.5085 77.1316 13.1607 76.6562 12.7964 76.1643C12.4375 75.6779 12.0787 75.186 11.6812 74.6774C10.8808 73.666 9.95332 72.6047 8.80505 71.5158C9.73802 72.8866 10.5606 74.0529 11.2838 75.1417C12.0069 76.2361 12.7136 77.2808 13.2987 78.3476C12.1063 78.3641 8.63944 78.3973 6.87288 75.9653C6.34843 75.2191 5.97856 74.274 5.8571 73.3288C5.72461 72.3781 5.73565 71.3887 5.81294 70.4933C5.89575 69.6034 6.01168 68.7854 6.17177 68.2271C6.32083 67.6633 6.44228 67.3262 6.44228 67.3262L6.43676 67.3317Z" fill="#56C7C7"/>
<path d="M11.7807 56.7754C11.7807 56.7754 12.9345 56.8859 14.2429 57.4221C15.5568 57.9582 17.0363 58.9255 17.7539 60.5174C18.7863 62.9328 18.0465 66.1883 17.5828 67.5702C16.5946 65.6301 15.485 63.4523 13.5252 61.059C15.0158 63.9332 16.1033 66.0004 16.9369 68.2279C15.7941 68.0787 12.4708 67.6144 11.0796 65.0276C10.2792 63.4634 10.4227 61.3741 10.7705 59.6827C10.9361 58.826 11.2232 58.1296 11.4164 57.6045C11.6206 57.0849 11.7697 56.7754 11.7697 56.7754H11.7807Z" fill="#56C7C7"/>
<path d="M18.1994 47.0853C18.1994 47.0853 19.298 47.3174 20.507 47.9696C21.7215 48.6219 23.0519 49.7052 23.5819 51.3192C23.7862 51.9382 23.8579 52.5849 23.8414 53.2316C23.8359 53.5522 23.8027 53.8728 23.7586 54.1933C23.7254 54.5195 23.6758 54.8345 23.615 55.144C23.3721 56.3821 22.9415 57.4655 22.6489 58.1177C21.9147 56.1224 21.0756 53.8893 19.4415 51.3689C20.5677 54.2873 21.4289 56.4319 21.9368 58.6649C20.8327 58.383 17.675 57.4987 16.6813 54.8953C16.0795 53.2924 16.4273 51.3136 16.9352 49.7328C17.4928 48.1963 18.1939 47.0742 18.1939 47.0742L18.1994 47.0853Z" fill="#56C7C7"/>
<path d="M25.4377 38.209C25.4377 38.209 26.4755 38.5351 27.5907 39.2757C28.7113 40.0164 29.9038 41.1716 30.2736 42.7745C30.7926 45.1955 29.4511 48.0696 28.7445 49.258C28.231 47.2516 27.6348 45.0186 26.2823 42.4484C27.1049 45.3558 27.7287 47.5059 27.9992 49.7223C26.9613 49.3409 24.0079 48.1636 23.2957 45.5603C22.8651 43.9573 23.3785 42.1002 24.0079 40.6465C24.3115 39.9059 24.6924 39.3255 24.9629 38.8888C25.2389 38.4632 25.4322 38.209 25.4322 38.209H25.4377Z" fill="#56C7C7"/>
<path d="M33.2706 30.041C33.2706 30.041 34.2532 30.439 35.2801 31.2404C36.3069 32.0419 37.3834 33.2413 37.6152 34.8111C38.0072 37.2486 36.4173 39.874 35.6444 40.974C35.3242 38.9952 34.9323 36.8009 33.8226 34.2252C34.3968 37.0828 34.8053 39.1887 34.8936 41.3664C33.933 40.9242 31.1949 39.5424 30.687 36.9446C30.3999 35.3693 31.0458 33.6393 31.758 32.3017C32.1168 31.6329 32.4922 31.0636 32.7793 30.6601C32.9228 30.4556 33.0442 30.3008 33.1326 30.2013C33.2209 30.0963 33.2706 30.041 33.2706 30.041Z" fill="#56C7C7"/>
<path d="M100.788 35.5129C101.732 28.6756 104.172 20.1028 107.495 13.0058C106.198 15.8358 99.9874 20.0863 95.9629 19.1908C91.3147 18.1572 87.9858 9.26385 87.489 1.80756C86.9866 9.26385 83.6633 18.1572 79.015 19.1908C74.985 20.0863 68.7745 15.8302 67.4827 13.0058C70.806 20.1084 73.2516 28.6812 74.1901 35.5129H100.793H100.788Z" fill="#BAA869"/>
<path d="M100.788 35.5129C101.732 28.6756 104.172 20.1028 107.495 13.0058C106.198 15.8358 99.9874 20.0863 95.9629 19.1908C91.3147 18.1572 87.9858 9.26385 87.489 1.80756C86.9866 9.26385 83.6633 18.1572 79.015 19.1908C74.985 20.0863 68.7745 15.8302 67.4827 13.0058C70.806 20.1084 73.2516 28.6812 74.1901 35.5129H100.793H100.788Z" fill="url(#paint0_linear_10944_60776)"/>
<path d="M80.6435 16.9136C79.3904 15.775 78.1096 13.6967 77.541 11.5411C77.6294 13.7686 77.0055 16.2669 76.1443 17.7261C77.6514 18.4944 79.28 18.3175 80.6435 16.9136Z" fill="#BAA869"/>
<path d="M80.6435 16.9136C79.3904 15.775 78.1096 13.6967 77.541 11.5411C77.6294 13.7686 77.0055 16.2669 76.1443 17.7261C77.6514 18.4944 79.28 18.3175 80.6435 16.9136Z" fill="url(#paint1_linear_10944_60776)"/>
<path d="M94.3289 16.9136C95.582 15.775 96.8628 13.6967 97.4314 11.5411C97.3431 13.7686 97.9669 16.2669 98.8281 17.7261C97.321 18.4944 95.6924 18.3175 94.3289 16.9136Z" fill="#BAA869"/>
<path d="M94.3289 16.9136C95.582 15.775 96.8628 13.6967 97.4314 11.5411C97.3431 13.7686 97.9669 16.2669 98.8281 17.7261C97.321 18.4944 95.6924 18.3175 94.3289 16.9136Z" fill="url(#paint2_linear_10944_60776)"/>
<path d="M89.9014 2.808C89.9014 4.14007 88.8194 5.22342 87.489 5.22342C86.1585 5.22342 85.0765 4.14007 85.0765 2.808C85.0765 1.47592 86.1585 0.392578 87.489 0.392578C88.8194 0.392578 89.9014 1.47592 89.9014 2.808Z" fill="#BAA869"/>
<path d="M89.9014 2.808C89.9014 4.14007 88.8194 5.22342 87.489 5.22342C86.1585 5.22342 85.0765 4.14007 85.0765 2.808C85.0765 1.47592 86.1585 0.392578 87.489 0.392578C88.8194 0.392578 89.9014 1.47592 89.9014 2.808Z" fill="url(#paint3_linear_10944_60776)"/>
<path d="M107.081 15.3715C108.218 15.3715 109.14 14.4484 109.14 13.3098C109.14 12.1712 108.218 11.2481 107.081 11.2481C105.944 11.2481 105.022 12.1712 105.022 13.3098C105.022 14.4484 105.944 15.3715 107.081 15.3715Z" fill="#BAA869"/>
<path d="M107.081 15.3715C108.218 15.3715 109.14 14.4484 109.14 13.3098C109.14 12.1712 108.218 11.2481 107.081 11.2481C105.944 11.2481 105.022 12.1712 105.022 13.3098C105.022 14.4484 105.944 15.3715 107.081 15.3715Z" fill="url(#paint4_linear_10944_60776)"/>
<path d="M99.198 11.5411C99.198 12.5194 98.4085 13.3098 97.4314 13.3098C96.4543 13.3098 95.6648 12.5194 95.6648 11.5411C95.6648 10.5628 96.4543 9.77236 97.4314 9.77236C98.4085 9.77236 99.198 10.5628 99.198 11.5411Z" fill="#BAA869"/>
<path d="M99.198 11.5411C99.198 12.5194 98.4085 13.3098 97.4314 13.3098C96.4543 13.3098 95.6648 12.5194 95.6648 11.5411C95.6648 10.5628 96.4543 9.77236 97.4314 9.77236C98.4085 9.77236 99.198 10.5628 99.198 11.5411Z" fill="url(#paint5_linear_10944_60776)"/>
<path d="M67.8912 15.3715C69.0284 15.3715 69.9503 14.4484 69.9503 13.3098C69.9503 12.1712 69.0284 11.2481 67.8912 11.2481C66.7539 11.2481 65.832 12.1712 65.832 13.3098C65.832 14.4484 66.7539 15.3715 67.8912 15.3715Z" fill="#BAA869"/>
<path d="M67.8912 15.3715C69.0284 15.3715 69.9503 14.4484 69.9503 13.3098C69.9503 12.1712 69.0284 11.2481 67.8912 11.2481C66.7539 11.2481 65.832 12.1712 65.832 13.3098C65.832 14.4484 66.7539 15.3715 67.8912 15.3715Z" fill="url(#paint6_linear_10944_60776)"/>
<path d="M75.7745 11.5411C75.7745 12.5194 76.5639 13.3098 77.541 13.3098C78.5182 13.3098 79.3076 12.5194 79.3076 11.5411C79.3076 10.5628 78.5182 9.77236 77.541 9.77236C76.5639 9.77236 75.7745 10.5628 75.7745 11.5411Z" fill="#BAA869"/>
<path d="M75.7745 11.5411C75.7745 12.5194 76.5639 13.3098 77.541 13.3098C78.5182 13.3098 79.3076 12.5194 79.3076 11.5411C79.3076 10.5628 78.5182 9.77236 77.541 9.77236C76.5639 9.77236 75.7745 10.5628 75.7745 11.5411Z" fill="url(#paint7_linear_10944_60776)"/>
<path d="M59.2268 145.255L55.6071 147.165L56.298 143.122L53.3691 140.262L57.4169 139.673L59.2268 136L61.0366 139.673L65.0893 140.262L62.1605 143.122L62.8513 147.165L59.2268 145.255Z" fill="#BAA869"/>
<path d="M73.7248 145.255L70.1052 147.165L70.796 143.122L67.8672 140.262L71.915 139.673L73.7248 136L75.5395 139.673L79.5873 140.262L76.6585 143.122L77.3494 147.165L73.7248 145.255Z" fill="#BAA869"/>
<path d="M88.2209 145.255L84.6012 147.165L85.2921 143.122L82.3633 140.262L86.4111 139.673L88.2209 136L90.0356 139.673L94.0834 140.262L91.1546 143.122L91.8455 147.165L88.2209 145.255Z" fill="#BAA869"/>
<path d="M102.726 145.255L99.1012 147.165L99.7921 143.122L96.8633 140.262L100.911 139.673L102.726 136L104.536 139.673L108.583 140.262L105.655 143.122L106.345 147.165L102.726 145.255Z" fill="#BAA869"/>
<path d="M117.226 145.255L113.601 147.165L114.292 143.122L111.363 140.262L115.411 139.673L117.226 136L119.036 139.673L123.083 140.262L120.155 143.122L120.845 147.165L117.226 145.255Z" fill="#BAA869"/>
<path d="M68.03 47.365L68.975 48.145C68.81 48.505 68.735 48.82 68.66 49.39C68.3 52.045 68.135 53.11 67.745 55.36H69.515C70.565 55.36 70.895 55.345 71.465 55.255V57.145C70.925 57.085 70.58 57.07 69.545 57.07H60.485C59.435 57.07 59.09 57.085 58.55 57.145V55.255C59.12 55.345 59.45 55.36 60.515 55.36H65.75C66.17 53.38 66.485 51.265 66.695 49.21H62.015C61.175 49.21 60.86 49.225 60.335 49.3V47.395C60.86 47.485 61.19 47.515 62 47.515H66.365C67.265 47.515 67.565 47.485 68.03 47.365ZM73.565 53.29V51.205C74.225 51.295 74.51 51.31 75.995 51.31H83.99C85.475 51.31 85.76 51.295 86.42 51.205V53.29C85.82 53.215 85.655 53.215 83.975 53.215H76.01C74.33 53.215 74.165 53.215 73.565 53.29ZM92.885 48.865H96.785C96.785 48.475 96.785 48.115 96.785 47.98C96.785 47.8 96.785 47.65 96.785 47.62C96.785 46.825 96.77 46.48 96.725 46.135H98.645C98.6 46.495 98.6 46.6 98.6 47.125C98.6 47.68 98.585 48.265 98.585 48.865H99.53C100.67 48.865 100.955 48.85 101.495 48.76V50.59C100.985 50.53 100.775 50.515 99.56 50.515H98.57C98.54 53.215 98.39 54.175 97.835 55.36C97.01 56.98 95.54 58.135 93.38 58.855C93.125 58.255 92.87 57.895 92.255 57.265C94.385 56.665 95.645 55.72 96.29 54.265C96.65 53.365 96.74 52.63 96.77 50.515H92.885V52.75C92.885 53.425 92.9 53.65 92.945 54.01H90.995C91.04 53.695 91.04 53.53 91.055 52.72V50.515H90.14C88.94 50.515 88.73 50.53 88.22 50.59V48.76C88.76 48.85 89.045 48.865 90.17 48.865H91.055V47.365C91.055 46.6 91.04 46.405 90.98 46.03H92.945C92.885 46.525 92.885 46.585 92.885 47.305V48.865ZM98.63 45.55L99.65 45.265C100.1 46 100.43 46.72 100.685 47.605L99.65 47.905C99.365 46.945 99.05 46.21 98.63 45.55ZM102.455 47.095L101.495 47.41C101.27 46.645 100.925 45.88 100.475 45.145L101.435 44.845C101.84 45.475 102.155 46.18 102.455 47.095ZM103.565 53.29V51.205C104.225 51.295 104.51 51.31 105.995 51.31H113.99C115.475 51.31 115.76 51.295 116.42 51.205V53.29C115.82 53.215 115.655 53.215 113.975 53.215H106.01C104.33 53.215 104.165 53.215 103.565 53.29ZM53.03 66.055V64.21C53.525 64.3 53.84 64.315 54.785 64.315H60.02C60.965 64.315 61.28 64.3 61.775 64.21V66.055C61.31 65.995 61.025 65.98 60.05 65.98H54.755C53.78 65.98 53.495 65.995 53.03 66.055ZM62.54 67.795L63.395 68.755C63.245 69.025 63.155 69.235 62.975 69.7C62.195 71.905 61.055 73.57 59.495 74.77C58.43 75.595 57.455 76.105 55.565 76.81C55.235 76.06 55.055 75.805 54.395 75.07C56.225 74.605 57.41 74.05 58.565 73.09C59.675 72.16 60.32 71.245 60.98 69.58H53.675C52.67 69.58 52.295 69.595 51.755 69.655V67.825C52.325 67.915 52.655 67.93 53.705 67.93H60.845C61.775 67.93 62.075 67.9 62.54 67.795ZM66.83 66.37L68.075 64.885C69.86 65.995 70.79 66.685 71.945 67.78L70.655 69.415C69.455 68.14 68.225 67.15 66.83 66.37ZM67.355 76.27L66.8 74.2C68.09 74.125 69.875 73.69 71.24 73.09C73.115 72.28 74.51 71.125 75.695 69.415C76.355 68.455 76.775 67.63 77.225 66.415C77.81 67.12 78.05 67.345 78.815 67.885C77.54 70.63 76.115 72.4 74.06 73.765C72.53 74.785 70.67 75.52 68.345 76.015C67.745 76.135 67.7 76.15 67.355 76.27ZM85.835 66.7L85.61 65.425C85.475 64.69 85.415 64.435 85.25 64.015L87.23 63.7C87.245 64.09 87.305 64.525 87.41 65.11L87.65 66.415L90.815 65.92C91.55 65.8 91.865 65.725 92.255 65.59L92.57 67.39C92.165 67.42 92.165 67.42 91.13 67.585L87.965 68.08L88.415 70.54L91.94 69.985C92.57 69.88 93.095 69.76 93.5 69.64L93.83 71.44C93.515 71.455 93.455 71.455 93.14 71.515C93.05 71.515 92.975 71.53 92.9 71.545C92.795 71.56 92.6 71.59 92.3 71.635L88.73 72.205L89.27 75.115C89.45 76.105 89.465 76.15 89.63 76.66L87.62 77.02C87.605 76.57 87.545 76.15 87.425 75.445L86.885 72.49L83.18 73.075C82.46 73.195 82.19 73.255 81.65 73.405L81.35 71.56C81.86 71.56 82.295 71.515 82.94 71.41L86.585 70.825L86.135 68.365L83.345 68.8C82.655 68.92 82.1 69.025 81.695 69.145L81.395 67.3C81.935 67.285 82.415 67.225 83.045 67.135L85.835 66.7ZM96.83 66.37L98.075 64.885C99.86 65.995 100.79 66.685 101.945 67.78L100.655 69.415C99.455 68.14 98.225 67.15 96.83 66.37ZM97.355 76.27L96.8 74.2C98.09 74.125 99.875 73.69 101.24 73.09C103.115 72.28 104.51 71.125 105.695 69.415C106.355 68.455 106.775 67.63 107.225 66.415C107.81 67.12 108.05 67.345 108.815 67.885C107.54 70.63 106.115 72.4 104.06 73.765C102.53 74.785 100.67 75.52 98.345 76.015C97.745 76.135 97.7 76.15 97.355 76.27ZM122.285 66.1L122.795 66.685C122.66 66.88 122.585 67.06 122.42 67.585C121.535 70.255 120.815 71.59 119.405 73.255C118.07 74.785 116.225 76.105 114.065 77.05C113.675 76.345 113.405 76.015 112.79 75.475C116.72 73.975 119.255 71.29 120.455 67.39L115.94 67.45C115.1 68.83 113.675 70.39 112.43 71.305C111.98 70.69 111.755 70.495 110.975 70.015C112.595 68.935 113.795 67.585 114.86 65.665C115.31 64.855 115.58 64.15 115.625 63.67L117.68 64.09C117.575 64.225 117.56 64.255 117.425 64.54C117.305 64.81 117.17 65.11 117.02 65.41C116.945 65.545 116.945 65.56 116.915 65.62L116.795 65.845C116.975 65.83 117.215 65.815 117.515 65.815L120.8 65.77C121.205 65.77 121.46 65.755 121.58 65.74C121.235 64.99 120.965 64.51 120.485 63.865L121.595 63.49C122.18 64.27 122.525 64.87 122.93 65.86L122.285 66.1ZM124.88 65.185L123.77 65.605C123.41 64.72 122.975 63.955 122.48 63.28L123.56 62.905C124.175 63.7 124.52 64.3 124.88 65.185Z" fill="#221A15"/>
<path d="M59.3 120.376L59.252 117.712C57.14 119.92 54.26 121.648 50.924 122.728C50.444 121.84 50.084 121.312 49.364 120.448C52.7 119.656 55.532 118.24 57.548 116.392H53.396C53.276 116.8 53.204 117.016 53.036 117.592L50.228 117.544C50.9 115.96 51.284 114.688 51.596 113.104C51.788 112.048 51.932 110.992 51.956 110.488C52.388 110.536 53.06 110.56 54.236 110.56H59.156L59.132 109H53.756C52.82 109 52.196 109.024 51.548 109.096V106.768C51.284 107.032 51.164 107.128 50.828 107.44C50.348 106.648 49.844 106.024 49.268 105.496C51.308 103.936 52.484 102.424 53.036 100.624L55.604 101.104C55.268 101.728 55.172 101.92 54.884 102.4H57.956C59.108 102.4 59.732 102.376 60.308 102.256V104.2C61.244 103.12 61.82 102.04 62.252 100.624L64.796 101.08C64.604 101.584 64.58 101.632 64.196 102.424H68.756C70.052 102.424 70.604 102.4 71.396 102.28V104.752C70.652 104.656 69.956 104.632 68.876 104.632H67.004C67.46 105.304 67.676 105.664 68.06 106.288L66.092 106.864H67.244C68.42 106.864 68.852 106.84 69.476 106.768C69.404 107.248 69.38 107.632 69.38 108.496V110.968C69.38 111.832 69.404 112.216 69.476 112.72C68.876 112.672 68.204 112.648 67.244 112.648H61.7L61.724 114.256H68.564C69.476 114.256 70.052 114.232 70.628 114.16C70.58 114.496 70.556 114.64 70.532 114.904C70.46 115.816 70.364 116.584 70.316 117.184C70.076 119.512 69.908 120.136 69.428 120.688C68.972 121.216 68.252 121.408 66.62 121.408C65.9 121.408 65.42 121.384 64.388 121.312C64.244 120.352 64.1 119.8 63.788 118.96C64.7 119.08 65.852 119.2 66.38 119.2C67.7 119.2 67.772 119.08 67.94 116.392H61.748L61.796 120.4C61.82 121.672 61.868 122.32 61.988 123.064H59.156C59.276 122.368 59.3 121.936 59.3 121C59.3 120.712 59.3 120.544 59.3 120.376ZM59.204 114.256L59.18 112.648H54.26C54.164 113.248 54.14 113.392 53.948 114.256H59.204ZM61.652 109L61.676 110.56H66.884V109H61.652ZM61.004 106.864H65.636C65.372 106.24 64.916 105.424 64.412 104.632H62.948C62.324 105.544 61.772 106.168 61.004 106.864ZM53.756 106.864H55.844C55.556 106.072 55.244 105.448 54.764 104.608H53.444C52.82 105.472 52.364 106 51.572 106.768C52.124 106.84 52.652 106.864 53.756 106.864ZM56.18 106.864H60.548C60.188 106.384 59.684 105.928 59.012 105.424C59.42 105.088 59.54 104.968 59.876 104.656C59.492 104.632 59.036 104.608 58.532 104.608H57.212C57.5 105.064 57.644 105.304 58.172 106.24L56.18 106.864Z" fill="#221A15"/>
<path d="M81.3 90.6L77.7 91C77.25 91 77.15 90.85 77.15 90.4C77.15 90.2 77.25 90.05 77.7 89.95C82.2 88.9 87 87.3 90.45 85.9C90.95 85.9 91.2 86.1 91.2 86.5L91.1 98.35V117.85C91.1 121.5 91.4 122.2 96.5 122.45C97 122.45 97.05 122.5 97.05 122.95C97.05 123.35 97 123.4 96.5 123.4C94.2 123.3 90.35 123.25 87.7 123.25C84.95 123.25 81.45 123.3 79.1 123.4C78.65 123.4 78.6 123.35 78.6 122.95C78.6 122.5 78.65 122.45 79.1 122.45C83.85 122.2 84.4 121.5 84.4 117.85V92.7C84.4 91.4 83.65 90.55 82.45 90.55C82.05 90.55 81.65 90.55 81.3 90.6Z" fill="#221A15"/>
<path d="M116.012 104.848V102.808C116.012 102.016 115.964 101.512 115.868 100.936H118.772C118.676 101.44 118.628 101.92 118.628 102.808V104.848H122.276C123.476 104.848 124.292 104.8 125.012 104.704V107.392C124.244 107.32 123.38 107.272 122.252 107.272H112.916C111.596 107.272 110.684 107.32 110.084 107.392V104.728C110.78 104.824 111.452 104.848 112.844 104.848H116.012ZM112.316 119.488H117.548C118.964 115.696 120.116 111.232 120.452 108.184L123.38 108.856C123.044 110.08 123.044 110.08 122.492 112.168C121.964 114.304 121.172 116.752 120.188 119.488H122.876C124.124 119.488 124.916 119.44 125.636 119.344V122.08C124.82 121.96 123.98 121.912 122.78 121.912H112.388C111.212 121.912 110.276 121.96 109.532 122.08V119.344C110.252 119.44 111.044 119.488 112.316 119.488ZM105.788 120.136V113.32C105.788 112.528 105.812 111.64 105.86 110.632C105.02 111.928 104.708 112.336 104.012 113.152C103.796 112.216 103.412 111.208 102.932 110.272C104.612 108.472 105.956 106.264 106.916 103.696C107.372 102.52 107.708 101.392 107.828 100.528L110.588 101.224C109.844 103.432 109.196 105.064 108.356 106.888V120.16C108.356 121.216 108.404 122.032 108.524 122.944H105.62C105.74 122.008 105.788 121.336 105.788 120.136ZM116.228 117.808L113.612 118.528C112.916 114.808 112.22 112.24 111.068 109.288L113.564 108.4C114.812 111.736 115.388 113.848 116.228 117.808Z" fill="#221A15"/>
</g>
<defs>
<linearGradient id="paint0_linear_10944_60776" x1="70" y1="10.5" x2="109.421" y2="28.5134" gradientUnits="userSpaceOnUse">
<stop stop-color="#BAA869"/>
<stop offset="0.49" stop-color="#F0E5BE"/>
<stop offset="1" stop-color="#BAA869"/>
</linearGradient>
<linearGradient id="paint1_linear_10944_60776" x1="70" y1="10.5" x2="109.421" y2="28.5134" gradientUnits="userSpaceOnUse">
<stop stop-color="#BAA869"/>
<stop offset="0.49" stop-color="#F0E5BE"/>
<stop offset="1" stop-color="#BAA869"/>
</linearGradient>
<linearGradient id="paint2_linear_10944_60776" x1="70" y1="10.5" x2="109.421" y2="28.5134" gradientUnits="userSpaceOnUse">
<stop stop-color="#BAA869"/>
<stop offset="0.49" stop-color="#F0E5BE"/>
<stop offset="1" stop-color="#BAA869"/>
</linearGradient>
<linearGradient id="paint3_linear_10944_60776" x1="70" y1="10.5" x2="109.421" y2="28.5134" gradientUnits="userSpaceOnUse">
<stop stop-color="#BAA869"/>
<stop offset="0.49" stop-color="#F0E5BE"/>
<stop offset="1" stop-color="#BAA869"/>
</linearGradient>
<linearGradient id="paint4_linear_10944_60776" x1="70" y1="10.5" x2="109.421" y2="28.5134" gradientUnits="userSpaceOnUse">
<stop stop-color="#BAA869"/>
<stop offset="0.49" stop-color="#F0E5BE"/>
<stop offset="1" stop-color="#BAA869"/>
</linearGradient>
<linearGradient id="paint5_linear_10944_60776" x1="70" y1="10.5" x2="109.421" y2="28.5134" gradientUnits="userSpaceOnUse">
<stop stop-color="#BAA869"/>
<stop offset="0.49" stop-color="#F0E5BE"/>
<stop offset="1" stop-color="#BAA869"/>
</linearGradient>
<linearGradient id="paint6_linear_10944_60776" x1="70" y1="10.5" x2="109.421" y2="28.5134" gradientUnits="userSpaceOnUse">
<stop stop-color="#BAA869"/>
<stop offset="0.49" stop-color="#F0E5BE"/>
<stop offset="1" stop-color="#BAA869"/>
</linearGradient>
<linearGradient id="paint7_linear_10944_60776" x1="70" y1="10.5" x2="109.421" y2="28.5134" gradientUnits="userSpaceOnUse">
<stop stop-color="#BAA869"/>
<stop offset="0.49" stop-color="#F0E5BE"/>
<stop offset="1" stop-color="#BAA869"/>
</linearGradient>
<clipPath id="clip0_10944_60776">
<rect width="175" height="152" fill="white"/>
</clipPath>
</defs>
</svg>
