<svg width="170" height="128" viewBox="0 0 170 128" fill="none" xmlns="http://www.w3.org/2000/svg">
<g clip-path="url(#clip0_11006_32328)">
<path fill-rule="evenodd" clip-rule="evenodd" d="M81.5348 111.915C81.9549 112.564 82.3286 113.243 82.653 113.945C84.6991 118.557 87.1021 127.035 87.1021 127.035C87.1672 127.265 87.3062 127.467 87.4976 127.61C87.689 127.753 87.9222 127.829 88.1613 127.827C88.4004 127.825 88.6321 127.744 88.8207 127.597C89.0093 127.45 89.1442 127.245 89.2048 127.014C89.2048 127.014 92.502 114.449 93.7948 109.985C101.291 115.847 113.176 116.999 122.536 113.687C128.757 111.486 133.846 107.332 135.896 101.379C144.671 106.711 153.763 102.57 158.335 95.3597C161.273 90.7273 162.32 84.8383 160.225 79.4192C165.546 78.2709 168.762 73.7913 169.694 68.6312C171.114 60.7737 167.201 51.4618 157.709 50.4607C158.392 48.8206 158.744 47.0617 158.744 45.2853C158.745 43.5089 158.394 41.7498 157.713 40.1091C154.409 31.692 143.496 25.1967 131.717 30.7721C131.302 26.2779 127.903 21.9271 123.078 19.1203C115.334 14.6147 104.047 14.0731 96.5344 23.117C87.2792 10.3941 69.1072 8.99522 55.4901 14.4193C46.5824 17.968 39.6837 24.4236 38.3462 32.3814C33.162 30.0406 28.5173 29.9699 24.7021 31.2791C15.4374 34.4651 11.0274 45.9145 15.4028 54.046C-4.14724 58.5211 -1.7793 90.2383 20.0278 89.5118C19.5063 92.9069 20.2283 96.3759 22.0613 99.2817C26.6649 106.954 37.9024 112.083 49.7207 104.763C50.5526 109.472 53.75 112.851 58.0552 114.758C64.8998 117.79 74.5898 117.018 81.5368 111.911" fill="#414141"/>
<path fill-rule="evenodd" clip-rule="evenodd" d="M154.273 49.1244C170.878 49.1063 171.138 74.8849 156.958 76.2231C163.632 89.7597 147.825 107.537 133.567 97.3236C129.597 113.27 103.384 116.667 91.5609 105.769C91.3829 105.605 86.4494 124.401 86.4494 124.401C86.4494 124.401 81.4847 106.91 79.7085 108.306C68.6179 117.015 49.4596 113.616 48.9065 100.534C32.1993 112.375 16.1396 97.3697 19.7347 85.9935C-2.63113 88.1935 -4.961 55.4337 15.4611 52.4917C7.80405 41.6346 19.4659 22.2626 37.541 31.6918C39.071 10.9591 80.3404 0.227725 94.7759 22.6264C106.596 6.37375 130.125 18.3136 128.926 30.2284C145.616 20.7796 161.176 37.5894 154.274 49.1244" fill="white"/>
<path d="M68.2606 47.7195C68.3352 48.1115 68.2419 48.4568 67.9806 48.7555C67.7566 49.0542 67.4299 49.2035 67.0006 49.2035H66.2166C65.9179 49.2035 65.6472 49.1008 65.4046 48.8955C65.1619 48.6902 65.0126 48.4382 64.9566 48.1395L63.6966 40.3555C63.6406 39.9635 63.7339 39.6182 63.9766 39.3195C64.2379 39.0208 64.5646 38.8715 64.9566 38.8715H65.7406C66.0579 38.8715 66.3286 38.9742 66.5526 39.1795C66.7952 39.3661 66.9446 39.6181 67.0006 39.9355L68.2606 47.7195ZM63.6406 54.0755C63.6406 54.7475 63.4726 55.3635 63.1366 55.9235C62.8006 56.4835 62.3526 56.9315 61.7926 57.2675C61.2512 57.6035 60.6352 57.7715 59.9446 57.7715H59.3846C59.0299 57.7715 58.7219 57.6502 58.4606 57.4075C58.2179 57.1462 58.0966 56.8382 58.0966 56.4835V55.7275C58.0966 55.3728 58.2179 55.0742 58.4606 54.8315C58.7219 54.5702 59.0299 54.4395 59.3846 54.4395H59.9446C60.2059 54.4395 60.3366 54.3182 60.3366 54.0755V44.2195C60.3366 43.9768 60.2152 43.8555 59.9726 43.8555H59.1606C58.9366 43.8555 58.7966 43.9768 58.7406 44.2195L56.5286 56.7075C56.4912 57.0062 56.3512 57.2582 56.1086 57.4635C55.8846 57.6688 55.6139 57.7715 55.2966 57.7715H54.5126C54.1019 57.7715 53.7752 57.6222 53.5326 57.3235C53.2712 56.9875 53.1779 56.6422 53.2526 56.2875L55.3806 44.2195C55.4179 43.9768 55.3152 43.8555 55.0726 43.8555H54.2046C53.8499 43.8555 53.5419 43.7342 53.2806 43.4915C53.0379 43.2301 52.9166 42.9221 52.9166 42.5675V41.8115C52.9166 41.4568 53.0379 41.1581 53.2806 40.9155C53.5419 40.6541 53.8499 40.5235 54.2046 40.5235H55.6606C55.9032 40.5235 56.0432 40.4021 56.0806 40.1595L56.1366 39.9075C56.1926 39.6088 56.3419 39.3661 56.5846 39.1795C56.8272 38.9742 57.0979 38.8715 57.3966 38.8715H58.1806C58.5726 38.8715 58.8992 39.0208 59.1606 39.3195C59.3659 39.5995 59.4592 39.8888 59.4406 40.1875C59.4406 40.4115 59.5526 40.5235 59.7766 40.5235H60.5326C61.4099 40.5235 62.1472 40.8315 62.7446 41.4475C63.3419 42.0448 63.6406 42.7728 63.6406 43.6315V54.0755ZM84.4699 54.3275C84.4699 54.9622 84.3113 55.5408 83.9939 56.0635C83.6953 56.5862 83.2846 57.0062 82.7619 57.3235C82.2393 57.6222 81.6606 57.7715 81.0259 57.7715H80.3819C79.7473 57.7715 79.1686 57.6222 78.6459 57.3235C78.1233 57.0062 77.7033 56.5862 77.3859 56.0635C77.0686 55.5408 76.9099 54.9622 76.9099 54.3275V50.7155C76.9099 50.4728 76.7886 50.3515 76.5459 50.3515H76.4899C76.2473 50.3515 76.1073 50.4728 76.0699 50.7155L75.0059 56.7075C74.9499 57.0062 74.8006 57.2582 74.5579 57.4635C74.3339 57.6688 74.0633 57.7715 73.7459 57.7715H72.9619C72.5699 57.7715 72.2433 57.6222 71.9819 57.3235C71.7393 57.0248 71.6459 56.6702 71.7019 56.2595L74.5859 39.9075C74.6419 39.5902 74.7913 39.3382 75.0339 39.1515C75.2766 38.9461 75.5473 38.8435 75.8459 38.8435H76.6299C77.0219 38.8435 77.3486 39.0021 77.6099 39.3195C77.8526 39.6182 77.9459 39.9635 77.8899 40.3555L76.7699 46.6835C76.7513 46.7582 76.7699 46.8328 76.8259 46.9075C76.9006 46.9822 76.9846 47.0195 77.0779 47.0195H77.4979C78.2633 47.0195 78.9073 47.2902 79.4299 47.8315C79.9713 48.3728 80.2419 49.0262 80.2419 49.7915V54.3275C80.2419 54.4022 80.2886 54.4395 80.3819 54.4395H81.0259C81.1006 54.4395 81.1379 54.4022 81.1379 54.3275V48.3075C81.1379 47.9528 81.2593 47.6542 81.5019 47.4115C81.7633 47.1502 82.0713 47.0195 82.4259 47.0195H83.1819C83.5553 47.0195 83.8633 47.1502 84.1059 47.4115C84.3486 47.6542 84.4699 47.9528 84.4699 48.3075V54.3275ZM97.7437 42.5675C97.7437 42.9221 97.6224 43.2301 97.3797 43.4915C97.137 43.7342 96.8384 43.8555 96.4837 43.8555H93.3197C93.077 43.8555 92.9557 43.9768 92.9557 44.2195V56.4835C92.9557 56.8382 92.8344 57.1462 92.5917 57.4075C92.349 57.6502 92.041 57.7715 91.6677 57.7715H90.9117C90.557 57.7715 90.249 57.6502 89.9877 57.4075C89.745 57.1462 89.6237 56.8382 89.6237 56.4835V44.2195C89.6237 43.9768 89.5024 43.8555 89.2597 43.8555H89.1477C88.793 43.8555 88.4944 43.7342 88.2517 43.4915C88.009 43.2301 87.8877 42.9221 87.8877 42.5675V41.8115C87.8877 41.4568 88.009 41.1581 88.2517 40.9155C88.4944 40.6541 88.793 40.5235 89.1477 40.5235H89.2597C89.5024 40.5235 89.6237 40.3928 89.6237 40.1315C89.6237 39.7768 89.745 39.4781 89.9877 39.2355C90.249 38.9928 90.557 38.8715 90.9117 38.8715H91.6677C92.041 38.8715 92.349 38.9928 92.5917 39.2355C92.8344 39.4781 92.9557 39.7768 92.9557 40.1315C92.9557 40.3928 93.077 40.5235 93.3197 40.5235H96.4837C96.8384 40.5235 97.137 40.6541 97.3797 40.9155C97.6224 41.1581 97.7437 41.4568 97.7437 41.8115V42.5675ZM101.244 48.8675C101.244 49.2222 101.122 49.5208 100.88 49.7635C100.637 50.0062 100.338 50.1275 99.9837 50.1275H99.1997C98.845 50.1275 98.5464 50.0062 98.3037 49.7635C98.061 49.5208 97.9397 49.2222 97.9397 48.8675V48.4475C97.9397 48.2982 97.8837 48.1768 97.7717 48.0835C97.6784 47.9715 97.557 47.9155 97.4077 47.9155H94.9157C94.561 47.9155 94.253 47.7942 93.9917 47.5515C93.749 47.3088 93.6277 47.0102 93.6277 46.6555V45.8715C93.6277 45.5168 93.749 45.2182 93.9917 44.9755C94.253 44.7328 94.561 44.6115 94.9157 44.6115H97.4077C98.117 44.6115 98.761 44.7888 99.3397 45.1435C99.9184 45.4795 100.376 45.9368 100.712 46.5155C101.066 47.0942 101.244 47.7382 101.244 48.4475V48.8675ZM101.244 56.4835C101.244 56.8382 101.122 57.1462 100.88 57.4075C100.637 57.6502 100.338 57.7715 99.9837 57.7715H97.4637C96.773 57.7715 96.129 57.6035 95.5317 57.2675C94.953 56.9128 94.4864 56.4462 94.1317 55.8675C93.7957 55.2888 93.6277 54.6448 93.6277 53.9355V52.0595C93.6277 51.7048 93.749 51.4062 93.9917 51.1635C94.253 50.9208 94.561 50.7995 94.9157 50.7995H95.6717C96.045 50.7995 96.353 50.9208 96.5957 51.1635C96.8384 51.4062 96.9597 51.7048 96.9597 52.0595V53.9355C96.9597 54.0662 97.0064 54.1875 97.0997 54.2995C97.2117 54.3928 97.333 54.4395 97.4637 54.4395H99.9837C100.338 54.4395 100.637 54.5702 100.88 54.8315C101.122 55.0742 101.244 55.3728 101.244 55.7275V56.4835ZM117.444 54.3275C117.444 54.9622 117.286 55.5408 116.968 56.0635C116.67 56.5862 116.259 57.0062 115.736 57.3235C115.214 57.6222 114.635 57.7715 114 57.7715H113.356C112.722 57.7715 112.143 57.6222 111.62 57.3235C111.098 57.0062 110.678 56.5862 110.36 56.0635C110.043 55.5408 109.884 54.9622 109.884 54.3275V50.7155C109.884 50.4728 109.763 50.3515 109.52 50.3515H109.464C109.222 50.3515 109.082 50.4728 109.044 50.7155L107.98 56.7075C107.924 57.0062 107.775 57.2582 107.532 57.4635C107.308 57.6688 107.038 57.7715 106.72 57.7715H105.936C105.544 57.7715 105.218 57.6222 104.956 57.3235C104.714 57.0248 104.62 56.6702 104.676 56.2595L107.56 39.9075C107.616 39.5902 107.766 39.3382 108.008 39.1515C108.251 38.9461 108.522 38.8435 108.82 38.8435H109.604C109.996 38.8435 110.323 39.0021 110.584 39.3195C110.827 39.6182 110.92 39.9635 110.864 40.3555L109.744 46.6835C109.726 46.7582 109.744 46.8328 109.8 46.9075C109.875 46.9822 109.959 47.0195 110.052 47.0195H110.472C111.238 47.0195 111.882 47.2902 112.404 47.8315C112.946 48.3728 113.216 49.0262 113.216 49.7915V54.3275C113.216 54.4022 113.263 54.4395 113.356 54.4395H114C114.075 54.4395 114.112 54.4022 114.112 54.3275V48.3075C114.112 47.9528 114.234 47.6542 114.476 47.4115C114.738 47.1502 115.046 47.0195 115.4 47.0195H116.156C116.53 47.0195 116.838 47.1502 117.08 47.4115C117.323 47.6542 117.444 47.9528 117.444 48.3075V54.3275ZM55.2916 83.0755C55.2916 83.7475 55.1236 84.3635 54.7876 84.9235C54.4516 85.4835 54.0036 85.9315 53.4436 86.2675C52.8836 86.6035 52.2676 86.7715 51.5956 86.7715H46.2196C45.5476 86.7715 44.9223 86.6035 44.3436 86.2675C43.7836 85.9315 43.3356 85.4835 42.9996 84.9235C42.6636 84.3635 42.4956 83.7475 42.4956 83.0755V82.2355C42.4956 81.8808 42.6169 81.5822 42.8596 81.3395C43.1209 81.0782 43.4289 80.9475 43.7836 80.9475H44.5676C44.9036 80.9475 45.1929 81.0782 45.4356 81.3395C45.6969 81.5822 45.8276 81.8808 45.8276 82.2355V83.0755C45.8276 83.1688 45.8649 83.2622 45.9396 83.3555C46.0329 83.4302 46.1263 83.4675 46.2196 83.4675H51.5956C51.6889 83.4675 51.7729 83.4302 51.8476 83.3555C51.9223 83.2622 51.9596 83.1688 51.9596 83.0755V79.3515C51.9596 79.1088 51.8383 78.9875 51.5956 78.9875H46.2196C45.8649 78.9875 45.5569 78.8662 45.2956 78.6235C45.0529 78.3622 44.9316 78.0542 44.9316 77.6995V76.9155C44.9316 76.5608 45.0529 76.2622 45.2956 76.0195C45.5569 75.7768 45.8649 75.6555 46.2196 75.6555H51.5956C51.6889 75.6555 51.7729 75.6182 51.8476 75.5435C51.9223 75.4502 51.9596 75.3568 51.9596 75.2635V71.5675C51.9596 71.3061 51.8383 71.1755 51.5956 71.1755H46.2196C46.1263 71.1755 46.0329 71.2128 45.9396 71.2875C45.8649 71.3622 45.8276 71.4555 45.8276 71.5675V72.3235C45.8276 72.6782 45.6969 72.9768 45.4356 73.2195C45.1929 73.4622 44.9036 73.5835 44.5676 73.5835H43.7836C43.4289 73.5835 43.1209 73.4622 42.8596 73.2195C42.6169 72.9768 42.4956 72.6782 42.4956 72.3235V71.5675C42.4956 70.8768 42.6636 70.2515 42.9996 69.6915C43.3356 69.1315 43.7836 68.6835 44.3436 68.3475C44.9223 68.0115 45.5476 67.8435 46.2196 67.8435H51.5956C52.2676 67.8435 52.8836 68.0115 53.4436 68.3475C54.0036 68.6835 54.4516 69.1315 54.7876 69.6915C55.1236 70.2515 55.2916 70.8768 55.2916 71.5675V75.2635C55.2916 75.5622 55.2543 75.8608 55.1796 76.1595C55.1049 76.4582 55.0023 76.7475 54.8716 77.0275C54.7223 77.2142 54.7223 77.4102 54.8716 77.6155C55.0023 77.8768 55.1049 78.1568 55.1796 78.4555C55.2543 78.7542 55.2916 79.0528 55.2916 79.3515V83.0755ZM71.1414 73.9195C71.1414 75.2635 70.7027 76.4302 69.8254 77.4195L67.3894 80.1915C67.2214 80.3595 67.2214 80.5368 67.3894 80.7235L70.8334 84.6435C71.188 85.0728 71.2627 85.5302 71.0574 86.0155C70.8147 86.5195 70.4227 86.7715 69.8814 86.7715H68.8454C68.472 86.7715 68.1547 86.6315 67.8934 86.3515L65.1494 83.2435C65 83.0755 64.8414 83.0755 64.6734 83.2435L61.9293 86.3515C61.7054 86.6315 61.388 86.7715 60.9774 86.7715H59.9693C59.7267 86.7715 59.4934 86.7062 59.2693 86.5755C59.0453 86.4448 58.8867 86.2582 58.7933 86.0155C58.588 85.5302 58.6533 85.0728 58.9893 84.6435L67.3334 75.2355C67.6507 74.8622 67.8094 74.4235 67.8094 73.9195V72.4635C67.8094 72.3141 67.7627 72.1928 67.6694 72.0995C67.576 71.9875 67.4547 71.9315 67.3054 71.9315H59.9693C59.6147 71.9315 59.3067 71.8102 59.0453 71.5675C58.8027 71.3248 58.6813 71.0261 58.6813 70.6715V69.8875C58.6813 69.5328 58.8027 69.2341 59.0453 68.9915C59.3067 68.7488 59.6147 68.6275 59.9693 68.6275H67.3054C68.0147 68.6275 68.6587 68.8048 69.2374 69.1595C69.816 69.4955 70.2734 69.9528 70.6094 70.5315C70.964 71.1102 71.1414 71.7542 71.1414 72.4635V73.9195ZM86.9996 70.6715C86.9996 71.0261 86.8783 71.3248 86.6356 71.5675C86.393 71.8102 86.085 71.9315 85.7116 71.9315H75.8276C75.473 71.9315 75.1743 71.8102 74.9316 71.5675C74.689 71.3248 74.5676 71.0261 74.5676 70.6715V69.8875C74.5676 69.5328 74.689 69.2341 74.9316 68.9915C75.1743 68.7488 75.473 68.6275 75.8276 68.6275H85.7116C86.085 68.6275 86.393 68.7488 86.6356 68.9915C86.8783 69.2341 86.9996 69.5328 86.9996 69.8875V70.6715ZM86.9996 75.6835C86.9996 76.0382 86.8783 76.3462 86.6356 76.6075C86.393 76.8502 86.085 76.9715 85.7116 76.9715H83.1636C82.921 76.9715 82.7996 77.0928 82.7996 77.3355V79.2675C82.7996 80.6862 82.4076 82.0022 81.6236 83.2155L79.6076 86.2115C79.3836 86.5848 79.029 86.7715 78.5436 86.7715H77.6196C77.1156 86.7715 76.7423 86.5475 76.4996 86.0995C76.257 85.6515 76.2756 85.2128 76.5556 84.7835L78.8516 81.3675C79.2623 80.7702 79.4676 80.0702 79.4676 79.2675V77.3355C79.4676 77.0928 79.3556 76.9715 79.1316 76.9715H75.8276C75.473 76.9715 75.1743 76.8502 74.9316 76.6075C74.689 76.3462 74.5676 76.0382 74.5676 75.6835V74.9275C74.5676 74.5542 74.689 74.2462 74.9316 74.0035C75.1743 73.7608 75.473 73.6395 75.8276 73.6395H85.7116C86.085 73.6395 86.393 73.7608 86.6356 74.0035C86.8783 74.2462 86.9996 74.5542 86.9996 74.9275V75.6835ZM98.3499 79.2675C98.3499 79.6222 98.2192 79.9208 97.9579 80.1635C97.7152 80.4062 97.4166 80.5275 97.0619 80.5275H96.2779C95.9232 80.5275 95.6246 80.4062 95.3819 80.1635C95.1392 79.9208 95.0179 79.6222 95.0179 79.2675V73.6675C95.0179 73.3128 95.1392 73.0142 95.3819 72.7715C95.6246 72.5288 95.9232 72.4075 96.2779 72.4075H97.0619C97.4166 72.4075 97.7152 72.5288 97.9579 72.7715C98.2192 73.0142 98.3499 73.3128 98.3499 73.6675V79.2675ZM94.5699 79.2675C94.5699 79.6222 94.4392 79.9208 94.1779 80.1635C93.9352 80.4062 93.6366 80.5275 93.2819 80.5275H92.4979C92.1432 80.5275 91.8352 80.4062 91.5739 80.1635C91.3312 79.9208 91.2099 79.6222 91.2099 79.2675V73.6675C91.2099 73.3128 91.3312 73.0142 91.5739 72.7715C91.8352 72.5288 92.1432 72.4075 92.4979 72.4075H93.2819C93.6366 72.4075 93.9352 72.5288 94.1779 72.7715C94.4392 73.0142 94.5699 73.3128 94.5699 73.6675V79.2675ZM102.886 75.0955L101.318 83.9715C101.187 84.7742 100.795 85.4462 100.142 85.9875C99.5072 86.5102 98.7792 86.7715 97.9579 86.7715H96.5579C96.2032 86.7715 95.8952 86.6502 95.6339 86.4075C95.3912 86.1462 95.2699 85.8382 95.2699 85.4835V84.7275C95.2699 84.3728 95.3912 84.0742 95.6339 83.8315C95.8952 83.5702 96.2032 83.4395 96.5579 83.4395H97.9019C97.9579 83.4395 97.9952 83.4302 98.0139 83.4115C98.0326 83.3928 98.0419 83.3835 98.0419 83.3835C98.0419 83.3648 98.0512 83.3462 98.0699 83.3275L99.6099 74.6475C99.6659 74.3302 99.8059 74.0782 100.03 73.8915C100.273 73.6862 100.553 73.5835 100.87 73.5835H101.626C102.037 73.5835 102.363 73.7328 102.606 74.0315C102.867 74.3675 102.961 74.7222 102.886 75.0955ZM121.017 69.7775C121.017 70.4928 120.756 71.1115 120.234 71.6335C119.731 72.1362 119.122 72.3875 118.407 72.3875C117.691 72.3875 117.073 72.1362 116.551 71.6335C116.048 71.1115 115.797 70.4928 115.797 69.7775C115.797 69.0622 116.048 68.4532 116.551 67.9505C117.073 67.4478 117.691 67.1965 118.407 67.1965C119.122 67.1965 119.731 67.4478 120.234 67.9505C120.756 68.4532 121.017 69.0622 121.017 69.7775ZM118.407 73.4605C118.407 74.8525 117.952 76.0608 117.044 77.0855L108.895 86.3365C108.605 86.6265 108.276 86.7715 107.909 86.7715H106.836C106.275 86.7715 105.869 86.5105 105.618 85.9885C105.405 85.4858 105.482 85.0122 105.85 84.5675L114.463 74.8235C114.811 74.4175 114.985 73.9632 114.985 73.4605V71.9525C114.985 71.7978 114.927 71.6721 114.811 71.5755C114.714 71.4595 114.588 71.4015 114.434 71.4015H106.836C106.468 71.4015 106.159 71.2758 105.908 71.0245C105.656 70.7731 105.531 70.4638 105.531 70.0965V69.2845C105.531 68.9171 105.656 68.6078 105.908 68.3565C106.159 68.1052 106.468 67.9795 106.836 67.9795H114.434C114.743 67.9795 115.052 68.0085 115.362 68.0665C115.458 68.0858 115.526 68.1438 115.565 68.2405C115.603 68.3178 115.603 68.4048 115.565 68.5015C115.371 68.9268 115.275 69.3522 115.275 69.7775C115.275 70.5702 115.545 71.2662 116.087 71.8655C116.628 72.4455 117.285 72.7838 118.059 72.8805C118.291 72.9192 118.407 73.0545 118.407 73.2865V73.4605ZM118.9 69.7775C118.9 69.6421 118.851 69.5358 118.755 69.4585C118.658 69.3618 118.542 69.3135 118.407 69.3135C118.097 69.3135 117.943 69.4681 117.943 69.7775C117.943 69.9128 117.981 70.0288 118.059 70.1255C118.155 70.2222 118.271 70.2705 118.407 70.2705C118.542 70.2705 118.658 70.2222 118.755 70.1255C118.851 70.0288 118.9 69.9128 118.9 69.7775ZM127.435 80.3315C127.435 80.6862 127.305 80.9848 127.043 81.2275C126.801 81.4702 126.502 81.5915 126.147 81.5915H125.391C125.037 81.5915 124.729 81.4702 124.467 81.2275C124.225 80.9848 124.103 80.6862 124.103 80.3315V69.1315C124.103 68.7581 124.225 68.4501 124.467 68.2075C124.729 67.9648 125.037 67.8435 125.391 67.8435H126.147C126.502 67.8435 126.801 67.9648 127.043 68.2075C127.305 68.4501 127.435 68.7581 127.435 69.1315V80.3315ZM127.883 84.6715C127.883 85.2502 127.669 85.7448 127.239 86.1555C126.829 86.5662 126.343 86.7715 125.783 86.7715C125.205 86.7715 124.701 86.5662 124.271 86.1555C123.861 85.7448 123.655 85.2502 123.655 84.6715C123.655 84.0928 123.861 83.5982 124.271 83.1875C124.701 82.7768 125.205 82.5715 125.783 82.5715C126.343 82.5715 126.829 82.7768 127.239 83.1875C127.669 83.5982 127.883 84.0928 127.883 84.6715Z" fill="url(#paint0_linear_11006_32328)"/>
<path d="M154.273 49.1244C170.878 49.1063 171.138 74.8849 156.958 76.2231C163.632 89.7597 147.825 107.537 133.567 97.3236C129.597 113.27 103.384 116.667 91.5609 105.769C91.3829 105.605 86.4494 124.401 86.4494 124.401C86.4494 124.401 81.4848 106.91 79.7085 108.306C68.6179 117.015 49.4596 113.616 48.9065 100.534C32.1993 112.375 16.1396 97.3697 19.7347 85.9935C-2.63113 88.1935 -4.961 55.4337 15.4611 52.4917C7.80405 41.6346 19.4659 22.2626 37.541 31.6918C39.071 10.9591 80.3404 0.227725 94.7759 22.6264C106.596 6.37375 130.125 18.3136 128.926 30.2284C145.614 20.7791 161.174 37.5894 154.273 49.1244Z" stroke="#414141" stroke-width="2" stroke-linecap="round" stroke-linejoin="round"/>
<path d="M11.4755 30.3886L1.23047 30.4009" stroke="#414141" stroke-width="2.17182" stroke-linecap="round" stroke-linejoin="round"/>
<path d="M13.6015 23.683L1.08984 19.1228" stroke="#414141" stroke-width="2.17182" stroke-linecap="round" stroke-linejoin="round"/>
<path d="M16.434 17.1379L8.0332 11.2751" stroke="#414141" stroke-width="2.17182" stroke-linecap="round" stroke-linejoin="round"/>
<path d="M21.3067 13.0184L13.2578 2.41699" stroke="#414141" stroke-width="2.17182" stroke-linecap="round" stroke-linejoin="round"/>
<path d="M27.3966 10.9292L23.8809 1.31714" stroke="#414141" stroke-width="2.17182" stroke-linecap="round" stroke-linejoin="round"/>
</g>
<defs>
<linearGradient id="paint0_linear_11006_32328" x1="41.1953" y1="31.7715" x2="133.483" y2="39.6697" gradientUnits="userSpaceOnUse">
<stop stop-color="#FF87B2"/>
<stop offset="0.5" stop-color="#FE7E6C"/>
<stop offset="1" stop-color="#FFC075"/>
</linearGradient>
<clipPath id="clip0_11006_32328">
<rect width="170" height="128" fill="white"/>
</clipPath>
</defs>
</svg>
