<svg width="34" height="40" viewBox="0 0 34 40" fill="none" xmlns="http://www.w3.org/2000/svg">
<circle cx="31.8087" cy="6.36337" r="1.54891" fill="#EB537B"/>
<circle cx="1.94149" cy="6.36337" r="1.54891" fill="#EB537B"/>
<circle cx="16.9395" cy="1.54891" r="1.54891" fill="#EB537B"/>
<circle cx="9.50399" cy="2.78719" r="1.54891" fill="#EB537B"/>
<circle cx="24.3731" cy="2.78719" r="1.54891" fill="#EB537B"/>
<path d="M24.568 11.6746L6.22461 16.541L9.73011 29.4941L28.0736 24.6277L24.568 11.6746Z" fill="white" stroke="white" stroke-width="0.892174" stroke-linecap="round" stroke-linejoin="round"/>
<path d="M6.7207 18.3711L12.2424 38.774" stroke="#EB537B" stroke-width="0.892174" stroke-linecap="round" stroke-linejoin="round"/>
<path d="M8.85073 15.8172L24.5394 11.6756L28.0713 24.6615L12.0377 28.8941" stroke="#EB537B" stroke-width="0.892174" stroke-linecap="round" stroke-linejoin="round"/>
<path d="M7.08594 15.0666C7.26083 15.7096 6.87764 16.3701 6.22523 16.5423C5.57281 16.7145 4.90577 16.3313 4.73088 15.6883C4.55599 15.0452 4.93918 14.3848 5.59159 14.2126C6.24401 14.0404 6.91104 14.4236 7.08594 15.0666Z" stroke="#EB537B" stroke-width="0.892174" stroke-linecap="round" stroke-linejoin="round"/>
<path d="M12.0818 14.9848L9.25001 19.8732" stroke="#EB537B" stroke-width="0.892174" stroke-linecap="round" stroke-linejoin="round"/>
<path d="M15.5879 14.0515L10.1976 23.3494" stroke="#EB537B" stroke-width="0.892174" stroke-linecap="round" stroke-linejoin="round"/>
<path d="M19.0939 13.1221L11.1437 26.8242" stroke="#EB537B" stroke-width="0.892174" stroke-linecap="round" stroke-linejoin="round"/>
<path d="M22.6032 12.1901L13.0699 28.6206" stroke="#EB537B" stroke-width="0.892174" stroke-linecap="round" stroke-linejoin="round"/>
<path d="M24.9667 13.2315L16.5792 27.6874" stroke="#EB537B" stroke-width="0.892174" stroke-linecap="round" stroke-linejoin="round"/>
<path d="M25.9138 16.7078L20.0847 26.7542" stroke="#EB537B" stroke-width="0.892174" stroke-linecap="round" stroke-linejoin="round"/>
<path d="M26.8609 20.188L23.5903 25.8249" stroke="#EB537B" stroke-width="0.892174" stroke-linecap="round" stroke-linejoin="round"/>
</svg>
