<svg width="57" height="61" viewBox="0 0 57 61" fill="none" xmlns="http://www.w3.org/2000/svg">
<g clip-path="url(#clip0_10944_62527)">
<path d="M1 21.9712C13.3358 25.7432 16.096 28.807 19.5 42.4712C22.904 28.807 25.6642 25.7432 38 21.9712C25.6642 18.1992 22.904 15.1354 19.5 1.47119C16.096 15.1354 13.3358 18.1992 1 21.9712Z" fill="#FFE236" stroke="#414141" stroke-width="2" stroke-linecap="round" stroke-linejoin="round"/>
<path d="M35 47.9712C42.0035 50.083 43.568 51.808 45.5 59.4712C47.432 51.808 48.9965 50.083 56 47.9712C48.9965 45.8489 47.432 44.1344 45.5 36.4712C43.568 44.1344 42.0035 45.8489 35 47.9712Z" fill="#FFE236" stroke="#414141" stroke-width="2" stroke-linecap="round" stroke-linejoin="round"/>
</g>
<defs>
<clipPath id="clip0_10944_62527">
<rect width="57" height="60" fill="white" transform="matrix(-1 0 0 1 57 0.471191)"/>
</clipPath>
</defs>
</svg>
