<svg width="174" height="192" viewBox="0 0 174 192" fill="none" xmlns="http://www.w3.org/2000/svg">
<g clip-path="url(#clip0_10944_62882)">
<path d="M86.9395 163.749C129.1 163.749 163.277 129.571 163.277 87.4107C163.277 45.2504 129.1 11.0728 86.9395 11.0728C44.7792 11.0728 10.6016 45.2504 10.6016 87.4107C10.6016 129.571 44.7792 163.749 86.9395 163.749Z" fill="#F4A0B6"/>
<path d="M86.9395 163.749C129.1 163.749 163.277 129.571 163.277 87.4107C163.277 45.2504 129.1 11.0728 86.9395 11.0728C44.7792 11.0728 10.6016 45.2504 10.6016 87.4107C10.6016 129.571 44.7792 163.749 86.9395 163.749Z" fill="url(#paint0_linear_10944_62882)" fill-opacity="0.5"/>
<path d="M60.144 117.599V118.733H65.382V117.599H60.144ZM60.144 115.187V116.303H65.382V115.187H60.144ZM58.38 113.819H67.218V120.119H58.38V113.819ZM59.928 119.435L61.71 119.885C61.278 121.001 60.708 122.045 60 123.017C59.292 123.977 58.53 124.781 57.714 125.429C57.63 125.309 57.498 125.171 57.318 125.015C57.15 124.847 56.982 124.679 56.814 124.511C56.646 124.343 56.49 124.211 56.346 124.115C57.126 123.575 57.828 122.897 58.452 122.081C59.088 121.253 59.58 120.371 59.928 119.435ZM60.252 121.253H66.732V122.855H59.28L60.252 121.253ZM66.246 121.253H68.064C68.064 121.253 68.058 121.301 68.046 121.397C68.046 121.493 68.046 121.601 68.046 121.721C68.046 121.841 68.04 121.937 68.028 122.009C67.932 123.617 67.83 124.919 67.722 125.915C67.626 126.899 67.512 127.655 67.38 128.183C67.248 128.711 67.086 129.089 66.894 129.317C66.702 129.545 66.498 129.701 66.282 129.785C66.066 129.881 65.814 129.947 65.526 129.983C65.262 130.019 64.926 130.031 64.518 130.019C64.122 130.019 63.696 130.007 63.24 129.983C63.228 129.755 63.174 129.485 63.078 129.173C62.994 128.873 62.88 128.609 62.736 128.381C63.156 128.417 63.54 128.441 63.888 128.453C64.248 128.465 64.518 128.471 64.698 128.471C64.842 128.471 64.962 128.459 65.058 128.435C65.154 128.399 65.25 128.333 65.346 128.237C65.49 128.093 65.61 127.787 65.706 127.319C65.814 126.839 65.91 126.137 65.994 125.213C66.09 124.277 66.174 123.059 66.246 121.559V121.253ZM63.006 123.413L64.14 124.601C63.72 124.781 63.258 124.955 62.754 125.123C62.25 125.279 61.74 125.417 61.224 125.537C60.708 125.657 60.21 125.765 59.73 125.861C59.694 125.693 59.628 125.495 59.532 125.267C59.448 125.039 59.364 124.841 59.28 124.673C59.724 124.553 60.174 124.427 60.63 124.295C61.086 124.163 61.524 124.019 61.944 123.863C62.364 123.707 62.718 123.557 63.006 123.413ZM58.578 123.323H60.216V126.401C60.216 126.617 60.258 126.755 60.342 126.815C60.426 126.875 60.612 126.905 60.9 126.905C60.96 126.905 61.068 126.905 61.224 126.905C61.392 126.905 61.572 126.905 61.764 126.905C61.968 126.905 62.154 126.905 62.322 126.905C62.502 126.905 62.634 126.905 62.718 126.905C62.874 126.905 62.988 126.881 63.06 126.833C63.144 126.773 63.204 126.665 63.24 126.509C63.276 126.353 63.3 126.119 63.312 125.807C63.48 125.927 63.708 126.047 63.996 126.167C64.296 126.275 64.56 126.353 64.788 126.401C64.728 126.929 64.626 127.337 64.482 127.625C64.338 127.913 64.14 128.117 63.888 128.237C63.648 128.345 63.324 128.399 62.916 128.399C62.82 128.399 62.664 128.399 62.448 128.399C62.244 128.399 62.022 128.399 61.782 128.399C61.542 128.399 61.314 128.399 61.098 128.399C60.894 128.399 60.75 128.399 60.666 128.399C60.09 128.399 59.652 128.339 59.352 128.219C59.052 128.099 58.848 127.895 58.74 127.607C58.632 127.319 58.578 126.923 58.578 126.419V123.323ZM51.414 122.531C52.158 122.375 53.052 122.165 54.096 121.901C55.152 121.625 56.208 121.343 57.264 121.055L57.498 122.783C56.526 123.071 55.542 123.359 54.546 123.647C53.55 123.923 52.638 124.181 51.81 124.421L51.414 122.531ZM51.756 116.699H57.408V118.481H51.756V116.699ZM53.952 113.243H55.806V127.823C55.806 128.315 55.752 128.699 55.644 128.975C55.548 129.263 55.362 129.485 55.086 129.641C54.798 129.797 54.444 129.899 54.024 129.947C53.604 129.995 53.088 130.019 52.476 130.019C52.452 129.767 52.386 129.455 52.278 129.083C52.17 128.723 52.056 128.411 51.936 128.147C52.296 128.159 52.638 128.165 52.962 128.165C53.286 128.165 53.508 128.165 53.628 128.165C53.748 128.165 53.832 128.141 53.88 128.093C53.928 128.033 53.952 127.943 53.952 127.823V113.243ZM82.122 114.287L83.526 113.351C83.946 113.711 84.378 114.125 84.822 114.593C85.278 115.061 85.626 115.469 85.866 115.817L84.39 116.861C84.246 116.621 84.048 116.351 83.796 116.051C83.544 115.751 83.268 115.445 82.968 115.133C82.68 114.821 82.398 114.539 82.122 114.287ZM69.864 117.095H86.19V118.697H69.864V117.095ZM70.674 114.503H78.522V115.997H70.674V114.503ZM70.368 119.597H78.846V120.983H70.368V119.597ZM70.098 126.977H78.864V128.399H70.098V126.977ZM73.698 113.225H75.534V118.553H73.698V113.225ZM72.096 124.439V125.213H77.118V124.439H72.096ZM72.096 122.729V123.485H77.118V122.729H72.096ZM70.71 121.739H78.558V126.185H70.71V121.739ZM73.878 122.351H75.3V125.843H75.444V130.055H73.752V125.843H73.878V122.351ZM73.716 118.625H75.462V122.099H73.716V118.625ZM79.422 113.243H81.366C81.33 114.839 81.348 116.375 81.42 117.851C81.492 119.315 81.606 120.677 81.762 121.937C81.93 123.185 82.134 124.277 82.374 125.213C82.614 126.137 82.89 126.857 83.202 127.373C83.514 127.889 83.856 128.147 84.228 128.147C84.432 128.147 84.582 127.913 84.678 127.445C84.786 126.977 84.864 126.215 84.912 125.159C85.116 125.363 85.362 125.561 85.65 125.753C85.95 125.933 86.22 126.071 86.46 126.167C86.376 127.187 86.238 127.973 86.046 128.525C85.866 129.089 85.614 129.479 85.29 129.695C84.978 129.923 84.564 130.037 84.048 130.037C83.436 130.037 82.89 129.821 82.41 129.389C81.942 128.969 81.54 128.381 81.204 127.625C80.868 126.857 80.58 125.951 80.34 124.907C80.112 123.851 79.932 122.699 79.8 121.451C79.668 120.203 79.572 118.889 79.512 117.509C79.452 116.117 79.422 114.695 79.422 113.243ZM83.85 119.525L85.56 120.065C85.104 121.505 84.54 122.843 83.868 124.079C83.196 125.315 82.416 126.437 81.528 127.445C80.64 128.453 79.644 129.323 78.54 130.055C78.396 129.827 78.198 129.575 77.946 129.299C77.706 129.023 77.466 128.789 77.226 128.597C78.27 127.973 79.218 127.211 80.07 126.311C80.922 125.399 81.666 124.373 82.302 123.233C82.938 122.093 83.454 120.857 83.85 119.525ZM91.608 121.235H100.392V122.765H91.608V121.235ZM91.32 124.295H100.716V125.897H91.32V124.295ZM96.882 121.703H98.592V129.695H96.882V121.703ZM93.318 121.775H94.974V125.177C94.974 125.465 94.938 125.813 94.866 126.221C94.794 126.629 94.668 127.067 94.488 127.535C94.32 127.991 94.08 128.435 93.768 128.867C93.456 129.299 93.06 129.677 92.58 130.001C92.436 129.833 92.238 129.635 91.986 129.407C91.746 129.191 91.524 129.017 91.32 128.885C91.86 128.549 92.274 128.153 92.562 127.697C92.85 127.241 93.048 126.785 93.156 126.329C93.264 125.873 93.318 125.489 93.318 125.177V121.775ZM89.43 116.411H94.11V117.689H89.43V116.411ZM97.782 116.411H102.48V117.689H97.782V116.411ZM101.724 113.945H103.614V127.733C103.614 128.237 103.554 128.639 103.434 128.939C103.326 129.239 103.122 129.467 102.822 129.623C102.498 129.791 102.096 129.893 101.616 129.929C101.148 129.977 100.572 129.995 99.888 129.983C99.864 129.803 99.822 129.599 99.762 129.371C99.702 129.143 99.63 128.909 99.546 128.669C99.474 128.429 99.396 128.231 99.312 128.075C99.732 128.087 100.14 128.093 100.536 128.093C100.944 128.093 101.22 128.093 101.364 128.093C101.496 128.093 101.586 128.063 101.634 128.003C101.694 127.943 101.724 127.847 101.724 127.715V113.945ZM89.61 113.945H95.334V120.245H89.61V118.841H93.516V115.331H89.61V113.945ZM102.696 113.945V115.331H98.466V118.877H102.696V120.281H96.63V113.945H102.696ZM88.476 113.945H90.366V130.037H88.476V113.945ZM114.774 127.553H120.678V129.299H114.774V127.553ZM113.802 122.549H121.686V129.965H119.778V124.313H115.638V130.037H113.802V122.549ZM112.614 119.255C113.334 119.219 114.156 119.177 115.08 119.129C116.016 119.081 117 119.027 118.032 118.967C119.076 118.895 120.114 118.829 121.146 118.769L121.128 120.497C120.144 120.569 119.154 120.647 118.158 120.731C117.174 120.815 116.226 120.887 115.314 120.947C114.402 121.007 113.574 121.067 112.83 121.127L112.614 119.255ZM118.374 116.807L119.922 116.033C120.306 116.537 120.678 117.083 121.038 117.671C121.41 118.247 121.746 118.817 122.046 119.381C122.346 119.945 122.568 120.455 122.712 120.911L121.038 121.811C120.906 121.355 120.702 120.839 120.426 120.263C120.15 119.675 119.832 119.081 119.472 118.481C119.124 117.881 118.758 117.323 118.374 116.807ZM115.854 113.207L117.996 113.621C117.756 114.377 117.492 115.157 117.204 115.961C116.916 116.765 116.622 117.539 116.322 118.283C116.022 119.027 115.734 119.687 115.458 120.263L113.82 119.831C114.012 119.387 114.204 118.889 114.396 118.337C114.6 117.785 114.792 117.215 114.972 116.627C115.152 116.027 115.32 115.439 115.476 114.863C115.632 114.275 115.758 113.723 115.854 113.207ZM105.72 116.861H111.588V118.643H105.72V116.861ZM108.24 113.207L110.058 113.423C109.866 114.359 109.656 115.349 109.428 116.393C109.212 117.437 108.978 118.487 108.726 119.543C108.486 120.587 108.24 121.595 107.988 122.567C107.748 123.527 107.52 124.403 107.304 125.195L105.738 124.349C105.942 123.653 106.158 122.849 106.386 121.937C106.614 121.025 106.836 120.065 107.052 119.057C107.28 118.037 107.496 117.029 107.7 116.033C107.904 115.037 108.084 114.095 108.24 113.207ZM106.71 123.989L107.772 122.639C108.408 123.023 109.068 123.461 109.752 123.953C110.448 124.445 111.096 124.943 111.696 125.447C112.296 125.951 112.77 126.431 113.118 126.887L111.966 128.435C111.618 127.991 111.15 127.505 110.562 126.977C109.986 126.437 109.362 125.903 108.69 125.375C108.018 124.847 107.358 124.385 106.71 123.989ZM110.868 116.861H111.192L111.534 116.807L112.668 117.005C112.536 119.345 112.236 121.361 111.768 123.053C111.312 124.745 110.688 126.167 109.896 127.319C109.104 128.459 108.12 129.389 106.944 130.109C106.812 129.869 106.632 129.593 106.404 129.281C106.176 128.981 105.966 128.741 105.774 128.561C106.782 128.021 107.646 127.235 108.366 126.203C109.086 125.159 109.65 123.887 110.058 122.387C110.478 120.875 110.748 119.153 110.868 117.221V116.861Z" fill="#221A15"/>
<rect x="60.9629" y="50.1353" width="53.9687" height="34.1522" fill="white"/>
<path d="M124.482 87.1489V88.7444C124.482 90.3149 123.214 91.5871 121.649 91.5871H54.7222C53.1568 91.5871 51.8887 90.3149 51.8887 88.7444V87.1489H82.5397V89.3685H93.8302V87.1489H124.481H124.482Z" fill="#948E8B"/>
<path d="M124.483 87.1492H123.593V88.7446C123.593 89.016 123.539 89.2705 123.441 89.5035C123.294 89.8526 123.047 90.1517 122.736 90.3624C122.425 90.5731 122.056 90.6945 121.651 90.6945H54.7235C54.4529 90.6945 54.1993 90.6401 53.967 90.5419C53.6191 90.3946 53.3209 90.1463 53.1109 89.8348C52.9009 89.5223 52.7799 89.1518 52.7799 88.7455V88.0429H58.5875H81.651V89.3696C81.651 89.6044 81.7462 89.8348 81.9117 90.0008C82.0773 90.1669 82.3069 90.2624 82.5409 90.2624H93.8315C94.0655 90.2624 94.2951 90.1669 94.4607 90.0008C94.6262 89.8348 94.7214 89.6044 94.7214 89.3696V88.0429H117.785H124.482V87.1501V86.2572H93.8315C93.5974 86.2572 93.3678 86.3528 93.2023 86.5188C93.0368 86.6849 92.9415 86.9152 92.9415 87.1501V88.4768H83.4309V87.1501C83.4309 86.9152 83.3356 86.6849 83.1701 86.5188C83.0046 86.3528 82.775 86.2572 82.5409 86.2572H51.8899C51.6559 86.2572 51.4263 86.3528 51.2607 86.5188C51.0952 86.684 51 86.9144 51 87.1492V88.7446C51 89.258 51.1041 89.7517 51.2928 90.199C51.5758 90.8704 52.0474 91.4392 52.641 91.8418C53.2346 92.2445 53.9555 92.4811 54.7235 92.4802H121.65C122.162 92.4802 122.654 92.3757 123.1 92.1864C123.769 91.9025 124.336 91.4293 124.737 90.8338C125.138 90.2383 125.374 89.5151 125.373 88.7446V87.1492C125.373 86.9144 125.278 86.684 125.113 86.5179C124.947 86.3519 124.717 86.2563 124.483 86.2563V87.1492Z" fill="#4C423D"/>
<path d="M117.785 48.6768V87.1491H58.5879V48.6768C58.5879 47.7938 59.3016 47.0786 60.1809 47.0786H116.192C117.072 47.0786 117.785 47.7938 117.785 48.6768ZM115.871 84.6823V49.5464H60.5021V84.6832H115.872L115.871 84.6823Z" fill="#948E8B"/>
<path d="M117.784 48.6772H116.894V86.2567H59.4762V48.6772C59.4762 48.5772 59.4958 48.487 59.5314 48.4031C59.5839 48.2781 59.6747 48.1683 59.7868 48.0924C59.8998 48.0165 60.0307 47.9727 60.1793 47.9727H116.191C116.29 47.9727 116.38 47.9924 116.464 48.0281C116.589 48.0808 116.698 48.1718 116.774 48.2843C116.85 48.3977 116.894 48.529 116.894 48.6781H118.674C118.674 48.337 118.604 48.0067 118.478 47.7085C118.288 47.2603 117.975 46.8817 117.579 46.6139C117.184 46.3451 116.701 46.188 116.19 46.188H60.1802C59.8402 46.188 59.5109 46.2576 59.2137 46.3844C58.767 46.5737 58.3896 46.8888 58.1218 47.2862C57.8539 47.6826 57.6964 48.1665 57.6973 48.6798V87.1522C57.6973 87.387 57.7925 87.6174 57.958 87.7834C58.1235 87.9495 58.3531 88.045 58.5872 88.045H117.785C118.019 88.045 118.248 87.9495 118.414 87.7834C118.579 87.6174 118.674 87.387 118.674 87.1522V48.6772H117.785H117.784ZM115.869 84.6827H116.759V49.5468C116.759 49.312 116.664 49.0816 116.499 48.9155C116.333 48.7495 116.103 48.6539 115.869 48.6539H60.5006C60.2665 48.6539 60.0369 48.7495 59.8714 48.9155C59.7058 49.0816 59.6106 49.312 59.6106 49.5468V84.6836C59.6106 84.9184 59.7058 85.1487 59.8714 85.3148C60.0369 85.4808 60.2665 85.5764 60.5006 85.5764H115.87C116.104 85.5764 116.334 85.4808 116.499 85.3148C116.665 85.1487 116.76 84.9184 116.76 84.6836H115.87V83.7907H61.3905V50.4387H114.98V84.6827H115.87H115.869Z" fill="#4C423D"/>
<path d="M93.8316 87.1489H82.541V89.3685H93.8316V87.1489Z" fill="#948E8B"/>
<path d="M93.8328 87.1492H92.9429V88.4759H83.4322V88.042H93.8328V87.1492V86.2563H82.5423C82.3082 86.2563 82.0786 86.3519 81.9131 86.5179C81.7476 86.684 81.6523 86.9144 81.6523 87.1492V89.3687C81.6523 89.6035 81.7476 89.8339 81.9131 89.9999C82.0786 90.166 82.3082 90.2615 82.5423 90.2615H93.8328C94.0669 90.2615 94.2965 90.166 94.462 89.9999C94.6275 89.8339 94.7228 89.6035 94.7228 89.3687V87.1492C94.7228 86.9144 94.6275 86.684 94.462 86.5179C94.2965 86.3519 94.0669 86.2563 93.8328 86.2563V87.1492Z" fill="#4C423D"/>
<path d="M59.4762 87.1485V48.6761C59.4762 48.5761 59.4958 48.4859 59.5314 48.402C59.5839 48.277 59.6747 48.1672 59.7868 48.0913C59.8998 48.0154 60.0307 47.9717 60.1793 47.9717H116.191C116.29 47.9717 116.38 47.9913 116.464 48.027C116.589 48.0797 116.698 48.1708 116.774 48.2833C116.85 48.3966 116.894 48.5279 116.894 48.677V87.1494C116.894 87.6422 117.292 88.0422 117.784 88.0422C118.275 88.0422 118.674 87.6422 118.674 87.1494V48.6761C118.674 48.335 118.604 48.0047 118.478 47.7065C118.288 47.2583 117.975 46.8798 117.579 46.6119C117.184 46.3432 116.701 46.186 116.19 46.186H60.1802C59.8402 46.186 59.5109 46.2557 59.2137 46.3825C58.767 46.5717 58.3896 46.8869 58.1218 47.2842C57.8539 47.6806 57.6964 48.1645 57.6973 48.6779V87.1502C57.6973 87.6431 58.096 88.0431 58.5872 88.0431C59.0784 88.0431 59.4771 87.6431 59.4771 87.1502L59.4762 87.1485Z" fill="#4C423D"/>
<path d="M128.217 67.9385V70.1273H110.781V67.9385C110.781 67.308 111.371 66.7954 112.096 66.7954H126.902C127.628 66.7954 128.217 67.308 128.217 67.9385Z" fill="#948E8B"/>
<path d="M117.785 87.1492V88.042H123.593V88.7446C123.593 89.016 123.538 89.2705 123.44 89.5035C123.294 89.8526 123.046 90.1517 122.736 90.3624C122.424 90.5731 122.055 90.6945 121.65 90.6945H54.7235C54.4529 90.6945 54.1993 90.6401 53.967 90.5419C53.6191 90.3946 53.3209 90.1463 53.1109 89.8348C52.9009 89.5223 52.7799 89.1518 52.7799 88.7455V88.0429H58.5875H82.5409H117.785V86.2572H51.8899C51.6559 86.2572 51.4263 86.3528 51.2607 86.5188C51.0952 86.684 51 86.9144 51 87.1492V88.7446C51 89.258 51.1041 89.7517 51.2928 90.199C51.5758 90.8704 52.0474 91.4392 52.641 91.8418C53.2346 92.2445 53.9555 92.4811 54.7235 92.4802H121.65C122.162 92.4802 122.654 92.3757 123.1 92.1864C123.769 91.9025 124.336 91.4293 124.737 90.8338C125.138 90.2383 125.374 89.5151 125.373 88.7446V87.1492C125.373 86.9144 125.278 86.684 125.113 86.5179C124.947 86.3519 124.717 86.2563 124.483 86.2563H117.786V87.1492H117.785Z" fill="#4C423D"/>
<rect x="110.781" y="70.9595" width="17.436" height="27.4883" fill="white"/>
<g clip-path="url(#clip1_10944_62882)">
<mask id="mask0_10944_62882" style="mask-type:luminance" maskUnits="userSpaceOnUse" x="114" y="77" width="11" height="12">
<path d="M119.496 87.8701C120.129 87.8709 120.756 87.7462 121.341 87.5032C121.926 87.2602 122.457 86.9037 122.904 86.4541C123.352 86.0057 123.707 85.4729 123.949 84.8863C124.192 84.2996 124.316 83.6708 124.315 83.0358C124.316 82.4008 124.192 81.772 123.949 81.1854C123.707 80.5987 123.352 80.0659 122.904 79.6175C122.457 79.1679 121.926 78.8114 121.341 78.5684C120.756 78.3254 120.129 78.2007 119.496 78.2015C118.863 78.2007 118.237 78.3254 117.652 78.5684C117.067 78.8114 116.536 79.1679 116.089 79.6175C115.641 80.0659 115.286 80.5987 115.043 81.1854C114.801 81.772 114.677 82.4008 114.678 83.0358C114.677 83.6708 114.801 84.2996 115.043 84.8863C115.286 85.4729 115.641 86.0057 116.089 86.4541C116.536 86.9037 117.067 87.2602 117.652 87.5032C118.237 87.7462 118.863 87.8709 119.496 87.8701Z" fill="white" stroke="white" stroke-width="1.14035" stroke-linejoin="round"/>
<path d="M117.568 83.0366L119.014 84.4869L121.905 81.5863" stroke="black" stroke-width="1.14035" stroke-linecap="round" stroke-linejoin="round"/>
</mask>
<g mask="url(#mask0_10944_62882)">
<path d="M114.102 77.2367H125.666V88.8389H114.102V77.2367Z" fill="#F090A9"/>
</g>
</g>
<path d="M128.217 96.7817V98.9706C128.217 99.6011 127.628 100.114 126.902 100.114H112.096C111.371 100.114 110.781 99.6011 110.781 98.9706V96.7817H128.217ZM120.521 98.4238C120.521 97.9334 120.064 97.5353 119.499 97.5353C118.934 97.5353 118.477 97.9325 118.477 98.4238C118.477 98.915 118.935 99.3123 119.499 99.3123C120.063 99.3123 120.521 98.9142 120.521 98.4238Z" fill="#948E8B"/>
<g clip-path="url(#clip2_10944_62882)">
<mask id="mask1_10944_62882" style="mask-type:luminance" maskUnits="userSpaceOnUse" x="75" y="55" width="25" height="25">
<path d="M87.9426 77.9926C89.3545 77.9944 90.7528 77.7163 92.0572 77.1742C93.3616 76.6321 94.5464 75.8368 95.5434 74.8339C96.5431 73.8336 97.3359 72.645 97.8762 71.3364C98.4165 70.0278 98.6937 68.6249 98.6919 67.2084C98.6937 65.792 98.4165 64.3891 97.8762 63.0805C97.3358 61.7719 96.5431 60.5833 95.5434 59.583C94.5464 58.5801 93.3616 57.7847 92.0572 57.2427C90.7528 56.7006 89.3545 56.4225 87.9426 56.4243C86.5308 56.4225 85.1324 56.7006 83.828 57.2427C82.5236 57.7848 81.3389 58.5801 80.3418 59.583C79.3422 60.5833 78.5494 61.7719 78.0091 63.0805C77.4688 64.3891 77.1916 65.792 77.1934 67.2084C77.1915 68.6249 77.4687 70.0278 78.0091 71.3364C78.5494 72.645 79.3422 73.8336 80.3418 74.8339C81.3389 75.8368 82.5236 76.6321 83.828 77.1742C85.1324 77.7162 86.5308 77.9944 87.9426 77.9926Z" fill="white" stroke="white" stroke-width="2.54386" stroke-linejoin="round"/>
<path d="M83.6426 67.2084L86.8674 70.4436L93.3169 63.9731" stroke="black" stroke-width="2.54386" stroke-linecap="round" stroke-linejoin="round"/>
</mask>
<g mask="url(#mask1_10944_62882)">
<path d="M75.0469 54.27H100.845V80.1519H75.0469V54.27Z" fill="#F090A9"/>
</g>
</g>
<path d="M81.6504 87.1492V89.3687C81.6504 89.6035 81.7456 89.8339 81.9111 89.9999C82.0767 90.166 82.3063 90.2615 82.5403 90.2615H93.8309C94.0649 90.2615 94.2945 90.166 94.4601 89.9999C94.6256 89.8339 94.7208 89.6035 94.7208 89.3687V87.1492C94.7208 86.6563 94.3221 86.2563 93.8309 86.2563C93.3396 86.2563 92.9409 86.6563 92.9409 87.1492V88.4759H83.4303V87.1492C83.4303 86.6563 83.0316 86.2563 82.5403 86.2563C82.0491 86.2563 81.6504 86.6563 81.6504 87.1492Z" fill="#4C423D"/>
<path d="M128.861 68.1995V98.8168C128.861 100.342 127.629 101.578 126.109 101.578H112.704C111.184 101.578 109.951 100.342 109.951 98.8168V68.1995C109.951 66.6745 111.184 65.438 112.704 65.438H126.109C127.629 65.438 128.861 66.6745 128.861 68.1995ZM127.299 98.8168V68.1995C127.299 67.5406 126.766 67.0049 126.109 67.0049H112.704C112.047 67.0049 111.513 67.5406 111.513 68.1995V98.8168C111.513 99.4757 112.047 100.011 112.704 100.011H126.109C126.766 100.011 127.299 99.4757 127.299 98.8168Z" fill="#4C423D"/>
<path d="M119.914 96.7817C120.831 96.7817 121.575 97.5266 121.575 98.4477C121.575 99.3688 120.833 100.114 119.914 100.114C118.996 100.114 118.254 99.3672 118.254 98.4477C118.254 97.5282 118.998 96.7817 119.914 96.7817Z" fill="#4C423D"/>
<path d="M127.458 69.5942H111.671C111.18 69.5942 110.781 69.9942 110.781 70.4871C110.781 70.9799 111.18 71.3799 111.671 71.3799H127.458C127.949 71.3799 128.348 70.9799 128.348 70.4871C128.348 69.9942 127.949 69.5942 127.458 69.5942Z" fill="#4C423D"/>
<path d="M127.292 95.9497H110.877C110.366 95.9497 109.951 96.3229 109.951 96.7827C109.951 97.2425 110.366 97.6157 110.877 97.6157H127.292C127.803 97.6157 128.218 97.2425 128.218 96.7827C128.218 96.3229 127.803 95.9497 127.292 95.9497Z" fill="#4C423D"/>
<path d="M86.9406 172.759C134.076 172.759 172.287 134.547 172.287 87.4117C172.287 40.276 134.076 2.06494 86.9406 2.06494C39.8048 2.06494 1.59375 40.276 1.59375 87.4117C1.59375 134.547 39.8048 172.759 86.9406 172.759Z" stroke="#221A15" stroke-width="2" stroke-linecap="round" stroke-linejoin="round"/>
<g filter="url(#filter0_d_10944_62882)">
<mask id="path-27-outside-1_10944_62882" maskUnits="userSpaceOnUse" x="1" y="5.47119" width="45" height="30" fill="black">
<rect fill="white" x="1" y="5.47119" width="45" height="30"/>
<path d="M12.7527 34.8712C10.4593 34.8712 8.51266 34.2712 6.91266 33.0712C5.33932 31.8445 4.13932 30.1512 3.31266 27.9912C2.48599 25.8045 2.07266 23.2979 2.07266 20.4712C2.07266 17.6179 2.48599 15.1112 3.31266 12.9512C4.13932 10.7912 5.33932 9.11119 6.91266 7.91119C8.51266 6.68452 10.4593 6.07119 12.7527 6.07119C15.046 6.07119 16.9793 6.68452 18.5527 7.91119C20.1527 9.11119 21.366 10.7912 22.1927 12.9512C23.0193 15.1112 23.4327 17.6179 23.4327 20.4712C23.4327 23.2979 23.0193 25.8045 22.1927 27.9912C21.366 30.1512 20.1527 31.8445 18.5527 33.0712C16.9793 34.2712 15.046 34.8712 12.7527 34.8712ZM12.7527 30.0712C13.8727 30.0712 14.8327 29.7245 15.6327 29.0312C16.4593 28.3112 17.0993 27.2445 17.5527 25.8312C18.006 24.3912 18.2327 22.6045 18.2327 20.4712C18.2327 18.3112 18.006 16.5245 17.5527 15.1112C17.0993 13.6979 16.4593 12.6445 15.6327 11.9512C14.8327 11.2312 13.8727 10.8712 12.7527 10.8712C11.6593 10.8712 10.6993 11.2312 9.87266 11.9512C9.04599 12.6445 8.40599 13.6979 7.95266 15.1112C7.49932 16.5245 7.27266 18.3112 7.27266 20.4712C7.27266 22.6045 7.49932 24.3912 7.95266 25.8312C8.40599 27.2445 9.04599 28.3112 9.87266 29.0312C10.6993 29.7245 11.6593 30.0712 12.7527 30.0712ZM29.523 28.8312C29.763 28.8312 30.0163 28.8712 30.283 28.9512C30.5763 29.0312 30.8963 29.1912 31.243 29.4312C31.6963 29.7779 32.2296 30.0845 32.843 30.3512C33.483 30.6179 34.2163 30.7512 35.043 30.7512C35.8696 30.7512 36.643 30.5512 37.363 30.1512C38.1096 29.7245 38.723 29.1379 39.203 28.3912C39.683 27.6179 39.923 26.6979 39.923 25.6312C39.923 24.6179 39.7096 23.7779 39.283 23.1112C38.883 22.4445 38.3363 21.9379 37.643 21.5912C36.9763 21.2445 36.2563 21.0712 35.483 21.0712C34.8963 21.0712 34.403 21.1245 34.003 21.2312C33.6296 21.3379 33.2563 21.4579 32.883 21.5912C32.5363 21.6979 32.123 21.7512 31.643 21.7512C31.0296 21.7512 30.5496 21.5379 30.203 21.1112C29.883 20.6845 29.723 20.1779 29.723 19.5912C29.723 19.2179 29.7896 18.8845 29.923 18.5912C30.083 18.2979 30.3096 17.9779 30.603 17.6312L37.643 10.1512L38.723 11.0712H28.883C28.243 11.0712 27.7096 10.8579 27.283 10.4312C26.8563 10.0045 26.643 9.47119 26.643 8.83119C26.643 8.21786 26.8563 7.71119 27.283 7.31119C27.7096 6.88452 28.243 6.67119 28.883 6.67119H41.123C41.9496 6.67119 42.563 6.89786 42.963 7.35119C43.3896 7.80452 43.603 8.37786 43.603 9.07119C43.603 9.41786 43.5096 9.76452 43.323 10.1112C43.1363 10.4312 42.9096 10.7245 42.643 10.9912L35.563 18.5912L34.483 17.2312C34.7763 17.0979 35.1763 16.9779 35.683 16.8712C36.2163 16.7645 36.6563 16.7112 37.003 16.7112C38.5763 16.7112 39.9363 17.1245 41.083 17.9512C42.2563 18.7512 43.1496 19.8045 43.763 21.1112C44.403 22.3912 44.723 23.7779 44.723 25.2712C44.723 27.2445 44.283 28.9512 43.403 30.3912C42.523 31.8312 41.283 32.9379 39.683 33.7112C38.083 34.4845 36.2163 34.8712 34.083 34.8712C33.0963 34.8712 32.123 34.7512 31.163 34.5112C30.203 34.2712 29.3763 33.9512 28.683 33.5512C28.0963 33.2312 27.6963 32.8845 27.483 32.5112C27.2963 32.1112 27.203 31.7379 27.203 31.3912C27.203 30.7779 27.4163 30.2045 27.843 29.6712C28.2963 29.1112 28.8563 28.8312 29.523 28.8312Z"/>
</mask>
<path d="M12.7527 34.8712C10.4593 34.8712 8.51266 34.2712 6.91266 33.0712C5.33932 31.8445 4.13932 30.1512 3.31266 27.9912C2.48599 25.8045 2.07266 23.2979 2.07266 20.4712C2.07266 17.6179 2.48599 15.1112 3.31266 12.9512C4.13932 10.7912 5.33932 9.11119 6.91266 7.91119C8.51266 6.68452 10.4593 6.07119 12.7527 6.07119C15.046 6.07119 16.9793 6.68452 18.5527 7.91119C20.1527 9.11119 21.366 10.7912 22.1927 12.9512C23.0193 15.1112 23.4327 17.6179 23.4327 20.4712C23.4327 23.2979 23.0193 25.8045 22.1927 27.9912C21.366 30.1512 20.1527 31.8445 18.5527 33.0712C16.9793 34.2712 15.046 34.8712 12.7527 34.8712ZM12.7527 30.0712C13.8727 30.0712 14.8327 29.7245 15.6327 29.0312C16.4593 28.3112 17.0993 27.2445 17.5527 25.8312C18.006 24.3912 18.2327 22.6045 18.2327 20.4712C18.2327 18.3112 18.006 16.5245 17.5527 15.1112C17.0993 13.6979 16.4593 12.6445 15.6327 11.9512C14.8327 11.2312 13.8727 10.8712 12.7527 10.8712C11.6593 10.8712 10.6993 11.2312 9.87266 11.9512C9.04599 12.6445 8.40599 13.6979 7.95266 15.1112C7.49932 16.5245 7.27266 18.3112 7.27266 20.4712C7.27266 22.6045 7.49932 24.3912 7.95266 25.8312C8.40599 27.2445 9.04599 28.3112 9.87266 29.0312C10.6993 29.7245 11.6593 30.0712 12.7527 30.0712ZM29.523 28.8312C29.763 28.8312 30.0163 28.8712 30.283 28.9512C30.5763 29.0312 30.8963 29.1912 31.243 29.4312C31.6963 29.7779 32.2296 30.0845 32.843 30.3512C33.483 30.6179 34.2163 30.7512 35.043 30.7512C35.8696 30.7512 36.643 30.5512 37.363 30.1512C38.1096 29.7245 38.723 29.1379 39.203 28.3912C39.683 27.6179 39.923 26.6979 39.923 25.6312C39.923 24.6179 39.7096 23.7779 39.283 23.1112C38.883 22.4445 38.3363 21.9379 37.643 21.5912C36.9763 21.2445 36.2563 21.0712 35.483 21.0712C34.8963 21.0712 34.403 21.1245 34.003 21.2312C33.6296 21.3379 33.2563 21.4579 32.883 21.5912C32.5363 21.6979 32.123 21.7512 31.643 21.7512C31.0296 21.7512 30.5496 21.5379 30.203 21.1112C29.883 20.6845 29.723 20.1779 29.723 19.5912C29.723 19.2179 29.7896 18.8845 29.923 18.5912C30.083 18.2979 30.3096 17.9779 30.603 17.6312L37.643 10.1512L38.723 11.0712H28.883C28.243 11.0712 27.7096 10.8579 27.283 10.4312C26.8563 10.0045 26.643 9.47119 26.643 8.83119C26.643 8.21786 26.8563 7.71119 27.283 7.31119C27.7096 6.88452 28.243 6.67119 28.883 6.67119H41.123C41.9496 6.67119 42.563 6.89786 42.963 7.35119C43.3896 7.80452 43.603 8.37786 43.603 9.07119C43.603 9.41786 43.5096 9.76452 43.323 10.1112C43.1363 10.4312 42.9096 10.7245 42.643 10.9912L35.563 18.5912L34.483 17.2312C34.7763 17.0979 35.1763 16.9779 35.683 16.8712C36.2163 16.7645 36.6563 16.7112 37.003 16.7112C38.5763 16.7112 39.9363 17.1245 41.083 17.9512C42.2563 18.7512 43.1496 19.8045 43.763 21.1112C44.403 22.3912 44.723 23.7779 44.723 25.2712C44.723 27.2445 44.283 28.9512 43.403 30.3912C42.523 31.8312 41.283 32.9379 39.683 33.7112C38.083 34.4845 36.2163 34.8712 34.083 34.8712C33.0963 34.8712 32.123 34.7512 31.163 34.5112C30.203 34.2712 29.3763 33.9512 28.683 33.5512C28.0963 33.2312 27.6963 32.8845 27.483 32.5112C27.2963 32.1112 27.203 31.7379 27.203 31.3912C27.203 30.7779 27.4163 30.2045 27.843 29.6712C28.2963 29.1112 28.8563 28.8312 29.523 28.8312Z" fill="url(#paint1_linear_10944_62882)"/>
<path d="M12.7527 34.8712C10.4593 34.8712 8.51266 34.2712 6.91266 33.0712C5.33932 31.8445 4.13932 30.1512 3.31266 27.9912C2.48599 25.8045 2.07266 23.2979 2.07266 20.4712C2.07266 17.6179 2.48599 15.1112 3.31266 12.9512C4.13932 10.7912 5.33932 9.11119 6.91266 7.91119C8.51266 6.68452 10.4593 6.07119 12.7527 6.07119C15.046 6.07119 16.9793 6.68452 18.5527 7.91119C20.1527 9.11119 21.366 10.7912 22.1927 12.9512C23.0193 15.1112 23.4327 17.6179 23.4327 20.4712C23.4327 23.2979 23.0193 25.8045 22.1927 27.9912C21.366 30.1512 20.1527 31.8445 18.5527 33.0712C16.9793 34.2712 15.046 34.8712 12.7527 34.8712ZM12.7527 30.0712C13.8727 30.0712 14.8327 29.7245 15.6327 29.0312C16.4593 28.3112 17.0993 27.2445 17.5527 25.8312C18.006 24.3912 18.2327 22.6045 18.2327 20.4712C18.2327 18.3112 18.006 16.5245 17.5527 15.1112C17.0993 13.6979 16.4593 12.6445 15.6327 11.9512C14.8327 11.2312 13.8727 10.8712 12.7527 10.8712C11.6593 10.8712 10.6993 11.2312 9.87266 11.9512C9.04599 12.6445 8.40599 13.6979 7.95266 15.1112C7.49932 16.5245 7.27266 18.3112 7.27266 20.4712C7.27266 22.6045 7.49932 24.3912 7.95266 25.8312C8.40599 27.2445 9.04599 28.3112 9.87266 29.0312C10.6993 29.7245 11.6593 30.0712 12.7527 30.0712ZM29.523 28.8312C29.763 28.8312 30.0163 28.8712 30.283 28.9512C30.5763 29.0312 30.8963 29.1912 31.243 29.4312C31.6963 29.7779 32.2296 30.0845 32.843 30.3512C33.483 30.6179 34.2163 30.7512 35.043 30.7512C35.8696 30.7512 36.643 30.5512 37.363 30.1512C38.1096 29.7245 38.723 29.1379 39.203 28.3912C39.683 27.6179 39.923 26.6979 39.923 25.6312C39.923 24.6179 39.7096 23.7779 39.283 23.1112C38.883 22.4445 38.3363 21.9379 37.643 21.5912C36.9763 21.2445 36.2563 21.0712 35.483 21.0712C34.8963 21.0712 34.403 21.1245 34.003 21.2312C33.6296 21.3379 33.2563 21.4579 32.883 21.5912C32.5363 21.6979 32.123 21.7512 31.643 21.7512C31.0296 21.7512 30.5496 21.5379 30.203 21.1112C29.883 20.6845 29.723 20.1779 29.723 19.5912C29.723 19.2179 29.7896 18.8845 29.923 18.5912C30.083 18.2979 30.3096 17.9779 30.603 17.6312L37.643 10.1512L38.723 11.0712H28.883C28.243 11.0712 27.7096 10.8579 27.283 10.4312C26.8563 10.0045 26.643 9.47119 26.643 8.83119C26.643 8.21786 26.8563 7.71119 27.283 7.31119C27.7096 6.88452 28.243 6.67119 28.883 6.67119H41.123C41.9496 6.67119 42.563 6.89786 42.963 7.35119C43.3896 7.80452 43.603 8.37786 43.603 9.07119C43.603 9.41786 43.5096 9.76452 43.323 10.1112C43.1363 10.4312 42.9096 10.7245 42.643 10.9912L35.563 18.5912L34.483 17.2312C34.7763 17.0979 35.1763 16.9779 35.683 16.8712C36.2163 16.7645 36.6563 16.7112 37.003 16.7112C38.5763 16.7112 39.9363 17.1245 41.083 17.9512C42.2563 18.7512 43.1496 19.8045 43.763 21.1112C44.403 22.3912 44.723 23.7779 44.723 25.2712C44.723 27.2445 44.283 28.9512 43.403 30.3912C42.523 31.8312 41.283 32.9379 39.683 33.7112C38.083 34.4845 36.2163 34.8712 34.083 34.8712C33.0963 34.8712 32.123 34.7512 31.163 34.5112C30.203 34.2712 29.3763 33.9512 28.683 33.5512C28.0963 33.2312 27.6963 32.8845 27.483 32.5112C27.2963 32.1112 27.203 31.7379 27.203 31.3912C27.203 30.7779 27.4163 30.2045 27.843 29.6712C28.2963 29.1112 28.8563 28.8312 29.523 28.8312Z" fill="url(#paint2_linear_10944_62882)"/>
<path d="M6.91266 33.0712L6.60517 33.4656L6.61266 33.4712L6.91266 33.0712ZM3.31266 27.9912L2.84496 28.168L2.84569 28.1699L3.31266 27.9912ZM3.31266 12.9512L2.84569 12.7725L2.84569 12.7725L3.31266 12.9512ZM6.91266 7.91119L7.21588 8.30875L7.21687 8.30799L6.91266 7.91119ZM18.5527 7.91119L18.2452 8.30558L18.2527 8.31119L18.5527 7.91119ZM22.1927 12.9512L22.6596 12.7725V12.7725L22.1927 12.9512ZM22.1927 27.9912L22.6596 28.1699L22.6604 28.168L22.1927 27.9912ZM18.5527 33.0712L18.8559 33.4688L18.8569 33.468L18.5527 33.0712ZM15.6327 29.0312L15.9601 29.409L15.961 29.4082L15.6327 29.0312ZM17.5527 25.8312L18.0288 25.9839L18.0296 25.9813L17.5527 25.8312ZM17.5527 15.1112L17.0765 15.2639V15.2639L17.5527 15.1112ZM15.6327 11.9512L15.2982 12.3228L15.3047 12.3287L15.3114 12.3343L15.6327 11.9512ZM9.87266 11.9512L10.194 12.3344L10.201 12.3282L9.87266 11.9512ZM7.95266 15.1112L7.47655 14.9585L7.95266 15.1112ZM7.95266 25.8312L7.47573 25.9813L7.47655 25.9839L7.95266 25.8312ZM9.87266 29.0312L9.54421 29.4083L9.55135 29.4143L9.87266 29.0312ZM12.7527 34.3712C10.551 34.3712 8.71375 33.797 7.21266 32.6712L6.61266 33.4712C8.31157 34.7454 10.3677 35.3712 12.7527 35.3712V34.3712ZM7.22009 32.6769C5.72937 31.5146 4.57901 29.9012 3.77963 27.8125L2.84569 28.1699C3.69964 30.4012 4.94928 32.1744 6.60522 33.4655L7.22009 32.6769ZM3.78035 27.8144C2.97899 25.6947 2.57266 23.2497 2.57266 20.4712H1.57266C1.57266 23.346 1.99299 25.9144 2.84496 28.168L3.78035 27.8144ZM2.57266 20.4712C2.57266 17.6652 2.97923 15.2213 3.77963 13.1299L2.84569 12.7725C1.99274 15.0011 1.57266 17.5706 1.57266 20.4712H2.57266ZM3.77963 13.1299C4.57879 11.0418 5.72811 9.44349 7.21588 8.30875L6.60943 7.51363C4.95054 8.77889 3.69986 10.5406 2.84569 12.7725L3.77963 13.1299ZM7.21687 8.30799C8.71778 7.1573 10.5535 6.57119 12.7527 6.57119V5.57119C10.3652 5.57119 8.30753 6.21175 6.60844 7.51439L7.21687 8.30799ZM12.7527 6.57119C14.952 6.57119 16.7726 7.15733 18.2452 8.30551L18.8601 7.51687C17.1861 6.21172 15.1399 5.57119 12.7527 5.57119V6.57119ZM18.2527 8.31119C19.7661 9.44625 20.9273 11.0439 21.7257 13.1299L22.6596 12.7725C21.8046 10.5385 20.5392 8.77613 18.8527 7.51119L18.2527 8.31119ZM21.7257 13.1299C22.5261 15.2213 22.9327 17.6652 22.9327 20.4712H23.9327C23.9327 17.5706 23.5126 15.0011 22.6596 12.7725L21.7257 13.1299ZM22.9327 20.4712C22.9327 23.2497 22.5263 25.6947 21.725 27.8144L22.6604 28.168C23.5123 25.9144 23.9327 23.346 23.9327 20.4712H22.9327ZM21.7257 27.8125C20.9271 29.8991 19.7648 31.5119 18.2484 32.6744L18.8569 33.468C20.5405 32.1772 21.8049 30.4033 22.6596 28.1699L21.7257 27.8125ZM18.2494 32.6736C16.7766 33.797 14.9546 34.3712 12.7527 34.3712V35.3712C15.1374 35.3712 17.182 34.7454 18.8559 33.4688L18.2494 32.6736ZM12.7527 30.5712C13.9854 30.5712 15.0636 30.186 15.9601 29.409L15.3052 28.6533C14.6017 29.2631 13.7599 29.5712 12.7527 29.5712V30.5712ZM15.961 29.4082C16.8767 28.6107 17.5571 27.4544 18.0288 25.9839L17.0765 25.6785C16.6416 27.0346 16.0419 28.0117 15.3043 28.6542L15.961 29.4082ZM18.0296 25.9813C18.5031 24.4773 18.7327 22.6362 18.7327 20.4712H17.7327C17.7327 22.5729 17.5089 24.3051 17.0757 25.681L18.0296 25.9813ZM18.7327 20.4712C18.7327 18.2807 18.5034 16.4381 18.0288 14.9585L17.0765 15.2639C17.5086 16.611 17.7327 18.3416 17.7327 20.4712H18.7327ZM18.0288 14.9585C17.557 13.4878 16.8753 12.3408 15.954 11.5681L15.3114 12.3343C16.0434 12.9482 16.6416 13.9079 17.0765 15.2639L18.0288 14.9585ZM15.9671 11.5795C15.0713 10.7733 13.9907 10.3712 12.7527 10.3712V11.3712C13.7546 11.3712 14.594 11.6891 15.2982 12.3228L15.9671 11.5795ZM12.7527 10.3712C11.5382 10.3712 10.4617 10.7751 9.54427 11.5742L10.201 12.3282C10.937 11.6873 11.7804 11.3712 12.7527 11.3712V10.3712ZM9.55135 11.5681C8.63003 12.3408 7.94827 13.4878 7.47655 14.9585L8.42876 15.2639C8.86371 13.9079 9.46195 12.9482 10.194 12.3343L9.55135 11.5681ZM7.47655 14.9585C7.00196 16.4381 6.77266 18.2807 6.77266 20.4712H7.77266C7.77266 18.3416 7.99669 16.611 8.42876 15.2639L7.47655 14.9585ZM6.77266 20.4712C6.77266 22.6362 7.00223 24.4773 7.47573 25.9813L8.42958 25.681C7.99641 24.3051 7.77266 22.5729 7.77266 20.4712H6.77266ZM7.47655 25.9839C7.94822 27.4544 8.6286 28.6107 9.54427 29.4082L10.201 28.6542C9.46338 28.0117 8.86376 27.0346 8.42876 25.6785L7.47655 25.9839ZM9.55135 29.4143C10.4694 30.1842 11.5435 30.5712 12.7527 30.5712V29.5712C11.7751 29.5712 10.9293 29.2648 10.194 28.6481L9.55135 29.4143ZM30.283 28.9512L30.1392 29.4303L30.1514 29.4336L30.283 28.9512ZM31.243 29.4312L31.5467 29.034L31.5373 29.0268L31.5276 29.0201L31.243 29.4312ZM32.843 30.3512L32.6436 30.8098L32.6507 30.8127L32.843 30.3512ZM37.363 30.1512L37.6058 30.5883L37.611 30.5853L37.363 30.1512ZM39.203 28.3912L39.6236 28.6616L39.6278 28.6549L39.203 28.3912ZM39.283 23.1112L38.8542 23.3684L38.8579 23.3746L38.8618 23.3807L39.283 23.1112ZM37.643 21.5912L37.4123 22.0349L37.4194 22.0384L37.643 21.5912ZM34.003 21.2312L33.8741 20.748L33.8656 20.7504L34.003 21.2312ZM32.883 21.5912L33.03 22.0691L33.0407 22.0658L33.0511 22.0621L32.883 21.5912ZM30.203 21.1112L29.803 21.4112L29.8088 21.419L29.8149 21.4265L30.203 21.1112ZM29.923 18.5912L29.484 18.3518L29.4753 18.3677L29.4678 18.3843L29.923 18.5912ZM30.603 17.6312L30.2389 17.2885L30.2298 17.2981L30.2213 17.3082L30.603 17.6312ZM37.643 10.1512L37.9672 9.77057L37.605 9.46201L37.2789 9.80851L37.643 10.1512ZM38.723 11.0712V11.5712H40.081L39.0472 10.6906L38.723 11.0712ZM27.283 10.4312L26.9294 10.7847H26.9294L27.283 10.4312ZM27.283 7.31119L27.6249 7.67596L27.6308 7.67044L27.6365 7.66474L27.283 7.31119ZM42.963 7.35119L42.5881 7.682L42.5934 7.68802L42.5989 7.69387L42.963 7.35119ZM43.323 10.1112L43.7549 10.3631L43.7592 10.3558L43.7632 10.3482L43.323 10.1112ZM42.643 10.9912L42.2894 10.6376L42.2832 10.6439L42.2771 10.6504L42.643 10.9912ZM35.563 18.5912L35.1714 18.9021L35.5328 19.3572L35.9288 18.932L35.563 18.5912ZM34.483 17.2312L34.2761 16.776L33.6934 17.0409L34.0914 17.5421L34.483 17.2312ZM35.683 16.8712L35.5849 16.3809L35.58 16.3819L35.683 16.8712ZM41.083 17.9512L40.7905 18.3569L40.8013 18.3643L41.083 17.9512ZM43.763 21.1112L43.3102 21.3237L43.3158 21.3348L43.763 21.1112ZM43.403 30.3912L42.9763 30.1305L43.403 30.3912ZM39.683 33.7112L39.4654 33.261L39.683 33.7112ZM31.163 34.5112L31.2842 34.0261L31.163 34.5112ZM28.683 33.5512L28.9329 33.118L28.9224 33.1122L28.683 33.5512ZM27.483 32.5112L27.0299 32.7226L27.0386 32.7413L27.0488 32.7593L27.483 32.5112ZM27.843 29.6712L27.4543 29.3566L27.4525 29.3588L27.843 29.6712ZM29.523 29.3312C29.7073 29.3312 29.912 29.3619 30.1393 29.4301L30.4266 28.4723C30.1206 28.3805 29.8187 28.3312 29.523 28.3312V29.3312ZM30.1514 29.4336C30.3734 29.4941 30.6416 29.623 30.9584 29.8423L31.5276 29.0201C31.151 28.7594 30.7792 28.5683 30.4145 28.4688L30.1514 29.4336ZM30.9392 29.8284C31.4297 30.2034 31.9993 30.5296 32.6436 30.8097L33.0423 29.8927C32.46 29.6395 31.9629 29.3523 31.5467 29.034L30.9392 29.8284ZM32.6507 30.8127C33.3621 31.1092 34.1627 31.2512 35.043 31.2512V30.2512C34.2699 30.2512 33.6038 30.1265 33.0353 29.8897L32.6507 30.8127ZM35.043 31.2512C35.9543 31.2512 36.8112 31.0297 37.6058 30.5883L37.1201 29.7141C36.4747 30.0727 35.785 30.2512 35.043 30.2512V31.2512ZM37.611 30.5853C38.4298 30.1174 39.1015 29.4736 39.6236 28.6616L38.7824 28.1208C38.3444 28.8021 37.7894 29.3316 37.1149 29.7171L37.611 30.5853ZM39.6278 28.6549C40.1649 27.7896 40.423 26.7748 40.423 25.6312H39.423C39.423 26.6209 39.2011 27.4461 38.7781 28.1275L39.6278 28.6549ZM40.423 25.6312C40.423 24.5488 40.1949 23.6085 39.7041 22.8417L38.8618 23.3807C39.2244 23.9472 39.423 24.6869 39.423 25.6312H40.423ZM39.7117 22.8539C39.2629 22.106 38.6452 21.5333 37.8666 21.144L37.4194 22.0384C38.0274 22.3424 38.503 22.7831 38.8542 23.3684L39.7117 22.8539ZM37.8736 21.1476C37.1336 20.7628 36.3342 20.5712 35.483 20.5712V21.5712C36.1784 21.5712 36.819 21.7263 37.4123 22.0348L37.8736 21.1476ZM35.483 20.5712C34.8693 20.5712 34.3296 20.6266 33.8741 20.7481L34.1318 21.7143C34.4764 21.6224 34.9233 21.5712 35.483 21.5712V20.5712ZM33.8656 20.7504C33.4817 20.8601 33.0981 20.9834 32.7148 21.1203L33.0511 22.0621C33.4145 21.9323 33.7776 21.8156 34.1403 21.712L33.8656 20.7504ZM32.7359 21.1133C32.4494 21.2015 32.0882 21.2512 31.643 21.2512V22.2512C32.1577 22.2512 32.6232 22.1943 33.03 22.0691L32.7359 21.1133ZM31.643 21.2512C31.1605 21.2512 30.831 21.0912 30.591 20.7959L29.8149 21.4265C30.2683 21.9845 30.8988 22.2512 31.643 22.2512V21.2512ZM30.603 20.8112C30.3544 20.4798 30.223 20.0811 30.223 19.5912H29.223C29.223 20.2746 29.4115 20.8893 29.803 21.4112L30.603 20.8112ZM30.223 19.5912C30.223 19.278 30.2787 19.0169 30.3782 18.7981L29.4678 18.3843C29.3006 18.7521 29.223 19.1577 29.223 19.5912H30.223ZM30.3619 18.8306C30.5011 18.5754 30.706 18.2835 30.9847 17.9542L30.2213 17.3082C29.9133 17.6722 29.6648 18.0203 29.484 18.3518L30.3619 18.8306ZM30.9671 17.9739L38.0071 10.4939L37.2789 9.80851L30.2389 17.2885L30.9671 17.9739ZM37.3187 10.5318L38.3987 11.4518L39.0472 10.6906L37.9672 9.77057L37.3187 10.5318ZM38.723 10.5712H28.883V11.5712H38.723V10.5712ZM28.883 10.5712C28.3666 10.5712 27.9633 10.4044 27.6365 10.0776L26.9294 10.7847C27.456 11.3113 28.1193 11.5712 28.883 11.5712V10.5712ZM27.6365 10.0776C27.3098 9.75087 27.143 9.34751 27.143 8.83119H26.143C26.143 9.59487 26.4029 10.2582 26.9294 10.7847L27.6365 10.0776ZM27.143 8.83119C27.143 8.34849 27.3045 7.97638 27.6249 7.67596L26.941 6.94642C26.4081 7.446 26.143 8.08722 26.143 8.83119H27.143ZM27.6365 7.66474C27.9633 7.33797 28.3666 7.17119 28.883 7.17119V6.17119C28.1193 6.17119 27.456 6.43107 26.9294 6.95764L27.6365 7.66474ZM28.883 7.17119H41.123V6.17119H28.883V7.17119ZM41.123 7.17119C41.8612 7.17119 42.3141 7.37158 42.5881 7.682L43.3379 7.02038C42.8118 6.42413 42.038 6.17119 41.123 6.17119V7.17119ZM42.5989 7.69387C42.928 8.04362 43.103 8.48952 43.103 9.07119H44.103C44.103 8.2662 43.8512 7.56543 43.3271 7.00851L42.5989 7.69387ZM43.103 9.07119C43.103 9.32445 43.0356 9.59032 42.8827 9.87414L43.7632 10.3482C43.9837 9.93873 44.103 9.51127 44.103 9.07119H43.103ZM42.8911 9.85925C42.7264 10.1415 42.5263 10.4008 42.2894 10.6376L42.9965 11.3447C43.293 11.0483 43.5462 10.7209 43.7549 10.3631L42.8911 9.85925ZM42.2771 10.6504L35.1971 18.2504L35.9288 18.932L43.0088 11.332L42.2771 10.6504ZM35.9545 18.2803L34.8745 16.9202L34.0914 17.5421L35.1714 18.9021L35.9545 18.2803ZM34.6899 17.6864C34.9361 17.5744 35.2963 17.4636 35.786 17.3605L35.58 16.3819C35.0563 16.4922 34.6165 16.6213 34.2761 16.776L34.6899 17.6864ZM35.781 17.3615C36.2981 17.2581 36.7023 17.2112 37.003 17.2112V16.2112C36.6103 16.2112 36.1345 16.271 35.5849 16.3809L35.781 17.3615ZM37.003 17.2112C38.4838 17.2112 39.7386 17.5984 40.7906 18.3568L41.3754 17.5456C40.134 16.6507 38.6688 16.2112 37.003 16.2112V17.2112ZM40.8013 18.3643C41.8995 19.1131 42.7344 20.0966 43.3104 21.3236L44.2156 20.8987C43.5649 19.5125 42.6131 18.3893 41.3646 17.5381L40.8013 18.3643ZM43.3158 21.3348C43.9195 22.5423 44.223 23.852 44.223 25.2712H45.223C45.223 23.7037 44.8864 22.2401 44.2102 20.8876L43.3158 21.3348ZM44.223 25.2712C44.223 27.1683 43.8007 28.7814 42.9763 30.1305L43.8296 30.6519C44.7652 29.1209 45.223 27.3207 45.223 25.2712H44.223ZM42.9763 30.1305C42.1491 31.4841 40.9838 32.5271 39.4654 33.261L39.9006 34.1614C41.5822 33.3486 42.8968 32.1783 43.8296 30.6519L42.9763 30.1305ZM39.4654 33.261C37.9455 33.9956 36.1559 34.3712 34.083 34.3712V35.3712C36.2767 35.3712 38.2204 34.9734 39.9006 34.1614L39.4654 33.261ZM34.083 34.3712C33.1373 34.3712 32.2047 34.2562 31.2842 34.0261L31.0417 34.9963C32.0412 35.2461 33.0553 35.3712 34.083 35.3712V34.3712ZM31.2842 34.0261C30.3591 33.7948 29.5778 33.4902 28.9328 33.1181L28.4331 33.9843C29.1749 34.4122 30.0468 34.7475 31.0417 34.9963L31.2842 34.0261ZM28.9224 33.1122C28.3757 32.814 28.0657 32.5231 27.9171 32.2631L27.0488 32.7593C27.327 33.2459 27.8169 33.6483 28.4435 33.9901L28.9224 33.1122ZM27.9361 32.2997C27.7721 31.9485 27.703 31.6477 27.703 31.3912H26.703C26.703 31.828 26.8205 32.2739 27.0299 32.7226L27.9361 32.2997ZM27.703 31.3912C27.703 30.9044 27.8691 30.4389 28.2334 29.9835L27.4525 29.3588C26.9635 29.9702 26.703 30.6514 26.703 31.3912H27.703ZM28.2316 29.9858C28.5988 29.5322 29.0206 29.3312 29.523 29.3312V28.3312C28.692 28.3312 27.9938 28.6902 27.4543 29.3566L28.2316 29.9858Z" fill="#221A15" mask="url(#path-27-outside-1_10944_62882)"/>
</g>
</g>
<defs>
<filter id="filter0_d_10944_62882" x="1.57227" y="5.57117" width="45.6504" height="31.8" filterUnits="userSpaceOnUse" color-interpolation-filters="sRGB">
<feFlood flood-opacity="0" result="BackgroundImageFix"/>
<feColorMatrix in="SourceAlpha" type="matrix" values="0 0 0 0 0 0 0 0 0 0 0 0 0 0 0 0 0 0 127 0" result="hardAlpha"/>
<feOffset dx="2" dy="2"/>
<feComposite in2="hardAlpha" operator="out"/>
<feColorMatrix type="matrix" values="0 0 0 0 0.133333 0 0 0 0 0.101961 0 0 0 0 0.0823529 0 0 0 1 0"/>
<feBlend mode="normal" in2="BackgroundImageFix" result="effect1_dropShadow_10944_62882"/>
<feBlend mode="normal" in="SourceGraphic" in2="effect1_dropShadow_10944_62882" result="shape"/>
</filter>
<linearGradient id="paint0_linear_10944_62882" x1="1.42916" y1="-6.27426" x2="173.27" y2="4.5084" gradientUnits="userSpaceOnUse">
<stop stop-color="#FFD7E8"/>
<stop offset="0.5" stop-color="#FFDCD1"/>
<stop offset="1" stop-color="#FFF1A7"/>
</linearGradient>
<linearGradient id="paint1_linear_10944_62882" x1="0" y1="-0.528809" x2="49.4339" y2="2.74754" gradientUnits="userSpaceOnUse">
<stop stop-color="#FFF9EC"/>
<stop offset="0.507029" stop-color="#FFE9B8"/>
<stop offset="1" stop-color="#FFF9EA"/>
</linearGradient>
<linearGradient id="paint2_linear_10944_62882" x1="41.9224" y1="-3.72841" x2="33.0418" y2="44.3787" gradientUnits="userSpaceOnUse">
<stop stop-color="#FFD8E8"/>
<stop offset="0.5" stop-color="#FFCABA"/>
<stop offset="1" stop-color="#FFEF9B"/>
</linearGradient>
<clipPath id="clip0_10944_62882">
<rect width="174" height="174" fill="white" transform="translate(0 0.471191)"/>
</clipPath>
<clipPath id="clip1_10944_62882">
<rect width="10.7937" height="10.8287" fill="white" transform="translate(114.102 77.6235)"/>
</clipPath>
<clipPath id="clip2_10944_62882">
<rect width="24.0783" height="24.1564" fill="white" transform="translate(75.9082 55.1333)"/>
</clipPath>
</defs>
</svg>
