<svg width="174" height="252" viewBox="0 0 174 252" fill="none" xmlns="http://www.w3.org/2000/svg">
<g clip-path="url(#clip0_10944_62727)">
<path d="M86.9395 163.749C129.1 163.749 163.277 129.571 163.277 87.4107C163.277 45.2504 129.1 11.0728 86.9395 11.0728C44.7792 11.0728 10.6016 45.2504 10.6016 87.4107C10.6016 129.571 44.7792 163.749 86.9395 163.749Z" fill="#F4A0B6"/>
<path d="M86.9395 163.749C129.1 163.749 163.277 129.571 163.277 87.4107C163.277 45.2504 129.1 11.0728 86.9395 11.0728C44.7792 11.0728 10.6016 45.2504 10.6016 87.4107C10.6016 129.571 44.7792 163.749 86.9395 163.749Z" fill="url(#paint0_linear_10944_62727)" fill-opacity="0.5"/>
<path d="M65.58 105.311C65.5667 105.418 65.5467 105.571 65.52 105.771C65.5067 105.971 65.4867 106.178 65.46 106.391C65.4467 106.591 65.4333 106.771 65.42 106.931C65.3933 107.305 65.3667 107.725 65.34 108.191C65.3267 108.658 65.3133 109.151 65.3 109.671C65.2867 110.191 65.2733 110.711 65.26 111.231C65.26 111.751 65.26 112.258 65.26 112.751C65.26 113.285 65.26 113.878 65.26 114.531C65.2733 115.171 65.2867 115.811 65.3 116.451C65.3267 117.091 65.3467 117.678 65.36 118.211C65.3733 118.731 65.38 119.145 65.38 119.451C65.38 120.211 65.2867 120.805 65.1 121.231C64.9267 121.658 64.6867 121.958 64.38 122.131C64.0733 122.305 63.7133 122.391 63.3 122.391C62.8467 122.391 62.3533 122.291 61.82 122.091C61.3 121.905 60.8067 121.645 60.34 121.311C59.8733 120.978 59.4867 120.591 59.18 120.151C58.8867 119.698 58.74 119.225 58.74 118.731C58.74 118.091 58.98 117.465 59.46 116.851C59.9533 116.238 60.5933 115.671 61.38 115.151C62.1667 114.618 63.0067 114.191 63.9 113.871C64.8067 113.538 65.7333 113.291 66.68 113.131C67.6267 112.971 68.48 112.891 69.24 112.891C70.2533 112.891 71.16 113.065 71.96 113.411C72.7733 113.745 73.42 114.231 73.9 114.871C74.38 115.498 74.62 116.258 74.62 117.151C74.62 117.938 74.4667 118.651 74.16 119.291C73.8533 119.931 73.38 120.478 72.74 120.931C72.1 121.385 71.2667 121.738 70.24 121.991C69.7867 122.085 69.34 122.151 68.9 122.191C68.46 122.231 68.0467 122.271 67.66 122.311L66.84 119.991C67.2667 119.991 67.6867 119.985 68.1 119.971C68.5133 119.958 68.9 119.918 69.26 119.851C69.82 119.745 70.3267 119.578 70.78 119.351C71.2467 119.125 71.6133 118.831 71.88 118.471C72.16 118.098 72.3 117.651 72.3 117.131C72.3 116.638 72.1667 116.225 71.9 115.891C71.6333 115.558 71.2667 115.305 70.8 115.131C70.3467 114.945 69.82 114.851 69.22 114.851C68.3667 114.851 67.5133 114.945 66.66 115.131C65.8067 115.305 64.9733 115.545 64.16 115.851C63.56 116.078 63.0133 116.351 62.52 116.671C62.04 116.991 61.66 117.318 61.38 117.651C61.1 117.985 60.96 118.311 60.96 118.631C60.96 118.805 61.0133 118.971 61.12 119.131C61.24 119.291 61.3867 119.431 61.56 119.551C61.7467 119.671 61.9333 119.771 62.12 119.851C62.32 119.918 62.4933 119.951 62.64 119.951C62.8267 119.951 62.98 119.885 63.1 119.751C63.22 119.618 63.28 119.385 63.28 119.051C63.28 118.691 63.2733 118.171 63.26 117.491C63.2467 116.811 63.2267 116.065 63.2 115.251C63.1867 114.425 63.18 113.618 63.18 112.831C63.18 112.258 63.18 111.678 63.18 111.091C63.1933 110.491 63.2 109.918 63.2 109.371C63.2 108.825 63.2 108.345 63.2 107.931C63.2133 107.505 63.22 107.185 63.22 106.971C63.22 106.825 63.2133 106.645 63.2 106.431C63.1867 106.218 63.1733 106.005 63.16 105.791C63.1467 105.578 63.1267 105.418 63.1 105.311H65.58ZM71.42 107.491C71.9267 107.731 72.4867 108.025 73.1 108.371C73.7133 108.718 74.3 109.065 74.86 109.411C75.4333 109.758 75.8933 110.065 76.24 110.331L75.14 112.151C74.9 111.938 74.58 111.698 74.18 111.431C73.78 111.151 73.3467 110.878 72.88 110.611C72.4267 110.331 71.98 110.071 71.54 109.831C71.1133 109.578 70.7467 109.371 70.44 109.211L71.42 107.491ZM59.24 108.671C59.8133 108.738 60.3133 108.778 60.74 108.791C61.1667 108.805 61.5667 108.811 61.94 108.811C62.4467 108.811 63.0133 108.791 63.64 108.751C64.2667 108.698 64.9 108.631 65.54 108.551C66.1933 108.458 66.8333 108.351 67.46 108.231C68.0867 108.111 68.6533 107.978 69.16 107.831L69.2 110.051C68.6533 110.171 68.0533 110.285 67.4 110.391C66.7467 110.498 66.0867 110.591 65.42 110.671C64.7667 110.751 64.14 110.818 63.54 110.871C62.9533 110.911 62.44 110.931 62 110.931C61.36 110.931 60.8333 110.925 60.42 110.911C60.0067 110.898 59.6267 110.871 59.28 110.831L59.24 108.671ZM79.02 107.191H95.08V118.931H92.86V109.251H81.16V119.031H79.02V107.191ZM80.42 111.531H93.94V113.511H80.42V111.531ZM80.42 115.891H93.96V117.951H80.42V115.891ZM85.82 104.531H88.06V123.191H85.82V104.531ZM105.1 105.431H109.3V107.451H105.1V105.431ZM108.18 105.431H110.46C110.553 106.871 110.713 108.251 110.94 109.571C111.167 110.878 111.5 112.085 111.94 113.191C112.38 114.285 112.947 115.258 113.64 116.111C114.347 116.951 115.213 117.631 116.24 118.151C116.08 118.271 115.893 118.425 115.68 118.611C115.467 118.798 115.26 118.998 115.06 119.211C114.86 119.425 114.693 119.618 114.56 119.791C113.52 119.165 112.633 118.398 111.9 117.491C111.18 116.571 110.593 115.538 110.14 114.391C109.687 113.231 109.333 111.978 109.08 110.631C108.84 109.285 108.667 107.871 108.56 106.391H108.18V105.431ZM108.16 109.511L110.36 109.831C109.92 112.085 109.233 114.051 108.3 115.731C107.38 117.398 106.18 118.758 104.7 119.811C104.593 119.665 104.44 119.491 104.24 119.291C104.053 119.091 103.847 118.891 103.62 118.691C103.407 118.478 103.213 118.311 103.04 118.191C104.467 117.325 105.587 116.151 106.4 114.671C107.227 113.191 107.813 111.471 108.16 109.511ZM102.46 112.351V119.651H100.36V114.351H97.9V112.351H102.46ZM102.46 118.711C102.887 119.391 103.487 119.891 104.26 120.211C105.047 120.531 105.973 120.718 107.04 120.771C107.613 120.785 108.3 120.798 109.1 120.811C109.9 120.811 110.74 120.805 111.62 120.791C112.513 120.778 113.38 120.758 114.22 120.731C115.06 120.691 115.807 120.645 116.46 120.591C116.38 120.751 116.293 120.965 116.2 121.231C116.107 121.498 116.02 121.765 115.94 122.031C115.873 122.311 115.82 122.558 115.78 122.771C115.18 122.811 114.5 122.838 113.74 122.851C112.98 122.865 112.193 122.871 111.38 122.871C110.58 122.885 109.8 122.885 109.04 122.871C108.28 122.871 107.607 122.858 107.02 122.831C105.767 122.778 104.693 122.578 103.8 122.231C102.92 121.898 102.153 121.338 101.5 120.551C101.06 120.951 100.6 121.351 100.12 121.751C99.6533 122.165 99.1467 122.591 98.6 123.031L97.52 120.791C97.9867 120.511 98.48 120.191 99 119.831C99.52 119.458 100.02 119.085 100.5 118.711H102.46ZM97.98 106.291L99.58 105.011C99.9933 105.278 100.413 105.591 100.84 105.951C101.28 106.311 101.687 106.678 102.06 107.051C102.447 107.411 102.753 107.751 102.98 108.071L101.28 109.471C101.08 109.165 100.793 108.825 100.42 108.451C100.06 108.065 99.6667 107.685 99.24 107.311C98.8133 106.925 98.3933 106.585 97.98 106.291Z" fill="#221A15"/>
<path d="M86.9406 172.759C134.076 172.759 172.287 134.547 172.287 87.4117C172.287 40.276 134.076 2.06494 86.9406 2.06494C39.8048 2.06494 1.59375 40.276 1.59375 87.4117C1.59375 134.547 39.8048 172.759 86.9406 172.759Z" stroke="#221A15" stroke-width="2" stroke-linecap="round" stroke-linejoin="round"/>
<path d="M112.999 45.4712L80.7807 80.0982L74.7142 89.7567L73.8203 75.1989V75.1971L112.999 45.4712Z" fill="#F090A9" stroke="#4C423D" stroke-width="2" stroke-linecap="round" stroke-linejoin="round"/>
<path d="M113 45.4712L73.8215 75.1971L61 66.1777L113 45.4712Z" fill="white" stroke="#4C423D" stroke-width="2" stroke-linecap="round" stroke-linejoin="round"/>
<path d="M112.999 45.4712L96.9494 91.4712L82.4782 81.2885L80.7812 80.0982L112.999 45.4712Z" fill="white" stroke="#4C423D" stroke-width="2" stroke-linecap="round" stroke-linejoin="round"/>
<path d="M82.4782 81.2884L74.7148 89.7567L80.7813 80.0981L82.4782 81.2884Z" stroke="#4C423D" stroke-width="2" stroke-linecap="round" stroke-linejoin="round"/>
<g filter="url(#filter0_d_10944_62727)">
<mask id="path-8-outside-1_10944_62727" maskUnits="userSpaceOnUse" x="4" y="5.87158" width="37" height="30" fill="black">
<rect fill="white" x="4" y="5.87158" width="37" height="30"/>
<path d="M15.7214 35.2716C13.4281 35.2716 11.4814 34.6716 9.88141 33.4716C8.30807 32.2449 7.10807 30.5516 6.28141 28.3916C5.45474 26.2049 5.04141 23.6982 5.04141 20.8716C5.04141 18.0182 5.45474 15.5116 6.28141 13.3516C7.10807 11.1916 8.30807 9.51158 9.88141 8.31158C11.4814 7.08491 13.4281 6.47158 15.7214 6.47158C18.0147 6.47158 19.9481 7.08491 21.5214 8.31158C23.1214 9.51158 24.3347 11.1916 25.1614 13.3516C25.9881 15.5116 26.4014 18.0182 26.4014 20.8716C26.4014 23.6982 25.9881 26.2049 25.1614 28.3916C24.3347 30.5516 23.1214 32.2449 21.5214 33.4716C19.9481 34.6716 18.0147 35.2716 15.7214 35.2716ZM15.7214 30.4716C16.8414 30.4716 17.8014 30.1249 18.6014 29.4316C19.4281 28.7116 20.0681 27.6449 20.5214 26.2316C20.9747 24.7916 21.2014 23.0049 21.2014 20.8716C21.2014 18.7116 20.9747 16.9249 20.5214 15.5116C20.0681 14.0982 19.4281 13.0449 18.6014 12.3516C17.8014 11.6316 16.8414 11.2716 15.7214 11.2716C14.6281 11.2716 13.6681 11.6316 12.8414 12.3516C12.0147 13.0449 11.3747 14.0982 10.9214 15.5116C10.4681 16.9249 10.2414 18.7116 10.2414 20.8716C10.2414 23.0049 10.4681 24.7916 10.9214 26.2316C11.3747 27.6449 12.0147 28.7116 12.8414 29.4316C13.6681 30.1249 14.6281 30.4716 15.7214 30.4716ZM37.5317 34.8716C36.7851 34.8716 36.1717 34.6449 35.6917 34.1916C35.2117 33.7116 34.9717 33.1249 34.9717 32.4316V12.2716L35.5317 13.1516L32.6117 15.3116C32.2384 15.6049 31.7717 15.7516 31.2117 15.7516C30.5717 15.7516 30.0117 15.5116 29.5317 15.0316C29.0517 14.5516 28.8117 13.9782 28.8117 13.3116C28.8117 12.4582 29.2251 11.7649 30.0517 11.2316L35.8117 7.39158C36.0784 7.20491 36.3717 7.07158 36.6917 6.99158C37.0384 6.91158 37.3584 6.87158 37.6517 6.87158C38.4251 6.87158 39.0384 7.11158 39.4917 7.59158C39.9451 8.04491 40.1717 8.61825 40.1717 9.31158V32.4316C40.1717 33.1249 39.9184 33.7116 39.4117 34.1916C38.9317 34.6449 38.3051 34.8716 37.5317 34.8716Z"/>
</mask>
<path d="M15.7214 35.2716C13.4281 35.2716 11.4814 34.6716 9.88141 33.4716C8.30807 32.2449 7.10807 30.5516 6.28141 28.3916C5.45474 26.2049 5.04141 23.6982 5.04141 20.8716C5.04141 18.0182 5.45474 15.5116 6.28141 13.3516C7.10807 11.1916 8.30807 9.51158 9.88141 8.31158C11.4814 7.08491 13.4281 6.47158 15.7214 6.47158C18.0147 6.47158 19.9481 7.08491 21.5214 8.31158C23.1214 9.51158 24.3347 11.1916 25.1614 13.3516C25.9881 15.5116 26.4014 18.0182 26.4014 20.8716C26.4014 23.6982 25.9881 26.2049 25.1614 28.3916C24.3347 30.5516 23.1214 32.2449 21.5214 33.4716C19.9481 34.6716 18.0147 35.2716 15.7214 35.2716ZM15.7214 30.4716C16.8414 30.4716 17.8014 30.1249 18.6014 29.4316C19.4281 28.7116 20.0681 27.6449 20.5214 26.2316C20.9747 24.7916 21.2014 23.0049 21.2014 20.8716C21.2014 18.7116 20.9747 16.9249 20.5214 15.5116C20.0681 14.0982 19.4281 13.0449 18.6014 12.3516C17.8014 11.6316 16.8414 11.2716 15.7214 11.2716C14.6281 11.2716 13.6681 11.6316 12.8414 12.3516C12.0147 13.0449 11.3747 14.0982 10.9214 15.5116C10.4681 16.9249 10.2414 18.7116 10.2414 20.8716C10.2414 23.0049 10.4681 24.7916 10.9214 26.2316C11.3747 27.6449 12.0147 28.7116 12.8414 29.4316C13.6681 30.1249 14.6281 30.4716 15.7214 30.4716ZM37.5317 34.8716C36.7851 34.8716 36.1717 34.6449 35.6917 34.1916C35.2117 33.7116 34.9717 33.1249 34.9717 32.4316V12.2716L35.5317 13.1516L32.6117 15.3116C32.2384 15.6049 31.7717 15.7516 31.2117 15.7516C30.5717 15.7516 30.0117 15.5116 29.5317 15.0316C29.0517 14.5516 28.8117 13.9782 28.8117 13.3116C28.8117 12.4582 29.2251 11.7649 30.0517 11.2316L35.8117 7.39158C36.0784 7.20491 36.3717 7.07158 36.6917 6.99158C37.0384 6.91158 37.3584 6.87158 37.6517 6.87158C38.4251 6.87158 39.0384 7.11158 39.4917 7.59158C39.9451 8.04491 40.1717 8.61825 40.1717 9.31158V32.4316C40.1717 33.1249 39.9184 33.7116 39.4117 34.1916C38.9317 34.6449 38.3051 34.8716 37.5317 34.8716Z" fill="url(#paint1_linear_10944_62727)"/>
<path d="M15.7214 35.2716C13.4281 35.2716 11.4814 34.6716 9.88141 33.4716C8.30807 32.2449 7.10807 30.5516 6.28141 28.3916C5.45474 26.2049 5.04141 23.6982 5.04141 20.8716C5.04141 18.0182 5.45474 15.5116 6.28141 13.3516C7.10807 11.1916 8.30807 9.51158 9.88141 8.31158C11.4814 7.08491 13.4281 6.47158 15.7214 6.47158C18.0147 6.47158 19.9481 7.08491 21.5214 8.31158C23.1214 9.51158 24.3347 11.1916 25.1614 13.3516C25.9881 15.5116 26.4014 18.0182 26.4014 20.8716C26.4014 23.6982 25.9881 26.2049 25.1614 28.3916C24.3347 30.5516 23.1214 32.2449 21.5214 33.4716C19.9481 34.6716 18.0147 35.2716 15.7214 35.2716ZM15.7214 30.4716C16.8414 30.4716 17.8014 30.1249 18.6014 29.4316C19.4281 28.7116 20.0681 27.6449 20.5214 26.2316C20.9747 24.7916 21.2014 23.0049 21.2014 20.8716C21.2014 18.7116 20.9747 16.9249 20.5214 15.5116C20.0681 14.0982 19.4281 13.0449 18.6014 12.3516C17.8014 11.6316 16.8414 11.2716 15.7214 11.2716C14.6281 11.2716 13.6681 11.6316 12.8414 12.3516C12.0147 13.0449 11.3747 14.0982 10.9214 15.5116C10.4681 16.9249 10.2414 18.7116 10.2414 20.8716C10.2414 23.0049 10.4681 24.7916 10.9214 26.2316C11.3747 27.6449 12.0147 28.7116 12.8414 29.4316C13.6681 30.1249 14.6281 30.4716 15.7214 30.4716ZM37.5317 34.8716C36.7851 34.8716 36.1717 34.6449 35.6917 34.1916C35.2117 33.7116 34.9717 33.1249 34.9717 32.4316V12.2716L35.5317 13.1516L32.6117 15.3116C32.2384 15.6049 31.7717 15.7516 31.2117 15.7516C30.5717 15.7516 30.0117 15.5116 29.5317 15.0316C29.0517 14.5516 28.8117 13.9782 28.8117 13.3116C28.8117 12.4582 29.2251 11.7649 30.0517 11.2316L35.8117 7.39158C36.0784 7.20491 36.3717 7.07158 36.6917 6.99158C37.0384 6.91158 37.3584 6.87158 37.6517 6.87158C38.4251 6.87158 39.0384 7.11158 39.4917 7.59158C39.9451 8.04491 40.1717 8.61825 40.1717 9.31158V32.4316C40.1717 33.1249 39.9184 33.7116 39.4117 34.1916C38.9317 34.6449 38.3051 34.8716 37.5317 34.8716Z" fill="url(#paint2_linear_10944_62727)"/>
<path d="M9.88141 33.4716L9.57392 33.866L9.58141 33.8716L9.88141 33.4716ZM6.28141 28.3916L5.81371 28.5684L5.81444 28.5703L6.28141 28.3916ZM6.28141 13.3516L5.81444 13.1729L5.81444 13.1729L6.28141 13.3516ZM9.88141 8.31158L10.1846 8.70914L10.1856 8.70838L9.88141 8.31158ZM21.5214 8.31158L21.2139 8.70597L21.2214 8.71158L21.5214 8.31158ZM25.1614 13.3516L25.6284 13.1729V13.1729L25.1614 13.3516ZM25.1614 28.3916L25.6284 28.5703L25.6291 28.5684L25.1614 28.3916ZM21.5214 33.4716L21.8246 33.8691L21.8256 33.8684L21.5214 33.4716ZM18.6014 29.4316L18.9289 29.8094L18.9298 29.8086L18.6014 29.4316ZM20.5214 26.2316L20.9975 26.3843L20.9983 26.3817L20.5214 26.2316ZM20.5214 15.5116L20.0453 15.6643V15.6643L20.5214 15.5116ZM18.6014 12.3516L18.2669 12.7232L18.2734 12.7291L18.2801 12.7347L18.6014 12.3516ZM12.8414 12.3516L13.1628 12.7347L13.1698 12.7286L12.8414 12.3516ZM10.9214 15.5116L10.4453 15.3589L10.9214 15.5116ZM10.9214 26.2316L10.4445 26.3817L10.4453 26.3843L10.9214 26.2316ZM12.8414 29.4316L12.513 29.8087L12.5201 29.8147L12.8414 29.4316ZM15.7214 34.7716C13.5197 34.7716 11.6825 34.1974 10.1814 33.0716L9.58141 33.8716C11.2803 35.1458 13.3364 35.7716 15.7214 35.7716V34.7716ZM10.1888 33.0773C8.69812 31.915 7.54776 30.3016 6.74838 28.2129L5.81444 28.5703C6.66839 30.8016 7.91803 32.5748 9.57397 33.8659L10.1888 33.0773ZM6.7491 28.2148C5.94774 26.0951 5.54141 23.6501 5.54141 20.8716H4.54141C4.54141 23.7464 4.96174 26.3148 5.81371 28.5684L6.7491 28.2148ZM5.54141 20.8716C5.54141 18.0655 5.94798 15.6216 6.74838 13.5303L5.81444 13.1729C4.96149 15.4015 4.54141 17.971 4.54141 20.8716H5.54141ZM6.74838 13.5303C7.54754 11.4422 8.69686 9.84389 10.1846 8.70914L9.57818 7.91402C7.91929 9.17928 6.66861 10.941 5.81444 13.1729L6.74838 13.5303ZM10.1856 8.70838C11.6865 7.55769 13.5222 6.97158 15.7214 6.97158V5.97158C13.3339 5.97158 11.2763 6.61214 9.57719 7.91478L10.1856 8.70838ZM15.7214 6.97158C17.9208 6.97158 19.7413 7.55772 21.214 8.7059L21.8288 7.91726C20.1548 6.61211 18.1087 5.97158 15.7214 5.97158V6.97158ZM21.2214 8.71158C22.7348 9.84664 23.8961 11.4443 24.6944 13.5303L25.6284 13.1729C24.7734 10.9389 23.508 9.17653 21.8214 7.91158L21.2214 8.71158ZM24.6944 13.5303C25.4948 15.6216 25.9014 18.0655 25.9014 20.8716H26.9014C26.9014 17.971 26.4813 15.4015 25.6284 13.1729L24.6944 13.5303ZM25.9014 20.8716C25.9014 23.6501 25.4951 26.0951 24.6937 28.2148L25.6291 28.5684C26.4811 26.3148 26.9014 23.7464 26.9014 20.8716H25.9014ZM24.6944 28.2129C23.8959 30.2995 22.7335 31.9123 21.2172 33.0748L21.8256 33.8684C23.5093 32.5776 24.7736 30.8037 25.6284 28.5703L24.6944 28.2129ZM21.2182 33.074C19.7454 34.1973 17.9233 34.7716 15.7214 34.7716V35.7716C18.1062 35.7716 20.1508 35.1458 21.8246 33.8691L21.2182 33.074ZM15.7214 30.9716C16.9541 30.9716 18.0324 30.5864 18.9289 29.8094L18.2739 29.0537C17.5704 29.6635 16.7287 29.9716 15.7214 29.9716V30.9716ZM18.9298 29.8086C19.8455 29.0111 20.5258 27.8548 20.9975 26.3843L20.0453 26.0789C19.6103 27.435 19.0107 28.4121 18.273 29.0545L18.9298 29.8086ZM20.9983 26.3817C21.4718 24.8777 21.7014 23.0366 21.7014 20.8716H20.7014C20.7014 22.9732 20.4777 24.7055 20.0445 26.0814L20.9983 26.3817ZM21.7014 20.8716C21.7014 18.6811 21.4721 16.8385 20.9975 15.3589L20.0453 15.6643C20.4774 17.0114 20.7014 18.742 20.7014 20.8716H21.7014ZM20.9975 15.3589C20.5258 13.8882 19.844 12.7412 18.9227 11.9685L18.2801 12.7347C19.0121 13.3486 19.6104 14.3083 20.0453 15.6643L20.9975 15.3589ZM18.9359 11.9799C18.0401 11.1737 16.9594 10.7716 15.7214 10.7716V11.7716C16.7234 11.7716 17.5627 12.0895 18.2669 12.7232L18.9359 11.9799ZM15.7214 10.7716C14.507 10.7716 13.4304 11.1755 12.513 11.9745L13.1698 12.7286C13.9057 12.0877 14.7491 11.7716 15.7214 11.7716V10.7716ZM12.5201 11.9685C11.5988 12.7412 10.917 13.8882 10.4453 15.3589L11.3975 15.6643C11.8325 14.3083 12.4307 13.3486 13.1627 12.7347L12.5201 11.9685ZM10.4453 15.3589C9.97071 16.8385 9.74141 18.6811 9.74141 20.8716H10.7414C10.7414 18.742 10.9654 17.0114 11.3975 15.6643L10.4453 15.3589ZM9.74141 20.8716C9.74141 23.0366 9.97098 24.8777 10.4445 26.3817L11.3983 26.0814C10.9652 24.7055 10.7414 22.9732 10.7414 20.8716H9.74141ZM10.4453 26.3843C10.917 27.8548 11.5974 29.0111 12.513 29.8086L13.1698 29.0545C12.4321 28.4121 11.8325 27.435 11.3975 26.0789L10.4453 26.3843ZM12.5201 29.8147C13.4381 30.5846 14.5123 30.9716 15.7214 30.9716V29.9716C14.7439 29.9716 13.898 29.6652 13.1627 29.0485L12.5201 29.8147ZM35.6917 34.1916L35.3382 34.5451L35.3432 34.5502L35.3484 34.5551L35.6917 34.1916ZM34.9717 12.2716L35.3936 12.0031L34.4717 10.5546V12.2716H34.9717ZM35.5317 13.1516L35.8291 13.5536L36.2038 13.2764L35.9535 12.8831L35.5317 13.1516ZM32.6117 15.3116L32.3144 14.9096L32.3085 14.9139L32.3028 14.9184L32.6117 15.3116ZM29.5317 15.0316L29.8853 14.678L29.8853 14.678L29.5317 15.0316ZM30.0517 11.2316L30.3228 11.6518L30.3291 11.6476L30.0517 11.2316ZM35.8117 7.39158L36.0891 7.80771L36.0984 7.8012L35.8117 7.39158ZM36.6917 6.99158L36.5793 6.5043L36.5704 6.50651L36.6917 6.99158ZM39.4917 7.59158L39.1282 7.93489L39.1331 7.94008L39.1382 7.94513L39.4917 7.59158ZM39.4117 34.1916L39.755 34.5551L39.7556 34.5546L39.4117 34.1916ZM37.5317 34.3716C36.8947 34.3716 36.4099 34.1821 36.035 33.8281L35.3484 34.5551C35.9336 35.1077 36.6754 35.3716 37.5317 35.3716V34.3716ZM36.0453 33.838C35.6613 33.454 35.4717 32.9955 35.4717 32.4316H34.4717C34.4717 33.2543 34.7622 33.9691 35.3382 34.5451L36.0453 33.838ZM35.4717 32.4316V12.2716H34.4717V32.4316H35.4717ZM34.5499 12.54L35.1099 13.42L35.9535 12.8831L35.3936 12.0031L34.5499 12.54ZM35.2344 12.7496L32.3144 14.9096L32.9091 15.7136L35.8291 13.5536L35.2344 12.7496ZM32.3028 14.9184C32.0327 15.1306 31.6806 15.2516 31.2117 15.2516V16.2516C31.8628 16.2516 32.4441 16.0792 32.9206 15.7047L32.3028 14.9184ZM31.2117 15.2516C30.713 15.2516 30.2778 15.0706 29.8853 14.678L29.1782 15.3851C29.7456 15.9526 30.4304 16.2516 31.2117 16.2516V15.2516ZM29.8853 14.678C29.4971 14.2899 29.3117 13.843 29.3117 13.3116H28.3117C28.3117 14.1135 28.6063 14.8133 29.1782 15.3851L29.8853 14.678ZM29.3117 13.3116C29.3117 12.6564 29.6133 12.1095 30.3228 11.6517L29.7807 10.8114C28.8368 11.4204 28.3117 12.2601 28.3117 13.3116H29.3117ZM30.3291 11.6476L36.0891 7.80761L35.5344 6.97556L29.7744 10.8156L30.3291 11.6476ZM36.0984 7.8012C36.3144 7.65006 36.5515 7.54203 36.813 7.47665L36.5704 6.50651C36.192 6.60113 35.8424 6.75977 35.525 6.98196L36.0984 7.8012ZM36.8041 7.47878C37.1215 7.40555 37.4032 7.37158 37.6517 7.37158V6.37158C37.3135 6.37158 36.9553 6.41761 36.5793 6.50439L36.8041 7.47878ZM37.6517 7.37158C38.3131 7.37158 38.7856 7.57213 39.1282 7.93489L39.8552 7.24827C39.2912 6.65103 38.537 6.37158 37.6517 6.37158V7.37158ZM39.1382 7.94513C39.4896 8.29659 39.6717 8.73893 39.6717 9.31158H40.6717C40.6717 8.49756 40.4005 7.79324 39.8453 7.23803L39.1382 7.94513ZM39.6717 9.31158V32.4316H40.6717V9.31158H39.6717ZM39.6717 32.4316C39.6717 32.9866 39.4756 33.4423 39.0678 33.8286L39.7556 34.5546C40.3612 33.9808 40.6717 33.2632 40.6717 32.4316H39.6717ZM39.0684 33.8281C38.6969 34.1789 38.2008 34.3716 37.5317 34.3716V35.3716C38.4093 35.3716 39.1665 35.1109 39.755 34.5551L39.0684 33.8281Z" fill="#221A15" mask="url(#path-8-outside-1_10944_62727)"/>
</g>
</g>
<rect x="86" y="173.471" width="2" height="78" fill="#221A15"/>
<defs>
<filter id="filter0_d_10944_62727" x="4.54102" y="5.97168" width="38.1309" height="31.7998" filterUnits="userSpaceOnUse" color-interpolation-filters="sRGB">
<feFlood flood-opacity="0" result="BackgroundImageFix"/>
<feColorMatrix in="SourceAlpha" type="matrix" values="0 0 0 0 0 0 0 0 0 0 0 0 0 0 0 0 0 0 127 0" result="hardAlpha"/>
<feOffset dx="2" dy="2"/>
<feComposite in2="hardAlpha" operator="out"/>
<feColorMatrix type="matrix" values="0 0 0 0 0.133333 0 0 0 0 0.101961 0 0 0 0 0.0823529 0 0 0 1 0"/>
<feBlend mode="normal" in2="BackgroundImageFix" result="effect1_dropShadow_10944_62727"/>
<feBlend mode="normal" in="SourceGraphic" in2="effect1_dropShadow_10944_62727" result="shape"/>
</filter>
<linearGradient id="paint0_linear_10944_62727" x1="1.42916" y1="-6.27426" x2="173.27" y2="4.5084" gradientUnits="userSpaceOnUse">
<stop stop-color="#FFD7E8"/>
<stop offset="0.5" stop-color="#FFDCD1"/>
<stop offset="1" stop-color="#FFF1A7"/>
</linearGradient>
<linearGradient id="paint1_linear_10944_62727" x1="3" y1="-0.128418" x2="46.1684" y2="2.36742" gradientUnits="userSpaceOnUse">
<stop stop-color="#FFF9EC"/>
<stop offset="0.507029" stop-color="#FFE9B8"/>
<stop offset="1" stop-color="#FFF9EA"/>
</linearGradient>
<linearGradient id="paint2_linear_10944_62727" x1="39.5706" y1="-3.32802" x2="29.4947" y2="44.2862" gradientUnits="userSpaceOnUse">
<stop stop-color="#FFD8E8"/>
<stop offset="0.5" stop-color="#FFCABA"/>
<stop offset="1" stop-color="#FFEF9B"/>
</linearGradient>
<clipPath id="clip0_10944_62727">
<rect width="174" height="174" fill="white" transform="translate(0 0.471191)"/>
</clipPath>
</defs>
</svg>
