<svg width="48" height="50" viewBox="0 0 48 50" fill="none" xmlns="http://www.w3.org/2000/svg">
<g clip-path="url(#clip0_10944_61300)">
<path d="M2.08624 17.0052C1.61513 17.1576 1.61513 17.8424 2.08624 17.9948C10.8523 20.8313 13.405 23.5833 15.9972 33.0803C16.134 33.5813 16.866 33.5813 17.0028 33.0804C19.595 23.5833 22.1477 20.8313 30.9138 17.9948C31.3849 17.8424 31.3849 17.1576 30.9138 17.0052C22.1477 14.1687 19.595 11.4167 17.0028 1.91965C16.866 1.41866 16.134 1.41866 15.9972 1.91965C13.405 11.4167 10.8523 14.1687 2.08624 17.0052Z" fill="#FFE236" stroke="#414141" stroke-width="2" stroke-linecap="round" stroke-linejoin="round"/>
<path d="M31.0499 39.4927C30.5851 39.6565 30.5855 40.342 31.0505 40.5054C35.206 41.9656 36.6606 43.5367 37.9796 48.0535C38.1257 48.5539 38.8743 48.5539 39.0204 48.0535C40.3394 43.5367 41.794 41.9656 45.9495 40.5054C46.4145 40.342 46.4149 39.6565 45.9501 39.4927C41.7942 38.0277 40.3395 36.462 39.0205 31.9464C38.8744 31.4461 38.1256 31.4461 37.9795 31.9464C36.6605 36.462 35.2058 38.0277 31.0499 39.4927Z" fill="#FFE236" stroke="#414141" stroke-width="2" stroke-linecap="round" stroke-linejoin="round"/>
</g>
<defs>
<clipPath id="clip0_10944_61300">
<rect width="47" height="50" fill="white" transform="matrix(-1 0 0 1 47.5 0)"/>
</clipPath>
</defs>
</svg>
