<svg width="66" height="66" viewBox="0 0 66 66" fill="none" xmlns="http://www.w3.org/2000/svg">
<g clip-path="url(#clip0_11089_247813)">
<path d="M33.1033 61.5191C48.9134 61.5191 61.73 48.7025 61.73 32.8924C61.73 17.0823 48.9134 4.26562 33.1033 4.26562C17.2932 4.26562 4.47656 17.0823 4.47656 32.8924C4.47656 48.7025 17.2932 61.5191 33.1033 61.5191Z" fill="#F4A0B6"/>
<path d="M33.1033 61.5191C48.9134 61.5191 61.73 48.7025 61.73 32.8924C61.73 17.0823 48.9134 4.26562 33.1033 4.26562C17.2932 4.26562 4.47656 17.0823 4.47656 32.8924C4.47656 48.7025 17.2932 61.5191 33.1033 61.5191Z" fill="url(#paint0_linear_11089_247813)" fill-opacity="0.5"/>
<path d="M19.324 44.579V45.1618H22.0158V44.579H19.324ZM19.324 43.3395V43.913H22.0158V43.3395H19.324ZM18.4175 42.6365H22.9593V45.874H18.4175V42.6365ZM19.213 45.5225L20.1288 45.7538C19.9068 46.3273 19.6138 46.8638 19.25 47.3633C18.8862 47.8566 18.4946 48.2698 18.0753 48.6028C18.0321 48.5411 17.9643 48.4702 17.8718 48.39C17.7854 48.3037 17.6991 48.2173 17.6128 48.131C17.5264 48.0447 17.4463 47.9768 17.3723 47.9275C17.7731 47.65 18.1338 47.3016 18.4545 46.8823C18.7813 46.4568 19.0342 46.0035 19.213 45.5225ZM19.3795 46.4568H22.7095V47.28H18.88L19.3795 46.4568ZM22.4598 46.4568H23.394C23.394 46.4568 23.3909 46.4814 23.3848 46.5308C23.3848 46.5801 23.3848 46.6356 23.3848 46.6973C23.3848 46.7589 23.3817 46.8083 23.3755 46.8453C23.3262 47.6716 23.2738 48.3407 23.2183 48.8525C23.1689 49.3582 23.1103 49.7467 23.0425 50.018C22.9747 50.2893 22.8914 50.4836 22.7928 50.6008C22.6941 50.7179 22.5893 50.7981 22.4783 50.8413C22.3673 50.8906 22.2378 50.9245 22.0898 50.943C21.9541 50.9615 21.7814 50.9677 21.5718 50.9615C21.3683 50.9615 21.1493 50.9553 20.915 50.943C20.9088 50.8258 20.8811 50.6871 20.8318 50.5268C20.7886 50.3726 20.73 50.2369 20.656 50.1198C20.8718 50.1383 21.0692 50.1506 21.248 50.1568C21.433 50.1629 21.5718 50.166 21.6643 50.166C21.7383 50.166 21.7999 50.1598 21.8493 50.1475C21.8986 50.129 21.9479 50.0951 21.9973 50.0458C22.0713 49.9718 22.1329 49.8145 22.1823 49.574C22.2378 49.3273 22.2871 48.9666 22.3303 48.4918C22.3796 48.0108 22.4228 47.3848 22.4598 46.614V46.4568ZM20.7948 47.5668L21.3775 48.1773C21.1617 48.2698 20.9243 48.3592 20.6653 48.4455C20.4063 48.5257 20.1442 48.5966 19.879 48.6583C19.6138 48.7199 19.3579 48.7754 19.1113 48.8248C19.0928 48.7384 19.0588 48.6367 19.0095 48.5195C18.9663 48.4023 18.9232 48.3006 18.88 48.2143C19.1082 48.1526 19.3394 48.0878 19.5738 48.02C19.8081 47.9522 20.0332 47.8782 20.249 47.798C20.4648 47.7178 20.6468 47.6408 20.7948 47.5668ZM18.5193 47.5205H19.361V49.1023C19.361 49.2133 19.3826 49.2842 19.4258 49.315C19.4689 49.3458 19.5645 49.3613 19.7125 49.3613C19.7433 49.3613 19.7988 49.3613 19.879 49.3613C19.9653 49.3613 20.0578 49.3613 20.1565 49.3613C20.2613 49.3613 20.3569 49.3613 20.4433 49.3613C20.5358 49.3613 20.6036 49.3613 20.6468 49.3613C20.7269 49.3613 20.7855 49.3489 20.8225 49.3243C20.8657 49.2934 20.8965 49.2379 20.915 49.1578C20.9335 49.0776 20.9458 48.9573 20.952 48.797C21.0383 48.8587 21.1555 48.9203 21.3035 48.982C21.4577 49.0375 21.5933 49.0776 21.7105 49.1023C21.6797 49.3736 21.6273 49.5833 21.5533 49.7313C21.4793 49.8793 21.3775 49.9841 21.248 50.0458C21.1247 50.1013 20.9582 50.129 20.7485 50.129C20.6992 50.129 20.619 50.129 20.508 50.129C20.4032 50.129 20.2891 50.129 20.1658 50.129C20.0424 50.129 19.9253 50.129 19.8143 50.129C19.7094 50.129 19.6354 50.129 19.5923 50.129C19.2963 50.129 19.0712 50.0982 18.917 50.0365C18.7628 49.9748 18.658 49.87 18.6025 49.722C18.547 49.574 18.5193 49.3705 18.5193 49.1115V47.5205ZM14.8378 47.1135C15.2201 47.0333 15.6795 46.9254 16.216 46.7898C16.7587 46.6479 17.3013 46.503 17.844 46.355L17.9643 47.243C17.4648 47.391 16.9591 47.539 16.4473 47.687C15.9354 47.8288 15.4668 47.9614 15.0413 48.0848L14.8378 47.1135ZM15.0135 44.1165H17.918V45.0323H15.0135V44.1165ZM16.142 42.3405H17.0948V49.833C17.0948 50.0858 17.067 50.2832 17.0115 50.425C16.9622 50.573 16.8666 50.6871 16.7248 50.7673C16.5768 50.8474 16.3948 50.8998 16.179 50.9245C15.9632 50.9492 15.698 50.9615 15.3835 50.9615C15.3712 50.832 15.3373 50.6717 15.2818 50.4805C15.2263 50.2955 15.1677 50.1352 15.106 49.9995C15.291 50.0057 15.4668 50.0088 15.6333 50.0088C15.7998 50.0088 15.9138 50.0088 15.9755 50.0088C16.0372 50.0088 16.0803 49.9964 16.105 49.9718C16.1297 49.9409 16.142 49.8947 16.142 49.833V42.3405ZM30.6183 42.877L31.3398 42.396C31.5556 42.581 31.7776 42.7938 32.0058 43.0343C32.2401 43.2748 32.4189 43.4844 32.5423 43.6633L31.7838 44.1998C31.7098 44.0764 31.608 43.9377 31.4785 43.7835C31.349 43.6293 31.2072 43.4721 31.053 43.3118C30.905 43.1514 30.7601 43.0065 30.6183 42.877ZM24.319 44.32H32.7088V45.1433H24.319V44.32ZM24.7353 42.988H28.7683V43.7558H24.7353V42.988ZM24.578 45.6058H28.9348V46.318H24.578V45.6058ZM24.4393 49.3983H28.944V50.129H24.4393V49.3983ZM26.2893 42.3313H27.2328V45.0693H26.2893V42.3313ZM25.466 48.094V48.4918H28.0468V48.094H25.466ZM25.466 47.2153V47.6038H28.0468V47.2153H25.466ZM24.7538 46.7065H28.7868V48.9913H24.7538V46.7065ZM26.3818 47.021H27.1125V48.8155H27.1865V50.98H26.317V48.8155H26.3818V47.021ZM26.2985 45.1063H27.1958V46.8915H26.2985V45.1063ZM29.2308 42.3405H30.2298C30.2113 43.1607 30.2205 43.95 30.2575 44.7085C30.2945 45.4608 30.3531 46.1608 30.4333 46.8083C30.5196 47.4496 30.6244 48.0108 30.7478 48.4918C30.8711 48.9666 31.0129 49.3366 31.1733 49.6018C31.3336 49.8669 31.5093 49.9995 31.7005 49.9995C31.8053 49.9995 31.8824 49.8793 31.9318 49.6388C31.9873 49.3983 32.0273 49.0067 32.052 48.464C32.1568 48.5688 32.2833 48.6706 32.4313 48.7693C32.5854 48.8618 32.7242 48.9327 32.8475 48.982C32.8043 49.5062 32.7334 49.9101 32.6348 50.1938C32.5423 50.4836 32.4128 50.684 32.2463 50.795C32.0859 50.9122 31.8732 50.9708 31.608 50.9708C31.2935 50.9708 31.0129 50.8598 30.7663 50.6378C30.5258 50.4219 30.3192 50.1198 30.1465 49.7313C29.9738 49.3366 29.8258 48.871 29.7025 48.3345C29.5853 47.7918 29.4928 47.1998 29.425 46.5585C29.3572 45.9172 29.3078 45.2419 29.277 44.5328C29.2462 43.8174 29.2308 43.0867 29.2308 42.3405ZM31.5063 45.5688L32.385 45.8463C32.1507 46.5863 31.8608 47.2738 31.5155 47.909C31.1702 48.5442 30.7693 49.1208 30.313 49.6388C29.8567 50.1568 29.3448 50.6038 28.7775 50.98C28.7035 50.8628 28.6018 50.7333 28.4723 50.5915C28.3489 50.4497 28.2256 50.3294 28.1023 50.2308C28.6388 49.9101 29.1259 49.5185 29.5638 49.056C30.0016 48.5873 30.3839 48.0601 30.7108 47.4743C31.0376 46.8884 31.3028 46.2533 31.5063 45.5688ZM35.493 46.4475H40.007V47.2338H35.493V46.4475ZM35.345 48.02H40.1735V48.8433H35.345V48.02ZM38.2033 46.688H39.082V50.795H38.2033V46.688ZM36.3718 46.725H37.2228V48.4733C37.2228 48.6213 37.2043 48.8001 37.1673 49.0098C37.1303 49.2194 37.0655 49.4445 36.973 49.685C36.8867 49.9193 36.7633 50.1475 36.603 50.3695C36.4427 50.5915 36.2392 50.7858 35.9925 50.9523C35.9185 50.8659 35.8168 50.7642 35.6873 50.647C35.5639 50.536 35.4498 50.4466 35.345 50.3788C35.6225 50.2061 35.8353 50.0026 35.9833 49.7683C36.1313 49.5339 36.233 49.2996 36.2885 49.0653C36.344 48.8309 36.3718 48.6336 36.3718 48.4733V46.725ZM34.3738 43.9685H36.7788V44.6253H34.3738V43.9685ZM38.6658 43.9685H41.08V44.6253H38.6658V43.9685ZM40.6915 42.7013H41.6628V49.7868C41.6628 50.0458 41.6319 50.2523 41.5703 50.4065C41.5148 50.5607 41.4099 50.6778 41.2558 50.758C41.0893 50.8443 40.8827 50.8968 40.636 50.9153C40.3955 50.9399 40.0995 50.9492 39.748 50.943C39.7357 50.8505 39.7141 50.7457 39.6833 50.6285C39.6524 50.5113 39.6154 50.3911 39.5723 50.2678C39.5353 50.1444 39.4952 50.0427 39.452 49.9625C39.6678 49.9687 39.8775 49.9718 40.081 49.9718C40.2907 49.9718 40.4325 49.9718 40.5065 49.9718C40.5743 49.9718 40.6206 49.9563 40.6453 49.9255C40.6761 49.8947 40.6915 49.8453 40.6915 49.7775V42.7013ZM34.4663 42.7013H37.4078V45.9388H34.4663V45.2173H36.4735V43.4135H34.4663V42.7013ZM41.191 42.7013V43.4135H39.0173V45.2358H41.191V45.9573H38.0738V42.7013H41.191ZM33.8835 42.7013H34.8548V50.9708H33.8835V42.7013ZM47.3978 49.6943H50.4318V50.5915H47.3978V49.6943ZM46.8983 47.1228H50.9498V50.9338H49.9693V48.0293H47.8418V50.9708H46.8983V47.1228ZM46.2878 45.43C46.6578 45.4115 47.0802 45.3899 47.555 45.3653C48.036 45.3406 48.5417 45.3128 49.072 45.282C49.6085 45.245 50.1419 45.2111 50.6723 45.1803L50.663 46.0683C50.1573 46.1053 49.6486 46.1453 49.1368 46.1885C48.6311 46.2317 48.1439 46.2687 47.6753 46.2995C47.2066 46.3303 46.7811 46.3612 46.3988 46.392L46.2878 45.43ZM49.2478 44.172L50.0433 43.7743C50.2406 44.0333 50.4318 44.3138 50.6168 44.616C50.8079 44.912 50.9806 45.2049 51.1348 45.4948C51.2889 45.7846 51.403 46.0467 51.477 46.281L50.6168 46.7435C50.5489 46.5092 50.4441 46.244 50.3023 45.948C50.1604 45.6458 49.997 45.3406 49.812 45.0323C49.6332 44.7239 49.4451 44.4372 49.2478 44.172ZM47.9528 42.322L49.0535 42.5348C48.9302 42.9233 48.7945 43.3241 48.6465 43.7373C48.4985 44.1504 48.3474 44.5482 48.1933 44.9305C48.0391 45.3128 47.8911 45.652 47.7493 45.948L46.9075 45.726C47.0062 45.4978 47.1048 45.2419 47.2035 44.9583C47.3083 44.6746 47.407 44.3817 47.4995 44.0795C47.592 43.7712 47.6783 43.469 47.7585 43.173C47.8387 42.8708 47.9034 42.5872 47.9528 42.322ZM42.745 44.1998H45.7605V45.1155H42.745V44.1998ZM44.04 42.322L44.9743 42.433C44.8756 42.914 44.7677 43.4228 44.6505 43.9593C44.5395 44.4958 44.4193 45.0353 44.2898 45.578C44.1664 46.1145 44.04 46.6325 43.9105 47.132C43.7872 47.6253 43.67 48.0755 43.559 48.4825L42.7543 48.0478C42.8591 47.6901 42.9701 47.2769 43.0873 46.8083C43.2044 46.3396 43.3185 45.8463 43.4295 45.3283C43.5467 44.8041 43.6577 44.2861 43.7625 43.7743C43.8673 43.2624 43.9598 42.7783 44.04 42.322ZM43.2538 47.8628L43.7995 47.169C44.1263 47.3663 44.4655 47.5914 44.817 47.8443C45.1747 48.0971 45.5077 48.353 45.816 48.612C46.1243 48.871 46.3679 49.1177 46.5468 49.352L45.9548 50.1475C45.7759 49.9193 45.5354 49.6696 45.2333 49.3983C44.9373 49.1208 44.6166 48.8463 44.2713 48.575C43.9259 48.3037 43.5868 48.0663 43.2538 47.8628ZM45.3905 44.1998H45.557L45.7328 44.172L46.3155 44.2738C46.2477 45.4763 46.0935 46.5123 45.853 47.3818C45.6187 48.2513 45.298 48.982 44.891 49.574C44.484 50.1598 43.9783 50.6378 43.374 51.0078C43.3062 50.8844 43.2137 50.7426 43.0965 50.5823C42.9793 50.4281 42.8714 50.3048 42.7728 50.2123C43.2908 49.9348 43.7348 49.5308 44.1048 49.0005C44.4748 48.464 44.7646 47.8103 44.9743 47.0395C45.1901 46.2625 45.3288 45.3776 45.3905 44.3848V44.1998Z" fill="#221A15"/>
<g clip-path="url(#clip1_11089_247813)">
<rect x="23.3594" y="18.9141" width="20.2383" height="12.8071" fill="white"/>
<path d="M47.1815 32.7969V33.3952C47.1815 33.9841 46.706 34.4612 46.1189 34.4612H21.0216C20.4345 34.4612 19.959 33.9841 19.959 33.3952V32.7969H31.4531V33.6292H35.6871V32.7969H47.1812H47.1815Z" fill="#948E8B"/>
<path d="M47.1813 32.7957H46.8475V33.394C46.8475 33.4958 46.8272 33.5912 46.7905 33.6786C46.7354 33.8095 46.6426 33.9217 46.5262 34.0007C46.4094 34.0797 46.2709 34.1253 46.119 34.1253H21.0213C20.9198 34.1253 20.8247 34.1048 20.7376 34.068C20.6071 34.0128 20.4954 33.9197 20.4166 33.8028C20.3378 33.6857 20.2924 33.5467 20.2924 33.3944V33.1309H22.4703H31.1191V33.6284C31.1191 33.7165 31.1548 33.8028 31.2169 33.8651C31.279 33.9274 31.3651 33.9632 31.4528 33.9632H35.6868C35.7746 33.9632 35.8607 33.9274 35.9227 33.8651C35.9848 33.8028 36.0205 33.7165 36.0205 33.6284V33.1309H44.6693H47.1809V32.7961V32.4613H35.6868C35.599 32.4613 35.5129 32.4971 35.4509 32.5594C35.3888 32.6216 35.3531 32.708 35.3531 32.7961V33.2936H31.7866V32.7961C31.7866 32.708 31.7509 32.6216 31.6888 32.5594C31.6267 32.4971 31.5406 32.4613 31.4528 32.4613H19.9587C19.871 32.4613 19.7849 32.4971 19.7228 32.5594C19.6607 32.6213 19.625 32.7077 19.625 32.7957V33.394C19.625 33.5866 19.664 33.7717 19.7348 33.9394C19.8409 34.1912 20.0178 34.4045 20.2404 34.5555C20.463 34.7065 20.7333 34.7952 21.0213 34.7949H46.1187C46.3106 34.7949 46.4951 34.7557 46.6623 34.6847C46.9133 34.5783 47.1259 34.4008 47.2764 34.1775C47.4269 33.9542 47.5153 33.683 47.515 33.394V32.7957C47.515 32.7077 47.4793 32.6213 47.4172 32.559C47.3551 32.4968 47.269 32.4609 47.1813 32.4609V32.7957Z" fill="#4C423D"/>
<path d="M44.6677 18.3688V32.796H22.4688V18.3688C22.4688 18.0377 22.7364 17.7695 23.0661 17.7695H44.0704C44.4004 17.7695 44.6677 18.0377 44.6677 18.3688ZM43.9499 31.8709V18.6949H23.1866V31.8712H43.9502L43.9499 31.8709Z" fill="#948E8B"/>
<path d="M44.6691 18.369H44.3354V32.4613H22.8038V18.369C22.8038 18.3315 22.8112 18.2977 22.8245 18.2662C22.8442 18.2193 22.8783 18.1781 22.9203 18.1497C22.9627 18.1212 23.0117 18.1048 23.0675 18.1048H44.0717C44.1091 18.1048 44.1428 18.1122 44.1742 18.1256C44.2212 18.1453 44.262 18.1795 44.2907 18.2217C44.319 18.2642 44.3354 18.3134 44.3354 18.3693H45.0028C45.0028 18.2414 44.9768 18.1175 44.9294 18.0057C44.8583 17.8376 44.7409 17.6957 44.5923 17.5952C44.4442 17.4945 44.2633 17.4355 44.0714 17.4355H23.0678C22.9403 17.4355 22.8168 17.4617 22.7054 17.5092C22.5379 17.5802 22.3964 17.6984 22.2959 17.8474C22.1955 17.996 22.1364 18.1775 22.1367 18.37V32.7971C22.1367 32.8852 22.1724 32.9716 22.2345 33.0338C22.2966 33.0961 22.3827 33.1319 22.4704 33.1319H44.6694C44.7572 33.1319 44.8433 33.0961 44.9054 33.0338C44.9675 32.9716 45.0032 32.8852 45.0032 32.7971V18.369H44.6694H44.6691ZM43.9513 31.871H44.285V18.6951C44.285 18.607 44.2493 18.5207 44.1872 18.4584C44.1251 18.3961 44.039 18.3603 43.9513 18.3603H23.188C23.1002 18.3603 23.0141 18.3961 22.952 18.4584C22.8899 18.5207 22.8542 18.607 22.8542 18.6951V31.8714C22.8542 31.9594 22.8899 32.0458 22.952 32.1081C23.0141 32.1704 23.1002 32.2062 23.188 32.2062H43.9516C44.0394 32.2062 44.1255 32.1704 44.1875 32.1081C44.2496 32.0458 44.2853 31.9594 44.2853 31.8714H43.9516V31.5366H23.5217V19.0296H43.6179V31.871H43.9516H43.9513Z" fill="#4C423D"/>
<path d="M35.6871 32.7969H31.4531V33.6292H35.6871V32.7969Z" fill="#948E8B"/>
<path d="M35.6868 32.7957H35.3531V33.2933H31.7866V33.1305H35.6868V32.7957V32.4609H31.4529C31.3651 32.4609 31.279 32.4968 31.2169 32.559C31.1548 32.6213 31.1191 32.7077 31.1191 32.7957V33.6281C31.1191 33.7161 31.1548 33.8025 31.2169 33.8648C31.279 33.9271 31.3651 33.9629 31.4529 33.9629H35.6868C35.7746 33.9629 35.8607 33.9271 35.9228 33.8648C35.9848 33.8025 36.0205 33.7161 36.0205 33.6281V32.7957C36.0205 32.7077 35.9848 32.6213 35.9228 32.559C35.8607 32.4968 35.7746 32.4609 35.6868 32.4609V32.7957Z" fill="#4C423D"/>
<path d="M22.8038 32.7945V18.3674C22.8038 18.3299 22.8112 18.2961 22.8245 18.2646C22.8442 18.2177 22.8783 18.1765 22.9203 18.1481C22.9627 18.1196 23.0117 18.1032 23.0675 18.1032H44.0717C44.1091 18.1032 44.1428 18.1106 44.1742 18.124C44.2212 18.1437 44.262 18.1779 44.2907 18.2201C44.319 18.2626 44.3354 18.3118 44.3354 18.3677V32.7948C44.3354 32.9797 44.4849 33.1296 44.6691 33.1296C44.8533 33.1296 45.0028 32.9797 45.0028 32.7948V18.3674C45.0028 18.2395 44.9768 18.1156 44.9294 18.0038C44.8583 17.8357 44.7409 17.6937 44.5923 17.5933C44.4442 17.4925 44.2633 17.4336 44.0714 17.4336H23.0678C22.9403 17.4336 22.8168 17.4597 22.7054 17.5073C22.5379 17.5782 22.3964 17.6964 22.2959 17.8454C22.1955 17.9941 22.1364 18.1755 22.1367 18.368V32.7952C22.1367 32.98 22.2862 33.13 22.4704 33.13C22.6547 33.13 22.8042 32.98 22.8042 32.7952L22.8038 32.7945Z" fill="#4C423D"/>
<path d="M48.5815 25.5908V26.4116H42.043V25.5908C42.043 25.3543 42.2641 25.1621 42.5361 25.1621H48.0883C48.3603 25.1621 48.5815 25.3543 48.5815 25.5908Z" fill="#948E8B"/>
<path d="M44.6693 32.7957V33.1305H46.8472V33.394C46.8472 33.4958 46.8268 33.5912 46.7901 33.6786C46.7351 33.8095 46.6423 33.9217 46.5258 34.0007C46.409 34.0797 46.2705 34.1253 46.1187 34.1253H21.0213C20.9198 34.1253 20.8247 34.1048 20.7376 34.068C20.6071 34.0128 20.4954 33.9197 20.4166 33.8028C20.3378 33.6857 20.2924 33.5467 20.2924 33.3944V33.1309H22.4703H31.4528H44.6693V32.4613H19.9587C19.871 32.4613 19.7849 32.4971 19.7228 32.5594C19.6607 32.6213 19.625 32.7077 19.625 32.7957V33.394C19.625 33.5866 19.664 33.7717 19.7348 33.9394C19.8409 34.1912 20.0178 34.4045 20.2404 34.5555C20.463 34.7065 20.7333 34.7952 21.0213 34.7949H46.1187C46.3106 34.7949 46.4951 34.7557 46.6623 34.6847C46.9133 34.5783 47.1259 34.4008 47.2764 34.1775C47.4269 33.9542 47.5153 33.683 47.515 33.394V32.7957C47.515 32.7077 47.4793 32.6213 47.4172 32.559C47.3551 32.4968 47.269 32.4609 47.1813 32.4609H44.6697V32.7957H44.6693Z" fill="#4C423D"/>
<rect x="42.043" y="26.7246" width="6.53852" height="10.3081" fill="white"/>
<g clip-path="url(#clip2_11089_247813)">
<mask id="mask0_11089_247813" style="mask-type:luminance" maskUnits="userSpaceOnUse" x="43" y="29" width="5" height="5">
<path d="M45.3148 33.0671C45.5521 33.0674 45.7872 33.0207 46.0065 32.9295C46.2258 32.8384 46.4249 32.7047 46.5925 32.5361C46.7606 32.368 46.8938 32.1682 46.9847 31.9482C47.0755 31.7282 47.1221 31.4924 47.1218 31.2543C47.1221 31.0161 47.0755 30.7803 46.9847 30.5603C46.8938 30.3404 46.7606 30.1405 46.5925 29.9724C46.4249 29.8038 46.2258 29.6701 46.0065 29.579C45.7872 29.4879 45.5521 29.4411 45.3148 29.4414C45.0775 29.4411 44.8424 29.4879 44.6231 29.579C44.4039 29.6701 44.2047 29.8038 44.0371 29.9724C43.869 30.1405 43.7358 30.3404 43.6449 30.5603C43.5541 30.7803 43.5075 31.0161 43.5078 31.2543C43.5075 31.4924 43.5541 31.7282 43.6449 31.9482C43.7358 32.1682 43.869 32.368 44.0371 32.5361C44.2047 32.7047 44.4039 32.8384 44.6231 32.9295C44.8424 33.0207 45.0775 33.0674 45.3148 33.0671Z" fill="white" stroke="white" stroke-width="0.427632" stroke-linejoin="round"/>
<path d="M44.5918 31.2548L45.1339 31.7986L46.2181 30.7109" stroke="black" stroke-width="0.427632" stroke-linecap="round" stroke-linejoin="round"/>
</mask>
<g mask="url(#mask0_11089_247813)">
<path d="M43.2891 29.0781H47.6258V33.429H43.2891V29.0781Z" fill="#F090A9"/>
</g>
</g>
<path d="M48.5815 36.4082V37.229C48.5815 37.4654 48.3603 37.6577 48.0883 37.6577H42.5361C42.2641 37.6577 42.043 37.4654 42.043 37.229V36.4082H48.5815ZM45.6954 37.024C45.6954 36.8401 45.524 36.6908 45.312 36.6908C45.1001 36.6908 44.9287 36.8397 44.9287 37.024C44.9287 37.2082 45.1005 37.3572 45.312 37.3572C45.5236 37.3572 45.6954 37.2079 45.6954 37.024Z" fill="#948E8B"/>
<g clip-path="url(#clip3_11089_247813)">
<mask id="mask1_11089_247813" style="mask-type:luminance" maskUnits="userSpaceOnUse" x="28" y="20" width="10" height="10">
<path d="M33.4763 29.3615C34.0057 29.3622 34.5301 29.2579 35.0193 29.0546C35.5084 28.8514 35.9527 28.5531 36.3266 28.177C36.7015 27.8019 36.9988 27.3562 37.2014 26.8655C37.404 26.3747 37.5079 25.8487 37.5073 25.3175C37.5079 24.7863 37.404 24.2602 37.2014 23.7695C36.9987 23.2788 36.7015 22.833 36.3266 22.4579C35.9527 22.0819 35.5084 21.7836 35.0193 21.5803C34.5301 21.377 34.0057 21.2728 33.4763 21.2734C32.9468 21.2728 32.4225 21.3771 31.9333 21.5803C31.4442 21.7836 30.9999 22.0819 30.626 22.4579C30.2511 22.833 29.9538 23.2788 29.7512 23.7695C29.5486 24.2602 29.4446 24.7863 29.4453 25.3175C29.4446 25.8487 29.5486 26.3747 29.7512 26.8655C29.9538 27.3562 30.2511 27.8019 30.626 28.177C30.9999 28.5531 31.4442 28.8514 31.9333 29.0546C32.4225 29.2579 32.9468 29.3622 33.4763 29.3615Z" fill="white" stroke="white" stroke-width="0.953947" stroke-linejoin="round"/>
<path d="M31.8633 25.3167L33.0726 26.5299L35.4912 24.1035" stroke="black" stroke-width="0.953947" stroke-linecap="round" stroke-linejoin="round"/>
</mask>
<g mask="url(#mask1_11089_247813)">
<path d="M28.6426 20.4648H38.3169V30.1705H28.6426V20.4648Z" fill="#F090A9"/>
</g>
</g>
<path d="M31.1172 32.7957V33.6281C31.1172 33.7161 31.1529 33.8025 31.215 33.8648C31.277 33.9271 31.3631 33.9629 31.4509 33.9629H35.6849C35.7726 33.9629 35.8587 33.9271 35.9208 33.8648C35.9829 33.8025 36.0186 33.7161 36.0186 33.6281V32.7957C36.0186 32.6109 35.8691 32.4609 35.6849 32.4609C35.5007 32.4609 35.3511 32.6109 35.3511 32.7957V33.2933H31.7846V32.7957C31.7846 32.6109 31.6351 32.4609 31.4509 32.4609C31.2667 32.4609 31.1172 32.6109 31.1172 32.7957Z" fill="#4C423D"/>
<path d="M48.8237 25.6899V37.1714C48.8237 37.7432 48.3615 38.2069 47.7915 38.2069H42.7646C42.1946 38.2069 41.7324 37.7432 41.7324 37.1714V25.6899C41.7324 25.118 42.1946 24.6543 42.7646 24.6543H47.7915C48.3615 24.6543 48.8237 25.118 48.8237 25.6899ZM48.238 37.1714V25.6899C48.238 25.4428 48.0378 25.2419 47.7915 25.2419H42.7646C42.5183 25.2419 42.3181 25.4428 42.3181 25.6899V37.1714C42.3181 37.4185 42.5183 37.6193 42.7646 37.6193H47.7915C48.0378 37.6193 48.238 37.4185 48.238 37.1714Z" fill="#4C423D"/>
<path d="M45.4684 36.4082C45.8121 36.4082 46.0911 36.6875 46.0911 37.0329C46.0911 37.3783 45.8127 37.6577 45.4684 37.6577C45.1241 37.6577 44.8457 37.3777 44.8457 37.0329C44.8457 36.6881 45.1247 36.4082 45.4684 36.4082Z" fill="#4C423D"/>
<path d="M48.2966 26.2129H42.3767C42.1925 26.2129 42.043 26.3629 42.043 26.5477C42.043 26.7325 42.1925 26.8825 42.3767 26.8825H48.2966C48.4808 26.8825 48.6303 26.7325 48.6303 26.5477C48.6303 26.3629 48.4808 26.2129 48.2966 26.2129Z" fill="#4C423D"/>
<path d="M48.2353 36.0938H42.0794C41.8879 36.0938 41.7324 36.2337 41.7324 36.4061C41.7324 36.5785 41.8879 36.7185 42.0794 36.7185H48.2353C48.4268 36.7185 48.5823 36.5785 48.5823 36.4061C48.5823 36.2337 48.4268 36.0938 48.2353 36.0938Z" fill="#4C423D"/>
</g>
<path d="M33.1027 64.8988C50.7786 64.8988 65.1078 50.5696 65.1078 32.8937C65.1078 15.2178 50.7786 0.888672 33.1027 0.888672C15.4268 0.888672 1.09766 15.2178 1.09766 32.8937C1.09766 50.5696 15.4268 64.8988 33.1027 64.8988Z" stroke="#221A15" stroke-width="0.75" stroke-linecap="round" stroke-linejoin="round"/>
<g filter="url(#filter0_d_11089_247813)">
<mask id="path-27-outside-1_11089_247813" maskUnits="userSpaceOnUse" x="0.625" y="1.60547" width="22" height="16" fill="black">
<rect fill="white" x="0.625" y="1.60547" width="22" height="16"/>
<path d="M6.25133 16.8055C5.10466 16.8055 4.13133 16.5055 3.33133 15.9055C2.54466 15.2921 1.94466 14.4455 1.53133 13.3655C1.11799 12.2721 0.911328 11.0188 0.911328 9.60547C0.911328 8.1788 1.11799 6.92547 1.53133 5.84547C1.94466 4.76547 2.54466 3.92547 3.33133 3.32547C4.13133 2.71213 5.10466 2.40547 6.25133 2.40547C7.39799 2.40547 8.36466 2.71213 9.15133 3.32547C9.95133 3.92547 10.558 4.76547 10.9713 5.84547C11.3847 6.92547 11.5913 8.1788 11.5913 9.60547C11.5913 11.0188 11.3847 12.2721 10.9713 13.3655C10.558 14.4455 9.95133 15.2921 9.15133 15.9055C8.36466 16.5055 7.39799 16.8055 6.25133 16.8055ZM6.25133 14.4055C6.81133 14.4055 7.29133 14.2321 7.69133 13.8855C8.10466 13.5255 8.42466 12.9921 8.65133 12.2855C8.878 11.5655 8.99133 10.6721 8.99133 9.60547C8.99133 8.52547 8.878 7.63213 8.65133 6.92547C8.42466 6.2188 8.10466 5.69214 7.69133 5.34547C7.29133 4.98547 6.81133 4.80547 6.25133 4.80547C5.70466 4.80547 5.22466 4.98547 4.81133 5.34547C4.398 5.69214 4.07799 6.2188 3.85133 6.92547C3.62466 7.63213 3.51133 8.52547 3.51133 9.60547C3.51133 10.6721 3.62466 11.5655 3.85133 12.2855C4.07799 12.9921 4.398 13.5255 4.81133 13.8855C5.22466 14.2321 5.70466 14.4055 6.25133 14.4055ZM14.6365 13.7855C14.7565 13.7855 14.8832 13.8055 15.0165 13.8455C15.1632 13.8855 15.3232 13.9655 15.4965 14.0855C15.7232 14.2588 15.9898 14.4121 16.2965 14.5455C16.6165 14.6788 16.9832 14.7455 17.3965 14.7455C17.8098 14.7455 18.1965 14.6455 18.5565 14.4455C18.9298 14.2321 19.2365 13.9388 19.4765 13.5655C19.7165 13.1788 19.8365 12.7188 19.8365 12.1855C19.8365 11.6788 19.7298 11.2588 19.5165 10.9255C19.3165 10.5921 19.0432 10.3388 18.6965 10.1655C18.3632 9.99214 18.0032 9.90547 17.6165 9.90547C17.3232 9.90547 17.0765 9.93214 16.8765 9.98547C16.6898 10.0388 16.5032 10.0988 16.3165 10.1655C16.1432 10.2188 15.9365 10.2455 15.6965 10.2455C15.3898 10.2455 15.1498 10.1388 14.9765 9.92547C14.8165 9.71213 14.7365 9.4588 14.7365 9.16547C14.7365 8.9788 14.7698 8.81214 14.8365 8.66547C14.9165 8.5188 15.0298 8.3588 15.1765 8.18547L18.6965 4.44547L19.2365 4.90547H14.3165C13.9965 4.90547 13.7298 4.7988 13.5165 4.58547C13.3032 4.37213 13.1965 4.10547 13.1965 3.78547C13.1965 3.4788 13.3032 3.22547 13.5165 3.02547C13.7298 2.81213 13.9965 2.70547 14.3165 2.70547H20.4365C20.8498 2.70547 21.1565 2.8188 21.3565 3.04547C21.5698 3.27214 21.6765 3.5588 21.6765 3.90547C21.6765 4.0788 21.6298 4.25213 21.5365 4.42547C21.4432 4.58547 21.3298 4.73214 21.1965 4.86547L17.6565 8.66547L17.1165 7.98547C17.2632 7.9188 17.4632 7.8588 17.7165 7.80547C17.9832 7.75213 18.2032 7.72547 18.3765 7.72547C19.1632 7.72547 19.8432 7.93213 20.4165 8.34547C21.0032 8.74547 21.4498 9.27214 21.7565 9.92547C22.0765 10.5655 22.2365 11.2588 22.2365 12.0055C22.2365 12.9921 22.0165 13.8455 21.5765 14.5655C21.1365 15.2855 20.5165 15.8388 19.7165 16.2255C18.9165 16.6121 17.9832 16.8055 16.9165 16.8055C16.4232 16.8055 15.9365 16.7455 15.4565 16.6255C14.9765 16.5055 14.5632 16.3455 14.2165 16.1455C13.9232 15.9855 13.7232 15.8121 13.6165 15.6255C13.5232 15.4255 13.4765 15.2388 13.4765 15.0655C13.4765 14.7588 13.5832 14.4721 13.7965 14.2055C14.0232 13.9255 14.3032 13.7855 14.6365 13.7855Z"/>
</mask>
<path d="M6.25133 16.8055C5.10466 16.8055 4.13133 16.5055 3.33133 15.9055C2.54466 15.2921 1.94466 14.4455 1.53133 13.3655C1.11799 12.2721 0.911328 11.0188 0.911328 9.60547C0.911328 8.1788 1.11799 6.92547 1.53133 5.84547C1.94466 4.76547 2.54466 3.92547 3.33133 3.32547C4.13133 2.71213 5.10466 2.40547 6.25133 2.40547C7.39799 2.40547 8.36466 2.71213 9.15133 3.32547C9.95133 3.92547 10.558 4.76547 10.9713 5.84547C11.3847 6.92547 11.5913 8.1788 11.5913 9.60547C11.5913 11.0188 11.3847 12.2721 10.9713 13.3655C10.558 14.4455 9.95133 15.2921 9.15133 15.9055C8.36466 16.5055 7.39799 16.8055 6.25133 16.8055ZM6.25133 14.4055C6.81133 14.4055 7.29133 14.2321 7.69133 13.8855C8.10466 13.5255 8.42466 12.9921 8.65133 12.2855C8.878 11.5655 8.99133 10.6721 8.99133 9.60547C8.99133 8.52547 8.878 7.63213 8.65133 6.92547C8.42466 6.2188 8.10466 5.69214 7.69133 5.34547C7.29133 4.98547 6.81133 4.80547 6.25133 4.80547C5.70466 4.80547 5.22466 4.98547 4.81133 5.34547C4.398 5.69214 4.07799 6.2188 3.85133 6.92547C3.62466 7.63213 3.51133 8.52547 3.51133 9.60547C3.51133 10.6721 3.62466 11.5655 3.85133 12.2855C4.07799 12.9921 4.398 13.5255 4.81133 13.8855C5.22466 14.2321 5.70466 14.4055 6.25133 14.4055ZM14.6365 13.7855C14.7565 13.7855 14.8832 13.8055 15.0165 13.8455C15.1632 13.8855 15.3232 13.9655 15.4965 14.0855C15.7232 14.2588 15.9898 14.4121 16.2965 14.5455C16.6165 14.6788 16.9832 14.7455 17.3965 14.7455C17.8098 14.7455 18.1965 14.6455 18.5565 14.4455C18.9298 14.2321 19.2365 13.9388 19.4765 13.5655C19.7165 13.1788 19.8365 12.7188 19.8365 12.1855C19.8365 11.6788 19.7298 11.2588 19.5165 10.9255C19.3165 10.5921 19.0432 10.3388 18.6965 10.1655C18.3632 9.99214 18.0032 9.90547 17.6165 9.90547C17.3232 9.90547 17.0765 9.93214 16.8765 9.98547C16.6898 10.0388 16.5032 10.0988 16.3165 10.1655C16.1432 10.2188 15.9365 10.2455 15.6965 10.2455C15.3898 10.2455 15.1498 10.1388 14.9765 9.92547C14.8165 9.71213 14.7365 9.4588 14.7365 9.16547C14.7365 8.9788 14.7698 8.81214 14.8365 8.66547C14.9165 8.5188 15.0298 8.3588 15.1765 8.18547L18.6965 4.44547L19.2365 4.90547H14.3165C13.9965 4.90547 13.7298 4.7988 13.5165 4.58547C13.3032 4.37213 13.1965 4.10547 13.1965 3.78547C13.1965 3.4788 13.3032 3.22547 13.5165 3.02547C13.7298 2.81213 13.9965 2.70547 14.3165 2.70547H20.4365C20.8498 2.70547 21.1565 2.8188 21.3565 3.04547C21.5698 3.27214 21.6765 3.5588 21.6765 3.90547C21.6765 4.0788 21.6298 4.25213 21.5365 4.42547C21.4432 4.58547 21.3298 4.73214 21.1965 4.86547L17.6565 8.66547L17.1165 7.98547C17.2632 7.9188 17.4632 7.8588 17.7165 7.80547C17.9832 7.75213 18.2032 7.72547 18.3765 7.72547C19.1632 7.72547 19.8432 7.93213 20.4165 8.34547C21.0032 8.74547 21.4498 9.27214 21.7565 9.92547C22.0765 10.5655 22.2365 11.2588 22.2365 12.0055C22.2365 12.9921 22.0165 13.8455 21.5765 14.5655C21.1365 15.2855 20.5165 15.8388 19.7165 16.2255C18.9165 16.6121 17.9832 16.8055 16.9165 16.8055C16.4232 16.8055 15.9365 16.7455 15.4565 16.6255C14.9765 16.5055 14.5632 16.3455 14.2165 16.1455C13.9232 15.9855 13.7232 15.8121 13.6165 15.6255C13.5232 15.4255 13.4765 15.2388 13.4765 15.0655C13.4765 14.7588 13.5832 14.4721 13.7965 14.2055C14.0232 13.9255 14.3032 13.7855 14.6365 13.7855Z" fill="url(#paint1_linear_11089_247813)"/>
<path d="M6.25133 16.8055C5.10466 16.8055 4.13133 16.5055 3.33133 15.9055C2.54466 15.2921 1.94466 14.4455 1.53133 13.3655C1.11799 12.2721 0.911328 11.0188 0.911328 9.60547C0.911328 8.1788 1.11799 6.92547 1.53133 5.84547C1.94466 4.76547 2.54466 3.92547 3.33133 3.32547C4.13133 2.71213 5.10466 2.40547 6.25133 2.40547C7.39799 2.40547 8.36466 2.71213 9.15133 3.32547C9.95133 3.92547 10.558 4.76547 10.9713 5.84547C11.3847 6.92547 11.5913 8.1788 11.5913 9.60547C11.5913 11.0188 11.3847 12.2721 10.9713 13.3655C10.558 14.4455 9.95133 15.2921 9.15133 15.9055C8.36466 16.5055 7.39799 16.8055 6.25133 16.8055ZM6.25133 14.4055C6.81133 14.4055 7.29133 14.2321 7.69133 13.8855C8.10466 13.5255 8.42466 12.9921 8.65133 12.2855C8.878 11.5655 8.99133 10.6721 8.99133 9.60547C8.99133 8.52547 8.878 7.63213 8.65133 6.92547C8.42466 6.2188 8.10466 5.69214 7.69133 5.34547C7.29133 4.98547 6.81133 4.80547 6.25133 4.80547C5.70466 4.80547 5.22466 4.98547 4.81133 5.34547C4.398 5.69214 4.07799 6.2188 3.85133 6.92547C3.62466 7.63213 3.51133 8.52547 3.51133 9.60547C3.51133 10.6721 3.62466 11.5655 3.85133 12.2855C4.07799 12.9921 4.398 13.5255 4.81133 13.8855C5.22466 14.2321 5.70466 14.4055 6.25133 14.4055ZM14.6365 13.7855C14.7565 13.7855 14.8832 13.8055 15.0165 13.8455C15.1632 13.8855 15.3232 13.9655 15.4965 14.0855C15.7232 14.2588 15.9898 14.4121 16.2965 14.5455C16.6165 14.6788 16.9832 14.7455 17.3965 14.7455C17.8098 14.7455 18.1965 14.6455 18.5565 14.4455C18.9298 14.2321 19.2365 13.9388 19.4765 13.5655C19.7165 13.1788 19.8365 12.7188 19.8365 12.1855C19.8365 11.6788 19.7298 11.2588 19.5165 10.9255C19.3165 10.5921 19.0432 10.3388 18.6965 10.1655C18.3632 9.99214 18.0032 9.90547 17.6165 9.90547C17.3232 9.90547 17.0765 9.93214 16.8765 9.98547C16.6898 10.0388 16.5032 10.0988 16.3165 10.1655C16.1432 10.2188 15.9365 10.2455 15.6965 10.2455C15.3898 10.2455 15.1498 10.1388 14.9765 9.92547C14.8165 9.71213 14.7365 9.4588 14.7365 9.16547C14.7365 8.9788 14.7698 8.81214 14.8365 8.66547C14.9165 8.5188 15.0298 8.3588 15.1765 8.18547L18.6965 4.44547L19.2365 4.90547H14.3165C13.9965 4.90547 13.7298 4.7988 13.5165 4.58547C13.3032 4.37213 13.1965 4.10547 13.1965 3.78547C13.1965 3.4788 13.3032 3.22547 13.5165 3.02547C13.7298 2.81213 13.9965 2.70547 14.3165 2.70547H20.4365C20.8498 2.70547 21.1565 2.8188 21.3565 3.04547C21.5698 3.27214 21.6765 3.5588 21.6765 3.90547C21.6765 4.0788 21.6298 4.25213 21.5365 4.42547C21.4432 4.58547 21.3298 4.73214 21.1965 4.86547L17.6565 8.66547L17.1165 7.98547C17.2632 7.9188 17.4632 7.8588 17.7165 7.80547C17.9832 7.75213 18.2032 7.72547 18.3765 7.72547C19.1632 7.72547 19.8432 7.93213 20.4165 8.34547C21.0032 8.74547 21.4498 9.27214 21.7565 9.92547C22.0765 10.5655 22.2365 11.2588 22.2365 12.0055C22.2365 12.9921 22.0165 13.8455 21.5765 14.5655C21.1365 15.2855 20.5165 15.8388 19.7165 16.2255C18.9165 16.6121 17.9832 16.8055 16.9165 16.8055C16.4232 16.8055 15.9365 16.7455 15.4565 16.6255C14.9765 16.5055 14.5632 16.3455 14.2165 16.1455C13.9232 15.9855 13.7232 15.8121 13.6165 15.6255C13.5232 15.4255 13.4765 15.2388 13.4765 15.0655C13.4765 14.7588 13.5832 14.4721 13.7965 14.2055C14.0232 13.9255 14.3032 13.7855 14.6365 13.7855Z" fill="url(#paint2_linear_11089_247813)"/>
<path d="M3.33133 15.9055L3.21602 16.0534L3.21883 16.0555L3.33133 15.9055ZM1.53133 13.3655L1.35594 13.4318L1.35621 13.4325L1.53133 13.3655ZM1.53133 5.84547L1.35621 5.77845L1.53133 5.84547ZM3.33133 3.32547L3.44504 3.47455L3.44541 3.47427L3.33133 3.32547ZM9.15133 3.32547L9.03602 3.47336L9.03883 3.47547L9.15133 3.32547ZM10.9713 5.84547L11.1464 5.77845L10.9713 5.84547ZM10.9713 13.3655L11.1464 13.4325L11.1467 13.4318L10.9713 13.3655ZM9.15133 15.9055L9.26504 16.0546L9.26541 16.0543L9.15133 15.9055ZM7.69133 13.8855L7.81413 14.0272L7.81448 14.0269L7.69133 13.8855ZM8.65133 12.2855L8.82987 12.3427L8.83018 12.3418L8.65133 12.2855ZM8.65133 6.92547L8.47279 6.98274L8.65133 6.92547ZM7.69133 5.34547L7.56582 5.48492L7.57084 5.48913L7.69133 5.34547ZM4.81133 5.34547L4.93184 5.48915L4.93447 5.48686L4.81133 5.34547ZM3.85133 6.92547L3.67279 6.8682L3.85133 6.92547ZM3.85133 12.2855L3.67248 12.3418L3.67279 12.3427L3.85133 12.2855ZM4.81133 13.8855L4.68816 14.0269L4.69084 14.0291L4.81133 13.8855ZM6.25133 16.618C5.13903 16.618 4.20674 16.3277 3.44383 15.7555L3.21883 16.0555C4.05592 16.6833 5.0703 16.993 6.25133 16.993V16.618ZM3.44662 15.7576C2.69093 15.1684 2.10954 14.3517 1.70644 13.2984L1.35621 13.4325C1.77978 14.5392 2.39839 15.4158 3.21604 16.0533L3.44662 15.7576ZM1.70671 13.2992C1.30287 12.2309 1.09883 11.0008 1.09883 9.60547H0.723828C0.723828 11.0368 0.933119 12.3133 1.35594 13.4318L1.70671 13.2992ZM1.09883 9.60547C1.09883 8.19654 1.30296 6.96674 1.70644 5.91249L1.35621 5.77845C0.933028 6.8842 0.723828 8.16107 0.723828 9.60547H1.09883ZM1.70644 5.91249C2.10946 4.85944 2.69046 4.05008 3.44504 3.47455L3.21762 3.17638C2.39887 3.80085 1.77986 4.6715 1.35621 5.77845L1.70644 5.91249ZM3.44541 3.47427C4.20825 2.88942 5.13997 2.59297 6.25133 2.59297V2.21797C5.06936 2.21797 4.05441 2.53485 3.21725 3.17667L3.44541 3.47427ZM6.25133 2.59297C7.36276 2.59297 8.28713 2.88944 9.03604 3.47334L9.26662 3.1776C8.4422 2.53483 7.43323 2.21797 6.25133 2.21797V2.59297ZM9.03883 3.47547C9.80636 4.05111 10.3935 4.86023 10.7962 5.91249L11.1464 5.77845C10.7225 4.67071 10.0963 3.79982 9.26383 3.17547L9.03883 3.47547ZM10.7962 5.91249C11.1997 6.96674 11.4038 8.19654 11.4038 9.60547H11.7788C11.7788 8.16107 11.5696 6.8842 11.1464 5.77845L10.7962 5.91249ZM11.4038 9.60547C11.4038 11.0008 11.1998 12.2309 10.7959 13.2992L11.1467 13.4318C11.5695 12.3133 11.7788 11.0368 11.7788 9.60547H11.4038ZM10.7962 13.2984C10.3934 14.3509 9.80588 15.1674 9.03725 15.7567L9.26541 16.0543C10.0968 15.4169 10.7226 14.54 11.1464 13.4325L10.7962 13.2984ZM9.03762 15.7564C8.28865 16.3276 7.36371 16.618 6.25133 16.618V16.993C7.43228 16.993 8.44067 16.6833 9.26504 16.0546L9.03762 15.7564ZM6.25133 14.593C6.8536 14.593 7.37795 14.4052 7.81413 14.0272L7.56853 13.7438C7.20471 14.0591 6.76906 14.218 6.25133 14.218V14.593ZM7.81448 14.0269C8.26118 13.6378 8.59633 13.0708 8.82987 12.3427L8.47279 12.2282C8.253 12.9134 7.94814 13.4131 7.56818 13.7441L7.81448 14.0269ZM8.83018 12.3418C9.0644 11.5978 9.17883 10.684 9.17883 9.60547H8.80383C8.80383 10.6603 8.69159 11.5332 8.47248 12.2292L8.83018 12.3418ZM9.17883 9.60547C9.17883 8.51405 9.06451 7.59972 8.82987 6.8682L8.47279 6.98274C8.69148 7.66455 8.80383 8.53689 8.80383 9.60547H9.17883ZM8.82987 6.8682C8.59631 6.14004 8.26065 5.57825 7.81182 5.20181L7.57084 5.48913C7.94868 5.80603 8.25302 6.29757 8.47279 6.98274L8.82987 6.8682ZM7.81676 5.2061C7.38082 4.81376 6.85558 4.61797 6.25133 4.61797V4.99297C6.76707 4.99297 7.20183 5.15718 7.5659 5.48484L7.81676 5.2061ZM6.25133 4.61797C5.65926 4.61797 5.13555 4.81443 4.68818 5.20408L4.93447 5.48686C5.31377 5.1565 5.75006 4.99297 6.25133 4.99297V4.61797ZM4.69084 5.20181C4.24201 5.57825 3.90635 6.14004 3.67279 6.8682L4.02987 6.98274C4.24964 6.29757 4.55398 5.80603 4.93182 5.48913L4.69084 5.20181ZM3.67279 6.8682C3.43815 7.59972 3.32383 8.51405 3.32383 9.60547H3.69883C3.69883 8.53689 3.81117 7.66455 4.02987 6.98274L3.67279 6.8682ZM3.32383 9.60547C3.32383 10.684 3.43825 11.5978 3.67248 12.3418L4.03018 12.2292C3.81107 11.5332 3.69883 10.6603 3.69883 9.60547H3.32383ZM3.67279 12.3427C3.90633 13.0708 4.24147 13.6378 4.68818 14.0269L4.93447 13.7441C4.55452 13.4131 4.24966 12.9134 4.02987 12.2282L3.67279 12.3427ZM4.69084 14.0291C5.13843 14.4045 5.66124 14.593 6.25133 14.593V14.218C5.74808 14.218 5.3109 14.0597 4.93182 13.7418L4.69084 14.0291ZM15.0165 13.8455L14.9626 14.0251L14.9671 14.0264L15.0165 13.8455ZM15.4965 14.0855L15.6105 13.9364L15.6032 13.9313L15.4965 14.0855ZM16.2965 14.5455L16.2217 14.7174L16.2244 14.7185L16.2965 14.5455ZM18.5565 14.4455L18.6475 14.6094L18.6495 14.6083L18.5565 14.4455ZM19.4765 13.5655L19.6342 13.6669L19.6358 13.6643L19.4765 13.5655ZM19.5165 10.9255L19.3556 11.022L19.3586 11.0265L19.5165 10.9255ZM18.6965 10.1655L18.61 10.3318L18.6126 10.3332L18.6965 10.1655ZM16.8765 9.98547L16.8282 9.80427L16.825 9.80518L16.8765 9.98547ZM16.3165 10.1655L16.3717 10.3449L16.3795 10.342L16.3165 10.1655ZM14.9765 9.92547L14.8264 10.0381L14.831 10.0437L14.9765 9.92547ZM14.8365 8.66547L14.6714 8.57545L14.6658 8.58788L14.8365 8.66547ZM15.1765 8.18547L15.0398 8.05678L15.0333 8.06435L15.1765 8.18547ZM18.6965 4.44547L18.8181 4.30273L18.6822 4.18703L18.5599 4.31696L18.6965 4.44547ZM19.2365 4.90547V5.09297H19.7457L19.3581 4.76273L19.2365 4.90547ZM13.5165 4.58547L13.3839 4.71805L13.5165 4.58547ZM13.5165 3.02547L13.6448 3.16233L13.6491 3.15805L13.5165 3.02547ZM21.3565 3.04547L21.2158 3.16959L21.2199 3.17397L21.3565 3.04547ZM21.5365 4.42547L21.6985 4.52L21.7016 4.51436L21.5365 4.42547ZM21.1965 4.86547L21.0638 4.7328L21.0593 4.73766L21.1965 4.86547ZM17.6565 8.66547L17.5097 8.78207L17.6452 8.95271L17.7937 8.79327L17.6565 8.66547ZM17.1165 7.98547L17.0389 7.81477L16.8204 7.9141L16.9697 8.10207L17.1165 7.98547ZM17.7165 7.80547L17.6797 7.6216L17.6779 7.62199L17.7165 7.80547ZM20.4165 8.34547L20.3068 8.49762L20.3109 8.50039L20.4165 8.34547ZM21.7565 9.92547L21.5867 10.0052L21.5888 10.0093L21.7565 9.92547ZM21.5765 14.5655L21.4165 14.4677L21.5765 14.5655ZM19.7165 16.2255L19.6349 16.0567L19.7165 16.2255ZM15.4565 16.6255L15.502 16.4436L15.4565 16.6255ZM14.2165 16.1455L14.3102 15.983L14.3063 15.9809L14.2165 16.1455ZM13.6165 15.6255L13.4466 15.7048L13.4498 15.7118L13.4537 15.7185L13.6165 15.6255ZM13.7965 14.2055L13.6507 14.0875L13.6501 14.0883L13.7965 14.2055ZM14.6365 13.973C14.7356 13.973 14.844 13.9895 14.9626 14.0251L15.0704 13.6659C14.9223 13.6215 14.7774 13.598 14.6365 13.598V13.973ZM14.9671 14.0264C15.0871 14.0591 15.2276 14.1274 15.3898 14.2396L15.6032 13.9313C15.4187 13.8035 15.2392 13.7119 15.0658 13.6646L14.9671 14.0264ZM15.3826 14.2344C15.6232 14.4184 15.9034 14.579 16.2217 14.7174L16.3712 14.3735C16.0762 14.2452 15.8231 14.0992 15.6104 13.9365L15.3826 14.2344ZM16.2244 14.7185C16.5712 14.863 16.9631 14.933 17.3965 14.933V14.558C17.0032 14.558 16.6618 14.4946 16.3686 14.3724L16.2244 14.7185ZM17.3965 14.933C17.8416 14.933 18.2596 14.8249 18.6475 14.6094L18.4654 14.2816C18.1334 14.466 17.7781 14.558 17.3965 14.558V14.933ZM18.6495 14.6083C19.0499 14.3795 19.3784 14.0647 19.6342 13.6669L19.3188 13.4641C19.0945 13.8129 18.8097 14.0848 18.4635 14.2827L18.6495 14.6083ZM19.6358 13.6643C19.8972 13.2432 20.024 12.7476 20.024 12.1855H19.649C19.649 12.69 19.5358 13.1144 19.3172 13.4666L19.6358 13.6643ZM20.024 12.1855C20.024 11.6529 19.9118 11.1953 19.6744 10.8244L19.3586 11.0265C19.5478 11.3223 19.649 11.7047 19.649 12.1855H20.024ZM19.6773 10.829C19.459 10.4652 19.159 10.1871 18.7803 9.99776L18.6126 10.3332C18.9273 10.4905 19.174 10.7191 19.3557 11.0219L19.6773 10.829ZM18.783 9.99911C18.4221 9.81147 18.0324 9.71797 17.6165 9.71797V10.093C17.9739 10.093 18.3042 10.1728 18.61 10.3318L18.783 9.99911ZM17.6165 9.71797C17.313 9.71797 17.049 9.74542 16.8282 9.8043L16.9248 10.1666C17.104 10.1188 17.3333 10.093 17.6165 10.093V9.71797ZM16.825 9.80518C16.6343 9.85965 16.4438 9.92089 16.2534 9.98889L16.3795 10.342C16.5625 10.2767 16.7453 10.218 16.928 10.1658L16.825 9.80518ZM16.2613 9.98626C16.1106 10.0326 15.9235 10.058 15.6965 10.058V10.433C15.9495 10.433 16.1757 10.405 16.3716 10.3447L16.2613 9.98626ZM15.6965 10.058C15.4389 10.058 15.2553 9.97131 15.122 9.80723L14.831 10.0437C15.0443 10.3063 15.3408 10.433 15.6965 10.433V10.058ZM15.1265 9.81297C14.9933 9.63536 14.924 9.42251 14.924 9.16547H14.549C14.549 9.49509 14.6397 9.78891 14.8265 10.038L15.1265 9.81297ZM14.924 9.16547C14.924 9.00135 14.9532 8.86179 15.0072 8.74306L14.6658 8.58788C14.5864 8.76248 14.549 8.95626 14.549 9.16547H14.924ZM15.0011 8.75525C15.0733 8.62289 15.1784 8.47342 15.3196 8.30658L15.0333 8.06435C14.8812 8.24418 14.7597 8.41472 14.6719 8.57568L15.0011 8.75525ZM15.313 8.31397L18.833 4.57397L18.5599 4.31696L15.0399 8.05696L15.313 8.31397ZM18.5749 4.5882L19.1149 5.0482L19.3581 4.76273L18.8181 4.30273L18.5749 4.5882ZM19.2365 4.71797H14.3165V5.09297H19.2365V4.71797ZM14.3165 4.71797C14.0429 4.71797 13.8249 4.62876 13.6491 4.45289L13.3839 4.71805C13.6347 4.96885 13.9501 5.09297 14.3165 5.09297V4.71797ZM13.6491 4.45289C13.4732 4.27701 13.384 4.05909 13.384 3.78547H13.009C13.009 4.15185 13.1331 4.46726 13.3839 4.71805L13.6491 4.45289ZM13.384 3.78547C13.384 3.52779 13.4712 3.32491 13.6447 3.16226L13.3882 2.88868C13.1351 3.12602 13.009 3.42981 13.009 3.78547H13.384ZM13.6491 3.15805C13.8249 2.98218 14.0429 2.89297 14.3165 2.89297V2.51797C13.9501 2.51797 13.6347 2.64209 13.3839 2.89289L13.6491 3.15805ZM14.3165 2.89297H20.4365V2.51797H14.3165V2.89297ZM20.4365 2.89297C20.8167 2.89297 21.0632 2.99645 21.2159 3.16952L21.4971 2.92141C21.2498 2.64116 20.883 2.51797 20.4365 2.51797V2.89297ZM21.2199 3.17397C21.3967 3.36179 21.489 3.60067 21.489 3.90547H21.864C21.864 3.51693 21.7429 3.18248 21.493 2.91696L21.2199 3.17397ZM21.489 3.90547C21.489 4.04377 21.452 4.18681 21.3714 4.33657L21.7016 4.51436C21.8076 4.31746 21.864 4.11383 21.864 3.90547H21.489ZM21.3745 4.33099C21.2895 4.47683 21.1861 4.61073 21.0639 4.73289L21.3291 4.99805C21.4736 4.85354 21.5968 4.69411 21.6984 4.51994L21.3745 4.33099ZM21.0593 4.73766L17.5193 8.53766L17.7937 8.79327L21.3337 4.99327L21.0593 4.73766ZM17.8033 8.54887L17.2633 7.86887L16.9697 8.10207L17.5097 8.78207L17.8033 8.54887ZM17.1941 8.15616C17.3231 8.09752 17.5082 8.04094 17.7551 7.98895L17.6779 7.62199C17.4181 7.67667 17.2032 7.74008 17.0389 7.81477L17.1941 8.15616ZM17.7533 7.98933C18.0138 7.93722 18.2204 7.91297 18.3765 7.91297V7.53797C18.1859 7.53797 17.9525 7.56705 17.6797 7.62161L17.7533 7.98933ZM18.3765 7.91297C19.1284 7.91297 19.769 8.10983 20.3068 8.49756L20.5261 8.19337C19.9173 7.75444 19.1979 7.53797 18.3765 7.53797V7.91297ZM20.3109 8.50039C20.8693 8.88117 21.2941 9.38165 21.5868 10.0051L21.9262 9.8458C21.6055 9.16262 21.137 8.60977 20.5221 8.19055L20.3109 8.50039ZM21.5888 10.0093C21.8952 10.6221 22.049 11.2866 22.049 12.0055H22.424C22.424 11.231 22.2578 10.5088 21.9242 9.84162L21.5888 10.0093ZM22.049 12.0055C22.049 12.9636 21.8356 13.7818 21.4165 14.4677L21.7365 14.6632C22.1973 13.9091 22.424 13.0207 22.424 12.0055H22.049ZM21.4165 14.4677C20.9963 15.1553 20.4043 15.6848 19.6349 16.0567L19.7981 16.3943C20.6287 15.9928 21.2767 15.4156 21.7365 14.6632L21.4165 14.4677ZM19.6349 16.0567C18.8649 16.4288 17.9605 16.618 16.9165 16.618V16.993C18.0058 16.993 18.968 16.7955 19.7981 16.3943L19.6349 16.0567ZM16.9165 16.618C16.4385 16.618 15.9671 16.5599 15.502 16.4436L15.411 16.8074C15.9058 16.9311 16.4078 16.993 16.9165 16.993V16.618ZM15.502 16.4436C15.035 16.3268 14.6387 16.1726 14.3102 15.9831L14.1228 16.3079C14.4876 16.5184 14.9179 16.6841 15.411 16.8074L15.502 16.4436ZM14.3063 15.9809C14.0279 15.829 13.8617 15.6766 13.7793 15.5324L13.4537 15.7185C13.5846 15.9477 13.8184 16.1419 14.1267 16.3101L14.3063 15.9809ZM13.7864 15.5462C13.7016 15.3644 13.664 15.205 13.664 15.0655H13.289C13.289 15.2726 13.3447 15.4865 13.4466 15.7048L13.7864 15.5462ZM13.664 15.0655C13.664 14.8062 13.753 14.56 13.9429 14.3226L13.6501 14.0883C13.4133 14.3842 13.289 14.7114 13.289 15.0655H13.664ZM13.9422 14.3234C14.1366 14.0834 14.3648 13.973 14.6365 13.973V13.598C14.2415 13.598 13.9097 13.7676 13.6508 14.0875L13.9422 14.3234Z" fill="#221A15" mask="url(#path-27-outside-1_11089_247813)"/>
</g>
</g>
<defs>
<filter id="filter0_d_11089_247813" x="0.723633" y="2.21777" width="22.4502" height="15.5254" filterUnits="userSpaceOnUse" color-interpolation-filters="sRGB">
<feFlood flood-opacity="0" result="BackgroundImageFix"/>
<feColorMatrix in="SourceAlpha" type="matrix" values="0 0 0 0 0 0 0 0 0 0 0 0 0 0 0 0 0 0 127 0" result="hardAlpha"/>
<feOffset dx="0.75" dy="0.75"/>
<feComposite in2="hardAlpha" operator="out"/>
<feColorMatrix type="matrix" values="0 0 0 0 0.133333 0 0 0 0 0.101961 0 0 0 0 0.0823529 0 0 0 1 0"/>
<feBlend mode="normal" in2="BackgroundImageFix" result="effect1_dropShadow_11089_247813"/>
<feBlend mode="normal" in="SourceGraphic" in2="effect1_dropShadow_11089_247813" result="shape"/>
</filter>
<linearGradient id="paint0_linear_11089_247813" x1="1.03691" y1="-2.2395" x2="65.477" y2="1.80399" gradientUnits="userSpaceOnUse">
<stop stop-color="#FFD7E8"/>
<stop offset="0.5" stop-color="#FFDCD1"/>
<stop offset="1" stop-color="#FFF1A7"/>
</linearGradient>
<linearGradient id="paint1_linear_11089_247813" x1="-0.375" y1="-1.39453" x2="24.8631" y2="0.313774" gradientUnits="userSpaceOnUse">
<stop stop-color="#FFF9EC"/>
<stop offset="0.507029" stop-color="#FFE9B8"/>
<stop offset="1" stop-color="#FFF9EA"/>
</linearGradient>
<linearGradient id="paint2_linear_11089_247813" x1="21.0322" y1="-2.99433" x2="16.6785" y2="21.0919" gradientUnits="userSpaceOnUse">
<stop stop-color="#FFD8E8"/>
<stop offset="0.5" stop-color="#FFCABA"/>
<stop offset="1" stop-color="#FFEF9B"/>
</linearGradient>
<clipPath id="clip0_11089_247813">
<rect width="65" height="65" fill="white" transform="translate(0.5 0.320312)"/>
</clipPath>
<clipPath id="clip1_11089_247813">
<rect width="30.75" height="22.125" fill="white" transform="translate(19.625 16.416)"/>
</clipPath>
<clipPath id="clip2_11089_247813">
<rect width="4.04765" height="4.06078" fill="white" transform="translate(43.2891 29.2227)"/>
</clipPath>
<clipPath id="clip3_11089_247813">
<rect width="9.02938" height="9.05866" fill="white" transform="translate(28.9648 20.7891)"/>
</clipPath>
</defs>
</svg>
