<svg width="194" height="168" viewBox="0 0 194 168" fill="none" xmlns="http://www.w3.org/2000/svg">
<g clip-path="url(#clip0_10944_61295)">
<path d="M179.448 87.7158C180.192 87.9154 180.873 87.2331 180.672 86.4889L158.368 4.00281C158.168 3.26156 157.241 3.01326 156.697 3.55495L96.153 63.8341C95.6068 64.3779 95.8553 65.3092 96.5998 65.5088L120.739 71.9792C121.322 72.1353 121.648 72.7351 121.415 73.2912C111.05 98.0357 77.64 160.009 4.53992 154.642C3.31323 154.552 2.80964 156.615 3.98568 156.975C49.2253 170.84 103.681 175.52 154.136 81.7509C154.356 81.3417 154.838 81.1192 155.287 81.2395L179.448 87.7158Z" fill="url(#paint0_linear_10944_61295)"/>
</g>
<defs>
<linearGradient id="paint0_linear_10944_61295" x1="121.01" y1="-7.55382" x2="71.9784" y2="175.369" gradientUnits="userSpaceOnUse">
<stop stop-color="#FF7575"/>
<stop offset="1" stop-color="#FFE99B"/>
</linearGradient>
<clipPath id="clip0_10944_61295">
<rect width="194" height="168" fill="white"/>
</clipPath>
</defs>
</svg>
