<svg width="47" height="59" viewBox="0 0 47 59" fill="none" xmlns="http://www.w3.org/2000/svg">
<g clip-path="url(#clip0_10944_61304)">
<path d="M10.5 20.5C22.169 24.088 24.78 27.0024 28 40C31.22 27.0024 33.831 24.088 45.5 20.5C33.831 16.912 31.22 13.9976 28 1C24.78 13.9976 22.169 16.912 10.5 20.5Z" fill="#FFE236" stroke="#414141" stroke-width="2" stroke-linecap="round" stroke-linejoin="round"/>
<path d="M1.5 47C8.17 49.02 9.66 50.67 11.5 58C13.34 50.67 14.83 49.02 21.5 47C14.83 44.97 13.34 43.33 11.5 36C9.66 43.33 8.17 44.97 1.5 47Z" fill="#FFE236" stroke="#414141" stroke-width="2" stroke-linecap="round" stroke-linejoin="round"/>
</g>
<defs>
<clipPath id="clip0_10944_61304">
<rect width="46" height="59" fill="white" transform="matrix(-1 0 0 1 46.5 0)"/>
</clipPath>
</defs>
</svg>
