<svg width="158" height="38" viewBox="0 0 158 38" fill="none" xmlns="http://www.w3.org/2000/svg">
<path d="M5.74414 36.3949C4.63957 36.3949 3.74414 35.4995 3.74414 34.3949V20.7501V7.09815C3.74414 5.99358 4.63957 5.09814 5.74414 5.09814H154.295C155.807 5.09814 156.773 6.71221 156.057 8.04462L149.74 19.8034C149.422 20.3946 149.423 21.1056 149.74 21.6967L156.056 33.4481C156.772 34.7805 155.807 36.3949 154.294 36.3949H5.74414Z" fill="#221A15" stroke="#221A15" stroke-width="0.720294" stroke-linecap="round" stroke-linejoin="round"/>
<path d="M2.54102 33.1918C1.43645 33.1918 0.541016 32.2964 0.541016 31.1918V17.547V3.89502C0.541016 2.79045 1.43645 1.89502 2.54102 1.89502H151.092C152.604 1.89502 153.569 3.50909 152.854 4.84149L146.537 16.6003C146.219 17.1915 146.219 17.9025 146.537 18.4936L152.853 30.245C153.569 31.5774 152.604 33.1918 151.091 33.1918H2.54102Z" fill="white" stroke="#221A15" stroke-width="1.08044" stroke-linecap="round" stroke-linejoin="round"/>
<circle cx="3.86287" cy="5.2032" r="0.720294" fill="#221A15"/>
<path d="M8.14062 5.20361H144.972" stroke="#221A15" stroke-width="1.3" stroke-linecap="round" stroke-linejoin="round"/>
<circle cx="148.113" cy="5.2032" r="0.720294" fill="#221A15"/>
<circle cx="148.113" cy="29.8868" r="0.720294" fill="#221A15"/>
<path d="M143.827 29.8872H6.00195" stroke="#221A15" stroke-width="1.3" stroke-linecap="round" stroke-linejoin="round"/>
<circle cx="3.86287" cy="29.8868" r="0.720294" fill="#221A15"/>
<path d="M97.4839 18.0556C93.018 17.9259 88.6099 17.8323 84.2305 17.7603C85.5198 18.0628 86.7731 18.3653 87.8752 18.567C91.2029 19.208 94.3074 18.5382 97.4839 18.0556Z" fill="#FDE7DE"/>
<path d="M118.117 19.3007C118.13 19.3764 118.296 19.6111 118.695 20.0199L117.792 19.9669C117.792 20.8148 118.185 21.6703 118.855 22.3214C119.168 22.1776 119.414 21.9883 119.702 21.7914C119.53 20.5877 118.744 19.7474 118.388 19.4218C118.308 19.3537 118.253 19.3158 118.21 19.2931C118.707 19.278 119.229 19.2553 119.85 19.2401C119.076 19.119 118.468 19.0509 117.841 18.9827C117.22 18.9146 116.624 18.854 116.041 18.801C114.867 18.695 113.719 18.6042 112.582 18.5285C112.183 18.6496 111.796 18.748 111.415 18.8237C112.275 18.9979 113.172 19.119 114.1 19.2023C111.98 19.331 109.848 19.2023 107.907 18.8237C106.967 19.0206 106.125 19.0357 105.431 18.7026C105.271 18.6193 105.112 18.5436 104.952 18.4679C105.714 18.4679 106.482 18.5209 107.268 18.6875C107.477 18.7329 107.692 18.7783 107.907 18.8237C108.183 18.7632 108.472 18.6875 108.767 18.6042L108.933 18.6875C109.621 19.0282 110.469 19.013 111.421 18.8237C111.206 18.7783 110.991 18.7329 110.782 18.6875C109.996 18.5134 109.222 18.4528 108.454 18.4528L108.54 18.4906C107.182 18.4074 105.83 18.3392 104.491 18.2711C101.88 18.1424 99.2938 18.0364 96.7319 17.9456C94.0288 18.4528 91.381 19.1569 88.5427 18.4831C87.6027 18.2787 86.5338 17.9531 85.4341 17.6352C82.4607 17.5746 79.5118 17.5367 76.5568 17.514C75.3158 17.673 74.0564 17.62 72.8154 17.4913C61.1735 17.4383 49.4702 17.6427 37.2263 17.9153C36.5014 17.938 32.8337 18.2862 32.2562 18.7783L31.1504 19.1569L31.1811 19.384L31.2917 20.2243L31.2487 20.618C31.2364 20.7921 31.2303 20.9662 31.2241 21.1404C31.2118 21.6779 31.2794 22.2078 31.4268 22.6924C31.8385 24.1081 33.0549 25.168 34.9901 25.1377C42.7308 25.766 49.0156 25.5541 55.3434 25.2588C57.6595 24.8878 59.9817 24.6683 62.3224 24.7364C61.1428 24.8273 59.9633 24.9787 58.7899 25.168C61.6527 25.0317 64.5217 24.8727 67.5075 24.7516L67.2371 24.7289L69.4119 24.6683C70.5423 24.5547 71.7342 24.5396 72.9321 24.5699C72.9076 24.5699 72.8768 24.5699 72.8523 24.5699C72.926 24.5699 73.0059 24.5699 73.0796 24.5699C73.7431 24.585 74.4066 24.6077 75.0578 24.6304L77.8223 24.6607C78.0865 24.638 79.9173 24.4866 81.3978 24.5472C81.3487 24.5623 81.3057 24.5699 81.2627 24.5774H81.9815C82.3071 24.6153 82.602 24.6607 82.8293 24.7289H83.5788C86.9024 24.7894 90.0908 24.9711 93.1872 25.1452C94.4466 25.0393 95.7244 24.9711 97.0514 25.0468C96.904 25.062 96.7627 25.0695 96.6152 25.0847C97.2603 25.1225 97.8992 25.1604 98.532 25.1982C98.5565 25.1982 98.575 25.1982 98.5996 25.1982C101.217 25.6525 105.007 25.4254 105.087 25.5465C105.493 25.5465 105.904 25.5314 106.31 25.5162C107.035 25.5238 107.753 25.5314 108.472 25.5162C108.429 25.4481 108.405 25.3724 108.405 25.2891C110.684 24.7062 113.037 24.3352 115.439 24.4942C116.09 24.3655 116.741 24.2141 117.38 24.0626C118.523 23.7825 118.928 23.2904 119.113 22.6999C118.934 22.5939 118.744 22.4804 118.572 22.3517C118.455 22.2684 118.339 22.1776 118.234 22.0867C117.485 21.4432 117.085 20.5877 117.055 19.7398L117.945 19.7777C117.786 19.6187 117.638 19.4824 117.521 19.3764C117.485 19.3386 117.448 19.3083 117.417 19.2856C117.442 19.2856 117.466 19.2856 117.497 19.2856C117.706 19.2856 117.915 19.278 118.124 19.2704L118.117 19.3007ZM81.146 23.192C81.1091 23.1087 81.0784 23.0028 81.0538 22.8665C81.3733 22.9876 81.6989 23.0709 82.0183 23.139L82.4545 23.1087C82.602 23.0557 82.7617 23.033 82.9153 23.0785L82.4545 23.1087C82.3931 23.1315 82.3378 23.1542 82.2764 23.1844C81.8094 23.4191 81.3917 23.8204 81.1398 23.192H81.146Z" fill="url(#paint0_linear_10944_62742)" fill-opacity="0.5"/>
<path d="M112.311 24.6523C110.849 24.8036 109.394 25.0629 107.953 25.3726C109.437 25.315 110.914 25.2213 112.369 25.0845C113.802 24.9548 115.293 24.7747 116.496 24.5731C115.286 24.4506 113.751 24.501 112.311 24.6523Z" fill="#FDE7DE"/>
<g filter="url(#filter0_d_10944_62742)">
<path d="M44.6148 24.6922C43.7748 24.6922 43.0188 24.5902 42.3468 24.3862C41.6748 24.1702 41.0328 23.7982 40.4208 23.2702C40.2648 23.1382 40.1448 22.9882 40.0608 22.8202C39.9768 22.6522 39.9348 22.4842 39.9348 22.3162C39.9348 22.0402 40.0308 21.8002 40.2228 21.5962C40.4268 21.3802 40.6788 21.2722 40.9788 21.2722C41.2068 21.2722 41.4108 21.3442 41.5908 21.4882C42.0468 21.8602 42.4968 22.1422 42.9408 22.3342C43.3968 22.5262 43.9548 22.6222 44.6148 22.6222C45.0588 22.6222 45.4668 22.5562 45.8388 22.4242C46.2108 22.2802 46.5108 22.0942 46.7388 21.8662C46.9668 21.6262 47.0808 21.3562 47.0808 21.0562C47.0808 20.6962 46.9728 20.3902 46.7568 20.1382C46.5408 19.8862 46.2108 19.6762 45.7668 19.5082C45.3228 19.3282 44.7588 19.1902 44.0748 19.0942C43.4268 18.9982 42.8568 18.8542 42.3648 18.6622C41.8728 18.4582 41.4588 18.2062 41.1228 17.9062C40.7988 17.5942 40.5528 17.2342 40.3848 16.8262C40.2168 16.4062 40.1328 15.9382 40.1328 15.4222C40.1328 14.6422 40.3308 13.9762 40.7268 13.4242C41.1348 12.8722 41.6808 12.4522 42.3648 12.1642C43.0488 11.8762 43.8048 11.7322 44.6328 11.7322C45.4128 11.7322 46.1328 11.8522 46.7928 12.0922C47.4648 12.3202 48.0108 12.6142 48.4308 12.9742C48.7788 13.2502 48.9528 13.5682 48.9528 13.9282C48.9528 14.1922 48.8508 14.4322 48.6468 14.6482C48.4428 14.8642 48.2028 14.9722 47.9268 14.9722C47.7468 14.9722 47.5848 14.9182 47.4408 14.8102C47.2488 14.6422 46.9908 14.4862 46.6668 14.3422C46.3428 14.1862 46.0008 14.0602 45.6408 13.9642C45.2808 13.8562 44.9448 13.8022 44.6328 13.8022C44.1168 13.8022 43.6788 13.8682 43.3188 14.0002C42.9708 14.1322 42.7068 14.3122 42.5268 14.5402C42.3468 14.7682 42.2568 15.0322 42.2568 15.3322C42.2568 15.6922 42.3588 15.9922 42.5628 16.2322C42.7788 16.4602 43.0848 16.6462 43.4808 16.7902C43.8768 16.9222 44.3508 17.0422 44.9028 17.1502C45.6228 17.2822 46.2528 17.4382 46.7928 17.6182C47.3448 17.7982 47.8008 18.0322 48.1608 18.3202C48.5208 18.5962 48.7908 18.9502 48.9708 19.3822C49.1508 19.8022 49.2408 20.3182 49.2408 20.9302C49.2408 21.7102 49.0248 22.3822 48.5928 22.9462C48.1608 23.5102 47.5908 23.9422 46.8828 24.2422C46.1868 24.5422 45.4308 24.6922 44.6148 24.6922ZM56.4711 24.5122C56.1351 24.5122 55.8591 24.4102 55.6431 24.2062C55.4271 23.9902 55.3191 23.7262 55.3191 23.4142V12.9742H57.6591V23.4142C57.6591 23.7262 57.5451 23.9902 57.3171 24.2062C57.1011 24.4102 56.8191 24.5122 56.4711 24.5122ZM52.4931 13.9822C52.1811 13.9822 51.9171 13.8862 51.7011 13.6942C51.4971 13.5022 51.3951 13.2502 51.3951 12.9382C51.3951 12.6262 51.4971 12.3802 51.7011 12.2002C51.9171 12.0082 52.1811 11.9122 52.4931 11.9122H60.4851C60.7971 11.9122 61.0551 12.0082 61.2591 12.2002C61.4751 12.3922 61.5831 12.6442 61.5831 12.9562C61.5831 13.2682 61.4751 13.5202 61.2591 13.7122C61.0551 13.8922 60.7971 13.9822 60.4851 13.9822H52.4931ZM65.4707 11.9122H71.5007C71.8127 11.9122 72.0707 12.0142 72.2747 12.2182C72.4907 12.4102 72.5987 12.6622 72.5987 12.9742C72.5987 13.2742 72.4907 13.5202 72.2747 13.7122C72.0707 13.8922 71.8127 13.9822 71.5007 13.9822H66.4607L66.6227 13.6762V17.1862L66.4787 17.0422H70.6907C71.0027 17.0422 71.2607 17.1442 71.4647 17.3482C71.6807 17.5402 71.7887 17.7922 71.7887 18.1042C71.7887 18.4042 71.6807 18.6502 71.4647 18.8422C71.2607 19.0222 71.0027 19.1122 70.6907 19.1122H66.5327L66.6227 18.9682V22.6042L66.4787 22.4422H71.5007C71.8127 22.4422 72.0707 22.5502 72.2747 22.7662C72.4907 22.9702 72.5987 23.2102 72.5987 23.4862C72.5987 23.7862 72.4907 24.0322 72.2747 24.2242C72.0707 24.4162 71.8127 24.5122 71.5007 24.5122H65.4707C65.1587 24.5122 64.8947 24.4102 64.6787 24.2062C64.4747 23.9902 64.3727 23.7262 64.3727 23.4142V13.0102C64.3727 12.6982 64.4747 12.4402 64.6787 12.2362C64.8947 12.0202 65.1587 11.9122 65.4707 11.9122ZM80.7754 11.9122C81.3994 11.9122 81.9814 12.0922 82.5214 12.4522C83.0734 12.8122 83.5174 13.2982 83.8534 13.9102C84.1894 14.5222 84.3574 15.2062 84.3574 15.9622C84.3574 16.7062 84.1894 17.3842 83.8534 17.9962C83.5174 18.6082 83.0734 19.1002 82.5214 19.4722C81.9814 19.8322 81.3994 20.0122 80.7754 20.0122H77.4634L77.6434 19.6882V23.4142C77.6434 23.7262 77.5474 23.9902 77.3554 24.2062C77.1634 24.4102 76.9114 24.5122 76.5994 24.5122C76.2994 24.5122 76.0534 24.4102 75.8614 24.2062C75.6694 23.9902 75.5734 23.7262 75.5734 23.4142V13.0102C75.5734 12.6982 75.6754 12.4402 75.8794 12.2362C76.0954 12.0202 76.3594 11.9122 76.6714 11.9122H80.7754ZM80.7754 17.9602C81.0034 17.9602 81.2254 17.8642 81.4414 17.6722C81.6574 17.4802 81.8374 17.2342 81.9814 16.9342C82.1254 16.6222 82.1974 16.2982 82.1974 15.9622C82.1974 15.6142 82.1254 15.2902 81.9814 14.9902C81.8374 14.6902 81.6574 14.4502 81.4414 14.2702C81.2254 14.0782 81.0034 13.9822 80.7754 13.9822H77.4274L77.6434 13.6582V18.2482L77.4454 17.9602H80.7754ZM97.4401 24.6922C96.4081 24.6922 95.5321 24.4222 94.8121 23.8822C94.1041 23.3302 93.5641 22.5682 93.1921 21.5962C92.8201 20.6122 92.6341 19.4842 92.6341 18.2122C92.6341 16.9282 92.8201 15.8002 93.1921 14.8282C93.5641 13.8562 94.1041 13.1002 94.8121 12.5602C95.5321 12.0082 96.4081 11.7322 97.4401 11.7322C98.4721 11.7322 99.3421 12.0082 100.05 12.5602C100.77 13.1002 101.316 13.8562 101.688 14.8282C102.06 15.8002 102.246 16.9282 102.246 18.2122C102.246 19.4842 102.06 20.6122 101.688 21.5962C101.316 22.5682 100.77 23.3302 100.05 23.8822C99.3421 24.4222 98.4721 24.6922 97.4401 24.6922ZM97.4401 22.5322C97.9441 22.5322 98.3761 22.3762 98.7361 22.0642C99.1081 21.7402 99.3961 21.2602 99.6001 20.6242C99.8041 19.9762 99.9061 19.1722 99.9061 18.2122C99.9061 17.2402 99.8041 16.4362 99.6001 15.8002C99.3961 15.1642 99.1081 14.6902 98.7361 14.3782C98.3761 14.0542 97.9441 13.8922 97.4401 13.8922C96.9481 13.8922 96.5161 14.0542 96.1441 14.3782C95.7721 14.6902 95.4841 15.1642 95.2801 15.8002C95.0761 16.4362 94.9741 17.2402 94.9741 18.2122C94.9741 19.1722 95.0761 19.9762 95.2801 20.6242C95.4841 21.2602 95.7721 21.7402 96.1441 22.0642C96.5161 22.3762 96.9481 22.5322 97.4401 22.5322ZM108.155 24.5122C107.819 24.5122 107.543 24.4102 107.327 24.2062C107.111 23.9902 107.003 23.7262 107.003 23.4142V14.3422L107.255 14.7382L105.941 15.7102C105.773 15.8422 105.563 15.9082 105.311 15.9082C105.023 15.9082 104.771 15.8002 104.555 15.5842C104.339 15.3682 104.231 15.1102 104.231 14.8102C104.231 14.4262 104.417 14.1142 104.789 13.8742L107.381 12.1462C107.501 12.0622 107.633 12.0022 107.777 11.9662C107.933 11.9302 108.077 11.9122 108.209 11.9122C108.557 11.9122 108.833 12.0202 109.037 12.2362C109.241 12.4402 109.343 12.6982 109.343 13.0102V23.4142C109.343 23.7262 109.229 23.9902 109.001 24.2062C108.785 24.4102 108.503 24.5122 108.155 24.5122Z" fill="#221A15"/>
</g>
<defs>
<filter id="filter0_d_10944_62742" x="39.9355" y="11.7322" width="69.4062" height="12.96" filterUnits="userSpaceOnUse" color-interpolation-filters="sRGB">
<feFlood flood-opacity="0" result="BackgroundImageFix"/>
<feColorMatrix in="SourceAlpha" type="matrix" values="0 0 0 0 0 0 0 0 0 0 0 0 0 0 0 0 0 0 127 0" result="hardAlpha"/>
<feOffset/>
<feComposite in2="hardAlpha" operator="out"/>
<feColorMatrix type="matrix" values="0 0 0 0 0.133333 0 0 0 0 0.101961 0 0 0 0 0.0823529 0 0 0 1 0"/>
<feBlend mode="normal" in2="BackgroundImageFix" result="effect1_dropShadow_10944_62742"/>
<feBlend mode="normal" in="SourceGraphic" in2="effect1_dropShadow_10944_62742" result="shape"/>
</filter>
<linearGradient id="paint0_linear_10944_62742" x1="31.1504" y1="17.4829" x2="93.1975" y2="56.9865" gradientUnits="userSpaceOnUse">
<stop stop-color="#FF87B2"/>
<stop offset="0.5" stop-color="#FE7E6C"/>
<stop offset="0.953439" stop-color="#FFD600"/>
</linearGradient>
</defs>
</svg>
