<svg width="66" height="171" viewBox="0 0 66 171" fill="none" xmlns="http://www.w3.org/2000/svg">
<g clip-path="url(#clip0_11089_247658)">
<path d="M33.1033 62.1714C48.9134 62.1714 61.73 49.3548 61.73 33.5447C61.73 17.7346 48.9134 4.91797 33.1033 4.91797C17.2932 4.91797 4.47656 17.7346 4.47656 33.5447C4.47656 49.3548 17.2932 62.1714 33.1033 62.1714Z" fill="#F4A0B6"/>
<path d="M33.1033 62.1714C48.9134 62.1714 61.73 49.3548 61.73 33.5447C61.73 17.7346 48.9134 4.91797 33.1033 4.91797C17.2932 4.91797 4.47656 17.7346 4.47656 33.5447C4.47656 49.3548 17.2932 62.1714 33.1033 62.1714Z" fill="url(#paint0_linear_11089_247658)" fill-opacity="0.5"/>
<path d="M21.915 38.3634C21.9083 38.4167 21.8983 38.4934 21.885 38.5934C21.8783 38.6934 21.8683 38.7967 21.855 38.9034C21.8483 39.0034 21.8417 39.0934 21.835 39.1734C21.8217 39.36 21.8083 39.57 21.795 39.8034C21.7883 40.0367 21.7817 40.2834 21.775 40.5434C21.7683 40.8034 21.7617 41.0634 21.755 41.3234C21.755 41.5834 21.755 41.8367 21.755 42.0834C21.755 42.35 21.755 42.6467 21.755 42.9734C21.7617 43.2934 21.7683 43.6134 21.775 43.9334C21.7883 44.2534 21.7983 44.5467 21.805 44.8134C21.8117 45.0734 21.815 45.28 21.815 45.4334C21.815 45.8134 21.7683 46.11 21.675 46.3234C21.5883 46.5367 21.4683 46.6867 21.315 46.7734C21.1617 46.86 20.9817 46.9034 20.775 46.9034C20.5483 46.9034 20.3017 46.8534 20.035 46.7534C19.775 46.66 19.5283 46.53 19.295 46.3634C19.0617 46.1967 18.8683 46.0034 18.715 45.7834C18.5683 45.5567 18.495 45.32 18.495 45.0734C18.495 44.7534 18.615 44.44 18.855 44.1334C19.1017 43.8267 19.4217 43.5434 19.815 43.2834C20.2083 43.0167 20.6283 42.8034 21.075 42.6434C21.5283 42.4767 21.9917 42.3534 22.465 42.2734C22.9383 42.1934 23.365 42.1534 23.745 42.1534C24.2517 42.1534 24.705 42.24 25.105 42.4134C25.5117 42.58 25.835 42.8234 26.075 43.1434C26.315 43.4567 26.435 43.8367 26.435 44.2834C26.435 44.6767 26.3583 45.0334 26.205 45.3534C26.0517 45.6734 25.815 45.9467 25.495 46.1734C25.175 46.4 24.7583 46.5767 24.245 46.7034C24.0183 46.75 23.795 46.7834 23.575 46.8034C23.355 46.8234 23.1483 46.8434 22.955 46.8634L22.545 45.7034C22.7583 45.7034 22.9683 45.7 23.175 45.6934C23.3817 45.6867 23.575 45.6667 23.755 45.6334C24.035 45.58 24.2883 45.4967 24.515 45.3834C24.7483 45.27 24.9317 45.1234 25.065 44.9434C25.205 44.7567 25.275 44.5334 25.275 44.2734C25.275 44.0267 25.2083 43.82 25.075 43.6534C24.9417 43.4867 24.7583 43.36 24.525 43.2734C24.2983 43.18 24.035 43.1334 23.735 43.1334C23.3083 43.1334 22.8817 43.18 22.455 43.2734C22.0283 43.36 21.6117 43.48 21.205 43.6334C20.905 43.7467 20.6317 43.8834 20.385 44.0434C20.145 44.2034 19.955 44.3667 19.815 44.5334C19.675 44.7 19.605 44.8634 19.605 45.0234C19.605 45.11 19.6317 45.1934 19.685 45.2734C19.745 45.3534 19.8183 45.4234 19.905 45.4834C19.9983 45.5434 20.0917 45.5934 20.185 45.6334C20.285 45.6667 20.3717 45.6834 20.445 45.6834C20.5383 45.6834 20.615 45.65 20.675 45.5834C20.735 45.5167 20.765 45.4 20.765 45.2334C20.765 45.0534 20.7617 44.7934 20.755 44.4534C20.7483 44.1134 20.7383 43.74 20.725 43.3334C20.7183 42.92 20.715 42.5167 20.715 42.1234C20.715 41.8367 20.715 41.5467 20.715 41.2534C20.7217 40.9534 20.725 40.6667 20.725 40.3934C20.725 40.12 20.725 39.88 20.725 39.6734C20.7317 39.46 20.735 39.3 20.735 39.1934C20.735 39.12 20.7317 39.03 20.725 38.9234C20.7183 38.8167 20.7117 38.71 20.705 38.6034C20.6983 38.4967 20.6883 38.4167 20.675 38.3634H21.915ZM24.835 39.4534C25.0883 39.5734 25.3683 39.72 25.675 39.8934C25.9817 40.0667 26.275 40.24 26.555 40.4134C26.8417 40.5867 27.0717 40.74 27.245 40.8734L26.695 41.7834C26.575 41.6767 26.415 41.5567 26.215 41.4234C26.015 41.2834 25.7983 41.1467 25.565 41.0134C25.3383 40.8734 25.115 40.7434 24.895 40.6234C24.6817 40.4967 24.4983 40.3934 24.345 40.3134L24.835 39.4534ZM18.745 40.0434C19.0317 40.0767 19.2817 40.0967 19.495 40.1034C19.7083 40.11 19.9083 40.1134 20.095 40.1134C20.3483 40.1134 20.6317 40.1034 20.945 40.0834C21.2583 40.0567 21.575 40.0234 21.895 39.9834C22.2217 39.9367 22.5417 39.8834 22.855 39.8234C23.1683 39.7634 23.4517 39.6967 23.705 39.6234L23.725 40.7334C23.4517 40.7934 23.1517 40.85 22.825 40.9034C22.4983 40.9567 22.1683 41.0034 21.835 41.0434C21.5083 41.0834 21.195 41.1167 20.895 41.1434C20.6017 41.1634 20.345 41.1734 20.125 41.1734C19.805 41.1734 19.5417 41.17 19.335 41.1634C19.1283 41.1567 18.9383 41.1434 18.765 41.1234L18.745 40.0434ZM28.635 39.3034H36.665V45.1734H35.555V40.3334H29.705V45.2234H28.635V39.3034ZM29.335 41.4734H36.095V42.4634H29.335V41.4734ZM29.335 43.6534H36.105V44.6834H29.335V43.6534ZM32.035 37.9734H33.155V47.3034H32.035V37.9734ZM41.675 38.4234H43.775V39.4334H41.675V38.4234ZM43.215 38.4234H44.355C44.4017 39.1434 44.4817 39.8334 44.595 40.4934C44.7083 41.1467 44.875 41.75 45.095 42.3034C45.315 42.85 45.5983 43.3367 45.945 43.7634C46.2983 44.1834 46.7317 44.5234 47.245 44.7834C47.165 44.8434 47.0717 44.92 46.965 45.0134C46.8583 45.1067 46.755 45.2067 46.655 45.3134C46.555 45.42 46.4717 45.5167 46.405 45.6034C45.885 45.29 45.4417 44.9067 45.075 44.4534C44.715 43.9934 44.4217 43.4767 44.195 42.9034C43.9683 42.3234 43.7917 41.6967 43.665 41.0234C43.545 40.35 43.4583 39.6434 43.405 38.9034H43.215V38.4234ZM43.205 40.4634L44.305 40.6234C44.085 41.75 43.7417 42.7334 43.275 43.5734C42.815 44.4067 42.215 45.0867 41.475 45.6134C41.4217 45.54 41.345 45.4534 41.245 45.3534C41.1517 45.2534 41.0483 45.1534 40.935 45.0534C40.8283 44.9467 40.7317 44.8634 40.645 44.8034C41.3583 44.37 41.9183 43.7834 42.325 43.0434C42.7383 42.3034 43.0317 41.4434 43.205 40.4634ZM40.355 41.8834V45.5334H39.305V42.8834H38.075V41.8834H40.355ZM40.355 45.0634C40.5683 45.4034 40.8683 45.6534 41.255 45.8134C41.6483 45.9734 42.1117 46.0667 42.645 46.0934C42.9317 46.1 43.275 46.1067 43.675 46.1134C44.075 46.1134 44.495 46.11 44.935 46.1034C45.3817 46.0967 45.815 46.0867 46.235 46.0734C46.655 46.0534 47.0283 46.03 47.355 46.0034C47.315 46.0834 47.2717 46.19 47.225 46.3234C47.1783 46.4567 47.135 46.59 47.095 46.7234C47.0617 46.8634 47.035 46.9867 47.015 47.0934C46.715 47.1134 46.375 47.1267 45.995 47.1334C45.615 47.14 45.2217 47.1434 44.815 47.1434C44.415 47.15 44.025 47.15 43.645 47.1434C43.265 47.1434 42.9283 47.1367 42.635 47.1234C42.0083 47.0967 41.4717 46.9967 41.025 46.8234C40.585 46.6567 40.2017 46.3767 39.875 45.9834C39.655 46.1834 39.425 46.3834 39.185 46.5834C38.9517 46.79 38.6983 47.0034 38.425 47.2234L37.885 46.1034C38.1183 45.9634 38.365 45.8034 38.625 45.6234C38.885 45.4367 39.135 45.25 39.375 45.0634H40.355ZM38.115 38.8534L38.915 38.2134C39.1217 38.3467 39.3317 38.5034 39.545 38.6834C39.765 38.8634 39.9683 39.0467 40.155 39.2334C40.3483 39.4134 40.5017 39.5834 40.615 39.7434L39.765 40.4434C39.665 40.29 39.5217 40.12 39.335 39.9334C39.155 39.74 38.9583 39.55 38.745 39.3634C38.5317 39.17 38.3217 39 38.115 38.8534Z" fill="#221A15"/>
<path d="M33.1027 65.5511C50.7786 65.5511 65.1078 51.222 65.1078 33.5461C65.1078 15.8702 50.7786 1.54102 33.1027 1.54102C15.4268 1.54102 1.09766 15.8702 1.09766 33.5461C1.09766 51.222 15.4268 65.5511 33.1027 65.5511Z" stroke="#221A15" stroke-width="0.75" stroke-linecap="round" stroke-linejoin="round"/>
<path d="M42.8755 17.8184L30.7937 30.8035L28.5188 34.4254L28.1836 28.9663V28.9656L42.8755 17.8184Z" fill="#F090A9" stroke="#4C423D" stroke-width="0.75" stroke-linecap="round" stroke-linejoin="round"/>
<path d="M42.875 17.8184L28.1831 28.9656L23.375 25.5833L42.875 17.8184Z" fill="white" stroke="#4C423D" stroke-width="0.75" stroke-linecap="round" stroke-linejoin="round"/>
<path d="M42.8748 17.8184L36.856 35.0684L31.4293 31.2498L30.793 30.8035L42.8748 17.8184Z" fill="white" stroke="#4C423D" stroke-width="0.75" stroke-linecap="round" stroke-linejoin="round"/>
<path d="M31.4288 31.2491L28.5176 34.4247L30.7925 30.8027L31.4288 31.2491Z" stroke="#4C423D" stroke-width="0.75" stroke-linecap="round" stroke-linejoin="round"/>
<g filter="url(#filter0_d_11089_247658)">
<mask id="path-8-outside-1_11089_247658" maskUnits="userSpaceOnUse" x="1.625" y="1.82031" width="19" height="16" fill="black">
<rect fill="white" x="1.625" y="1.82031" width="19" height="16"/>
<path d="M7.2357 17.0203C6.08904 17.0203 5.1157 16.7203 4.3157 16.1203C3.52904 15.507 2.92904 14.6603 2.5157 13.5803C2.10237 12.487 1.8957 11.2336 1.8957 9.82031C1.8957 8.39365 2.10237 7.14031 2.5157 6.06031C2.92904 4.98031 3.52904 4.14031 4.3157 3.54031C5.1157 2.92698 6.08904 2.62031 7.2357 2.62031C8.38237 2.62031 9.34904 2.92698 10.1357 3.54031C10.9357 4.14031 11.5424 4.98031 11.9557 6.06031C12.369 7.14031 12.5757 8.39365 12.5757 9.82031C12.5757 11.2336 12.369 12.487 11.9557 13.5803C11.5424 14.6603 10.9357 15.507 10.1357 16.1203C9.34904 16.7203 8.38237 17.0203 7.2357 17.0203ZM7.2357 14.6203C7.7957 14.6203 8.2757 14.447 8.6757 14.1003C9.08904 13.7403 9.40904 13.207 9.6357 12.5003C9.86237 11.7803 9.9757 10.887 9.9757 9.82031C9.9757 8.74031 9.86237 7.84698 9.6357 7.14031C9.40904 6.43365 9.08904 5.90698 8.6757 5.56031C8.2757 5.20031 7.7957 5.02031 7.2357 5.02031C6.68904 5.02031 6.20904 5.20031 5.7957 5.56031C5.38237 5.90698 5.06237 6.43365 4.8357 7.14031C4.60904 7.84698 4.4957 8.74031 4.4957 9.82031C4.4957 10.887 4.60904 11.7803 4.8357 12.5003C5.06237 13.207 5.38237 13.7403 5.7957 14.1003C6.20904 14.447 6.68904 14.6203 7.2357 14.6203ZM18.1409 16.8203C17.7675 16.8203 17.4609 16.707 17.2209 16.4803C16.9809 16.2403 16.8609 15.947 16.8609 15.6003V5.52031L17.1409 5.96031L15.6809 7.04031C15.4942 7.18698 15.2609 7.26031 14.9809 7.26031C14.6609 7.26031 14.3809 7.14031 14.1409 6.90031C13.9009 6.66031 13.7809 6.37365 13.7809 6.04031C13.7809 5.61365 13.9875 5.26698 14.4009 5.00031L17.2809 3.08031C17.4142 2.98698 17.5609 2.92031 17.7209 2.88031C17.8942 2.84031 18.0542 2.82031 18.2009 2.82031C18.5875 2.82031 18.8942 2.94031 19.1209 3.18031C19.3475 3.40698 19.4609 3.69365 19.4609 4.04031V15.6003C19.4609 15.947 19.3342 16.2403 19.0809 16.4803C18.8409 16.707 18.5275 16.8203 18.1409 16.8203Z"/>
</mask>
<path d="M7.2357 17.0203C6.08904 17.0203 5.1157 16.7203 4.3157 16.1203C3.52904 15.507 2.92904 14.6603 2.5157 13.5803C2.10237 12.487 1.8957 11.2336 1.8957 9.82031C1.8957 8.39365 2.10237 7.14031 2.5157 6.06031C2.92904 4.98031 3.52904 4.14031 4.3157 3.54031C5.1157 2.92698 6.08904 2.62031 7.2357 2.62031C8.38237 2.62031 9.34904 2.92698 10.1357 3.54031C10.9357 4.14031 11.5424 4.98031 11.9557 6.06031C12.369 7.14031 12.5757 8.39365 12.5757 9.82031C12.5757 11.2336 12.369 12.487 11.9557 13.5803C11.5424 14.6603 10.9357 15.507 10.1357 16.1203C9.34904 16.7203 8.38237 17.0203 7.2357 17.0203ZM7.2357 14.6203C7.7957 14.6203 8.2757 14.447 8.6757 14.1003C9.08904 13.7403 9.40904 13.207 9.6357 12.5003C9.86237 11.7803 9.9757 10.887 9.9757 9.82031C9.9757 8.74031 9.86237 7.84698 9.6357 7.14031C9.40904 6.43365 9.08904 5.90698 8.6757 5.56031C8.2757 5.20031 7.7957 5.02031 7.2357 5.02031C6.68904 5.02031 6.20904 5.20031 5.7957 5.56031C5.38237 5.90698 5.06237 6.43365 4.8357 7.14031C4.60904 7.84698 4.4957 8.74031 4.4957 9.82031C4.4957 10.887 4.60904 11.7803 4.8357 12.5003C5.06237 13.207 5.38237 13.7403 5.7957 14.1003C6.20904 14.447 6.68904 14.6203 7.2357 14.6203ZM18.1409 16.8203C17.7675 16.8203 17.4609 16.707 17.2209 16.4803C16.9809 16.2403 16.8609 15.947 16.8609 15.6003V5.52031L17.1409 5.96031L15.6809 7.04031C15.4942 7.18698 15.2609 7.26031 14.9809 7.26031C14.6609 7.26031 14.3809 7.14031 14.1409 6.90031C13.9009 6.66031 13.7809 6.37365 13.7809 6.04031C13.7809 5.61365 13.9875 5.26698 14.4009 5.00031L17.2809 3.08031C17.4142 2.98698 17.5609 2.92031 17.7209 2.88031C17.8942 2.84031 18.0542 2.82031 18.2009 2.82031C18.5875 2.82031 18.8942 2.94031 19.1209 3.18031C19.3475 3.40698 19.4609 3.69365 19.4609 4.04031V15.6003C19.4609 15.947 19.3342 16.2403 19.0809 16.4803C18.8409 16.707 18.5275 16.8203 18.1409 16.8203Z" fill="url(#paint1_linear_11089_247658)"/>
<path d="M7.2357 17.0203C6.08904 17.0203 5.1157 16.7203 4.3157 16.1203C3.52904 15.507 2.92904 14.6603 2.5157 13.5803C2.10237 12.487 1.8957 11.2336 1.8957 9.82031C1.8957 8.39365 2.10237 7.14031 2.5157 6.06031C2.92904 4.98031 3.52904 4.14031 4.3157 3.54031C5.1157 2.92698 6.08904 2.62031 7.2357 2.62031C8.38237 2.62031 9.34904 2.92698 10.1357 3.54031C10.9357 4.14031 11.5424 4.98031 11.9557 6.06031C12.369 7.14031 12.5757 8.39365 12.5757 9.82031C12.5757 11.2336 12.369 12.487 11.9557 13.5803C11.5424 14.6603 10.9357 15.507 10.1357 16.1203C9.34904 16.7203 8.38237 17.0203 7.2357 17.0203ZM7.2357 14.6203C7.7957 14.6203 8.2757 14.447 8.6757 14.1003C9.08904 13.7403 9.40904 13.207 9.6357 12.5003C9.86237 11.7803 9.9757 10.887 9.9757 9.82031C9.9757 8.74031 9.86237 7.84698 9.6357 7.14031C9.40904 6.43365 9.08904 5.90698 8.6757 5.56031C8.2757 5.20031 7.7957 5.02031 7.2357 5.02031C6.68904 5.02031 6.20904 5.20031 5.7957 5.56031C5.38237 5.90698 5.06237 6.43365 4.8357 7.14031C4.60904 7.84698 4.4957 8.74031 4.4957 9.82031C4.4957 10.887 4.60904 11.7803 4.8357 12.5003C5.06237 13.207 5.38237 13.7403 5.7957 14.1003C6.20904 14.447 6.68904 14.6203 7.2357 14.6203ZM18.1409 16.8203C17.7675 16.8203 17.4609 16.707 17.2209 16.4803C16.9809 16.2403 16.8609 15.947 16.8609 15.6003V5.52031L17.1409 5.96031L15.6809 7.04031C15.4942 7.18698 15.2609 7.26031 14.9809 7.26031C14.6609 7.26031 14.3809 7.14031 14.1409 6.90031C13.9009 6.66031 13.7809 6.37365 13.7809 6.04031C13.7809 5.61365 13.9875 5.26698 14.4009 5.00031L17.2809 3.08031C17.4142 2.98698 17.5609 2.92031 17.7209 2.88031C17.8942 2.84031 18.0542 2.82031 18.2009 2.82031C18.5875 2.82031 18.8942 2.94031 19.1209 3.18031C19.3475 3.40698 19.4609 3.69365 19.4609 4.04031V15.6003C19.4609 15.947 19.3342 16.2403 19.0809 16.4803C18.8409 16.707 18.5275 16.8203 18.1409 16.8203Z" fill="url(#paint2_linear_11089_247658)"/>
<path d="M4.3157 16.1203L4.2004 16.2682L4.2032 16.2703L4.3157 16.1203ZM2.5157 13.5803L2.34032 13.6466L2.34059 13.6473L2.5157 13.5803ZM2.5157 6.06031L2.34059 5.99329L2.5157 6.06031ZM4.3157 3.54031L4.42941 3.6894L4.42978 3.68911L4.3157 3.54031ZM10.1357 3.54031L10.0204 3.68821L10.0232 3.69031L10.1357 3.54031ZM11.9557 6.06031L12.1308 5.99329L11.9557 6.06031ZM11.9557 13.5803L12.1308 13.6473L12.1311 13.6466L11.9557 13.5803ZM10.1357 16.1203L10.2494 16.2694L10.2498 16.2691L10.1357 16.1203ZM8.6757 14.1003L8.7985 14.242L8.79885 14.2417L8.6757 14.1003ZM9.6357 12.5003L9.81425 12.5576L9.81455 12.5566L9.6357 12.5003ZM9.6357 7.14031L9.45716 7.19758L9.6357 7.14031ZM8.6757 5.56031L8.5502 5.69976L8.55521 5.70397L8.6757 5.56031ZM5.7957 5.56031L5.91621 5.704L5.91885 5.7017L5.7957 5.56031ZM4.8357 7.14031L4.65716 7.08304L4.8357 7.14031ZM4.8357 12.5003L4.65685 12.5566L4.65716 12.5576L4.8357 12.5003ZM5.7957 14.1003L5.67254 14.2417L5.67521 14.244L5.7957 14.1003ZM7.2357 16.8328C6.1234 16.8328 5.19111 16.5425 4.4282 15.9703L4.2032 16.2703C5.0403 16.8981 6.05467 17.2078 7.2357 17.2078V16.8328ZM4.43099 15.9724C3.6753 15.3833 3.09392 14.5666 2.69082 13.5133L2.34059 13.6473C2.76416 14.7541 3.38277 15.6307 4.20042 16.2682L4.43099 15.9724ZM2.69109 13.514C2.28725 12.4458 2.0832 11.2156 2.0832 9.82031H1.7082C1.7082 11.2517 1.91749 12.5282 2.34032 13.6466L2.69109 13.514ZM2.0832 9.82031C2.0832 8.41138 2.28734 7.18158 2.69082 6.12733L2.34059 5.99329C1.9174 7.09904 1.7082 8.37591 1.7082 9.82031H2.0832ZM2.69082 6.12733C3.09384 5.07428 3.67483 4.26493 4.42941 3.6894L4.20199 3.39123C3.38324 4.0157 2.76424 4.88634 2.34059 5.99329L2.69082 6.12733ZM4.42978 3.68911C5.19263 3.10427 6.12434 2.80781 7.2357 2.80781V2.43281C6.05373 2.43281 5.03878 2.74969 4.20162 3.39151L4.42978 3.68911ZM7.2357 2.80781C8.34714 2.80781 9.2715 3.10428 10.0204 3.68818L10.251 3.39244C9.42657 2.74968 8.4176 2.43281 7.2357 2.43281V2.80781ZM10.0232 3.69031C10.7907 4.26596 11.3779 5.07507 11.7806 6.12733L12.1308 5.99329C11.7069 4.88555 11.0807 4.01467 10.2482 3.39031L10.0232 3.69031ZM11.7806 6.12733C12.1841 7.18158 12.3882 8.41138 12.3882 9.82031H12.7632C12.7632 8.37591 12.554 7.09904 12.1308 5.99329L11.7806 6.12733ZM12.3882 9.82031C12.3882 11.2156 12.1842 12.4458 11.7803 13.514L12.1311 13.6466C12.5539 12.5282 12.7632 11.2517 12.7632 9.82031H12.3882ZM11.7806 13.5133C11.3778 14.5658 10.7903 15.3822 10.0216 15.9715L10.2498 16.2691C11.0812 15.6317 11.707 14.7548 12.1308 13.6473L11.7806 13.5133ZM10.022 15.9712C9.27302 16.5425 8.34809 16.8328 7.2357 16.8328V17.2078C8.41665 17.2078 9.42505 16.8981 10.2494 16.2694L10.022 15.9712ZM7.2357 14.8078C7.83797 14.8078 8.36232 14.62 8.7985 14.242L8.5529 13.9586C8.18908 14.2739 7.75344 14.4328 7.2357 14.4328V14.8078ZM8.79885 14.2417C9.24556 13.8526 9.5807 13.2857 9.81424 12.5576L9.45716 12.443C9.23737 13.1283 8.93252 13.628 8.55256 13.9589L8.79885 14.2417ZM9.81455 12.5566C10.0488 11.8126 10.1632 10.8989 10.1632 9.82031H9.7882C9.7882 10.8751 9.67596 11.748 9.45686 12.444L9.81455 12.5566ZM10.1632 9.82031C10.1632 8.72889 10.0489 7.81456 9.81424 7.08304L9.45716 7.19758C9.67586 7.8794 9.7882 8.75173 9.7882 9.82031H10.1632ZM9.81424 7.08304C9.58068 6.35488 9.24502 5.79309 8.79619 5.41665L8.55521 5.70397C8.93305 6.02087 9.23739 6.51241 9.45716 7.19758L9.81424 7.08304ZM8.80113 5.42094C8.3652 5.0286 7.83996 4.83281 7.2357 4.83281V5.20781C7.75145 5.20781 8.18621 5.37202 8.55027 5.69968L8.80113 5.42094ZM7.2357 4.83281C6.64363 4.83281 6.11993 5.02928 5.67256 5.41892L5.91885 5.7017C6.29815 5.37135 6.73444 5.20781 7.2357 5.20781V4.83281ZM5.67521 5.41665C5.22638 5.79309 4.89072 6.35488 4.65716 7.08304L5.01424 7.19758C5.23402 6.51241 5.53836 6.02087 5.91619 5.70397L5.67521 5.41665ZM4.65716 7.08304C4.42253 7.81456 4.3082 8.72889 4.3082 9.82031H4.6832C4.6832 8.75173 4.79555 7.8794 5.01424 7.19758L4.65716 7.08304ZM4.3082 9.82031C4.3082 10.8989 4.42263 11.8126 4.65686 12.5566L5.01455 12.444C4.79544 11.748 4.6832 10.8751 4.6832 9.82031H4.3082ZM4.65716 12.5576C4.89071 13.2857 5.22585 13.8526 5.67256 14.2417L5.91885 13.9589C5.53889 13.628 5.23403 13.1283 5.01424 12.443L4.65716 12.5576ZM5.67521 14.244C6.1228 14.6194 6.64561 14.8078 7.2357 14.8078V14.4328C6.73246 14.4328 6.29527 14.2746 5.91619 13.9567L5.67521 14.244ZM17.2209 16.4803L17.0882 16.6129L17.0921 16.6166L17.2209 16.4803ZM16.8609 5.52031L17.019 5.41965L16.6734 4.87643V5.52031H16.8609ZM17.1409 5.96031L17.2524 6.11105L17.3929 6.00711L17.299 5.85965L17.1409 5.96031ZM15.6809 7.04031L15.5693 6.88951L15.565 6.89288L15.6809 7.04031ZM14.1409 6.90031L14.2734 6.76773V6.76773L14.1409 6.90031ZM14.4009 5.00031L14.5025 5.15789L14.5049 5.15632L14.4009 5.00031ZM17.2809 3.08031L17.3849 3.23636L17.3884 3.23392L17.2809 3.08031ZM17.7209 2.88031L17.6787 2.69758L17.6754 2.69841L17.7209 2.88031ZM19.1209 3.18031L18.9845 3.30911L18.9883 3.31289L19.1209 3.18031ZM19.0809 16.4803L19.2096 16.6166L19.2098 16.6164L19.0809 16.4803ZM18.1409 16.6328C17.8086 16.6328 17.5502 16.5334 17.3496 16.344L17.0921 16.6166C17.3716 16.8805 17.7264 17.0078 18.1409 17.0078V16.6328ZM17.3534 16.3477C17.1494 16.1437 17.0484 15.8984 17.0484 15.6003H16.6734C16.6734 15.9955 16.8123 16.3369 17.0883 16.6129L17.3534 16.3477ZM17.0484 15.6003V5.52031H16.6734V15.6003H17.0484ZM16.7027 5.62098L16.9827 6.06098L17.299 5.85965L17.019 5.41965L16.7027 5.62098ZM17.0294 5.80957L15.5694 6.88957L15.7924 7.19105L17.2524 6.11105L17.0294 5.80957ZM15.565 6.89288C15.4171 7.00913 15.2267 7.07281 14.9809 7.07281V7.44781C15.295 7.44781 15.5713 7.36483 15.7967 7.18775L15.565 6.89288ZM14.9809 7.07281C14.7138 7.07281 14.4806 6.97493 14.2734 6.76773L14.0083 7.03289C14.2811 7.30569 14.6079 7.44781 14.9809 7.44781V7.07281ZM14.2734 6.76773C14.0679 6.56217 13.9684 6.32291 13.9684 6.04031H13.5934C13.5934 6.42438 13.7338 6.75845 14.0083 7.0329L14.2734 6.76773ZM13.9684 6.04031C13.9684 5.68795 14.1331 5.39618 14.5025 5.15787L14.2992 4.84276C13.8419 5.13777 13.5934 5.53934 13.5934 6.04031H13.9684ZM14.5049 5.15632L17.3849 3.23632L17.1769 2.9243L14.2969 4.8443L14.5049 5.15632ZM17.3884 3.23392C17.5027 3.15391 17.6283 3.09673 17.7663 3.06221L17.6754 2.69841C17.4934 2.74389 17.3257 2.82005 17.1733 2.92671L17.3884 3.23392ZM17.763 3.06301C17.9253 3.02555 18.071 3.00781 18.2009 3.00781V2.63281C18.0374 2.63281 17.863 2.65507 17.6787 2.69761L17.763 3.06301ZM18.2009 3.00781C18.5456 3.00781 18.7994 3.11302 18.9845 3.30905L19.2572 3.05157C18.989 2.7676 18.6295 2.63281 18.2009 2.63281V3.00781ZM18.9883 3.31289C19.1767 3.50136 19.2734 3.7389 19.2734 4.04031H19.6484C19.6484 3.64839 19.5183 3.3126 19.2534 3.04773L18.9883 3.31289ZM19.2734 4.04031V15.6003H19.6484V4.04031H19.2734ZM19.2734 15.6003C19.2734 15.8951 19.1681 16.1393 18.9519 16.3442L19.2098 16.6164C19.5002 16.3413 19.6484 15.9989 19.6484 15.6003H19.2734ZM18.9521 16.344C18.7528 16.5322 18.4884 16.6328 18.1409 16.6328V17.0078C18.5666 17.0078 18.9289 16.8817 19.2096 16.6166L18.9521 16.344Z" fill="#221A15" mask="url(#path-8-outside-1_11089_247658)"/>
</g>
</g>
<rect x="32.625" y="65.9453" width="0.75" height="104.375" fill="#221A15"/>
<defs>
<filter id="filter0_d_11089_247658" x="1.70801" y="2.43262" width="18.6904" height="15.5254" filterUnits="userSpaceOnUse" color-interpolation-filters="sRGB">
<feFlood flood-opacity="0" result="BackgroundImageFix"/>
<feColorMatrix in="SourceAlpha" type="matrix" values="0 0 0 0 0 0 0 0 0 0 0 0 0 0 0 0 0 0 127 0" result="hardAlpha"/>
<feOffset dx="0.75" dy="0.75"/>
<feComposite in2="hardAlpha" operator="out"/>
<feColorMatrix type="matrix" values="0 0 0 0 0.133333 0 0 0 0 0.101961 0 0 0 0 0.0823529 0 0 0 1 0"/>
<feBlend mode="normal" in2="BackgroundImageFix" result="effect1_dropShadow_11089_247658"/>
<feBlend mode="normal" in="SourceGraphic" in2="effect1_dropShadow_11089_247658" result="shape"/>
</filter>
<linearGradient id="paint0_linear_11089_247658" x1="1.03691" y1="-1.58716" x2="65.477" y2="2.45634" gradientUnits="userSpaceOnUse">
<stop stop-color="#FFD7E8"/>
<stop offset="0.5" stop-color="#FFDCD1"/>
<stop offset="1" stop-color="#FFF1A7"/>
</linearGradient>
<linearGradient id="paint1_linear_11089_247658" x1="0.625" y1="-1.17969" x2="22.732" y2="0.129633" gradientUnits="userSpaceOnUse">
<stop stop-color="#FFF9EC"/>
<stop offset="0.507029" stop-color="#FFE9B8"/>
<stop offset="1" stop-color="#FFF9EA"/>
</linearGradient>
<linearGradient id="paint2_linear_11089_247658" x1="19.3563" y1="-2.77949" x2="14.4284" y2="21.0757" gradientUnits="userSpaceOnUse">
<stop stop-color="#FFD8E8"/>
<stop offset="0.5" stop-color="#FFCABA"/>
<stop offset="1" stop-color="#FFEF9B"/>
</linearGradient>
<clipPath id="clip0_11089_247658">
<rect width="65" height="66" fill="white" transform="translate(0.5 0.320312)"/>
</clipPath>
</defs>
</svg>
