<svg width="74" height="72" viewBox="0 0 74 72" fill="none" xmlns="http://www.w3.org/2000/svg">
<path d="M72.0152 37.3558C72.7597 37.5554 73.4404 36.8731 73.2392 36.129L63.8073 1.24712C63.6068 0.505871 62.6805 0.257577 62.1364 0.799269L36.5334 26.2902C35.9873 26.834 36.2357 27.7654 36.9803 27.9649L46.1911 30.4338C46.7735 30.5899 47.0882 31.2191 46.8502 31.773C42.3245 42.3082 29.2031 65.8848 1.91012 67.4717C0.682233 67.5431 0.23711 69.9723 1.43564 70.2489C20.0778 74.5502 41.4659 72.2365 61.4597 35.344C61.681 34.9355 62.1618 34.7147 62.6105 34.835L72.0152 37.3558Z" fill="url(#paint0_linear_11089_246121)"/>
<defs>
<linearGradient id="paint0_linear_11089_246121" x1="46.9207" y1="-4.8222" x2="25.085" y2="76.6406" gradientUnits="userSpaceOnUse">
<stop stop-color="#FF7575"/>
<stop offset="1" stop-color="#FFE99B"/>
</linearGradient>
</defs>
</svg>
