<svg width="215" height="86" viewBox="0 0 215 86" fill="none" xmlns="http://www.w3.org/2000/svg">
<g filter="url(#filter0_d_10944_61303)">
<mask id="path-1-outside-1_10944_61303" maskUnits="userSpaceOnUse" x="-0.5" y="0" width="213" height="83" fill="black">
<rect fill="white" x="-0.5" width="213" height="83"/>
<path d="M30 43.84C28.7733 43.84 27.7867 43.44 27.04 42.64C26.2933 41.84 25.92 40.88 25.92 39.76C25.92 38.5867 26.2933 37.6 27.04 36.8C27.7867 36 28.7733 35.6 30 35.6H40.72C40.2933 35.1733 40 34.72 39.84 34.24C39.6267 33.76 39.3067 33.0667 38.88 32.16C38.5067 31.2533 38.1067 30.3467 37.68 29.44C37.3067 28.5333 37.0133 27.8667 36.8 27.44C36.2667 26.2667 36.1867 25.2 36.56 24.24C36.9867 23.2267 37.7067 22.4533 38.72 21.92H32.56C31.3867 21.92 30.4267 21.5467 29.68 20.8C28.9867 20 28.64 19.0667 28.64 18C28.64 16.9333 28.9867 16.0267 29.68 15.28C30.4267 14.48 31.3867 14.08 32.56 14.08H47.92V8.8C47.92 7.41333 48.3467 6.32 49.2 5.52C50.1067 4.66666 51.2533 4.24 52.64 4.24C54.0267 4.24 55.1467 4.66666 56 5.52C56.8533 6.32 57.28 7.41333 57.28 8.8V14.08H73.76C74.9867 14.08 75.9467 14.48 76.64 15.28C77.3333 16.0267 77.68 16.9333 77.68 18C77.68 19.0667 77.3333 20 76.64 20.8C75.9467 21.5467 74.9867 21.92 73.76 21.92H67.04C68.1067 22.4533 68.8 23.2533 69.12 24.32C69.44 25.3333 69.36 26.3733 68.88 27.44C68.5067 28.24 67.9467 29.4667 67.2 31.12C66.4533 32.72 65.7333 34.2133 65.04 35.6H75.92C77.2 35.6 78.2133 36 78.96 36.8C79.7067 37.6 80.08 38.5867 80.08 39.76C80.08 40.88 79.7067 41.84 78.96 42.64C78.2133 43.44 77.2 43.84 75.92 43.84H30ZM52.88 77.28C48.0267 77.28 44.2667 76.8533 41.6 76C38.9867 75.1467 37.1467 73.68 36.08 71.6C35.0667 69.52 34.56 66.6133 34.56 62.88C34.56 59.0933 35.0667 56.16 36.08 54.08C37.1467 51.9467 38.9867 50.4533 41.6 49.6C44.2667 48.7467 48.0267 48.32 52.88 48.32C57.7333 48.32 61.4667 48.7467 64.08 49.6C66.7467 50.4533 68.5867 51.9467 69.6 54.08C70.6667 56.16 71.2 59.0933 71.2 62.88C71.2 66.6133 70.6667 69.52 69.6 71.6C68.5867 73.68 66.7467 75.1467 64.08 76C61.4667 76.8533 57.7333 77.28 52.88 77.28ZM20.08 78.96C18.8533 78.96 17.7867 78.56 16.88 77.76C16.0267 76.96 15.6 75.8933 15.6 74.56V38.72C15.12 39.5733 14.6133 40.3733 14.08 41.12C13.6 41.8133 13.12 42.5067 12.64 43.2C11.8933 44.2667 10.8533 44.9333 9.52 45.2C8.18667 45.4133 6.98667 45.1733 5.92 44.48C4.96 43.7867 4.37334 42.8267 4.16 41.6C3.94667 40.3733 4.24 39.2533 5.04 38.24C7.06667 35.5733 9.04 32.5067 10.96 29.04C12.9333 25.52 14.6667 21.9467 16.16 18.32C17.7067 14.6933 18.88 11.3867 19.68 8.4C20.1067 6.85333 20.88 5.76 22 5.12C23.12 4.48 24.3467 4.34666 25.68 4.72C26.9067 5.09333 27.7867 5.86666 28.32 7.04C28.9067 8.16 28.9867 9.46667 28.56 10.96C27.5467 14.2667 26.2133 17.8133 24.56 21.6V74.56C24.56 75.8933 24.1067 76.96 23.2 77.76C22.3467 78.56 21.3067 78.96 20.08 78.96ZM52.88 68.96C55.44 68.96 57.36 68.8267 58.64 68.56C59.92 68.24 60.7733 67.6533 61.2 66.8C61.68 65.8933 61.92 64.56 61.92 62.8C61.92 61.0933 61.68 59.8133 61.2 58.96C60.7733 58.0533 59.92 57.44 58.64 57.12C57.36 56.8 55.44 56.64 52.88 56.64C50.32 56.64 48.3733 56.8267 47.04 57.2C45.76 57.52 44.9067 58.1333 44.48 59.04C44.0533 59.8933 43.84 61.12 43.84 62.72C43.84 64.48 44.0533 65.8133 44.48 66.72C44.9067 67.5733 45.76 68.16 47.04 68.48C48.3733 68.8 50.32 68.96 52.88 68.96ZM47.44 35.6H55.36C55.7867 34.6933 56.32 33.4933 56.96 32C57.6533 30.4533 58.32 28.96 58.96 27.52C59.6 26.0267 60.0533 24.9067 60.32 24.16C60.7467 23.2 61.3867 22.4533 62.24 21.92H43.52C44.1067 22.2933 44.6133 22.8533 45.04 23.6C45.3067 24.1333 45.6533 24.9067 46.08 25.92C46.56 26.9333 47.0133 27.92 47.44 28.88C47.8667 29.84 48.16 30.5333 48.32 30.96C48.6933 31.8133 48.7733 32.6667 48.56 33.52C48.4 34.32 48.0267 35.0133 47.44 35.6ZM130.96 46C127.813 46 125.333 45.6533 123.52 44.96C121.707 44.2133 120.427 42.9867 119.68 41.28C118.933 39.5733 118.56 37.2533 118.56 34.32V29.52C118.56 25.4133 119.333 22.5067 120.88 20.8C122.427 19.04 125.2 18.0533 129.2 17.84C129.093 17.68 128.987 17.52 128.88 17.36C128.773 17.2 128.667 17.04 128.56 16.88C128.347 16.4533 128 15.8667 127.52 15.12C127.093 14.32 126.64 13.52 126.16 12.72C125.733 11.8667 125.36 11.2 125.04 10.72C124.453 9.70666 124.373 8.66666 124.8 7.59999C125.227 6.53333 125.973 5.73333 127.04 5.2C128.267 4.66666 129.44 4.58666 130.56 4.96C131.68 5.33333 132.533 6.02666 133.12 7.04C133.387 7.52 133.76 8.18666 134.24 9.04C134.72 9.84 135.173 10.64 135.6 11.44C136.08 12.1867 136.427 12.7467 136.64 13.12C137.067 13.9733 137.173 14.8267 136.96 15.68C136.747 16.48 136.347 17.2 135.76 17.84H142.8C143.173 17.0933 143.68 16.0533 144.32 14.72C144.96 13.3333 145.573 11.9733 146.16 10.64C146.8 9.25333 147.253 8.18666 147.52 7.44C148.107 6.05333 148.987 5.11999 150.16 4.63999C151.387 4.16 152.667 4.21333 154 4.8C155.387 5.33333 156.24 6.18666 156.56 7.36C156.88 8.53333 156.747 9.70666 156.16 10.88C155.893 11.4133 155.36 12.4 154.56 13.84C153.813 15.28 153.093 16.6133 152.4 17.84C156.667 17.9467 159.6 18.8533 161.2 20.56C162.853 22.2667 163.68 25.2533 163.68 29.52V34.32C163.68 37.2533 163.307 39.5733 162.56 41.28C161.813 42.9867 160.533 44.2133 158.72 44.96C156.907 45.6533 154.427 46 151.28 46H130.96ZM135.36 78.16C130.56 78.16 127.173 77.3333 125.2 75.68C123.28 74.08 122.32 71.2 122.32 67.04V60.48C122.32 56.2667 123.28 53.36 125.2 51.76C127.173 50.16 130.56 49.36 135.36 49.36H147.2C152 49.36 155.36 50.16 157.28 51.76C159.253 53.36 160.24 56.2667 160.24 60.48V67.04C160.24 71.2 159.253 74.08 157.28 75.68C155.36 77.3333 152 78.16 147.2 78.16H135.36ZM97.68 64.8C96.2933 65.1733 95.0133 65.12 93.84 64.64C92.72 64.1067 91.9733 63.1733 91.6 61.84C91.2267 60.4533 91.36 59.2533 92 58.24C92.6933 57.1733 93.7067 56.48 95.04 56.16C95.9467 55.9467 96.9067 55.7067 97.92 55.44C98.9867 55.1733 100.08 54.88 101.2 54.56V32.72H95.6C94.3733 32.72 93.3867 32.3467 92.64 31.6C91.8933 30.8 91.52 29.84 91.52 28.72C91.52 27.6 91.8933 26.6667 92.64 25.92C93.3867 25.12 94.3733 24.72 95.6 24.72H101.2V10.88C101.2 9.49333 101.6 8.42666 102.4 7.68C103.253 6.88 104.293 6.47999 105.52 6.47999C106.747 6.47999 107.787 6.88 108.64 7.68C109.493 8.42666 109.92 9.49333 109.92 10.88V24.72H113.44C114.667 24.72 115.653 25.12 116.4 25.92C117.147 26.6667 117.52 27.6 117.52 28.72C117.52 29.84 117.147 30.8 116.4 31.6C115.653 32.3467 114.667 32.72 113.44 32.72H109.92V51.76C110.72 51.4933 111.493 51.2267 112.24 50.96C112.987 50.64 113.68 50.3733 114.32 50.16C115.547 49.68 116.667 49.6533 117.68 50.08C118.693 50.5067 119.36 51.3067 119.68 52.48C119.947 53.5467 119.893 54.56 119.52 55.52C119.147 56.48 118.347 57.2267 117.12 57.76C115.573 58.4533 113.6 59.2533 111.2 60.16C108.8 61.0667 106.373 61.9467 103.92 62.8C101.52 63.6 99.44 64.2667 97.68 64.8ZM136.24 71.52H146.32C148.293 71.52 149.6 71.2533 150.24 70.72C150.88 70.1333 151.227 68.9333 151.28 67.12H131.28C131.333 68.9333 131.68 70.1333 132.32 70.72C132.96 71.2533 134.267 71.52 136.24 71.52ZM131.28 60.32H151.28C151.227 58.5067 150.88 57.3333 150.24 56.8C149.6 56.2667 148.293 56 146.32 56H136.24C134.267 56 132.96 56.2667 132.32 56.8C131.68 57.3333 131.333 58.5067 131.28 60.32ZM145.2 39.44H149.76C151.733 39.44 153.04 39.1467 153.68 38.56C154.32 37.9733 154.64 36.7467 154.64 34.88H145.2V39.44ZM132.48 39.44H136.96V34.88H127.6C127.6 36.7467 127.92 37.9733 128.56 38.56C129.2 39.1467 130.507 39.44 132.48 39.44ZM145.2 28.88H154.64C154.64 27.0133 154.32 25.8133 153.68 25.28C153.04 24.6933 151.733 24.4 149.76 24.4H145.2V28.88ZM127.6 28.88H136.96V24.4H132.48C130.507 24.4 129.2 24.6933 128.56 25.28C127.92 25.8133 127.6 27.0133 127.6 28.88ZM201.2 57.36C200.133 57.36 199.2 56.9867 198.4 56.24C197.6 55.4933 197.147 54.56 197.04 53.44C196.88 51.4133 196.72 49.0933 196.56 46.48C196.453 43.8667 196.32 41.2 196.16 38.48C196 35.7067 195.867 33.0667 195.76 30.56C195.653 28.0533 195.573 25.84 195.52 23.92C195.467 22 195.44 20.5867 195.44 19.68V11.76C195.44 10.2133 195.973 8.90666 197.04 7.84C198.16 6.77333 199.547 6.24 201.2 6.24C202.907 6.24 204.293 6.77333 205.36 7.84C206.48 8.90666 207.04 10.2133 207.04 11.76V19.68C207.04 20.5867 206.987 22 206.88 23.92C206.827 25.84 206.747 28.0533 206.64 30.56C206.533 33.0667 206.4 35.7067 206.24 38.48C206.133 41.2 206 43.8667 205.84 46.48C205.68 49.0933 205.52 51.4133 205.36 53.44C205.307 54.56 204.88 55.4933 204.08 56.24C203.28 56.9867 202.32 57.36 201.2 57.36ZM201.2 76.88C199.333 76.88 197.733 76.2133 196.4 74.88C195.067 73.5467 194.4 71.9467 194.4 70.08C194.4 68.2133 195.067 66.6133 196.4 65.28C197.733 63.9467 199.333 63.28 201.2 63.28C203.067 63.28 204.667 63.9467 206 65.28C207.333 66.6133 208 68.2133 208 70.08C208 71.9467 207.333 73.5467 206 74.88C204.667 76.2133 203.067 76.88 201.2 76.88Z"/>
</mask>
<path d="M30 43.84C28.7733 43.84 27.7867 43.44 27.04 42.64C26.2933 41.84 25.92 40.88 25.92 39.76C25.92 38.5867 26.2933 37.6 27.04 36.8C27.7867 36 28.7733 35.6 30 35.6H40.72C40.2933 35.1733 40 34.72 39.84 34.24C39.6267 33.76 39.3067 33.0667 38.88 32.16C38.5067 31.2533 38.1067 30.3467 37.68 29.44C37.3067 28.5333 37.0133 27.8667 36.8 27.44C36.2667 26.2667 36.1867 25.2 36.56 24.24C36.9867 23.2267 37.7067 22.4533 38.72 21.92H32.56C31.3867 21.92 30.4267 21.5467 29.68 20.8C28.9867 20 28.64 19.0667 28.64 18C28.64 16.9333 28.9867 16.0267 29.68 15.28C30.4267 14.48 31.3867 14.08 32.56 14.08H47.92V8.8C47.92 7.41333 48.3467 6.32 49.2 5.52C50.1067 4.66666 51.2533 4.24 52.64 4.24C54.0267 4.24 55.1467 4.66666 56 5.52C56.8533 6.32 57.28 7.41333 57.28 8.8V14.08H73.76C74.9867 14.08 75.9467 14.48 76.64 15.28C77.3333 16.0267 77.68 16.9333 77.68 18C77.68 19.0667 77.3333 20 76.64 20.8C75.9467 21.5467 74.9867 21.92 73.76 21.92H67.04C68.1067 22.4533 68.8 23.2533 69.12 24.32C69.44 25.3333 69.36 26.3733 68.88 27.44C68.5067 28.24 67.9467 29.4667 67.2 31.12C66.4533 32.72 65.7333 34.2133 65.04 35.6H75.92C77.2 35.6 78.2133 36 78.96 36.8C79.7067 37.6 80.08 38.5867 80.08 39.76C80.08 40.88 79.7067 41.84 78.96 42.64C78.2133 43.44 77.2 43.84 75.92 43.84H30ZM52.88 77.28C48.0267 77.28 44.2667 76.8533 41.6 76C38.9867 75.1467 37.1467 73.68 36.08 71.6C35.0667 69.52 34.56 66.6133 34.56 62.88C34.56 59.0933 35.0667 56.16 36.08 54.08C37.1467 51.9467 38.9867 50.4533 41.6 49.6C44.2667 48.7467 48.0267 48.32 52.88 48.32C57.7333 48.32 61.4667 48.7467 64.08 49.6C66.7467 50.4533 68.5867 51.9467 69.6 54.08C70.6667 56.16 71.2 59.0933 71.2 62.88C71.2 66.6133 70.6667 69.52 69.6 71.6C68.5867 73.68 66.7467 75.1467 64.08 76C61.4667 76.8533 57.7333 77.28 52.88 77.28ZM20.08 78.96C18.8533 78.96 17.7867 78.56 16.88 77.76C16.0267 76.96 15.6 75.8933 15.6 74.56V38.72C15.12 39.5733 14.6133 40.3733 14.08 41.12C13.6 41.8133 13.12 42.5067 12.64 43.2C11.8933 44.2667 10.8533 44.9333 9.52 45.2C8.18667 45.4133 6.98667 45.1733 5.92 44.48C4.96 43.7867 4.37334 42.8267 4.16 41.6C3.94667 40.3733 4.24 39.2533 5.04 38.24C7.06667 35.5733 9.04 32.5067 10.96 29.04C12.9333 25.52 14.6667 21.9467 16.16 18.32C17.7067 14.6933 18.88 11.3867 19.68 8.4C20.1067 6.85333 20.88 5.76 22 5.12C23.12 4.48 24.3467 4.34666 25.68 4.72C26.9067 5.09333 27.7867 5.86666 28.32 7.04C28.9067 8.16 28.9867 9.46667 28.56 10.96C27.5467 14.2667 26.2133 17.8133 24.56 21.6V74.56C24.56 75.8933 24.1067 76.96 23.2 77.76C22.3467 78.56 21.3067 78.96 20.08 78.96ZM52.88 68.96C55.44 68.96 57.36 68.8267 58.64 68.56C59.92 68.24 60.7733 67.6533 61.2 66.8C61.68 65.8933 61.92 64.56 61.92 62.8C61.92 61.0933 61.68 59.8133 61.2 58.96C60.7733 58.0533 59.92 57.44 58.64 57.12C57.36 56.8 55.44 56.64 52.88 56.64C50.32 56.64 48.3733 56.8267 47.04 57.2C45.76 57.52 44.9067 58.1333 44.48 59.04C44.0533 59.8933 43.84 61.12 43.84 62.72C43.84 64.48 44.0533 65.8133 44.48 66.72C44.9067 67.5733 45.76 68.16 47.04 68.48C48.3733 68.8 50.32 68.96 52.88 68.96ZM47.44 35.6H55.36C55.7867 34.6933 56.32 33.4933 56.96 32C57.6533 30.4533 58.32 28.96 58.96 27.52C59.6 26.0267 60.0533 24.9067 60.32 24.16C60.7467 23.2 61.3867 22.4533 62.24 21.92H43.52C44.1067 22.2933 44.6133 22.8533 45.04 23.6C45.3067 24.1333 45.6533 24.9067 46.08 25.92C46.56 26.9333 47.0133 27.92 47.44 28.88C47.8667 29.84 48.16 30.5333 48.32 30.96C48.6933 31.8133 48.7733 32.6667 48.56 33.52C48.4 34.32 48.0267 35.0133 47.44 35.6ZM130.96 46C127.813 46 125.333 45.6533 123.52 44.96C121.707 44.2133 120.427 42.9867 119.68 41.28C118.933 39.5733 118.56 37.2533 118.56 34.32V29.52C118.56 25.4133 119.333 22.5067 120.88 20.8C122.427 19.04 125.2 18.0533 129.2 17.84C129.093 17.68 128.987 17.52 128.88 17.36C128.773 17.2 128.667 17.04 128.56 16.88C128.347 16.4533 128 15.8667 127.52 15.12C127.093 14.32 126.64 13.52 126.16 12.72C125.733 11.8667 125.36 11.2 125.04 10.72C124.453 9.70666 124.373 8.66666 124.8 7.59999C125.227 6.53333 125.973 5.73333 127.04 5.2C128.267 4.66666 129.44 4.58666 130.56 4.96C131.68 5.33333 132.533 6.02666 133.12 7.04C133.387 7.52 133.76 8.18666 134.24 9.04C134.72 9.84 135.173 10.64 135.6 11.44C136.08 12.1867 136.427 12.7467 136.64 13.12C137.067 13.9733 137.173 14.8267 136.96 15.68C136.747 16.48 136.347 17.2 135.76 17.84H142.8C143.173 17.0933 143.68 16.0533 144.32 14.72C144.96 13.3333 145.573 11.9733 146.16 10.64C146.8 9.25333 147.253 8.18666 147.52 7.44C148.107 6.05333 148.987 5.11999 150.16 4.63999C151.387 4.16 152.667 4.21333 154 4.8C155.387 5.33333 156.24 6.18666 156.56 7.36C156.88 8.53333 156.747 9.70666 156.16 10.88C155.893 11.4133 155.36 12.4 154.56 13.84C153.813 15.28 153.093 16.6133 152.4 17.84C156.667 17.9467 159.6 18.8533 161.2 20.56C162.853 22.2667 163.68 25.2533 163.68 29.52V34.32C163.68 37.2533 163.307 39.5733 162.56 41.28C161.813 42.9867 160.533 44.2133 158.72 44.96C156.907 45.6533 154.427 46 151.28 46H130.96ZM135.36 78.16C130.56 78.16 127.173 77.3333 125.2 75.68C123.28 74.08 122.32 71.2 122.32 67.04V60.48C122.32 56.2667 123.28 53.36 125.2 51.76C127.173 50.16 130.56 49.36 135.36 49.36H147.2C152 49.36 155.36 50.16 157.28 51.76C159.253 53.36 160.24 56.2667 160.24 60.48V67.04C160.24 71.2 159.253 74.08 157.28 75.68C155.36 77.3333 152 78.16 147.2 78.16H135.36ZM97.68 64.8C96.2933 65.1733 95.0133 65.12 93.84 64.64C92.72 64.1067 91.9733 63.1733 91.6 61.84C91.2267 60.4533 91.36 59.2533 92 58.24C92.6933 57.1733 93.7067 56.48 95.04 56.16C95.9467 55.9467 96.9067 55.7067 97.92 55.44C98.9867 55.1733 100.08 54.88 101.2 54.56V32.72H95.6C94.3733 32.72 93.3867 32.3467 92.64 31.6C91.8933 30.8 91.52 29.84 91.52 28.72C91.52 27.6 91.8933 26.6667 92.64 25.92C93.3867 25.12 94.3733 24.72 95.6 24.72H101.2V10.88C101.2 9.49333 101.6 8.42666 102.4 7.68C103.253 6.88 104.293 6.47999 105.52 6.47999C106.747 6.47999 107.787 6.88 108.64 7.68C109.493 8.42666 109.92 9.49333 109.92 10.88V24.72H113.44C114.667 24.72 115.653 25.12 116.4 25.92C117.147 26.6667 117.52 27.6 117.52 28.72C117.52 29.84 117.147 30.8 116.4 31.6C115.653 32.3467 114.667 32.72 113.44 32.72H109.92V51.76C110.72 51.4933 111.493 51.2267 112.24 50.96C112.987 50.64 113.68 50.3733 114.32 50.16C115.547 49.68 116.667 49.6533 117.68 50.08C118.693 50.5067 119.36 51.3067 119.68 52.48C119.947 53.5467 119.893 54.56 119.52 55.52C119.147 56.48 118.347 57.2267 117.12 57.76C115.573 58.4533 113.6 59.2533 111.2 60.16C108.8 61.0667 106.373 61.9467 103.92 62.8C101.52 63.6 99.44 64.2667 97.68 64.8ZM136.24 71.52H146.32C148.293 71.52 149.6 71.2533 150.24 70.72C150.88 70.1333 151.227 68.9333 151.28 67.12H131.28C131.333 68.9333 131.68 70.1333 132.32 70.72C132.96 71.2533 134.267 71.52 136.24 71.52ZM131.28 60.32H151.28C151.227 58.5067 150.88 57.3333 150.24 56.8C149.6 56.2667 148.293 56 146.32 56H136.24C134.267 56 132.96 56.2667 132.32 56.8C131.68 57.3333 131.333 58.5067 131.28 60.32ZM145.2 39.44H149.76C151.733 39.44 153.04 39.1467 153.68 38.56C154.32 37.9733 154.64 36.7467 154.64 34.88H145.2V39.44ZM132.48 39.44H136.96V34.88H127.6C127.6 36.7467 127.92 37.9733 128.56 38.56C129.2 39.1467 130.507 39.44 132.48 39.44ZM145.2 28.88H154.64C154.64 27.0133 154.32 25.8133 153.68 25.28C153.04 24.6933 151.733 24.4 149.76 24.4H145.2V28.88ZM127.6 28.88H136.96V24.4H132.48C130.507 24.4 129.2 24.6933 128.56 25.28C127.92 25.8133 127.6 27.0133 127.6 28.88ZM201.2 57.36C200.133 57.36 199.2 56.9867 198.4 56.24C197.6 55.4933 197.147 54.56 197.04 53.44C196.88 51.4133 196.72 49.0933 196.56 46.48C196.453 43.8667 196.32 41.2 196.16 38.48C196 35.7067 195.867 33.0667 195.76 30.56C195.653 28.0533 195.573 25.84 195.52 23.92C195.467 22 195.44 20.5867 195.44 19.68V11.76C195.44 10.2133 195.973 8.90666 197.04 7.84C198.16 6.77333 199.547 6.24 201.2 6.24C202.907 6.24 204.293 6.77333 205.36 7.84C206.48 8.90666 207.04 10.2133 207.04 11.76V19.68C207.04 20.5867 206.987 22 206.88 23.92C206.827 25.84 206.747 28.0533 206.64 30.56C206.533 33.0667 206.4 35.7067 206.24 38.48C206.133 41.2 206 43.8667 205.84 46.48C205.68 49.0933 205.52 51.4133 205.36 53.44C205.307 54.56 204.88 55.4933 204.08 56.24C203.28 56.9867 202.32 57.36 201.2 57.36ZM201.2 76.88C199.333 76.88 197.733 76.2133 196.4 74.88C195.067 73.5467 194.4 71.9467 194.4 70.08C194.4 68.2133 195.067 66.6133 196.4 65.28C197.733 63.9467 199.333 63.28 201.2 63.28C203.067 63.28 204.667 63.9467 206 65.28C207.333 66.6133 208 68.2133 208 70.08C208 71.9467 207.333 73.5467 206 74.88C204.667 76.2133 203.067 76.88 201.2 76.88Z" fill="url(#paint0_linear_10944_61303)"/>
<path d="M30 43.84C28.7733 43.84 27.7867 43.44 27.04 42.64C26.2933 41.84 25.92 40.88 25.92 39.76C25.92 38.5867 26.2933 37.6 27.04 36.8C27.7867 36 28.7733 35.6 30 35.6H40.72C40.2933 35.1733 40 34.72 39.84 34.24C39.6267 33.76 39.3067 33.0667 38.88 32.16C38.5067 31.2533 38.1067 30.3467 37.68 29.44C37.3067 28.5333 37.0133 27.8667 36.8 27.44C36.2667 26.2667 36.1867 25.2 36.56 24.24C36.9867 23.2267 37.7067 22.4533 38.72 21.92H32.56C31.3867 21.92 30.4267 21.5467 29.68 20.8C28.9867 20 28.64 19.0667 28.64 18C28.64 16.9333 28.9867 16.0267 29.68 15.28C30.4267 14.48 31.3867 14.08 32.56 14.08H47.92V8.8C47.92 7.41333 48.3467 6.32 49.2 5.52C50.1067 4.66666 51.2533 4.24 52.64 4.24C54.0267 4.24 55.1467 4.66666 56 5.52C56.8533 6.32 57.28 7.41333 57.28 8.8V14.08H73.76C74.9867 14.08 75.9467 14.48 76.64 15.28C77.3333 16.0267 77.68 16.9333 77.68 18C77.68 19.0667 77.3333 20 76.64 20.8C75.9467 21.5467 74.9867 21.92 73.76 21.92H67.04C68.1067 22.4533 68.8 23.2533 69.12 24.32C69.44 25.3333 69.36 26.3733 68.88 27.44C68.5067 28.24 67.9467 29.4667 67.2 31.12C66.4533 32.72 65.7333 34.2133 65.04 35.6H75.92C77.2 35.6 78.2133 36 78.96 36.8C79.7067 37.6 80.08 38.5867 80.08 39.76C80.08 40.88 79.7067 41.84 78.96 42.64C78.2133 43.44 77.2 43.84 75.92 43.84H30ZM52.88 77.28C48.0267 77.28 44.2667 76.8533 41.6 76C38.9867 75.1467 37.1467 73.68 36.08 71.6C35.0667 69.52 34.56 66.6133 34.56 62.88C34.56 59.0933 35.0667 56.16 36.08 54.08C37.1467 51.9467 38.9867 50.4533 41.6 49.6C44.2667 48.7467 48.0267 48.32 52.88 48.32C57.7333 48.32 61.4667 48.7467 64.08 49.6C66.7467 50.4533 68.5867 51.9467 69.6 54.08C70.6667 56.16 71.2 59.0933 71.2 62.88C71.2 66.6133 70.6667 69.52 69.6 71.6C68.5867 73.68 66.7467 75.1467 64.08 76C61.4667 76.8533 57.7333 77.28 52.88 77.28ZM20.08 78.96C18.8533 78.96 17.7867 78.56 16.88 77.76C16.0267 76.96 15.6 75.8933 15.6 74.56V38.72C15.12 39.5733 14.6133 40.3733 14.08 41.12C13.6 41.8133 13.12 42.5067 12.64 43.2C11.8933 44.2667 10.8533 44.9333 9.52 45.2C8.18667 45.4133 6.98667 45.1733 5.92 44.48C4.96 43.7867 4.37334 42.8267 4.16 41.6C3.94667 40.3733 4.24 39.2533 5.04 38.24C7.06667 35.5733 9.04 32.5067 10.96 29.04C12.9333 25.52 14.6667 21.9467 16.16 18.32C17.7067 14.6933 18.88 11.3867 19.68 8.4C20.1067 6.85333 20.88 5.76 22 5.12C23.12 4.48 24.3467 4.34666 25.68 4.72C26.9067 5.09333 27.7867 5.86666 28.32 7.04C28.9067 8.16 28.9867 9.46667 28.56 10.96C27.5467 14.2667 26.2133 17.8133 24.56 21.6V74.56C24.56 75.8933 24.1067 76.96 23.2 77.76C22.3467 78.56 21.3067 78.96 20.08 78.96ZM52.88 68.96C55.44 68.96 57.36 68.8267 58.64 68.56C59.92 68.24 60.7733 67.6533 61.2 66.8C61.68 65.8933 61.92 64.56 61.92 62.8C61.92 61.0933 61.68 59.8133 61.2 58.96C60.7733 58.0533 59.92 57.44 58.64 57.12C57.36 56.8 55.44 56.64 52.88 56.64C50.32 56.64 48.3733 56.8267 47.04 57.2C45.76 57.52 44.9067 58.1333 44.48 59.04C44.0533 59.8933 43.84 61.12 43.84 62.72C43.84 64.48 44.0533 65.8133 44.48 66.72C44.9067 67.5733 45.76 68.16 47.04 68.48C48.3733 68.8 50.32 68.96 52.88 68.96ZM47.44 35.6H55.36C55.7867 34.6933 56.32 33.4933 56.96 32C57.6533 30.4533 58.32 28.96 58.96 27.52C59.6 26.0267 60.0533 24.9067 60.32 24.16C60.7467 23.2 61.3867 22.4533 62.24 21.92H43.52C44.1067 22.2933 44.6133 22.8533 45.04 23.6C45.3067 24.1333 45.6533 24.9067 46.08 25.92C46.56 26.9333 47.0133 27.92 47.44 28.88C47.8667 29.84 48.16 30.5333 48.32 30.96C48.6933 31.8133 48.7733 32.6667 48.56 33.52C48.4 34.32 48.0267 35.0133 47.44 35.6ZM130.96 46C127.813 46 125.333 45.6533 123.52 44.96C121.707 44.2133 120.427 42.9867 119.68 41.28C118.933 39.5733 118.56 37.2533 118.56 34.32V29.52C118.56 25.4133 119.333 22.5067 120.88 20.8C122.427 19.04 125.2 18.0533 129.2 17.84C129.093 17.68 128.987 17.52 128.88 17.36C128.773 17.2 128.667 17.04 128.56 16.88C128.347 16.4533 128 15.8667 127.52 15.12C127.093 14.32 126.64 13.52 126.16 12.72C125.733 11.8667 125.36 11.2 125.04 10.72C124.453 9.70666 124.373 8.66666 124.8 7.59999C125.227 6.53333 125.973 5.73333 127.04 5.2C128.267 4.66666 129.44 4.58666 130.56 4.96C131.68 5.33333 132.533 6.02666 133.12 7.04C133.387 7.52 133.76 8.18666 134.24 9.04C134.72 9.84 135.173 10.64 135.6 11.44C136.08 12.1867 136.427 12.7467 136.64 13.12C137.067 13.9733 137.173 14.8267 136.96 15.68C136.747 16.48 136.347 17.2 135.76 17.84H142.8C143.173 17.0933 143.68 16.0533 144.32 14.72C144.96 13.3333 145.573 11.9733 146.16 10.64C146.8 9.25333 147.253 8.18666 147.52 7.44C148.107 6.05333 148.987 5.11999 150.16 4.63999C151.387 4.16 152.667 4.21333 154 4.8C155.387 5.33333 156.24 6.18666 156.56 7.36C156.88 8.53333 156.747 9.70666 156.16 10.88C155.893 11.4133 155.36 12.4 154.56 13.84C153.813 15.28 153.093 16.6133 152.4 17.84C156.667 17.9467 159.6 18.8533 161.2 20.56C162.853 22.2667 163.68 25.2533 163.68 29.52V34.32C163.68 37.2533 163.307 39.5733 162.56 41.28C161.813 42.9867 160.533 44.2133 158.72 44.96C156.907 45.6533 154.427 46 151.28 46H130.96ZM135.36 78.16C130.56 78.16 127.173 77.3333 125.2 75.68C123.28 74.08 122.32 71.2 122.32 67.04V60.48C122.32 56.2667 123.28 53.36 125.2 51.76C127.173 50.16 130.56 49.36 135.36 49.36H147.2C152 49.36 155.36 50.16 157.28 51.76C159.253 53.36 160.24 56.2667 160.24 60.48V67.04C160.24 71.2 159.253 74.08 157.28 75.68C155.36 77.3333 152 78.16 147.2 78.16H135.36ZM97.68 64.8C96.2933 65.1733 95.0133 65.12 93.84 64.64C92.72 64.1067 91.9733 63.1733 91.6 61.84C91.2267 60.4533 91.36 59.2533 92 58.24C92.6933 57.1733 93.7067 56.48 95.04 56.16C95.9467 55.9467 96.9067 55.7067 97.92 55.44C98.9867 55.1733 100.08 54.88 101.2 54.56V32.72H95.6C94.3733 32.72 93.3867 32.3467 92.64 31.6C91.8933 30.8 91.52 29.84 91.52 28.72C91.52 27.6 91.8933 26.6667 92.64 25.92C93.3867 25.12 94.3733 24.72 95.6 24.72H101.2V10.88C101.2 9.49333 101.6 8.42666 102.4 7.68C103.253 6.88 104.293 6.47999 105.52 6.47999C106.747 6.47999 107.787 6.88 108.64 7.68C109.493 8.42666 109.92 9.49333 109.92 10.88V24.72H113.44C114.667 24.72 115.653 25.12 116.4 25.92C117.147 26.6667 117.52 27.6 117.52 28.72C117.52 29.84 117.147 30.8 116.4 31.6C115.653 32.3467 114.667 32.72 113.44 32.72H109.92V51.76C110.72 51.4933 111.493 51.2267 112.24 50.96C112.987 50.64 113.68 50.3733 114.32 50.16C115.547 49.68 116.667 49.6533 117.68 50.08C118.693 50.5067 119.36 51.3067 119.68 52.48C119.947 53.5467 119.893 54.56 119.52 55.52C119.147 56.48 118.347 57.2267 117.12 57.76C115.573 58.4533 113.6 59.2533 111.2 60.16C108.8 61.0667 106.373 61.9467 103.92 62.8C101.52 63.6 99.44 64.2667 97.68 64.8ZM136.24 71.52H146.32C148.293 71.52 149.6 71.2533 150.24 70.72C150.88 70.1333 151.227 68.9333 151.28 67.12H131.28C131.333 68.9333 131.68 70.1333 132.32 70.72C132.96 71.2533 134.267 71.52 136.24 71.52ZM131.28 60.32H151.28C151.227 58.5067 150.88 57.3333 150.24 56.8C149.6 56.2667 148.293 56 146.32 56H136.24C134.267 56 132.96 56.2667 132.32 56.8C131.68 57.3333 131.333 58.5067 131.28 60.32ZM145.2 39.44H149.76C151.733 39.44 153.04 39.1467 153.68 38.56C154.32 37.9733 154.64 36.7467 154.64 34.88H145.2V39.44ZM132.48 39.44H136.96V34.88H127.6C127.6 36.7467 127.92 37.9733 128.56 38.56C129.2 39.1467 130.507 39.44 132.48 39.44ZM145.2 28.88H154.64C154.64 27.0133 154.32 25.8133 153.68 25.28C153.04 24.6933 151.733 24.4 149.76 24.4H145.2V28.88ZM127.6 28.88H136.96V24.4H132.48C130.507 24.4 129.2 24.6933 128.56 25.28C127.92 25.8133 127.6 27.0133 127.6 28.88ZM201.2 57.36C200.133 57.36 199.2 56.9867 198.4 56.24C197.6 55.4933 197.147 54.56 197.04 53.44C196.88 51.4133 196.72 49.0933 196.56 46.48C196.453 43.8667 196.32 41.2 196.16 38.48C196 35.7067 195.867 33.0667 195.76 30.56C195.653 28.0533 195.573 25.84 195.52 23.92C195.467 22 195.44 20.5867 195.44 19.68V11.76C195.44 10.2133 195.973 8.90666 197.04 7.84C198.16 6.77333 199.547 6.24 201.2 6.24C202.907 6.24 204.293 6.77333 205.36 7.84C206.48 8.90666 207.04 10.2133 207.04 11.76V19.68C207.04 20.5867 206.987 22 206.88 23.92C206.827 25.84 206.747 28.0533 206.64 30.56C206.533 33.0667 206.4 35.7067 206.24 38.48C206.133 41.2 206 43.8667 205.84 46.48C205.68 49.0933 205.52 51.4133 205.36 53.44C205.307 54.56 204.88 55.4933 204.08 56.24C203.28 56.9867 202.32 57.36 201.2 57.36ZM201.2 76.88C199.333 76.88 197.733 76.2133 196.4 74.88C195.067 73.5467 194.4 71.9467 194.4 70.08C194.4 68.2133 195.067 66.6133 196.4 65.28C197.733 63.9467 199.333 63.28 201.2 63.28C203.067 63.28 204.667 63.9467 206 65.28C207.333 66.6133 208 68.2133 208 70.08C208 71.9467 207.333 73.5467 206 74.88C204.667 76.2133 203.067 76.88 201.2 76.88Z" fill="url(#paint1_linear_10944_61303)"/>
<path d="M27.04 42.64L24.1158 45.3693L24.1158 45.3693L27.04 42.64ZM27.04 36.8L24.1158 34.0707L24.1158 34.0707L27.04 36.8ZM40.72 35.6V39.6C42.3379 39.6 43.7964 38.6254 44.4155 37.1307C45.0346 35.636 44.6924 33.9156 43.5484 32.7716L40.72 35.6ZM39.84 34.24L43.6347 32.9751C43.5941 32.853 43.5475 32.733 43.4953 32.6154L39.84 34.24ZM38.88 32.16L35.1813 33.683C35.2063 33.7437 35.2328 33.8038 35.2607 33.8632L38.88 32.16ZM37.68 29.44L33.9813 30.963C34.0063 31.0237 34.0328 31.0838 34.0607 31.1432L37.68 29.44ZM36.8 27.44L33.1585 29.0952C33.179 29.1401 33.2002 29.1847 33.2223 29.2289L36.8 27.44ZM36.56 24.24L32.8735 22.6878C32.8592 22.7217 32.8453 22.7559 32.832 22.7902L36.56 24.24ZM38.72 21.92L40.583 25.4597C42.2108 24.6029 43.0445 22.7463 42.6032 20.9605C42.162 19.1746 40.5596 17.92 38.72 17.92V21.92ZM29.68 20.8L26.6573 23.4197C26.7195 23.4916 26.7843 23.5612 26.8516 23.6284L29.68 20.8ZM29.68 15.28L26.7558 12.5507L26.7488 12.5582L29.68 15.28ZM47.92 14.08V18.08C50.1291 18.08 51.92 16.2891 51.92 14.08H47.92ZM49.2 5.52L51.9358 8.43816L51.9415 8.43279L49.2 5.52ZM56 5.52L53.1716 8.34842C53.202 8.37883 53.2329 8.40874 53.2642 8.43815L56 5.52ZM57.28 14.08H53.28C53.28 16.2891 55.0709 18.08 57.28 18.08V14.08ZM76.64 15.28L73.6172 17.8997C73.6472 17.9343 73.6777 17.9683 73.7088 18.0018L76.64 15.28ZM76.64 20.8L79.5712 23.5218C79.6023 23.4883 79.6328 23.4543 79.6628 23.4197L76.64 20.8ZM67.04 21.92V17.92C65.1849 17.92 63.5732 19.1955 63.147 21.001C62.7208 22.8065 63.5919 24.6681 65.2512 25.4977L67.04 21.92ZM69.12 24.32L65.2887 25.4694C65.2942 25.4878 65.2999 25.5062 65.3057 25.5245L69.12 24.32ZM68.88 27.44L72.5047 29.1315C72.5125 29.1149 72.5202 29.0982 72.5277 29.0815L68.88 27.44ZM67.2 31.12L70.8247 32.8115C70.8317 32.7965 70.8387 32.7815 70.8455 32.7663L67.2 31.12ZM65.04 35.6L61.4623 33.8111C60.8423 35.0511 60.9086 36.5237 61.6374 37.7029C62.3662 38.8822 63.6537 39.6 65.04 39.6V35.6ZM78.96 36.8L81.8842 34.0707V34.0707L78.96 36.8ZM78.96 42.64L81.8842 45.3693V45.3693L78.96 42.64ZM41.6 76L40.3584 79.8024C40.3659 79.8049 40.3734 79.8073 40.3809 79.8097L41.6 76ZM36.08 71.6L32.484 73.3519C32.496 73.3765 32.5083 73.4009 32.5207 73.4253L36.08 71.6ZM36.08 54.08L32.5023 52.2911C32.4961 52.3034 32.4901 52.3158 32.484 52.3281L36.08 54.08ZM41.6 49.6L40.3809 45.7903C40.3734 45.7927 40.3659 45.7951 40.3584 45.7976L41.6 49.6ZM64.08 49.6L62.8384 53.4024C62.8459 53.4049 62.8534 53.4073 62.8609 53.4097L64.08 49.6ZM69.6 54.08L65.9869 55.7962C66.0043 55.8328 66.0222 55.8692 66.0407 55.9053L69.6 54.08ZM69.6 71.6L66.0407 69.7747C66.0283 69.7991 66.016 69.8235 66.004 69.8481L69.6 71.6ZM64.08 76L62.8609 72.1903C62.8534 72.1927 62.8459 72.1951 62.8384 72.1976L64.08 76ZM16.88 77.76L14.1442 80.6781C14.1736 80.7057 14.2034 80.7327 14.2335 80.7594L16.88 77.76ZM15.6 38.72H19.6C19.6 36.9012 18.373 35.3114 16.6136 34.8506C14.8542 34.3897 13.0054 35.1738 12.1137 36.759L15.6 38.72ZM14.08 41.12L10.8251 38.795C10.8137 38.811 10.8024 38.827 10.7912 38.8432L14.08 41.12ZM12.64 43.2L15.9169 45.4938C15.9209 45.4882 15.9248 45.4825 15.9288 45.4768L12.64 43.2ZM9.52 45.2L10.152 49.1498C10.203 49.1416 10.2538 49.1325 10.3045 49.1223L9.52 45.2ZM5.92 44.48L3.57804 47.7227C3.63113 47.7611 3.68515 47.7981 3.74005 47.8338L5.92 44.48ZM5.04 38.24L8.17953 40.7186C8.19475 40.6993 8.20979 40.6799 8.22465 40.6603L5.04 38.24ZM10.96 29.04L7.47088 27.084C7.46752 27.09 7.46417 27.096 7.46084 27.102L10.96 29.04ZM16.16 18.32L12.4806 16.7509C12.4741 16.7662 12.4676 16.7816 12.4613 16.797L16.16 18.32ZM19.68 8.4L15.824 7.33628C15.8214 7.34586 15.8188 7.35545 15.8162 7.36505L19.68 8.4ZM22 5.12L23.9846 8.59297L23.9846 8.59297L22 5.12ZM25.68 4.72L26.8446 0.893301C26.816 0.884594 26.7873 0.876207 26.7585 0.868143L25.68 4.72ZM28.32 7.04L24.6785 8.69521C24.7094 8.76305 24.7421 8.83001 24.7767 8.89602L28.32 7.04ZM28.56 10.96L32.3845 12.132C32.3919 12.1077 32.3991 12.0833 32.4061 12.0589L28.56 10.96ZM24.56 21.6L20.8942 19.9994C20.6738 20.5042 20.56 21.0492 20.56 21.6H24.56ZM23.2 77.76L20.5535 74.7607C20.5234 74.7873 20.4936 74.8143 20.4642 74.8419L23.2 77.76ZM58.64 68.56L59.4558 72.4759C59.5075 72.4652 59.5589 72.4534 59.6101 72.4406L58.64 68.56ZM61.2 66.8L57.6649 64.9285C57.6503 64.9558 57.6362 64.9834 57.6223 65.0112L61.2 66.8ZM61.2 58.96L57.5807 60.6632C57.6219 60.7507 57.6663 60.8367 57.7137 60.921L61.2 58.96ZM58.64 57.12L57.6699 61.0006H57.6699L58.64 57.12ZM47.04 57.2L48.0101 61.0806C48.0464 61.0715 48.0825 61.0619 48.1185 61.0519L47.04 57.2ZM44.48 59.04L48.0577 60.8289C48.0719 60.8005 48.0858 60.7719 48.0993 60.7432L44.48 59.04ZM44.48 66.72L40.8607 68.4232C40.8742 68.4519 40.8881 68.4805 40.9023 68.5089L44.48 66.72ZM47.04 68.48L46.0699 72.3606C46.0821 72.3636 46.0943 72.3666 46.1065 72.3695L47.04 68.48ZM47.44 35.6L44.6116 32.7716C43.4676 33.9156 43.1254 35.636 43.7445 37.1307C44.3636 38.6254 45.8222 39.6 47.44 39.6V35.6ZM55.36 35.6V39.6C56.9095 39.6 58.3195 38.7052 58.9793 37.3032L55.36 35.6ZM56.96 32L53.31 30.3638C53.301 30.3839 53.2921 30.4041 53.2834 30.4243L56.96 32ZM58.96 27.52L62.6153 29.1445C62.6225 29.1283 62.6296 29.112 62.6366 29.0957L58.96 27.52ZM60.32 24.16L56.6648 22.5354C56.624 22.6271 56.5868 22.7202 56.553 22.8147L60.32 24.16ZM62.24 21.92L64.36 25.312C65.8732 24.3662 66.5769 22.5326 66.085 20.8173C65.5931 19.102 64.0244 17.92 62.24 17.92V21.92ZM43.52 21.92V17.92C41.7416 17.92 40.1767 19.0942 39.6795 20.8016C39.1823 22.5091 39.8721 24.3399 41.3725 25.2946L43.52 21.92ZM45.04 23.6L48.6177 21.8111C48.5846 21.7449 48.5497 21.6797 48.513 21.6154L45.04 23.6ZM46.08 25.92L42.3935 27.4722C42.4161 27.5261 42.44 27.5795 42.4651 27.6323L46.08 25.92ZM48.32 30.96L44.5747 32.3645C44.5998 32.4315 44.6267 32.4977 44.6554 32.5633L48.32 30.96ZM48.56 33.52L44.6794 32.5499C44.664 32.6114 44.6501 32.6733 44.6377 32.7355L48.56 33.52ZM30 39.84C29.9106 39.84 29.8582 39.8327 29.8364 39.8288C29.8155 39.825 29.8204 39.8239 29.8428 39.833C29.866 39.8424 29.8942 39.8571 29.9218 39.8762C29.9348 39.8852 29.9452 39.8935 29.9529 39.9001C29.9566 39.9034 29.9595 39.906 29.9614 39.9079C29.9634 39.9098 29.9643 39.9108 29.9642 39.9107L24.1158 45.3693C25.7144 47.0821 27.8128 47.84 30 47.84V39.84ZM29.9642 39.9107C29.9371 39.8816 29.9264 39.8653 29.9247 39.8625C29.9232 39.8602 29.9254 39.8636 29.928 39.8702C29.9306 39.8767 29.9294 39.876 29.9271 39.8633C29.9247 39.85 29.92 39.8171 29.92 39.76H21.92C21.92 41.8668 22.66 43.8095 24.1158 45.3693L29.9642 39.9107ZM29.92 39.76C29.92 39.6791 29.9264 39.6261 29.9316 39.5963C29.9342 39.5812 29.9366 39.5709 29.9383 39.5649C29.9399 39.5589 29.941 39.556 29.9411 39.5556C29.9413 39.5552 29.941 39.556 29.9403 39.5574C29.9396 39.5589 29.939 39.5597 29.9392 39.5595C29.9393 39.5593 29.9407 39.557 29.9443 39.5524C29.9479 39.5478 29.9542 39.54 29.9642 39.5293L24.1158 34.0707C22.625 35.668 21.92 37.6536 21.92 39.76H29.92ZM29.9642 39.5293C29.9643 39.5292 29.9634 39.5302 29.9614 39.5321C29.9595 39.534 29.9566 39.5366 29.9529 39.5399C29.9452 39.5465 29.9348 39.5548 29.9218 39.5638C29.8942 39.5829 29.866 39.5976 29.8428 39.607C29.8204 39.6161 29.8155 39.615 29.8364 39.6112C29.8582 39.6073 29.9106 39.6 30 39.6V31.6C27.8128 31.6 25.7144 32.3579 24.1158 34.0707L29.9642 39.5293ZM30 39.6H40.72V31.6H30V39.6ZM43.5484 32.7716C43.5114 32.7345 43.5153 32.7314 43.5383 32.767C43.5625 32.8045 43.6012 32.8745 43.6347 32.9751L36.0453 35.5049C36.436 36.6771 37.1097 37.6465 37.8916 38.4284L43.5484 32.7716ZM43.4953 32.6154C43.264 32.0952 42.9294 31.3707 42.4993 30.4568L35.2607 33.8632C35.684 34.7626 35.9893 35.4248 36.1848 35.8646L43.4953 32.6154ZM42.5787 30.637C42.1798 29.6683 41.7533 28.7016 41.2993 27.7368L34.0607 31.1432C34.4601 31.9918 34.8335 32.8383 35.1813 33.683L42.5787 30.637ZM41.3787 27.917C40.9984 26.9933 40.6595 26.2148 40.3777 25.6511L33.2223 29.2289C33.3672 29.5186 33.615 30.0734 33.9813 30.963L41.3787 27.917ZM40.4415 25.7848C40.3307 25.541 40.3273 25.4402 40.3288 25.4608C40.3297 25.4721 40.3307 25.505 40.3238 25.553C40.3167 25.6015 40.3039 25.6489 40.288 25.6898L32.832 22.7902C31.975 24.9939 32.298 27.2021 33.1585 29.0952L40.4415 25.7848ZM40.2465 25.7922C40.298 25.6701 40.3524 25.581 40.583 25.4597L36.857 18.3803C35.0609 19.3256 33.6754 20.7832 32.8735 22.6878L40.2465 25.7922ZM38.72 17.92H32.56V25.92H38.72V17.92ZM32.56 17.92C32.4788 17.92 32.4305 17.9135 32.4095 17.9099C32.3894 17.9064 32.3918 17.905 32.4098 17.912C32.4284 17.9192 32.4517 17.9307 32.4746 17.9458C32.4974 17.9607 32.5087 17.9718 32.5084 17.9716L26.8516 23.6284C28.4351 25.2119 30.455 25.92 32.56 25.92V17.92ZM32.7028 18.1803C32.674 18.1471 32.6603 18.1258 32.655 18.117C32.6521 18.1123 32.6508 18.1095 32.6503 18.1085C32.65 18.1079 32.6498 18.1076 32.6498 18.1075C32.6497 18.1073 32.6497 18.1073 32.6497 18.1072C32.6497 18.1072 32.6496 18.1071 32.6495 18.1068C32.6494 18.1064 32.6492 18.1058 32.649 18.1048C32.6485 18.1029 32.6474 18.0988 32.6462 18.0919C32.6439 18.0786 32.64 18.0493 32.64 18H24.64C24.64 20.021 25.3284 21.8864 26.6573 23.4197L32.7028 18.1803ZM32.64 18C32.64 17.9505 32.644 17.9261 32.6447 17.9221C32.6451 17.9199 32.6448 17.9217 32.6434 17.9269C32.642 17.9321 32.6397 17.9395 32.6362 17.9485C32.6327 17.9576 32.6286 17.967 32.624 17.9764C32.6193 17.9856 32.6148 17.9936 32.6108 17.9998C32.6069 18.006 32.6043 18.0095 32.6038 18.0102C32.6032 18.0109 32.6054 18.008 32.6112 18.0018L26.7488 12.5582C25.3338 14.082 24.64 15.9758 24.64 18H32.64ZM32.6042 18.0093C32.6116 18.0014 32.6042 18.0106 32.5807 18.0271C32.5567 18.044 32.5279 18.06 32.4985 18.0723C32.4695 18.0844 32.4533 18.0872 32.4572 18.0865C32.462 18.0856 32.4942 18.08 32.56 18.08V10.08C30.3675 10.08 28.318 10.8769 26.7558 12.5507L32.6042 18.0093ZM32.56 18.08H47.92V10.08H32.56V18.08ZM51.92 14.08V8.8H43.92V14.08H51.92ZM51.92 8.8C51.92 8.51568 51.9635 8.40148 51.9663 8.39417C51.968 8.38987 51.9645 8.39946 51.9538 8.4153C51.943 8.43118 51.9346 8.43925 51.9358 8.43815L46.4642 2.60184C44.6551 4.29791 43.92 6.53034 43.92 8.8H51.92ZM51.9415 8.43279C52.0194 8.35943 52.1466 8.24 52.64 8.24V0.239995C50.3601 0.239995 48.1939 0.973897 46.4585 2.6072L51.9415 8.43279ZM52.64 8.24C52.922 8.24 53.0562 8.28277 53.096 8.29795C53.1252 8.30908 53.1409 8.3177 53.1716 8.34842L58.8284 2.69158C57.1118 0.974937 54.916 0.239995 52.64 0.239995V8.24ZM53.2642 8.43815C53.2654 8.43925 53.257 8.43118 53.2462 8.4153C53.2355 8.39946 53.232 8.38987 53.2337 8.39417C53.2365 8.40148 53.28 8.51568 53.28 8.8H61.28C61.28 6.53034 60.5449 4.29791 58.7358 2.60184L53.2642 8.43815ZM53.28 8.8V14.08H61.28V8.8H53.28ZM57.28 18.08H73.76V10.08H57.28V18.08ZM73.76 18.08C73.9385 18.08 73.9483 18.1085 73.8615 18.0723C73.8196 18.0548 73.7701 18.0282 73.7204 17.9922C73.671 17.9563 73.6367 17.9222 73.6172 17.8997L79.6628 12.6603C78.0855 10.8404 75.9428 10.08 73.76 10.08V18.08ZM73.7088 18.0018C73.7146 18.008 73.7168 18.0109 73.7163 18.0102C73.7157 18.0095 73.7131 18.006 73.7092 17.9998C73.7052 17.9936 73.7007 17.9856 73.696 17.9764C73.6914 17.967 73.6873 17.9576 73.6838 17.9485C73.6803 17.9395 73.678 17.9321 73.6766 17.9269C73.6752 17.9217 73.6749 17.9199 73.6753 17.9221C73.676 17.9261 73.68 17.9505 73.68 18H81.68C81.68 15.9758 80.9862 14.082 79.5712 12.5582L73.7088 18.0018ZM73.68 18C73.68 18.0493 73.6761 18.0786 73.6738 18.0919C73.6726 18.0988 73.6715 18.1029 73.671 18.1048C73.6708 18.1058 73.6706 18.1064 73.6705 18.1068C73.6704 18.1071 73.6703 18.1072 73.6703 18.1072C73.6703 18.1073 73.6703 18.1073 73.6702 18.1075C73.6702 18.1076 73.67 18.1079 73.6698 18.1085C73.6693 18.1095 73.6679 18.1123 73.665 18.117C73.6597 18.1258 73.646 18.1471 73.6172 18.1803L79.6628 23.4197C80.9916 21.8864 81.68 20.021 81.68 18H73.68ZM73.7088 18.0782C73.7374 18.0474 73.7773 18.0117 73.8266 17.9783C73.8758 17.945 73.9198 17.9238 73.9502 17.912C74.0115 17.8881 73.9699 17.92 73.76 17.92V25.92C75.8536 25.92 77.9688 25.2474 79.5712 23.5218L73.7088 18.0782ZM73.76 17.92H67.04V25.92H73.76V17.92ZM65.2512 25.4977C65.3148 25.5296 65.3459 25.5518 65.3546 25.5584C65.359 25.5617 65.3588 25.5619 65.355 25.5584C65.3512 25.5548 65.345 25.5486 65.3372 25.5397C65.3295 25.5308 65.3215 25.5205 65.3137 25.5093C65.306 25.4981 65.2996 25.4876 65.2946 25.4784C65.284 25.4588 65.2838 25.4532 65.2887 25.4694L72.9513 23.1706C72.2901 20.9667 70.8038 19.3298 68.8289 18.3423L65.2512 25.4977ZM65.3057 25.5245C65.3088 25.5345 65.3104 25.5411 65.3112 25.5446C65.3116 25.5464 65.3118 25.5476 65.3119 25.5483C65.312 25.549 65.312 25.5494 65.3121 25.5494C65.3121 25.5494 65.312 25.5493 65.312 25.549C65.312 25.5489 65.312 25.5488 65.312 25.5488C65.312 25.5487 65.312 25.5486 65.312 25.5487C65.312 25.5487 65.312 25.5487 65.312 25.5489C65.312 25.549 65.312 25.5493 65.312 25.5496C65.312 25.5503 65.3119 25.5514 65.3118 25.5532C65.3113 25.5595 65.3053 25.6363 65.2323 25.7985L72.5277 29.0815C73.367 27.2162 73.5809 25.1629 72.9343 23.1155L65.3057 25.5245ZM65.2553 25.7485C64.8709 26.5721 64.3025 27.8174 63.5545 29.4737L70.8455 32.7663C71.5909 31.1159 72.1424 29.9079 72.5047 29.1315L65.2553 25.7485ZM63.5753 29.4284C62.8418 31.0002 62.1375 32.4608 61.4623 33.8111L68.6177 37.3888C69.3292 35.9659 70.0649 34.4398 70.8247 32.8115L63.5753 29.4284ZM65.04 39.6H75.92V31.6H65.04V39.6ZM75.92 39.6C76.1436 39.6 76.2065 39.6345 76.1713 39.6206C76.1548 39.6141 76.1275 39.601 76.0967 39.5799C76.0658 39.5589 76.0452 39.5394 76.0358 39.5293L81.8842 34.0707C80.2515 32.3214 78.1035 31.6 75.92 31.6V39.6ZM76.0358 39.5293C76.0458 39.54 76.0521 39.5478 76.0557 39.5524C76.0593 39.557 76.0607 39.5593 76.0609 39.5595C76.061 39.5597 76.0605 39.5589 76.0597 39.5574C76.059 39.556 76.0587 39.5552 76.0589 39.5556C76.059 39.556 76.0601 39.5589 76.0617 39.5649C76.0634 39.5709 76.0658 39.5812 76.0684 39.5963C76.0736 39.6261 76.08 39.6791 76.08 39.76H84.08C84.08 37.6536 83.375 35.668 81.8842 34.0707L76.0358 39.5293ZM76.08 39.76C76.08 39.8171 76.0753 39.85 76.0729 39.8633C76.0706 39.876 76.0695 39.8767 76.072 39.8702C76.0746 39.8636 76.0768 39.8602 76.0754 39.8625C76.0736 39.8653 76.0629 39.8816 76.0358 39.9107L81.8842 45.3693C83.34 43.8095 84.08 41.8668 84.08 39.76H76.08ZM76.0358 39.9107C76.0452 39.9006 76.0658 39.8811 76.0967 39.8601C76.1275 39.839 76.1548 39.8259 76.1713 39.8194C76.2065 39.8055 76.1436 39.84 75.92 39.84V47.84C78.1035 47.84 80.2515 47.1186 81.8842 45.3693L76.0358 39.9107ZM75.92 39.84H30V47.84H75.92V39.84ZM52.88 73.28C48.1843 73.28 44.9054 72.8579 42.8191 72.1903L40.3809 79.8097C43.6279 80.8487 47.8691 81.28 52.88 81.28V73.28ZM42.8416 72.1976C41.0414 71.6098 40.1403 70.7518 39.6393 69.7747L32.5207 73.4253C34.153 76.6082 36.9319 78.6836 40.3584 79.8024L42.8416 72.1976ZM39.676 69.8481C39.0429 68.5487 38.56 66.3369 38.56 62.88H30.56C30.56 66.8898 31.0904 70.4913 32.484 73.3519L39.676 69.8481ZM38.56 62.88C38.56 59.3594 39.0457 57.1256 39.676 55.8319L32.484 52.3281C31.0876 55.1944 30.56 58.8273 30.56 62.88H38.56ZM39.6577 55.8689C40.1723 54.8396 41.0764 53.9788 42.8416 53.4024L40.3584 45.7976C36.897 46.9278 34.121 49.0537 32.5023 52.2911L39.6577 55.8689ZM42.8191 53.4097C44.9054 52.7421 48.1843 52.32 52.88 52.32V44.32C47.8691 44.32 43.6279 44.7513 40.3809 45.7903L42.8191 53.4097ZM52.88 52.32C57.5821 52.32 60.8206 52.7435 62.8384 53.4024L65.3216 45.7976C62.1128 44.7498 57.8845 44.32 52.88 44.32V52.32ZM62.8609 53.4097C64.6866 53.9939 65.5357 54.8463 65.9869 55.7962L73.2131 52.3638C71.6376 49.047 68.8068 46.9128 65.2991 45.7903L62.8609 53.4097ZM66.0407 55.9053C66.6918 57.1749 67.2 59.3781 67.2 62.88H75.2C75.2 58.8085 74.6415 55.1451 73.1593 52.2547L66.0407 55.9053ZM67.2 62.88C67.2 66.3176 66.6949 68.4991 66.0407 69.7747L73.1593 73.4253C74.6384 70.5409 75.2 66.909 75.2 62.88H67.2ZM66.004 69.8481C65.5672 70.7449 64.7225 71.5946 62.8609 72.1903L65.2991 79.8097C68.7708 78.6988 71.6062 76.6151 73.196 73.3519L66.004 69.8481ZM62.8384 72.1976C60.8206 72.8565 57.5821 73.28 52.88 73.28V81.28C57.8845 81.28 62.1128 80.8502 65.3216 79.8024L62.8384 72.1976ZM20.08 74.96C19.8124 74.96 19.6908 74.9056 19.5265 74.7607L14.2335 80.7594C15.8826 82.2144 17.8943 82.96 20.08 82.96V74.96ZM19.6158 74.8419C19.6062 74.8329 19.6101 74.835 19.6189 74.8479C19.6279 74.861 19.6329 74.8719 19.6339 74.8744C19.6374 74.8831 19.6 74.7984 19.6 74.56H11.6C11.6 76.829 12.3682 79.0131 14.1442 80.6781L19.6158 74.8419ZM19.6 74.56V38.72H11.6V74.56H19.6ZM12.1137 36.759C11.6996 37.4952 11.2694 38.1729 10.8251 38.795L17.3349 43.445C17.9572 42.5737 18.5404 41.6515 19.0863 40.681L12.1137 36.759ZM10.7912 38.8432C10.3112 39.5365 9.83123 40.2298 9.35123 40.9232L15.9288 45.4768C16.4088 44.7835 16.8888 44.0902 17.3688 43.3968L10.7912 38.8432ZM9.36307 40.9062C9.23507 41.089 9.10897 41.203 8.73554 41.2777L10.3045 49.1223C12.5977 48.6637 14.5516 47.4443 15.9169 45.4938L9.36307 40.9062ZM8.88804 41.2502C8.46783 41.3175 8.28142 41.2442 8.09995 41.1262L3.74005 47.8338C5.69192 49.1025 7.90551 49.5092 10.152 49.1498L8.88804 41.2502ZM8.26197 41.2373C8.2214 41.208 8.20037 41.1873 8.19109 41.1774C8.18215 41.1678 8.17729 41.161 8.17313 41.1542C8.16885 41.1472 8.13048 41.085 8.10085 40.9146L0.219156 42.2854C0.601154 44.4819 1.72478 46.3843 3.57804 47.7227L8.26197 41.2373ZM8.10085 40.9146C8.09185 40.8629 8.09261 40.8385 8.09268 40.8363C8.09272 40.835 8.09231 40.8427 8.08949 40.8534C8.08675 40.8639 8.08577 40.8619 8.09474 40.8444C8.10421 40.8259 8.12825 40.7835 8.17953 40.7186L1.90047 35.7614C0.425263 37.63 -0.197102 39.8919 0.219156 42.2854L8.10085 40.9146ZM8.22465 40.6603C10.3864 37.816 12.4624 34.5833 14.4592 30.978L7.46084 27.102C5.61761 30.43 3.74696 33.3307 1.85535 35.8197L8.22465 40.6603ZM14.4491 30.996C16.4987 27.34 18.3025 23.6223 19.8587 19.843L12.4613 16.797C11.0308 20.271 9.36798 23.7 7.47088 27.084L14.4491 30.996ZM19.8394 19.8891C21.441 16.1336 22.6839 12.6454 23.5438 9.43494L15.8162 7.36505C15.0761 10.128 13.9724 13.253 12.4806 16.7509L19.8394 19.8891ZM23.536 9.46371C23.6499 9.05081 23.7735 8.83189 23.8457 8.72986C23.9085 8.64105 23.9508 8.61224 23.9846 8.59297L20.0155 1.64702C17.7658 2.93256 16.4593 5.03338 15.824 7.33628L23.536 9.46371ZM23.9846 8.59297C24.1024 8.52565 24.2149 8.46361 24.6015 8.57185L26.7585 0.868143C24.4784 0.229713 22.1376 0.434348 20.0154 1.64703L23.9846 8.59297ZM24.5154 8.5467C24.5806 8.56655 24.6131 8.58305 24.6227 8.58828C24.6314 8.593 24.6279 8.59198 24.6195 8.58466C24.6112 8.57737 24.6108 8.5749 24.6181 8.58504C24.6261 8.59607 24.6485 8.62917 24.6785 8.69521L31.9615 5.38479C30.9555 3.17173 29.177 1.60314 26.8446 0.893301L24.5154 8.5467ZM24.7767 8.89602C24.7833 8.90875 24.9264 9.11737 24.7139 9.86112L32.4061 12.0589C33.0469 9.81596 33.03 7.41124 31.8633 5.18397L24.7767 8.89602ZM24.7356 9.78799C23.7745 12.9241 22.4979 16.3265 20.8942 19.9994L28.2258 23.2006C29.9288 19.3001 31.3189 15.6092 32.3845 12.132L24.7356 9.78799ZM20.56 21.6V74.56H28.56V21.6H20.56ZM20.56 74.56C20.56 74.6667 20.5509 74.7335 20.5445 74.7676C20.5383 74.8005 20.5338 74.8068 20.5387 74.7954C20.5438 74.7833 20.5524 74.7679 20.5621 74.7546C20.5714 74.7418 20.5721 74.7443 20.5535 74.7607L25.8465 80.7594C27.708 79.1168 28.56 76.9089 28.56 74.56H20.56ZM20.4642 74.8419C20.3952 74.9066 20.3585 74.9211 20.3441 74.9266C20.3264 74.9334 20.2519 74.96 20.08 74.96V82.96C22.2683 82.96 24.3022 82.2096 25.9358 80.6782L20.4642 74.8419ZM52.88 72.96C55.5063 72.96 57.7607 72.8291 59.4558 72.4759L57.8242 64.6441C56.9593 64.8243 55.3737 64.96 52.88 64.96V72.96ZM59.6101 72.4406C61.5695 71.9507 63.6509 70.8426 64.7777 68.5888L57.6223 65.0112C57.6742 64.9073 57.7394 64.8124 57.8104 64.7325C57.8803 64.6539 57.9409 64.6065 57.9739 64.5838C58.0322 64.5438 57.9678 64.605 57.6699 64.6794L59.6101 72.4406ZM64.7352 68.6716C65.6662 66.9128 65.92 64.8063 65.92 62.8H57.92C57.92 63.5086 57.8709 64.0358 57.8033 64.4114C57.7344 64.7941 57.6613 64.9352 57.6649 64.9285L64.7352 68.6716ZM65.92 62.8C65.92 60.8495 65.6685 58.7451 64.6863 56.999L57.7137 60.921C57.6819 60.8645 57.7441 60.9537 57.8085 61.2972C57.8714 61.6328 57.92 62.1226 57.92 62.8H65.92ZM64.8193 57.2568C63.7297 54.9414 61.6593 53.7517 59.6101 53.2394L57.6699 61.0006C57.9398 61.0681 57.9797 61.1214 57.9055 61.0681C57.8657 61.0395 57.8053 60.9886 57.7404 60.9115C57.6748 60.8337 57.6206 60.748 57.5807 60.6632L64.8193 57.2568ZM59.6101 53.2394C57.8406 52.797 55.5219 52.64 52.88 52.64V60.64C55.3581 60.64 56.8794 60.803 57.6699 61.0006L59.6101 53.2394ZM52.88 52.64C50.2084 52.64 47.8263 52.826 45.9615 53.3481L48.1185 61.0519C48.9204 60.8273 50.4316 60.64 52.88 60.64V52.64ZM46.0699 53.3194C44.0207 53.8317 41.9504 55.0214 40.8607 57.3368L48.0993 60.7432C48.0594 60.828 48.0052 60.9137 47.9397 60.9915C47.8747 61.0686 47.8143 61.1195 47.7746 61.1481C47.7003 61.2014 47.7402 61.1481 48.0101 61.0806L46.0699 53.3194ZM40.9023 57.2511C40.0703 58.9151 39.84 60.8669 39.84 62.72H47.84C47.84 62.0885 47.8828 61.6191 47.9408 61.2854C47.9999 60.9456 48.0622 60.8199 48.0577 60.8289L40.9023 57.2511ZM39.84 62.72C39.84 64.6884 40.0604 66.7225 40.8607 68.4232L48.0993 65.0168C48.0463 64.9042 47.84 64.2716 47.84 62.72H39.84ZM40.9023 68.5089C42.0292 70.7626 44.1105 71.8707 46.0699 72.3606L48.0101 64.5994C47.7123 64.525 47.6478 64.4638 47.7061 64.5038C47.7391 64.5265 47.7997 64.5739 47.8696 64.6525C47.9407 64.7324 48.0058 64.8273 48.0577 64.9311L40.9023 68.5089ZM46.1065 72.3695C47.9041 72.801 50.2266 72.96 52.88 72.96V64.96C50.4134 64.96 48.8426 64.799 47.9735 64.5905L46.1065 72.3695ZM47.44 39.6H55.36V31.6H47.44V39.6ZM58.9793 37.3032C59.4341 36.3367 59.988 35.0891 60.6366 33.5757L53.2834 30.4243C52.652 31.8975 52.1393 33.0499 51.7407 33.8968L58.9793 37.3032ZM60.61 33.6362C61.305 32.086 61.9734 30.5887 62.6153 29.1445L55.3048 25.8954C54.6666 27.3313 54.0017 28.8207 53.31 30.3638L60.61 33.6362ZM62.6366 29.0957C63.2829 27.5877 63.7767 26.374 64.087 25.5053L56.553 22.8147C56.3299 23.4393 55.9172 24.4656 55.2834 25.9443L62.6366 29.0957ZM63.9753 25.7846C64.093 25.5197 64.214 25.4032 64.36 25.312L60.12 18.528C58.5593 19.5034 57.4004 20.8803 56.6648 22.5354L63.9753 25.7846ZM62.24 17.92H43.52V25.92H62.24V17.92ZM41.3725 25.2946C41.2961 25.2461 41.3876 25.2706 41.567 25.5845L48.513 21.6154C47.839 20.436 46.9172 19.3406 45.6675 18.5454L41.3725 25.2946ZM41.4623 25.3889C41.6705 25.8052 41.9775 26.4843 42.3935 27.4722L49.7665 24.3678C49.3292 23.329 48.9429 22.4614 48.6177 21.8111L41.4623 25.3889ZM42.4651 27.6323C42.9322 28.6185 43.372 29.5759 43.7848 30.5046L51.0952 27.2554C50.6547 26.2641 50.1878 25.2482 49.695 24.2077L42.4651 27.6323ZM43.7848 30.5046C44.2097 31.4607 44.4602 32.0591 44.5747 32.3645L52.0653 29.5555C51.8598 29.0075 51.5236 28.2193 51.0952 27.2554L43.7848 30.5046ZM44.6554 32.5633C44.6715 32.6001 44.6775 32.621 44.6791 32.6269C44.6805 32.6324 44.6788 32.6273 44.6775 32.6134C44.6769 32.6068 44.6764 32.5993 44.6764 32.5912C44.6763 32.5832 44.6766 32.5755 44.6772 32.5684C44.6783 32.5536 44.6802 32.5467 44.6794 32.5499L52.4406 34.4901C52.8816 32.7261 52.6901 30.9693 51.9846 29.3567L44.6554 32.5633ZM44.6377 32.7355C44.6347 32.7505 44.6325 32.7561 44.633 32.7547C44.6336 32.753 44.6354 32.7487 44.6381 32.7436C44.6409 32.7385 44.6422 32.7371 44.64 32.74C44.6377 32.7431 44.6293 32.7538 44.6116 32.7716L50.2684 38.4284C51.4034 37.2934 52.1647 35.8927 52.4823 34.3045L44.6377 32.7355ZM123.52 44.96L121.997 48.6587C122.028 48.6716 122.06 48.6841 122.091 48.6962L123.52 44.96ZM119.68 41.28L116.015 42.8833L119.68 41.28ZM120.88 20.8L123.844 23.4861C123.858 23.471 123.871 23.4558 123.885 23.4405L120.88 20.8ZM129.2 17.84L129.413 21.8343C130.848 21.7578 132.132 20.9174 132.776 19.6328C133.42 18.3482 133.325 16.8169 132.528 15.6212L129.2 17.84ZM128.56 16.88L124.982 18.6688C125.056 18.8172 125.14 18.9608 125.232 19.0988L128.56 16.88ZM127.52 15.12L123.991 17.0024C124.042 17.0981 124.097 17.1917 124.155 17.283L127.52 15.12ZM126.16 12.72L122.582 14.5089C122.628 14.6004 122.677 14.6902 122.73 14.778L126.16 12.72ZM125.04 10.72L121.578 12.7241C121.621 12.7971 121.665 12.8687 121.712 12.9388L125.04 10.72ZM124.8 7.59999L128.514 9.08556V9.08556L124.8 7.59999ZM127.04 5.2L125.445 1.53172C125.38 1.56017 125.315 1.59037 125.251 1.62229L127.04 5.2ZM130.56 4.96L131.825 1.16526L131.825 1.16526L130.56 4.96ZM133.12 7.04L136.617 5.09743C136.605 5.0768 136.594 5.05628 136.582 5.03585L133.12 7.04ZM134.24 9.04L130.754 11.001C130.772 11.0336 130.791 11.0659 130.81 11.098L134.24 9.04ZM135.6 11.44L132.071 13.3224C132.122 13.4181 132.177 13.5117 132.235 13.603L135.6 11.44ZM136.64 13.12L140.218 11.3312C140.185 11.265 140.15 11.1997 140.113 11.1354L136.64 13.12ZM136.96 15.68L140.825 16.7106C140.83 16.6905 140.836 16.6703 140.841 16.6501L136.96 15.68ZM135.76 17.84L132.811 15.1371C131.74 16.3064 131.46 17.9987 132.099 19.4506C132.737 20.9026 134.174 21.84 135.76 21.84V17.84ZM142.8 17.84V21.84C144.315 21.84 145.7 20.984 146.378 19.6289L142.8 17.84ZM144.32 14.72L147.926 16.4509C147.935 16.4328 147.943 16.4145 147.952 16.3962L144.32 14.72ZM146.16 10.64L142.528 8.96376C142.518 8.98544 142.508 9.0072 142.499 9.02905L146.16 10.64ZM147.52 7.44L143.836 5.88144C143.806 5.9517 143.779 6.0228 143.753 6.09465L147.52 7.44ZM150.16 4.63999L148.702 0.91502C148.683 0.92247 148.664 0.930066 148.645 0.937807L150.16 4.63999ZM154 4.8L152.389 8.46126C152.447 8.48668 152.505 8.51072 152.564 8.53338L154 4.8ZM156.56 7.36L160.419 6.30753V6.30752L156.56 7.36ZM156.16 10.88L152.582 9.09113L152.582 9.09115L156.16 10.88ZM154.56 13.84L151.063 11.8974C151.045 11.9309 151.027 11.9647 151.009 11.9987L154.56 13.84ZM152.4 17.84L148.918 15.8718C148.227 17.0946 148.227 18.5905 148.92 19.8125C149.613 21.0345 150.896 21.8036 152.3 21.8387L152.4 17.84ZM161.2 20.56L158.282 23.2958C158.297 23.3117 158.312 23.3275 158.327 23.3432L161.2 20.56ZM162.56 41.28L166.225 42.8833L162.56 41.28ZM158.72 44.96L160.149 48.6962C160.18 48.6841 160.212 48.6716 160.243 48.6587L158.72 44.96ZM125.2 75.68L127.769 72.6139L127.761 72.6071L125.2 75.68ZM125.2 51.76L122.681 48.653C122.667 48.6643 122.653 48.6756 122.639 48.6871L125.2 51.76ZM157.28 51.76L154.719 54.8329C154.733 54.8444 154.747 54.8557 154.761 54.867L157.28 51.76ZM157.28 75.68L154.761 72.573C154.73 72.5978 154.7 72.6232 154.67 72.6489L157.28 75.68ZM97.68 64.8L98.7199 68.6625C98.7601 68.6516 98.8002 68.6402 98.84 68.6281L97.68 64.8ZM93.84 64.64L92.1203 68.2514C92.1878 68.2836 92.2562 68.3139 92.3255 68.3422L93.84 64.64ZM91.6 61.84L87.7375 62.8799C87.741 62.8928 87.7445 62.9057 87.7481 62.9185L91.6 61.84ZM92 58.24L88.6462 56.06C88.6367 56.0746 88.6273 56.0893 88.618 56.104L92 58.24ZM95.04 56.16L94.1238 52.2663C94.1181 52.2677 94.1123 52.2691 94.1065 52.2705L95.04 56.16ZM97.92 55.44L96.9499 51.5594C96.9339 51.5634 96.9179 51.5675 96.902 51.5717L97.92 55.44ZM101.2 54.56L102.299 58.4061C104.016 57.9155 105.2 56.3459 105.2 54.56H101.2ZM101.2 32.72H105.2C105.2 30.5109 103.409 28.72 101.2 28.72V32.72ZM92.64 31.6L89.7158 34.3293C89.7471 34.3629 89.7791 34.3959 89.8116 34.4284L92.64 31.6ZM92.64 25.92L95.4684 28.7484C95.5009 28.7159 95.5329 28.6829 95.5642 28.6493L92.64 25.92ZM101.2 24.72V28.72C103.409 28.72 105.2 26.9291 105.2 24.72H101.2ZM102.4 7.68L105.129 10.6042L105.136 10.5981L102.4 7.68ZM108.64 7.68L105.904 10.5981C105.938 10.6294 105.972 10.6602 106.006 10.6903L108.64 7.68ZM109.92 24.72H105.92C105.92 26.9291 107.711 28.72 109.92 28.72V24.72ZM116.4 25.92L113.476 28.6493C113.507 28.6829 113.539 28.7159 113.572 28.7484L116.4 25.92ZM116.4 31.6L119.228 34.4284C119.261 34.3959 119.293 34.3629 119.324 34.3293L116.4 31.6ZM109.92 32.72V28.72C107.711 28.72 105.92 30.5109 105.92 32.72H109.92ZM109.92 51.76H105.92C105.92 53.0458 106.538 54.2532 107.581 55.005C108.624 55.7568 109.965 55.9613 111.185 55.5547L109.92 51.76ZM112.24 50.96L113.585 54.727C113.663 54.6992 113.74 54.6691 113.816 54.6366L112.24 50.96ZM114.32 50.16L115.585 53.9547C115.65 53.9331 115.714 53.9099 115.778 53.885L114.32 50.16ZM117.68 50.08L119.232 46.3935V46.3935L117.68 50.08ZM119.68 52.48L123.561 51.5099C123.554 51.4823 123.547 51.4549 123.539 51.4275L119.68 52.48ZM119.52 55.52L115.792 54.0702L119.52 55.52ZM117.12 57.76L115.525 54.0917C115.511 54.0977 115.498 54.1038 115.484 54.11L117.12 57.76ZM111.2 60.16L112.614 63.9019L111.2 60.16ZM103.92 62.8L105.185 66.5947C105.201 66.5893 105.218 66.5837 105.234 66.578L103.92 62.8ZM150.24 70.72L152.801 73.7929C152.849 73.7526 152.896 73.7112 152.943 73.6686L150.24 70.72ZM151.28 67.12L155.278 67.2376C155.31 66.1568 154.903 65.1092 154.15 64.3335C153.396 63.5577 152.361 63.12 151.28 63.12V67.12ZM131.28 67.12V63.12C130.199 63.12 129.164 63.5577 128.41 64.3335C127.657 65.1092 127.25 66.1568 127.282 67.2376L131.28 67.12ZM132.32 70.72L129.617 73.6686C129.664 73.7112 129.711 73.7526 129.759 73.7929L132.32 70.72ZM131.28 60.32L127.282 60.2024C127.25 61.2832 127.657 62.3308 128.41 63.1065C129.164 63.8823 130.199 64.32 131.28 64.32V60.32ZM151.28 60.32V64.32C152.361 64.32 153.396 63.8823 154.15 63.1065C154.903 62.3308 155.31 61.2832 155.278 60.2024L151.28 60.32ZM150.24 56.8L147.679 59.8729L147.679 59.8729L150.24 56.8ZM132.32 56.8L134.881 59.8729L134.881 59.8729L132.32 56.8ZM145.2 39.44H141.2C141.2 41.6491 142.991 43.44 145.2 43.44V39.44ZM153.68 38.56L156.383 41.5086L156.383 41.5086L153.68 38.56ZM154.64 34.88H158.64C158.64 32.6709 156.849 30.88 154.64 30.88V34.88ZM145.2 34.88V30.88C142.991 30.88 141.2 32.6709 141.2 34.88H145.2ZM136.96 39.44V43.44C139.169 43.44 140.96 41.6491 140.96 39.44H136.96ZM136.96 34.88H140.96C140.96 32.6709 139.169 30.88 136.96 30.88V34.88ZM127.6 34.88V30.88C125.391 30.88 123.6 32.6709 123.6 34.88H127.6ZM128.56 38.56L131.263 35.6114L128.56 38.56ZM145.2 28.88H141.2C141.2 31.0891 142.991 32.88 145.2 32.88V28.88ZM154.64 28.88V32.88C156.849 32.88 158.64 31.0891 158.64 28.88H154.64ZM153.68 25.28L150.977 28.2286C151.024 28.2711 151.071 28.3126 151.119 28.3529L153.68 25.28ZM145.2 24.4V20.4C142.991 20.4 141.2 22.1909 141.2 24.4H145.2ZM127.6 28.88H123.6C123.6 31.0891 125.391 32.88 127.6 32.88V28.88ZM136.96 28.88V32.88C139.169 32.88 140.96 31.0891 140.96 28.88H136.96ZM136.96 24.4H140.96C140.96 22.1909 139.169 20.4 136.96 20.4V24.4ZM128.56 25.28L131.121 28.3529C131.169 28.3126 131.217 28.2711 131.263 28.2286L128.56 25.28ZM130.96 42C128.037 42 126.111 41.6681 124.949 41.2238L122.091 48.6962C124.556 49.6386 127.59 50 130.96 50V42ZM125.043 41.2613C124.132 40.8862 123.652 40.3799 123.345 39.6767L116.015 42.8833C117.201 45.5935 119.281 47.5404 121.997 48.6587L125.043 41.2613ZM123.345 39.6767C122.91 38.6825 122.56 36.9839 122.56 34.32H114.56C114.56 37.5227 114.957 40.4642 116.015 42.8833L123.345 39.6767ZM122.56 34.32V29.52H114.56V34.32H122.56ZM122.56 29.52C122.56 25.703 123.32 24.0641 123.844 23.4861L117.916 18.1139C115.347 20.9492 114.56 25.1236 114.56 29.52H122.56ZM123.885 23.4405C124.357 22.9029 125.772 22.0285 129.413 21.8343L128.987 13.8457C124.628 14.0782 120.496 15.1771 117.875 18.1595L123.885 23.4405ZM132.528 15.6212C132.422 15.4612 132.315 15.3012 132.208 15.1412L125.552 19.5788C125.658 19.7388 125.765 19.8988 125.872 20.0588L132.528 15.6212ZM132.208 15.1412C132.102 14.9812 131.995 14.8212 131.888 14.6612L125.232 19.0988C125.338 19.2588 125.445 19.4188 125.552 19.5788L132.208 15.1412ZM132.138 15.0912C131.827 14.4702 131.389 13.7406 130.885 12.957L124.155 17.283C124.612 17.9927 124.866 18.4364 124.982 18.6688L132.138 15.0912ZM131.049 13.2376C130.59 12.3766 130.104 11.5181 129.59 10.662L122.73 14.778C123.176 15.5219 123.596 16.2634 123.991 17.0024L131.049 13.2376ZM129.738 10.9311C129.278 10.0118 128.82 9.17899 128.368 8.50119L121.712 12.9388C121.9 13.221 122.189 13.7215 122.582 14.5089L129.738 10.9311ZM128.502 8.71585C128.484 8.68568 128.489 8.68729 128.5 8.71977C128.511 8.75371 128.523 8.80672 128.528 8.87321C128.533 8.9399 128.529 8.9993 128.522 9.04449C128.515 9.08829 128.507 9.10313 128.514 9.08556L121.086 6.11443C120.193 8.34673 120.39 10.6718 121.578 12.7241L128.502 8.71585ZM128.514 9.08556C128.562 8.96575 128.602 8.89121 128.829 8.77771L125.251 1.62229C123.345 2.57545 121.892 4.10091 121.086 6.11443L128.514 9.08556ZM128.635 8.86828C129.086 8.67235 129.237 8.73527 129.295 8.75473L131.825 1.16526C129.643 0.438057 127.448 0.660983 125.445 1.53172L128.635 8.86828ZM129.295 8.75473C129.497 8.82213 129.565 8.88346 129.658 9.04414L136.582 5.03585C135.501 3.16987 133.863 1.84453 131.825 1.16526L129.295 8.75473ZM129.623 8.98257C129.895 9.47172 130.272 10.1455 130.754 11.001L137.726 7.07895C137.248 6.22782 136.878 5.56828 136.617 5.09743L129.623 8.98257ZM130.81 11.098C131.256 11.8419 131.676 12.5834 132.071 13.3224L139.129 9.55764C138.67 8.69659 138.184 7.83805 137.67 6.98202L130.81 11.098ZM132.235 13.603C132.708 14.3389 133.008 14.8263 133.167 15.1046L140.113 11.1354C139.845 10.667 139.452 10.0344 138.965 9.27697L132.235 13.603ZM133.062 14.9088C133.095 14.974 133.08 14.9659 133.071 14.8961C133.067 14.8636 133.065 14.8273 133.068 14.7905C133.07 14.7538 133.075 14.726 133.079 14.7099L140.841 16.6501C141.306 14.7893 141.032 12.9606 140.218 11.3312L133.062 14.9088ZM133.095 14.6494C133.056 14.7957 132.984 14.9486 132.811 15.1371L138.709 20.5429C139.709 19.4514 140.437 18.1643 140.825 16.7106L133.095 14.6494ZM135.76 21.84H142.8V13.84H135.76V21.84ZM146.378 19.6289C146.765 18.8537 147.283 17.7913 147.926 16.4509L140.714 12.9891C140.077 14.3153 139.581 15.3329 139.222 16.0511L146.378 19.6289ZM147.952 16.3962C148.601 14.9889 149.225 13.6072 149.821 12.251L142.499 9.02905C141.922 10.3395 141.319 11.6777 140.688 13.0438L147.952 16.3962ZM149.792 12.3162C150.445 10.9008 150.959 9.70416 151.287 8.78534L143.753 6.09465C143.548 6.66916 143.155 7.60585 142.528 8.96376L149.792 12.3162ZM151.204 8.99855C151.462 8.38897 151.66 8.34824 151.675 8.34218L148.645 0.937807C146.314 1.89175 144.752 3.71769 143.836 5.88144L151.204 8.99855ZM151.618 8.36497C151.744 8.31545 151.916 8.25322 152.389 8.46126L155.611 1.13874C153.417 0.173441 151.029 0.00454855 148.702 0.91502L151.618 8.36497ZM152.564 8.53338C152.853 8.64437 152.901 8.71784 152.852 8.66842C152.826 8.64329 152.791 8.60108 152.758 8.54414C152.725 8.48736 152.708 8.43926 152.701 8.41247L160.419 6.30752C159.689 3.62944 157.715 1.94337 155.436 1.06662L152.564 8.53338ZM152.701 8.41246C152.741 8.55823 152.766 8.72285 152.582 9.09113L159.738 12.6689C160.727 10.6905 161.019 8.50844 160.419 6.30753L152.701 8.41246ZM152.582 9.09115C152.36 9.53547 151.868 10.4495 151.063 11.8974L158.057 15.7826C158.852 14.3505 159.427 13.2912 159.738 12.6688L152.582 9.09115ZM151.009 11.9987C150.281 13.4022 149.584 14.6927 148.918 15.8718L155.882 19.8082C156.602 18.534 157.345 17.1578 158.111 15.6813L151.009 11.9987ZM152.3 21.8387C156.299 21.9387 157.824 22.8074 158.282 23.2958L164.118 17.8242C161.376 14.8993 157.035 13.9546 152.5 13.8412L152.3 21.8387ZM158.327 23.3432C158.864 23.8976 159.68 25.54 159.68 29.52H167.68C167.68 24.9666 166.842 20.6357 164.073 17.7768L158.327 23.3432ZM159.68 29.52V34.32H167.68V29.52H159.68ZM159.68 34.32C159.68 36.9839 159.33 38.6825 158.895 39.6767L166.225 42.8833C167.283 40.4642 167.68 37.5227 167.68 34.32H159.68ZM158.895 39.6767C158.588 40.3799 158.108 40.8862 157.197 41.2613L160.243 48.6587C162.959 47.5404 165.039 45.5935 166.225 42.8833L158.895 39.6767ZM157.291 41.2238C156.129 41.6681 154.203 42 151.28 42V50C154.65 50 157.684 49.6386 160.149 48.6962L157.291 41.2238ZM151.28 42H130.96V50H151.28V42ZM135.36 74.16C130.787 74.16 128.619 73.3263 127.769 72.6139L122.631 78.7461C125.728 81.3404 130.333 82.16 135.36 82.16V74.16ZM127.761 72.6071C127.212 72.1501 126.32 70.7811 126.32 67.04H118.32C118.32 71.6189 119.348 76.0098 122.639 78.7529L127.761 72.6071ZM126.32 67.04V60.48H118.32V67.04H126.32ZM126.32 60.48C126.32 56.6654 127.222 55.2821 127.761 54.8329L122.639 48.6871C119.338 51.4379 118.32 55.8679 118.32 60.48H126.32ZM127.719 54.867C128.576 54.172 130.769 53.36 135.36 53.36V45.36C130.351 45.36 125.77 46.148 122.681 48.653L127.719 54.867ZM135.36 53.36H147.2V45.36H135.36V53.36ZM147.2 53.36C151.808 53.36 153.935 54.179 154.719 54.8329L159.841 48.6871C156.785 46.141 152.192 45.36 147.2 45.36V53.36ZM154.761 54.867C155.326 55.3251 156.24 56.6945 156.24 60.48H164.24C164.24 55.8388 163.181 51.3949 159.799 48.653L154.761 54.867ZM156.24 60.48V67.04H164.24V60.48H156.24ZM156.24 67.04C156.24 70.7516 155.336 72.107 154.761 72.573L159.799 78.787C163.171 76.053 164.24 71.6484 164.24 67.04H156.24ZM154.67 72.6489C153.891 73.3192 151.79 74.16 147.2 74.16V82.16C152.21 82.16 156.829 81.3474 159.89 78.7111L154.67 72.6489ZM147.2 74.16H135.36V82.16H147.2V74.16ZM96.6401 60.9375C95.9817 61.1148 95.6108 61.0427 95.3545 60.9378L92.3255 68.3422C94.4158 69.1973 96.605 69.2319 98.7199 68.6625L96.6401 60.9375ZM95.5597 61.0286C95.5347 61.0166 95.5319 61.0123 95.5413 61.0197C95.5511 61.0275 95.5596 61.0364 95.5635 61.0412C95.5748 61.0554 95.5163 60.9918 95.4519 60.7615L87.7481 62.9185C88.3925 65.2198 89.8288 67.1602 92.1203 68.2514L95.5597 61.0286ZM95.4625 60.8001C95.3816 60.4999 95.3934 60.3607 95.3955 60.3417C95.3966 60.3319 95.3967 60.3385 95.3911 60.3544C95.3856 60.3703 95.3802 60.3787 95.382 60.376L88.618 56.104C87.2639 58.248 87.1361 60.646 87.7375 62.8799L95.4625 60.8001ZM95.3538 60.42C95.4431 60.2825 95.5511 60.1509 95.9735 60.0495L94.1065 52.2705C91.8622 52.8091 89.9436 54.0641 88.6462 56.06L95.3538 60.42ZM95.9562 60.0537C96.9008 59.8314 97.8949 59.5828 98.938 59.3083L96.902 51.5717C95.9184 51.8305 94.9926 52.0619 94.1238 52.2663L95.9562 60.0537ZM98.8901 59.3206C100.002 59.0425 101.139 58.7376 102.299 58.4061L100.101 50.7139C99.0213 51.0224 97.971 51.3041 96.9499 51.5594L98.8901 59.3206ZM105.2 54.56V32.72H97.2V54.56H105.2ZM101.2 28.72H95.6V36.72H101.2V28.72ZM95.6 28.72C95.3929 28.72 95.3294 28.689 95.3556 28.6989C95.3675 28.7034 95.3897 28.7134 95.4159 28.7303C95.442 28.7472 95.46 28.7631 95.4684 28.7716L89.8116 34.4284C91.4301 36.0469 93.4979 36.72 95.6 36.72V28.72ZM95.5642 28.8707C95.5371 28.8416 95.5264 28.8253 95.5247 28.8225C95.5232 28.8202 95.5254 28.8236 95.528 28.8302C95.5306 28.8367 95.5294 28.836 95.5271 28.8233C95.5247 28.81 95.52 28.7771 95.52 28.72H87.52C87.52 30.8268 88.26 32.7695 89.7158 34.3293L95.5642 28.8707ZM95.52 28.72C95.52 28.6626 95.5247 28.6346 95.5255 28.6305C95.5261 28.6273 95.5237 28.641 95.5139 28.6656C95.504 28.6904 95.4911 28.7144 95.4782 28.7338C95.4656 28.7528 95.4595 28.7574 95.4684 28.7484L89.8116 23.0916C88.2657 24.6374 87.52 26.6106 87.52 28.72H95.52ZM95.5642 28.6493C95.5643 28.6492 95.5634 28.6502 95.5614 28.6521C95.5595 28.654 95.5566 28.6566 95.5529 28.6599C95.5452 28.6665 95.5348 28.6748 95.5218 28.6838C95.4942 28.7029 95.466 28.7176 95.4428 28.727C95.4204 28.7361 95.4156 28.735 95.4364 28.7312C95.4582 28.7273 95.5106 28.72 95.6 28.72V20.72C93.4128 20.72 91.3145 21.4779 89.7158 23.1907L95.5642 28.6493ZM95.6 28.72H101.2V20.72H95.6V28.72ZM105.2 24.72V10.88H97.2V24.72H105.2ZM105.2 10.88C105.2 10.5653 105.246 10.443 105.245 10.4445C105.245 10.4466 105.235 10.4711 105.211 10.5075C105.186 10.5444 105.157 10.578 105.129 10.6042L99.6707 4.75578C97.8556 6.44991 97.2 8.6995 97.2 10.88H105.2ZM105.136 10.5981C105.205 10.5334 105.242 10.5189 105.256 10.5134C105.274 10.5066 105.348 10.48 105.52 10.48V2.47999C103.332 2.47999 101.298 3.23036 99.6642 4.76185L105.136 10.5981ZM105.52 10.48C105.692 10.48 105.766 10.5066 105.784 10.5134C105.798 10.5189 105.835 10.5334 105.904 10.5981L111.376 4.76185C109.742 3.23036 107.708 2.47999 105.52 2.47999V10.48ZM106.006 10.6903C105.986 10.6729 105.959 10.6444 105.932 10.6067C105.906 10.5692 105.891 10.5389 105.886 10.5256C105.876 10.4996 105.92 10.5928 105.92 10.88H113.92C113.92 8.61948 113.186 6.34245 111.274 4.66969L106.006 10.6903ZM105.92 10.88V24.72H113.92V10.88H105.92ZM109.92 28.72H113.44V20.72H109.92V28.72ZM113.44 28.72C113.529 28.72 113.582 28.7273 113.604 28.7312C113.624 28.735 113.62 28.7361 113.597 28.727C113.574 28.7176 113.546 28.7029 113.518 28.6838C113.505 28.6748 113.495 28.6665 113.487 28.6599C113.483 28.6566 113.481 28.654 113.479 28.6521C113.477 28.6502 113.476 28.6492 113.476 28.6493L119.324 23.1907C117.726 21.4779 115.627 20.72 113.44 20.72V28.72ZM113.572 28.7484C113.581 28.7574 113.574 28.7528 113.562 28.7338C113.549 28.7144 113.536 28.6904 113.526 28.6656C113.516 28.641 113.514 28.6273 113.515 28.6305C113.515 28.6346 113.52 28.6626 113.52 28.72H121.52C121.52 26.6106 120.774 24.6374 119.228 23.0916L113.572 28.7484ZM113.52 28.72C113.52 28.7771 113.515 28.81 113.513 28.8233C113.511 28.836 113.509 28.8367 113.512 28.8302C113.515 28.8236 113.517 28.8202 113.515 28.8225C113.514 28.8253 113.503 28.8416 113.476 28.8707L119.324 34.3293C120.78 32.7695 121.52 30.8268 121.52 28.72H113.52ZM113.572 28.7716C113.58 28.7631 113.598 28.7472 113.624 28.7303C113.65 28.7134 113.673 28.7034 113.684 28.6989C113.711 28.689 113.647 28.72 113.44 28.72V36.72C115.542 36.72 117.61 36.0469 119.228 34.4284L113.572 28.7716ZM113.44 28.72H109.92V36.72H113.44V28.72ZM105.92 32.72V51.76H113.92V32.72H105.92ZM111.185 55.5547C112.01 55.2797 112.81 55.0038 113.585 54.727L110.895 47.193C110.176 47.4496 109.43 47.707 108.655 47.9653L111.185 55.5547ZM113.816 54.6366C114.48 54.3518 115.069 54.1268 115.585 53.9547L113.055 46.3653C112.291 46.6199 111.493 46.9282 110.664 47.2834L113.816 54.6366ZM115.778 53.885C116.031 53.7858 116.156 53.7793 116.175 53.7789C116.185 53.7786 116.179 53.7796 116.163 53.7765C116.146 53.7734 116.133 53.7688 116.128 53.7665L119.232 46.3935C117.074 45.4846 114.854 45.6556 112.862 46.435L115.778 53.885ZM116.128 53.7665C116.112 53.7598 116.07 53.74 116.016 53.7005C115.961 53.6604 115.91 53.6121 115.867 53.5607C115.777 53.4523 115.787 53.407 115.821 53.5325L123.539 51.4275C122.935 49.2122 121.509 47.3521 119.232 46.3935L116.128 53.7665ZM115.799 53.4501C115.88 53.771 115.845 53.9349 115.792 54.0702L123.248 56.9698C123.942 55.1851 124.014 53.3223 123.561 51.5099L115.799 53.4501ZM115.792 54.0702C115.811 54.0208 115.836 53.9737 115.864 53.9339C115.877 53.915 115.888 53.9005 115.897 53.8903C115.906 53.8802 115.911 53.8755 115.911 53.8758C115.908 53.8779 115.81 53.9677 115.525 54.0917L118.715 61.4283C120.615 60.6022 122.382 59.1964 123.248 56.9698L115.792 54.0702ZM115.484 54.11C114.037 54.7584 112.145 55.527 109.786 56.4181L112.614 63.9019C115.055 62.9796 117.109 62.1483 118.756 61.41L115.484 54.11ZM109.786 56.4181C107.42 57.3122 105.026 58.1801 102.606 59.022L105.234 66.578C107.72 65.7132 110.18 64.8212 112.614 63.9019L109.786 56.4181ZM102.655 59.0053C100.278 59.7976 98.2346 60.4523 96.52 60.9719L98.84 68.6281C100.645 68.081 102.762 67.4024 105.185 66.5947L102.655 59.0053ZM136.24 75.52H146.32V67.52H136.24V75.52ZM146.32 75.52C147.46 75.52 148.571 75.4452 149.58 75.2392C150.532 75.0449 151.756 74.6638 152.801 73.7929L147.679 67.6471C147.902 67.4617 148.076 67.3863 148.115 67.3702C148.156 67.3532 148.122 67.3718 147.98 67.4008C147.683 67.4615 147.153 67.52 146.32 67.52V75.52ZM152.943 73.6686C153.992 72.7069 154.53 71.5034 154.823 70.4902C155.121 69.4577 155.246 68.3433 155.278 67.2376L147.282 67.0024C147.261 67.71 147.186 68.1023 147.137 68.2698C147.116 68.3446 147.115 68.3193 147.163 68.2313C147.214 68.1402 147.327 67.9638 147.537 67.7714L152.943 73.6686ZM151.28 63.12H131.28V71.12H151.28V63.12ZM127.282 67.2376C127.314 68.3433 127.439 69.4577 127.737 70.4902C128.03 71.5034 128.568 72.7069 129.617 73.6686L135.023 67.7714C135.233 67.9638 135.346 68.1402 135.397 68.2313C135.445 68.3193 135.444 68.3446 135.423 68.2698C135.374 68.1023 135.299 67.71 135.278 67.0024L127.282 67.2376ZM129.759 73.7929C130.804 74.6638 132.028 75.0449 132.98 75.2392C133.989 75.4452 135.1 75.52 136.24 75.52V67.52C135.407 67.52 134.877 67.4615 134.58 67.4008C134.438 67.3718 134.404 67.3532 134.445 67.3702C134.484 67.3863 134.658 67.4617 134.881 67.6471L129.759 73.7929ZM131.28 64.32H151.28V56.32H131.28V64.32ZM155.278 60.2024C155.246 59.1002 155.122 57.9808 154.816 56.9466C154.518 55.9378 153.951 54.6856 152.801 53.7271L147.679 59.8729C147.418 59.6555 147.272 59.443 147.202 59.322C147.135 59.2052 147.126 59.1538 147.144 59.2134C147.161 59.2706 147.192 59.3968 147.22 59.611C147.249 59.8229 147.272 60.0957 147.282 60.4376L155.278 60.2024ZM152.801 53.7271C151.756 52.8562 150.532 52.4751 149.58 52.2808C148.571 52.0748 147.46 52 146.32 52V60C147.153 60 147.683 60.0585 147.98 60.1192C148.122 60.1482 148.156 60.1668 148.115 60.1498C148.076 60.1337 147.902 60.0583 147.679 59.8729L152.801 53.7271ZM146.32 52H136.24V60H146.32V52ZM136.24 52C135.1 52 133.989 52.0748 132.98 52.2808C132.028 52.4751 130.804 52.8562 129.759 53.7271L134.881 59.8729C134.658 60.0583 134.484 60.1337 134.445 60.1498C134.404 60.1668 134.438 60.1482 134.58 60.1192C134.877 60.0585 135.407 60 136.24 60V52ZM129.759 53.7271C128.609 54.6856 128.042 55.9378 127.744 56.9466C127.438 57.9808 127.314 59.1002 127.282 60.2024L135.278 60.4376C135.288 60.0957 135.311 59.8229 135.34 59.611C135.368 59.3968 135.399 59.2706 135.416 59.2134C135.434 59.1538 135.425 59.2052 135.358 59.322C135.288 59.443 135.142 59.6555 134.881 59.8729L129.759 53.7271ZM145.2 43.44H149.76V35.44H145.2V43.44ZM149.76 43.44C150.917 43.44 152.055 43.3566 153.096 43.1229C154.093 42.8991 155.341 42.4634 156.383 41.5086L150.977 35.6114C151.192 35.4143 151.37 35.3261 151.427 35.3001C151.485 35.2741 151.469 35.2891 151.344 35.3171C151.079 35.3767 150.577 35.44 149.76 35.44V43.44ZM156.383 41.5086C157.475 40.5072 158.001 39.2442 158.27 38.2097C158.547 37.1514 158.64 36.0097 158.64 34.88H150.64C150.64 35.2354 150.625 35.5223 150.601 35.7484C150.578 35.9766 150.548 36.1181 150.53 36.1903C150.51 36.2648 150.511 36.2303 150.565 36.1285C150.621 36.0228 150.745 35.8239 150.977 35.6114L156.383 41.5086ZM154.64 30.88H145.2V38.88H154.64V30.88ZM141.2 34.88V39.44H149.2V34.88H141.2ZM132.48 43.44H136.96V35.44H132.48V43.44ZM140.96 39.44V34.88H132.96V39.44H140.96ZM136.96 30.88H127.6V38.88H136.96V30.88ZM123.6 34.88C123.6 36.0097 123.693 37.1514 123.97 38.2097C124.239 39.2442 124.765 40.5072 125.857 41.5086L131.263 35.6114C131.495 35.8239 131.619 36.0228 131.675 36.1284C131.729 36.2303 131.73 36.2648 131.71 36.1903C131.692 36.1181 131.662 35.9766 131.639 35.7484C131.615 35.5223 131.6 35.2354 131.6 34.88H123.6ZM125.857 41.5086C126.899 42.4634 128.147 42.8991 129.144 43.1229C130.185 43.3566 131.323 43.44 132.48 43.44V35.44C131.663 35.44 131.161 35.3767 130.896 35.3171C130.771 35.2891 130.755 35.2741 130.813 35.3001C130.87 35.3261 131.048 35.4143 131.263 35.6114L125.857 41.5086ZM145.2 32.88H154.64V24.88H145.2V32.88ZM158.64 28.88C158.64 27.7545 158.547 26.6086 158.265 25.5494C157.991 24.5213 157.438 23.2052 156.241 22.2071L151.119 28.3529C150.834 28.1155 150.676 27.8793 150.601 27.743C150.528 27.6118 150.519 27.5509 150.535 27.6106C150.55 27.6674 150.578 27.7972 150.602 28.0201C150.625 28.2405 150.64 28.5242 150.64 28.88H158.64ZM156.383 22.3314C155.341 21.3766 154.093 20.9409 153.096 20.7171C152.055 20.4834 150.917 20.4 149.76 20.4V28.4C150.577 28.4 151.079 28.4633 151.344 28.5229C151.469 28.5509 151.485 28.5659 151.427 28.5399C151.37 28.5139 151.192 28.4257 150.977 28.2286L156.383 22.3314ZM149.76 20.4H145.2V28.4H149.76V20.4ZM141.2 24.4V28.88H149.2V24.4H141.2ZM127.6 32.88H136.96V24.88H127.6V32.88ZM140.96 28.88V24.4H132.96V28.88H140.96ZM136.96 20.4H132.48V28.4H136.96V20.4ZM132.48 20.4C131.323 20.4 130.185 20.4834 129.144 20.7171C128.147 20.9409 126.899 21.3766 125.857 22.3314L131.263 28.2286C131.048 28.4257 130.87 28.5139 130.813 28.5399C130.755 28.5658 130.771 28.5509 130.896 28.5229C131.161 28.4633 131.663 28.4 132.48 28.4V20.4ZM125.999 22.2071C124.802 23.2052 124.249 24.5213 123.975 25.5493C123.693 26.6086 123.6 27.7545 123.6 28.88H131.6C131.6 28.5242 131.615 28.2405 131.638 28.0201C131.662 27.7972 131.69 27.6674 131.705 27.6106C131.721 27.5509 131.712 27.6118 131.639 27.743C131.564 27.8793 131.406 28.1155 131.121 28.3529L125.999 22.2071ZM198.4 56.24L201.129 53.3158V53.3158L198.4 56.24ZM197.04 53.44L193.052 53.7548C193.054 53.7763 193.056 53.7978 193.058 53.8192L197.04 53.44ZM196.56 46.48L192.563 46.6431C192.564 46.6702 192.566 46.6973 192.567 46.7244L196.56 46.48ZM196.16 38.48L192.167 38.7104L192.167 38.7149L196.16 38.48ZM197.04 7.84L194.281 4.94344C194.258 4.96587 194.235 4.98858 194.212 5.01157L197.04 7.84ZM205.36 7.84L202.532 10.6684C202.555 10.6914 202.578 10.7141 202.601 10.7365L205.36 7.84ZM206.88 23.92L202.886 23.6981C202.884 23.735 202.883 23.772 202.882 23.8089L206.88 23.92ZM206.64 30.56L202.644 30.3899V30.3899L206.64 30.56ZM206.24 38.48L202.247 38.2496C202.245 38.2741 202.244 38.2987 202.243 38.3233L206.24 38.48ZM205.84 46.48L209.833 46.7244L205.84 46.48ZM205.36 53.44L201.372 53.1252C201.369 53.1667 201.367 53.2082 201.365 53.2497L205.36 53.44ZM196.4 74.88L199.228 72.0516L196.4 74.88ZM196.4 65.28L193.572 62.4516L196.4 65.28ZM206 65.28L203.172 68.1084L206 65.28ZM206 74.88L203.172 72.0516L206 74.88ZM201.2 53.36C201.168 53.36 201.156 53.3573 201.159 53.3579C201.163 53.3587 201.173 53.3611 201.186 53.3661C201.198 53.371 201.202 53.3742 201.196 53.3703C201.189 53.3662 201.167 53.3507 201.129 53.3158L195.671 59.1642C197.19 60.5823 199.091 61.36 201.2 61.36V53.36ZM201.129 53.3158C201.096 53.2848 201.079 53.2636 201.071 53.2531C201.064 53.243 201.06 53.2368 201.058 53.2324C201.057 53.2301 201.034 53.1856 201.022 53.0608L193.058 53.8192C193.254 55.8821 194.135 57.7304 195.671 59.1642L201.129 53.3158ZM201.028 53.1252C200.87 51.1275 200.711 48.8317 200.553 46.2356L192.567 46.7244C192.729 49.355 192.89 51.6992 193.052 53.7548L201.028 53.1252ZM200.557 46.3169C200.449 43.6786 200.314 40.988 200.153 38.2451L192.167 38.7149C192.326 41.412 192.458 44.0547 192.563 46.6431L200.557 46.3169ZM200.153 38.2496C199.994 35.4943 199.862 32.8745 199.756 30.3899L191.764 30.7301C191.871 33.2588 192.006 35.919 192.167 38.7104L200.153 38.2496ZM199.756 30.3899C199.65 27.8974 199.571 25.7044 199.518 23.8089L191.522 24.0311C191.576 25.9756 191.656 28.2093 191.764 30.7301L199.756 30.3899ZM199.518 23.8089C199.465 21.8946 199.44 20.5278 199.44 19.68H191.44C191.44 20.6455 191.468 22.1054 191.522 24.0311L199.518 23.8089ZM199.44 19.68V11.76H191.44V19.68H199.44ZM199.44 11.76C199.44 11.2441 199.573 10.9639 199.868 10.6684L194.212 5.01157C192.374 6.84938 191.44 9.18253 191.44 11.76H199.44ZM199.799 10.7365C200.12 10.4302 200.496 10.24 201.2 10.24V2.24C198.597 2.24 196.2 3.11649 194.281 4.94344L199.799 10.7365ZM201.2 10.24C201.998 10.24 202.316 10.4529 202.532 10.6684L208.188 5.01157C206.271 3.09379 203.816 2.24 201.2 2.24V10.24ZM202.601 10.7365C202.929 11.0482 203.04 11.308 203.04 11.76H211.04C211.04 9.11863 210.031 6.76508 208.119 4.94345L202.601 10.7365ZM203.04 11.76V19.68H211.04V11.76H203.04ZM203.04 19.68C203.04 20.469 202.992 21.7894 202.886 23.6981L210.874 24.1419C210.981 22.2106 211.04 20.7043 211.04 19.68H203.04ZM202.882 23.8089C202.829 25.7044 202.75 27.8974 202.644 30.3899L210.636 30.7301C210.744 28.2093 210.824 25.9756 210.878 24.0311L202.882 23.8089ZM202.644 30.3899C202.538 32.8745 202.406 35.4943 202.247 38.2496L210.233 38.7104C210.394 35.919 210.529 33.2588 210.636 30.7301L202.644 30.3899ZM202.243 38.3233C202.138 41.0152 202.006 43.6526 201.847 46.2356L209.833 46.7244C209.994 44.0808 210.129 41.3848 210.237 38.6367L202.243 38.3233ZM201.847 46.2356C201.689 48.8317 201.53 51.1275 201.372 53.1252L209.348 53.7548C209.51 51.6992 209.671 49.355 209.833 46.7244L201.847 46.2356ZM201.365 53.2497C201.362 53.3023 201.356 53.3288 201.355 53.3345C201.354 53.3395 201.355 53.3318 201.362 53.317C201.369 53.3019 201.376 53.2909 201.38 53.2862C201.383 53.282 201.376 53.2924 201.351 53.3158L206.809 59.1642C208.392 57.6868 209.254 55.7632 209.355 53.6303L201.365 53.2497ZM201.351 53.3158C201.322 53.3429 201.305 53.3536 201.302 53.3554C201.3 53.3568 201.304 53.3546 201.31 53.352C201.317 53.3494 201.316 53.3506 201.303 53.3529C201.29 53.3553 201.257 53.36 201.2 53.36V61.36C203.307 61.36 205.25 60.62 206.809 59.1642L201.351 53.3158ZM201.2 72.88C200.406 72.88 199.82 72.6433 199.228 72.0516L193.572 77.7084C195.646 79.7833 198.26 80.88 201.2 80.88V72.88ZM199.228 72.0516C198.637 71.4598 198.4 70.8738 198.4 70.08H190.4C190.4 73.0196 191.497 75.6335 193.572 77.7084L199.228 72.0516ZM198.4 70.08C198.4 69.2862 198.637 68.7002 199.228 68.1084L193.572 62.4516C191.497 64.5265 190.4 67.1404 190.4 70.08H198.4ZM199.228 68.1084C199.82 67.5167 200.406 67.28 201.2 67.28V59.28C198.26 59.28 195.646 60.3767 193.572 62.4516L199.228 68.1084ZM201.2 67.28C201.994 67.28 202.58 67.5167 203.172 68.1084L208.828 62.4516C206.754 60.3767 204.14 59.28 201.2 59.28V67.28ZM203.172 68.1084C203.763 68.7002 204 69.2862 204 70.08H212C212 67.1404 210.903 64.5265 208.828 62.4516L203.172 68.1084ZM204 70.08C204 70.8738 203.763 71.4598 203.172 72.0516L208.828 77.7084C210.903 75.6335 212 73.0196 212 70.08H204ZM203.172 72.0516C202.58 72.6433 201.994 72.88 201.2 72.88V80.88C204.14 80.88 206.754 79.7833 208.828 77.7084L203.172 72.0516Z" fill="#EB537B" mask="url(#path-1-outside-1_10944_61303)"/>
</g>
<defs>
<filter id="filter0_d_10944_61303" x="0.0917969" y="0.240234" width="214.908" height="85.7197" filterUnits="userSpaceOnUse" color-interpolation-filters="sRGB">
<feFlood flood-opacity="0" result="BackgroundImageFix"/>
<feColorMatrix in="SourceAlpha" type="matrix" values="0 0 0 0 0 0 0 0 0 0 0 0 0 0 0 0 0 0 127 0" result="hardAlpha"/>
<feOffset dx="3" dy="3"/>
<feComposite in2="hardAlpha" operator="out"/>
<feColorMatrix type="matrix" values="0 0 0 0 0.921569 0 0 0 0 0.32549 0 0 0 0 0.482353 0 0 0 1 0"/>
<feBlend mode="normal" in2="BackgroundImageFix" result="effect1_dropShadow_10944_61303"/>
<feBlend mode="normal" in="SourceGraphic" in2="effect1_dropShadow_10944_61303" result="shape"/>
</filter>
<linearGradient id="paint0_linear_10944_61303" x1="2.5" y1="-3" x2="248.009" y2="38.3717" gradientUnits="userSpaceOnUse">
<stop stop-color="#FFD8E8"/>
<stop offset="0.5" stop-color="#FFCABA"/>
<stop offset="1" stop-color="#FFEF9B"/>
</linearGradient>
<linearGradient id="paint1_linear_10944_61303" x1="2.5" y1="-3" x2="248.009" y2="38.3717" gradientUnits="userSpaceOnUse">
<stop stop-color="#FFF9EC"/>
<stop offset="0.507029" stop-color="#FFE9B8"/>
<stop offset="1" stop-color="#FFF9EA"/>
</linearGradient>
</defs>
</svg>
