<svg width="1440" height="444" viewBox="0 0 1440 444" fill="none" xmlns="http://www.w3.org/2000/svg">
<path d="M74.4271 426.591C59.4265 429.236 45.9019 428.826 33.8532 425.361C21.7824 421.771 11.8956 415.456 4.1928 406.416C-3.50996 397.376 -8.53937 386.176 -10.8954 372.814C-14.1628 354.284 -13.5969 337.222 -9.19772 321.629C-4.67249 306.014 2.88872 293.243 13.4859 283.316C24.0609 273.263 36.6596 266.947 51.282 264.369C64.896 261.969 75.8549 263.676 84.1587 269.49C92.4403 275.178 97.5924 283.758 99.6151 295.229C100.971 302.918 100.673 309.34 98.7226 314.493C96.8978 319.624 93.4643 322.633 88.4221 323.523C84.8926 324.145 81.9749 323.815 79.669 322.531C77.3632 321.248 75.9324 319.031 75.3768 315.88C75.1767 314.745 75.0621 312.621 75.0329 309.507C75.1224 305.592 74.9671 302.5 74.567 300.231C72.5444 288.76 65.4194 284.102 53.192 286.258C44.8723 287.725 37.4087 291.836 30.8012 298.59C24.1936 305.344 19.4913 314.426 16.6943 325.837C13.8751 337.122 13.7436 350.013 16.2997 364.509C18.9669 379.636 25.2569 390.614 35.1696 397.445C45.06 404.149 58.2619 406.046 74.7751 403.134C82.9687 401.689 91.0475 399.225 99.0116 395.741C107.079 392.109 115.841 387.25 125.296 381.163C127.053 380.073 128.562 379.417 129.823 379.195C131.839 378.84 133.485 379.329 134.761 380.664C136.036 381.999 136.885 383.864 137.307 386.259C138.663 393.948 135.503 400.354 127.828 405.477C119.567 410.963 110.75 415.507 101.377 419.109C92.1083 422.563 83.1249 425.057 74.4271 426.591ZM211.657 341.565C213.296 341.276 214.701 341.873 215.872 343.356C217.044 344.839 217.852 346.842 218.296 349.363C219.363 355.413 218.169 359.328 214.713 361.107C207.617 365.088 199.564 368.068 190.554 370.046C190.027 381.057 186.8 390.399 180.874 398.073C174.926 405.62 167.478 410.183 158.528 411.761C150.964 413.095 144.15 412.412 138.085 409.712C132.146 406.99 127.257 402.848 123.417 397.286C119.577 391.725 117.034 385.414 115.789 378.355C114.1 368.775 114.428 359.944 116.772 351.862C119.094 343.654 123.103 336.904 128.798 331.61C134.471 326.191 141.215 322.792 149.031 321.414C158.611 319.725 166.889 321.709 173.866 327.368C180.946 332.878 185.846 340.397 188.566 349.926C194.424 348.503 201.261 345.998 209.077 342.41C210.041 341.98 210.901 341.698 211.657 341.565ZM156.506 391.452C160.54 390.741 163.718 388.491 166.039 384.702C168.486 380.891 169.67 375.808 169.589 369.454C165.215 367.496 161.578 364.563 158.679 360.655C155.907 356.724 154.098 352.364 153.254 347.574C152.898 345.557 152.731 343.507 152.754 341.423L151.808 341.59C146.766 342.479 142.977 345.682 140.44 351.198C138.007 356.566 137.569 363.662 139.125 372.486C140.347 379.419 142.604 384.48 145.896 387.669C149.314 390.835 152.851 392.096 156.506 391.452ZM224.361 400.153C219.571 400.998 215.723 399.077 212.817 394.39C210.037 389.681 207.669 381.781 205.713 370.688C202.824 354.301 202.411 338.321 204.474 322.751C204.964 318.895 206.325 315.925 208.557 313.842C210.893 311.611 214.393 310.084 219.057 309.261C221.578 308.817 223.399 308.821 224.518 309.273C225.638 309.726 226.353 310.834 226.664 312.599C227.02 314.616 226.875 319.321 226.229 326.713C225.857 331.978 225.627 336.567 225.537 340.482C225.448 344.397 225.64 349.173 226.114 354.808C228.362 343.234 231.47 333.587 235.438 325.869C239.406 318.151 243.593 312.409 247.998 308.642C252.529 304.854 256.874 302.593 261.034 301.86C269.227 300.415 274.047 303.789 275.491 311.983C276.358 316.899 276.539 326.031 276.032 339.377C275.571 350.766 275.652 358.226 276.274 361.755C277.163 366.797 279.435 368.996 283.091 368.352C285.612 367.907 288.308 365.872 291.178 362.247C294.152 358.473 297.927 352.608 302.503 344.653C303.704 342.621 305.25 341.439 307.141 341.105C308.78 340.817 310.174 341.351 311.323 342.708C312.598 344.043 313.469 346.034 313.936 348.681C314.825 353.723 314.316 357.842 312.41 361.037C308.168 368.674 303.273 375.191 297.726 380.588C292.305 385.963 285.624 389.351 277.683 390.751C271.254 391.885 266.078 390.913 262.156 387.835C258.212 384.631 255.618 379.5 254.373 372.441C253.75 368.911 253.522 362.453 253.686 353.066C253.924 344.835 253.777 339.207 253.243 336.182C252.888 334.165 252.017 333.279 250.63 333.523C248.991 333.812 247.037 336.366 244.768 341.186C242.602 345.857 240.554 351.937 238.626 359.425C236.823 366.892 235.654 374.637 235.119 382.659C234.777 388.828 233.849 393.151 232.336 395.628C230.927 397.956 228.269 399.464 224.361 400.153ZM340.854 379.612C328.501 381.791 318.246 380.024 310.091 374.314C302.039 368.455 297.002 359.79 294.979 348.319C293.179 338.109 293.617 328.803 296.295 320.402C298.973 312.002 303.16 305.155 308.855 299.861C314.551 294.568 320.928 291.299 327.987 290.054C334.92 288.832 340.644 289.967 345.159 293.46C349.778 296.805 352.654 301.691 353.788 308.12C354.722 313.415 354.313 318.101 352.563 322.179C350.938 326.234 348.235 328.596 344.454 329.262C342.058 329.685 340.005 329.462 338.292 328.594C336.705 327.704 335.734 326.251 335.378 324.234C335.223 323.351 335.171 322.321 335.223 321.142C335.275 319.963 335.32 319.11 335.357 318.584C335.654 316.582 335.658 314.761 335.369 313.123C335.08 311.484 334.416 310.301 333.378 309.574C332.467 308.825 331.254 308.584 329.742 308.851C326.842 309.362 324.366 311.164 322.311 314.255C320.235 317.221 318.829 321.043 318.094 325.722C317.36 330.4 317.459 335.387 318.392 340.681C320.971 355.304 328.626 361.492 341.357 359.248C346.526 358.336 351.772 355.657 357.096 351.208C362.525 346.612 367.527 340.336 372.103 332.38C373.305 330.349 374.851 329.166 376.742 328.833C378.38 328.544 379.774 329.078 380.923 330.435C382.198 331.77 383.069 333.761 383.536 336.408C384.381 341.198 383.872 345.317 382.011 348.765C377.375 357.121 371.253 364.049 363.645 369.55C356.14 374.902 348.543 378.256 340.854 379.612ZM460.383 297.708C462.022 297.419 463.427 298.016 464.598 299.499C465.769 300.982 466.577 302.985 467.022 305.506C468.089 311.556 466.894 315.471 463.439 317.25C456.342 321.231 448.289 324.211 439.28 326.189C438.752 337.2 435.525 346.542 429.6 354.216C423.652 361.763 416.203 366.326 407.253 367.904C399.69 369.238 392.876 368.555 386.811 365.855C380.872 363.133 375.982 358.991 372.142 353.429C368.302 347.868 365.76 341.557 364.515 334.498C362.826 324.918 363.153 316.087 365.497 308.005C367.819 299.797 371.828 293.047 377.523 287.753C383.197 282.334 389.941 278.935 397.756 277.557C407.336 275.868 415.615 277.852 422.591 283.511C429.672 289.021 434.572 296.54 437.292 306.069C443.15 304.646 449.987 302.141 457.802 298.553C458.766 298.123 459.627 297.841 460.383 297.708ZM405.232 347.595C409.266 346.884 412.443 344.634 414.765 340.845C417.212 337.034 418.395 331.951 418.315 325.597C413.94 323.639 410.304 320.706 407.405 316.798C404.632 312.867 402.824 308.507 401.979 303.717C401.623 301.7 401.457 299.65 401.479 297.566L400.534 297.733C395.492 298.622 391.702 301.825 389.166 307.341C386.733 312.709 386.294 319.805 387.85 328.629C389.073 335.562 391.33 340.623 394.622 343.812C398.039 346.978 401.576 348.239 405.232 347.595ZM523.723 302.916C525.361 302.627 526.755 303.161 527.904 304.519C529.18 305.853 530.05 307.844 530.517 310.492C531.406 315.534 530.898 319.653 528.992 322.848C524.749 330.485 519.792 337.013 514.119 342.432C508.572 347.83 501.764 351.24 493.697 352.662C482.604 354.618 473.458 351.032 466.26 341.903C459.187 332.752 454.239 320.172 451.417 304.163C448.705 288.784 447.569 270.918 448.01 250.564C448.576 230.189 451.459 212.264 456.659 196.79C461.985 181.293 470.005 172.6 480.72 170.711C486.771 169.644 491.998 171.647 496.402 176.719C500.909 181.643 504.085 189.337 505.93 199.799C508.575 214.8 507.483 232.929 502.653 254.187C497.823 275.444 489.997 297.035 479.176 318.96C480.969 323.972 483.075 327.435 485.492 329.349C487.886 331.136 490.723 331.741 494 331.163C499.168 330.251 503.451 328.002 506.847 324.413C510.221 320.699 514.3 314.716 519.084 306.464C520.286 304.432 521.832 303.25 523.723 302.916ZM479.861 190.164C476.962 190.675 474.607 196.484 472.796 207.591C470.985 218.699 470.06 232.249 470.021 248.243C469.982 264.237 471.092 279.378 473.351 293.667C479.701 277.34 484.222 261.336 486.916 245.654C489.587 229.846 489.845 215.828 487.689 203.601C486 194.02 483.391 189.542 479.861 190.164ZM585.396 292.042C587.035 291.753 588.429 292.287 589.578 293.644C590.853 294.979 591.724 296.97 592.191 299.617C593.08 304.659 592.571 308.778 590.665 311.973C586.423 319.61 581.465 326.138 575.792 331.558C570.245 336.955 563.438 340.365 555.37 341.787C544.277 343.743 535.132 340.157 527.933 331.028C520.861 321.877 515.913 309.297 513.09 293.288C510.378 277.91 509.243 260.043 509.683 239.69C510.249 219.314 513.133 201.389 518.333 185.915C523.659 170.419 531.679 161.726 542.394 159.836C548.444 158.77 553.672 160.772 558.075 165.845C562.583 170.769 565.759 178.462 567.604 188.925C570.249 203.925 569.156 222.054 564.326 243.312C559.496 264.57 551.671 286.161 540.849 308.085C542.643 313.098 544.748 316.561 547.165 318.474C549.56 320.261 552.396 320.866 555.674 320.288C560.842 319.377 565.124 317.127 568.521 313.539C571.895 309.824 575.974 303.841 580.758 295.589C581.959 293.557 583.505 292.375 585.396 292.042ZM541.535 179.289C538.635 179.8 536.28 185.61 534.469 196.717C532.659 207.824 531.734 221.374 531.694 237.368C531.655 253.362 532.765 268.503 535.025 282.792C541.374 266.465 545.896 250.461 548.589 234.779C551.261 218.971 551.519 204.953 549.363 192.726C547.674 183.146 545.064 178.667 541.535 179.289ZM644.099 287.54C645.738 287.251 647.132 287.785 648.281 289.142C649.556 290.477 650.427 292.468 650.894 295.115C651.694 299.653 651.312 303.749 649.747 307.405C647.173 313.447 643.253 318.493 637.988 322.54C632.849 326.566 626.309 329.279 618.367 330.679C606.266 332.813 596.242 330.876 588.294 324.869C580.324 318.736 575.249 309.493 573.071 297.139C571.537 288.441 571.943 280.052 574.287 271.97C576.609 263.762 580.595 256.885 586.246 251.34C592.023 245.772 599.008 242.266 607.202 240.821C614.513 239.532 620.764 240.704 625.954 244.338C631.121 247.846 634.361 253.319 635.672 260.756C637.206 269.454 635.377 277.51 630.186 284.924C625.098 292.19 615.376 298.973 601.02 305.274C605.068 310.539 610.684 312.538 617.87 311.271C623.038 310.36 627.05 308.417 629.905 305.444C632.886 302.449 636.082 297.726 639.494 291.276C640.673 289.118 642.208 287.873 644.099 287.54ZM607.255 259.918C602.591 260.74 599.098 264.151 596.776 270.149C594.581 276.125 594.161 282.958 595.517 290.647L595.583 291.025C602.71 287.949 608.104 284.268 611.768 279.983C615.431 275.698 616.852 271.223 616.03 266.559C615.607 264.164 614.581 262.395 612.949 261.253C611.422 259.963 609.524 259.518 607.255 259.918ZM656.385 206.999C653.612 207.488 651.295 207.246 649.434 206.275C647.573 205.303 646.398 203.431 645.909 200.657C645.709 199.523 645.664 198.166 645.776 196.587C646.14 190.544 646.204 185.008 645.967 179.981C645.857 174.932 645.268 169.381 644.201 163.331C643.09 157.028 643.684 151.919 645.983 148.005C648.408 144.068 651.953 141.688 656.617 140.866C661.155 140.065 664.781 140.726 667.494 142.847C670.311 144.82 672.087 147.886 672.82 152.046C673.598 156.458 673.308 162.553 671.95 170.331C670.592 178.109 668.634 185.798 666.074 193.397C664.376 198.506 662.903 201.95 661.657 203.729C660.538 205.486 658.78 206.576 656.385 206.999ZM735.612 314.295C729.057 315.451 723.748 314.827 719.685 312.424C715.748 309.999 713.446 306.896 712.779 303.114C712.201 299.837 712.899 296.789 714.871 293.972C716.844 291.154 720.163 289.335 724.827 288.512C726.465 288.223 728.389 288.079 730.599 288.079C732.913 287.931 734.648 287.82 735.804 287.746C735.1 284.491 733.799 281.536 731.902 278.881C730.13 276.204 728.002 273.72 725.519 271.428C723.013 269.011 720.7 266.949 718.579 265.244C715.983 273.37 713.164 280.236 710.123 285.841C707.208 291.424 703.871 296.821 700.111 302.033C698.242 304.702 696.047 306.259 693.526 306.704C691.509 307.059 689.748 306.655 688.243 305.491C686.716 304.2 685.763 302.484 685.385 300.341C684.941 297.82 685.412 295.332 686.799 292.878L688.724 289.419C694.145 279.625 698.132 271.643 700.683 265.475C702.308 261.419 703.81 256.67 705.19 251.228C706.696 245.763 708.573 238.349 710.821 228.984C712.238 223.015 716.728 219.364 724.291 218.03C727.821 217.408 730.335 217.29 731.832 217.675C733.33 218.061 734.201 218.947 734.446 220.334C734.579 221.09 734.538 222.332 734.323 224.06C734.108 225.788 733.703 227.549 733.11 229.343C731.641 234.281 731.184 238.326 731.74 241.477C732.073 243.368 733.07 245.337 734.731 247.383C736.518 249.408 739.098 251.877 742.471 254.792C747.438 259.375 751.264 263.38 753.948 266.806C756.735 270.083 758.518 273.928 759.296 278.34C760.229 283.634 759.858 288.899 758.181 294.134C756.609 299.22 753.872 303.602 749.971 307.279C746.071 310.956 741.284 313.295 735.612 314.295ZM858.955 288.257C854.291 289.08 850.773 288.66 848.4 286.999C846.005 285.212 844.297 281.419 843.274 275.62C842.585 271.712 842.086 266.666 841.775 260.482C841.568 254.15 841.466 245.46 841.467 234.412C841.255 214.043 840.816 196.444 840.151 181.614C839.685 172.338 838.919 164.675 837.852 158.624C836.852 152.952 834.272 150.482 830.112 151.216C826.834 151.794 823.164 154.196 819.1 158.421C815.14 162.499 811.031 168.682 806.774 176.972C805.431 179.678 803.689 181.22 801.546 181.598C799.781 181.909 798.061 181.367 796.385 179.973C794.813 178.431 793.839 176.588 793.461 174.445C793.105 172.428 793.128 170.345 793.528 168.194C794.033 165.896 794.997 163.256 796.421 160.276C800.983 150.763 806.582 143.082 813.219 137.233C819.834 131.257 826.86 127.614 834.297 126.302C841.23 125.08 846.914 126.352 851.347 130.12C855.907 133.865 858.931 139.96 860.42 148.406C861.021 151.81 861.417 155.899 861.609 160.674C861.779 165.323 861.867 169.142 861.874 172.13C861.881 175.118 861.859 177.202 861.806 178.381C865.369 156.567 870.913 140.837 878.441 131.191C885.946 121.42 895.056 115.589 905.771 113.7C913.964 112.255 920.904 114.021 926.591 118.997C932.403 123.951 936.243 131.722 938.11 142.311C938.844 146.471 939.188 151.739 939.142 158.116C942.378 139.609 947.552 125.829 954.664 116.776C961.776 107.724 970.815 102.231 981.782 100.297C990.606 98.741 997.85 100.388 1003.51 105.238C1009.3 110.066 1013.1 117.585 1014.9 127.796C1015.88 133.342 1016.25 140.231 1016.01 148.461L1014.01 204.573C1013.86 211.098 1014.19 216.629 1014.99 221.167C1015.92 226.461 1017.82 230.221 1020.68 232.446C1023.67 234.649 1027.37 235.361 1031.78 234.583C1035.94 233.849 1039.73 231.752 1043.15 228.289C1046.69 224.805 1050.61 219.37 1054.9 211.986C1056.1 209.954 1057.64 208.772 1059.53 208.438C1061.17 208.149 1062.57 208.683 1063.72 210.041C1064.99 211.375 1065.86 213.366 1066.33 216.014C1067.2 220.93 1066.69 225.049 1064.8 228.37C1059.65 237.467 1054.18 244.411 1048.39 249.2C1042.61 253.989 1036.19 257.006 1029.13 258.251C1018.42 260.14 1009.48 258.467 1002.31 253.231C995.13 247.869 990.594 239.831 988.704 229.116C987.393 221.679 987.005 210.634 987.541 195.983L989.003 160.047C989.055 158.868 989.141 156.773 989.26 153.763C989.379 150.752 989.405 147.953 989.339 145.365C989.25 142.652 988.984 140.034 988.539 137.513C987.761 133.101 986.301 129.979 984.158 128.147C982.12 126.167 979.524 125.455 976.373 126.011C970.448 127.055 964.887 132 959.688 140.846C954.592 149.542 950.638 163.237 947.826 181.93C945.139 200.6 944.457 224.375 945.78 253.256C946.231 260.975 945.556 266.358 943.754 269.406C942.055 272.305 938.748 274.187 933.832 275.054C929.546 275.81 926.217 275.357 923.844 273.696C921.598 272.013 919.986 268.398 919.008 262.851C918.096 257.683 917.6 250.817 917.52 242.253C917.418 233.562 917.437 223.356 917.58 211.633C918 180.105 917.431 159.929 915.876 151.105C915.031 146.315 913.463 142.952 911.172 141.017C909.007 139.059 906.097 138.402 902.442 139.047C896.265 140.136 890.521 144.788 885.211 153.003C879.879 161.092 875.639 174.642 872.493 193.653C869.45 212.516 868.527 237.504 869.724 268.617C869.975 275.201 869.441 279.91 868.121 282.742C866.926 285.552 863.871 287.39 858.955 288.257ZM1064.06 147.397C1058.77 148.331 1054.58 147.833 1051.51 145.905C1048.42 143.851 1046.49 140.617 1045.71 136.206C1044.93 131.794 1045.99 127.838 1048.88 124.339C1051.88 120.691 1055.96 118.411 1061.13 117.5C1065.79 116.678 1069.77 117.145 1073.07 118.903C1076.37 120.661 1078.39 123.62 1079.12 127.78C1080.01 132.822 1079.08 137.144 1076.34 140.748C1073.57 144.225 1069.48 146.441 1064.06 147.397ZM1080.45 249.201C1072.26 250.646 1065.76 248.803 1060.95 243.671C1056.28 238.517 1053.09 231.15 1051.4 221.57C1050.4 215.897 1049.82 208.527 1049.65 199.458C1049.58 190.242 1050.01 181.589 1050.92 173.499C1051.34 169.265 1052.37 166.225 1053.99 164.379C1055.62 162.533 1058.51 161.244 1062.67 160.51C1069.1 159.376 1072.69 160.953 1073.44 165.238C1074 168.39 1074.09 175.912 1073.72 187.806C1073.14 202.205 1073.28 211.863 1074.15 216.779C1074.82 220.561 1075.83 223.371 1077.2 225.21C1078.56 227.049 1080.44 227.758 1082.83 227.335C1085.1 226.935 1087.66 224.86 1090.51 221.108C1093.36 217.356 1097.02 211.577 1101.49 203.77C1102.69 201.738 1104.24 200.556 1106.13 200.223C1107.77 199.934 1109.16 200.468 1110.31 201.825C1111.58 203.16 1112.46 205.151 1112.92 207.798C1113.81 212.84 1113.3 216.959 1111.4 220.154C1101.61 237.608 1091.29 247.29 1080.45 249.201ZM1139.63 243.056C1133.07 244.212 1127.77 243.588 1123.7 241.185C1119.77 238.76 1117.46 235.657 1116.8 231.875C1116.22 228.597 1116.92 225.55 1118.89 222.733C1120.86 219.915 1124.18 218.095 1128.84 217.273C1130.48 216.984 1132.41 216.84 1134.62 216.84C1136.93 216.692 1138.67 216.581 1139.82 216.507C1139.12 213.252 1137.82 210.297 1135.92 207.642C1134.15 204.965 1132.02 202.481 1129.54 200.189C1127.03 197.772 1124.72 195.71 1122.6 194.004C1120 202.131 1117.18 208.996 1114.14 214.602C1111.23 220.185 1107.89 225.582 1104.13 230.794C1102.26 233.463 1100.06 235.02 1097.54 235.465C1095.53 235.82 1093.77 235.416 1092.26 234.252C1090.73 232.961 1089.78 231.245 1089.4 229.102C1088.96 226.581 1089.43 224.093 1090.82 221.639L1092.74 218.18C1098.16 208.386 1102.15 200.404 1104.7 194.235C1106.2 190.202 1107.86 184.904 1109.7 178.342C1111.51 171.655 1113.22 164.789 1114.84 157.745C1116.26 151.776 1120.75 148.125 1128.31 146.791C1131.84 146.169 1134.35 146.051 1135.85 146.436C1137.35 146.822 1138.22 147.708 1138.46 149.095C1138.6 149.851 1138.56 151.093 1138.34 152.821C1138.12 154.548 1137.72 156.309 1137.13 158.104C1135.66 163.042 1135.2 167.087 1135.76 170.238C1136.09 172.129 1137.09 174.098 1138.75 176.144C1140.54 178.169 1143.12 180.638 1146.49 183.553C1151.46 188.136 1155.28 192.14 1157.97 195.566C1160.75 198.844 1162.54 202.689 1163.31 207.101C1163.54 208.362 1163.72 210.149 1163.87 212.462C1169.62 208.978 1175.75 201.334 1182.25 189.53C1183.45 187.499 1184.99 186.316 1186.88 185.983C1188.52 185.694 1189.92 186.228 1191.07 187.585C1192.34 188.92 1193.21 190.911 1193.68 193.558C1194.52 198.348 1194.02 202.467 1192.15 205.915C1187.23 214.842 1182.12 221.266 1176.84 225.188C1171.65 228.961 1164.86 231.718 1156.46 233.46C1152.17 238.635 1146.56 241.833 1139.63 243.056ZM1220.32 228.828C1213.77 229.983 1208.46 229.36 1204.39 226.957C1200.46 224.532 1198.16 221.428 1197.49 217.647C1196.91 214.369 1197.61 211.322 1199.58 208.504C1201.55 205.687 1204.87 203.867 1209.54 203.045C1211.18 202.756 1213.1 202.611 1215.31 202.612C1217.62 202.464 1219.36 202.353 1220.51 202.279C1219.81 199.024 1218.51 196.069 1216.61 193.414C1214.84 190.737 1212.71 188.253 1210.23 185.961C1207.72 183.543 1205.41 181.482 1203.29 179.776C1200.69 187.902 1197.87 194.768 1194.83 200.373C1191.92 205.956 1188.58 211.354 1184.82 216.566C1182.95 219.235 1180.76 220.792 1178.24 221.236C1176.22 221.592 1174.46 221.188 1172.95 220.023C1171.43 218.733 1170.47 217.016 1170.1 214.873C1169.65 212.352 1170.12 209.865 1171.51 207.41L1173.43 203.952C1178.86 194.157 1182.84 186.176 1185.39 180.007C1186.89 175.974 1188.56 170.676 1190.39 164.114C1192.2 157.426 1193.91 150.56 1195.53 143.516C1196.95 137.548 1201.44 133.896 1209 132.563C1212.53 131.941 1215.04 131.822 1216.54 132.208C1218.04 132.594 1218.91 133.48 1219.16 134.867C1219.29 135.623 1219.25 136.865 1219.03 138.593C1218.82 140.32 1218.41 142.081 1217.82 143.875C1216.35 148.814 1215.89 152.858 1216.45 156.01C1216.78 157.9 1217.78 159.869 1219.44 161.916C1221.23 163.94 1223.81 166.41 1227.18 169.324C1232.15 173.908 1235.97 177.912 1238.66 181.338C1241.45 184.616 1243.23 188.461 1244.01 192.873C1244.23 194.133 1244.41 195.92 1244.56 198.234C1250.32 194.749 1256.44 187.106 1262.94 175.302C1264.14 173.271 1265.69 172.088 1267.58 171.755C1269.22 171.466 1270.61 172 1271.76 173.357C1273.03 174.692 1273.9 176.683 1274.37 179.33C1275.22 184.12 1274.71 188.239 1272.85 191.687C1267.92 200.613 1262.82 207.038 1257.53 210.959C1252.34 214.733 1245.55 217.49 1237.15 219.231C1232.86 224.406 1227.25 227.605 1220.32 228.828ZM1271.98 110.736C1266.68 111.669 1262.5 111.172 1259.43 109.243C1256.34 107.189 1254.41 103.956 1253.63 99.5441C1252.85 95.1321 1253.91 91.1764 1256.8 87.677C1259.79 84.0294 1263.88 81.7499 1269.05 80.8386C1273.71 80.0162 1277.69 80.4838 1280.99 82.2416C1284.29 83.9994 1286.31 86.9582 1287.04 91.118C1287.93 96.1602 1287 100.483 1284.26 104.086C1281.49 107.563 1277.4 109.78 1271.98 110.736ZM1288.37 212.54C1280.18 213.985 1273.68 212.141 1268.87 207.009C1264.19 201.856 1261.01 194.488 1259.32 184.908C1258.32 179.236 1257.74 171.865 1257.57 162.797C1257.5 153.58 1257.93 144.927 1258.84 136.838C1259.26 132.604 1260.29 129.564 1261.91 127.718C1263.53 125.872 1266.43 124.582 1270.59 123.849C1277.01 122.715 1280.61 124.291 1281.36 128.577C1281.92 131.728 1282.01 139.251 1281.64 151.144C1281.06 165.544 1281.2 175.202 1282.07 180.118C1282.73 183.899 1283.75 186.71 1285.11 188.549C1286.48 190.388 1288.36 191.096 1290.75 190.674C1293.02 190.274 1295.58 188.198 1298.43 184.447C1301.27 180.695 1304.93 174.916 1309.41 167.108C1310.61 165.077 1312.15 163.894 1314.05 163.561C1315.68 163.272 1317.08 163.806 1318.23 165.163C1319.5 166.498 1320.37 168.489 1320.84 171.136C1321.73 176.179 1321.22 180.297 1319.31 183.493C1309.52 200.946 1299.21 210.628 1288.37 212.54ZM1397.67 132.438C1399.31 132.149 1400.72 132.747 1401.89 134.23C1403.06 135.713 1403.87 137.715 1404.31 140.236C1405.38 146.287 1404.19 150.202 1400.73 151.981C1393.63 155.961 1385.58 158.941 1376.57 160.92C1376.04 171.931 1372.82 181.273 1366.89 188.946C1360.94 196.494 1353.49 201.057 1344.54 202.635C1336.98 203.968 1330.17 203.285 1324.1 200.585C1318.16 197.863 1313.27 193.721 1309.43 188.16C1305.59 182.598 1303.05 176.288 1301.81 169.229C1300.12 159.648 1300.44 150.817 1302.79 142.736C1305.11 134.528 1309.12 127.777 1314.81 122.484C1320.49 117.064 1327.23 113.665 1335.05 112.287C1344.63 110.598 1352.91 112.583 1359.88 118.241C1366.96 123.751 1371.86 131.271 1374.58 140.799C1380.44 139.376 1387.28 136.871 1395.09 133.283C1396.06 132.853 1396.92 132.572 1397.67 132.438ZM1342.52 182.325C1346.56 181.614 1349.73 179.364 1352.06 175.575C1354.5 171.764 1355.69 166.682 1355.61 160.327C1351.23 158.369 1347.59 155.436 1344.7 151.528C1341.92 147.598 1340.11 143.238 1339.27 138.447C1338.91 136.431 1338.75 134.38 1338.77 132.297L1337.82 132.463C1332.78 133.352 1328.99 136.555 1326.46 142.071C1324.02 147.439 1323.59 154.535 1325.14 163.359C1326.36 170.292 1328.62 175.353 1331.91 178.542C1335.33 181.709 1338.87 182.97 1342.52 182.325ZM1410.38 191.027C1405.59 191.871 1401.74 189.95 1398.83 185.264C1396.05 180.555 1393.69 172.654 1391.73 161.561C1388.84 145.174 1388.43 129.195 1390.49 113.624C1390.98 109.768 1392.34 106.799 1394.57 104.716C1396.91 102.484 1400.41 100.957 1405.07 100.135C1407.59 99.6901 1409.42 99.6941 1410.53 100.147C1411.65 100.599 1412.37 101.708 1412.68 103.472C1413.04 105.489 1412.89 110.194 1412.25 117.586C1411.87 122.851 1411.64 127.441 1411.55 131.356C1411.46 135.271 1411.66 140.046 1412.13 145.681C1414.38 134.107 1417.49 124.461 1421.45 116.742C1425.42 109.024 1429.61 103.282 1434.01 99.5158C1438.54 95.7275 1442.89 93.4665 1447.05 92.7331C1451.08 92.0218 1454.3 92.5598 1456.69 94.3471C1459.19 95.9862 1460.8 98.8226 1461.51 102.856C1462.09 106.134 1462.48 112.433 1462.7 121.753C1462.79 129.665 1463.07 137.154 1463.54 144.22C1463.98 151.161 1464.95 158.854 1466.44 167.299C1467.28 172.09 1466.88 175.734 1465.25 178.232C1463.71 180.583 1460.74 182.147 1456.32 182.925C1452.16 183.658 1448.95 183.12 1446.68 181.311C1444.41 179.501 1442.9 176.453 1442.15 172.168C1441.26 167.125 1440.67 158.65 1440.39 146.742C1440.13 136.391 1439.75 129.828 1439.26 127.055C1438.9 125.038 1438.03 124.152 1436.65 124.397C1435.01 124.686 1433.05 127.24 1430.78 132.059C1428.62 136.73 1426.57 142.81 1424.64 150.299C1422.84 157.765 1421.67 165.51 1421.14 173.533C1420.79 179.702 1419.87 184.025 1418.35 186.501C1416.94 188.829 1414.29 190.337 1410.38 191.027Z" fill="#F090A9" fill-opacity="0.09"/>
</svg>
