<svg width="429" height="83" viewBox="0 0 429 83" fill="none" xmlns="http://www.w3.org/2000/svg">
<path d="M427.193 80.9908C420.434 72.0958 413.65 63.265 406.855 54.5076C413.662 48.2196 420.445 42.005 427.193 35.8455C414.406 33.2568 401.537 30.8976 388.584 28.7863L388.584 61.0343C388.62 69.4612 360.718 61.9247 360.682 69.7733C383.054 72.8118 405.259 76.5479 427.193 81L427.193 80.9908Z" fill="#EB537B" stroke="#EB537B" stroke-width="2.75389" stroke-linejoin="round"/>
<path d="M68.3203 56.8591L68.3203 69.7656C68.2849 61.9262 40.3947 69.4627 40.4183 61.0266C49.6835 59.512 58.9842 58.1259 68.3203 56.8591Z" fill="#EB537B" stroke="#EB537B" stroke-width="2.75389" stroke-linejoin="round"/>
<path d="M1.80933 80.9883C8.56915 72.0932 15.3526 63.2624 22.1479 54.4959C15.3408 48.2078 8.55733 41.9932 1.80933 35.8337C14.5963 33.2451 27.466 30.8859 40.4183 28.7746L40.4183 61.0226C40.3829 69.4495 68.2849 61.913 68.3203 69.7616C45.9491 72.8 23.7433 76.5362 1.80933 80.9883Z" fill="#EB537B" stroke="#EB537B" stroke-width="2.75389" stroke-linejoin="round"/>
<path d="M360.684 56.8591L360.684 69.7656C360.708 61.9262 388.621 69.4627 388.586 61.0266C379.321 59.512 370.02 58.1259 360.684 56.8591Z" fill="#EB537B" stroke="#EB537B" stroke-width="2.75389" stroke-linejoin="round"/>
<path d="M68.3203 56.8591L68.3203 69.7656C68.2849 61.9262 40.3947 69.4627 40.4183 61.0266C49.6835 59.512 58.9842 58.1259 68.3203 56.8591Z" fill="white"/>
<path d="M360.684 56.8591L360.684 69.7656C360.708 61.9262 388.621 69.4627 388.586 61.0266C379.321 59.512 370.02 58.1259 360.684 56.8591Z" fill="white"/>
<path d="M388.311 15.8433L388.311 60.9795C274.221 42.3907 154.482 42.4091 40.4042 61.0254L40.4042 15.8891C154.482 -2.72712 274.221 -2.73627 388.311 15.8433Z" fill="#EB537B" stroke="#EB537B" stroke-width="2.75389" stroke-linejoin="round"/>
<path d="M66.9625 44.4922C66.5955 44.5451 66.2852 44.4699 66.0316 44.2667C65.7927 44.0613 65.6504 43.7971 65.6045 43.474C65.5566 43.1362 65.6198 42.8424 65.794 42.5925C65.9809 42.3258 66.2578 42.166 66.6249 42.1131L73.3635 41.1421L73.0227 38.741L68.6624 39.3693C68.2954 39.4222 67.9851 39.347 67.7316 39.1438C67.4759 38.9259 67.3252 38.6554 67.2793 38.3323C67.2314 37.9945 67.3009 37.6923 67.4877 37.4256C67.6746 37.1589 67.9515 36.9991 68.3186 36.9462L72.6788 36.3179L72.3881 34.2692L68.1379 34.8817C67.7709 34.9346 67.4533 34.8605 67.185 34.6594C66.9294 34.4414 66.7776 34.1636 66.7297 33.8258C66.7067 33.6643 66.7195 33.4901 66.7679 33.3033C66.5076 33.5806 66.2452 33.8432 65.9808 34.0911C65.7143 34.3243 65.454 34.5491 65.2001 34.7656C64.8664 35.0534 64.5066 35.2102 64.1208 35.2358C63.7349 35.2614 63.4089 35.1286 63.1429 34.8372C62.8747 34.5312 62.768 34.2019 62.8229 33.8493C62.8924 33.4946 63.0741 33.1912 63.3679 32.9391C64.1611 32.3002 64.9764 31.5533 65.8139 30.6984C66.6661 29.8413 67.471 28.9685 68.2288 28.08C68.9992 27.1747 69.6459 26.3473 70.1687 25.5976C70.8154 24.6651 71.5121 24.1377 72.2587 24.0151C73.02 23.8904 73.91 24.1967 74.9285 24.9341C75.6452 25.4453 76.4647 25.9941 77.3868 26.5805C78.3216 27.1501 79.2994 27.7061 80.3202 28.2483C81.3535 28.7738 82.3618 29.2279 83.345 29.6107C83.693 29.7404 83.9454 29.9888 84.1024 30.3558C84.2719 30.706 84.2769 31.0575 84.1172 31.4102C83.9344 31.8112 83.6416 32.0706 83.2389 32.1886C82.8488 32.2898 82.4462 32.2504 82.0311 32.0704C81.0375 31.6142 80.0136 31.1024 78.9593 30.535C77.9176 29.9508 76.9094 29.3393 75.9349 28.7004C74.975 28.0595 74.1221 27.4331 73.3761 26.8213C72.9192 26.4525 72.5176 26.5254 72.1711 27.0399C71.6231 27.8232 70.9387 28.7011 70.1179 29.6735C69.2971 30.646 68.4564 31.5839 67.5959 32.4872C67.6378 32.4661 67.7028 32.4493 67.7909 32.4366L78.9338 30.8308C79.3009 30.778 79.6112 30.8531 79.8647 31.0564C80.1183 31.2596 80.269 31.5301 80.317 31.8679C80.3649 32.2056 80.2965 32.5152 80.1117 32.7966C79.9248 33.0633 79.6479 33.2231 79.2809 33.276L75.1408 33.8726L75.4315 35.9212L79.7037 35.3056C80.0707 35.2527 80.3737 35.3289 80.6126 35.5343C80.8661 35.7375 81.0169 36.008 81.0648 36.3458C81.1107 36.6689 81.0412 36.9711 80.8564 37.2525C80.6842 37.5171 80.4146 37.6758 80.0476 37.7287L75.7754 38.3443L76.1162 40.7454L82.8107 39.7807C83.1777 39.7278 83.4807 39.8041 83.7196 40.0094C83.9711 40.198 84.1208 40.4611 84.1687 40.7989C84.2146 41.122 84.144 41.4169 83.9572 41.6836C83.785 41.9481 83.5154 42.1069 83.1484 42.1598L66.9625 44.4922Z" fill="white"/>
<path d="M96.075 40.3942C94.4585 40.6153 93.1354 40.624 92.1059 40.4205C91.091 40.2149 90.3129 39.7075 89.7715 38.8983C89.2301 38.0891 88.8549 36.8978 88.6459 35.3245L87.6352 27.7154C87.4242 26.1275 87.4742 24.8706 87.7852 23.9448C88.0961 23.019 88.7141 22.3207 89.6391 21.8499C90.5788 21.3771 91.857 21.0301 93.4735 20.8091L99.1168 20.0374C100.748 19.8144 102.071 19.8056 103.086 20.0112C104.101 20.2167 104.879 20.7241 105.42 21.5334C105.962 22.3426 106.338 23.5412 106.549 25.1292L107.56 32.7383C107.769 34.3115 107.718 35.5611 107.407 36.4869C107.096 37.4126 106.478 38.1109 105.553 38.5817C104.628 39.0526 103.35 39.3995 101.718 39.6225L96.075 40.3942ZM95.7674 38.0784L101.411 37.3067C102.41 37.1701 103.191 36.966 103.753 36.6945C104.316 36.423 104.687 36.0054 104.866 35.442C105.06 34.8765 105.091 34.0938 104.958 33.0939L103.948 25.4849C103.815 24.485 103.581 23.7385 103.246 23.2454C102.926 22.7502 102.459 22.4472 101.846 22.3365C101.233 22.2257 100.427 22.2386 99.4273 22.3753L93.7841 23.147C92.7847 23.2836 92.0039 23.4877 91.4414 23.7592C90.879 24.0307 90.5006 24.4493 90.3064 25.0148C90.1269 25.5782 90.1035 26.3599 90.2363 27.3597L91.2471 34.9688C91.3799 35.9687 91.6064 36.7162 91.9265 37.2113C92.2613 37.7045 92.7354 38.0065 93.3486 38.1172C93.9618 38.228 94.7681 38.215 95.7674 38.0784ZM93.3815 36.6755C93.0435 36.7218 92.7644 36.6477 92.544 36.4532C92.3237 36.2588 92.194 36.0145 92.1549 35.7205C92.1158 35.4264 92.1772 35.156 92.3389 34.9094C92.5007 34.6627 92.7506 34.5162 93.0886 34.47L96.7479 33.9696L96.3465 30.9481L93.569 31.3279C93.2457 31.3721 92.9665 31.298 92.7314 31.1055C92.5111 30.9111 92.3814 30.6669 92.3423 30.3728C92.3033 30.0787 92.3656 29.8157 92.5293 29.5837C92.7057 29.335 92.9556 29.1886 93.2789 29.1444L96.0565 28.7646L95.784 26.7134L92.4333 27.1716C92.11 27.2158 91.8309 27.1417 91.5958 26.9493C91.3755 26.7549 91.2458 26.5106 91.2067 26.2165C91.1676 25.9225 91.229 25.6521 91.3907 25.4054C91.5672 25.1567 91.8171 25.0103 92.1404 24.9661L101.443 23.694C101.781 23.6478 102.06 23.7219 102.28 23.9164C102.501 24.1108 102.63 24.355 102.67 24.6491C102.709 24.9432 102.647 25.2136 102.486 25.4602C102.324 25.7069 102.074 25.8534 101.736 25.8996L98.3411 26.3638L98.6136 28.4149L101.413 28.0321C101.751 27.9859 102.03 28.06 102.251 28.2544C102.469 28.4342 102.598 28.671 102.637 28.9651C102.676 29.2592 102.615 29.5296 102.453 29.7762C102.291 30.0229 102.041 30.1694 101.703 30.2156L101.218 30.2819C101.327 30.3119 101.431 30.365 101.531 30.4412C101.612 30.49 101.745 30.5842 101.928 30.7238C102.109 30.8487 102.291 30.981 102.474 31.1207C102.67 31.2436 102.802 31.3378 102.871 31.4033C103.104 31.581 103.234 31.8252 103.26 32.136C103.284 32.4321 103.2 32.6981 103.007 32.9341C102.956 33.001 102.876 33.0718 102.766 33.1467L103.074 33.1045C103.412 33.0583 103.692 33.1324 103.912 33.3269C104.132 33.5213 104.262 33.7655 104.301 34.0596C104.34 34.3537 104.279 34.624 104.117 34.8707C103.955 35.1174 103.705 35.2638 103.367 35.3101L93.3815 36.6755ZM99.305 33.62L101.884 33.2673C101.775 33.2373 101.671 33.1842 101.571 33.108C101.503 33.0425 101.362 32.942 101.15 32.8064C100.95 32.654 100.751 32.509 100.553 32.3714C100.353 32.2191 100.212 32.1112 100.129 32.0477C99.8974 31.8847 99.7706 31.6625 99.7482 31.3811C99.7239 31.0851 99.8019 30.8274 99.9822 30.6081C100.008 30.5747 100.041 30.5402 100.081 30.5048C100.121 30.4694 100.155 30.4423 100.182 30.4236L98.9036 30.5984L99.305 33.62Z" fill="white"/>
<path d="M123.182 36.1393C122.821 36.2626 122.469 36.2436 122.127 36.0821C121.784 35.9207 121.553 35.6669 121.432 35.3207C121.311 34.9745 121.332 34.6373 121.496 34.309C121.658 33.966 121.912 33.7335 122.258 33.6115C123.859 33.0289 124.999 32.2215 125.679 31.1891C126.374 30.1553 126.654 28.8999 126.519 27.4228C126.434 26.4922 126.151 25.6771 125.67 24.9774C125.189 24.2778 124.543 23.7351 123.733 23.3495C122.938 22.9624 122.005 22.7672 120.932 22.7639C120.893 25.2704 120.639 27.462 120.17 29.3386C119.714 31.1991 119.104 32.6644 118.338 33.7347C117.585 34.7888 116.743 35.3596 115.813 35.4471C115.03 35.5208 114.293 35.3592 113.602 34.9624C112.91 34.5657 112.333 33.957 111.871 33.1364C111.423 32.3144 111.145 31.3052 111.036 30.1087C110.923 28.8827 111.048 27.7164 111.408 26.6098C111.782 25.4871 112.36 24.4792 113.143 23.5862C113.925 22.6932 114.871 21.9635 115.981 21.3972C117.106 20.8296 118.362 20.4804 119.75 20.3498C121.434 20.1914 122.955 20.376 124.314 20.9037C125.686 21.4152 126.802 22.2115 127.66 23.2928C128.517 24.3593 129.016 25.6533 129.155 27.1747C129.35 29.3165 128.938 31.158 127.917 32.6992C126.909 34.2242 125.331 35.3709 123.182 36.1393ZM115.586 32.7198C115.852 32.6947 116.134 32.4447 116.434 31.9696C116.746 31.4783 117.042 30.8025 117.321 29.9419C117.599 29.0814 117.835 28.0759 118.028 26.9255C118.219 25.7604 118.326 24.484 118.348 23.0964C117.217 23.4263 116.289 23.9457 115.564 24.6545C114.838 25.3485 114.315 26.1501 113.996 27.0591C113.676 27.9533 113.552 28.8738 113.623 29.8205C113.715 30.825 113.94 31.5711 114.297 32.0589C114.669 32.5453 115.099 32.7656 115.586 32.7198Z" fill="white"/>
<path d="M134.857 32.9793C134.487 33.0051 134.153 32.8946 133.854 32.6478C133.568 32.3852 133.413 32.0689 133.388 31.699C133.362 31.3142 133.473 30.9867 133.723 30.7166C133.986 30.4306 134.302 30.2747 134.672 30.2489L142.418 29.7088C143.321 29.6458 143.997 29.5318 144.447 29.3666C144.895 29.1866 145.178 28.8621 145.295 28.393C145.427 27.9229 145.461 27.2143 145.396 26.2672C145.331 25.3053 145.202 24.608 145.009 24.1754C144.83 23.7269 144.507 23.4521 144.039 23.3509C143.585 23.2339 142.907 23.2068 142.004 23.2698L134.48 23.7944C134.11 23.8202 133.783 23.7092 133.499 23.4614C133.215 23.2136 133.059 22.8973 133.033 22.5126C133.007 22.1278 133.119 21.8003 133.368 21.5302C133.616 21.2452 133.925 21.0899 134.295 21.0641L141.82 20.5394C142.974 20.4589 143.934 20.4812 144.701 20.6061C145.482 20.7301 146.11 20.9985 146.584 21.4115C147.058 21.8245 147.41 22.4096 147.639 23.1668C147.884 23.9229 148.046 24.8929 148.126 26.0768C148.207 27.2607 148.177 28.2441 148.036 29.0271C147.911 29.809 147.641 30.4374 147.227 30.9123C146.814 31.3873 146.228 31.7403 145.471 31.9716C144.713 32.2028 143.757 32.3587 142.603 32.4392L134.857 32.9793Z" fill="white"/>
<path d="M156.625 33.075C156.276 33.2271 155.92 33.231 155.556 33.0868C155.207 32.9418 154.957 32.6951 154.805 32.3466C154.654 31.9981 154.651 31.6492 154.796 31.2999C154.941 30.9358 155.188 30.6777 155.536 30.5257C156.7 30.0484 157.866 29.4745 159.035 28.8039C160.219 28.1325 161.34 27.4125 162.4 26.6436C163.474 25.8592 164.443 25.0655 165.308 24.2624C166.187 23.4437 166.897 22.6636 167.438 21.9221C167.675 21.6125 167.977 21.4258 168.345 21.3618C168.728 21.2971 169.066 21.3832 169.361 21.6202C169.669 21.8416 169.855 22.1437 169.919 22.5265C169.983 22.8945 169.896 23.2333 169.66 23.5428C169.09 24.3155 168.324 25.1505 167.36 26.048C166.395 26.9306 165.311 27.8121 164.109 28.6924C162.906 29.5727 161.664 30.3958 160.381 31.1615C159.098 31.9272 157.846 32.565 156.625 33.075ZM158.087 24.2197C157.5 23.7753 156.846 23.3196 156.124 22.8527C155.401 22.3709 154.75 21.9819 154.17 21.6857C153.834 21.4955 153.612 21.225 153.505 20.8741C153.397 20.5085 153.431 20.1577 153.607 19.8216C153.798 19.4848 154.069 19.2626 154.419 19.1549C154.784 19.0317 155.135 19.0652 155.472 19.2554C155.885 19.4862 156.352 19.7734 156.875 20.1172C157.411 20.4454 157.926 20.7748 158.418 21.1053C158.925 21.4351 159.341 21.7177 159.664 21.9531C159.973 22.1745 160.159 22.4766 160.223 22.8594C160.301 23.2266 160.23 23.5646 160.008 23.8733C159.786 24.1821 159.484 24.3763 159.102 24.4558C158.734 24.5198 158.396 24.441 158.087 24.2197Z" fill="white"/>
<path d="M175.35 33.7628C175.059 33.5218 174.899 33.2163 174.87 32.8463C174.841 32.4615 174.947 32.1234 175.188 31.832C176.297 30.542 177.23 29.103 177.987 27.515C178.757 25.9115 179.338 24.1894 179.729 22.3484C178.9 22.4251 178.124 22.4998 177.399 22.5725C176.689 22.6298 176.223 22.6702 176.001 22.6936C175.631 22.7229 175.301 22.617 175.009 22.3759C174.718 22.1201 174.558 21.8072 174.529 21.4372C174.499 21.0524 174.605 20.7143 174.847 20.4229C175.088 20.1315 175.401 19.9709 175.786 19.9411C175.948 19.9199 176.259 19.893 176.718 19.8603C177.177 19.8276 177.71 19.792 178.317 19.7536C178.938 19.6998 179.56 19.6459 180.181 19.5921C180.317 18.4735 180.385 17.3205 180.385 16.133C180.385 15.747 180.521 15.4226 180.793 15.1597C181.065 14.8819 181.386 14.7507 181.758 14.7659C182.144 14.7658 182.468 14.9016 182.731 15.1734C183.007 15.4298 183.138 15.7513 183.123 16.1378C183.129 16.6868 183.113 17.2293 183.073 17.7652C183.034 18.3011 182.988 18.8447 182.935 19.396L183.578 19.3265C185.191 19.2044 186.444 19.3561 187.335 19.7816C188.227 20.2071 188.819 20.9485 189.111 22.0059C189.404 23.0633 189.443 24.4942 189.229 26.2987C189.049 27.8197 188.754 29.0632 188.346 30.0291C187.952 30.9944 187.453 31.7338 186.849 32.2471C186.259 32.745 185.581 33.0609 184.814 33.1946C184.048 33.3431 183.21 33.3608 182.3 33.2477C181.927 33.2029 181.624 33.0291 181.39 32.7265C181.155 32.4239 181.061 32.0861 181.106 31.7133C181.166 31.325 181.347 31.0211 181.651 30.8015C181.954 30.567 182.292 30.4797 182.665 30.5394C183.158 30.6093 183.603 30.6143 184.002 30.5542C184.4 30.4942 184.757 30.3171 185.072 30.0228C185.403 29.7279 185.682 29.2569 185.91 28.6097C186.152 27.9472 186.348 27.0489 186.498 25.915C186.661 24.7359 186.688 23.8591 186.577 23.2845C186.466 22.6951 186.184 22.3127 185.732 22.1373C185.295 21.9613 184.64 21.9051 183.766 21.9688C183.544 21.9774 183.123 22.0161 182.502 22.0847C182.053 24.3436 181.376 26.4703 180.472 28.4649C179.567 30.4594 178.504 32.1781 177.282 33.6209C177.041 33.9123 176.727 34.0655 176.342 34.0805C175.972 34.1097 175.641 34.0038 175.35 33.7628Z" fill="white"/>
<path d="M199.163 33.5536C198.826 33.7113 198.47 33.721 198.095 33.5829C197.736 33.4592 197.47 33.2291 197.298 32.8925C197.14 32.5556 197.124 32.2073 197.248 31.8478C197.371 31.4735 197.601 31.2075 197.939 31.0499C200.238 29.9333 202.162 28.6267 203.71 27.1301C205.258 25.6335 206.38 24.0224 207.076 22.297C207.368 21.5619 207.397 21.0046 207.165 20.6252C206.932 20.2458 206.378 20.0681 205.503 20.0921L197.096 20.3226C196.726 20.3328 196.396 20.2083 196.107 19.9491C195.833 19.6895 195.691 19.3744 195.681 19.0037C195.671 18.6182 195.796 18.2884 196.056 18.0141C196.33 17.7395 196.653 17.5971 197.023 17.587L205.564 17.3528C206.913 17.3158 207.965 17.5392 208.72 18.023C209.489 18.4915 209.952 19.1688 210.11 20.0548C210.281 20.9255 210.13 21.9535 209.657 23.1387C208.838 25.2534 207.533 27.2033 205.74 28.9885C203.963 30.7734 201.77 32.2951 199.163 33.5536Z" fill="white"/>
<path d="M216.9 31.6029C216.574 31.6084 216.29 31.4946 216.049 31.2613C215.808 31.0132 215.684 30.726 215.679 30.3998C215.673 30.0587 215.787 29.7749 216.021 29.5484C216.254 29.307 216.534 29.1836 216.86 29.1781L221.888 29.0926L221.827 25.3775L218.779 25.4293C218.453 25.4349 218.169 25.321 217.928 25.0877C217.686 24.8397 217.563 24.5525 217.557 24.2262C217.552 23.8851 217.666 23.6013 217.899 23.3748C218.133 23.1335 218.413 23.01 218.739 23.0045L227.192 22.8607C227.533 22.8549 227.825 22.9687 228.066 23.2019C228.307 23.4203 228.43 23.7001 228.436 24.0412C228.441 24.3675 228.327 24.6587 228.094 24.9149C227.861 25.1562 227.573 25.2797 227.232 25.2855L224.229 25.3366L224.291 29.0517L229.363 28.9654C229.704 28.9596 229.987 29.0735 230.214 29.307C230.455 29.5254 230.578 29.8052 230.584 30.1463C230.589 30.4726 230.475 30.7638 230.242 31.02C230.024 31.261 229.744 31.3845 229.403 31.3903L216.9 31.6029Z" fill="white"/>
<path d="M247.789 34.3332C245.803 34.6294 244.128 34.7455 242.763 34.6812C241.398 34.6319 240.299 34.4396 239.466 34.1045C238.647 33.7693 238.051 33.3212 237.676 32.7603C237.301 32.1845 237.111 31.5333 237.106 30.8065C237.098 29.6941 237.536 28.6526 238.419 27.682C239.317 26.7113 240.616 25.8564 242.317 25.1172C242.077 24.8222 241.787 24.6241 241.445 24.5228C240.702 24.3057 239.968 24.3926 239.244 24.7835C238.535 25.1744 237.842 25.7431 237.165 26.4896C236.914 26.7585 236.582 26.9092 236.166 26.9419C235.766 26.9596 235.439 26.8359 235.185 26.5708C234.946 26.2907 234.832 25.9652 234.844 25.5943C234.871 25.2233 235.025 24.9181 235.305 24.6787C236.027 24.0505 236.66 23.3709 237.204 22.6402C237.763 21.9093 238.232 21.1568 238.612 20.3827C237.974 20.4022 237.374 20.4214 236.81 20.4403C236.261 20.4443 235.787 20.4404 235.386 20.4284C235.015 20.4311 234.703 20.3073 234.449 20.057C234.195 19.7919 234.067 19.4739 234.064 19.1031C234.076 18.7322 234.215 18.4271 234.48 18.1878C234.746 17.9486 235.064 17.835 235.435 17.8471C235.954 17.8582 236.577 17.8611 237.304 17.8558C238.045 17.8355 238.816 17.8151 239.617 17.7944C239.689 17.5121 239.754 17.2372 239.812 16.9698C239.869 16.7024 239.919 16.435 239.962 16.1677C240.018 15.7965 240.179 15.4986 240.445 15.2742C240.71 15.0349 241.028 14.9362 241.4 14.978C241.771 15.0198 242.068 15.1808 242.293 15.461C242.517 15.7412 242.609 16.0668 242.567 16.438C242.553 16.6309 242.525 16.8314 242.482 17.0393C242.439 17.2473 242.389 17.4553 242.331 17.6634C242.894 17.6297 243.42 17.5962 243.91 17.5629C244.399 17.5149 244.836 17.4598 245.221 17.3976C245.592 17.3504 245.919 17.4371 246.202 17.6575C246.5 17.863 246.673 18.151 246.72 18.5215C246.767 18.8919 246.673 19.2189 246.438 19.5025C246.217 19.7859 245.929 19.9438 245.573 19.976C245.025 20.0394 244.395 20.0959 243.683 20.1455C242.972 20.1952 242.23 20.2377 241.459 20.273C241.138 21.0021 240.787 21.687 240.406 22.3276C240.761 22.2509 241.102 22.2261 241.429 22.2534C241.755 22.2659 242.067 22.3155 242.364 22.4024C242.81 22.5178 243.242 22.7223 243.659 23.0159C244.091 23.2946 244.472 23.6923 244.802 24.2091C245.528 23.9961 246.297 23.7977 247.112 23.6138C247.941 23.4297 248.815 23.2676 249.734 23.1274C250.09 23.0655 250.416 23.1447 250.715 23.365C251.013 23.5705 251.185 23.8585 251.233 24.229C251.294 24.5994 251.215 24.9263 250.995 25.2097C250.774 25.4932 250.479 25.6659 250.108 25.7279C249.249 25.838 248.456 25.9699 247.73 26.1235C247.005 26.2623 246.331 26.4155 245.709 26.5832C245.786 26.9831 245.848 27.4202 245.896 27.8945C245.944 28.3689 245.97 28.8804 245.974 29.4292C245.977 29.8 245.845 30.1199 245.58 30.3888C245.33 30.6428 245.019 30.7711 244.648 30.7738C244.278 30.7765 243.965 30.6527 243.711 30.4024C243.457 30.1373 243.329 29.8193 243.326 29.4485C243.321 28.692 243.272 28.0175 243.179 27.4248C241.966 27.938 241.087 28.4858 240.542 29.0683C240.012 29.6358 239.749 30.1865 239.753 30.7205C239.756 31.1209 239.996 31.4455 240.472 31.6942C240.948 31.9429 241.743 32.078 242.856 32.0996C243.968 32.1212 245.488 31.9989 247.414 31.7327C247.77 31.6856 248.097 31.7722 248.395 31.9925C248.693 32.198 248.866 32.486 248.913 32.8565C248.96 33.2121 248.873 33.5317 248.653 33.8151C248.432 34.0986 248.144 34.2712 247.789 34.3332Z" fill="white"/>
<path d="M256.398 33.407C256.027 33.3885 255.737 33.2551 255.526 33.0069C255.33 32.7594 255.24 32.4727 255.256 32.1468C255.273 31.806 255.39 31.5298 255.608 31.3179C255.842 31.0921 256.144 30.9884 256.515 31.007L263.314 31.3483L263.432 28.926L259.033 28.7052C258.662 28.6866 258.372 28.5532 258.161 28.305C257.951 28.042 257.854 27.7475 257.87 27.4216C257.887 27.0809 258.012 26.7975 258.246 26.5716C258.479 26.3458 258.781 26.2421 259.152 26.2607L263.552 26.4815L263.652 24.4148L259.364 24.1996C258.993 24.181 258.695 24.0472 258.47 23.7983C258.26 23.5353 258.163 23.2334 258.18 22.8926C258.188 22.7297 258.233 22.5612 258.316 22.3871C258.008 22.6093 257.701 22.8166 257.395 23.0092C257.089 23.1869 256.791 23.3576 256.501 23.5212C256.119 23.7397 255.736 23.8244 255.352 23.7755C254.969 23.7265 254.674 23.5335 254.467 23.1964C254.262 22.8445 254.219 22.5008 254.339 22.1652C254.475 21.8304 254.71 21.5675 255.046 21.3764C255.946 20.9018 256.887 20.3253 257.87 19.6469C258.869 18.9693 259.824 18.2673 260.735 17.5408C261.662 16.8002 262.453 16.1122 263.108 15.4767C263.919 14.6857 264.702 14.3018 265.459 14.3249C266.23 14.3487 267.046 14.8204 267.907 15.7398C268.514 16.3792 269.215 17.0753 270.01 17.8281C270.821 18.5668 271.676 19.3003 272.576 20.0286C273.491 20.7429 274.396 21.3823 275.289 21.947C275.606 22.1411 275.807 22.4334 275.892 22.8238C275.993 23.2001 275.931 23.546 275.708 23.8616C275.453 24.22 275.117 24.4185 274.699 24.4569C274.297 24.4813 273.909 24.3653 273.535 24.1089C272.646 23.4702 271.737 22.7711 270.809 22.0117C269.896 21.2382 269.021 20.4443 268.185 19.63C267.363 18.8165 266.644 18.0378 266.027 17.294C265.648 16.8443 265.239 16.8386 264.802 17.2771C264.116 17.9407 263.279 18.6709 262.29 19.4678C261.3 20.2646 260.298 21.0237 259.283 21.745C259.328 21.7325 259.395 21.7284 259.484 21.7329L270.728 22.2972C271.098 22.3158 271.389 22.4492 271.599 22.6974C271.81 22.9456 271.907 23.2401 271.89 23.5808C271.874 23.9216 271.748 24.2123 271.514 24.453C271.28 24.6789 270.978 24.7825 270.607 24.7639L266.43 24.5543L266.329 26.621L270.64 26.8373C271.01 26.8559 271.293 26.989 271.489 27.2364C271.7 27.4846 271.797 27.7791 271.78 28.1198C271.764 28.4458 271.639 28.7291 271.405 28.9698C271.186 29.1964 270.891 29.3004 270.521 29.2818L266.21 29.0655L266.092 31.4877L272.847 31.8268C273.217 31.8454 273.501 31.9784 273.696 32.2259C273.908 32.4592 274.005 32.7463 273.988 33.087C273.973 33.413 273.848 33.6889 273.614 33.9148C273.395 34.1414 273.1 34.2454 272.73 34.2268L256.398 33.407Z" fill="white"/>
<path d="M290.617 35.8235C290.068 35.7999 289.666 35.649 289.411 35.3708C289.155 35.0925 289.022 34.723 289.012 34.2624C289.001 33.8165 289.149 33.4592 289.457 33.1903C289.766 32.9215 290.157 32.7973 290.631 32.8177C291.342 32.8484 291.893 32.8127 292.283 32.7107C292.674 32.6087 292.972 32.3915 293.179 32.0589C293.401 31.7122 293.593 31.2156 293.753 30.5693C293.915 29.9082 294.049 29.1865 294.156 28.4042C294.278 27.6078 294.387 26.6103 294.481 25.4118C294.548 24.5387 294.417 23.9318 294.09 23.5911C293.777 23.2511 293.177 23.0619 292.288 23.0236L289.376 22.8982C289.126 24.966 288.671 26.78 288.012 28.3402C287.369 29.8862 286.452 31.22 285.262 32.3416C284.072 33.4484 282.556 34.3779 280.714 35.1299C280.246 35.3176 279.829 35.3442 279.463 35.2097C279.097 35.09 278.833 34.8411 278.671 34.463C278.522 34.1151 278.522 33.7662 278.67 33.4163C278.819 33.0515 279.089 32.7959 279.481 32.6495C280.96 32.0896 282.176 31.3996 283.131 30.5797C284.086 29.7448 284.835 28.7007 285.377 27.4473C285.935 26.1797 286.32 24.6225 286.53 22.7757L280.795 22.5288C280.41 22.5123 280.104 22.3729 279.878 22.1107C279.651 21.8486 279.545 21.5397 279.56 21.184C279.575 20.8283 279.706 20.5296 279.954 20.2879C280.202 20.0462 280.518 19.9336 280.903 19.9502L286.749 20.2019L286.882 17.0231C286.9 16.5933 287.048 16.2582 287.325 16.0177C287.617 15.7779 287.963 15.6666 288.364 15.6838C288.749 15.7004 289.077 15.8408 289.348 16.1048C289.619 16.3689 289.746 16.7158 289.728 17.1456L289.595 20.3244L292.529 20.4507C293.744 20.503 294.715 20.7008 295.443 21.0439C296.171 21.387 296.683 21.9212 296.98 22.6466C297.291 23.3726 297.391 24.342 297.281 25.5546C297.167 26.8562 297.047 27.9571 296.92 28.8573C296.794 29.7575 296.655 30.5829 296.505 31.3336C296.245 32.5844 295.878 33.5484 295.404 34.2258C294.946 34.889 294.334 35.3303 293.567 35.5497C292.801 35.7839 291.817 35.8752 290.617 35.8235Z" fill="white"/>
<path d="M301.843 38.3769C301.345 38.4449 300.948 38.3891 300.653 38.2095C300.371 38.0463 300.181 37.7807 300.084 37.4129C299.99 37.0154 300.048 36.6561 300.259 36.3349C300.469 36.0285 300.829 35.8494 301.341 35.7978C302.73 35.6277 304.014 35.3798 305.195 35.054C306.39 34.7298 307.495 34.3367 308.51 33.8747C307.873 33.0933 307.308 32.2523 306.817 31.3518C306.327 30.4365 305.92 29.4476 305.594 28.3851L303.956 28.2164C303.587 28.1784 303.296 28.0292 303.084 27.7687C302.886 27.5098 302.804 27.2106 302.838 26.8711C302.872 26.5317 303.012 26.2553 303.257 26.0419C303.518 25.8153 303.833 25.7211 304.202 25.7591L309.89 26.345L310.107 24.1755L302.516 23.3934C302.161 23.3569 301.885 23.2166 301.686 22.9724C301.503 22.715 301.428 22.4239 301.46 22.0992C301.494 21.7598 301.625 21.49 301.854 21.2899C302.098 21.0913 302.396 21.0102 302.75 21.0467L310.342 21.8288L310.55 19.7478C310.591 19.3345 310.757 19.0235 311.046 18.8147C311.336 18.5912 311.674 18.4992 312.057 18.5387C312.441 18.5782 312.753 18.7371 312.993 19.0154C313.235 19.2789 313.336 19.6173 313.294 20.0305L313.086 22.1115L320.655 22.8913C321.009 22.9278 321.279 23.0674 321.463 23.31C321.662 23.5542 321.745 23.846 321.711 24.1855C321.678 24.5102 321.539 24.7792 321.295 24.9925C321.066 25.1926 320.774 25.2745 320.42 25.238L312.851 24.4582L312.634 26.6278L313.873 26.7554C314.98 26.8695 315.799 27.1775 316.33 27.6795C316.861 28.1816 317.098 28.795 317.04 29.5197C316.984 30.2296 316.606 30.9512 315.907 31.6843C314.955 32.7046 313.918 33.6117 312.795 34.4056C313.698 35.0652 314.682 35.6587 315.747 36.1859C316.829 36.6999 317.986 37.1249 319.219 37.4607C319.655 37.5801 319.967 37.8062 320.158 38.1389C320.35 38.4569 320.372 38.8245 320.226 39.2419C320.08 39.6593 319.822 39.9309 319.452 40.0568C319.094 40.1989 318.684 40.2014 318.221 40.0642C316.732 39.5977 315.33 39.0133 314.014 38.3111C312.698 37.6089 311.498 36.7919 310.413 35.8601C307.992 37.1167 305.135 37.9556 301.843 38.3769ZM310.803 32.6347C311.759 32.0175 312.619 31.3232 313.382 30.5519C313.795 30.1471 313.954 29.8279 313.858 29.5944C313.763 29.3461 313.377 29.187 312.698 29.1171L308.294 28.6633C308.85 30.1073 309.686 31.4311 310.803 32.6347Z" fill="white"/>
<path d="M323.989 40.8361C323.019 40.704 322.564 40.2379 322.625 39.4378C322.663 39.0388 322.808 38.7367 323.06 38.5314C323.311 38.3262 323.645 38.2369 324.06 38.2636C324.492 38.2775 324.782 38.2347 324.93 38.1351C325.08 38.0208 325.178 37.7872 325.225 37.4342L325.736 33.5743C325.518 33.6345 325.309 33.6884 325.108 33.7358C324.922 33.7853 324.752 33.8295 324.597 33.8683C324.21 33.9653 323.863 33.9329 323.555 33.7712C323.249 33.5948 323.048 33.3054 322.952 32.9031C322.879 32.5489 322.936 32.2274 323.124 31.9386C323.312 31.6499 323.597 31.4717 323.98 31.4041C324.257 31.3519 324.58 31.2837 324.95 31.1994C325.32 31.1151 325.699 31.0245 326.086 30.9275L326.626 26.847L324.906 26.6127C324.583 26.5687 324.326 26.4214 324.134 26.1708C323.943 25.9201 323.869 25.6331 323.912 25.3096C323.955 24.9861 324.101 24.7291 324.351 24.5386C324.602 24.3333 324.89 24.2527 325.213 24.2968L326.932 24.5311L327.315 21.6417C327.364 21.274 327.52 20.996 327.784 20.8074C328.063 20.6209 328.365 20.5497 328.688 20.5937C329.026 20.6398 329.298 20.7891 329.504 21.0417C329.71 21.2943 329.789 21.6045 329.74 21.9721L329.357 24.8615L330.504 25.0177C330.827 25.0617 331.083 25.2164 331.273 25.4817C331.479 25.7343 331.56 26.0224 331.517 26.3459C331.475 26.6694 331.321 26.9254 331.057 27.1139C330.807 27.3045 330.521 27.3777 330.197 27.3336L329.051 27.1774L328.636 30.3095C328.776 30.2687 328.908 30.2343 329.032 30.2062C329.155 30.1781 329.271 30.149 329.38 30.1189C329.723 30.0159 330.018 30.0412 330.267 30.1949C330.516 30.3486 330.684 30.5511 330.771 30.8024C330.885 30.7282 331.005 30.6697 331.13 30.6269C331.27 30.5861 331.414 30.5757 331.561 30.5957L333.898 30.9141C333.949 30.7564 333.999 30.5986 334.05 30.4409C334.103 30.2684 334.148 30.095 334.186 29.9205L332.246 29.6562C331.967 29.6181 331.738 29.4822 331.56 29.2483C331.381 29.0144 331.31 28.7577 331.347 28.4783C331.386 28.1843 331.521 27.9557 331.752 27.7925C331.985 27.6147 332.242 27.5448 332.521 27.5829L333.204 27.676C333.13 27.561 333.077 27.4491 333.047 27.3401C332.984 27.137 332.897 26.8857 332.787 26.5863C332.694 26.2742 332.604 25.9925 332.518 25.7412C332.433 25.4752 332.443 25.2295 332.548 25.0043C332.669 24.7663 332.856 24.5972 333.109 24.4969L332.8 24.4548C332.46 24.4235 332.192 24.3046 331.995 24.0981C331.797 23.8916 331.716 23.6035 331.75 23.2339C331.782 22.879 331.92 22.6283 332.164 22.4819C332.424 22.3228 332.731 22.2673 333.083 22.3153C333.717 22.3867 334.449 22.4565 335.277 22.5245C336.123 22.5798 336.992 22.6308 337.883 22.6774C338.777 22.7093 339.633 22.7363 340.453 22.7582C341.29 22.7674 342.009 22.7606 342.611 22.7377C343.046 22.7223 343.372 22.8041 343.588 22.9832C343.804 23.1623 343.921 23.4029 343.941 23.705C343.974 24.4729 343.593 24.87 342.796 24.8962C342.106 24.907 341.328 24.9132 340.46 24.9147C339.608 24.9034 338.737 24.8745 337.845 24.8279C338.05 24.9756 338.188 25.1814 338.257 25.4454C338.316 25.678 338.389 25.9797 338.474 26.3507C338.576 26.7089 338.645 26.9802 338.681 27.1647C338.75 27.4287 338.726 27.6723 338.606 27.8956C338.504 28.1061 338.327 28.2542 338.076 28.3398L339.421 28.523C339.574 28.2744 339.751 27.9542 339.952 27.5625C340.168 27.1728 340.368 26.7958 340.551 26.4315C340.748 26.0692 340.888 25.8038 340.97 25.6354C341.133 25.3132 341.368 25.1133 341.678 25.0357C341.987 24.9582 342.311 25.0022 342.648 25.1679C342.901 25.2922 343.068 25.502 343.148 25.7974C343.243 26.0948 343.213 26.3826 343.056 26.6606C342.937 26.8839 342.736 27.2158 342.453 27.6563C342.187 28.0841 341.941 28.4771 341.714 28.8354L342.419 28.9315C342.713 28.9716 342.942 29.1076 343.106 29.3395C343.286 29.5586 343.357 29.8153 343.318 30.1094C343.281 30.3888 343.146 30.6174 342.913 30.7952C342.695 30.975 342.439 31.0449 342.145 31.0049L336.677 30.2599C336.639 30.4344 336.594 30.6078 336.541 30.7803C336.49 30.938 336.44 31.0958 336.389 31.2535L342.76 32.1216C343.054 32.1616 343.29 32.2986 343.469 32.5325C343.649 32.7517 343.72 33.0084 343.681 33.3024C343.644 33.5818 343.508 33.8178 343.273 34.0103C343.04 34.1881 342.777 34.257 342.483 34.217L335.649 33.2858C335.585 33.4269 335.521 33.5679 335.458 33.7089C335.394 33.85 335.33 33.9984 335.264 34.1541L338.395 34.5806C339.262 34.6988 339.903 34.9433 340.318 35.3142C340.747 35.687 340.942 36.1328 340.904 36.6515C340.865 37.1701 340.584 37.7082 340.062 38.2657C339.885 38.4663 339.696 38.6575 339.492 38.8393C339.29 39.0064 339.073 39.1789 338.84 39.3567C339.27 39.61 339.717 39.8505 340.181 40.0783C340.646 40.2914 341.13 40.4772 341.633 40.6355C342.077 40.7858 342.352 41.0253 342.458 41.3542C342.579 41.685 342.558 42.0115 342.396 42.3337C342.23 42.6853 341.971 42.8895 341.619 42.9464C341.267 43.0032 340.907 42.9542 340.539 42.7992C339.105 42.2146 337.848 41.482 336.768 40.6013C336.131 40.8888 335.456 41.1262 334.743 41.3134C334.043 41.5174 333.312 41.6723 332.55 41.778C332.2 41.8202 331.868 41.7825 331.555 41.6649C331.256 41.5493 331.064 41.3061 330.978 40.9351C330.905 40.5809 330.968 40.2751 331.167 40.0178C331.382 39.7477 331.702 39.5892 332.127 39.5424C332.661 39.4654 333.167 39.3771 333.644 39.2774C334.137 39.1651 334.604 39.034 335.042 38.8842C334.514 38.2433 334.06 37.5453 333.681 36.7901C333.115 37.5662 332.466 38.2861 331.734 38.9499C331.018 39.6158 330.214 40.2098 329.322 40.7319C329.013 40.9144 328.684 40.9743 328.333 40.9115C327.982 40.8488 327.721 40.671 327.551 40.3783C327.354 40.0522 327.307 39.7314 327.409 39.4159C327.525 39.1024 327.745 38.8554 328.068 38.6749C329.252 37.9829 330.259 37.1546 331.09 36.19C331.935 35.2274 332.625 34.1462 333.157 32.9464L331.284 32.6911C330.916 32.641 330.644 32.4392 330.466 32.0857C330.348 32.1893 330.178 32.2859 329.956 32.3755C329.754 32.4377 329.504 32.516 329.207 32.6103C328.927 32.6918 328.624 32.7778 328.298 32.8681L327.591 38.2058C327.449 39.2792 327.074 40.0215 326.466 40.4327C325.858 40.8438 325.032 40.9783 323.989 40.8361ZM334.791 27.8922L336.952 28.1866C336.762 28.0409 336.637 27.8518 336.578 27.6192C336.543 27.4348 336.474 27.1634 336.372 26.8052C336.284 26.449 336.205 26.1462 336.133 25.8969C336.059 25.6623 336.065 25.4461 336.151 25.2483C336.239 25.0357 336.388 24.8763 336.596 24.77C336.197 24.7306 335.798 24.6986 335.397 24.6739C335.011 24.6513 334.625 24.6286 334.239 24.606C334.433 24.7222 334.572 24.9134 334.657 25.1794C334.745 25.4159 334.835 25.6976 334.926 26.0245C335.035 26.3386 335.106 26.5879 335.142 26.7723C335.287 27.2562 335.17 27.6295 334.791 27.8922ZM337.074 37.9484C337.207 37.8468 337.332 37.7516 337.448 37.6627C337.579 37.5757 337.703 37.4878 337.82 37.3989C338.123 37.1409 338.242 36.925 338.175 36.7512C338.123 36.5794 337.913 36.4685 337.546 36.4185L335.672 36.1632C335.883 36.4913 336.103 36.8057 336.332 37.1064C336.579 37.3945 336.826 37.6751 337.074 37.9484Z" fill="white"/>
<path d="M352.674 38.5534C352.357 38.4623 352.111 38.2715 351.935 37.9808C351.76 37.6901 351.703 37.3735 351.764 37.0308C351.885 36.4136 352.03 35.7091 352.2 34.9171C352.385 34.1298 352.567 33.3242 352.746 32.5005C352.929 31.661 353.109 30.8634 353.285 30.1078C353.462 29.3522 353.622 28.6862 353.766 28.1098C353.91 27.5335 354.019 27.1103 354.094 26.8403L354.753 24.4817C354.881 24.0211 355.148 23.6775 355.554 23.4509C355.975 23.2288 356.432 23.1884 356.923 23.3296C357.43 23.4753 357.798 23.7525 358.026 24.1612C358.271 24.5745 358.328 25.0114 358.2 25.472L357.542 27.8307C357.466 28.1007 357.333 28.517 357.142 29.0797C356.966 29.6469 356.758 30.2993 356.518 31.0366C356.278 31.774 356.019 32.5489 355.741 33.3611C355.484 34.162 355.222 34.9448 354.958 35.7094C354.693 36.474 354.452 37.1513 354.236 37.7412C354.128 38.0702 353.923 38.3117 353.623 38.4657C353.324 38.6198 353.007 38.649 352.674 38.5534ZM351.052 44.3666C350.497 44.2072 350.077 43.8721 349.792 43.3612C349.506 42.8503 349.441 42.3168 349.597 41.7609C349.752 41.205 350.083 40.7855 350.59 40.5022C351.097 40.219 351.628 40.157 352.182 40.3164C352.737 40.4758 353.157 40.8109 353.443 41.3218C353.728 41.8327 353.793 42.3661 353.638 42.922C353.483 43.478 353.152 43.8975 352.645 44.1808C352.138 44.464 351.607 44.5259 351.052 44.3666Z" fill="white"/>
</svg>
