<svg width="136" height="25" viewBox="0 0 136 25" fill="none" xmlns="http://www.w3.org/2000/svg">
<mask id="path-1-outside-1_10944_60643" maskUnits="userSpaceOnUse" x="-0.5" y="0" width="136" height="25" fill="black">
<rect fill="white" x="-0.5" width="136" height="25"/>
<path d="M12.99 21.924C12.6233 21.9093 12.308 21.77 12.044 21.506C11.7947 21.2567 11.6773 20.9487 11.692 20.582C11.692 20.2007 11.824 19.8853 12.088 19.636C12.352 19.372 12.6673 19.2473 13.034 19.262C14.2367 19.2767 15.146 19.086 15.762 18.69C16.3927 18.294 16.708 17.6927 16.708 16.886C16.708 16.1087 16.3633 15.5147 15.674 15.104C14.9993 14.6933 14.0313 14.488 12.77 14.488C12.2713 14.488 11.7947 14.51 11.34 14.554C10.8853 14.598 10.4453 14.6567 10.02 14.73V17.502C10.02 19.0127 9.67534 20.1273 8.986 20.846C8.29667 21.55 7.29934 21.902 5.994 21.902C4.938 21.902 4.058 21.6307 3.354 21.088C2.65 20.5453 2.298 19.68 2.298 18.492C2.298 17.2747 2.75267 16.182 3.662 15.214C4.586 14.246 5.84 13.4907 7.424 12.948V9.67C6.79334 9.72867 6.17734 9.77267 5.576 9.802C4.98934 9.83133 4.43934 9.85333 3.926 9.868C3.55934 9.868 3.244 9.74333 2.98 9.494C2.716 9.24467 2.584 8.93667 2.584 8.57C2.584 8.20333 2.70867 7.89533 2.958 7.646C3.222 7.39667 3.53734 7.272 3.904 7.272C4.41734 7.25733 4.97467 7.23533 5.576 7.206C6.17734 7.17667 6.79334 7.14 7.424 7.096V4.39C7.424 4.00867 7.54867 3.69333 7.798 3.444C8.04734 3.18 8.35534 3.048 8.722 3.048C9.08867 3.048 9.39667 3.18 9.646 3.444C9.89534 3.69333 10.02 4.00867 10.02 4.39V6.876C10.3573 6.84667 10.6727 6.81 10.966 6.766C11.2593 6.722 11.5453 6.68533 11.824 6.656C12.1907 6.59733 12.5207 6.66333 12.814 6.854C13.1073 7.04467 13.2833 7.32333 13.342 7.69C13.4007 8.05667 13.32 8.372 13.1 8.636C12.88 8.9 12.5867 9.06133 12.22 9.12C11.912 9.17867 11.5673 9.23 11.186 9.274C10.8193 9.318 10.4307 9.36933 10.02 9.428V12.332C10.9 12.2 11.8313 12.134 12.814 12.134C14.1633 12.134 15.3293 12.3247 16.312 12.706C17.2947 13.0873 18.05 13.6373 18.578 14.356C19.1207 15.06 19.392 15.9033 19.392 16.886C19.392 18.514 18.8273 19.7753 17.698 20.67C16.5687 21.5647 14.9993 21.9827 12.99 21.924ZM17.786 11.232C17.5513 11.056 17.2653 10.8653 16.928 10.66C16.5907 10.44 16.2533 10.2347 15.916 10.044C15.5787 9.83867 15.2853 9.67733 15.036 9.56C14.7133 9.39867 14.4787 9.14933 14.332 8.812C14.2 8.47467 14.2073 8.14467 14.354 7.822C14.53 7.47 14.7867 7.24267 15.124 7.14C15.476 7.03733 15.8133 7.06667 16.136 7.228C16.444 7.37467 16.796 7.56533 17.192 7.8C17.588 8.03467 17.9767 8.27667 18.358 8.526C18.754 8.76067 19.0767 8.97333 19.326 9.164C19.6193 9.36933 19.788 9.648 19.832 10C19.876 10.352 19.7953 10.6747 19.59 10.968C19.37 11.2467 19.084 11.4153 18.732 11.474C18.3947 11.518 18.0793 11.4373 17.786 11.232ZM5.994 19.394C6.434 19.394 6.77867 19.2693 7.028 19.02C7.292 18.7707 7.424 18.2647 7.424 17.502V15.522C6.632 15.8887 6.016 16.3287 5.576 16.842C5.15067 17.3407 4.938 17.8613 4.938 18.404C4.938 19.064 5.29 19.394 5.994 19.394ZM39.324 22.782C38.8987 22.782 38.5613 22.6647 38.312 22.43C38.0773 22.21 37.9453 21.9093 37.916 21.528C37.872 21.176 37.96 20.868 38.18 20.604C38.4 20.34 38.6933 20.186 39.06 20.142C39.6173 20.0687 39.9547 19.9587 40.072 19.812C40.204 19.6653 40.27 19.3867 40.27 18.976V10.484H37.652C36.8013 10.484 36.112 10.396 35.584 10.22C35.056 10.044 34.6673 9.736 34.418 9.296C34.1833 8.84133 34.066 8.21067 34.066 7.404V6.282C34.066 5.06467 34.3447 4.214 34.902 3.73C35.4593 3.246 36.376 3.004 37.652 3.004H39.192C40.468 3.004 41.3847 3.246 41.942 3.73C42.4993 4.214 42.778 5.06467 42.778 6.282V19.592C42.778 20.7213 42.5067 21.5353 41.964 22.034C41.4213 22.5327 40.5413 22.782 39.324 22.782ZM25.2 22.914C24.8627 22.914 24.5693 22.7967 24.32 22.562C24.0853 22.3273 23.968 22.0267 23.968 21.66V6.26C23.968 5.05733 24.2393 4.214 24.782 3.73C25.3393 3.23133 26.256 2.982 27.532 2.982H28.984C30.2747 2.982 31.1913 3.23133 31.734 3.73C32.2913 4.214 32.57 5.05733 32.57 6.26V7.404C32.57 8.21067 32.4453 8.84133 32.196 9.296C31.9613 9.736 31.58 10.044 31.052 10.22C30.5387 10.396 29.8493 10.484 28.984 10.484H26.454V21.66C26.454 22.0267 26.3293 22.3273 26.08 22.562C25.8453 22.7967 25.552 22.914 25.2 22.914ZM33.252 19.262C32.1813 19.262 31.3453 19.1447 30.744 18.91C30.1427 18.6607 29.7173 18.2793 29.468 17.766C29.2187 17.238 29.094 16.5633 29.094 15.742C29.094 14.906 29.2187 14.2313 29.468 13.718C29.7173 13.2047 30.1427 12.8307 30.744 12.596C31.3453 12.3613 32.1813 12.244 33.252 12.244C34.3227 12.244 35.1513 12.3613 35.738 12.596C36.3393 12.8307 36.7647 13.2047 37.014 13.718C37.2633 14.2313 37.388 14.906 37.388 15.742C37.388 16.5633 37.2633 17.238 37.014 17.766C36.7647 18.2793 36.3393 18.6607 35.738 18.91C35.1513 19.1447 34.3227 19.262 33.252 19.262ZM33.252 17.172C33.8973 17.172 34.33 17.0767 34.55 16.886C34.7847 16.6953 34.902 16.314 34.902 15.742C34.902 15.1847 34.7847 14.8107 34.55 14.62C34.33 14.4293 33.8973 14.334 33.252 14.334C32.592 14.334 32.1447 14.4293 31.91 14.62C31.69 14.8107 31.58 15.1847 31.58 15.742C31.58 16.314 31.69 16.6953 31.91 16.886C32.1447 17.0767 32.592 17.172 33.252 17.172ZM37.916 8.526H40.27V7.536H36.508C36.5373 7.94667 36.6473 8.218 36.838 8.35C37.0433 8.46733 37.4027 8.526 37.916 8.526ZM26.454 8.526H28.742C29.2553 8.526 29.6073 8.46733 29.798 8.35C30.0033 8.218 30.1207 7.94667 30.15 7.536H26.454V8.526ZM36.508 5.886H40.27C40.226 5.50467 40.1087 5.25533 39.918 5.138C39.7273 5.006 39.3753 4.94 38.862 4.94H37.916C37.4173 4.94 37.0653 5.006 36.86 5.138C36.6547 5.25533 36.5373 5.50467 36.508 5.886ZM26.476 5.886H30.128C30.0987 5.50467 29.9887 5.25533 29.798 5.138C29.6073 5.006 29.2553 4.94 28.742 4.94H27.862C27.3633 4.94 27.0113 5.006 26.806 5.138C26.6153 5.25533 26.5053 5.50467 26.476 5.886ZM52.194 19.262C51.5193 19.2913 50.874 19.1373 50.258 18.8C49.642 18.4627 49.0993 17.92 48.63 17.172C48.234 16.512 47.8967 15.676 47.618 14.664C47.3393 13.652 47.1413 12.5593 47.024 11.386C46.9067 10.198 46.8773 9.01733 46.936 7.844C46.9653 7.47733 47.1047 7.17667 47.354 6.942C47.618 6.69267 47.9333 6.58267 48.3 6.612C48.6667 6.62667 48.9673 6.77333 49.202 7.052C49.4513 7.316 49.5613 7.63133 49.532 7.998C49.4733 9.02467 49.4807 10.0293 49.554 11.012C49.6273 11.98 49.7667 12.8673 49.972 13.674C50.1773 14.466 50.434 15.126 50.742 15.654C51.0793 16.2553 51.5047 16.556 52.018 16.556C52.6487 16.5413 53.1767 15.8813 53.602 14.576C53.7193 14.2387 53.9393 13.9893 54.262 13.828C54.5847 13.652 54.922 13.6227 55.274 13.74C55.6113 13.8427 55.8607 14.0627 56.022 14.4C56.1833 14.7227 56.2053 15.0527 56.088 15.39C55.6773 16.6807 55.1273 17.6413 54.438 18.272C53.7487 18.888 53.0007 19.218 52.194 19.262ZM64.184 15.39C63.832 15.522 63.4873 15.5073 63.15 15.346C62.8273 15.1847 62.6 14.9353 62.468 14.598C62.248 14.0553 61.9473 13.5053 61.566 12.948C61.1993 12.3907 60.7813 11.8627 60.312 11.364C59.8573 10.8653 59.388 10.4473 58.904 10.11C58.6107 9.90467 58.4273 9.61867 58.354 9.252C58.2807 8.88533 58.3613 8.55533 58.596 8.262C58.8307 7.96867 59.1167 7.80733 59.454 7.778C59.806 7.74867 60.136 7.844 60.444 8.064C61.06 8.48933 61.6613 9.01 62.248 9.626C62.8493 10.242 63.392 10.902 63.876 11.606C64.36 12.31 64.7193 12.9993 64.954 13.674C65.0713 14.0113 65.0567 14.356 64.91 14.708C64.7633 15.0453 64.5213 15.2727 64.184 15.39ZM76.57 22.452C75.382 22.452 74.4287 22.32 73.71 22.056C73.006 21.792 72.5 21.352 72.192 20.736C71.884 20.12 71.73 19.284 71.73 18.228C71.73 17.1573 71.884 16.3213 72.192 15.72C72.5 15.104 73.006 14.664 73.71 14.4C74.4287 14.136 75.382 14.004 76.57 14.004H79.848C81.0507 14.004 82.004 14.136 82.708 14.4C83.412 14.664 83.918 15.104 84.226 15.72C84.5487 16.3213 84.71 17.1573 84.71 18.228C84.71 19.284 84.5487 20.12 84.226 20.736C83.918 21.352 83.412 21.792 82.708 22.056C82.004 22.32 81.0507 22.452 79.848 22.452H76.57ZM69.728 12.266C69.3613 12.5007 68.9873 12.596 68.606 12.552C68.2247 12.508 67.924 12.3173 67.704 11.98C67.484 11.6427 67.4327 11.3053 67.55 10.968C67.6673 10.616 67.8873 10.3447 68.21 10.154C69.09 9.64067 69.9993 9.032 70.938 8.328C71.8767 7.60933 72.7713 6.86867 73.622 6.106C74.4873 5.34333 75.228 4.632 75.844 3.972C76.636 3.10667 77.406 2.674 78.154 2.674C78.9167 2.674 79.7307 3.092 80.596 3.928C81.2267 4.544 81.9527 5.19667 82.774 5.886C83.61 6.57533 84.49 7.25 85.414 7.91C86.3527 8.57 87.2913 9.164 88.23 9.692C88.5527 9.88267 88.7653 10.1687 88.868 10.55C88.9853 10.9313 88.934 11.2907 88.714 11.628C88.4793 11.9947 88.164 12.2073 87.768 12.266C87.372 12.3247 86.9833 12.2293 86.602 11.98C85.7073 11.3933 84.7833 10.7407 83.83 10.022C82.8767 9.30333 81.9673 8.56267 81.102 7.8C80.2367 7.03733 79.474 6.31133 78.814 5.622C78.6087 5.38733 78.4107 5.27 78.22 5.27C78.0293 5.25533 77.824 5.36533 77.604 5.6C76.988 6.27467 76.284 6.97867 75.492 7.712C74.7 8.44533 73.8787 9.15667 73.028 9.846C73.16 9.78733 73.3287 9.758 73.534 9.758H82.862C83.2287 9.758 83.5147 9.87533 83.72 10.11C83.94 10.3447 84.05 10.6307 84.05 10.968C84.05 11.2907 83.94 11.5693 83.72 11.804C83.5147 12.0387 83.2287 12.156 82.862 12.156H73.534C73.1673 12.156 72.874 12.0387 72.654 11.804C72.4487 11.5693 72.346 11.2907 72.346 10.968C72.346 10.6747 72.4193 10.4327 72.566 10.242C72.082 10.6087 71.598 10.968 71.114 11.32C70.6447 11.6573 70.1827 11.9727 69.728 12.266ZM76.592 20.098H79.848C80.6693 20.098 81.2267 19.9807 81.52 19.746C81.828 19.4967 81.982 18.9907 81.982 18.228C81.982 17.4653 81.828 16.9593 81.52 16.71C81.2267 16.4607 80.6693 16.336 79.848 16.336H76.592C75.7707 16.336 75.206 16.4607 74.898 16.71C74.6047 16.9593 74.458 17.4653 74.458 18.228C74.458 18.9907 74.6047 19.4967 74.898 19.746C75.206 19.9807 75.7707 20.098 76.592 20.098ZM97.316 22.716C96.964 22.716 96.6633 22.5913 96.414 22.342C96.1647 22.0927 96.04 21.792 96.04 21.44V15.764C95.6293 16.1453 95.204 16.5413 94.764 16.952C94.3387 17.3627 93.9133 17.7733 93.488 18.184C93.224 18.4333 92.9087 18.558 92.542 18.558C92.19 18.558 91.8893 18.4333 91.64 18.184C91.4053 17.92 91.288 17.6047 91.288 17.238C91.3027 16.8713 91.442 16.5707 91.706 16.336C92.3953 15.6907 93.0993 15.0453 93.818 14.4C94.5513 13.74 95.292 13.1167 96.04 12.53V9.626C95.7907 9.67 95.468 9.736 95.072 9.824C94.676 9.912 94.2873 10 93.906 10.088C93.5247 10.176 93.224 10.242 93.004 10.286C92.652 10.3593 92.322 10.3007 92.014 10.11C91.706 9.91933 91.5153 9.648 91.442 9.296C91.3687 8.92933 91.4273 8.592 91.618 8.284C91.8087 7.976 92.08 7.78533 92.432 7.712C92.5493 7.68267 92.762 7.646 93.07 7.602C93.378 7.54333 93.7227 7.47733 94.104 7.404C94.4853 7.33067 94.852 7.26467 95.204 7.206C95.556 7.14733 95.8347 7.096 96.04 7.052V3.884C96.04 3.532 96.1647 3.23133 96.414 2.982C96.6633 2.73267 96.964 2.608 97.316 2.608C97.668 2.608 97.9687 2.73267 98.218 2.982C98.4673 3.23133 98.592 3.532 98.592 3.884V7.052C99.032 7.19867 99.3987 7.47733 99.692 7.888C99.8827 8.16667 99.9707 8.49667 99.956 8.878C99.956 9.25933 99.8753 9.67733 99.714 10.132C100.418 9.76533 101.122 9.47933 101.826 9.274C102.53 9.06867 103.219 8.966 103.894 8.966C105.771 8.966 107.209 9.45 108.206 10.418C109.218 11.3713 109.724 12.6473 109.724 14.246C109.724 15.258 109.482 16.2187 108.998 17.128C108.529 18.0373 107.744 18.822 106.644 19.482C105.544 20.142 104.07 20.6113 102.222 20.89C101.855 20.9487 101.525 20.8753 101.232 20.67C100.953 20.45 100.777 20.1567 100.704 19.79C100.645 19.4233 100.726 19.1007 100.946 18.822C101.166 18.5287 101.452 18.3527 101.804 18.294C103.755 17.986 105.126 17.4947 105.918 16.82C106.71 16.1307 107.106 15.2727 107.106 14.246C107.106 13.3807 106.835 12.7133 106.292 12.244C105.749 11.76 104.935 11.518 103.85 11.518C102.955 11.518 102.075 11.716 101.21 12.112C100.345 12.4933 99.472 13.0067 98.592 13.652V21.44C98.592 21.792 98.4673 22.0927 98.218 22.342C97.9687 22.5913 97.668 22.716 97.316 22.716ZM128.952 21.022C126.943 21.242 125.19 21.2567 123.694 21.066C122.213 20.8753 121.003 20.362 120.064 19.526C119.433 18.9393 118.964 18.228 118.656 17.392C118.348 16.5413 118.194 15.4927 118.194 14.246V12.222C117.49 12.31 116.823 12.4053 116.192 12.508C115.561 12.596 114.975 12.6913 114.432 12.794C114.08 12.8527 113.757 12.7793 113.464 12.574C113.171 12.3687 112.995 12.09 112.936 11.738C112.877 11.386 112.943 11.0633 113.134 10.77C113.339 10.4767 113.618 10.3007 113.97 10.242C114.571 10.154 115.224 10.066 115.928 9.978C116.647 9.87533 117.402 9.78 118.194 9.692V6.018C118.194 5.65133 118.319 5.34333 118.568 5.094C118.832 4.83 119.147 4.698 119.514 4.698C119.881 4.698 120.189 4.83 120.438 5.094C120.687 5.34333 120.812 5.65133 120.812 6.018V9.428C121.575 9.35467 122.345 9.28867 123.122 9.23C123.914 9.17133 124.691 9.11267 125.454 9.054C125.527 8.42333 125.579 7.81467 125.608 7.228C125.652 6.64133 125.681 6.09133 125.696 5.578C125.711 5.21133 125.843 4.90333 126.092 4.654C126.356 4.40467 126.671 4.28733 127.038 4.302C127.405 4.31667 127.713 4.456 127.962 4.72C128.226 4.96933 128.351 5.27733 128.336 5.644C128.321 6.14267 128.292 6.67067 128.248 7.228C128.219 7.77067 128.175 8.328 128.116 8.9C128.761 8.856 129.392 8.82667 130.008 8.812C130.624 8.78267 131.211 8.76067 131.768 8.746C132.135 8.746 132.443 8.878 132.692 9.142C132.941 9.39133 133.066 9.692 133.066 10.044C133.066 10.396 132.941 10.704 132.692 10.968C132.443 11.2173 132.135 11.342 131.768 11.342C130.551 11.3127 129.245 11.3347 127.852 11.408C127.749 12.1267 127.632 12.8307 127.5 13.52C127.383 14.1947 127.258 14.8107 127.126 15.368C127.038 15.72 126.84 15.9913 126.532 16.182C126.224 16.358 125.894 16.4093 125.542 16.336C125.175 16.248 124.897 16.05 124.706 15.742C124.53 15.434 124.479 15.104 124.552 14.752C124.669 14.268 124.779 13.7547 124.882 13.212C124.985 12.6693 125.073 12.1193 125.146 11.562C124.427 11.606 123.701 11.6647 122.968 11.738C122.249 11.7967 121.531 11.8627 120.812 11.936V14.246C120.812 15.0673 120.9 15.7493 121.076 16.292C121.252 16.8347 121.516 17.2673 121.868 17.59C122.425 18.0887 123.232 18.3967 124.288 18.514C125.344 18.6167 126.811 18.5727 128.688 18.382C129.055 18.338 129.377 18.4333 129.656 18.668C129.949 18.9027 130.111 19.2033 130.14 19.57C130.184 19.9367 130.089 20.2667 129.854 20.56C129.634 20.8387 129.333 20.9927 128.952 21.022Z"/>
</mask>
<path d="M12.99 21.924C12.6233 21.9093 12.308 21.77 12.044 21.506C11.7947 21.2567 11.6773 20.9487 11.692 20.582C11.692 20.2007 11.824 19.8853 12.088 19.636C12.352 19.372 12.6673 19.2473 13.034 19.262C14.2367 19.2767 15.146 19.086 15.762 18.69C16.3927 18.294 16.708 17.6927 16.708 16.886C16.708 16.1087 16.3633 15.5147 15.674 15.104C14.9993 14.6933 14.0313 14.488 12.77 14.488C12.2713 14.488 11.7947 14.51 11.34 14.554C10.8853 14.598 10.4453 14.6567 10.02 14.73V17.502C10.02 19.0127 9.67534 20.1273 8.986 20.846C8.29667 21.55 7.29934 21.902 5.994 21.902C4.938 21.902 4.058 21.6307 3.354 21.088C2.65 20.5453 2.298 19.68 2.298 18.492C2.298 17.2747 2.75267 16.182 3.662 15.214C4.586 14.246 5.84 13.4907 7.424 12.948V9.67C6.79334 9.72867 6.17734 9.77267 5.576 9.802C4.98934 9.83133 4.43934 9.85333 3.926 9.868C3.55934 9.868 3.244 9.74333 2.98 9.494C2.716 9.24467 2.584 8.93667 2.584 8.57C2.584 8.20333 2.70867 7.89533 2.958 7.646C3.222 7.39667 3.53734 7.272 3.904 7.272C4.41734 7.25733 4.97467 7.23533 5.576 7.206C6.17734 7.17667 6.79334 7.14 7.424 7.096V4.39C7.424 4.00867 7.54867 3.69333 7.798 3.444C8.04734 3.18 8.35534 3.048 8.722 3.048C9.08867 3.048 9.39667 3.18 9.646 3.444C9.89534 3.69333 10.02 4.00867 10.02 4.39V6.876C10.3573 6.84667 10.6727 6.81 10.966 6.766C11.2593 6.722 11.5453 6.68533 11.824 6.656C12.1907 6.59733 12.5207 6.66333 12.814 6.854C13.1073 7.04467 13.2833 7.32333 13.342 7.69C13.4007 8.05667 13.32 8.372 13.1 8.636C12.88 8.9 12.5867 9.06133 12.22 9.12C11.912 9.17867 11.5673 9.23 11.186 9.274C10.8193 9.318 10.4307 9.36933 10.02 9.428V12.332C10.9 12.2 11.8313 12.134 12.814 12.134C14.1633 12.134 15.3293 12.3247 16.312 12.706C17.2947 13.0873 18.05 13.6373 18.578 14.356C19.1207 15.06 19.392 15.9033 19.392 16.886C19.392 18.514 18.8273 19.7753 17.698 20.67C16.5687 21.5647 14.9993 21.9827 12.99 21.924ZM17.786 11.232C17.5513 11.056 17.2653 10.8653 16.928 10.66C16.5907 10.44 16.2533 10.2347 15.916 10.044C15.5787 9.83867 15.2853 9.67733 15.036 9.56C14.7133 9.39867 14.4787 9.14933 14.332 8.812C14.2 8.47467 14.2073 8.14467 14.354 7.822C14.53 7.47 14.7867 7.24267 15.124 7.14C15.476 7.03733 15.8133 7.06667 16.136 7.228C16.444 7.37467 16.796 7.56533 17.192 7.8C17.588 8.03467 17.9767 8.27667 18.358 8.526C18.754 8.76067 19.0767 8.97333 19.326 9.164C19.6193 9.36933 19.788 9.648 19.832 10C19.876 10.352 19.7953 10.6747 19.59 10.968C19.37 11.2467 19.084 11.4153 18.732 11.474C18.3947 11.518 18.0793 11.4373 17.786 11.232ZM5.994 19.394C6.434 19.394 6.77867 19.2693 7.028 19.02C7.292 18.7707 7.424 18.2647 7.424 17.502V15.522C6.632 15.8887 6.016 16.3287 5.576 16.842C5.15067 17.3407 4.938 17.8613 4.938 18.404C4.938 19.064 5.29 19.394 5.994 19.394ZM39.324 22.782C38.8987 22.782 38.5613 22.6647 38.312 22.43C38.0773 22.21 37.9453 21.9093 37.916 21.528C37.872 21.176 37.96 20.868 38.18 20.604C38.4 20.34 38.6933 20.186 39.06 20.142C39.6173 20.0687 39.9547 19.9587 40.072 19.812C40.204 19.6653 40.27 19.3867 40.27 18.976V10.484H37.652C36.8013 10.484 36.112 10.396 35.584 10.22C35.056 10.044 34.6673 9.736 34.418 9.296C34.1833 8.84133 34.066 8.21067 34.066 7.404V6.282C34.066 5.06467 34.3447 4.214 34.902 3.73C35.4593 3.246 36.376 3.004 37.652 3.004H39.192C40.468 3.004 41.3847 3.246 41.942 3.73C42.4993 4.214 42.778 5.06467 42.778 6.282V19.592C42.778 20.7213 42.5067 21.5353 41.964 22.034C41.4213 22.5327 40.5413 22.782 39.324 22.782ZM25.2 22.914C24.8627 22.914 24.5693 22.7967 24.32 22.562C24.0853 22.3273 23.968 22.0267 23.968 21.66V6.26C23.968 5.05733 24.2393 4.214 24.782 3.73C25.3393 3.23133 26.256 2.982 27.532 2.982H28.984C30.2747 2.982 31.1913 3.23133 31.734 3.73C32.2913 4.214 32.57 5.05733 32.57 6.26V7.404C32.57 8.21067 32.4453 8.84133 32.196 9.296C31.9613 9.736 31.58 10.044 31.052 10.22C30.5387 10.396 29.8493 10.484 28.984 10.484H26.454V21.66C26.454 22.0267 26.3293 22.3273 26.08 22.562C25.8453 22.7967 25.552 22.914 25.2 22.914ZM33.252 19.262C32.1813 19.262 31.3453 19.1447 30.744 18.91C30.1427 18.6607 29.7173 18.2793 29.468 17.766C29.2187 17.238 29.094 16.5633 29.094 15.742C29.094 14.906 29.2187 14.2313 29.468 13.718C29.7173 13.2047 30.1427 12.8307 30.744 12.596C31.3453 12.3613 32.1813 12.244 33.252 12.244C34.3227 12.244 35.1513 12.3613 35.738 12.596C36.3393 12.8307 36.7647 13.2047 37.014 13.718C37.2633 14.2313 37.388 14.906 37.388 15.742C37.388 16.5633 37.2633 17.238 37.014 17.766C36.7647 18.2793 36.3393 18.6607 35.738 18.91C35.1513 19.1447 34.3227 19.262 33.252 19.262ZM33.252 17.172C33.8973 17.172 34.33 17.0767 34.55 16.886C34.7847 16.6953 34.902 16.314 34.902 15.742C34.902 15.1847 34.7847 14.8107 34.55 14.62C34.33 14.4293 33.8973 14.334 33.252 14.334C32.592 14.334 32.1447 14.4293 31.91 14.62C31.69 14.8107 31.58 15.1847 31.58 15.742C31.58 16.314 31.69 16.6953 31.91 16.886C32.1447 17.0767 32.592 17.172 33.252 17.172ZM37.916 8.526H40.27V7.536H36.508C36.5373 7.94667 36.6473 8.218 36.838 8.35C37.0433 8.46733 37.4027 8.526 37.916 8.526ZM26.454 8.526H28.742C29.2553 8.526 29.6073 8.46733 29.798 8.35C30.0033 8.218 30.1207 7.94667 30.15 7.536H26.454V8.526ZM36.508 5.886H40.27C40.226 5.50467 40.1087 5.25533 39.918 5.138C39.7273 5.006 39.3753 4.94 38.862 4.94H37.916C37.4173 4.94 37.0653 5.006 36.86 5.138C36.6547 5.25533 36.5373 5.50467 36.508 5.886ZM26.476 5.886H30.128C30.0987 5.50467 29.9887 5.25533 29.798 5.138C29.6073 5.006 29.2553 4.94 28.742 4.94H27.862C27.3633 4.94 27.0113 5.006 26.806 5.138C26.6153 5.25533 26.5053 5.50467 26.476 5.886ZM52.194 19.262C51.5193 19.2913 50.874 19.1373 50.258 18.8C49.642 18.4627 49.0993 17.92 48.63 17.172C48.234 16.512 47.8967 15.676 47.618 14.664C47.3393 13.652 47.1413 12.5593 47.024 11.386C46.9067 10.198 46.8773 9.01733 46.936 7.844C46.9653 7.47733 47.1047 7.17667 47.354 6.942C47.618 6.69267 47.9333 6.58267 48.3 6.612C48.6667 6.62667 48.9673 6.77333 49.202 7.052C49.4513 7.316 49.5613 7.63133 49.532 7.998C49.4733 9.02467 49.4807 10.0293 49.554 11.012C49.6273 11.98 49.7667 12.8673 49.972 13.674C50.1773 14.466 50.434 15.126 50.742 15.654C51.0793 16.2553 51.5047 16.556 52.018 16.556C52.6487 16.5413 53.1767 15.8813 53.602 14.576C53.7193 14.2387 53.9393 13.9893 54.262 13.828C54.5847 13.652 54.922 13.6227 55.274 13.74C55.6113 13.8427 55.8607 14.0627 56.022 14.4C56.1833 14.7227 56.2053 15.0527 56.088 15.39C55.6773 16.6807 55.1273 17.6413 54.438 18.272C53.7487 18.888 53.0007 19.218 52.194 19.262ZM64.184 15.39C63.832 15.522 63.4873 15.5073 63.15 15.346C62.8273 15.1847 62.6 14.9353 62.468 14.598C62.248 14.0553 61.9473 13.5053 61.566 12.948C61.1993 12.3907 60.7813 11.8627 60.312 11.364C59.8573 10.8653 59.388 10.4473 58.904 10.11C58.6107 9.90467 58.4273 9.61867 58.354 9.252C58.2807 8.88533 58.3613 8.55533 58.596 8.262C58.8307 7.96867 59.1167 7.80733 59.454 7.778C59.806 7.74867 60.136 7.844 60.444 8.064C61.06 8.48933 61.6613 9.01 62.248 9.626C62.8493 10.242 63.392 10.902 63.876 11.606C64.36 12.31 64.7193 12.9993 64.954 13.674C65.0713 14.0113 65.0567 14.356 64.91 14.708C64.7633 15.0453 64.5213 15.2727 64.184 15.39ZM76.57 22.452C75.382 22.452 74.4287 22.32 73.71 22.056C73.006 21.792 72.5 21.352 72.192 20.736C71.884 20.12 71.73 19.284 71.73 18.228C71.73 17.1573 71.884 16.3213 72.192 15.72C72.5 15.104 73.006 14.664 73.71 14.4C74.4287 14.136 75.382 14.004 76.57 14.004H79.848C81.0507 14.004 82.004 14.136 82.708 14.4C83.412 14.664 83.918 15.104 84.226 15.72C84.5487 16.3213 84.71 17.1573 84.71 18.228C84.71 19.284 84.5487 20.12 84.226 20.736C83.918 21.352 83.412 21.792 82.708 22.056C82.004 22.32 81.0507 22.452 79.848 22.452H76.57ZM69.728 12.266C69.3613 12.5007 68.9873 12.596 68.606 12.552C68.2247 12.508 67.924 12.3173 67.704 11.98C67.484 11.6427 67.4327 11.3053 67.55 10.968C67.6673 10.616 67.8873 10.3447 68.21 10.154C69.09 9.64067 69.9993 9.032 70.938 8.328C71.8767 7.60933 72.7713 6.86867 73.622 6.106C74.4873 5.34333 75.228 4.632 75.844 3.972C76.636 3.10667 77.406 2.674 78.154 2.674C78.9167 2.674 79.7307 3.092 80.596 3.928C81.2267 4.544 81.9527 5.19667 82.774 5.886C83.61 6.57533 84.49 7.25 85.414 7.91C86.3527 8.57 87.2913 9.164 88.23 9.692C88.5527 9.88267 88.7653 10.1687 88.868 10.55C88.9853 10.9313 88.934 11.2907 88.714 11.628C88.4793 11.9947 88.164 12.2073 87.768 12.266C87.372 12.3247 86.9833 12.2293 86.602 11.98C85.7073 11.3933 84.7833 10.7407 83.83 10.022C82.8767 9.30333 81.9673 8.56267 81.102 7.8C80.2367 7.03733 79.474 6.31133 78.814 5.622C78.6087 5.38733 78.4107 5.27 78.22 5.27C78.0293 5.25533 77.824 5.36533 77.604 5.6C76.988 6.27467 76.284 6.97867 75.492 7.712C74.7 8.44533 73.8787 9.15667 73.028 9.846C73.16 9.78733 73.3287 9.758 73.534 9.758H82.862C83.2287 9.758 83.5147 9.87533 83.72 10.11C83.94 10.3447 84.05 10.6307 84.05 10.968C84.05 11.2907 83.94 11.5693 83.72 11.804C83.5147 12.0387 83.2287 12.156 82.862 12.156H73.534C73.1673 12.156 72.874 12.0387 72.654 11.804C72.4487 11.5693 72.346 11.2907 72.346 10.968C72.346 10.6747 72.4193 10.4327 72.566 10.242C72.082 10.6087 71.598 10.968 71.114 11.32C70.6447 11.6573 70.1827 11.9727 69.728 12.266ZM76.592 20.098H79.848C80.6693 20.098 81.2267 19.9807 81.52 19.746C81.828 19.4967 81.982 18.9907 81.982 18.228C81.982 17.4653 81.828 16.9593 81.52 16.71C81.2267 16.4607 80.6693 16.336 79.848 16.336H76.592C75.7707 16.336 75.206 16.4607 74.898 16.71C74.6047 16.9593 74.458 17.4653 74.458 18.228C74.458 18.9907 74.6047 19.4967 74.898 19.746C75.206 19.9807 75.7707 20.098 76.592 20.098ZM97.316 22.716C96.964 22.716 96.6633 22.5913 96.414 22.342C96.1647 22.0927 96.04 21.792 96.04 21.44V15.764C95.6293 16.1453 95.204 16.5413 94.764 16.952C94.3387 17.3627 93.9133 17.7733 93.488 18.184C93.224 18.4333 92.9087 18.558 92.542 18.558C92.19 18.558 91.8893 18.4333 91.64 18.184C91.4053 17.92 91.288 17.6047 91.288 17.238C91.3027 16.8713 91.442 16.5707 91.706 16.336C92.3953 15.6907 93.0993 15.0453 93.818 14.4C94.5513 13.74 95.292 13.1167 96.04 12.53V9.626C95.7907 9.67 95.468 9.736 95.072 9.824C94.676 9.912 94.2873 10 93.906 10.088C93.5247 10.176 93.224 10.242 93.004 10.286C92.652 10.3593 92.322 10.3007 92.014 10.11C91.706 9.91933 91.5153 9.648 91.442 9.296C91.3687 8.92933 91.4273 8.592 91.618 8.284C91.8087 7.976 92.08 7.78533 92.432 7.712C92.5493 7.68267 92.762 7.646 93.07 7.602C93.378 7.54333 93.7227 7.47733 94.104 7.404C94.4853 7.33067 94.852 7.26467 95.204 7.206C95.556 7.14733 95.8347 7.096 96.04 7.052V3.884C96.04 3.532 96.1647 3.23133 96.414 2.982C96.6633 2.73267 96.964 2.608 97.316 2.608C97.668 2.608 97.9687 2.73267 98.218 2.982C98.4673 3.23133 98.592 3.532 98.592 3.884V7.052C99.032 7.19867 99.3987 7.47733 99.692 7.888C99.8827 8.16667 99.9707 8.49667 99.956 8.878C99.956 9.25933 99.8753 9.67733 99.714 10.132C100.418 9.76533 101.122 9.47933 101.826 9.274C102.53 9.06867 103.219 8.966 103.894 8.966C105.771 8.966 107.209 9.45 108.206 10.418C109.218 11.3713 109.724 12.6473 109.724 14.246C109.724 15.258 109.482 16.2187 108.998 17.128C108.529 18.0373 107.744 18.822 106.644 19.482C105.544 20.142 104.07 20.6113 102.222 20.89C101.855 20.9487 101.525 20.8753 101.232 20.67C100.953 20.45 100.777 20.1567 100.704 19.79C100.645 19.4233 100.726 19.1007 100.946 18.822C101.166 18.5287 101.452 18.3527 101.804 18.294C103.755 17.986 105.126 17.4947 105.918 16.82C106.71 16.1307 107.106 15.2727 107.106 14.246C107.106 13.3807 106.835 12.7133 106.292 12.244C105.749 11.76 104.935 11.518 103.85 11.518C102.955 11.518 102.075 11.716 101.21 12.112C100.345 12.4933 99.472 13.0067 98.592 13.652V21.44C98.592 21.792 98.4673 22.0927 98.218 22.342C97.9687 22.5913 97.668 22.716 97.316 22.716ZM128.952 21.022C126.943 21.242 125.19 21.2567 123.694 21.066C122.213 20.8753 121.003 20.362 120.064 19.526C119.433 18.9393 118.964 18.228 118.656 17.392C118.348 16.5413 118.194 15.4927 118.194 14.246V12.222C117.49 12.31 116.823 12.4053 116.192 12.508C115.561 12.596 114.975 12.6913 114.432 12.794C114.08 12.8527 113.757 12.7793 113.464 12.574C113.171 12.3687 112.995 12.09 112.936 11.738C112.877 11.386 112.943 11.0633 113.134 10.77C113.339 10.4767 113.618 10.3007 113.97 10.242C114.571 10.154 115.224 10.066 115.928 9.978C116.647 9.87533 117.402 9.78 118.194 9.692V6.018C118.194 5.65133 118.319 5.34333 118.568 5.094C118.832 4.83 119.147 4.698 119.514 4.698C119.881 4.698 120.189 4.83 120.438 5.094C120.687 5.34333 120.812 5.65133 120.812 6.018V9.428C121.575 9.35467 122.345 9.28867 123.122 9.23C123.914 9.17133 124.691 9.11267 125.454 9.054C125.527 8.42333 125.579 7.81467 125.608 7.228C125.652 6.64133 125.681 6.09133 125.696 5.578C125.711 5.21133 125.843 4.90333 126.092 4.654C126.356 4.40467 126.671 4.28733 127.038 4.302C127.405 4.31667 127.713 4.456 127.962 4.72C128.226 4.96933 128.351 5.27733 128.336 5.644C128.321 6.14267 128.292 6.67067 128.248 7.228C128.219 7.77067 128.175 8.328 128.116 8.9C128.761 8.856 129.392 8.82667 130.008 8.812C130.624 8.78267 131.211 8.76067 131.768 8.746C132.135 8.746 132.443 8.878 132.692 9.142C132.941 9.39133 133.066 9.692 133.066 10.044C133.066 10.396 132.941 10.704 132.692 10.968C132.443 11.2173 132.135 11.342 131.768 11.342C130.551 11.3127 129.245 11.3347 127.852 11.408C127.749 12.1267 127.632 12.8307 127.5 13.52C127.383 14.1947 127.258 14.8107 127.126 15.368C127.038 15.72 126.84 15.9913 126.532 16.182C126.224 16.358 125.894 16.4093 125.542 16.336C125.175 16.248 124.897 16.05 124.706 15.742C124.53 15.434 124.479 15.104 124.552 14.752C124.669 14.268 124.779 13.7547 124.882 13.212C124.985 12.6693 125.073 12.1193 125.146 11.562C124.427 11.606 123.701 11.6647 122.968 11.738C122.249 11.7967 121.531 11.8627 120.812 11.936V14.246C120.812 15.0673 120.9 15.7493 121.076 16.292C121.252 16.8347 121.516 17.2673 121.868 17.59C122.425 18.0887 123.232 18.3967 124.288 18.514C125.344 18.6167 126.811 18.5727 128.688 18.382C129.055 18.338 129.377 18.4333 129.656 18.668C129.949 18.9027 130.111 19.2033 130.14 19.57C130.184 19.9367 130.089 20.2667 129.854 20.56C129.634 20.8387 129.333 20.9927 128.952 21.022Z" fill="white"/>
<path d="M12.99 21.924L12.9101 23.9224L12.9208 23.9228L12.9316 23.9231L12.99 21.924ZM12.044 21.506L13.4582 20.0918L12.044 21.506ZM11.692 20.582L13.6904 20.6619L13.692 20.622V20.582H11.692ZM12.088 19.636L13.4612 21.09L13.482 21.0704L13.5022 21.0502L12.088 19.636ZM13.034 19.262L12.9541 21.2604L12.9818 21.2615L13.0096 21.2619L13.034 19.262ZM15.762 18.69L14.6985 16.9962L14.6894 17.0019L14.6805 17.0076L15.762 18.69ZM15.674 15.104L14.6341 16.8124L14.6422 16.8173L14.6504 16.8222L15.674 15.104ZM11.34 14.554L11.5326 16.5447H11.5327L11.34 14.554ZM10.02 14.73L9.68019 12.7591L8.02 13.0453V14.73H10.02ZM8.986 20.846L10.415 22.2452L10.4222 22.2379L10.4294 22.2304L8.986 20.846ZM3.354 21.088L2.13299 22.672H2.13299L3.354 21.088ZM3.662 15.214L2.21529 13.833L2.20977 13.8388L2.20431 13.8446L3.662 15.214ZM7.424 12.948L8.0722 14.84L9.424 14.3769V12.948H7.424ZM7.424 9.67H9.424V7.47532L7.23875 7.6786L7.424 9.67ZM5.576 9.802L5.47856 7.80437L5.47613 7.8045L5.576 9.802ZM3.926 9.868V11.868H3.95457L3.98312 11.8672L3.926 9.868ZM2.98 9.494L1.60675 10.948L1.60676 10.948L2.98 9.494ZM2.958 7.646L1.58476 6.19197L1.56399 6.21159L1.54379 6.23179L2.958 7.646ZM3.904 7.272V9.272H3.93257L3.96112 9.27118L3.904 7.272ZM5.576 7.206L5.47856 5.20837H5.47856L5.576 7.206ZM7.424 7.096L7.5632 9.09115L9.424 8.96132V7.096H7.424ZM7.798 3.444L9.21222 4.85821L9.23242 4.83801L9.25203 4.81725L7.798 3.444ZM9.646 3.444L8.19197 4.81725L8.21159 4.83801L8.23179 4.85821L9.646 3.444ZM10.02 6.876H8.02V9.05746L10.1933 8.86848L10.02 6.876ZM10.966 6.766L11.2627 8.74387L11.2627 8.74387L10.966 6.766ZM11.824 6.656L12.0334 8.64501L12.0869 8.63938L12.14 8.63088L11.824 6.656ZM12.814 6.854L11.724 8.53089L11.724 8.53089L12.814 6.854ZM13.342 7.69L11.3671 8.00598L11.3671 8.00598L13.342 7.69ZM12.22 9.12L11.904 7.14512L11.8748 7.14979L11.8458 7.15532L12.22 9.12ZM11.186 9.274L10.9568 7.28716L10.9477 7.28825L11.186 9.274ZM10.02 9.428L9.73716 7.4481L8.02 7.69341V9.428H10.02ZM10.02 12.332H8.02V14.6544L10.3167 14.3099L10.02 12.332ZM16.312 12.706L15.5885 14.5705L16.312 12.706ZM18.578 14.356L16.9662 15.5402L16.9799 15.5587L16.994 15.577L18.578 14.356ZM17.698 20.67L16.4561 19.1023H16.4561L17.698 20.67ZM17.786 11.232L16.586 12.832L16.6122 12.8517L16.6391 12.8705L17.786 11.232ZM16.928 10.66L15.8355 12.3352L15.8615 12.3522L15.8881 12.3684L16.928 10.66ZM15.916 10.044L14.8761 11.7524L14.9037 11.7692L14.9319 11.7851L15.916 10.044ZM15.036 9.56L14.1416 11.3489L14.1629 11.3595L14.1844 11.3696L15.036 9.56ZM14.332 8.812L12.4695 9.5408L12.4831 9.57539L12.4979 9.60945L14.332 8.812ZM14.354 7.822L12.5651 6.92757L12.5486 6.96069L12.5333 6.99439L14.354 7.822ZM15.124 7.14L14.564 5.22L14.5528 5.22326L14.5417 5.22665L15.124 7.14ZM16.136 7.228L15.2416 9.01685L15.2588 9.02545L15.2761 9.03372L16.136 7.228ZM17.192 7.8L16.1724 9.52058L16.1724 9.52058L17.192 7.8ZM18.358 8.526L17.2635 10.1999L17.3004 10.2241L17.3384 10.2466L18.358 8.526ZM19.326 9.164L18.1111 10.7527L18.1446 10.7783L18.1791 10.8025L19.326 9.164ZM19.832 10L17.8474 10.2481V10.2481L19.832 10ZM19.59 10.968L21.1598 12.2073L21.1954 12.1621L21.2285 12.1149L19.59 10.968ZM18.732 11.474L18.9907 13.4572L19.0258 13.4526L19.0608 13.4468L18.732 11.474ZM7.028 19.02L5.65475 17.566L5.63399 17.5856L5.61379 17.6058L7.028 19.02ZM7.424 15.522H9.424V12.3921L6.58375 13.7071L7.424 15.522ZM5.576 16.842L4.05748 15.5404L4.05433 15.5441L5.576 16.842ZM13.0699 19.9256C13.1215 19.9277 13.2 19.9407 13.2868 19.9791C13.3731 20.0173 13.4302 20.0637 13.4582 20.0918L10.6298 22.9202C11.2424 23.5329 12.0314 23.8873 12.9101 23.9224L13.0699 19.9256ZM13.4582 20.0918C13.5188 20.1524 13.5894 20.2484 13.638 20.376C13.6859 20.5017 13.6926 20.6059 13.6904 20.6619L9.6936 20.5021C9.65765 21.4008 9.96796 22.2584 10.6298 22.9202L13.4582 20.0918ZM13.692 20.582C13.692 20.6259 13.6835 20.7181 13.6359 20.8318C13.5874 20.9476 13.5195 21.035 13.4612 21.09L10.7148 18.182C10.0287 18.8299 9.692 19.6814 9.692 20.582H13.692ZM13.5022 21.0502C13.4604 21.092 13.3792 21.1564 13.2578 21.2044C13.1356 21.2527 13.026 21.2633 12.9541 21.2604L13.1139 17.2636C12.1786 17.2262 11.3247 17.5709 10.6738 18.2218L13.5022 21.0502ZM13.0096 21.2619C14.3767 21.2785 15.7481 21.0766 16.8435 20.3724L14.6805 17.0076C14.5439 17.0954 14.0966 17.2748 13.0584 17.2621L13.0096 21.2619ZM16.8255 20.3838C18.0948 19.5868 18.708 18.3121 18.708 16.886H14.708C14.708 16.9576 14.701 16.9986 14.6972 17.0154C14.6937 17.031 14.6927 17.0275 14.7003 17.0132C14.7081 16.9983 14.7178 16.9855 14.7248 16.9781C14.7311 16.9715 14.7259 16.979 14.6985 16.9962L16.8255 20.3838ZM18.708 16.886C18.708 15.3765 17.9685 14.1429 16.6976 13.3858L14.6504 16.8222C14.7036 16.8539 14.7271 16.8754 14.7327 16.8808C14.7372 16.8852 14.7297 16.8787 14.7196 16.8613C14.7094 16.8436 14.7048 16.8291 14.7037 16.8249C14.703 16.822 14.708 16.8399 14.708 16.886H18.708ZM16.7139 13.3956C15.5912 12.7122 14.1995 12.488 12.77 12.488V16.488C13.8631 16.488 14.4075 16.6744 14.6341 16.8124L16.7139 13.3956ZM12.77 12.488C12.2128 12.488 11.6715 12.5126 11.1474 12.5633L11.5327 16.5447C11.9178 16.5074 12.3299 16.488 12.77 16.488V12.488ZM11.1474 12.5633C10.6462 12.6118 10.157 12.6769 9.68019 12.7591L10.3598 16.7009C10.7336 16.6365 11.1244 16.5842 11.5326 16.5447L11.1474 12.5633ZM8.02 14.73V17.502H12.02V14.73H8.02ZM8.02 17.502C8.02 18.7575 7.72781 19.2685 7.54264 19.4615L10.4294 22.2304C11.6229 20.9862 12.02 19.2679 12.02 17.502H8.02ZM7.55698 19.4468C7.35424 19.6538 6.94306 19.902 5.994 19.902V23.902C7.65561 23.902 9.23909 23.4462 10.415 22.2452L7.55698 19.4468ZM5.994 19.902C5.2938 19.902 4.86664 19.7288 4.57502 19.504L2.13299 22.672C3.24936 23.5326 4.5822 23.902 5.994 23.902V19.902ZM4.57502 19.504C4.51657 19.4589 4.298 19.2848 4.298 18.492H0.298002C0.298002 20.0752 0.783431 21.6317 2.13299 22.672L4.57502 19.504ZM4.298 18.492C4.298 17.8318 4.52416 17.2173 5.1197 16.5834L2.20431 13.8446C0.98118 15.1467 0.298002 16.7175 0.298002 18.492H4.298ZM5.10871 16.595C5.76265 15.9099 6.71688 15.3044 8.0722 14.84L6.7758 11.056C4.96312 11.677 3.40935 12.5821 2.21529 13.833L5.10871 16.595ZM9.424 12.948V9.67H5.424V12.948H9.424ZM7.23875 7.6786C6.6358 7.73468 6.04911 7.77654 5.47856 7.80438L5.67345 11.7996C6.30556 11.7688 6.95087 11.7226 7.60925 11.6614L7.23875 7.6786ZM5.47613 7.8045C4.90173 7.83321 4.36611 7.85461 3.86888 7.86881L3.98312 11.8672C4.51256 11.8521 5.07694 11.8295 5.67588 11.7995L5.47613 7.8045ZM3.926 7.868C3.9738 7.868 4.05495 7.87707 4.14982 7.91458C4.24503 7.95222 4.31358 8.00251 4.35325 8.03997L1.60676 10.948C2.24603 11.5518 3.05421 11.868 3.926 11.868V7.868ZM4.35325 8.03998C4.40339 8.08733 4.47073 8.17019 4.52129 8.28816C4.57167 8.4057 4.584 8.50818 4.584 8.57H0.584002C0.584002 9.48084 0.938311 10.3167 1.60675 10.948L4.35325 8.03998ZM4.584 8.57C4.584 8.61719 4.57509 8.70644 4.5314 8.81438C4.48708 8.92388 4.42534 9.00708 4.37222 9.06021L1.54379 6.23179C0.903023 6.87255 0.584002 7.69649 0.584002 8.57H4.584ZM4.33125 9.10003C4.29158 9.13749 4.22303 9.18778 4.12782 9.22542C4.03295 9.26293 3.9518 9.272 3.904 9.272V5.272C3.03221 5.272 2.22403 5.58822 1.58476 6.19197L4.33125 9.10003ZM3.96112 9.27118C4.48995 9.25607 5.06089 9.23351 5.67345 9.20362L5.47856 5.20837C4.88844 5.23716 4.34472 5.25859 3.84688 5.27282L3.96112 9.27118ZM5.67345 9.20362C6.28938 9.17358 6.91931 9.13607 7.5632 9.09115L7.2848 5.10085C6.66736 5.14393 6.06529 5.17975 5.47856 5.20837L5.67345 9.20362ZM9.424 7.096V4.39H5.424V7.096H9.424ZM9.424 4.39C9.424 4.41985 9.41847 4.499 9.37742 4.60282C9.33516 4.70972 9.2731 4.79733 9.21222 4.85821L6.38379 2.02979C5.72695 2.68662 5.424 3.52593 5.424 4.39H9.424ZM9.25203 4.81725C9.20468 4.86738 9.12181 4.93473 9.00384 4.98529C8.8863 5.03566 8.78382 5.048 8.722 5.048V1.048C7.81116 1.048 6.97528 1.40231 6.34398 2.07075L9.25203 4.81725ZM8.722 5.048C8.66019 5.048 8.5577 5.03566 8.44016 4.98529C8.32219 4.93473 8.23933 4.86738 8.19197 4.81725L11.1 2.07075C10.4687 1.40231 9.63284 1.048 8.722 1.048V5.048ZM8.23179 4.85821C8.17091 4.79733 8.10884 4.70972 8.06658 4.60282C8.02554 4.499 8.02 4.41985 8.02 4.39H12.02C12.02 3.52593 11.7171 2.68663 11.0602 2.02979L8.23179 4.85821ZM8.02 4.39V6.876H12.02V4.39H8.02ZM10.1933 8.86848C10.5662 8.83605 10.9231 8.79481 11.2627 8.74387L10.6693 4.78813C10.4222 4.82519 10.1484 4.85728 9.84674 4.88352L10.1933 8.86848ZM11.2627 8.74387C11.5287 8.70397 11.7855 8.6711 12.0334 8.64501L11.6146 4.66699C11.3051 4.69957 10.99 4.74003 10.6693 4.78813L11.2627 8.74387ZM12.14 8.63088C12.1126 8.63527 12.0456 8.64092 11.9543 8.62266C11.861 8.604 11.7813 8.5681 11.724 8.53089L13.904 5.17711C13.168 4.69876 12.3312 4.5494 11.508 4.68112L12.14 8.63088ZM11.724 8.53089C11.644 8.47884 11.5505 8.39344 11.475 8.27398C11.4012 8.15717 11.3751 8.05613 11.3671 8.00598L15.3169 7.37402C15.1751 6.48768 14.7033 5.69664 13.904 5.17711L11.724 8.53089ZM11.3671 8.00598C11.3593 7.95697 11.3515 7.84814 11.3879 7.70583C11.4254 7.55934 11.494 7.43906 11.5636 7.35563L14.6364 9.91637C15.2587 9.16971 15.4585 8.25926 15.3169 7.37402L11.3671 8.00598ZM11.5636 7.35563C11.609 7.30112 11.6733 7.24537 11.7512 7.20257C11.8268 7.16095 11.8849 7.14818 11.904 7.14512L12.536 11.0949C13.3384 10.9665 14.081 10.5829 14.6364 9.91637L11.5636 7.35563ZM11.8458 7.15532C11.595 7.20308 11.2998 7.2476 10.9568 7.28718L11.4152 11.2608C11.8349 11.2124 12.229 11.1542 12.5942 11.0847L11.8458 7.15532ZM10.9477 7.28825C10.5645 7.33423 10.1609 7.38757 9.73716 7.4481L10.3028 11.4079C10.7005 11.3511 11.0742 11.3018 11.4243 11.2598L10.9477 7.28825ZM8.02 9.428V12.332H12.02V9.428H8.02ZM10.3167 14.3099C11.0889 14.194 11.9205 14.134 12.814 14.134V10.134C11.7422 10.134 10.7111 10.206 9.72332 10.3541L10.3167 14.3099ZM12.814 14.134C13.9821 14.134 14.8911 14.2999 15.5885 14.5705L17.0356 10.8415C15.7676 10.3494 14.3446 10.134 12.814 10.134V14.134ZM15.5885 14.5705C16.2819 14.8396 16.7018 15.1803 16.9662 15.5402L20.1898 13.1718C19.3982 12.0944 18.3075 11.335 17.0356 10.8415L15.5885 14.5705ZM16.994 15.577C17.2383 15.894 17.392 16.2958 17.392 16.886H21.392C21.392 15.5109 21.003 14.226 20.162 13.135L16.994 15.577ZM17.392 16.886C17.392 17.9931 17.0402 18.6396 16.4561 19.1023L18.9399 22.2377C20.6145 20.9111 21.392 19.0349 21.392 16.886H17.392ZM16.4561 19.1023C15.8184 19.6075 14.7714 19.9752 13.0484 19.9249L12.9316 23.9231C15.2273 23.9902 17.3189 23.5219 18.9399 22.2377L16.4561 19.1023ZM18.986 9.632C18.6856 9.40671 18.3428 9.17982 17.9679 8.9516L15.8881 12.3684C16.1878 12.5508 16.4171 12.7053 16.586 12.832L18.986 9.632ZM18.0205 8.98478C17.6492 8.74257 17.2757 8.51515 16.9001 8.30287L14.9319 11.7851C15.231 11.9542 15.5322 12.1374 15.8355 12.3352L18.0205 8.98478ZM16.9559 8.3356C16.5813 8.1076 16.2224 7.90793 15.8876 7.75036L14.1844 11.3696C14.3482 11.4467 14.576 11.5697 14.8761 11.7524L16.9559 8.3356ZM15.9304 7.77114C15.9682 7.79001 16.022 7.82555 16.0744 7.88127C16.1265 7.93658 16.1544 7.98755 16.1661 8.01455L12.4979 9.60945C12.8277 10.3681 13.3901 10.9731 14.1416 11.3489L15.9304 7.77114ZM16.1945 8.0832C16.2154 8.13659 16.2408 8.23197 16.238 8.35593C16.2352 8.48089 16.205 8.58305 16.1747 8.6496L12.5333 6.99439C12.1575 7.82099 12.1455 8.71279 12.4695 9.5408L16.1945 8.0832ZM16.1429 8.71643C16.1333 8.73561 16.0937 8.80569 16.0046 8.88468C15.9116 8.96705 15.8046 9.02345 15.7063 9.05335L14.5417 5.22665C13.6158 5.50845 12.9551 6.14767 12.5651 6.92757L16.1429 8.71643ZM15.684 9.06C15.642 9.07225 15.5656 9.08599 15.4677 9.07748C15.3693 9.06892 15.2908 9.04145 15.2416 9.01685L17.0304 5.43914C16.2487 5.04827 15.3912 4.97873 14.564 5.22L15.684 9.06ZM15.2761 9.03372C15.5146 9.14728 15.8117 9.30684 16.1724 9.52058L18.2116 6.07942C17.7803 5.82382 17.3734 5.60205 16.9959 5.42228L15.2761 9.03372ZM16.1724 9.52058C16.5434 9.74041 16.907 9.96687 17.2635 10.1999L19.4525 6.85206C19.0463 6.58646 18.6327 6.32892 18.2116 6.07942L16.1724 9.52058ZM17.3384 10.2466C17.6948 10.4578 17.9457 10.6262 18.1111 10.7527L20.5409 7.57528C20.2077 7.32046 19.8132 7.06353 19.3776 6.80542L17.3384 10.2466ZM18.1791 10.8025C18.1206 10.7615 18.035 10.684 17.9615 10.5626C17.8878 10.4408 17.8572 10.3258 17.8474 10.2481L21.8166 9.75193C21.7017 8.83293 21.2245 8.05163 20.4729 7.52553L18.1791 10.8025ZM17.8474 10.2481C17.8409 10.1955 17.8408 10.1147 17.8642 10.0209C17.8876 9.92744 17.9248 9.85929 17.9515 9.82107L21.2285 12.1149C21.7151 11.4197 21.9227 10.6008 21.8166 9.75193L17.8474 10.2481ZM18.0202 9.72871C18.0527 9.68762 18.1103 9.63047 18.1945 9.58077C18.2786 9.53116 18.355 9.50925 18.4032 9.50121L19.0608 13.4468C19.9005 13.3068 20.6299 12.8784 21.1598 12.2073L18.0202 9.72871ZM18.4733 9.4908C18.5451 9.48143 18.6385 9.4834 18.7382 9.50889C18.8361 9.53394 18.902 9.5719 18.9329 9.59354L16.6391 12.8705C17.3179 13.3456 18.1304 13.5694 18.9907 13.4572L18.4733 9.4908ZM5.994 21.394C6.8255 21.394 7.72983 21.1466 8.44221 20.4342L5.61379 17.6058C5.70483 17.5147 5.80983 17.4532 5.90223 17.4197C5.98683 17.3891 6.02725 17.394 5.994 17.394V21.394ZM8.40125 20.474C8.90068 20.0023 9.13903 19.423 9.26024 18.9583C9.38395 18.4841 9.424 17.9834 9.424 17.502H5.424C5.424 17.6364 5.41811 17.7408 5.40999 17.8189C5.40177 17.8979 5.39244 17.9384 5.38977 17.9487C5.38685 17.9598 5.39512 17.9226 5.42993 17.8562C5.46566 17.7881 5.53465 17.6794 5.65475 17.566L8.40125 20.474ZM9.424 17.502V15.522H5.424V17.502H9.424ZM6.58375 13.7071C5.60422 14.1606 4.7301 14.7557 4.05749 15.5404L7.09451 18.1436C7.30191 17.9016 7.65978 17.6168 8.26425 17.3369L6.58375 13.7071ZM4.05433 15.5441C3.3872 16.3263 2.938 17.2917 2.938 18.404H6.938C6.938 18.4014 6.9371 18.3919 6.94901 18.3627C6.96286 18.3288 7.00075 18.2535 7.09767 18.1399L4.05433 15.5441ZM2.938 18.404C2.938 19.0765 3.12348 19.9394 3.83412 20.6056C4.52048 21.249 5.36469 21.394 5.994 21.394V17.394C5.91932 17.394 6.23553 17.374 6.56988 17.6874C6.92852 18.0236 6.938 18.3915 6.938 18.404H2.938ZM38.312 22.43L39.6827 20.9736L39.6799 20.9709L38.312 22.43ZM37.916 21.528L39.9101 21.3746L39.9065 21.3272L39.9006 21.2799L37.916 21.528ZM39.06 20.142L39.2983 22.1278L39.3096 22.1264L39.3209 22.1249L39.06 20.142ZM40.072 19.812L38.5854 18.4741L38.5466 18.5172L38.5103 18.5626L40.072 19.812ZM40.27 10.484H42.27V8.484H40.27V10.484ZM35.584 10.22L34.9515 12.1174L35.584 10.22ZM34.418 9.296L32.6408 10.2133L32.6587 10.248L32.678 10.282L34.418 9.296ZM41.964 22.034L43.3173 23.5067L41.964 22.034ZM24.32 22.562L22.9058 23.9762L22.9272 23.9976L22.9493 24.0184L24.32 22.562ZM24.782 3.73L26.1132 5.22259L26.1156 5.22048L24.782 3.73ZM31.734 3.73L30.3808 5.20265L30.4014 5.22165L30.4226 5.24007L31.734 3.73ZM32.196 9.296L30.4424 8.33433L30.4368 8.34455L30.4313 8.35482L32.196 9.296ZM31.052 10.22L30.4195 8.32263L30.4114 8.32534L30.4034 8.32811L31.052 10.22ZM26.454 10.484V8.484H24.454V10.484H26.454ZM26.08 22.562L24.7093 21.1056L24.6872 21.1264L24.6658 21.1478L26.08 22.562ZM30.744 18.91L29.978 20.7575L29.9974 20.7655L30.0169 20.7732L30.744 18.91ZM29.468 17.766L27.6595 18.62L27.6642 18.6299L27.669 18.6398L29.468 17.766ZM29.468 13.718L27.669 12.8442V12.8442L29.468 13.718ZM30.744 12.596L31.4711 14.4592V14.4592L30.744 12.596ZM35.738 12.596L34.9952 14.453L35.0031 14.4561L35.0109 14.4592L35.738 12.596ZM37.014 13.718L38.813 12.8442V12.8442L37.014 13.718ZM37.014 17.766L38.813 18.6398L38.8178 18.6299L38.8225 18.62L37.014 17.766ZM35.738 18.91L36.4808 20.767L36.4924 20.7623L36.504 20.7575L35.738 18.91ZM34.55 16.886L33.2888 15.3338L33.2642 15.3538L33.2401 15.3746L34.55 16.886ZM34.55 14.62L33.2401 16.1314L33.2642 16.1522L33.2888 16.1722L34.55 14.62ZM31.91 14.62L30.6488 13.0678L30.6242 13.0878L30.6001 13.1086L31.91 14.62ZM31.91 16.886L30.6001 18.3974L30.6242 18.4182L30.6488 18.4382L31.91 16.886ZM40.27 8.526V10.526H42.27V8.526H40.27ZM40.27 7.536H42.27V5.536H40.27V7.536ZM36.508 7.536V5.536H34.3601L34.5131 7.67849L36.508 7.536ZM36.838 8.35L35.6996 9.99438L35.7707 10.0436L35.8457 10.0865L36.838 8.35ZM26.454 8.526H24.454V10.526H26.454V8.526ZM29.798 8.35L30.8462 10.0533L30.863 10.043L30.8795 10.0324L29.798 8.35ZM30.15 7.536L32.1449 7.67849L32.298 5.536H30.15V7.536ZM26.454 7.536V5.536H24.454V7.536H26.454ZM36.508 5.886L34.5139 5.73261L34.3483 7.886H36.508V5.886ZM40.27 5.886V7.886H42.514L42.2568 5.65675L40.27 5.886ZM39.918 5.138L38.7796 6.78238L38.8239 6.81307L38.8698 6.84132L39.918 5.138ZM36.86 5.138L37.8523 6.87449L37.8976 6.84859L37.9415 6.82036L36.86 5.138ZM26.476 5.886L24.4819 5.73261L24.3162 7.886H26.476V5.886ZM30.128 5.886V7.886H32.2878L32.1221 5.73261L30.128 5.886ZM29.798 5.138L28.6596 6.78238L28.7039 6.81307L28.7498 6.84132L29.798 5.138ZM26.806 5.138L27.8542 6.84132L27.871 6.831L27.8875 6.82036L26.806 5.138ZM39.324 20.782C39.2935 20.782 39.3305 20.7777 39.409 20.805C39.4943 20.8347 39.5937 20.8898 39.6827 20.9736L36.9413 23.8864C37.6462 24.5498 38.5186 24.782 39.324 24.782V20.782ZM39.6799 20.9709C39.7639 21.0497 39.828 21.1437 39.8683 21.2355C39.9063 21.3222 39.9103 21.377 39.9101 21.3746L35.9219 21.6814C35.9819 22.4612 36.278 23.2646 36.9441 23.8891L39.6799 20.9709ZM39.9006 21.2799C39.9084 21.3424 39.9096 21.4509 39.8721 21.5824C39.834 21.7155 39.7716 21.8181 39.7164 21.8844L36.6436 19.3236C36.0563 20.0284 35.8213 20.8946 35.9314 21.7761L39.9006 21.2799ZM39.7164 21.8844C39.6647 21.9464 39.5892 22.0117 39.4947 22.0613C39.4026 22.1097 39.329 22.1241 39.2983 22.1278L38.8217 18.1562C37.9896 18.2561 37.2162 18.6365 36.6436 19.3236L39.7164 21.8844ZM39.3209 22.1249C39.6598 22.0803 40.0182 22.0145 40.351 21.906C40.6109 21.8212 41.1967 21.6077 41.6337 21.0614L38.5103 18.5626C38.6897 18.3383 38.8746 18.2215 38.9596 18.1735C39.0509 18.1219 39.1109 18.1031 39.111 18.103C39.1152 18.1016 39.093 18.109 39.0353 18.1208C38.9791 18.1323 38.9016 18.1456 38.7991 18.1591L39.3209 22.1249ZM41.5586 21.1499C41.9274 20.7401 42.0889 20.2821 42.1667 19.9539C42.2472 19.614 42.27 19.2757 42.27 18.976H38.27C38.27 19.087 38.2598 19.0933 38.2743 19.0321C38.2861 18.9826 38.3486 18.7372 38.5854 18.4741L41.5586 21.1499ZM42.27 18.976V10.484H38.27V18.976H42.27ZM40.27 8.484H37.652V12.484H40.27V8.484ZM37.652 8.484C36.9152 8.484 36.4627 8.40472 36.2165 8.32263L34.9515 12.1174C35.7613 12.3873 36.6875 12.484 37.652 12.484V8.484ZM36.2165 8.32263C36.1807 8.31072 36.159 8.30046 36.148 8.29464C36.1372 8.28898 36.1352 8.28678 36.1387 8.28951C36.1423 8.29238 36.1476 8.29726 36.1528 8.30336C36.1579 8.30938 36.1595 8.3125 36.158 8.30997L32.678 10.282C33.1964 11.1969 34.0054 11.802 34.9515 12.1174L36.2165 8.32263ZM36.1952 8.37872C36.1676 8.32518 36.066 8.05707 36.066 7.404H32.066C32.066 8.36426 32.1991 9.35748 32.6408 10.2133L36.1952 8.37872ZM36.066 7.404V6.282H32.066V7.404H36.066ZM36.066 6.282C36.066 5.81409 36.121 5.52028 36.1756 5.35362C36.2263 5.19878 36.2605 5.19912 36.2134 5.24007L33.5906 2.21993C32.3801 3.27114 32.066 4.85057 32.066 6.282H36.066ZM36.2134 5.24007C36.2049 5.24741 36.2742 5.18362 36.518 5.11925C36.7637 5.05439 37.1311 5.004 37.652 5.004V1.004C36.2144 1.004 34.6967 1.25936 33.5906 2.21993L36.2134 5.24007ZM37.652 5.004H39.192V1.004H37.652V5.004ZM39.192 5.004C39.7129 5.004 40.0803 5.05439 40.326 5.11925C40.5698 5.18362 40.6391 5.24741 40.6306 5.24007L43.2534 2.21993C42.1473 1.25936 40.6296 1.004 39.192 1.004V5.004ZM40.6306 5.24007C40.5835 5.19912 40.6177 5.19878 40.6684 5.35362C40.723 5.52028 40.778 5.81409 40.778 6.282H44.778C44.778 4.85057 44.4639 3.27114 43.2534 2.21993L40.6306 5.24007ZM40.778 6.282V19.592H44.778V6.282H40.778ZM40.778 19.592C40.778 20.4574 40.5648 20.6036 40.6108 20.5613L43.3173 23.5067C44.4486 22.4671 44.778 20.9853 44.778 19.592H40.778ZM40.6108 20.5613C40.6186 20.5541 40.5619 20.6112 40.3518 20.6707C40.1366 20.7317 39.8052 20.782 39.324 20.782V24.782C40.7362 24.782 42.2292 24.5065 43.3173 23.5067L40.6108 20.5613ZM25.2 20.914C25.2684 20.914 25.3646 20.927 25.4698 20.969C25.5745 21.0109 25.6484 21.0657 25.6907 21.1056L22.9493 24.0184C23.5634 24.5964 24.3448 24.914 25.2 24.914V20.914ZM25.7342 21.1478C25.8068 21.2203 25.8744 21.3188 25.9192 21.4334C25.9624 21.5442 25.968 21.6281 25.968 21.66H21.968C21.968 22.4961 22.255 23.3254 22.9058 23.9762L25.7342 21.1478ZM25.968 21.66V6.26H21.968V21.66H25.968ZM25.968 6.26C25.968 5.79752 26.0216 5.50528 26.0754 5.33805C26.1257 5.18162 26.1602 5.18067 26.1132 5.22259L23.4508 2.23741C22.2727 3.2881 21.968 4.84728 21.968 6.26H25.968ZM26.1156 5.22048C26.1085 5.22683 26.1753 5.16337 26.4124 5.09888C26.6526 5.03355 27.0148 4.982 27.532 4.982V0.981999C26.084 0.981999 24.5561 1.24847 23.4484 2.23952L26.1156 5.22048ZM27.532 4.982H28.984V0.981999H27.532V4.982ZM28.984 4.982C29.5108 4.982 29.876 5.034 30.1146 5.09888C30.3507 5.16311 30.4031 5.22323 30.3808 5.20265L33.0873 2.25735C31.9829 1.24253 30.4318 0.981999 28.984 0.981999V4.982ZM30.4226 5.24007C30.3791 5.20225 30.4126 5.20339 30.462 5.353C30.5155 5.51482 30.57 5.8016 30.57 6.26H34.57C34.57 4.83393 34.2516 3.26742 33.0454 2.21993L30.4226 5.24007ZM30.57 6.26V7.404H34.57V6.26H30.57ZM30.57 7.404C30.57 8.04422 30.4645 8.29408 30.4424 8.33433L33.9496 10.2577C34.4262 9.38859 34.57 8.37711 34.57 7.404H30.57ZM30.4313 8.35482C30.4333 8.35111 30.4388 8.34177 30.4486 8.32983C30.4585 8.31783 30.4688 8.308 30.4773 8.30112C30.4856 8.29442 30.4881 8.2939 30.4808 8.29776C30.4732 8.3018 30.454 8.31114 30.4195 8.32263L31.6845 12.1174C32.6372 11.7998 33.4562 11.183 33.9607 10.2372L30.4313 8.35482ZM30.4034 8.32811C30.1852 8.4029 29.7436 8.484 28.984 8.484V12.484C29.955 12.484 30.8921 12.3891 31.7006 12.1119L30.4034 8.32811ZM28.984 8.484H26.454V12.484H28.984V8.484ZM24.454 10.484V21.66H28.454V10.484H24.454ZM24.454 21.66C24.454 21.6136 24.4627 21.5158 24.513 21.3945C24.5646 21.2701 24.6389 21.1718 24.7093 21.1056L27.4507 24.0184C28.1324 23.3768 28.454 22.5344 28.454 21.66H24.454ZM24.6658 21.1478C24.7301 21.0834 24.8238 21.016 24.9412 20.969C25.0563 20.923 25.1506 20.914 25.2 20.914V24.914C26.0467 24.914 26.86 24.6105 27.4942 23.9762L24.6658 21.1478ZM33.252 17.262C32.2881 17.262 31.7375 17.1508 31.4711 17.0468L30.0169 20.7732C30.9532 21.1385 32.0746 21.262 33.252 21.262V17.262ZM31.51 17.0625C31.2926 16.9724 31.2726 16.9037 31.267 16.8922L27.669 18.6398C28.1621 19.655 28.9927 20.349 29.978 20.7575L31.51 17.0625ZM31.2765 16.912C31.1937 16.7367 31.094 16.3802 31.094 15.742H27.094C27.094 16.7464 27.2436 17.7393 27.6595 18.62L31.2765 16.912ZM31.094 15.742C31.094 15.079 31.1969 14.7362 31.267 14.5918L27.669 12.8442C27.2405 13.7265 27.094 14.733 27.094 15.742H31.094ZM31.267 14.5918C31.2765 14.5724 31.2832 14.5646 31.2947 14.5544C31.3094 14.5415 31.3578 14.5033 31.4711 14.4592L30.0169 10.7328C29.0127 11.1247 28.1675 11.8177 27.669 12.8442L31.267 14.5918ZM31.4711 14.4592C31.7375 14.3552 32.2881 14.244 33.252 14.244V10.244C32.0746 10.244 30.9532 10.3675 30.0169 10.7328L31.4711 14.4592ZM33.252 14.244C34.2202 14.244 34.7537 14.3563 34.9952 14.453L36.4808 10.739C35.549 10.3663 34.4251 10.244 33.252 10.244V14.244ZM35.0109 14.4592C35.1242 14.5033 35.1726 14.5415 35.1873 14.5544C35.1988 14.5646 35.2055 14.5724 35.215 14.5918L38.813 12.8442C38.3145 11.8177 37.4693 11.1247 36.4651 10.7328L35.0109 14.4592ZM35.215 14.5918C35.2851 14.7362 35.388 15.079 35.388 15.742H39.388C39.388 14.733 39.2415 13.7265 38.813 12.8442L35.215 14.5918ZM35.388 15.742C35.388 16.3802 35.2883 16.7367 35.2055 16.912L38.8225 18.62C39.2384 17.7393 39.388 16.7464 39.388 15.742H35.388ZM35.215 16.8922C35.2094 16.9037 35.1894 16.9724 34.972 17.0625L36.504 20.7575C37.4893 20.349 38.3199 19.655 38.813 18.6398L35.215 16.8922ZM34.9952 17.053C34.7537 17.1497 34.2202 17.262 33.252 17.262V21.262C34.4251 21.262 35.549 21.1397 36.4808 20.767L34.9952 17.053ZM33.252 19.172C33.6601 19.172 34.0851 19.143 34.4909 19.0536C34.8771 18.9686 35.4003 18.7957 35.8599 18.3974L33.2401 15.3746C33.3667 15.265 33.4794 15.2069 33.5424 15.1793C33.6055 15.1517 33.64 15.1452 33.6301 15.1474C33.6217 15.1492 33.5872 15.156 33.5199 15.1619C33.4536 15.1678 33.3653 15.172 33.252 15.172V19.172ZM35.8112 18.4382C36.7951 17.6388 36.902 16.4216 36.902 15.742H32.902C32.902 15.9073 32.8831 15.9316 32.9024 15.8688C32.9237 15.7999 33.0144 15.5567 33.2888 15.3338L35.8112 18.4382ZM36.902 15.742C36.902 15.0561 36.7864 13.8601 35.8112 13.0678L33.2888 16.1722C33.0231 15.9563 32.9301 15.7199 32.9057 15.6422C32.8839 15.5728 32.902 15.5882 32.902 15.742H36.902ZM35.8599 13.1086C35.4003 12.7103 34.8771 12.5374 34.4909 12.4523C34.0851 12.363 33.6601 12.334 33.252 12.334V16.334C33.3653 16.334 33.4536 16.3382 33.5199 16.3441C33.5872 16.35 33.6217 16.3568 33.6301 16.3587C33.64 16.3608 33.6055 16.3543 33.5424 16.3267C33.4794 16.2991 33.3667 16.241 33.2401 16.1314L35.8599 13.1086ZM33.252 12.334C32.8378 12.334 32.4109 12.3628 32.0046 12.4494C31.6165 12.5321 31.1054 12.6968 30.6488 13.0678L33.1712 16.1722C33.0534 16.2679 32.9522 16.3171 32.8993 16.3393C32.8462 16.3615 32.8212 16.3652 32.8384 16.3616C32.8543 16.3582 32.8956 16.3508 32.9684 16.3445C33.0404 16.3383 33.134 16.334 33.252 16.334V12.334ZM30.6001 13.1086C29.6767 13.909 29.58 15.0853 29.58 15.742H33.58C33.58 15.5797 33.5978 15.5516 33.5812 15.6078C33.5639 15.6668 33.4821 15.9041 33.2199 16.1314L30.6001 13.1086ZM29.58 15.742C29.58 16.3934 29.6689 17.5903 30.6001 18.3974L33.2199 15.3746C33.4902 15.6089 33.5698 15.8528 33.5841 15.9027C33.5985 15.9523 33.58 15.9155 33.58 15.742H29.58ZM30.6488 18.4382C31.1054 18.8092 31.6165 18.9739 32.0046 19.0566C32.4109 19.1432 32.8378 19.172 33.252 19.172V15.172C33.134 15.172 33.0404 15.1677 32.9684 15.1615C32.8956 15.1552 32.8543 15.1478 32.8384 15.1444C32.8212 15.1408 32.8462 15.1445 32.8993 15.1667C32.9522 15.1889 33.0534 15.2381 33.1712 15.3338L30.6488 18.4382ZM37.916 10.526H40.27V6.526H37.916V10.526ZM42.27 8.526V7.536H38.27V8.526H42.27ZM40.27 5.536H36.508V9.536H40.27V5.536ZM34.5131 7.67849C34.5537 8.24775 34.7328 9.32505 35.6996 9.99438L37.9764 6.70561C38.2759 6.91295 38.4129 7.16527 38.466 7.29609C38.5146 7.4159 38.5082 7.46768 38.5029 7.39351L34.5131 7.67849ZM35.8457 10.0865C36.544 10.4855 37.3734 10.526 37.916 10.526V6.526C37.825 6.526 37.7516 6.52337 37.694 6.5195C37.6359 6.5156 37.6004 6.51085 37.5838 6.50813C37.5661 6.50525 37.5796 6.50626 37.616 6.5176C37.6509 6.52847 37.7292 6.55577 37.8303 6.61351L35.8457 10.0865ZM26.454 10.526H28.742V6.526H26.454V10.526ZM28.742 10.526C29.0654 10.526 29.3994 10.5082 29.7198 10.4548C30.017 10.4052 30.439 10.3039 30.8462 10.0533L28.7498 6.64668C28.8107 6.60921 28.8644 6.5824 28.9067 6.56363C28.949 6.54481 28.9836 6.53239 29.0077 6.52455C29.054 6.50954 29.0756 6.50698 29.0622 6.50921C29.0502 6.51122 29.018 6.51574 28.9615 6.51958C28.9056 6.52337 28.8331 6.526 28.742 6.526V10.526ZM30.8795 10.0324C31.8927 9.38104 32.1011 8.2922 32.1449 7.67849L28.1551 7.3935C28.1506 7.45576 28.1461 7.38819 28.2043 7.25368C28.2696 7.10276 28.4202 6.85809 28.7165 6.66764L30.8795 10.0324ZM30.15 5.536H26.454V9.536H30.15V5.536ZM24.454 7.536V8.526H28.454V7.536H24.454ZM36.508 7.886H40.27V3.886H36.508V7.886ZM42.2568 5.65675C42.1913 5.08859 41.9574 4.04467 40.9662 3.43468L38.8698 6.84132C38.5646 6.65352 38.4079 6.4102 38.3394 6.2646C38.2772 6.1324 38.2771 6.06209 38.2832 6.11525L42.2568 5.65675ZM41.0564 3.49361C40.6387 3.2044 40.1967 3.08322 39.8796 3.02376C39.5424 2.96053 39.1941 2.94 38.862 2.94V6.94C38.9485 6.94 39.0152 6.94281 39.0647 6.94658C39.1148 6.95041 39.1391 6.95462 39.1424 6.95524C39.147 6.95611 39.1155 6.95075 39.0592 6.93022C39.0041 6.91012 38.9016 6.86687 38.7796 6.78238L41.0564 3.49361ZM38.862 2.94H37.916V6.94H38.862V2.94ZM37.916 2.94C37.3598 2.94 36.5005 2.99147 35.7785 3.45564L37.9415 6.82036C37.84 6.88562 37.7567 6.91974 37.711 6.93598C37.6647 6.95242 37.6403 6.95642 37.6466 6.95524C37.652 6.95422 37.6765 6.95008 37.7242 6.94638C37.7714 6.94272 37.8346 6.94 37.916 6.94V2.94ZM35.8677 3.40151C34.7998 4.01177 34.562 5.10727 34.5139 5.73261L38.5021 6.03939C38.5049 6.00361 38.5039 6.10246 38.4276 6.26459C38.341 6.4486 38.1628 6.69705 37.8523 6.87449L35.8677 3.40151ZM26.476 7.886H30.128V3.886H26.476V7.886ZM32.1221 5.73261C32.0779 5.15846 31.8749 4.0677 30.8462 3.43468L28.7498 6.84132C28.4308 6.64501 28.2663 6.38489 28.1937 6.22028C28.1286 6.07279 28.1301 5.99053 28.1339 6.03939L32.1221 5.73261ZM30.9364 3.49361C30.5187 3.2044 30.0767 3.08322 29.7596 3.02376C29.4224 2.96053 29.0741 2.94 28.742 2.94V6.94C28.8285 6.94 28.8952 6.94281 28.9447 6.94658C28.9948 6.95041 29.0191 6.95462 29.0224 6.95524C29.027 6.95611 28.9955 6.95075 28.9392 6.93022C28.8841 6.91012 28.7816 6.86687 28.6596 6.78238L30.9364 3.49361ZM28.742 2.94H27.862V6.94H28.742V2.94ZM27.862 2.94C27.3058 2.94 26.4465 2.99147 25.7245 3.45564L27.8875 6.82036C27.786 6.88562 27.7027 6.91974 27.657 6.93598C27.6107 6.95242 27.5863 6.95642 27.5926 6.95524C27.598 6.95422 27.6225 6.95008 27.6702 6.94638C27.7174 6.94272 27.7806 6.94 27.862 6.94V2.94ZM25.7578 3.43468C24.7292 4.0677 24.5261 5.15845 24.4819 5.73261L28.4701 6.03939C28.4739 5.99053 28.4754 6.07279 28.4103 6.22028C28.3377 6.38489 28.1732 6.64501 27.8542 6.84132L25.7578 3.43468ZM52.194 19.262L52.2809 21.2601L52.2919 21.2596L52.3029 21.259L52.194 19.262ZM50.258 18.8L49.2974 20.5542V20.5542L50.258 18.8ZM48.63 17.172L46.915 18.201L46.9253 18.2181L46.9359 18.235L48.63 17.172ZM47.618 14.664L49.5462 14.133L47.618 14.664ZM47.024 11.386L45.0337 11.5826L45.0339 11.585L47.024 11.386ZM46.936 7.844L44.9424 7.68451L44.94 7.71429L44.9385 7.74412L46.936 7.844ZM47.354 6.942L48.7247 8.3984L48.7272 8.39603L47.354 6.942ZM48.3 6.612L48.1405 8.60563L48.1802 8.60881L48.2201 8.6104L48.3 6.612ZM49.202 7.052L47.6722 8.34027L47.7089 8.38384L47.748 8.42525L49.202 7.052ZM49.532 7.998L47.5384 7.83851L47.5366 7.86119L47.5353 7.8839L49.532 7.998ZM49.554 11.012L47.5595 11.1608L47.5597 11.1631L49.554 11.012ZM49.972 13.674L48.0338 14.1674L48.036 14.1759L49.972 13.674ZM50.742 15.654L52.4863 14.6755L52.478 14.6608L52.4696 14.6463L50.742 15.654ZM52.018 16.556V18.556H52.0413L52.0645 18.5555L52.018 16.556ZM53.602 14.576L51.713 13.919L51.7065 13.9376L51.7004 13.9564L53.602 14.576ZM54.262 13.828L55.1564 15.6169L55.1884 15.6009L55.2197 15.5838L54.262 13.828ZM55.274 13.74L54.6415 15.6374L54.6665 15.6457L54.6917 15.6533L55.274 13.74ZM56.022 14.4L54.2177 15.2629L54.2253 15.2787L54.2331 15.2944L56.022 14.4ZM56.088 15.39L54.199 14.733L54.1902 14.7582L54.1822 14.7836L56.088 15.39ZM54.438 18.272L55.7707 19.7633L55.7794 19.7555L55.788 19.7476L54.438 18.272ZM64.184 15.39L63.527 13.501L63.5043 13.5089L63.4818 13.5173L64.184 15.39ZM63.15 15.346L62.2556 17.1349L62.2713 17.1427L62.2871 17.1503L63.15 15.346ZM62.468 14.598L64.3305 13.8692L64.3261 13.8579L64.3215 13.8466L62.468 14.598ZM61.566 12.948L59.8952 14.0472L59.9051 14.0624L59.9154 14.0774L61.566 12.948ZM60.312 11.364L58.8341 12.7115L58.8448 12.7232L58.8556 12.7347L60.312 11.364ZM58.904 10.11L57.7571 11.7485L57.7604 11.7508L58.904 10.11ZM58.354 9.252L60.3152 8.85977V8.85977L58.354 9.252ZM58.596 8.262L57.0343 7.01261L57.0343 7.01261L58.596 8.262ZM59.454 7.778L59.2879 5.7849L59.2807 5.78552L59.454 7.778ZM60.444 8.064L59.2815 9.69146L59.2945 9.70073L59.3076 9.70979L60.444 8.064ZM62.248 9.626L60.7997 11.0053L60.8082 11.0142L60.8169 11.0231L62.248 9.626ZM64.954 13.674L66.843 13.017L64.954 13.674ZM64.91 14.708L66.7441 15.5055L66.7503 15.4914L66.7562 15.4772L64.91 14.708ZM52.1071 17.2639C51.8123 17.2767 51.5277 17.2151 51.2186 17.0458L49.2974 20.5542C50.2203 21.0596 51.2263 21.306 52.2809 21.2601L52.1071 17.2639ZM51.2186 17.0458C50.9697 16.9095 50.6579 16.641 50.3241 16.109L46.9359 18.235C47.5408 19.199 48.3143 20.0158 49.2974 20.5542L51.2186 17.0458ZM50.345 16.143C50.0692 15.6834 49.7929 15.0289 49.5462 14.133L45.6898 15.195C46.0004 16.3231 46.3988 17.3406 46.915 18.201L50.345 16.143ZM49.5462 14.133C49.3009 13.2421 49.1215 12.2616 49.0141 11.187L45.0339 11.585C45.1611 12.857 45.3778 14.0619 45.6898 15.195L49.5462 14.133ZM49.0143 11.1894C48.9066 10.0983 48.8799 9.01677 48.9335 7.94387L44.9385 7.74412C44.8748 9.0179 44.9068 10.2977 45.0337 11.5826L49.0143 11.1894ZM48.9296 8.00349C48.9275 8.03026 48.9173 8.09766 48.8771 8.18442C48.8359 8.27341 48.7797 8.34671 48.7247 8.3984L45.9833 5.4856C45.3444 6.08689 45.0081 6.86328 44.9424 7.68451L48.9296 8.00349ZM48.7272 8.39603C48.6724 8.44779 48.5782 8.51521 48.4472 8.5609C48.3169 8.60637 48.206 8.61087 48.1405 8.60563L48.4595 4.61837C47.5369 4.54456 46.6623 4.84425 45.9808 5.48797L48.7272 8.39603ZM48.2201 8.6104C48.1538 8.60775 48.0454 8.58993 47.9237 8.53054C47.8016 8.47098 47.7184 8.39519 47.6722 8.34027L50.7318 5.76373C50.1321 5.05158 49.3036 4.65054 48.3799 4.6136L48.2201 8.6104ZM47.748 8.42525C47.6962 8.37045 47.6288 8.27623 47.5831 8.14524C47.5376 8.0149 47.5331 7.90397 47.5384 7.83851L51.5256 8.15749C51.5994 7.23493 51.2998 6.36034 50.656 5.67875L47.748 8.42525ZM47.5353 7.8839C47.4718 8.99438 47.4794 10.087 47.5595 11.1608L51.5485 10.8632C51.4819 9.9717 51.4749 9.05495 51.5287 8.1121L47.5353 7.8839ZM47.5597 11.1631C47.6404 12.2281 47.7957 13.2318 48.0338 14.1674L51.9102 13.1806C51.7377 12.5029 51.6143 11.7319 51.5483 10.8609L47.5597 11.1631ZM48.036 14.1759C48.2728 15.0894 48.589 15.9324 49.0144 16.6617L52.4696 14.6463C52.279 14.3196 52.0818 13.8426 51.908 13.1721L48.036 14.1759ZM48.9977 16.6325C49.5503 17.6176 50.5365 18.556 52.018 18.556V14.556C52.0881 14.556 52.1716 14.5668 52.2596 14.5949C52.3473 14.623 52.4178 14.6615 52.4685 14.6973C52.5639 14.7648 52.5545 14.797 52.4863 14.6755L48.9977 16.6325ZM52.0645 18.5555C53.1553 18.5301 53.9486 17.9246 54.4487 17.2994C54.9274 16.701 55.257 15.9523 55.5036 15.1956L51.7004 13.9564C51.6155 14.217 51.5351 14.4151 51.4643 14.5611C51.3923 14.7095 51.3418 14.7799 51.3253 14.8006C51.3087 14.8213 51.3496 14.763 51.4654 14.6956C51.5936 14.621 51.7702 14.5612 51.9715 14.5565L52.0645 18.5555ZM55.491 15.233C55.4707 15.2913 55.4289 15.3752 55.3547 15.4592C55.2808 15.543 55.2052 15.5925 55.1564 15.6169L53.3676 12.0391C52.5838 12.431 52.0036 13.0836 51.713 13.919L55.491 15.233ZM55.2197 15.5838C55.1596 15.6166 55.0594 15.6553 54.9303 15.6665C54.8016 15.6777 54.6998 15.6568 54.6415 15.6374L55.9065 11.8426C55.0334 11.5516 54.1196 11.6275 53.3043 12.0722L55.2197 15.5838ZM54.6917 15.6533C54.6035 15.6265 54.4935 15.5723 54.3908 15.4817C54.2903 15.393 54.2386 15.3065 54.2177 15.2629L57.8263 13.5371C57.4394 12.7282 56.7657 12.1034 55.8563 11.8267L54.6917 15.6533ZM54.2331 15.2944C54.2059 15.2399 54.1721 15.1457 54.1639 15.0225C54.1557 14.8989 54.1766 14.7974 54.199 14.733L57.977 16.047C58.2735 15.1945 58.2107 14.3052 57.8109 13.5056L54.2331 15.2944ZM54.1822 14.7836C53.8328 15.8814 53.4287 16.4847 53.088 16.7964L55.788 19.7476C56.826 18.798 57.5218 17.4799 57.9939 15.9964L54.1822 14.7836ZM53.1053 16.7807C52.7033 17.14 52.3739 17.2492 52.0851 17.265L52.3029 21.259C53.6275 21.1868 54.7941 20.636 55.7707 19.7633L53.1053 16.7807ZM63.4818 13.5173C63.5344 13.4976 63.6274 13.4747 63.7465 13.4798C63.8659 13.4849 63.9587 13.5158 64.0129 13.5417L62.2871 17.1503C63.1181 17.5477 64.028 17.5845 64.8863 17.2627L63.4818 13.5173ZM64.0444 13.5571C64.0877 13.5788 64.1522 13.6212 64.2154 13.6905C64.2785 13.7597 64.3139 13.8267 64.3305 13.8692L60.6055 15.3268C60.9171 16.123 61.4881 16.7511 62.2556 17.1349L64.0444 13.5571ZM64.3215 13.8466C64.0401 13.1526 63.6669 12.4767 63.2166 11.8186L59.9154 14.0774C60.2278 14.5339 60.4559 14.958 60.6145 15.3494L64.3215 13.8466ZM63.2368 11.8488C62.805 11.1924 62.3148 10.5738 61.7684 9.99327L58.8556 12.7347C59.2478 13.1515 59.5937 13.5889 59.8952 14.0472L63.2368 11.8488ZM61.7899 10.0165C61.2491 9.42332 60.6696 8.9027 60.0476 8.4692L57.7604 11.7508C58.1064 11.992 58.4656 12.3073 58.8341 12.7115L61.7899 10.0165ZM60.0509 8.47153C60.1062 8.51025 60.1736 8.57384 60.2303 8.66217C60.286 8.74907 60.3079 8.82341 60.3152 8.85977L56.3928 9.64423C56.5622 10.4908 57.0218 11.2338 57.7571 11.7485L60.0509 8.47153ZM60.3152 8.85977C60.33 8.93414 60.3382 9.05761 60.3023 9.2044C60.2665 9.35093 60.2029 9.45497 60.1577 9.51139L57.0343 7.01261C56.4325 7.76483 56.203 8.69514 56.3928 9.64423L60.3152 8.85977ZM60.1577 9.51139C60.1381 9.53593 60.0786 9.6012 59.9691 9.66296C59.8555 9.72707 59.7341 9.76119 59.6273 9.77048L59.2807 5.78552C58.3359 5.86768 57.5694 6.34373 57.0343 7.01261L60.1577 9.51139ZM59.6201 9.77109C59.5603 9.77607 59.4861 9.77079 59.4104 9.74893C59.3367 9.72764 59.2932 9.69978 59.2815 9.69146L61.6065 6.43654C60.9427 5.96242 60.1474 5.71329 59.2879 5.78491L59.6201 9.77109ZM59.3076 9.70979C59.7967 10.0475 60.2951 10.4754 60.7997 11.0053L63.6963 8.24669C63.0276 7.54459 62.3233 6.93115 61.5804 6.41821L59.3076 9.70979ZM60.8169 11.0231C61.3391 11.558 61.8091 12.1298 62.2279 12.7391L65.5241 10.4729C64.9749 9.67419 64.3596 8.92596 63.6792 8.22893L60.8169 11.0231ZM62.2279 12.7391C62.6298 13.3237 62.8992 13.8543 63.065 14.331L66.843 13.017C66.5395 12.1444 66.0902 11.2963 65.5241 10.4729L62.2279 12.7391ZM63.065 14.331C63.0438 14.27 63.029 14.1891 63.0328 14.1005C63.0365 14.0141 63.0561 13.9573 63.0639 13.9388L66.7562 15.4772C67.078 14.7047 67.1334 13.852 66.843 13.017L63.065 14.331ZM63.0759 13.9105C63.0992 13.8568 63.1516 13.7655 63.2492 13.6738C63.3478 13.5811 63.4509 13.5275 63.527 13.501L64.841 17.279C65.7236 16.972 66.3823 16.3377 66.7441 15.5055L63.0759 13.9105ZM73.71 22.056L73.0077 23.9287L73.0204 23.9333L73.71 22.056ZM72.192 15.72L73.9721 16.6318L73.9765 16.6231L73.9809 16.6144L72.192 15.72ZM73.71 14.4L73.0203 12.5226L73.0078 12.5273L73.71 14.4ZM82.708 14.4L83.4102 12.5273V12.5273L82.708 14.4ZM84.226 15.72L82.4371 16.6144L82.45 16.6402L82.4637 16.6656L84.226 15.72ZM84.226 20.736L82.4543 19.808L82.4456 19.8247L82.4371 19.8416L84.226 20.736ZM82.708 22.056L83.4102 23.9287V23.9287L82.708 22.056ZM69.728 12.266L70.8061 13.9506L70.8123 13.9466L69.728 12.266ZM68.606 12.552L68.3768 14.5388L68.606 12.552ZM67.704 11.98L69.3792 10.8875L67.704 11.98ZM67.55 10.968L69.439 11.625L69.4433 11.6128L69.4474 11.6005L67.55 10.968ZM68.21 10.154L67.2022 8.42641L67.1925 8.43215L68.21 10.154ZM70.938 8.328L72.138 9.928L72.1459 9.92204L72.1538 9.91601L70.938 8.328ZM73.622 6.106L72.2996 4.60558L72.2932 4.61119L72.2869 4.61686L73.622 6.106ZM75.844 3.972L77.3061 5.33664L77.3128 5.32951L77.3194 5.32232L75.844 3.972ZM80.596 3.928L81.9935 2.49723L81.9856 2.48962L80.596 3.928ZM82.774 5.886L81.4883 7.41795L81.4949 7.42354L81.5016 7.42908L82.774 5.886ZM85.414 7.91L84.2515 9.53747L84.2576 9.54178L84.2636 9.54606L85.414 7.91ZM88.23 9.692L89.2475 7.97015L89.2291 7.9593L89.2105 7.94885L88.23 9.692ZM88.868 10.55L86.9368 11.0699L86.946 11.1042L86.9564 11.1382L88.868 10.55ZM88.714 11.628L87.0388 10.5355L87.0341 10.5427L87.0295 10.5499L88.714 11.628ZM87.768 12.266L87.4749 10.2876L87.768 12.266ZM86.602 11.98L85.5053 13.6525L85.5075 13.6539L86.602 11.98ZM83.83 10.022L82.6261 11.619L83.83 10.022ZM78.814 5.622L77.3088 6.93901L77.3384 6.97275L77.3694 7.00514L78.814 5.622ZM78.22 5.27L78.0666 7.26411L78.1432 7.27H78.22V5.27ZM77.604 5.6L76.1449 4.23212L76.1359 4.24173L76.127 4.25146L77.604 5.6ZM75.492 7.712L74.1332 6.24448L75.492 7.712ZM73.028 9.846L71.7688 8.29213L73.8403 11.6736L73.028 9.846ZM83.72 10.11L82.2149 11.427L82.2374 11.4528L82.2609 11.4779L83.72 10.11ZM83.72 11.804L82.2609 10.4361L82.2374 10.4612L82.2149 10.487L83.72 11.804ZM72.654 11.804L71.1488 13.121L71.1714 13.1468L71.1949 13.1719L72.654 11.804ZM72.566 10.242L74.1513 11.4614L71.3583 8.64781L72.566 10.242ZM71.114 11.32L72.2813 12.9441L72.2903 12.9375L71.114 11.32ZM81.52 19.746L82.7694 21.3078L82.7784 21.3005L81.52 19.746ZM81.52 16.71L80.2247 18.2339L80.243 18.2494L80.2616 18.2645L81.52 16.71ZM74.898 16.71L73.6396 15.1555L73.621 15.1706L73.6027 15.1861L74.898 16.71ZM74.898 19.746L73.6027 21.2699L73.6434 21.3045L73.6859 21.3369L74.898 19.746ZM76.57 20.452C75.502 20.452 74.8103 20.3295 74.3996 20.1787L73.0204 23.9333C74.047 24.3105 75.262 24.452 76.57 24.452V20.452ZM74.4122 20.1833C74.1337 20.0789 74.0415 19.9629 73.9809 19.8416L70.4031 21.6304C70.9585 22.7411 71.8783 23.5051 73.0078 23.9287L74.4122 20.1833ZM73.9809 19.8416C73.8661 19.6121 73.73 19.1238 73.73 18.228H69.73C69.73 19.4442 69.9019 20.6279 70.4031 21.6304L73.9809 19.8416ZM73.73 18.228C73.73 17.308 73.8691 16.8329 73.9721 16.6318L70.4119 14.8082C69.8989 15.8098 69.73 17.0066 69.73 18.228H73.73ZM73.9809 16.6144C74.0415 16.4931 74.1337 16.3771 74.4122 16.2727L73.0078 12.5273C71.8783 12.9509 70.9585 13.7149 70.4031 14.8256L73.9809 16.6144ZM74.3996 16.2773C74.8103 16.1265 75.502 16.004 76.57 16.004V12.004C75.262 12.004 74.047 12.1455 73.0204 12.5227L74.3996 16.2773ZM76.57 16.004H79.848V12.004H76.57V16.004ZM79.848 16.004C80.9371 16.004 81.6201 16.128 82.0058 16.2727L83.4102 12.5273C82.3879 12.144 81.1642 12.004 79.848 12.004V16.004ZM82.0058 16.2727C82.2843 16.3771 82.3765 16.4931 82.4371 16.6144L86.0149 14.8256C85.4595 13.7149 84.5397 12.9509 83.4102 12.5273L82.0058 16.2727ZM82.4637 16.6656C82.5661 16.8564 82.71 17.3176 82.71 18.228H86.71C86.71 16.9971 86.5313 15.7862 85.9883 14.7744L82.4637 16.6656ZM82.71 18.228C82.71 19.114 82.5692 19.5887 82.4543 19.808L85.9977 21.664C86.5282 20.6513 86.71 19.454 86.71 18.228H82.71ZM82.4371 19.8416C82.3765 19.9629 82.2843 20.0789 82.0058 20.1833L83.4102 23.9287C84.5397 23.5051 85.4595 22.7411 86.0149 21.6304L82.4371 19.8416ZM82.0058 20.1833C81.6201 20.328 80.9371 20.452 79.848 20.452V24.452C81.1642 24.452 82.3879 24.312 83.4102 23.9287L82.0058 20.1833ZM79.848 20.452H76.57V24.452H79.848V20.452ZM68.6499 10.5815C68.6238 10.5982 68.6339 10.5868 68.6785 10.5755C68.7263 10.5633 68.7825 10.5591 68.8353 10.5652L68.3768 14.5388C69.2766 14.6426 70.1065 14.3983 70.8061 13.9505L68.6499 10.5815ZM68.8353 10.5652C68.9202 10.575 69.0418 10.6085 69.1656 10.687C69.2869 10.7639 69.3534 10.8479 69.3792 10.8875L66.0288 13.0725C66.5554 13.8801 67.3718 14.4229 68.3768 14.5388L68.8353 10.5652ZM69.3792 10.8875C69.3975 10.9154 69.4534 11.013 69.4777 11.1731C69.5033 11.3414 69.4821 11.5012 69.439 11.625L65.661 10.311C65.3124 11.3132 65.5197 12.292 66.0288 13.0725L69.3792 10.8875ZM69.4474 11.6005C69.4348 11.6382 69.4071 11.6977 69.3565 11.7601C69.3061 11.8222 69.2559 11.8591 69.2275 11.8759L67.1925 8.43215C66.4595 8.86531 65.9241 9.52118 65.6526 10.3355L69.4474 11.6005ZM69.2177 11.8816C70.1733 11.3242 71.1468 10.6714 72.138 9.928L69.738 6.728C68.8519 7.39258 68.0067 7.95718 67.2023 8.42644L69.2177 11.8816ZM72.1538 9.91601C73.1321 9.16702 74.0667 8.39346 74.9571 7.59514L72.2869 4.61686C71.476 5.34387 70.6212 6.05164 69.7222 6.73999L72.1538 9.91601ZM74.9444 7.60642C75.8459 6.81192 76.6356 6.05503 77.3061 5.33664L74.3819 2.60736C73.8204 3.20897 73.1288 3.87475 72.2996 4.60558L74.9444 7.60642ZM77.3194 5.32232C77.9443 4.63948 78.2185 4.674 78.154 4.674V0.673999C76.5935 0.673999 75.3277 1.57385 74.3687 2.62168L77.3194 5.32232ZM78.154 4.674C78.1678 4.674 78.5065 4.69023 79.2064 5.36638L81.9856 2.48962C80.9548 1.49377 79.6656 0.673999 78.154 0.673999V4.674ZM79.1985 5.35875C79.8718 6.0164 80.6363 6.70292 81.4883 7.41795L84.0597 4.35405C83.269 3.69041 82.5815 3.07159 81.9935 2.49725L79.1985 5.35875ZM81.5016 7.42908C82.3749 8.14916 83.2917 8.85189 84.2515 9.53747L86.5765 6.28253C85.6883 5.64811 84.8451 5.0015 84.0464 4.34292L81.5016 7.42908ZM84.2636 9.54606C85.2536 10.2421 86.2488 10.8723 87.2495 11.4352L89.2105 7.94885C88.3339 7.45573 87.4518 6.89791 86.5644 6.27394L84.2636 9.54606ZM87.2125 11.4139C87.1569 11.381 87.0871 11.3243 87.0266 11.2429C86.9673 11.1632 86.9438 11.0961 86.9368 11.0699L90.7992 10.0301C90.5688 9.1741 90.0461 8.44208 89.2475 7.97015L87.2125 11.4139ZM86.9564 11.1382C86.9371 11.0754 86.9176 10.9627 86.9376 10.8227C86.9575 10.6831 87.007 10.5842 87.0388 10.5355L90.3892 12.7205C90.9301 11.8913 91.0734 10.9169 90.7796 9.96183L86.9564 11.1382ZM87.0295 10.5499C87.0381 10.5363 87.0841 10.4712 87.1832 10.4044C87.2862 10.3349 87.3933 10.2997 87.4749 10.2876L88.0611 14.2444C89.0834 14.093 89.8828 13.5119 90.3985 12.7061L87.0295 10.5499ZM87.4749 10.2876C87.5332 10.279 87.5984 10.282 87.6559 10.2961C87.7095 10.3092 87.7237 10.3238 87.6965 10.3061L85.5075 13.6539C86.2381 14.1316 87.1139 14.3847 88.0611 14.2444L87.4749 10.2876ZM87.6987 10.3075C86.8445 9.74737 85.9563 9.12027 85.0339 8.42495L82.6261 11.619C83.6104 12.3611 84.5702 13.0393 85.5053 13.6525L87.6987 10.3075ZM85.0339 8.42495C84.1199 7.73591 83.2502 7.02739 82.4244 6.29958L79.7796 9.30042C80.6845 10.0979 81.6334 10.8708 82.6261 11.619L85.0339 8.42495ZM82.4244 6.29958C81.593 5.56686 80.8725 4.88004 80.2586 4.23886L77.3694 7.00514C78.0755 7.74263 78.8803 8.5078 79.7796 9.30042L82.4244 6.29958ZM80.3192 4.30499C79.969 3.90478 79.2676 3.27 78.22 3.27V7.27C77.8888 7.27 77.6375 7.16489 77.4919 7.07858C77.357 6.99863 77.2996 6.92844 77.3088 6.93901L80.3192 4.30499ZM78.3734 3.27589C77.2663 3.19073 76.5038 3.84937 76.1449 4.23212L79.0631 6.96788C79.0767 6.9534 79.0143 7.02579 78.8674 7.10446C78.7075 7.19014 78.4274 7.29186 78.0666 7.26411L78.3734 3.27589ZM76.127 4.25146C75.5548 4.87824 74.8913 5.54254 74.1332 6.24448L76.8508 9.17952C77.6767 8.41479 78.4212 7.67109 79.081 6.94854L76.127 4.25146ZM74.1332 6.24448C73.3739 6.94752 72.5858 7.63008 71.7688 8.29213L74.2872 11.3999C75.1715 10.6833 76.0261 9.94315 76.8508 9.17952L74.1332 6.24448ZM73.8403 11.6736C73.7316 11.7219 73.6447 11.742 73.5962 11.7504C73.5477 11.7589 73.5243 11.758 73.534 11.758V7.758C73.1582 7.758 72.6874 7.80874 72.2157 8.01838L73.8403 11.6736ZM73.534 11.758H82.862V7.758H73.534V11.758ZM82.862 11.758C82.8325 11.758 82.7307 11.7531 82.5924 11.6963C82.4462 11.6364 82.3144 11.5407 82.2149 11.427L85.2252 8.79299C84.5722 8.04677 83.6937 7.758 82.862 7.758V11.758ZM82.2609 11.4779C82.2033 11.4164 82.143 11.3283 82.1008 11.2185C82.0592 11.1103 82.05 11.02 82.05 10.968H86.05C86.05 10.1498 85.7648 9.36691 85.1791 8.74212L82.2609 11.4779ZM82.05 10.968C82.05 10.8975 82.063 10.7966 82.1072 10.6847C82.1514 10.5726 82.2113 10.4891 82.2609 10.4361L85.1791 13.1719C85.7478 12.5652 86.05 11.797 86.05 10.968H82.05ZM82.2149 10.487C82.3144 10.3733 82.4462 10.2776 82.5924 10.2177C82.7307 10.1609 82.8325 10.156 82.862 10.156V14.156C83.6937 14.156 84.5722 13.8672 85.2252 13.121L82.2149 10.487ZM82.862 10.156H73.534V14.156H82.862V10.156ZM73.534 10.156C73.5648 10.156 73.6575 10.1613 73.7818 10.211C73.9118 10.2631 74.0267 10.344 74.1131 10.4361L71.1949 13.1719C71.8475 13.8679 72.6995 14.156 73.534 14.156V10.156ZM74.1592 10.487C74.2094 10.5444 74.2623 10.6261 74.2997 10.7276C74.3367 10.8281 74.346 10.9138 74.346 10.968H70.346C70.346 11.7567 70.6126 12.5081 71.1488 13.121L74.1592 10.487ZM74.346 10.968C74.346 10.9872 74.3436 11.0522 74.315 11.1465C74.2853 11.2448 74.2327 11.3556 74.1513 11.4614L70.9808 9.02258C70.5103 9.63418 70.346 10.3329 70.346 10.968H74.346ZM71.3583 8.64781C70.8845 9.00673 70.411 9.3583 69.9377 9.70253L72.2903 12.9375C72.785 12.5777 73.2795 12.2106 73.7737 11.8362L71.3583 8.64781ZM69.9467 9.69597C69.5028 10.0151 69.0684 10.3114 68.6437 10.5854L70.8123 13.9466C71.2969 13.6339 71.7866 13.2996 72.2813 12.944L69.9467 9.69597ZM76.592 22.098H79.848V18.098H76.592V22.098ZM79.848 22.098C80.342 22.098 80.8349 22.0638 81.294 21.9671C81.7347 21.8743 82.2847 21.6955 82.7694 21.3077L80.2706 18.1843C80.3733 18.1021 80.4555 18.0645 80.4858 18.052C80.5164 18.0393 80.5158 18.0433 80.47 18.0529C80.3718 18.0736 80.1753 18.098 79.848 18.098V22.098ZM82.7784 21.3005C83.8441 20.4378 83.982 19.0843 83.982 18.228H79.982C79.982 18.353 79.9756 18.4458 79.9677 18.5109C79.9597 18.5768 79.9516 18.6023 79.9532 18.5972C79.9543 18.5935 80.0167 18.3897 80.2616 18.1915L82.7784 21.3005ZM83.982 18.228C83.982 17.3717 83.8441 16.0182 82.7784 15.1555L80.2616 18.2645C80.0167 18.0663 79.9543 17.8625 79.9532 17.8588C79.9516 17.8537 79.9597 17.8792 79.9677 17.9451C79.9756 18.0102 79.982 18.103 79.982 18.228H83.982ZM82.8153 15.1861C82.3306 14.7741 81.7727 14.5793 81.3186 14.4777C80.8493 14.3728 80.3475 14.336 79.848 14.336V18.336C80.1699 18.336 80.3574 18.3616 80.4454 18.3813C80.4859 18.3903 80.4811 18.3929 80.4456 18.3772C80.4098 18.3615 80.3259 18.3199 80.2247 18.2339L82.8153 15.1861ZM79.848 14.336H76.592V18.336H79.848V14.336ZM76.592 14.336C75.7199 14.336 74.5265 14.4376 73.6396 15.1555L76.1564 18.2645C76.0654 18.3382 75.9927 18.3728 75.965 18.3847C75.9374 18.3965 75.9393 18.3923 75.9837 18.3825C76.0791 18.3614 76.2711 18.336 76.592 18.336V14.336ZM73.6027 15.1861C72.5806 16.0549 72.458 17.3929 72.458 18.228H76.458C76.458 18.0999 76.4642 18.0032 76.4723 17.9338C76.4804 17.8635 76.489 17.8331 76.4889 17.8333C76.4887 17.8342 76.4853 17.8456 76.4772 17.8653C76.469 17.885 76.4552 17.9149 76.4337 17.9518C76.3899 18.0269 76.3141 18.1312 76.1933 18.2339L73.6027 15.1861ZM72.458 18.228C72.458 19.0631 72.5806 20.4011 73.6027 21.2699L76.1933 18.2221C76.3141 18.3248 76.3899 18.4291 76.4337 18.5042C76.4552 18.5411 76.469 18.5709 76.4772 18.5907C76.4853 18.6104 76.4887 18.6218 76.4889 18.6227C76.489 18.6229 76.4804 18.5925 76.4723 18.5222C76.4642 18.4528 76.458 18.3561 76.458 18.228H72.458ZM73.6859 21.3369C74.5635 22.0055 75.7321 22.098 76.592 22.098V18.098C76.2656 18.098 76.0648 18.0737 75.9594 18.0518C75.9098 18.0415 75.9025 18.036 75.9253 18.0452C75.9477 18.0543 76.0183 18.0852 76.1101 18.1551L73.6859 21.3369ZM96.414 22.342L94.9998 23.7562L96.414 22.342ZM96.04 15.764H98.04V11.1776L94.6791 14.2984L96.04 15.764ZM94.764 16.952L93.3994 15.4899L93.387 15.5014L93.3748 15.5132L94.764 16.952ZM93.488 18.184L94.8613 19.638L94.8693 19.6305L94.8772 19.6228L93.488 18.184ZM91.64 18.184L90.1452 19.5127L90.1842 19.5567L90.2258 19.5982L91.64 18.184ZM91.288 17.238L89.2896 17.1581L89.288 17.198V17.238H91.288ZM91.706 16.336L93.0347 17.8308L93.054 17.8137L93.0729 17.796L91.706 16.336ZM93.818 14.4L95.1543 15.8881L95.1559 15.8866L93.818 14.4ZM96.04 12.53L97.2743 14.1037L98.04 13.5031V12.53H96.04ZM96.04 9.626H98.04V7.24215L95.6924 7.65643L96.04 9.626ZM93.906 10.088L93.4563 8.13922L93.906 10.088ZM93.004 10.286L92.6118 8.32484L92.6039 8.32641L92.5961 8.32804L93.004 10.286ZM92.014 10.11L93.0667 8.40947V8.40947L92.014 10.11ZM91.442 9.296L89.4808 9.68823L89.4824 9.69608L89.484 9.70391L91.442 9.296ZM91.618 8.284L93.3185 9.33671V9.33671L91.618 8.284ZM92.432 7.712L92.8399 9.66996L92.8787 9.66189L92.9171 9.65229L92.432 7.712ZM93.07 7.602L93.3529 9.5819L93.3987 9.57535L93.4442 9.56668L93.07 7.602ZM94.104 7.404L93.7263 5.43999L94.104 7.404ZM95.204 7.206L94.8752 5.23321L95.204 7.206ZM96.04 7.052L96.4591 9.00761L98.04 8.66884V7.052H96.04ZM96.414 2.982L94.9998 1.56778L94.9998 1.56779L96.414 2.982ZM98.218 2.982L99.6322 1.56779V1.56778L98.218 2.982ZM98.592 7.052H96.592V8.49352L97.9595 8.94937L98.592 7.052ZM99.692 7.888L101.343 6.75863L101.331 6.74196L101.319 6.72552L99.692 7.888ZM99.956 8.878L97.9575 8.80114L97.956 8.83955V8.878H99.956ZM99.714 10.132L97.8291 9.46318L96.1291 14.2541L100.638 11.9058L99.714 10.132ZM101.826 9.274L102.386 11.194V11.194L101.826 9.274ZM108.206 10.418L106.813 11.8532L106.824 11.8636L106.835 11.8738L108.206 10.418ZM108.998 17.128L107.233 16.1883L107.227 16.1995L107.221 16.2107L108.998 17.128ZM106.644 19.482L105.615 17.767L106.644 19.482ZM102.222 20.89L101.924 18.9124L101.915 18.9137L101.906 18.9151L102.222 20.89ZM101.232 20.67L99.9927 22.2398L100.038 22.2754L100.085 22.3085L101.232 20.67ZM100.704 19.79L98.7291 20.106L98.7352 20.1442L98.7428 20.1822L100.704 19.79ZM100.946 18.822L102.516 20.0613L102.531 20.0418L102.546 20.022L100.946 18.822ZM101.804 18.294L101.492 16.3185L101.484 16.3198L101.475 16.3212L101.804 18.294ZM105.918 16.82L107.215 18.3425L107.223 18.3356L107.231 18.3286L105.918 16.82ZM106.292 12.244L104.961 13.7366L104.972 13.7467L104.984 13.7567L106.292 12.244ZM101.21 12.112L102.017 13.9422L102.029 13.9365L102.042 13.9306L101.21 12.112ZM98.592 13.652L97.4093 12.0392L96.592 12.6385V13.652H98.592ZM98.218 22.342L99.6322 23.7562L98.218 22.342ZM97.316 20.716C97.3813 20.716 97.4808 20.7287 97.5925 20.775C97.7042 20.8213 97.7829 20.8825 97.8282 20.9278L94.9998 23.7562C95.6235 24.3799 96.4325 24.716 97.316 24.716V20.716ZM97.8282 20.9278C97.8735 20.9731 97.9347 21.0518 97.981 21.1635C98.0273 21.2752 98.04 21.3747 98.04 21.44H94.04C94.04 22.3235 94.3761 23.1325 94.9998 23.7562L97.8282 20.9278ZM98.04 21.44V15.764H94.04V21.44H98.04ZM94.6791 14.2984C94.2671 14.681 93.8405 15.0781 93.3994 15.4899L96.1286 18.4141C96.5675 18.0045 96.9916 17.6097 97.4009 17.2296L94.6791 14.2984ZM93.3748 15.5132C92.9495 15.9239 92.5241 16.3345 92.0988 16.7452L94.8772 19.6228C95.3025 19.2121 95.7279 18.8015 96.1532 18.3908L93.3748 15.5132ZM92.1148 16.73C92.1544 16.6925 92.223 16.6422 92.3182 16.6046C92.4131 16.5671 92.4942 16.558 92.542 16.558V20.558C93.4138 20.558 94.222 20.2418 94.8613 19.638L92.1148 16.73ZM92.542 16.558C92.6073 16.558 92.7068 16.5707 92.8185 16.617C92.9302 16.6633 93.0089 16.7245 93.0542 16.7698L90.2258 19.5982C90.8495 20.2219 91.6585 20.558 92.542 20.558V16.558ZM93.1348 16.8553C93.1737 16.899 93.2185 16.9662 93.2505 17.052C93.282 17.1367 93.288 17.2046 93.288 17.238H89.288C89.288 18.074 89.5718 18.8676 90.1452 19.5127L93.1348 16.8553ZM93.2864 17.3179C93.2843 17.3696 93.2706 17.4652 93.2181 17.5784C93.1649 17.6932 93.0941 17.778 93.0347 17.8308L90.3773 14.8412C89.6897 15.4524 89.325 16.2721 89.2896 17.1581L93.2864 17.3179ZM93.0729 17.796C93.7519 17.1604 94.4456 16.5244 95.1543 15.8881L92.4818 12.9119C91.753 13.5663 91.0388 14.221 90.3392 14.876L93.0729 17.796ZM95.1559 15.8866C95.857 15.2557 96.5631 14.6615 97.2743 14.1037L94.8057 10.9563C94.0209 11.5718 93.2457 12.2243 92.4801 12.9134L95.1559 15.8866ZM98.04 12.53V9.626H94.04V12.53H98.04ZM95.6924 7.65643C95.4024 7.70762 95.048 7.78055 94.6381 7.87163L95.5059 11.7764C95.888 11.6915 96.179 11.6324 96.3876 11.5956L95.6924 7.65643ZM94.6381 7.87163C94.237 7.96076 93.8431 8.04996 93.4563 8.13922L94.3557 12.0368C94.7316 11.95 95.115 11.8632 95.5059 11.7764L94.6381 7.87163ZM93.4563 8.13922C93.0823 8.22552 92.8035 8.28649 92.6118 8.32484L93.3962 12.2472C93.6445 12.1975 93.9671 12.1265 94.3557 12.0368L93.4563 8.13922ZM92.5961 8.32804C92.6514 8.31652 92.7387 8.30941 92.8426 8.32787C92.9461 8.34629 93.0231 8.38246 93.0667 8.40947L90.9613 11.8105C91.7016 12.2688 92.5539 12.4227 93.4119 12.244L92.5961 8.32804ZM93.0667 8.40947C93.1211 8.44314 93.2025 8.50851 93.2764 8.61361C93.3504 8.719 93.3858 8.82013 93.4 8.88809L89.484 9.70391C89.6701 10.5972 90.1911 11.3337 90.9613 11.8105L93.0667 8.40947ZM93.4032 8.90377C93.4105 8.94036 93.4182 9.0144 93.4014 9.11068C93.3845 9.20813 93.3498 9.2862 93.3185 9.33671L89.9175 7.23129C89.4505 7.98563 89.3116 8.84205 89.4808 9.68823L93.4032 8.90377ZM93.3185 9.33671C93.2849 9.3911 93.2195 9.47253 93.1144 9.54638C93.009 9.62044 92.9079 9.6558 92.8399 9.66996L92.0241 5.75404C91.1308 5.94014 90.3943 6.46107 89.9175 7.23129L93.3185 9.33671ZM92.9171 9.65229C92.9044 9.65544 92.9304 9.64875 93.0193 9.63342C93.1005 9.61943 93.2104 9.60225 93.3529 9.5819L92.7872 5.6221C92.4843 5.66536 92.1768 5.71424 91.9469 5.77171L92.9171 9.65229ZM93.4442 9.56668C93.7536 9.50774 94.0995 9.44152 94.4817 9.36801L93.7263 5.43999C93.3459 5.51315 93.0024 5.57892 92.6958 5.63732L93.4442 9.56668ZM94.4817 9.36801C94.8482 9.29754 95.1985 9.23451 95.5328 9.17879L94.8752 5.23321C94.5055 5.29483 94.1225 5.3638 93.7263 5.43999L94.4817 9.36801ZM95.5328 9.17879C95.8973 9.11803 96.2103 9.06092 96.4591 9.00761L95.6209 5.09639C95.4591 5.13108 95.2147 5.17663 94.8752 5.23321L95.5328 9.17879ZM98.04 7.052V3.884H94.04V7.052H98.04ZM98.04 3.884C98.04 3.94929 98.0273 4.04884 97.981 4.16053C97.9347 4.27215 97.8735 4.35092 97.8282 4.39621L94.9998 1.56779C94.3761 2.19146 94.04 3.00053 94.04 3.884H98.04ZM97.8282 4.39621C97.7829 4.44151 97.7042 4.5027 97.5925 4.54898C97.4808 4.59529 97.3813 4.608 97.316 4.608V0.607999C96.4325 0.607999 95.6235 0.944111 94.9998 1.56778L97.8282 4.39621ZM97.316 4.608C97.2507 4.608 97.1512 4.59529 97.0395 4.54898C96.9279 4.5027 96.8491 4.44151 96.8038 4.39621L99.6322 1.56778C99.0085 0.944111 98.1995 0.607999 97.316 0.607999V4.608ZM96.8038 4.39621C96.7585 4.35092 96.6973 4.27215 96.651 4.16053C96.6047 4.04884 96.592 3.94929 96.592 3.884H100.592C100.592 3.00053 100.256 2.19146 99.6322 1.56779L96.8038 4.39621ZM96.592 3.884V7.052H100.592V3.884H96.592ZM97.9595 8.94937C97.9731 8.95387 97.9793 8.9576 97.9868 8.96332C97.9958 8.9701 98.0235 8.99302 98.0645 9.05048L101.319 6.72552C100.803 6.00287 100.101 5.44687 99.2245 5.15463L97.9595 8.94937ZM98.0414 9.01737C98.0071 8.9673 97.9823 8.91144 97.9685 8.85982C97.9554 8.81068 97.958 8.78693 97.9575 8.80114L101.955 8.95487C101.983 8.20296 101.807 7.43701 101.343 6.75863L98.0414 9.01737ZM97.956 8.878C97.956 8.98013 97.9336 9.16888 97.8291 9.46318L101.599 10.8008C101.817 10.1858 101.956 9.53853 101.956 8.878H97.956ZM100.638 11.9058C101.235 11.5948 101.818 11.3598 102.386 11.194L101.266 7.354C100.426 7.59889 99.6009 7.9359 98.7901 8.35817L100.638 11.9058ZM102.386 11.194C102.924 11.0371 103.425 10.966 103.894 10.966V6.966C103.014 6.966 102.136 7.10018 101.266 7.354L102.386 11.194ZM103.894 10.966C105.438 10.966 106.304 11.3594 106.813 11.8532L109.599 8.98284C108.113 7.54059 106.105 6.966 103.894 6.966V10.966ZM106.835 11.8738C107.384 12.3914 107.724 13.108 107.724 14.246H111.724C111.724 12.1866 111.052 10.3513 109.577 8.96222L106.835 11.8738ZM107.724 14.246C107.724 14.9242 107.565 15.5629 107.233 16.1883L110.763 18.0677C111.399 16.8745 111.724 15.5918 111.724 14.246H107.724ZM107.221 16.2107C106.96 16.7155 106.477 17.2501 105.615 17.767L107.673 21.197C109.011 20.3939 110.097 19.3592 110.775 18.0453L107.221 16.2107ZM105.615 17.767C104.817 18.2459 103.621 18.6564 101.924 18.9124L102.52 22.8676C104.519 22.5663 106.271 22.0381 107.673 21.197L105.615 17.767ZM101.906 18.9151C101.947 18.9085 102.029 18.9034 102.133 18.9266C102.239 18.9502 102.324 18.9929 102.379 19.0315L100.085 22.3085C100.821 22.8237 101.68 23.0022 102.538 22.8649L101.906 18.9151ZM102.471 19.1002C102.515 19.1345 102.565 19.1873 102.606 19.256C102.646 19.3234 102.661 19.3772 102.665 19.3978L98.7428 20.1822C98.904 20.9878 99.3202 21.7089 99.9927 22.2398L102.471 19.1002ZM102.679 19.474C102.687 19.5262 102.693 19.6285 102.661 19.7581C102.628 19.8898 102.569 19.9935 102.516 20.0613L99.3762 17.5827C98.7921 18.3226 98.5867 19.2157 98.7291 20.106L102.679 19.474ZM102.546 20.022C102.519 20.0577 102.463 20.1181 102.374 20.1733C102.283 20.2291 102.196 20.2563 102.133 20.2668L101.475 16.3212C100.601 16.467 99.8652 16.9298 99.346 17.622L102.546 20.022ZM102.116 20.2695C104.156 19.9475 105.988 19.388 107.215 18.3425L104.621 15.2975C104.264 15.6013 103.354 16.0245 101.492 16.3185L102.116 20.2695ZM107.231 18.3286C108.448 17.2693 109.106 15.8661 109.106 14.246H105.106C105.106 14.6792 104.972 14.992 104.605 15.3114L107.231 18.3286ZM109.106 14.246C109.106 12.9309 108.672 11.6585 107.6 10.7313L104.984 13.7567C105.015 13.7839 105.033 13.8075 105.05 13.8498C105.071 13.9013 105.106 14.0208 105.106 14.246H109.106ZM107.623 10.7514C106.57 9.812 105.191 9.518 103.85 9.518V13.518C104.68 13.518 104.929 13.708 104.961 13.7366L107.623 10.7514ZM103.85 9.518C102.65 9.518 101.487 9.78562 100.378 10.2934L102.042 13.9306C102.663 13.6464 103.261 13.518 103.85 13.518V9.518ZM100.403 10.2818C99.3867 10.7299 98.3889 11.3208 97.4093 12.0392L99.7747 15.2648C100.555 14.6925 101.303 14.2568 102.017 13.9422L100.403 10.2818ZM96.592 13.652V21.44H100.592V13.652H96.592ZM96.592 21.44C96.592 21.3747 96.6047 21.2752 96.651 21.1635C96.6973 21.0518 96.7585 20.9731 96.8038 20.9278L99.6322 23.7562C100.256 23.1325 100.592 22.3235 100.592 21.44H96.592ZM96.8038 20.9278C96.8491 20.8825 96.9279 20.8213 97.0395 20.775C97.1512 20.7287 97.2507 20.716 97.316 20.716V24.716C98.1995 24.716 99.0085 24.3799 99.6322 23.7562L96.8038 20.9278ZM128.952 21.022L128.799 19.0279L128.766 19.0304L128.734 19.0339L128.952 21.022ZM123.694 21.066L123.439 23.0496L123.441 23.05L123.694 21.066ZM120.064 19.526L118.702 20.9904L118.718 21.0051L118.734 21.0195L120.064 19.526ZM118.656 17.392L116.775 18.0729L116.779 18.0834L118.656 17.392ZM118.194 12.222H120.194V9.95643L117.946 10.2374L118.194 12.222ZM116.192 12.508L116.468 14.4888L116.491 14.4857L116.513 14.482L116.192 12.508ZM114.432 12.794L114.761 14.7668L114.782 14.7632L114.804 14.7591L114.432 12.794ZM112.936 11.738L114.909 11.4092V11.4092L112.936 11.738ZM113.134 10.77L111.496 9.62307L111.476 9.65122L111.457 9.68002L113.134 10.77ZM113.97 10.242L113.68 8.26308L113.661 8.26595L113.641 8.26921L113.97 10.242ZM115.928 9.978L116.176 11.9626L116.193 11.9604L116.211 11.9579L115.928 9.978ZM118.194 9.692L118.415 11.6798L120.194 11.4821V9.692H118.194ZM118.568 5.094L117.154 3.67979V3.67979L118.568 5.094ZM120.438 5.094L118.984 6.46725L119.004 6.48801L119.024 6.50821L120.438 5.094ZM120.812 9.428H118.812V11.6295L121.003 11.4188L120.812 9.428ZM123.122 9.23L122.974 7.23546L122.971 7.23567L123.122 9.23ZM125.454 9.054L125.607 11.0481L127.25 10.9217L127.441 9.285L125.454 9.054ZM125.608 7.228L123.614 7.07842L123.612 7.10325L123.61 7.12813L125.608 7.228ZM125.696 5.578L123.698 5.49806L123.697 5.50947L123.697 5.52088L125.696 5.578ZM126.092 4.654L124.719 3.19997L124.698 3.21959L124.678 3.23979L126.092 4.654ZM127.038 4.302L127.118 2.3036L127.038 4.302ZM127.962 4.72L126.508 6.09325L126.547 6.13479L126.589 6.17403L127.962 4.72ZM128.336 5.644L126.338 5.56406L126.337 5.57463L126.337 5.5852L128.336 5.644ZM128.248 7.228L126.254 7.07059L126.252 7.0953L126.251 7.12005L128.248 7.228ZM128.116 8.9L126.126 8.69594L125.884 11.0568L128.252 10.8954L128.116 8.9ZM130.008 8.812L130.056 10.8114L130.079 10.8109L130.103 10.8097L130.008 8.812ZM131.768 8.746V6.746H131.742L131.715 6.74669L131.768 8.746ZM132.692 9.142L131.238 10.5152L131.258 10.536L131.278 10.5562L132.692 9.142ZM132.692 10.968L134.106 12.3822L134.126 12.362L134.146 12.3412L132.692 10.968ZM131.768 11.342L131.72 13.3414L131.744 13.342H131.768V11.342ZM127.852 11.408L127.747 9.41076L126.105 9.4972L125.872 11.1252L127.852 11.408ZM127.5 13.52L125.536 13.1439L125.532 13.1606L125.53 13.1773L127.5 13.52ZM127.126 15.368L129.066 15.8531L129.069 15.841L129.072 15.8289L127.126 15.368ZM126.532 16.182L127.524 17.9185L127.555 17.901L127.585 17.8825L126.532 16.182ZM125.542 16.336L125.075 18.2808L125.105 18.2878L125.134 18.294L125.542 16.336ZM124.706 15.742L122.97 16.7343L122.987 16.7648L123.005 16.7947L124.706 15.742ZM124.552 14.752L122.608 14.2808L122.601 14.3123L122.594 14.3441L124.552 14.752ZM124.882 13.212L126.847 13.5838V13.5838L124.882 13.212ZM125.146 11.562L127.129 11.8229L127.445 9.41747L125.024 9.56574L125.146 11.562ZM122.968 11.738L123.131 13.7314L123.149 13.7299L123.167 13.7281L122.968 11.738ZM120.812 11.936L120.609 9.94633L118.812 10.1297V11.936H120.812ZM121.076 16.292L122.978 15.675L121.076 16.292ZM121.868 17.59L120.517 19.0643L120.525 19.0724L120.534 19.0805L121.868 17.59ZM124.288 18.514L124.067 20.5018L124.081 20.5033L124.094 20.5046L124.288 18.514ZM128.688 18.382L128.89 20.3718L128.908 20.3699L128.926 20.3678L128.688 18.382ZM129.656 18.668L128.368 20.1978L128.387 20.214L128.407 20.2297L129.656 18.668ZM130.14 19.57L128.146 19.7295L128.15 19.769L128.154 19.8083L130.14 19.57ZM129.854 20.56L128.292 19.3106L128.284 19.3207L129.854 20.56ZM128.734 19.0339C126.832 19.2421 125.244 19.2474 123.947 19.082L123.441 23.05C125.136 23.2659 127.053 23.2418 129.17 23.0101L128.734 19.0339ZM123.949 19.0824C122.791 18.9332 121.979 18.5534 121.394 18.0325L118.734 21.0195C120.026 22.1706 121.635 22.8174 123.439 23.0496L123.949 19.0824ZM121.426 18.0616C121.033 17.6961 120.736 17.2526 120.533 16.7006L116.779 18.0834C117.192 19.2034 117.833 20.1825 118.702 20.9904L121.426 18.0616ZM120.537 16.7111C120.331 16.1441 120.194 15.342 120.194 14.246H116.194C116.194 15.6434 116.365 16.9386 116.775 18.0729L120.537 16.7111ZM120.194 14.246V12.222H116.194V14.246H120.194ZM117.946 10.2374C117.22 10.3282 116.528 10.4269 115.871 10.534L116.513 14.482C117.117 14.3837 117.76 14.2918 118.442 14.2066L117.946 10.2374ZM115.916 10.5272C115.258 10.619 114.639 10.7194 114.06 10.8289L114.804 14.7591C115.31 14.6633 115.865 14.573 116.468 14.4888L115.916 10.5272ZM114.103 10.8212C114.163 10.8112 114.258 10.8074 114.369 10.8327C114.481 10.858 114.563 10.902 114.611 10.9355L112.317 14.2125C113.038 14.7171 113.89 14.9119 114.761 14.7668L114.103 10.8212ZM114.611 10.9355C114.663 10.9718 114.737 11.0392 114.803 11.143C114.869 11.2469 114.898 11.3444 114.909 11.4092L110.963 12.0668C111.111 12.9505 111.585 13.7003 112.317 14.2125L114.611 10.9355ZM114.909 11.4092C114.916 11.4549 114.921 11.5344 114.901 11.6328C114.881 11.7318 114.843 11.8099 114.811 11.86L111.457 9.68002C110.988 10.4018 110.824 11.2324 110.963 12.0668L114.909 11.4092ZM114.772 11.9169C114.736 11.9687 114.669 12.0434 114.565 12.109C114.461 12.1746 114.364 12.204 114.299 12.2148L113.641 8.26921C112.757 8.4165 112.008 8.89146 111.496 9.62307L114.772 11.9169ZM114.26 12.2209C114.845 12.1352 115.484 12.0491 116.176 11.9626L115.68 7.99344C114.964 8.0829 114.298 8.17275 113.68 8.26308L114.26 12.2209ZM116.211 11.9579C116.907 11.8584 117.642 11.7657 118.415 11.6798L117.973 7.70423C117.162 7.79431 116.386 7.89222 115.645 7.9981L116.211 11.9579ZM120.194 9.692V6.018H116.194V9.692H120.194ZM120.194 6.018C120.194 6.06519 120.185 6.15444 120.141 6.26238C120.097 6.37188 120.035 6.45509 119.982 6.50821L117.154 3.67979C116.513 4.32055 116.194 5.14449 116.194 6.018H120.194ZM119.982 6.50821C119.947 6.54311 119.878 6.59853 119.775 6.64188C119.671 6.68553 119.576 6.698 119.514 6.698V2.698C118.606 2.698 117.785 3.04838 117.154 3.67979L119.982 6.50821ZM119.514 6.698C119.452 6.698 119.35 6.68566 119.232 6.63529C119.114 6.58473 119.031 6.51738 118.984 6.46725L121.892 3.72075C121.261 3.05231 120.425 2.698 119.514 2.698V6.698ZM119.024 6.50821C118.971 6.45509 118.909 6.37188 118.865 6.26239C118.821 6.15445 118.812 6.06519 118.812 6.018H122.812C122.812 5.14449 122.493 4.32055 121.852 3.67979L119.024 6.50821ZM118.812 6.018V9.428H122.812V6.018H118.812ZM121.003 11.4188C121.752 11.3468 122.509 11.282 123.273 11.2243L122.971 7.23567C122.181 7.29535 121.397 7.36252 120.621 7.43718L121.003 11.4188ZM123.27 11.2245C124.064 11.1657 124.843 11.1069 125.607 11.0481L125.301 7.05989C124.54 7.11841 123.764 7.17693 122.974 7.23546L123.27 11.2245ZM127.441 9.285C127.519 8.61421 127.574 7.9617 127.605 7.32787L123.61 7.12813C123.584 7.66763 123.536 8.23245 123.467 8.823L127.441 9.285ZM127.602 7.37758C127.648 6.76445 127.68 6.18335 127.695 5.63512L123.697 5.52088C123.683 5.99931 123.656 6.51821 123.614 7.07842L127.602 7.37758ZM127.694 5.65793C127.693 5.69515 127.683 5.76921 127.644 5.85984C127.605 5.95179 127.552 6.0225 127.506 6.06821L124.678 3.23979C124.057 3.86027 123.731 4.65155 123.698 5.49806L127.694 5.65793ZM127.465 6.10803C127.418 6.15262 127.337 6.21145 127.224 6.25344C127.112 6.29527 127.015 6.30269 126.958 6.3004L127.118 2.3036C126.22 2.26767 125.379 2.57662 124.719 3.19997L127.465 6.10803ZM126.958 6.3004C126.906 6.29833 126.82 6.28489 126.72 6.23971C126.619 6.19436 126.549 6.13627 126.508 6.09325L129.416 3.34675C128.804 2.69841 128.001 2.3389 127.118 2.3036L126.958 6.3004ZM126.589 6.17403C126.531 6.11993 126.455 6.02467 126.4 5.88839C126.345 5.75265 126.335 5.63476 126.338 5.56406L130.334 5.72393C130.372 4.78663 130.025 3.91703 129.335 3.26597L126.589 6.17403ZM126.337 5.5852C126.323 6.04732 126.296 6.54224 126.254 7.07059L130.242 7.38541C130.288 6.79909 130.319 6.23801 130.335 5.7028L126.337 5.5852ZM126.251 7.12005C126.223 7.62884 126.182 8.15408 126.126 8.69594L130.106 9.10406C130.167 8.50192 130.214 7.91249 130.245 7.33595L126.251 7.12005ZM128.252 10.8954C128.869 10.8533 129.471 10.8254 130.056 10.8114L129.96 6.81257C129.313 6.82797 128.653 6.85872 127.98 6.90463L128.252 10.8954ZM130.103 10.8097C130.706 10.781 131.279 10.7596 131.821 10.7453L131.715 6.74669C131.142 6.76177 130.542 6.78432 129.913 6.81426L130.103 10.8097ZM131.768 10.746C131.706 10.746 131.604 10.7337 131.486 10.6833C131.368 10.6327 131.285 10.5654 131.238 10.5152L134.146 7.76875C133.515 7.10031 132.679 6.746 131.768 6.746V10.746ZM131.278 10.5562C131.232 10.5109 131.171 10.4322 131.125 10.3205C131.079 10.2088 131.066 10.1093 131.066 10.044H135.066C135.066 9.16053 134.73 8.35146 134.106 7.72779L131.278 10.5562ZM131.066 10.044C131.066 9.97827 131.079 9.88695 131.119 9.78861C131.158 9.69137 131.208 9.62684 131.238 9.59475L134.146 12.3412C134.734 11.719 135.066 10.9243 135.066 10.044H131.066ZM131.278 9.55379C131.331 9.50066 131.414 9.43893 131.524 9.39461C131.632 9.35092 131.721 9.342 131.768 9.342V13.342C132.642 13.342 133.465 13.023 134.106 12.3822L131.278 9.55379ZM131.816 9.34258C130.541 9.31185 129.184 9.33512 127.747 9.41076L127.957 13.4052C129.307 13.3342 130.56 13.3135 131.72 13.3414L131.816 9.34258ZM125.872 11.1252C125.774 11.8137 125.662 12.4865 125.536 13.1439L129.464 13.8961C129.602 13.1748 129.725 12.4397 129.832 11.6908L125.872 11.1252ZM125.53 13.1773C125.418 13.8197 125.301 14.3956 125.18 14.9071L129.072 15.8289C129.215 15.2258 129.347 14.5696 129.47 13.8627L125.53 13.1773ZM125.186 14.8829C125.199 14.8291 125.231 14.7453 125.296 14.6566C125.361 14.5678 125.431 14.5113 125.479 14.4815L127.585 17.8825C128.336 17.4172 128.852 16.7094 129.066 15.8531L125.186 14.8829ZM125.54 14.4455C125.584 14.4201 125.655 14.3904 125.746 14.3763C125.836 14.3622 125.909 14.3694 125.95 14.378L125.134 18.294C125.957 18.4654 126.786 18.3404 127.524 17.9185L125.54 14.4455ZM126.009 14.3912C126.048 14.4007 126.127 14.4276 126.216 14.4911C126.307 14.5557 126.37 14.6303 126.407 14.6893L123.005 16.7947C123.486 17.5711 124.219 18.0753 125.075 18.2808L126.009 14.3912ZM126.442 14.7497C126.468 14.7942 126.498 14.8654 126.512 14.9561C126.526 15.0463 126.519 15.1186 126.51 15.1599L122.594 14.3441C122.423 15.167 122.548 15.9959 122.97 16.7343L126.442 14.7497ZM126.496 15.2232C126.622 14.7029 126.739 14.1562 126.847 13.5838L122.917 12.8402C122.82 13.3531 122.717 13.8331 122.608 14.2808L126.496 15.2232ZM126.847 13.5838C126.957 13.0037 127.051 12.4167 127.129 11.8229L123.163 11.3011C123.095 11.822 123.012 12.335 122.917 12.8402L126.847 13.5838ZM125.024 9.56574C124.279 9.61134 123.527 9.6721 122.769 9.74792L123.167 13.7281C123.875 13.6572 124.576 13.6007 125.268 13.5583L125.024 9.56574ZM122.805 9.74463C122.073 9.8044 121.341 9.87163 120.609 9.94633L121.015 13.9257C121.72 13.8537 122.426 13.7889 123.131 13.7314L122.805 9.74463ZM118.812 11.936V14.246H122.812V11.936H118.812ZM118.812 14.246C118.812 15.193 118.911 16.1005 119.174 16.909L122.978 15.675C122.889 15.3982 122.812 14.9417 122.812 14.246H118.812ZM119.174 16.909C119.435 17.7162 119.865 18.4666 120.517 19.0643L123.219 16.1157C123.167 16.068 123.069 15.9531 122.978 15.675L119.174 16.909ZM120.534 19.0805C121.508 19.9513 122.765 20.3571 124.067 20.5018L124.509 16.5262C123.699 16.4362 123.343 16.2261 123.202 16.0995L120.534 19.0805ZM124.094 20.5046C125.346 20.6263 126.966 20.5672 128.89 20.3718L128.486 16.3922C126.655 16.5781 125.342 16.6071 124.482 16.5234L124.094 20.5046ZM128.926 20.3678C128.866 20.375 128.762 20.3752 128.638 20.3385C128.514 20.3017 128.422 20.2434 128.368 20.1978L130.944 17.1382C130.235 16.5412 129.358 16.2873 128.45 16.3962L128.926 20.3678ZM128.407 20.2297C128.364 20.1955 128.294 20.1257 128.235 20.0151C128.175 19.9037 128.152 19.7996 128.146 19.7295L132.134 19.4105C132.059 18.4807 131.619 17.6774 130.905 17.1063L128.407 20.2297ZM128.154 19.8083C128.147 19.7457 128.148 19.6488 128.18 19.5374C128.212 19.4268 128.261 19.3501 128.292 19.3106L131.416 21.8094C131.979 21.1052 132.235 20.2413 132.126 19.3317L128.154 19.8083ZM128.284 19.3207C128.343 19.2464 128.433 19.165 128.552 19.1044C128.667 19.0455 128.76 19.0309 128.799 19.0279L129.105 23.0161C129.995 22.9476 130.829 22.5528 131.424 21.7993L128.284 19.3207Z" fill="#EB537B" mask="url(#path-1-outside-1_10944_60643)"/>
</svg>
