<svg width="131" height="25" viewBox="0 0 131 25" fill="none" xmlns="http://www.w3.org/2000/svg">
<mask id="path-1-outside-1_10944_60632" maskUnits="userSpaceOnUse" x="0" y="0" width="131" height="25" fill="black">
<rect fill="white" width="131" height="25"/>
<path d="M4.33 20.56C4.00734 20.7213 3.66267 20.7433 3.296 20.626C2.944 20.494 2.68734 20.2593 2.526 19.922C2.36467 19.5847 2.34267 19.24 2.46 18.888C2.592 18.536 2.81934 18.2793 3.142 18.118C5.23934 17.106 7.102 15.8887 8.73 14.466C10.3727 13.0287 11.7073 11.474 12.734 9.802C13.3793 8.746 13.0273 8.218 11.678 8.218H5.672C5.30534 8.218 4.99 8.086 4.726 7.822C4.462 7.54333 4.33 7.22067 4.33 6.854C4.33 6.47267 4.462 6.15 4.726 5.886C4.99 5.622 5.30534 5.49 5.672 5.49H11.766C13.086 5.49 14.098 5.732 14.802 6.216C15.506 6.68533 15.8873 7.33067 15.946 8.152C16.0193 8.97333 15.748 9.91933 15.132 10.99C14.8093 11.5767 14.4207 12.1633 13.966 12.75C14.6407 13.3073 15.33 13.9233 16.034 14.598C16.7527 15.258 17.42 15.9033 18.036 16.534C18.6667 17.15 19.1947 17.678 19.62 18.118C19.8693 18.382 19.994 18.7047 19.994 19.086C19.994 19.4673 19.8547 19.79 19.576 20.054C19.312 20.318 18.9893 20.45 18.608 20.45C18.2267 20.4353 17.904 20.296 17.64 20.032C17.244 19.6213 16.7453 19.108 16.144 18.492C15.5427 17.8613 14.9047 17.216 14.23 16.556C13.5553 15.8813 12.9027 15.2727 12.272 14.73C11.1573 15.8887 9.91067 16.9813 8.532 18.008C7.168 19.02 5.76734 19.8707 4.33 20.56ZM37.286 20.318C34.5727 20.7727 32.3653 20.9633 30.664 20.89C28.9773 20.802 27.7087 20.406 26.858 19.702C26.2273 19.1887 25.7947 18.536 25.56 17.744C25.34 16.952 25.23 15.9767 25.23 14.818V5.886C25.23 5.50467 25.362 5.182 25.626 4.918C25.9047 4.654 26.2273 4.522 26.594 4.522C26.9753 4.522 27.298 4.654 27.562 4.918C27.826 5.182 27.958 5.50467 27.958 5.886V10.748C29.146 10.4547 30.378 10.1173 31.654 9.736C32.9447 9.34 34.1033 8.944 35.13 8.548C35.5113 8.40133 35.8707 8.40867 36.208 8.57C36.5453 8.71667 36.78 8.966 36.912 9.318C37.044 9.67 37.0293 10.022 36.868 10.374C36.7213 10.726 36.472 10.9607 36.12 11.078C34.8733 11.5327 33.524 11.958 32.072 12.354C30.62 12.75 29.2487 13.0947 27.958 13.388V14.818C27.958 15.6833 28.0167 16.3067 28.134 16.688C28.266 17.0547 28.4713 17.348 28.75 17.568C29.0873 17.8173 29.5713 18.0007 30.202 18.118C30.8327 18.2207 31.6833 18.2353 32.754 18.162C33.8393 18.0887 35.218 17.9127 36.89 17.634C37.2567 17.5607 37.5867 17.6413 37.88 17.876C38.188 18.096 38.3713 18.3967 38.43 18.778C38.4887 19.1447 38.408 19.4747 38.188 19.768C37.968 20.0613 37.6673 20.2447 37.286 20.318ZM39.486 10.066C38.8847 10.066 38.364 9.85333 37.924 9.428C37.4987 8.988 37.286 8.46 37.286 7.844C37.286 7.228 37.4987 6.70733 37.924 6.282C38.364 5.842 38.8847 5.622 39.486 5.622C40.102 5.622 40.6227 5.842 41.048 6.282C41.488 6.70733 41.708 7.228 41.708 7.844C41.708 8.46 41.488 8.988 41.048 9.428C40.6227 9.85333 40.102 10.066 39.486 10.066ZM39.486 8.79C39.75 8.79 39.9773 8.702 40.168 8.526C40.3587 8.33533 40.454 8.108 40.454 7.844C40.454 7.58 40.3587 7.36 40.168 7.184C39.9773 6.99333 39.75 6.898 39.486 6.898C39.222 6.898 38.9947 6.99333 38.804 7.184C38.628 7.36 38.54 7.58 38.54 7.844C38.54 8.108 38.628 8.33533 38.804 8.526C38.9947 8.702 39.222 8.79 39.486 8.79ZM46.438 14.092C46.0713 14.092 45.7487 13.96 45.47 13.696C45.206 13.4173 45.074 13.0947 45.074 12.728C45.074 12.3467 45.206 12.024 45.47 11.76C45.7487 11.496 46.0713 11.364 46.438 11.364H60.144C60.5253 11.364 60.848 11.496 61.112 11.76C61.376 12.024 61.508 12.3467 61.508 12.728C61.508 13.0947 61.376 13.4173 61.112 13.696C60.848 13.96 60.5253 14.092 60.144 14.092H46.438ZM71.078 21.968C70.7113 21.968 70.396 21.8287 70.132 21.55C69.868 21.286 69.736 20.9707 69.736 20.604V5.402C69.736 5.02067 69.868 4.70533 70.132 4.456C70.396 4.192 70.7113 4.06 71.078 4.06C71.4593 4.06 71.782 4.192 72.046 4.456C72.31 4.70533 72.442 5.02067 72.442 5.402V10.704C72.6327 10.4107 72.8967 10.22 73.234 10.132C73.5713 10.0293 73.9013 10.066 74.224 10.242C75.0893 10.6967 75.9693 11.2173 76.864 11.804C77.7733 12.376 78.558 12.9407 79.218 13.498C79.5113 13.7327 79.6727 14.048 79.702 14.444C79.746 14.8253 79.6433 15.1627 79.394 15.456C79.1593 15.7347 78.8513 15.896 78.47 15.94C78.0887 15.9693 77.7513 15.8667 77.458 15.632C77.0473 15.3093 76.5707 14.9647 76.028 14.598C75.5 14.2313 74.9647 13.8793 74.422 13.542C73.894 13.19 73.41 12.8893 72.97 12.64C72.7353 12.508 72.5593 12.3467 72.442 12.156V20.604C72.442 20.9707 72.31 21.286 72.046 21.55C71.782 21.8287 71.4593 21.968 71.078 21.968ZM79.658 9.604C79.4673 9.76533 79.2327 9.83133 78.954 9.802C78.69 9.77267 78.4773 9.648 78.316 9.428C78.1693 9.208 77.9713 8.93667 77.722 8.614C77.4727 8.29133 77.2453 8.01267 77.04 7.778C76.908 7.61667 76.8493 7.41867 76.864 7.184C76.8787 6.94933 76.9813 6.75133 77.172 6.59C77.348 6.42867 77.546 6.35533 77.766 6.37C78.0007 6.38467 78.206 6.47267 78.382 6.634C78.602 6.82467 78.8513 7.08133 79.13 7.404C79.4087 7.712 79.6433 7.99067 79.834 8.24C79.9953 8.46 80.054 8.702 80.01 8.966C79.9807 9.21533 79.8633 9.428 79.658 9.604ZM81.792 7.734C81.6013 7.92467 81.3667 8.01267 81.088 7.998C80.824 7.98333 80.6113 7.87333 80.45 7.668C80.274 7.46267 80.054 7.21333 79.79 6.92C79.526 6.62667 79.284 6.36267 79.064 6.128C78.9173 5.96667 78.8367 5.776 78.822 5.556C78.822 5.32133 78.9173 5.10867 79.108 4.918C79.2693 4.75667 79.46 4.676 79.68 4.676C79.9147 4.66133 80.1273 4.72733 80.318 4.874C80.538 5.05 80.802 5.28467 81.11 5.578C81.418 5.87133 81.6747 6.14267 81.88 6.392C82.0413 6.58267 82.1147 6.81 82.1 7.074C82.0853 7.32333 81.9827 7.54333 81.792 7.734ZM91.648 22.826C90.1667 22.826 89.1327 22.5693 88.546 22.056C87.9593 21.5573 87.666 20.7287 87.666 19.57V18.184C87.666 17.2013 87.864 16.468 88.26 15.984C87.8347 16.2187 87.4093 16.446 86.984 16.666C86.5587 16.886 86.1407 17.084 85.73 17.26C85.378 17.4067 85.0407 17.4507 84.718 17.392C84.3953 17.3333 84.146 17.1427 83.97 16.82C83.8087 16.4827 83.7867 16.1747 83.904 15.896C84.0213 15.6027 84.2413 15.39 84.564 15.258C85.4733 14.906 86.412 14.488 87.38 14.004C88.348 13.52 89.2647 12.992 90.13 12.42H85.312C85.0187 12.42 84.784 12.3247 84.608 12.134C84.4467 11.9433 84.366 11.716 84.366 11.452C84.366 11.188 84.4467 10.968 84.608 10.792C84.784 10.6013 85.0187 10.506 85.312 10.506H88.854C88.7367 10.3007 88.6267 10.1173 88.524 9.956C88.4213 9.79467 88.3553 9.68467 88.326 9.626C88.2233 9.47933 88.172 9.32533 88.172 9.164C88.172 9.00267 88.2013 8.84867 88.26 8.702C88.1427 8.54067 88.0693 8.33533 88.04 8.086C88.0253 7.76333 88.1207 7.52133 88.326 7.36C88.5313 7.184 88.7953 7.096 89.118 7.096C89.8513 7.096 90.658 7.074 91.538 7.03C92.418 6.986 93.3127 6.92733 94.222 6.854C95.1313 6.78067 96.004 6.69267 96.84 6.59C97.6907 6.48733 98.4533 6.37 99.128 6.238C99.4507 6.17933 99.7293 6.20867 99.964 6.326C100.213 6.42867 100.367 6.612 100.426 6.876C100.587 7.46267 100.426 7.85133 99.942 8.042C100.221 8.18867 100.404 8.40133 100.492 8.68C100.595 8.944 100.565 9.21533 100.404 9.494C100.345 9.61133 100.265 9.758 100.162 9.934C100.059 10.11 99.9493 10.3007 99.832 10.506H103.55C103.843 10.506 104.071 10.6013 104.232 10.792C104.408 10.968 104.496 11.188 104.496 11.452C104.496 11.716 104.408 11.9433 104.232 12.134C104.071 12.3247 103.843 12.42 103.55 12.42H98.842C99.7367 12.992 100.675 13.52 101.658 14.004C102.641 14.488 103.513 14.8767 104.276 15.17C104.599 15.302 104.819 15.5147 104.936 15.808C105.053 16.0867 105.039 16.38 104.892 16.688C104.731 17.0253 104.474 17.238 104.122 17.326C103.77 17.3993 103.425 17.3627 103.088 17.216C102.707 17.04 102.311 16.8567 101.9 16.666C101.489 16.4607 101.086 16.248 100.69 16.028C101.057 16.5267 101.24 17.2453 101.24 18.184V19.57C101.24 20.7287 100.947 21.5573 100.36 22.056C99.7733 22.5693 98.7393 22.826 97.258 22.826H91.648ZM86.06 9.054C85.708 9.054 85.4073 8.944 85.158 8.724C84.9087 8.48933 84.784 8.18133 84.784 7.8V7.36C84.784 6.216 85.07 5.402 85.642 4.918C86.2287 4.434 87.204 4.192 88.568 4.192H93.1V3.356C93.1 2.97467 93.2393 2.65933 93.518 2.41C93.7967 2.146 94.1193 2.014 94.486 2.014C94.8673 2.014 95.19 2.146 95.454 2.41C95.7327 2.65933 95.872 2.97467 95.872 3.356V4.192H100.316C101.695 4.192 102.67 4.434 103.242 4.918C103.829 5.402 104.122 6.216 104.122 7.36V7.8C104.122 8.18133 103.997 8.48933 103.748 8.724C103.499 8.944 103.198 9.054 102.846 9.054C102.494 9.054 102.193 8.95133 101.944 8.746C101.695 8.54067 101.57 8.24733 101.57 7.866V7.338C101.57 6.88333 101.467 6.57533 101.262 6.414C101.071 6.238 100.705 6.15 100.162 6.15H88.744C88.2013 6.15 87.8273 6.238 87.622 6.414C87.4167 6.57533 87.314 6.88333 87.314 7.338V7.866C87.314 8.24733 87.1893 8.54067 86.94 8.746C86.7053 8.95133 86.412 9.054 86.06 9.054ZM95.74 10.506H97.302C97.4487 10.2273 97.6247 9.89 97.83 9.494C98.0353 9.08333 98.1967 8.768 98.314 8.548C98.3287 8.504 98.3507 8.46733 98.38 8.438C98.4093 8.394 98.4313 8.35733 98.446 8.328C98.0353 8.38667 97.5953 8.44533 97.126 8.504C96.6713 8.56267 96.2093 8.62133 95.74 8.68V10.506ZM89.69 15.148C90.218 15.016 90.8707 14.95 91.648 14.95H93.276V12.508C92.8067 12.9333 92.264 13.3733 91.648 13.828C91.032 14.2827 90.3793 14.7227 89.69 15.148ZM91.89 21H93.276V19.724H90.24C90.2547 20.2667 90.372 20.6187 90.592 20.78C90.812 20.9267 91.2447 21 91.89 21ZM99.128 15.126C98.4973 14.73 97.8887 14.3193 97.302 13.894C96.73 13.454 96.2093 13.0213 95.74 12.596V14.95H97.258C97.6393 14.95 97.984 14.9647 98.292 14.994C98.6 15.0087 98.8787 15.0527 99.128 15.126ZM91.428 10.506H93.276V8.9C92.8067 8.92933 92.3447 8.95867 91.89 8.988C91.4353 9.00267 90.988 9.02467 90.548 9.054C90.7093 9.28867 90.878 9.55267 91.054 9.846C91.23 10.1393 91.3547 10.3593 91.428 10.506ZM90.24 18.008H93.276V16.776H91.89C91.2593 16.776 90.834 16.8493 90.614 16.996C90.394 17.1427 90.2693 17.48 90.24 18.008ZM95.74 21H97.016C97.6613 21 98.094 20.9267 98.314 20.78C98.534 20.6187 98.6513 20.2667 98.666 19.724H95.74V21ZM95.74 18.008H98.666C98.6513 17.48 98.534 17.1427 98.314 16.996C98.094 16.8493 97.6613 16.776 97.016 16.776H95.74V18.008ZM108.5 22.21C108.221 22.21 107.979 22.1 107.774 21.88C107.569 21.6747 107.466 21.4327 107.466 21.154C107.466 20.8753 107.569 20.6333 107.774 20.428C107.979 20.2227 108.221 20.12 108.5 20.12H111.778V14.818C111.778 13.9233 111.903 13.2267 112.152 12.728C112.401 12.2293 112.827 11.8773 113.428 11.672C114.029 11.4667 114.843 11.364 115.87 11.364H116.464V8.262C115.833 8.834 115.107 9.41333 114.286 10C113.479 10.572 112.643 11.1147 111.778 11.628C110.927 12.1267 110.121 12.5667 109.358 12.948C109.006 13.1093 108.639 13.1533 108.258 13.08C107.891 12.992 107.62 12.7647 107.444 12.398C107.297 12.0753 107.275 11.76 107.378 11.452C107.495 11.1293 107.715 10.8947 108.038 10.748C108.727 10.4253 109.468 10.0513 110.26 9.626C111.052 9.186 111.829 8.724 112.592 8.24C113.369 7.756 114.059 7.28667 114.66 6.832H108.654C108.375 6.832 108.133 6.72933 107.928 6.524C107.737 6.304 107.642 6.05467 107.642 5.776C107.642 5.48267 107.737 5.24067 107.928 5.05C108.133 4.84467 108.375 4.742 108.654 4.742H116.464V3.51C116.464 3.12867 116.589 2.82067 116.838 2.586C117.087 2.35133 117.395 2.234 117.762 2.234C118.114 2.234 118.415 2.35133 118.664 2.586C118.928 2.82067 119.06 3.12867 119.06 3.51V4.742H126.848C127.141 4.742 127.383 4.84467 127.574 5.05C127.779 5.24067 127.882 5.48267 127.882 5.776C127.882 6.05467 127.779 6.304 127.574 6.524C127.383 6.72933 127.141 6.832 126.848 6.832H120.908C121.524 7.30133 122.213 7.778 122.976 8.262C123.739 8.73133 124.516 9.17867 125.308 9.604C126.115 10.0293 126.863 10.4033 127.552 10.726C127.875 10.858 128.095 11.0927 128.212 11.43C128.329 11.7527 128.307 12.0753 128.146 12.398C127.97 12.7647 127.691 12.992 127.31 13.08C126.943 13.168 126.584 13.1313 126.232 12.97C125.455 12.6033 124.633 12.1633 123.768 11.65C122.903 11.122 122.059 10.5573 121.238 9.956C120.417 9.35467 119.691 8.768 119.06 8.196V11.364H119.654C120.695 11.364 121.509 11.4667 122.096 11.672C122.683 11.8773 123.101 12.2293 123.35 12.728C123.599 13.2267 123.724 13.9233 123.724 14.818V20.12H127.002C127.295 20.12 127.537 20.2227 127.728 20.428C127.919 20.6333 128.014 20.8753 128.014 21.154C128.014 21.4327 127.919 21.6747 127.728 21.88C127.537 22.1 127.295 22.21 127.002 22.21H108.5ZM114.352 20.12H121.15V19.042H114.352V20.12ZM114.352 17.26H121.15V16.226H114.352V17.26ZM114.374 14.444H121.128C121.084 14.0333 120.952 13.762 120.732 13.63C120.512 13.4833 120.153 13.41 119.654 13.41H115.87C115.371 13.41 115.005 13.4833 114.77 13.63C114.55 13.762 114.418 14.0333 114.374 14.444Z"/>
</mask>
<path d="M4.33 20.56C4.00734 20.7213 3.66267 20.7433 3.296 20.626C2.944 20.494 2.68734 20.2593 2.526 19.922C2.36467 19.5847 2.34267 19.24 2.46 18.888C2.592 18.536 2.81934 18.2793 3.142 18.118C5.23934 17.106 7.102 15.8887 8.73 14.466C10.3727 13.0287 11.7073 11.474 12.734 9.802C13.3793 8.746 13.0273 8.218 11.678 8.218H5.672C5.30534 8.218 4.99 8.086 4.726 7.822C4.462 7.54333 4.33 7.22067 4.33 6.854C4.33 6.47267 4.462 6.15 4.726 5.886C4.99 5.622 5.30534 5.49 5.672 5.49H11.766C13.086 5.49 14.098 5.732 14.802 6.216C15.506 6.68533 15.8873 7.33067 15.946 8.152C16.0193 8.97333 15.748 9.91933 15.132 10.99C14.8093 11.5767 14.4207 12.1633 13.966 12.75C14.6407 13.3073 15.33 13.9233 16.034 14.598C16.7527 15.258 17.42 15.9033 18.036 16.534C18.6667 17.15 19.1947 17.678 19.62 18.118C19.8693 18.382 19.994 18.7047 19.994 19.086C19.994 19.4673 19.8547 19.79 19.576 20.054C19.312 20.318 18.9893 20.45 18.608 20.45C18.2267 20.4353 17.904 20.296 17.64 20.032C17.244 19.6213 16.7453 19.108 16.144 18.492C15.5427 17.8613 14.9047 17.216 14.23 16.556C13.5553 15.8813 12.9027 15.2727 12.272 14.73C11.1573 15.8887 9.91067 16.9813 8.532 18.008C7.168 19.02 5.76734 19.8707 4.33 20.56ZM37.286 20.318C34.5727 20.7727 32.3653 20.9633 30.664 20.89C28.9773 20.802 27.7087 20.406 26.858 19.702C26.2273 19.1887 25.7947 18.536 25.56 17.744C25.34 16.952 25.23 15.9767 25.23 14.818V5.886C25.23 5.50467 25.362 5.182 25.626 4.918C25.9047 4.654 26.2273 4.522 26.594 4.522C26.9753 4.522 27.298 4.654 27.562 4.918C27.826 5.182 27.958 5.50467 27.958 5.886V10.748C29.146 10.4547 30.378 10.1173 31.654 9.736C32.9447 9.34 34.1033 8.944 35.13 8.548C35.5113 8.40133 35.8707 8.40867 36.208 8.57C36.5453 8.71667 36.78 8.966 36.912 9.318C37.044 9.67 37.0293 10.022 36.868 10.374C36.7213 10.726 36.472 10.9607 36.12 11.078C34.8733 11.5327 33.524 11.958 32.072 12.354C30.62 12.75 29.2487 13.0947 27.958 13.388V14.818C27.958 15.6833 28.0167 16.3067 28.134 16.688C28.266 17.0547 28.4713 17.348 28.75 17.568C29.0873 17.8173 29.5713 18.0007 30.202 18.118C30.8327 18.2207 31.6833 18.2353 32.754 18.162C33.8393 18.0887 35.218 17.9127 36.89 17.634C37.2567 17.5607 37.5867 17.6413 37.88 17.876C38.188 18.096 38.3713 18.3967 38.43 18.778C38.4887 19.1447 38.408 19.4747 38.188 19.768C37.968 20.0613 37.6673 20.2447 37.286 20.318ZM39.486 10.066C38.8847 10.066 38.364 9.85333 37.924 9.428C37.4987 8.988 37.286 8.46 37.286 7.844C37.286 7.228 37.4987 6.70733 37.924 6.282C38.364 5.842 38.8847 5.622 39.486 5.622C40.102 5.622 40.6227 5.842 41.048 6.282C41.488 6.70733 41.708 7.228 41.708 7.844C41.708 8.46 41.488 8.988 41.048 9.428C40.6227 9.85333 40.102 10.066 39.486 10.066ZM39.486 8.79C39.75 8.79 39.9773 8.702 40.168 8.526C40.3587 8.33533 40.454 8.108 40.454 7.844C40.454 7.58 40.3587 7.36 40.168 7.184C39.9773 6.99333 39.75 6.898 39.486 6.898C39.222 6.898 38.9947 6.99333 38.804 7.184C38.628 7.36 38.54 7.58 38.54 7.844C38.54 8.108 38.628 8.33533 38.804 8.526C38.9947 8.702 39.222 8.79 39.486 8.79ZM46.438 14.092C46.0713 14.092 45.7487 13.96 45.47 13.696C45.206 13.4173 45.074 13.0947 45.074 12.728C45.074 12.3467 45.206 12.024 45.47 11.76C45.7487 11.496 46.0713 11.364 46.438 11.364H60.144C60.5253 11.364 60.848 11.496 61.112 11.76C61.376 12.024 61.508 12.3467 61.508 12.728C61.508 13.0947 61.376 13.4173 61.112 13.696C60.848 13.96 60.5253 14.092 60.144 14.092H46.438ZM71.078 21.968C70.7113 21.968 70.396 21.8287 70.132 21.55C69.868 21.286 69.736 20.9707 69.736 20.604V5.402C69.736 5.02067 69.868 4.70533 70.132 4.456C70.396 4.192 70.7113 4.06 71.078 4.06C71.4593 4.06 71.782 4.192 72.046 4.456C72.31 4.70533 72.442 5.02067 72.442 5.402V10.704C72.6327 10.4107 72.8967 10.22 73.234 10.132C73.5713 10.0293 73.9013 10.066 74.224 10.242C75.0893 10.6967 75.9693 11.2173 76.864 11.804C77.7733 12.376 78.558 12.9407 79.218 13.498C79.5113 13.7327 79.6727 14.048 79.702 14.444C79.746 14.8253 79.6433 15.1627 79.394 15.456C79.1593 15.7347 78.8513 15.896 78.47 15.94C78.0887 15.9693 77.7513 15.8667 77.458 15.632C77.0473 15.3093 76.5707 14.9647 76.028 14.598C75.5 14.2313 74.9647 13.8793 74.422 13.542C73.894 13.19 73.41 12.8893 72.97 12.64C72.7353 12.508 72.5593 12.3467 72.442 12.156V20.604C72.442 20.9707 72.31 21.286 72.046 21.55C71.782 21.8287 71.4593 21.968 71.078 21.968ZM79.658 9.604C79.4673 9.76533 79.2327 9.83133 78.954 9.802C78.69 9.77267 78.4773 9.648 78.316 9.428C78.1693 9.208 77.9713 8.93667 77.722 8.614C77.4727 8.29133 77.2453 8.01267 77.04 7.778C76.908 7.61667 76.8493 7.41867 76.864 7.184C76.8787 6.94933 76.9813 6.75133 77.172 6.59C77.348 6.42867 77.546 6.35533 77.766 6.37C78.0007 6.38467 78.206 6.47267 78.382 6.634C78.602 6.82467 78.8513 7.08133 79.13 7.404C79.4087 7.712 79.6433 7.99067 79.834 8.24C79.9953 8.46 80.054 8.702 80.01 8.966C79.9807 9.21533 79.8633 9.428 79.658 9.604ZM81.792 7.734C81.6013 7.92467 81.3667 8.01267 81.088 7.998C80.824 7.98333 80.6113 7.87333 80.45 7.668C80.274 7.46267 80.054 7.21333 79.79 6.92C79.526 6.62667 79.284 6.36267 79.064 6.128C78.9173 5.96667 78.8367 5.776 78.822 5.556C78.822 5.32133 78.9173 5.10867 79.108 4.918C79.2693 4.75667 79.46 4.676 79.68 4.676C79.9147 4.66133 80.1273 4.72733 80.318 4.874C80.538 5.05 80.802 5.28467 81.11 5.578C81.418 5.87133 81.6747 6.14267 81.88 6.392C82.0413 6.58267 82.1147 6.81 82.1 7.074C82.0853 7.32333 81.9827 7.54333 81.792 7.734ZM91.648 22.826C90.1667 22.826 89.1327 22.5693 88.546 22.056C87.9593 21.5573 87.666 20.7287 87.666 19.57V18.184C87.666 17.2013 87.864 16.468 88.26 15.984C87.8347 16.2187 87.4093 16.446 86.984 16.666C86.5587 16.886 86.1407 17.084 85.73 17.26C85.378 17.4067 85.0407 17.4507 84.718 17.392C84.3953 17.3333 84.146 17.1427 83.97 16.82C83.8087 16.4827 83.7867 16.1747 83.904 15.896C84.0213 15.6027 84.2413 15.39 84.564 15.258C85.4733 14.906 86.412 14.488 87.38 14.004C88.348 13.52 89.2647 12.992 90.13 12.42H85.312C85.0187 12.42 84.784 12.3247 84.608 12.134C84.4467 11.9433 84.366 11.716 84.366 11.452C84.366 11.188 84.4467 10.968 84.608 10.792C84.784 10.6013 85.0187 10.506 85.312 10.506H88.854C88.7367 10.3007 88.6267 10.1173 88.524 9.956C88.4213 9.79467 88.3553 9.68467 88.326 9.626C88.2233 9.47933 88.172 9.32533 88.172 9.164C88.172 9.00267 88.2013 8.84867 88.26 8.702C88.1427 8.54067 88.0693 8.33533 88.04 8.086C88.0253 7.76333 88.1207 7.52133 88.326 7.36C88.5313 7.184 88.7953 7.096 89.118 7.096C89.8513 7.096 90.658 7.074 91.538 7.03C92.418 6.986 93.3127 6.92733 94.222 6.854C95.1313 6.78067 96.004 6.69267 96.84 6.59C97.6907 6.48733 98.4533 6.37 99.128 6.238C99.4507 6.17933 99.7293 6.20867 99.964 6.326C100.213 6.42867 100.367 6.612 100.426 6.876C100.587 7.46267 100.426 7.85133 99.942 8.042C100.221 8.18867 100.404 8.40133 100.492 8.68C100.595 8.944 100.565 9.21533 100.404 9.494C100.345 9.61133 100.265 9.758 100.162 9.934C100.059 10.11 99.9493 10.3007 99.832 10.506H103.55C103.843 10.506 104.071 10.6013 104.232 10.792C104.408 10.968 104.496 11.188 104.496 11.452C104.496 11.716 104.408 11.9433 104.232 12.134C104.071 12.3247 103.843 12.42 103.55 12.42H98.842C99.7367 12.992 100.675 13.52 101.658 14.004C102.641 14.488 103.513 14.8767 104.276 15.17C104.599 15.302 104.819 15.5147 104.936 15.808C105.053 16.0867 105.039 16.38 104.892 16.688C104.731 17.0253 104.474 17.238 104.122 17.326C103.77 17.3993 103.425 17.3627 103.088 17.216C102.707 17.04 102.311 16.8567 101.9 16.666C101.489 16.4607 101.086 16.248 100.69 16.028C101.057 16.5267 101.24 17.2453 101.24 18.184V19.57C101.24 20.7287 100.947 21.5573 100.36 22.056C99.7733 22.5693 98.7393 22.826 97.258 22.826H91.648ZM86.06 9.054C85.708 9.054 85.4073 8.944 85.158 8.724C84.9087 8.48933 84.784 8.18133 84.784 7.8V7.36C84.784 6.216 85.07 5.402 85.642 4.918C86.2287 4.434 87.204 4.192 88.568 4.192H93.1V3.356C93.1 2.97467 93.2393 2.65933 93.518 2.41C93.7967 2.146 94.1193 2.014 94.486 2.014C94.8673 2.014 95.19 2.146 95.454 2.41C95.7327 2.65933 95.872 2.97467 95.872 3.356V4.192H100.316C101.695 4.192 102.67 4.434 103.242 4.918C103.829 5.402 104.122 6.216 104.122 7.36V7.8C104.122 8.18133 103.997 8.48933 103.748 8.724C103.499 8.944 103.198 9.054 102.846 9.054C102.494 9.054 102.193 8.95133 101.944 8.746C101.695 8.54067 101.57 8.24733 101.57 7.866V7.338C101.57 6.88333 101.467 6.57533 101.262 6.414C101.071 6.238 100.705 6.15 100.162 6.15H88.744C88.2013 6.15 87.8273 6.238 87.622 6.414C87.4167 6.57533 87.314 6.88333 87.314 7.338V7.866C87.314 8.24733 87.1893 8.54067 86.94 8.746C86.7053 8.95133 86.412 9.054 86.06 9.054ZM95.74 10.506H97.302C97.4487 10.2273 97.6247 9.89 97.83 9.494C98.0353 9.08333 98.1967 8.768 98.314 8.548C98.3287 8.504 98.3507 8.46733 98.38 8.438C98.4093 8.394 98.4313 8.35733 98.446 8.328C98.0353 8.38667 97.5953 8.44533 97.126 8.504C96.6713 8.56267 96.2093 8.62133 95.74 8.68V10.506ZM89.69 15.148C90.218 15.016 90.8707 14.95 91.648 14.95H93.276V12.508C92.8067 12.9333 92.264 13.3733 91.648 13.828C91.032 14.2827 90.3793 14.7227 89.69 15.148ZM91.89 21H93.276V19.724H90.24C90.2547 20.2667 90.372 20.6187 90.592 20.78C90.812 20.9267 91.2447 21 91.89 21ZM99.128 15.126C98.4973 14.73 97.8887 14.3193 97.302 13.894C96.73 13.454 96.2093 13.0213 95.74 12.596V14.95H97.258C97.6393 14.95 97.984 14.9647 98.292 14.994C98.6 15.0087 98.8787 15.0527 99.128 15.126ZM91.428 10.506H93.276V8.9C92.8067 8.92933 92.3447 8.95867 91.89 8.988C91.4353 9.00267 90.988 9.02467 90.548 9.054C90.7093 9.28867 90.878 9.55267 91.054 9.846C91.23 10.1393 91.3547 10.3593 91.428 10.506ZM90.24 18.008H93.276V16.776H91.89C91.2593 16.776 90.834 16.8493 90.614 16.996C90.394 17.1427 90.2693 17.48 90.24 18.008ZM95.74 21H97.016C97.6613 21 98.094 20.9267 98.314 20.78C98.534 20.6187 98.6513 20.2667 98.666 19.724H95.74V21ZM95.74 18.008H98.666C98.6513 17.48 98.534 17.1427 98.314 16.996C98.094 16.8493 97.6613 16.776 97.016 16.776H95.74V18.008ZM108.5 22.21C108.221 22.21 107.979 22.1 107.774 21.88C107.569 21.6747 107.466 21.4327 107.466 21.154C107.466 20.8753 107.569 20.6333 107.774 20.428C107.979 20.2227 108.221 20.12 108.5 20.12H111.778V14.818C111.778 13.9233 111.903 13.2267 112.152 12.728C112.401 12.2293 112.827 11.8773 113.428 11.672C114.029 11.4667 114.843 11.364 115.87 11.364H116.464V8.262C115.833 8.834 115.107 9.41333 114.286 10C113.479 10.572 112.643 11.1147 111.778 11.628C110.927 12.1267 110.121 12.5667 109.358 12.948C109.006 13.1093 108.639 13.1533 108.258 13.08C107.891 12.992 107.62 12.7647 107.444 12.398C107.297 12.0753 107.275 11.76 107.378 11.452C107.495 11.1293 107.715 10.8947 108.038 10.748C108.727 10.4253 109.468 10.0513 110.26 9.626C111.052 9.186 111.829 8.724 112.592 8.24C113.369 7.756 114.059 7.28667 114.66 6.832H108.654C108.375 6.832 108.133 6.72933 107.928 6.524C107.737 6.304 107.642 6.05467 107.642 5.776C107.642 5.48267 107.737 5.24067 107.928 5.05C108.133 4.84467 108.375 4.742 108.654 4.742H116.464V3.51C116.464 3.12867 116.589 2.82067 116.838 2.586C117.087 2.35133 117.395 2.234 117.762 2.234C118.114 2.234 118.415 2.35133 118.664 2.586C118.928 2.82067 119.06 3.12867 119.06 3.51V4.742H126.848C127.141 4.742 127.383 4.84467 127.574 5.05C127.779 5.24067 127.882 5.48267 127.882 5.776C127.882 6.05467 127.779 6.304 127.574 6.524C127.383 6.72933 127.141 6.832 126.848 6.832H120.908C121.524 7.30133 122.213 7.778 122.976 8.262C123.739 8.73133 124.516 9.17867 125.308 9.604C126.115 10.0293 126.863 10.4033 127.552 10.726C127.875 10.858 128.095 11.0927 128.212 11.43C128.329 11.7527 128.307 12.0753 128.146 12.398C127.97 12.7647 127.691 12.992 127.31 13.08C126.943 13.168 126.584 13.1313 126.232 12.97C125.455 12.6033 124.633 12.1633 123.768 11.65C122.903 11.122 122.059 10.5573 121.238 9.956C120.417 9.35467 119.691 8.768 119.06 8.196V11.364H119.654C120.695 11.364 121.509 11.4667 122.096 11.672C122.683 11.8773 123.101 12.2293 123.35 12.728C123.599 13.2267 123.724 13.9233 123.724 14.818V20.12H127.002C127.295 20.12 127.537 20.2227 127.728 20.428C127.919 20.6333 128.014 20.8753 128.014 21.154C128.014 21.4327 127.919 21.6747 127.728 21.88C127.537 22.1 127.295 22.21 127.002 22.21H108.5ZM114.352 20.12H121.15V19.042H114.352V20.12ZM114.352 17.26H121.15V16.226H114.352V17.26ZM114.374 14.444H121.128C121.084 14.0333 120.952 13.762 120.732 13.63C120.512 13.4833 120.153 13.41 119.654 13.41H115.87C115.371 13.41 115.005 13.4833 114.77 13.63C114.55 13.762 114.418 14.0333 114.374 14.444Z" fill="white"/>
<path d="M4.33 20.56L3.46514 18.7567L3.4503 18.7638L3.43558 18.7711L4.33 20.56ZM3.296 20.626L2.59376 22.4987L2.63971 22.5159L2.68645 22.5308L3.296 20.626ZM2.46 18.888L0.587344 18.1858L0.574344 18.2204L0.562635 18.2555L2.46 18.888ZM3.142 18.118L2.27286 16.3167L2.26017 16.3228L2.24758 16.3291L3.142 18.118ZM8.73 14.466L10.0461 15.972L10.047 15.9712L8.73 14.466ZM12.734 9.802L14.4383 10.8485L14.4406 10.8449L12.734 9.802ZM4.726 7.822L3.2741 9.19749L3.29268 9.21711L3.31179 9.23621L4.726 7.822ZM14.802 6.216L13.6689 7.86408L13.6807 7.87218L13.6926 7.8801L14.802 6.216ZM15.946 8.152L13.9511 8.29449L13.9524 8.31219L13.9539 8.32986L15.946 8.152ZM15.132 10.99L13.3984 9.99261L13.3888 10.0093L13.3796 10.0262L15.132 10.99ZM13.966 12.75L12.3852 11.5249L11.1976 13.0572L12.6922 14.2919L13.966 12.75ZM16.034 14.598L14.6502 16.042L14.6655 16.0567L14.6812 16.0711L16.034 14.598ZM18.036 16.534L16.6053 17.9315L16.6217 17.9483L16.6385 17.9648L18.036 16.534ZM19.62 18.118L21.074 16.7448L21.0661 16.7363L21.058 16.728L19.62 18.118ZM19.576 20.054L18.2005 18.6021L18.1809 18.6207L18.1618 18.6398L19.576 20.054ZM18.608 20.45L18.5311 22.4485L18.5696 22.45H18.608V20.45ZM17.64 20.032L16.2003 21.4203L16.2129 21.4334L16.2258 21.4462L17.64 20.032ZM16.144 18.492L14.6965 19.8722L14.7046 19.8807L14.7129 19.8891L16.144 18.492ZM14.23 16.556L12.8158 17.9702L12.8236 17.978L12.8314 17.9857L14.23 16.556ZM12.272 14.73L13.5765 13.214L12.1424 11.98L10.8307 13.3434L12.272 14.73ZM8.532 18.008L9.7237 19.6142L9.72653 19.6121L8.532 18.008ZM3.43558 18.7711C3.50263 18.7376 3.59563 18.7084 3.7021 18.7016C3.80595 18.6949 3.87828 18.7124 3.90555 18.7212L2.68645 22.5308C3.5135 22.7955 4.40128 22.7604 5.22443 22.3489L3.43558 18.7711ZM3.99825 18.7533C4.04185 18.7697 4.11412 18.8064 4.18904 18.8749C4.26411 18.9436 4.30854 19.0137 4.33027 19.0591L0.721734 20.7849C1.10744 21.5914 1.76063 22.1862 2.59376 22.4987L3.99825 18.7533ZM4.33027 19.0591C4.35074 19.1019 4.37785 19.1798 4.38444 19.2831C4.39105 19.3867 4.37411 19.4702 4.35737 19.5205L0.562635 18.2555C0.279985 19.1035 0.33873 19.9841 0.721734 20.7849L4.33027 19.0591ZM4.33266 19.5902C4.32102 19.6213 4.29025 19.6858 4.22668 19.7576C4.16211 19.8305 4.09164 19.8792 4.03643 19.9069L2.24758 16.3291C1.45286 16.7265 0.888374 17.383 0.587344 18.1858L4.33266 19.5902ZM4.01115 19.9193C6.25763 18.8353 8.27302 17.5214 10.0461 15.972L7.41395 12.96C5.93098 14.2559 4.22104 15.3767 2.27286 16.3167L4.01115 19.9193ZM10.047 15.9712C11.8243 14.416 13.2953 12.7101 14.4383 10.8485L11.0297 8.75547C10.1194 10.2379 8.92105 11.6413 7.41299 12.9608L10.047 15.9712ZM14.4406 10.8449C14.6682 10.4724 14.8992 10.0045 14.9976 9.47318C15.1023 8.90755 15.0671 8.17808 14.6181 7.5046C14.19 6.86239 13.5727 6.55487 13.0958 6.40687C12.6194 6.25903 12.1241 6.218 11.678 6.218V10.218C11.9066 10.218 11.9612 10.243 11.9102 10.2271C11.8586 10.2111 11.542 10.1016 11.2899 9.7234C11.0169 9.31392 11.033 8.91445 11.0644 8.74482C11.0895 8.60948 11.1224 8.60365 11.0274 8.7591L14.4406 10.8449ZM11.678 6.218H5.672V10.218H11.678V6.218ZM5.672 6.218C5.73436 6.218 5.8285 6.23047 5.93278 6.27412C6.03634 6.31747 6.10532 6.37289 6.14022 6.40779L3.31179 9.23621C3.94319 9.86761 4.76415 10.218 5.672 10.218V6.218ZM6.17791 6.44651C6.19886 6.46862 6.24339 6.52401 6.2801 6.61373C6.31747 6.70508 6.33 6.79129 6.33 6.854H2.33C2.33 7.75831 2.67639 8.56657 3.2741 9.19749L6.17791 6.44651ZM6.33 6.854C6.33 6.89855 6.32129 6.98257 6.2801 7.08326C6.23856 7.1848 6.18254 7.25789 6.14022 7.30021L3.31179 4.47179C2.66382 5.11975 2.33 5.95494 2.33 6.854H6.33ZM6.14022 7.30021C6.10532 7.33511 6.03634 7.39053 5.93278 7.43388C5.8285 7.47753 5.73436 7.49 5.672 7.49V3.49C4.76415 3.49 3.94319 3.84039 3.31179 4.47179L6.14022 7.30021ZM5.672 7.49H11.766V3.49H5.672V7.49ZM11.766 7.49C12.8866 7.49 13.4347 7.70306 13.6689 7.86408L15.9351 4.56791C14.7613 3.76094 13.2854 3.49 11.766 3.49V7.49ZM13.6926 7.8801C13.8986 8.01745 13.9379 8.10957 13.9511 8.29449L17.9409 8.0095C17.8368 6.55176 17.1134 5.35321 15.9114 4.5519L13.6926 7.8801ZM13.9539 8.32986C13.9767 8.58481 13.9059 9.11061 13.3984 9.99261L16.8656 11.9874C17.5901 10.7281 18.062 9.36186 17.9381 7.97414L13.9539 8.32986ZM13.3796 10.0262C13.1123 10.5122 12.7827 11.0119 12.3852 11.5249L15.5468 13.9751C16.0586 13.3147 16.5064 12.6412 16.8844 11.9538L13.3796 10.0262ZM12.6922 14.2919C13.325 14.8147 13.9777 15.3975 14.6502 16.042L17.4178 13.154C16.6823 12.4491 15.9563 11.8 15.2398 11.2081L12.6922 14.2919ZM14.6812 16.0711C15.376 16.7091 16.017 17.3293 16.6053 17.9315L19.4668 15.1365C18.823 14.4774 18.1294 13.8069 17.3868 13.1249L14.6812 16.0711ZM16.6385 17.9648C17.2609 18.5726 17.7744 19.0863 18.182 19.508L21.058 16.728C20.615 16.2697 20.0725 15.7274 19.4335 15.1032L16.6385 17.9648ZM18.166 19.4912C18.1214 19.4441 18.0707 19.3715 18.0349 19.2788C17.9997 19.1878 17.994 19.1166 17.994 19.086H21.994C21.994 18.2222 21.6929 17.4 21.074 16.7448L18.166 19.4912ZM17.994 19.086C17.994 19.0274 18.006 18.9308 18.0534 18.8211C18.1006 18.7118 18.1615 18.639 18.2005 18.6021L20.9515 21.5059C21.6258 20.8671 21.994 20.0206 21.994 19.086H17.994ZM18.1618 18.6398C18.2041 18.5975 18.2772 18.5414 18.3787 18.4999C18.4794 18.4587 18.5635 18.45 18.608 18.45V22.45C19.5071 22.45 20.3423 22.1162 20.9902 21.4682L18.1618 18.6398ZM18.6849 18.4515C18.7196 18.4528 18.7889 18.4621 18.8729 18.4984C18.9576 18.535 19.0189 18.5824 19.0542 18.6178L16.2258 21.4462C16.8547 22.0751 17.6587 22.415 18.5311 22.4485L18.6849 18.4515ZM19.0797 18.6437C18.6798 18.229 18.1781 17.7125 17.5752 17.0949L14.7129 19.8891C15.3126 20.5035 15.8082 21.0136 16.2003 21.4203L19.0797 18.6437ZM17.5915 17.1118C16.9729 16.4631 16.3185 15.8012 15.6286 15.1263L12.8314 17.9857C13.4908 18.6308 14.1125 19.2596 14.6965 19.8722L17.5915 17.1118ZM15.6442 15.1418C14.9393 14.4368 14.25 13.7935 13.5765 13.214L10.9675 16.246C11.5554 16.7518 12.1714 17.3258 12.8158 17.9702L15.6442 15.1418ZM10.8307 13.3434C9.7972 14.4177 8.63406 15.4384 7.33747 16.4039L9.72653 19.6121C11.1873 18.5243 12.5175 17.3596 13.7133 16.1166L10.8307 13.3434ZM7.34031 16.4018C6.07208 17.3427 4.78027 18.1259 3.46514 18.7567L5.19487 22.3633C6.7544 21.6154 8.26393 20.6973 9.7237 19.6142L7.34031 16.4018ZM37.286 20.318L37.6165 22.2905L37.6402 22.2865L37.6637 22.282L37.286 20.318ZM30.664 20.89L30.5598 22.8873L30.5688 22.8878L30.5779 22.8881L30.664 20.89ZM26.858 19.702L28.1331 18.1612L28.1269 18.156L28.1205 18.1509L26.858 19.702ZM25.56 17.744L23.633 18.2793L23.6375 18.2958L23.6424 18.3122L25.56 17.744ZM25.626 4.918L24.2505 3.46609L24.2309 3.48468L24.2118 3.50378L25.626 4.918ZM27.562 4.918L26.1478 6.33221L26.1478 6.33221L27.562 4.918ZM27.958 10.748H25.958V13.3019L28.4374 12.6897L27.958 10.748ZM31.654 9.736L32.2267 11.6523L32.2337 11.6502L32.2406 11.648L31.654 9.736ZM35.13 8.548L34.412 6.68131L34.4103 6.682L35.13 8.548ZM36.208 8.57L35.3451 10.3743L35.3776 10.3898L35.4106 10.4041L36.208 8.57ZM36.868 10.374L35.0499 9.54069L35.0353 9.57248L35.0219 9.60477L36.868 10.374ZM36.12 11.078L35.4875 9.18063L35.461 9.18948L35.4347 9.19906L36.12 11.078ZM32.072 12.354L32.5982 14.2835L32.072 12.354ZM27.958 13.388L27.5148 11.4377L25.958 11.7915V13.388H27.958ZM28.134 16.688L26.2224 17.2762L26.2363 17.3212L26.2522 17.3654L28.134 16.688ZM28.75 17.568L27.5107 19.1378L27.5357 19.1575L27.5612 19.1764L28.75 17.568ZM30.202 18.118L29.8362 20.0843L29.8584 20.0884L29.8807 20.092L30.202 18.118ZM32.754 18.162L32.6192 16.1665L32.6173 16.1667L32.754 18.162ZM36.89 17.634L37.2188 19.6068L37.2506 19.6015L37.2822 19.5952L36.89 17.634ZM37.88 17.876L36.6306 19.4377L36.6732 19.4718L36.7175 19.5035L37.88 17.876ZM38.43 18.778L36.4532 19.0821L36.4551 19.094L38.43 18.778ZM38.188 19.768L36.588 18.568L36.588 18.568L38.188 19.768ZM37.924 9.428L36.486 10.818L36.5096 10.8424L36.534 10.866L37.924 9.428ZM37.924 6.282L39.3382 7.69621V7.69621L37.924 6.282ZM41.048 6.282L39.61 7.67204L39.6336 7.69642L39.658 7.71998L41.048 6.282ZM41.048 9.428L42.4622 10.8422L42.4622 10.8422L41.048 9.428ZM40.168 8.526L41.5246 9.99561L41.5539 9.96849L41.5822 9.94021L40.168 8.526ZM40.168 7.184L38.7538 8.59821L38.7821 8.62649L38.8114 8.65361L40.168 7.184ZM38.804 7.184L40.2182 8.59822L40.2182 8.59821L38.804 7.184ZM38.804 8.526L37.3344 9.88256L37.3887 9.94134L37.4474 9.9956L38.804 8.526ZM36.9555 18.3455C34.3068 18.7893 32.2537 18.9567 30.7501 18.8919L30.5779 22.8881C32.477 22.97 34.8386 22.756 37.6165 22.2905L36.9555 18.3455ZM30.7682 18.8927C29.2966 18.8159 28.5187 18.4803 28.1331 18.1612L25.5829 21.2428C26.8986 22.3317 28.6581 22.7881 30.5598 22.8873L30.7682 18.8927ZM28.1205 18.1509C27.8074 17.896 27.5998 17.5882 27.4776 17.1758L23.6424 18.3122C23.9896 19.4838 24.6472 20.4813 25.5955 21.2531L28.1205 18.1509ZM27.487 17.2087C27.3307 16.646 27.23 15.8634 27.23 14.818H23.23C23.23 16.0899 23.3493 17.258 23.633 18.2793L27.487 17.2087ZM27.23 14.818V5.886H23.23V14.818H27.23ZM27.23 5.886C27.23 5.93054 27.2213 6.01457 27.1801 6.11527C27.1386 6.2168 27.0825 6.28989 27.0402 6.33222L24.2118 3.50378C23.5638 4.15175 23.23 4.98694 23.23 5.886H27.23ZM27.0015 6.36991C26.9794 6.39086 26.924 6.43539 26.8343 6.47209C26.7429 6.50946 26.6567 6.522 26.594 6.522V2.522C25.6897 2.522 24.8814 2.86839 24.2505 3.46609L27.0015 6.36991ZM26.594 6.522C26.5495 6.522 26.4654 6.51329 26.3647 6.47209C26.2632 6.43056 26.1901 6.37453 26.1478 6.33221L28.9762 3.50379C28.3283 2.85582 27.4931 2.522 26.594 2.522V6.522ZM26.1478 6.33221C26.1055 6.28989 26.0494 6.2168 26.0079 6.11526C25.9667 6.01457 25.958 5.93054 25.958 5.886H29.958C29.958 4.98694 29.6242 4.15175 28.9762 3.50379L26.1478 6.33221ZM25.958 5.886V10.748H29.958V5.886H25.958ZM28.4374 12.6897C29.6593 12.388 30.9225 12.042 32.2267 11.6523L31.0813 7.81974C29.8335 8.19265 28.6327 8.52134 27.4786 8.80631L28.4374 12.6897ZM32.2406 11.648C33.5666 11.2412 34.7708 10.8302 35.8497 10.414L34.4103 6.682C33.4359 7.05783 32.3228 7.43879 31.0674 7.82397L32.2406 11.648ZM35.848 10.4147C35.8296 10.4218 35.7572 10.4454 35.6447 10.4431C35.528 10.4407 35.4228 10.4114 35.3451 10.3743L37.0709 6.76573C36.1888 6.34384 35.2537 6.35758 34.412 6.68131L35.848 10.4147ZM35.4106 10.4041C35.3491 10.3774 35.2627 10.325 35.1806 10.2377C35.0992 10.1512 35.0573 10.068 35.0393 10.0202L38.7847 8.61575C38.4671 7.76896 37.8519 7.10389 37.0055 6.73586L35.4106 10.4041ZM35.0393 10.0202C35.0177 9.96251 34.9972 9.87195 35.0017 9.76274C35.0062 9.65481 35.0331 9.57719 35.0499 9.54069L38.6861 11.2073C39.0619 10.3874 39.1099 9.48295 38.7847 8.61575L35.0393 10.0202ZM35.0219 9.60477C35.0445 9.5505 35.0976 9.45419 35.2003 9.3576C35.304 9.25994 35.4117 9.2059 35.4875 9.18063L36.7525 12.9754C37.6703 12.6694 38.3521 12.0121 38.7142 11.1432L35.0219 9.60477ZM35.4347 9.19906C34.2467 9.63233 32.951 10.0412 31.5458 10.4245L32.5982 14.2835C34.097 13.8748 35.4999 13.433 36.8053 12.9569L35.4347 9.19906ZM31.5458 10.4245C30.1176 10.814 28.7742 11.1515 27.5148 11.4377L28.4012 15.3383C29.7232 15.0378 31.1224 14.686 32.5982 14.2835L31.5458 10.4245ZM25.958 13.388V14.818H29.958V13.388H25.958ZM25.958 14.818C25.958 15.7058 26.0107 16.5879 26.2224 17.2762L30.0456 16.0998C30.0464 16.1026 30.0384 16.0763 30.027 16.0115C30.0159 15.9483 30.004 15.8615 29.9932 15.7471C29.9715 15.5161 29.958 15.2098 29.958 14.818H25.958ZM26.2522 17.3654C26.498 18.0482 26.9104 18.6639 27.5107 19.1378L29.9893 15.9982C29.9958 16.0034 30.003 16.0098 30.0099 16.0172C30.0169 16.0246 30.0221 16.0312 30.0255 16.0361C30.0288 16.0409 30.0293 16.0423 30.0276 16.039C30.0259 16.0357 30.0216 16.0266 30.0158 16.0106L26.2522 17.3654ZM27.5612 19.1764C28.237 19.6759 29.0506 19.9381 29.8362 20.0843L30.5678 16.1517C30.3428 16.1099 30.1827 16.0632 30.0745 16.0222C29.9655 15.9809 29.9305 15.9535 29.9388 15.9596L27.5612 19.1764ZM29.8807 20.092C30.7303 20.2303 31.7553 20.2351 32.8907 20.1573L32.6173 16.1667C31.6114 16.2356 30.935 16.211 30.5234 16.144L29.8807 20.092ZM32.8888 20.1574C34.0645 20.078 35.5137 19.891 37.2188 19.6068L36.5612 15.6612C34.9223 15.9344 33.6142 16.0993 32.6192 16.1665L32.8888 20.1574ZM37.2822 19.5952C37.2079 19.61 37.0844 19.6182 36.9376 19.5823C36.7911 19.5465 36.687 19.4829 36.6306 19.4377L39.1294 16.3143C38.3772 15.7125 37.4469 15.483 36.4978 15.6728L37.2822 19.5952ZM36.7175 19.5035C36.6688 19.4686 36.5998 19.4043 36.5409 19.3077C36.4824 19.2118 36.4602 19.1274 36.4533 19.0821L40.4067 18.4739C40.2679 17.5713 39.7986 16.7886 39.0425 16.2485L36.7175 19.5035ZM36.4551 19.094C36.4463 19.0388 36.4421 18.9426 36.4707 18.8256C36.4995 18.708 36.5489 18.6201 36.588 18.568L39.788 20.968C40.3379 20.2348 40.548 19.3562 40.4049 18.462L36.4551 19.094ZM36.588 18.568C36.624 18.52 36.6809 18.4639 36.7563 18.4179C36.83 18.373 36.8883 18.3578 36.9083 18.354L37.6637 22.282C38.5017 22.1209 39.251 21.6841 39.788 20.968L36.588 18.568ZM39.486 8.066C39.4265 8.066 39.4048 8.05663 39.4008 8.05499C39.3961 8.05308 39.3672 8.04143 39.314 7.99002L36.534 10.866C37.3395 11.6447 38.3558 12.066 39.486 12.066V8.066ZM39.362 8.03796C39.3149 7.98928 39.3036 7.96213 39.3007 7.95478C39.2976 7.94718 39.286 7.91714 39.286 7.844H35.286C35.286 8.97487 35.6975 10.0024 36.486 10.818L39.362 8.03796ZM39.286 7.844C39.286 7.80541 39.2893 7.78087 39.2918 7.76768C39.2942 7.75489 39.2964 7.74917 39.297 7.74775C39.2976 7.74639 39.2989 7.74332 39.303 7.73716C39.3074 7.73072 39.3176 7.71683 39.3382 7.69621L36.5098 4.86779C35.6994 5.67819 35.286 6.71188 35.286 7.844H39.286ZM39.3382 7.69621C39.3675 7.66694 39.389 7.65041 39.4017 7.6417C39.414 7.63322 39.4208 7.63018 39.4229 7.62929C39.4249 7.62844 39.4282 7.62721 39.435 7.62588C39.4421 7.62448 39.4582 7.622 39.486 7.622V3.622C38.334 3.622 37.3103 4.06729 36.5098 4.86779L39.3382 7.69621ZM39.486 7.622C39.5206 7.622 39.5409 7.62504 39.5501 7.62681C39.5588 7.6285 39.5612 7.62976 39.5601 7.62929C39.5589 7.62881 39.5608 7.62931 39.5668 7.6335C39.5731 7.63792 39.5878 7.6491 39.61 7.67204L42.486 4.89195C41.681 4.05923 40.6402 3.622 39.486 3.622V7.622ZM39.658 7.71998C39.6809 7.74216 39.6921 7.75691 39.6965 7.76324C39.7007 7.76924 39.7012 7.77106 39.7007 7.76993C39.7002 7.76882 39.7015 7.77118 39.7032 7.77992C39.705 7.78906 39.708 7.80945 39.708 7.844H43.708C43.708 6.68985 43.2708 5.64899 42.438 4.84402L39.658 7.71998ZM39.708 7.844C39.708 7.90846 39.6977 7.93076 39.6968 7.93277C39.6958 7.93518 39.6854 7.96217 39.6338 8.01379L42.4622 10.8422C43.273 10.0314 43.708 8.99645 43.708 7.844H39.708ZM39.6338 8.01379C39.6132 8.03441 39.5993 8.04464 39.5928 8.04898C39.5867 8.05314 39.5836 8.05444 39.5823 8.05499C39.5808 8.05557 39.5751 8.05784 39.5623 8.06024C39.5491 8.0627 39.5246 8.066 39.486 8.066V12.066C40.6181 12.066 41.6518 11.6526 42.4622 10.8422L39.6338 8.01379ZM39.486 10.79C40.2431 10.79 40.9574 10.5192 41.5246 9.99561L38.8114 7.05639C38.8889 6.98494 38.9969 6.91137 39.1325 6.85886C39.2676 6.80658 39.3917 6.79 39.486 6.79V10.79ZM41.5822 9.94021C42.139 9.38346 42.454 8.65101 42.454 7.844H38.454C38.454 7.72947 38.4759 7.5873 38.5381 7.43905C38.5999 7.29163 38.6828 7.18277 38.7538 7.11179L41.5822 9.94021ZM42.454 7.844C42.454 7.03286 42.1334 6.27644 41.5246 5.71439L38.8114 8.65361C38.7191 8.56833 38.6194 8.44235 38.5474 8.27622C38.4757 8.11089 38.454 7.95774 38.454 7.844H42.454ZM41.5822 5.76979C41.0255 5.21303 40.293 4.898 39.486 4.898V8.898C39.3715 8.898 39.2293 8.87606 39.0811 8.81389C38.9336 8.75207 38.8248 8.6692 38.7538 8.59821L41.5822 5.76979ZM39.486 4.898C38.679 4.898 37.9465 5.21303 37.3898 5.76979L40.2182 8.59821C40.1472 8.6692 40.0384 8.75207 39.891 8.81389C39.7427 8.87606 39.6005 8.898 39.486 8.898V4.898ZM37.3898 5.76978C36.8142 6.34537 36.54 7.08527 36.54 7.844H40.54C40.54 7.93743 40.5237 8.07203 40.463 8.22378C40.4013 8.37787 40.3119 8.50453 40.2182 8.59822L37.3898 5.76978ZM36.54 7.844C36.54 8.60107 36.8108 9.31538 37.3344 9.88256L40.2736 7.16944C40.3451 7.24685 40.4186 7.35487 40.4711 7.49051C40.5234 7.62557 40.54 7.74966 40.54 7.844H36.54ZM37.4474 9.9956C38.0146 10.5192 38.7289 10.79 39.486 10.79V6.79C39.5803 6.79 39.7044 6.80658 39.8395 6.85886C39.9751 6.91137 40.0832 6.98494 40.1606 7.0564L37.4474 9.9956ZM45.47 13.696L44.0181 15.0715L44.0553 15.1107L44.0945 15.1479L45.47 13.696ZM45.47 11.76L44.0945 10.3081L44.0749 10.3267L44.0558 10.3458L45.47 11.76ZM61.112 11.76L62.5262 10.3458V10.3458L61.112 11.76ZM61.112 13.696L62.5262 15.1102L62.5453 15.0911L62.5639 15.0715L61.112 13.696ZM46.438 12.092C46.5007 12.092 46.5869 12.1045 46.6783 12.1419C46.768 12.1786 46.8234 12.2231 46.8455 12.2441L44.0945 15.1479C44.7254 15.7456 45.5337 16.092 46.438 16.092V12.092ZM46.9219 12.3205C46.9429 12.3426 46.9874 12.398 47.0241 12.4877C47.0615 12.5791 47.074 12.6653 47.074 12.728H43.074C43.074 13.6323 43.4204 14.4406 44.0181 15.0715L46.9219 12.3205ZM47.074 12.728C47.074 12.7725 47.0653 12.8566 47.0241 12.9573C46.9826 13.0588 46.9265 13.1319 46.8842 13.1742L44.0558 10.3458C43.4078 10.9938 43.074 11.8289 43.074 12.728H47.074ZM46.8455 13.2119C46.8234 13.2329 46.768 13.2774 46.6783 13.3141C46.5869 13.3515 46.5007 13.364 46.438 13.364V9.364C45.5337 9.364 44.7254 9.71038 44.0945 10.3081L46.8455 13.2119ZM46.438 13.364H60.144V9.364H46.438V13.364ZM60.144 13.364C60.0995 13.364 60.0154 13.3553 59.9147 13.3141C59.8132 13.2726 59.7401 13.2165 59.6978 13.1742L62.5262 10.3458C61.8783 9.69782 61.0431 9.364 60.144 9.364V13.364ZM59.6978 13.1742C59.6555 13.1319 59.5994 13.0588 59.5579 12.9573C59.5167 12.8566 59.508 12.7725 59.508 12.728H63.508C63.508 11.8289 63.1742 10.9938 62.5262 10.3458L59.6978 13.1742ZM59.508 12.728C59.508 12.6653 59.5205 12.5791 59.5579 12.4877C59.5946 12.398 59.6391 12.3426 59.6601 12.3205L62.5639 15.0715C63.1616 14.4406 63.508 13.6323 63.508 12.728H59.508ZM59.6978 12.2818C59.7401 12.2395 59.8132 12.1834 59.9147 12.1419C60.0154 12.1007 60.0995 12.092 60.144 12.092V16.092C61.0431 16.092 61.8783 15.7582 62.5262 15.1102L59.6978 12.2818ZM60.144 12.092H46.438V16.092H60.144V12.092ZM70.132 21.55L71.5839 20.1745L71.5653 20.1549L71.5462 20.1358L70.132 21.55ZM70.132 4.456L71.5052 5.91003L71.526 5.89041L71.5462 5.87021L70.132 4.456ZM72.046 4.456L70.6318 5.87021L70.652 5.89041L70.6728 5.91003L72.046 4.456ZM72.442 10.704H70.442V17.4508L74.1189 11.794L72.442 10.704ZM73.234 10.132L73.7388 12.0672L73.7778 12.0571L73.8163 12.0453L73.234 10.132ZM74.224 10.242L73.2663 11.9978L73.28 12.0052L73.2937 12.0125L74.224 10.242ZM76.864 11.804L75.7673 13.4765L75.7831 13.4869L75.7991 13.4969L76.864 11.804ZM79.218 13.498L77.9276 15.0261L77.9479 15.0432L77.9686 15.0597L79.218 13.498ZM79.702 14.444L77.7075 14.5917L77.7105 14.6326L77.7152 14.6732L79.702 14.444ZM79.394 15.456L77.8701 14.1607L77.8642 14.1677L79.394 15.456ZM78.47 15.94L78.6234 17.9341L78.6614 17.9312L78.6992 17.9268L78.47 15.94ZM77.458 15.632L78.7074 14.0703L78.7005 14.0648L78.6936 14.0594L77.458 15.632ZM76.028 14.598L74.8872 16.2407L74.8977 16.248L74.9083 16.2552L76.028 14.598ZM74.422 13.542L73.3126 15.2061L73.3391 15.2238L73.3661 15.2406L74.422 13.542ZM72.97 12.64L73.956 10.8999L73.9505 10.8968L72.97 12.64ZM72.442 12.156L74.1453 11.1078L70.442 5.08989V12.156H72.442ZM72.046 21.55L70.6318 20.1358L70.6127 20.1549L70.5941 20.1745L72.046 21.55ZM79.658 9.604L80.9499 11.1308L80.9596 11.1225L79.658 9.604ZM78.954 9.802L78.7331 11.7898L78.7446 11.791L78.954 9.802ZM78.316 9.428L76.6519 10.5374L76.6767 10.5746L76.7032 10.6107L78.316 9.428ZM77.722 8.614L79.3046 7.39111V7.3911L77.722 8.614ZM77.04 7.778L75.4921 9.04447L75.5131 9.0701L75.5349 9.09501L77.04 7.778ZM76.864 7.184L78.8601 7.30875V7.30875L76.864 7.184ZM77.172 6.59L78.4639 8.11677L78.4942 8.09113L78.5234 8.06431L77.172 6.59ZM77.766 6.37L77.633 8.36559L77.6413 8.36611L77.766 6.37ZM78.382 6.634L77.0306 8.10831L77.0511 8.12713L77.0721 8.14538L78.382 6.634ZM79.13 7.404L77.6164 8.71124L77.6314 8.72871L77.6469 8.74582L79.13 7.404ZM79.834 8.24L81.4468 7.05727L81.4349 7.04106L81.4227 7.0251L79.834 8.24ZM80.01 8.966L78.0372 8.6372L78.0293 8.6846L78.0237 8.73232L80.01 8.966ZM81.088 7.998L80.9771 9.99493L80.9829 9.99524L81.088 7.998ZM80.45 7.668L82.0226 6.43236L81.9963 6.39881L81.9685 6.36642L80.45 7.668ZM79.79 6.92L81.2766 5.58207V5.58207L79.79 6.92ZM79.064 6.128L77.5841 7.47335L77.5944 7.48469L77.6049 7.49588L79.064 6.128ZM78.822 5.556H76.822V5.6226L76.8264 5.68904L78.822 5.556ZM79.108 4.918L80.5222 6.33222L80.5222 6.33221L79.108 4.918ZM79.68 4.676V6.676H79.7424L79.8048 6.6721L79.68 4.676ZM80.318 4.874L81.5674 3.31226L81.5525 3.30036L81.5374 3.28875L80.318 4.874ZM81.88 6.392L80.3361 7.66341L80.3446 7.6737L80.3532 7.68388L81.88 6.392ZM82.1 7.074L84.0966 7.19144L84.0969 7.18494L82.1 7.074ZM71.078 19.968C71.1551 19.968 71.2619 19.9842 71.3748 20.0341C71.4858 20.0831 71.5543 20.1432 71.5839 20.1745L68.6801 22.9255C69.3019 23.5818 70.1339 23.968 71.078 23.968V19.968ZM71.5462 20.1358C71.5811 20.1707 71.6365 20.2397 71.6799 20.3432C71.7235 20.4475 71.736 20.5416 71.736 20.604H67.736C67.736 21.5119 68.0864 22.3328 68.7178 22.9642L71.5462 20.1358ZM71.736 20.604V5.402H67.736V20.604H71.736ZM71.736 5.402C71.736 5.44585 71.7275 5.53808 71.6799 5.65178C71.6314 5.76764 71.5635 5.85503 71.5052 5.91003L68.7588 3.00197C68.0727 3.64988 67.736 4.50139 67.736 5.402H71.736ZM71.5462 5.87021C71.5113 5.90511 71.4423 5.96053 71.3388 6.00388C71.2345 6.04753 71.1404 6.06 71.078 6.06V2.06C70.1702 2.06 69.3492 2.41039 68.7178 3.04179L71.5462 5.87021ZM71.078 6.06C71.0335 6.06 70.9494 6.05129 70.8487 6.01009C70.7472 5.96855 70.6741 5.91253 70.6318 5.87021L73.4602 3.04179C72.8122 2.39382 71.9771 2.06 71.078 2.06V6.06ZM70.6728 5.91003C70.6145 5.85503 70.5466 5.76764 70.4981 5.65178C70.4505 5.53808 70.442 5.44585 70.442 5.402H74.442C74.442 4.50139 74.1053 3.64988 73.4193 3.00197L70.6728 5.91003ZM70.442 5.402V10.704H74.442V5.402H70.442ZM74.1189 11.794C74.0899 11.8386 74.0364 11.9028 73.954 11.9624C73.8715 12.0219 73.7927 12.0532 73.7388 12.0672L72.7292 8.19676C71.9076 8.41109 71.2264 8.90435 70.7651 9.61403L74.1189 11.794ZM73.8163 12.0453C73.7415 12.0681 73.6351 12.0838 73.5136 12.0703C73.394 12.057 73.3087 12.0209 73.2663 11.9978L75.1817 8.48621C74.41 8.06527 73.5265 7.95239 72.6517 8.21865L73.8163 12.0453ZM73.2937 12.0125C74.097 12.4345 74.9215 12.9219 75.7673 13.4765L77.9607 10.1315C77.0172 9.51278 76.0817 8.95879 75.1543 8.47151L73.2937 12.0125ZM75.7991 13.4969C76.6477 14.0307 77.3535 14.5413 77.9276 15.0261L80.5084 11.9699C79.7625 11.3401 78.899 10.7213 77.9289 10.1111L75.7991 13.4969ZM77.9686 15.0597C77.9078 15.0111 77.8345 14.931 77.7785 14.8215C77.7237 14.7144 77.7101 14.6277 77.7075 14.5917L81.6965 14.2963C81.6288 13.3814 81.2219 12.5399 80.4674 11.9363L77.9686 15.0597ZM77.7152 14.6732C77.7085 14.6156 77.7092 14.5171 77.7447 14.4007C77.7801 14.2843 77.834 14.2032 77.8701 14.1607L80.9179 16.7513C81.5248 16.0372 81.7965 15.1483 81.6888 14.2148L77.7152 14.6732ZM77.8642 14.1677C77.906 14.118 77.972 14.0599 78.059 14.0143C78.1442 13.9697 78.2126 13.9564 78.2408 13.9532L78.6992 17.9268C79.5574 17.8278 80.3417 17.4356 80.9238 16.7443L77.8642 14.1677ZM78.3166 13.9459C78.353 13.9431 78.4245 13.9446 78.5133 13.9717C78.6028 13.9989 78.6691 14.0396 78.7074 14.0703L76.2086 17.1937C76.9057 17.7514 77.7467 18.0015 78.6234 17.9341L78.3166 13.9459ZM78.6936 14.0594C78.2374 13.7008 77.7206 13.3279 77.1477 12.9408L74.9083 16.2552C75.4208 16.6014 75.8573 16.9178 76.2224 17.2046L78.6936 14.0594ZM77.1688 12.9553C76.6131 12.5694 76.0495 12.1988 75.4779 11.8434L73.3661 15.2406C73.8799 15.5599 74.3869 15.8933 74.8872 16.2407L77.1688 12.9553ZM75.5314 11.8779C74.9728 11.5055 74.447 11.1782 73.956 10.9L71.984 14.38C72.373 14.6005 72.8152 14.8745 73.3126 15.2061L75.5314 11.8779ZM73.9505 10.8968C73.9501 10.8966 73.9752 10.9107 74.0135 10.9457C74.0528 10.9818 74.1008 11.0354 74.1453 11.1078L70.7387 13.2042C71.0668 13.7374 71.5186 14.1183 71.9895 14.3832L73.9505 10.8968ZM70.442 12.156V20.604H74.442V12.156H70.442ZM70.442 20.604C70.442 20.5416 70.4545 20.4475 70.4981 20.3432C70.5415 20.2397 70.5969 20.1707 70.6318 20.1358L73.4602 22.9642C74.0916 22.3328 74.442 21.5119 74.442 20.604H70.442ZM70.5941 20.1745C70.631 20.1355 70.7038 20.0746 70.8131 20.0274C70.9228 19.98 71.0194 19.968 71.078 19.968V23.968C72.0126 23.968 72.8591 23.5998 73.4979 22.9255L70.5941 20.1745ZM78.3661 8.07723C78.484 7.97752 78.6322 7.8957 78.7975 7.8492C78.9578 7.80411 79.0879 7.80505 79.1634 7.81299L78.7446 11.791C79.4931 11.8698 80.2901 11.6891 80.9499 11.1308L78.3661 8.07723ZM79.1749 7.81423C79.3 7.82813 79.4538 7.87071 79.6079 7.9611C79.761 8.0508 79.8654 8.15883 79.9288 8.24527L76.7032 10.6107C77.1853 11.2681 77.8961 11.6968 78.7331 11.7898L79.1749 7.81423ZM79.9801 8.3186C79.7977 8.04504 79.5689 7.73322 79.3046 7.39111L76.1394 9.83689C76.3737 10.1401 76.5409 10.371 76.6519 10.5374L79.9801 8.3186ZM79.3046 7.3911C79.0375 7.04544 78.7839 6.73385 78.5452 6.46099L75.5349 9.09501C75.7068 9.29148 75.9079 9.53723 76.1394 9.83689L79.3046 7.3911ZM78.5879 6.51153C78.6887 6.63473 78.7676 6.78183 78.8146 6.94032C78.8604 7.09474 78.8654 7.22431 78.8601 7.30875L74.8679 7.05924C74.8261 7.72809 74.999 8.4418 75.4921 9.04447L78.5879 6.51153ZM78.8601 7.30875C78.851 7.45383 78.8112 7.61878 78.7275 7.78013C78.6451 7.93899 78.5439 8.04905 78.4639 8.11677L75.8801 5.06322C75.3025 5.55201 74.9188 6.24415 74.8679 7.05924L78.8601 7.30875ZM78.5234 8.06431C78.4454 8.13586 78.3207 8.22521 78.1471 8.2895C77.9701 8.35507 77.7915 8.37614 77.633 8.36557L77.899 4.37443C77.0855 4.32019 76.3623 4.6191 75.8206 5.11569L78.5234 8.06431ZM77.6413 8.36611C77.5423 8.35992 77.4267 8.3361 77.3082 8.28529C77.19 8.23464 77.0971 8.16933 77.0306 8.10831L79.7335 5.15969C79.2259 4.69446 78.5896 4.41757 77.8908 4.37389L77.6413 8.36611ZM77.0721 8.14538C77.1945 8.25138 77.3746 8.43127 77.6164 8.71124L80.6436 6.09676C80.3281 5.7314 80.0096 5.39795 79.6919 5.12262L77.0721 8.14538ZM77.6469 8.74582C77.8997 9.02516 78.0967 9.26065 78.2453 9.4549L81.4227 7.0251C81.1899 6.72068 80.9177 6.39884 80.6131 6.06217L77.6469 8.74582ZM78.2212 9.42273C78.1607 9.3402 78.0939 9.21697 78.0553 9.0577C78.0165 8.89759 78.0182 8.75097 78.0372 8.6372L81.9828 9.2948C82.1173 8.48757 81.92 7.70254 81.4468 7.05727L78.2212 9.42273ZM78.0237 8.73232C78.0382 8.60873 78.0783 8.4743 78.1488 8.34635C78.2182 8.22072 78.2979 8.13564 78.3564 8.08549L80.9596 11.1225C81.5143 10.647 81.9035 9.98864 81.9963 9.19968L78.0237 8.73232ZM80.3778 6.31979C80.4688 6.2288 80.6009 6.13404 80.7708 6.07034C80.9389 6.00729 81.0889 5.99528 81.1931 6.00076L80.9829 9.99524C81.8053 10.0385 82.599 9.75542 83.2062 9.14821L80.3778 6.31979ZM81.1989 6.00108C81.3192 6.00776 81.4799 6.04041 81.6493 6.12806C81.8194 6.21604 81.9428 6.3307 82.0226 6.43236L78.8774 8.90364C79.399 9.56748 80.1473 9.94882 80.9771 9.99492L81.1989 6.00108ZM81.9685 6.36642C81.7785 6.14469 81.547 5.8825 81.2766 5.58207L78.3034 8.25793C78.561 8.54417 78.7695 8.78064 78.9315 8.96958L81.9685 6.36642ZM81.2766 5.58207C81.0055 5.28082 80.7541 5.00659 80.5231 4.76012L77.6049 7.49588C77.8139 7.71874 78.0465 7.97251 78.3034 8.25793L81.2766 5.58207ZM80.5439 4.78265C80.6142 4.85996 80.6833 4.96144 80.7354 5.08472C80.7875 5.20772 80.811 5.32501 80.8176 5.42296L76.8264 5.68904C76.8708 6.35427 77.1299 6.97368 77.5841 7.47335L80.5439 4.78265ZM80.822 5.556C80.822 5.71865 80.787 5.8858 80.7185 6.03861C80.6523 6.18624 80.5723 6.2821 80.5222 6.33222L77.6938 3.50378C77.1887 4.00888 76.822 4.71089 76.822 5.556H80.822ZM80.5222 6.33221C80.4394 6.41504 80.3163 6.50863 80.1513 6.57843C79.9848 6.64885 79.8207 6.676 79.68 6.676V2.676C78.908 2.676 78.2147 2.98291 77.6938 3.50379L80.5222 6.33221ZM79.8048 6.6721C79.6934 6.67907 79.5611 6.66758 79.4227 6.62463C79.285 6.58189 79.1761 6.51885 79.0986 6.45925L81.5374 3.28875C80.9729 2.85449 80.285 2.63428 79.5552 2.67989L79.8048 6.6721ZM79.0686 6.43573C79.2273 6.56267 79.4457 6.75484 79.7307 7.02628L82.4893 4.12972C82.1583 3.81449 81.8487 3.53733 81.5674 3.31226L79.0686 6.43573ZM79.7307 7.02628C79.9974 7.28031 80.1951 7.49219 80.3361 7.66341L83.4239 5.12059C83.1542 4.79314 82.8386 4.46235 82.4893 4.12972L79.7307 7.02628ZM80.3532 7.68388C80.2731 7.58924 80.1997 7.46548 80.1526 7.3195C80.1062 7.17559 80.0982 7.05021 80.1031 6.96306L84.0969 7.18494C84.1381 6.44338 83.9191 5.70559 83.4068 5.10012L80.3532 7.68388ZM80.1035 6.95656C80.1105 6.8364 80.141 6.70582 80.1996 6.58023C80.2572 6.45692 80.3264 6.37113 80.3778 6.31979L83.2062 9.14821C83.7133 8.6411 84.0507 7.9704 84.0965 7.19144L80.1035 6.95656ZM88.546 22.056L89.863 20.5508L89.8522 20.5414L89.8413 20.5321L88.546 22.056ZM88.26 15.984L89.8079 17.2505L87.2939 14.2328L88.26 15.984ZM86.984 16.666L86.0652 14.8896L86.984 16.666ZM85.73 17.26L86.4992 19.1062L86.5086 19.1023L86.5178 19.0983L85.73 17.26ZM84.718 17.392L84.3602 19.3597L84.718 17.392ZM83.97 16.82L82.1657 17.6829L82.1887 17.731L82.2142 17.7777L83.97 16.82ZM83.904 15.896L85.7473 16.6721L85.7543 16.6555L85.761 16.6388L83.904 15.896ZM84.564 15.258L83.842 13.3929L83.8243 13.3997L83.8067 13.4069L84.564 15.258ZM90.13 12.42L91.2329 14.0884L96.7826 10.42H90.13V12.42ZM84.608 12.134L83.0812 13.4259L83.1091 13.4588L83.1384 13.4906L84.608 12.134ZM84.608 10.792L83.1384 9.43543L83.1337 9.44055L84.608 10.792ZM88.854 10.506V12.506H92.3004L90.5905 9.51372L88.854 10.506ZM88.524 9.956L90.2113 8.88225V8.88225L88.524 9.956ZM88.326 9.626L90.1149 8.73157L90.049 8.59978L89.9645 8.47907L88.326 9.626ZM88.26 8.702L90.117 9.44478L90.5272 8.41908L89.8775 7.52566L88.26 8.702ZM88.04 8.086L86.0421 8.17682L86.0453 8.24846L86.0537 8.31968L88.04 8.086ZM88.326 7.36L89.5616 8.93264L89.5952 8.90628L89.6276 8.87851L88.326 7.36ZM91.538 7.03L91.4381 5.03249L91.538 7.03ZM96.84 6.59L96.6004 4.6044L96.5962 4.60491L96.84 6.59ZM99.128 6.238L98.7702 4.27026L98.7571 4.27265L98.744 4.27521L99.128 6.238ZM99.964 6.326L99.0696 8.11485L99.1349 8.14753L99.2025 8.17535L99.964 6.326ZM100.426 6.876L98.4736 7.30986L98.4844 7.35838L98.4976 7.40631L100.426 6.876ZM99.942 8.042L99.209 6.18118L95.1502 7.78009L99.0105 9.81184L99.942 8.042ZM100.492 8.68L98.5848 9.28226L98.6044 9.34428L98.628 9.4049L100.492 8.68ZM100.404 9.494L98.6732 8.49193L98.6425 8.54486L98.6152 8.59957L100.404 9.494ZM100.162 9.934L101.89 10.9417V10.9417L100.162 9.934ZM99.832 10.506L98.0955 9.51373L96.3857 12.506H99.832V10.506ZM104.232 10.792L102.705 12.0839L102.759 12.1474L102.818 12.2062L104.232 10.792ZM104.232 12.134L102.762 10.7774L102.733 10.8092L102.705 10.8421L104.232 12.134ZM98.842 12.42V10.42H92.0009L97.7647 14.105L98.842 12.42ZM101.658 14.004L102.542 12.2098L101.658 14.004ZM104.276 15.17L105.033 13.3189L105.014 13.3109L104.994 13.3033L104.276 15.17ZM104.936 15.808L103.079 16.5508L103.086 16.5675L103.093 16.5841L104.936 15.808ZM104.892 16.688L106.696 17.5509L106.698 17.5479L104.892 16.688ZM104.122 17.326L104.53 19.284L104.569 19.2759L104.607 19.2663L104.122 17.326ZM103.088 17.216L102.25 19.0319L102.27 19.0413L102.291 19.0501L103.088 17.216ZM101.9 16.666L101.006 18.4549L101.032 18.4678L101.058 18.48L101.9 16.666ZM100.69 16.028L101.661 14.2797L99.0787 17.2128L100.69 16.028ZM100.36 22.056L99.0647 20.5321L99.0538 20.5414L99.043 20.5508L100.36 22.056ZM85.158 8.724L83.7873 10.1804L83.8107 10.2024L83.8348 10.2237L85.158 8.724ZM85.642 4.918L84.3692 3.37525L84.3596 3.38318L84.3501 3.39123L85.642 4.918ZM93.1 4.192V6.192H95.1V4.192H93.1ZM93.518 2.41L94.8516 3.90048L94.8728 3.88149L94.8935 3.8619L93.518 2.41ZM95.454 2.41L94.0398 3.82421L94.079 3.86347L94.1204 3.90048L95.454 2.41ZM95.872 4.192H93.872V6.192H95.872V4.192ZM103.242 4.918L101.95 6.44477L101.96 6.45282L101.969 6.46075L103.242 4.918ZM103.748 8.724L105.071 10.2237L105.095 10.2024L105.119 10.1804L103.748 8.724ZM101.944 8.746L103.215 7.20214V7.20214L101.944 8.746ZM101.262 6.414L99.9054 7.88361L99.9639 7.93752L100.026 7.98663L101.262 6.414ZM87.622 6.414L88.8577 7.98663L88.8912 7.96028L88.9236 7.93251L87.622 6.414ZM86.94 8.746L85.6686 7.20214L85.6455 7.22115L85.623 7.24085L86.94 8.746ZM95.74 10.506H93.74V12.506H95.74V10.506ZM97.302 10.506V12.506H98.5095L99.0718 11.4375L97.302 10.506ZM97.83 9.494L99.6055 10.4146L99.6123 10.4016L99.6189 10.3884L97.83 9.494ZM98.314 8.548L100.079 9.48917L100.158 9.34041L100.211 9.18045L98.314 8.548ZM98.38 8.438L99.7942 9.85219L99.9342 9.71218L100.044 9.54742L98.38 8.438ZM98.446 8.328L100.235 9.22241L101.942 5.80828L98.1632 6.3481L98.446 8.328ZM97.126 8.504L96.8779 6.51943L96.8701 6.52044L97.126 8.504ZM95.74 8.68L95.4919 6.69544L93.74 6.91444V8.68H95.74ZM89.69 15.148L88.6398 13.4459L90.1751 17.0883L89.69 15.148ZM93.276 14.95V16.95H95.276V14.95H93.276ZM93.276 12.508H95.276V7.9964L91.933 11.026L93.276 12.508ZM91.648 13.828L92.8357 15.4371L91.648 13.828ZM93.276 21V23H95.276V21H93.276ZM93.276 19.724H95.276V17.724H93.276V19.724ZM90.24 19.724V17.724H88.1852L88.2407 19.778L90.24 19.724ZM90.592 20.78L89.4093 22.3928L89.4454 22.4193L89.4826 22.4441L90.592 20.78ZM99.128 15.126L98.5637 17.0447L100.192 13.4322L99.128 15.126ZM97.302 13.894L96.0826 15.4792L96.1051 15.4966L96.1281 15.5132L97.302 13.894ZM95.74 12.596L97.083 11.114L93.74 8.0844V12.596H95.74ZM95.74 14.95H93.74V16.95H95.74V14.95ZM98.292 14.994L98.1024 16.985L98.1496 16.9895L98.1969 16.9917L98.292 14.994ZM91.428 10.506L89.6392 11.4004L90.1919 12.506H91.428V10.506ZM93.276 10.506V12.506H95.276V10.506H93.276ZM93.276 8.9H95.276V6.7711L93.1513 6.90389L93.276 8.9ZM91.89 8.988L91.9545 10.987L91.9867 10.9859L92.0188 10.9839L91.89 8.988ZM90.548 9.054L90.415 7.05843L86.9097 7.29211L88.8999 10.1871L90.548 9.054ZM91.054 9.846L89.339 10.875V10.875L91.054 9.846ZM90.24 18.008L88.2431 17.8971L88.1258 20.008H90.24V18.008ZM93.276 18.008V20.008H95.276V18.008H93.276ZM93.276 16.776H95.276V14.776H93.276V16.776ZM90.614 16.996L91.7234 18.6601L90.614 16.996ZM95.74 21H93.74V23H95.74V21ZM98.314 20.78L99.4234 22.4441L99.4606 22.4193L99.4967 22.3928L98.314 20.78ZM98.666 19.724L100.665 19.778L100.721 17.724H98.666V19.724ZM95.74 19.724V17.724H93.74V19.724H95.74ZM95.74 18.008H93.74V20.008H95.74V18.008ZM98.666 18.008V20.008H100.722L100.665 17.9525L98.666 18.008ZM98.314 16.996L99.4234 15.3319V15.3319L98.314 16.996ZM95.74 16.776V14.776H93.74V16.776H95.74ZM91.648 20.826C91.0117 20.826 90.5549 20.7697 90.2433 20.6924C89.9278 20.6141 89.8452 20.5352 89.863 20.5508L87.229 23.5612C88.3902 24.5772 90.0633 24.826 91.648 24.826V20.826ZM89.8413 20.5321C89.841 20.5319 89.8403 20.5313 89.8387 20.5295C89.8371 20.5277 89.8334 20.5233 89.8279 20.515C89.8172 20.4988 89.7957 20.4618 89.7714 20.3931C89.7204 20.2491 89.666 19.9901 89.666 19.57H85.666C85.666 21.0153 86.0301 22.5424 87.2507 23.5799L89.8413 20.5321ZM89.666 19.57V18.184H85.666V19.57H89.666ZM89.666 18.184C89.666 17.8201 89.7034 17.5738 89.7454 17.4183C89.7862 17.267 89.8229 17.2322 89.8079 17.2505L86.7121 14.7175C85.8977 15.7129 85.666 16.9884 85.666 18.184H89.666ZM87.2939 14.2328C86.8839 14.459 86.4744 14.6779 86.0652 14.8896L87.9029 18.4424C88.3443 18.2141 88.7854 17.9783 89.2262 17.7352L87.2939 14.2328ZM86.0652 14.8896C85.6797 15.0889 85.3054 15.266 84.9422 15.4217L86.5178 19.0983C86.9759 18.902 87.4376 18.6831 87.9029 18.4424L86.0652 14.8896ZM84.9608 15.4138C84.9287 15.4272 84.9278 15.4233 84.9543 15.4198C84.983 15.4161 85.0261 15.4152 85.0758 15.4243L84.3602 19.3597C85.121 19.4981 85.8504 19.3765 86.4992 19.1062L84.9608 15.4138ZM85.0758 15.4243C85.2117 15.449 85.3655 15.5105 85.5039 15.6163C85.6365 15.7177 85.7024 15.8193 85.7258 15.8623L82.2142 17.7777C82.6401 18.5584 83.3661 19.179 84.3602 19.3597L85.0758 15.4243ZM85.7743 15.9571C85.7795 15.9681 85.8172 16.0509 85.8274 16.1935C85.8383 16.3465 85.8134 16.5151 85.7473 16.6721L82.0607 15.1199C81.6705 16.0466 81.8209 16.9618 82.1657 17.6829L85.7743 15.9571ZM85.761 16.6388C85.7183 16.7455 85.6467 16.8582 85.5471 16.9545C85.4506 17.0477 85.3627 17.0922 85.3213 17.1091L83.8067 13.4069C83.0398 13.7207 82.3875 14.302 82.0471 15.1532L85.761 16.6388ZM85.286 17.1231C86.2599 16.7461 87.2562 16.302 88.2744 15.7929L86.4856 12.2151C85.5678 12.674 84.6867 13.0659 83.842 13.3929L85.286 17.1231ZM88.2744 15.7929C89.3112 15.2745 90.2977 14.7066 91.2329 14.0884L89.0271 10.7516C88.2316 11.2774 87.3848 11.7655 86.4856 12.2151L88.2744 15.7929ZM90.13 10.42H85.312V14.42H90.13V10.42ZM85.312 10.42C85.3831 10.42 85.5123 10.432 85.6688 10.4956C85.8308 10.5614 85.9711 10.6621 86.0776 10.7774L83.1384 13.4906C83.7443 14.147 84.5409 14.42 85.312 14.42V10.42ZM86.1348 10.8421C86.2045 10.9245 86.2681 11.0297 86.3114 11.1517C86.3541 11.2721 86.366 11.3776 86.366 11.452H82.366C82.366 12.1598 82.596 12.8524 83.0812 13.4259L86.1348 10.8421ZM86.366 11.452C86.366 11.5254 86.3544 11.6409 86.3043 11.7775C86.253 11.9174 86.1747 12.0427 86.0823 12.1434L83.1337 9.44055C82.5974 10.0256 82.366 10.7449 82.366 11.452H86.366ZM86.0776 12.1486C85.9711 12.2639 85.8308 12.3646 85.6688 12.4304C85.5123 12.494 85.3831 12.506 85.312 12.506V8.506C84.5409 8.506 83.7443 8.77903 83.1384 9.43544L86.0776 12.1486ZM85.312 12.506H88.854V8.506H85.312V12.506ZM90.5905 9.51372C90.4609 9.28699 90.3344 9.07571 90.2113 8.88225L86.8367 11.0297C86.9189 11.159 87.0124 11.3143 87.1175 11.4983L90.5905 9.51372ZM90.2113 8.88225C90.1653 8.80997 90.1333 8.75812 90.1125 8.72351C90.1022 8.70642 90.0972 8.69761 90.096 8.69551C90.0937 8.69146 90.1018 8.7054 90.1149 8.73157L86.5372 10.5204C86.62 10.6861 86.7421 10.8812 86.8367 11.0298L90.2113 8.88225ZM89.9645 8.47907C90.0702 8.63006 90.172 8.87036 90.172 9.164H86.172C86.172 9.7803 86.3765 10.3286 86.6875 10.7729L89.9645 8.47907ZM90.172 9.164C90.172 9.25156 90.1548 9.35011 90.117 9.44478L86.4031 7.95922C86.2478 8.34722 86.172 8.75377 86.172 9.164H90.172ZM89.8775 7.52566C90.0076 7.70461 90.0257 7.8476 90.0263 7.85232L86.0537 8.31968C86.1129 8.82306 86.2777 9.37672 86.6425 9.87834L89.8775 7.52566ZM90.0379 7.99518C90.0404 8.04896 90.0386 8.19937 89.9613 8.39555C89.8783 8.60633 89.737 8.79482 89.5616 8.93264L87.0904 5.78736C86.2558 6.44308 86.0059 7.38073 86.0421 8.17682L90.0379 7.99518ZM89.6276 8.87851C89.5281 8.9638 89.4166 9.02397 89.3105 9.05937C89.2089 9.0932 89.1381 9.096 89.118 9.096V5.096C88.4146 5.096 87.6594 5.29719 87.0244 5.84149L89.6276 8.87851ZM89.118 9.096C89.8905 9.096 90.731 9.07285 91.6379 9.0275L91.4381 5.03249C90.585 5.07515 89.8122 5.096 89.118 5.096V9.096ZM91.6379 9.0275C92.5389 8.98245 93.4539 8.92244 94.3828 8.84753L94.0612 4.86047C93.1715 4.93223 92.2971 4.98955 91.4381 5.03249L91.6379 9.0275ZM94.3828 8.84753C95.3176 8.77214 96.218 8.68141 97.0838 8.57509L96.5962 4.60491C95.79 4.70392 94.9451 4.78919 94.0612 4.86047L94.3828 8.84753ZM97.0797 8.57559C97.9675 8.46844 98.7796 8.34409 99.512 8.20079L98.744 4.27521C98.1271 4.39591 97.4138 4.50623 96.6004 4.60441L97.0797 8.57559ZM99.4858 8.20574C99.491 8.20478 99.4484 8.2133 99.3696 8.20501C99.2868 8.19629 99.181 8.17055 99.0696 8.11485L100.858 4.53714C100.149 4.18234 99.4106 4.15383 98.7702 4.27026L99.4858 8.20574ZM99.2025 8.17535C99.067 8.11955 98.8905 8.01194 98.7351 7.82688C98.5798 7.64202 98.5049 7.45065 98.4736 7.30986L102.378 6.44214C102.178 5.54231 101.581 4.82907 100.726 4.47664L99.2025 8.17535ZM98.4976 7.40631C98.5112 7.4557 98.4274 7.20561 98.5788 6.84074C98.753 6.42113 99.0736 6.23451 99.209 6.18118L100.675 9.90282C101.294 9.65882 101.938 9.18253 102.273 8.37426C102.586 7.62072 102.502 6.88297 102.354 6.34569L98.4976 7.40631ZM99.0105 9.81184C98.9549 9.78256 98.8644 9.72258 98.7737 9.61738C98.681 9.50982 98.6191 9.39088 98.5848 9.28226L102.399 8.07774C102.139 7.25509 101.579 6.64326 100.873 6.27216L99.0105 9.81184ZM98.628 9.4049C98.5677 9.24983 98.5375 9.06187 98.5586 8.86654C98.5788 8.67938 98.6388 8.55124 98.6732 8.49193L102.135 10.4961C102.553 9.77303 102.711 8.86715 102.356 7.9551L98.628 9.4049ZM98.6152 8.59957C98.5831 8.66363 98.5259 8.76953 98.4344 8.92626L101.89 10.9417C102.003 10.7465 102.108 10.559 102.193 10.3884L98.6152 8.59957ZM98.4344 8.92625C98.3284 9.10813 98.2153 9.30402 98.0955 9.51373L101.568 11.4983C101.683 11.2973 101.79 11.1119 101.89 10.9417L98.4344 8.92625ZM99.832 12.506H103.55V8.506H99.832V12.506ZM103.55 12.506C103.481 12.506 103.34 12.4945 103.167 12.4219C102.986 12.3458 102.826 12.2263 102.705 12.0839L105.759 9.50012C105.15 8.78026 104.318 8.506 103.55 8.506V12.506ZM102.818 12.2062C102.724 12.1125 102.635 11.9859 102.573 11.8318C102.512 11.68 102.496 11.5454 102.496 11.452H106.496C106.496 10.6933 106.222 9.95337 105.646 9.37778L102.818 12.2062ZM102.496 11.452C102.496 11.3577 102.513 11.2336 102.565 11.0985C102.617 10.9629 102.691 10.8548 102.762 10.7774L105.702 13.4906C106.225 12.9234 106.496 12.2091 106.496 11.452H102.496ZM102.705 10.8421C102.826 10.6997 102.986 10.5802 103.167 10.5041C103.34 10.4315 103.481 10.42 103.55 10.42V14.42C104.318 14.42 105.15 14.1457 105.759 13.4259L102.705 10.8421ZM103.55 10.42H98.842V14.42H103.55V10.42ZM97.7647 14.105C98.7237 14.7182 99.7272 15.2824 100.774 15.7982L102.542 12.2098C101.623 11.7576 100.75 11.2658 99.9193 10.735L97.7647 14.105ZM100.774 15.7982C101.794 16.3005 102.724 16.7158 103.558 17.0367L104.994 13.3033C104.303 13.0375 103.487 12.6755 102.542 12.2098L100.774 15.7982ZM103.519 17.0211C103.477 17.0042 103.389 16.9597 103.293 16.8665C103.193 16.7702 103.122 16.6575 103.079 16.5508L106.793 15.0652C106.452 14.214 105.8 13.6327 105.033 13.3189L103.519 17.0211ZM103.093 16.5841C103.038 16.4551 103.007 16.2993 103.016 16.1371C103.023 15.9813 103.064 15.8743 103.086 15.8281L106.698 17.5479C107.055 16.7983 107.148 15.9068 106.779 15.0319L103.093 16.5841ZM103.088 15.8251C103.117 15.7644 103.182 15.6603 103.302 15.5605C103.424 15.4594 103.549 15.4078 103.637 15.3857L104.607 19.2663C105.558 19.0287 106.287 18.407 106.696 17.5509L103.088 15.8251ZM103.714 15.368C103.734 15.3639 103.769 15.3602 103.811 15.3647C103.853 15.3692 103.879 15.3792 103.885 15.3819L102.291 19.0501C102.998 19.3577 103.763 19.4437 104.53 19.284L103.714 15.368ZM103.926 15.4001C103.546 15.2248 103.152 15.0421 102.742 14.852L101.058 18.48C101.47 18.6713 101.867 18.8552 102.25 19.0319L103.926 15.4001ZM102.794 14.8771C102.409 14.6846 102.032 14.4854 101.661 14.2797L99.7187 17.7763C100.14 18.0106 100.569 18.2367 101.006 18.4549L102.794 14.8771ZM99.0787 17.2128C99.0926 17.2317 99.24 17.4637 99.24 18.184H103.24C103.24 17.027 103.021 15.8216 102.301 14.8432L99.0787 17.2128ZM99.24 18.184V19.57H103.24V18.184H99.24ZM99.24 19.57C99.24 19.9901 99.1856 20.2491 99.1346 20.3931C99.1103 20.4618 99.0888 20.4988 99.0781 20.515C99.0726 20.5233 99.0689 20.5277 99.0673 20.5295C99.0657 20.5313 99.065 20.5319 99.0647 20.5321L101.655 23.5799C102.876 22.5424 103.24 21.0153 103.24 19.57H99.24ZM99.043 20.5508C99.0609 20.5352 98.9782 20.6141 98.6627 20.6924C98.3511 20.7697 97.8943 20.826 97.258 20.826V24.826C98.8427 24.826 100.516 24.5772 101.677 23.5612L99.043 20.5508ZM97.258 20.826H91.648V24.826H97.258V20.826ZM86.06 7.054C86.0952 7.054 86.167 7.06009 86.2577 7.09325C86.3501 7.12706 86.4266 7.17612 86.4812 7.22432L83.8348 10.2237C84.4722 10.7861 85.2518 11.054 86.06 11.054V7.054ZM86.5287 7.2676C86.6076 7.34181 86.6821 7.44493 86.7314 7.56661C86.7787 7.68357 86.784 7.77108 86.784 7.8H82.784C82.784 8.66347 83.0885 9.52276 83.7873 10.1804L86.5287 7.2676ZM86.784 7.8V7.36H82.784V7.8H86.784ZM86.784 7.36C86.784 6.49197 87.0045 6.38503 86.9339 6.44477L84.3501 3.39123C83.1355 4.41897 82.784 5.94003 82.784 7.36H86.784ZM86.9148 6.46075C86.9143 6.46114 86.9368 6.44241 86.9979 6.41404C87.0597 6.38529 87.1556 6.34927 87.2951 6.31464C87.5806 6.24381 87.9948 6.192 88.568 6.192V2.192C87.0679 2.192 85.5046 2.43854 84.3692 3.37525L86.9148 6.46075ZM88.568 6.192H93.1V2.192H88.568V6.192ZM95.1 4.192V3.356H91.1V4.192H95.1ZM95.1 3.356C95.1 3.41399 95.0881 3.51901 95.0339 3.64183C94.9792 3.76561 94.906 3.85184 94.8516 3.90048L92.1844 0.919515C91.4722 1.55676 91.1 2.41853 91.1 3.356H95.1ZM94.8935 3.8619C94.8714 3.88286 94.816 3.92739 94.7263 3.96409C94.6349 4.00146 94.5487 4.014 94.486 4.014V0.0139992C93.5817 0.0139992 92.7734 0.360384 92.1425 0.958094L94.8935 3.8619ZM94.486 4.014C94.4415 4.014 94.3574 4.00529 94.2567 3.96409C94.1552 3.92256 94.0821 3.86653 94.0398 3.82421L96.8682 0.995786C96.2203 0.34782 95.3851 0.0139992 94.486 0.0139992V4.014ZM94.1204 3.90048C94.066 3.85184 93.9928 3.76561 93.9381 3.64183C93.8839 3.51901 93.872 3.41399 93.872 3.356H97.872C97.872 2.41853 97.4998 1.55676 96.7876 0.919515L94.1204 3.90048ZM93.872 3.356V4.192H97.872V3.356H93.872ZM95.872 6.192H100.316V2.192H95.872V6.192ZM100.316 6.192C100.899 6.192 101.316 6.24416 101.6 6.31464C101.886 6.38569 101.965 6.45713 101.95 6.44477L104.534 3.39123C103.402 2.43322 101.817 2.192 100.316 2.192V6.192ZM101.969 6.46075C101.902 6.40536 102.122 6.5065 102.122 7.36H106.122C106.122 5.9255 105.755 4.39864 104.515 3.37525L101.969 6.46075ZM102.122 7.36V7.8H106.122V7.36H102.122ZM102.122 7.8C102.122 7.77108 102.127 7.68357 102.175 7.56661C102.224 7.44493 102.298 7.34181 102.377 7.2676L105.119 10.1804C105.817 9.52276 106.122 8.66347 106.122 7.8H102.122ZM102.425 7.22432C102.479 7.17612 102.556 7.12706 102.648 7.09325C102.739 7.06009 102.811 7.054 102.846 7.054V11.054C103.654 11.054 104.434 10.7861 105.071 10.2237L102.425 7.22432ZM102.846 7.054C102.866 7.054 102.924 7.05735 103.003 7.0843C103.084 7.11201 103.158 7.15447 103.215 7.20214L100.673 10.2899C101.313 10.8172 102.075 11.054 102.846 11.054V7.054ZM103.215 7.20214C103.336 7.30103 103.439 7.43635 103.504 7.58972C103.565 7.73403 103.57 7.83963 103.57 7.866H99.57C99.57 8.72503 99.8767 9.63443 100.673 10.2899L103.215 7.20214ZM103.57 7.866V7.338H99.57V7.866H103.57ZM103.57 7.338C103.57 6.70792 103.448 5.58841 102.498 4.84136L100.026 7.98663C99.7538 7.77251 99.6379 7.52529 99.5956 7.39845C99.5578 7.28495 99.57 7.24643 99.57 7.338H103.57ZM102.619 4.94439C102.184 4.54299 101.686 4.3612 101.311 4.27122C100.924 4.17839 100.528 4.15 100.162 4.15V8.15C100.338 8.15 100.397 8.16561 100.377 8.16077C100.363 8.1574 100.309 8.1434 100.23 8.10598C100.15 8.06815 100.031 7.99991 99.9054 7.88361L102.619 4.94439ZM100.162 4.15H88.744V8.15H100.162V4.15ZM88.744 4.15C88.1317 4.15 87.1093 4.21928 86.3204 4.89548L88.9236 7.93251C88.8099 8.02999 88.706 8.08699 88.637 8.11844C88.5686 8.1496 88.5235 8.16075 88.5146 8.16283C88.505 8.16509 88.518 8.16135 88.5598 8.15735C88.6008 8.15341 88.6612 8.15 88.744 8.15V4.15ZM86.3864 4.84136C85.4356 5.58841 85.314 6.70792 85.314 7.338H89.314C89.314 7.24643 89.3262 7.28495 89.2884 7.39846C89.2461 7.52529 89.1302 7.77251 88.8577 7.98663L86.3864 4.84136ZM85.314 7.338V7.866H89.314V7.338H85.314ZM85.314 7.866C85.314 7.83963 85.3185 7.73403 85.3798 7.58972C85.445 7.43635 85.5485 7.30103 85.6686 7.20214L88.2114 10.2899C89.0073 9.63443 89.314 8.72503 89.314 7.866H85.314ZM85.623 7.24085C85.6973 7.17581 85.7879 7.12266 85.8833 7.08928C85.9751 7.05714 86.0405 7.054 86.06 7.054V11.054C86.8297 11.054 87.6105 10.8169 88.257 10.2512L85.623 7.24085ZM95.74 12.506H97.302V8.506H95.74V12.506ZM99.0718 11.4375C99.221 11.1541 99.399 10.8129 99.6055 10.4146L96.0545 8.57337C95.8503 8.9671 95.6763 9.30059 95.5322 9.57451L99.0718 11.4375ZM99.6189 10.3884C99.8217 9.98278 99.9738 9.68589 100.079 9.48917L96.5493 7.60682C96.4195 7.85011 96.249 8.18389 96.0412 8.59957L99.6189 10.3884ZM100.211 9.18045C100.14 9.39586 100.009 9.63721 99.7942 9.85219L96.9658 7.02381C96.6921 7.29746 96.5178 7.61214 96.4166 7.91554L100.211 9.18045ZM100.044 9.54742C100.095 9.47066 100.168 9.35672 100.235 9.22241L96.6571 7.43359C96.6784 7.39117 96.6956 7.36171 96.7035 7.3485C96.7121 7.33417 96.7169 7.32709 96.7159 7.32858L100.044 9.54742ZM98.1632 6.3481C97.7655 6.4049 97.3372 6.46203 96.8779 6.51944L97.3741 10.4886C97.8534 10.4286 98.3051 10.3684 98.7289 10.3079L98.1632 6.3481ZM96.8701 6.52044C96.4181 6.57876 95.9587 6.6371 95.4919 6.69544L95.9881 10.6646C96.46 10.6056 96.9246 10.5466 97.382 10.4876L96.8701 6.52044ZM93.74 8.68V10.506H97.74V8.68H93.74ZM90.1751 17.0883C90.4928 17.0088 90.9707 16.95 91.648 16.95V12.95C90.7706 12.95 89.9432 13.0232 89.2049 13.2077L90.1751 17.0883ZM91.648 16.95H93.276V12.95H91.648V16.95ZM95.276 14.95V12.508H91.276V14.95H95.276ZM91.933 11.026C91.5222 11.3983 91.0331 11.7961 90.4603 12.2189L92.8357 15.4371C93.4949 14.9506 94.0911 14.4684 94.619 13.99L91.933 11.026ZM90.4603 12.2189C89.8913 12.6388 89.2847 13.048 88.6398 13.4459L90.7402 16.8501C91.474 16.3973 92.1727 15.9265 92.8357 15.4371L90.4603 12.2189ZM91.89 23H93.276V19H91.89V23ZM95.276 21V19.724H91.276V21H95.276ZM93.276 17.724H90.24V21.724H93.276V17.724ZM88.2407 19.778C88.2571 20.3852 88.3706 21.6311 89.4093 22.3928L91.7747 19.1672C92.0998 19.4056 92.2103 19.6842 92.2364 19.7625C92.2615 19.8379 92.2435 19.8268 92.2393 19.67L88.2407 19.778ZM89.4826 22.4441C89.9315 22.7433 90.4134 22.8603 90.7473 22.9169C91.1123 22.9787 91.5023 23 91.89 23V19C91.7656 19 91.6635 18.9964 91.5816 18.9909C91.4989 18.9852 91.4452 18.9781 91.4157 18.9731C91.3844 18.9678 91.3953 18.9674 91.4357 18.981C91.4733 18.9937 91.5741 19.031 91.7014 19.1159L89.4826 22.4441ZM100.192 13.4322C99.5975 13.0592 99.0257 12.6733 98.4759 12.2748L96.1281 15.5132C96.7517 15.9653 97.3972 16.4008 98.0645 16.8198L100.192 13.4322ZM98.5214 12.3088C97.9863 11.8971 97.5076 11.4987 97.083 11.114L94.397 14.078C94.9111 14.5439 95.4737 15.0109 96.0826 15.4792L98.5214 12.3088ZM93.74 12.596V14.95H97.74V12.596H93.74ZM95.74 16.95H97.258V12.95H95.74V16.95ZM97.258 16.95C97.5899 16.95 97.8699 16.9628 98.1024 16.985L98.4816 13.003C98.0981 12.9665 97.6888 12.95 97.258 12.95V16.95ZM98.1969 16.9917C98.3745 17.0002 98.4922 17.0237 98.5637 17.0447L99.6923 13.2073C99.2651 13.0816 98.8256 13.0171 98.3871 12.9963L98.1969 16.9917ZM91.428 12.506H93.276V8.506H91.428V12.506ZM95.276 10.506V8.9H91.276V10.506H95.276ZM93.1513 6.90389C92.6806 6.93331 92.2173 6.96273 91.7612 6.99215L92.0188 10.9839C92.4721 10.9546 92.9327 10.9254 93.4008 10.8961L93.1513 6.90389ZM91.8255 6.98904C91.3487 7.00442 90.8785 7.02753 90.415 7.05843L90.681 11.0496C91.0975 11.0218 91.522 11.0009 91.9545 10.987L91.8255 6.98904ZM88.8999 10.1871C89.0338 10.3818 89.1802 10.6103 89.339 10.875L92.769 8.81701C92.5758 8.49507 92.3849 8.19553 92.1961 7.92094L88.8999 10.1871ZM89.339 10.875C89.5105 11.1608 89.602 11.3261 89.6392 11.4004L93.2169 9.61157C93.1073 9.39254 92.9495 9.11786 92.769 8.81701L89.339 10.875ZM90.24 20.008H93.276V16.008H90.24V20.008ZM95.276 18.008V16.776H91.276V18.008H95.276ZM93.276 14.776H91.89V18.776H93.276V14.776ZM91.89 14.776C91.5077 14.776 91.1214 14.7975 90.7582 14.8601C90.4232 14.9178 89.9483 15.0361 89.5046 15.3319L91.7234 18.6601C91.5997 18.7425 91.5015 18.7796 91.4629 18.7928C91.4218 18.8068 91.4093 18.8068 91.4378 18.8019C91.4646 18.7973 91.5151 18.7904 91.5941 18.7849C91.6722 18.7795 91.7701 18.776 91.89 18.776V14.776ZM89.5046 15.3319C88.9361 15.7109 88.6365 16.2409 88.4795 16.6657C88.3239 17.0869 88.2641 17.5184 88.2431 17.8971L92.2369 18.1189C92.2452 17.9696 92.2625 17.9685 92.2315 18.0523C92.1992 18.1398 92.0719 18.4278 91.7234 18.6601L89.5046 15.3319ZM95.74 23H97.016V19H95.74V23ZM97.016 23C97.4037 23 97.7937 22.9787 98.1587 22.9169C98.4927 22.8603 98.9746 22.7433 99.4234 22.4441L97.2046 19.1159C97.3319 19.031 97.4327 18.9937 97.4703 18.981C97.5107 18.9674 97.5216 18.9678 97.4903 18.9731C97.4608 18.9781 97.4072 18.9852 97.3244 18.9909C97.2425 18.9964 97.1404 19 97.016 19V23ZM99.4967 22.3928C100.535 21.6311 100.649 20.3852 100.665 19.778L96.6667 19.67C96.6625 19.8268 96.6445 19.8379 96.6696 19.7625C96.6957 19.6842 96.8062 19.4056 97.1313 19.1672L99.4967 22.3928ZM98.666 17.724H95.74V21.724H98.666V17.724ZM93.74 19.724V21H97.74V19.724H93.74ZM95.74 20.008H98.666V16.008H95.74V20.008ZM100.665 17.9525C100.655 17.5719 100.606 17.1331 100.456 16.702C100.304 16.2645 100.004 15.7193 99.4234 15.3319L97.2046 18.6601C96.8435 18.4194 96.7128 18.1161 96.678 18.016C96.6454 17.9223 96.6627 17.9161 96.6668 18.0635L100.665 17.9525ZM99.4234 15.3319C98.9746 15.0327 98.4927 14.9157 98.1587 14.8591C97.7937 14.7973 97.4037 14.776 97.016 14.776V18.776C97.1404 18.776 97.2425 18.7796 97.3244 18.7851C97.4072 18.7908 97.4608 18.7979 97.4903 18.8029C97.5216 18.8082 97.5107 18.8086 97.4703 18.795C97.4327 18.7823 97.3319 18.745 97.2046 18.6601L99.4234 15.3319ZM97.016 14.776H95.74V18.776H97.016V14.776ZM93.74 16.776V18.008H97.74V16.776H93.74ZM107.774 21.88L109.236 20.5154L109.213 20.4902L109.188 20.4658L107.774 21.88ZM107.774 20.428L109.188 21.8422V21.8422L107.774 20.428ZM111.778 20.12V22.12H113.778V20.12H111.778ZM112.152 12.728L110.363 11.8336V11.8336L112.152 12.728ZM116.464 11.364V13.364H118.464V11.364H116.464ZM116.464 8.262H118.464V3.74796L115.12 6.78056L116.464 8.262ZM114.286 10L115.443 11.6315L115.448 11.6275L114.286 10ZM111.778 11.628L112.789 13.3534L112.798 13.3481L111.778 11.628ZM109.358 12.948L110.191 14.7661L110.222 14.752L110.252 14.7369L109.358 12.948ZM108.258 13.08L107.791 15.0248L107.836 15.0354L107.88 15.044L108.258 13.08ZM107.444 12.398L105.623 13.2256L105.632 13.2446L105.641 13.2635L107.444 12.398ZM107.378 11.452L105.498 10.7685L105.489 10.7939L105.481 10.8195L107.378 11.452ZM108.038 10.748L108.866 12.5687L108.876 12.5641L108.886 12.5594L108.038 10.748ZM110.26 9.626L111.206 11.388L111.219 11.3812L111.231 11.3743L110.26 9.626ZM112.592 8.24L111.535 6.54221L111.528 6.54674L111.52 6.55134L112.592 8.24ZM114.66 6.832L115.866 8.42732L120.621 4.832H114.66V6.832ZM107.928 6.524L106.417 7.83386L106.463 7.88777L106.514 7.93821L107.928 6.524ZM107.928 5.05L106.514 3.63579V3.63579L107.928 5.05ZM116.464 4.742V6.742H118.464V4.742H116.464ZM116.838 2.586L118.209 4.0424L118.209 4.0424L116.838 2.586ZM118.664 2.586L117.293 4.0424L117.314 4.06191L117.335 4.08082L118.664 2.586ZM119.06 4.742H117.06V6.742H119.06V4.742ZM127.574 5.05L126.108 6.4109L126.159 6.46518L126.213 6.51559L127.574 5.05ZM127.574 6.524L126.112 5.15936L126.108 5.1631L127.574 6.524ZM120.908 6.832V4.832H114.983L119.696 8.42286L120.908 6.832ZM122.976 8.262L121.904 9.95066L121.916 9.95807L121.928 9.96531L122.976 8.262ZM125.308 9.604L124.362 11.366L124.368 11.3696L124.375 11.3731L125.308 9.604ZM127.552 10.726L126.704 12.5374L126.749 12.5584L126.795 12.5771L127.552 10.726ZM128.212 11.43L126.323 12.087L126.328 12.1003L126.332 12.1135L128.212 11.43ZM128.146 12.398L126.357 11.5036L126.35 11.518L126.343 11.5325L128.146 12.398ZM127.31 13.08L126.86 11.1312L126.852 11.1332L126.843 11.1352L127.31 13.08ZM126.232 12.97L125.379 14.7789L125.389 14.7836L125.399 14.7881L126.232 12.97ZM123.768 11.65L122.726 13.3573L122.737 13.3638L122.748 13.3701L123.768 11.65ZM121.238 9.956L120.057 11.5697L121.238 9.956ZM119.06 8.196L120.404 6.71456L117.06 3.68197V8.196H119.06ZM119.06 11.364H117.06V13.364H119.06V11.364ZM122.096 11.672L121.435 13.5597L122.096 11.672ZM123.35 12.728L125.139 11.8336V11.8336L123.35 12.728ZM123.724 20.12H121.724V22.12H123.724V20.12ZM127.728 20.428L126.262 21.7889L127.728 20.428ZM127.728 21.88L126.262 20.5191L126.239 20.5442L126.217 20.5701L127.728 21.88ZM114.352 20.12H112.352V22.12H114.352V20.12ZM121.15 20.12V22.12H123.15V20.12H121.15ZM121.15 19.042H123.15V17.042H121.15V19.042ZM114.352 19.042V17.042H112.352V19.042H114.352ZM114.352 17.26H112.352V19.26H114.352V17.26ZM121.15 17.26V19.26H123.15V17.26H121.15ZM121.15 16.226H123.15V14.226H121.15V16.226ZM114.352 16.226V14.226H112.352V16.226H114.352ZM114.374 14.444L112.385 14.2309L112.148 16.444H114.374V14.444ZM121.128 14.444V16.444H123.354L123.117 14.2309L121.128 14.444ZM120.732 13.63L119.623 15.2941L119.662 15.3205L119.703 15.345L120.732 13.63ZM114.77 13.63L115.799 15.345L115.815 15.3356L115.83 15.326L114.77 13.63ZM108.5 20.21C108.632 20.21 108.786 20.2379 108.937 20.3068C109.085 20.3741 109.183 20.4584 109.236 20.5154L106.312 23.2446C106.862 23.8337 107.619 24.21 108.5 24.21V20.21ZM109.188 20.4658C109.248 20.5257 109.325 20.6243 109.384 20.7634C109.444 20.9041 109.466 21.0413 109.466 21.154H105.466C105.466 21.9875 105.797 22.7314 106.36 23.2942L109.188 20.4658ZM109.466 21.154C109.466 21.2667 109.444 21.4039 109.384 21.5446C109.325 21.6837 109.248 21.7823 109.188 21.8422L106.36 19.0138C105.797 19.5766 105.466 20.3205 105.466 21.154H109.466ZM109.188 21.8422C109.128 21.9022 109.03 21.9792 108.891 22.0382C108.75 22.0979 108.613 22.12 108.5 22.12V18.12C107.667 18.12 106.923 18.451 106.36 19.0138L109.188 21.8422ZM108.5 22.12H111.778V18.12H108.5V22.12ZM113.778 20.12V14.818H109.778V20.12H113.778ZM113.778 14.818C113.778 14.0665 113.89 13.7248 113.941 13.6224L110.363 11.8336C109.916 12.7285 109.778 13.7802 109.778 14.818H113.778ZM113.941 13.6224C113.943 13.6179 113.943 13.6196 113.939 13.6243C113.935 13.629 113.932 13.6314 113.933 13.6308C113.933 13.6306 113.969 13.6008 114.074 13.5647L112.782 9.7793C111.759 10.1287 110.881 10.7983 110.363 11.8336L113.941 13.6224ZM114.074 13.5647C114.379 13.4605 114.945 13.364 115.87 13.364V9.364C114.741 9.364 113.679 9.47282 112.782 9.7793L114.074 13.5647ZM115.87 13.364H116.464V9.364H115.87V13.364ZM118.464 11.364V8.262H114.464V11.364H118.464ZM115.12 6.78056C114.557 7.29191 113.893 7.82298 113.124 8.37253L115.448 11.6275C116.322 11.0037 117.11 10.3761 117.808 9.74344L115.12 6.78056ZM113.129 8.36853C112.368 8.90861 111.577 9.42176 110.758 9.90789L112.798 13.3481C113.71 12.8076 114.591 12.2354 115.443 11.6315L113.129 8.36853ZM110.767 9.9026C109.948 10.3822 109.181 10.8004 108.464 11.1591L110.252 14.7369C111.06 14.3329 111.906 13.8711 112.789 13.3534L110.767 9.9026ZM108.525 11.1299C108.528 11.1284 108.548 11.1201 108.581 11.1162C108.596 11.1145 108.609 11.1141 108.62 11.1145C108.63 11.115 108.636 11.116 108.636 11.116L107.88 15.044C108.669 15.1958 109.46 15.1015 110.191 14.7661L108.525 11.1299ZM108.725 11.1352C108.822 11.1586 108.947 11.2126 109.064 11.3105C109.177 11.4052 109.23 11.4971 109.247 11.5325L105.641 13.2635C106.054 14.1238 106.789 14.7842 107.791 15.0248L108.725 11.1352ZM109.265 11.5704C109.278 11.6001 109.305 11.6728 109.313 11.7803C109.32 11.8909 109.305 11.997 109.275 12.0845L105.481 10.8195C105.203 11.6522 105.289 12.4892 105.623 13.2256L109.265 11.5704ZM109.258 12.1355C109.23 12.211 109.177 12.3088 109.09 12.4019C109.004 12.4939 108.918 12.5449 108.866 12.5687L107.21 8.92727C106.416 9.28824 105.806 9.92282 105.498 10.7685L109.258 12.1355ZM108.886 12.5594C109.614 12.2187 110.388 11.8277 111.206 11.388L109.314 7.86401C108.548 8.27499 107.841 8.63199 107.19 8.93662L108.886 12.5594ZM111.231 11.3743C112.057 10.9155 112.868 10.4336 113.664 9.92866L111.52 6.55134C110.791 7.01442 110.047 7.45653 109.289 7.87769L111.231 11.3743ZM113.649 9.93779C114.467 9.42839 115.208 8.9251 115.866 8.42732L113.454 5.23668C112.909 5.64823 112.271 6.08361 111.535 6.54221L113.649 9.93779ZM114.66 4.832H108.654V8.832H114.66V4.832ZM108.654 4.832C108.767 4.832 108.904 4.85414 109.045 4.91384C109.184 4.97284 109.282 5.04983 109.342 5.10979L106.514 7.93821C107.077 8.50103 107.821 8.832 108.654 8.832V4.832ZM109.439 5.21414C109.483 5.26438 109.539 5.34568 109.582 5.45772C109.625 5.57105 109.642 5.68207 109.642 5.776H105.642C105.642 6.55881 105.926 7.26797 106.417 7.83386L109.439 5.21414ZM109.642 5.776C109.642 5.84838 109.63 5.96717 109.574 6.10755C109.518 6.25124 109.434 6.37281 109.342 6.46421L106.514 3.63579C105.913 4.23635 105.642 5.00359 105.642 5.776H109.642ZM109.342 6.46421C109.282 6.52417 109.184 6.60116 109.045 6.66016C108.904 6.71986 108.767 6.742 108.654 6.742V2.742C107.821 2.742 107.077 3.07297 106.514 3.63579L109.342 6.46421ZM108.654 6.742H116.464V2.742H108.654V6.742ZM118.464 4.742V3.51H114.464V4.742H118.464ZM118.464 3.51C118.464 3.53892 118.459 3.62643 118.411 3.74338C118.362 3.86507 118.288 3.96819 118.209 4.0424L115.467 1.1296C114.769 1.78724 114.464 2.64653 114.464 3.51H118.464ZM118.209 4.0424C118.15 4.09725 118.068 4.1529 117.968 4.19097C117.87 4.22814 117.795 4.234 117.762 4.234V0.233999C116.925 0.233999 116.115 0.519532 115.467 1.1296L118.209 4.0424ZM117.762 4.234C117.712 4.234 117.626 4.2248 117.524 4.18515C117.422 4.14513 117.344 4.0898 117.293 4.0424L120.035 1.1296C119.403 0.535053 118.608 0.233999 117.762 0.233999V4.234ZM117.335 4.08082C117.26 4.01362 117.179 3.91166 117.123 3.78084C117.068 3.65381 117.06 3.55296 117.06 3.51H121.06C121.06 2.60859 120.721 1.73812 119.993 1.09118L117.335 4.08082ZM117.06 3.51V4.742H121.06V3.51H117.06ZM119.06 6.742H126.848V2.742H119.06V6.742ZM126.848 6.742C126.757 6.742 126.622 6.72516 126.468 6.66016C126.313 6.59428 126.192 6.50092 126.108 6.4109L129.04 3.6891C128.451 3.0552 127.668 2.742 126.848 2.742V6.742ZM126.213 6.51559C126.123 6.432 126.03 6.3109 125.964 6.1556C125.899 6.0024 125.882 5.86659 125.882 5.776H129.882C129.882 4.95589 129.569 4.17303 128.935 3.58441L126.213 6.51559ZM125.882 5.776C125.882 5.66302 125.904 5.53551 125.956 5.4105C126.006 5.28809 126.069 5.20511 126.112 5.15936L129.036 7.88864C129.557 7.33063 129.882 6.60382 129.882 5.776H125.882ZM126.108 5.1631C126.192 5.07308 126.313 4.97972 126.468 4.91384C126.622 4.84884 126.757 4.832 126.848 4.832V8.832C127.668 8.832 128.451 8.5188 129.04 7.8849L126.108 5.1631ZM126.848 4.832H120.908V8.832H126.848V4.832ZM119.696 8.42286C120.364 8.9319 121.101 9.44096 121.904 9.95066L124.048 6.57334C123.325 6.11504 122.684 5.67077 122.12 5.24114L119.696 8.42286ZM121.928 9.96531C122.724 10.4553 123.535 10.9222 124.362 11.366L126.254 7.84201C125.497 7.43516 124.753 7.00738 124.024 6.55868L121.928 9.96531ZM124.375 11.3731C125.205 11.8104 125.981 12.199 126.704 12.5374L128.4 8.91462C127.744 8.60767 127.025 8.24822 126.241 7.83486L124.375 11.3731ZM126.795 12.5771C126.713 12.5435 126.602 12.4783 126.5 12.3689C126.398 12.2605 126.346 12.1535 126.323 12.087L130.101 10.773C129.8 9.90886 129.178 9.23016 128.309 8.8749L126.795 12.5771ZM126.332 12.1135C126.302 12.0291 126.279 11.9118 126.288 11.778C126.297 11.6465 126.333 11.5516 126.357 11.5036L129.935 13.2924C130.328 12.5065 130.407 11.614 130.092 10.7465L126.332 12.1135ZM126.343 11.5325C126.365 11.4858 126.424 11.3888 126.541 11.2938C126.659 11.1971 126.779 11.1499 126.86 11.1312L127.76 15.0288C128.76 14.798 129.522 14.1532 129.949 13.2635L126.343 11.5325ZM126.843 11.1352C126.869 11.129 126.914 11.1233 126.969 11.1288C127.022 11.1343 127.056 11.1478 127.065 11.1519L125.399 14.7881C126.146 15.1306 126.962 15.2202 127.777 15.0248L126.843 11.1352ZM127.085 11.1611C126.374 10.8255 125.608 10.4163 124.788 9.92989L122.748 13.3701C123.658 13.9104 124.536 14.3812 125.379 14.7789L127.085 11.1611ZM124.81 9.94272C123.992 9.44405 123.196 8.91062 122.419 8.34227L120.057 11.5697C120.923 12.2041 121.813 12.7999 122.726 13.3573L124.81 9.94272ZM122.419 8.34227C121.644 7.77449 120.974 7.23167 120.404 6.71456L117.716 9.67744C118.408 10.3043 119.189 10.9348 120.057 11.5697L122.419 8.34227ZM117.06 8.196V11.364H121.06V8.196H117.06ZM119.06 13.364H119.654V9.364H119.06V13.364ZM119.654 13.364C120.601 13.364 121.157 13.4622 121.435 13.5597L122.757 9.78428C121.862 9.47116 120.79 9.364 119.654 9.364V13.364ZM121.435 13.5597C121.484 13.5767 121.515 13.592 121.534 13.6024C121.553 13.6127 121.56 13.6191 121.561 13.6198C121.562 13.6204 121.56 13.6188 121.558 13.6159C121.556 13.6132 121.557 13.6143 121.561 13.6224L125.139 11.8336C124.629 10.8146 123.773 10.1399 122.757 9.78428L121.435 13.5597ZM121.561 13.6224C121.612 13.7248 121.724 14.0665 121.724 14.818H125.724C125.724 13.7802 125.586 12.7285 125.139 11.8336L121.561 13.6224ZM121.724 14.818V20.12H125.724V14.818H121.724ZM123.724 22.12H127.002V18.12H123.724V22.12ZM127.002 22.12C126.911 22.12 126.776 22.1032 126.622 22.0382C126.467 21.9723 126.346 21.8789 126.262 21.7889L129.194 19.0671C128.605 18.4332 127.822 18.12 127.002 18.12V22.12ZM126.262 21.7889C126.201 21.723 126.132 21.6251 126.082 21.4965C126.031 21.3679 126.014 21.2475 126.014 21.154H130.014C130.014 20.3674 129.726 19.6401 129.194 19.0671L126.262 21.7889ZM126.014 21.154C126.014 21.0605 126.031 20.9401 126.082 20.8115C126.132 20.6829 126.201 20.585 126.262 20.5191L129.194 23.2409C129.726 22.6679 130.014 21.9406 130.014 21.154H126.014ZM126.217 20.5701C126.292 20.4836 126.411 20.3818 126.576 20.3068C126.741 20.2319 126.893 20.21 127.002 20.21V24.21C127.87 24.21 128.666 23.852 129.239 23.1899L126.217 20.5701ZM127.002 20.21H108.5V24.21H127.002V20.21ZM114.352 22.12H121.15V18.12H114.352V22.12ZM123.15 20.12V19.042H119.15V20.12H123.15ZM121.15 17.042H114.352V21.042H121.15V17.042ZM112.352 19.042V20.12H116.352V19.042H112.352ZM114.352 19.26H121.15V15.26H114.352V19.26ZM123.15 17.26V16.226H119.15V17.26H123.15ZM121.15 14.226H114.352V18.226H121.15V14.226ZM112.352 16.226V17.26H116.352V16.226H112.352ZM114.374 16.444H121.128V12.444H114.374V16.444ZM123.117 14.2309C123.047 13.5789 122.779 12.526 121.761 11.915L119.703 15.345C119.425 15.1785 119.271 14.9579 119.198 14.8074C119.133 14.6741 119.134 14.6028 119.139 14.6571L123.117 14.2309ZM121.841 11.9659C121.111 11.4791 120.25 11.41 119.654 11.41V15.41C119.73 15.41 119.789 15.4128 119.832 15.4165C119.875 15.4202 119.895 15.4241 119.898 15.4246C119.9 15.4252 119.876 15.4204 119.831 15.4035C119.786 15.3865 119.712 15.3535 119.623 15.2941L121.841 11.9659ZM119.654 11.41H115.87V15.41H119.654V11.41ZM115.87 11.41C115.256 11.41 114.428 11.4856 113.71 11.934L115.83 15.326C115.754 15.3732 115.693 15.3991 115.658 15.412C115.623 15.4249 115.606 15.4277 115.613 15.4262C115.62 15.4247 115.645 15.4204 115.69 15.4166C115.734 15.4128 115.794 15.41 115.87 15.41V11.41ZM113.741 11.915C112.723 12.526 112.455 13.5789 112.385 14.2309L116.363 14.6571C116.368 14.6028 116.369 14.6741 116.304 14.8074C116.231 14.9579 116.077 15.1785 115.799 15.345L113.741 11.915Z" fill="#0C8D8D" mask="url(#path-1-outside-1_10944_60632)"/>
</svg>
